<svg xmlns="http://www.w3.org/2000/svg" viewBox="0 0 732.71 436.14">
  <defs>
    <style>.cls-1,.cls-2{font-size:42.36px;font-family:Futura-Bold, Futura;font-weight:700;}.cls-1,.cls-6{fill:#f56c69;}.cls-2,.cls-3{fill:#9ccc78;}.cls-4{fill:#faed8a;}.cls-5{fill:#f5c08d;}.cls-7{fill:#d6e478;}.cls-8{fill:#182e70;}</style>
  </defs>
  <g id="Layer_2" data-name="Layer 2">
    <g id="Gezondheidsmeter_lichtgroen" data-name="Gezondheidsmeter lichtgroen">
      <path class="cls-3" d="M605.79,366.28q-61.53,0-123,.05c-3.36,0-3.94-.77-3.66-6.12a78.33,78.33,0,0,0-8.5-39.86c-8.82-17.12-14.1-17.35-9.74-20.51q74.94-54.4,149.77-108.95,26.4-19.23,52.76-38.51A366,366,0,0,1,728.83,314a393.68,393.68,0,0,1,3.86,47.75c.1,4.54,0,4.55-4.42,4.55Z"/>
      <path class="cls-4" d="M366.55,0c11.38-.23,22.69.94,34,1.71a165.18,165.18,0,0,1,17.9,2c8.83,1.59,17.7,3,26.46,5.08,6.56,1.56,13.19,2.89,19.67,4.82,3.82,1.13,7.61,2.37,11.42,3.54a2,2,0,0,1,1.6,2.81c-.94,3-2,6-2.95,9.07-2.46,7.72-4.87,15.47-7.37,23.19-2.36,7.29-4.81,14.56-7.19,21.85-1.75,5.33-3.41,10.69-5.16,16-2.15,6.54-4.61,13-6.46,19.6-2.13,7.67-5.13,15-7.28,22.71-1.46,5.22-3.42,10.29-5.07,15.45-2.16,6.75-4.19,13.55-6.37,20.3-1.8,5.59-3.76,11.12-5.59,16.7-3.39,10.31-6.85,20.6-10.05,31-3.8,12.32-8,24.5-11.91,36.78-1.86,5.8-.48,5.59-6.82,3.73-14.26-4.18-28.84-4.65-43.48-3.56a80.41,80.41,0,0,0-18.48,3.62c-1.39.44-1.43,0-1.92-1-2.45-5-3.45-10.5-5.29-15.71-2.71-7.64-5.35-15.31-7.67-23.07-1.85-6.17-3.85-12.28-5.9-18.39-2.54-7.58-4.52-15.35-7.21-22.86-3-8.27-5.48-16.68-8.16-25-2.53-7.92-5.38-15.72-7.69-23.72-2.46-8.52-5.62-16.84-8.21-25.33-2.43-8-5.35-15.76-7.79-23.72-2.26-7.37-4.83-14.7-7.2-22.05-2.61-8.07-5.41-16.12-7.65-24.33-1-3.64-2.38-7.25-3.73-10.82-.74-2,0-2.83,1.74-3.32,9.26-2.59,18.44-5.53,27.8-7.66,11.43-2.6,23-4.61,34.64-6.14C334.94,1.16,350.73.49,366.55,0Z"/>
      <path class="cls-5" d="M251.18,18.87c1-.12,1,.61,1.29,1.39,2.65,8.38,5.31,16.76,8,25.12,2.45,7.45,5.27,14.79,7.43,22.33,3,10.44,6.85,20.61,9.85,31.06,1.58,5.52,3.63,11,5.5,16.44,3.12,9.12,5.87,18.37,8.95,27.52,3.4,10.1,6.32,20.36,9.9,30.41,2.78,7.85,4.64,16,7.52,23.84,2.21,6,4,12.08,6.06,18.08,2.14,6.17,4,12.45,6,18.69q2.6,8.15,5.18,16.31c.62,1.95,1.24,3.91,1.88,5.86.37,1.13.38,1.84-1.09,2.29-7.81,2.36-15,6.19-21.93,10.3A108.39,108.39,0,0,0,275,295.32c-1.52,2-3,1.94-5,.39-7.84-6.1-15.94-11.83-24-17.57-7.49-5.31-14.79-10.91-22.2-16.34-8-5.85-16-11.6-23.89-17.61-7.65-5.84-15.69-11.16-23.51-16.78-5.07-3.63-10-7.41-15.07-11.09Q148,206.65,134.72,197c-10.22-7.42-20.49-14.78-30.59-22.37-9.13-6.85-18.51-13.35-27.77-20-.68-.5-1.21-1.2-1.88-1.71-3.51-2.67-3.34-2.52-.65-6.13a283.1,283.1,0,0,1,19.25-23.47c5.73-6.15,11.43-12.31,17.48-18.19,5.08-4.93,10.31-9.67,15.49-14.48a259.23,259.23,0,0,1,24.34-19.45c8-5.84,16.11-11.63,24.61-16.75,7.44-4.48,15-8.81,22.76-12.74,5.27-2.66,10.49-5.42,15.85-7.87,7.92-3.63,15.87-7.21,24.13-10,3.59-1.23,7.08-2.8,10.63-4.16A25.41,25.41,0,0,1,251.18,18.87Z"/>
      <path class="cls-6" d="M124.79,366.17H4.29c-4.23,0-4.36-.1-4.27-4.25.25-12.31,1-24.59,2.36-36.81A351.74,351.74,0,0,1,10.48,280a377,377,0,0,1,13.86-44.15,382.37,382.37,0,0,1,23.84-50.46,332.77,332.77,0,0,1,19.88-31.09c1.37-1.9,2.37-1.08,3.71-.1q22.2,16.25,44.44,32.44,24,17.46,47.94,34.89,32.55,23.64,65.14,47.21,16.11,11.7,32.13,23.52c2.8,2.05,5.48,4.28,8.39,6.14,1.67,1.07,1.31,1.75.4,3.07a119.61,119.61,0,0,0-18.3,41.75,112.12,112.12,0,0,0-2.31,19.68c-.11,2.59-.9,3.31-3.47,3.3Q185.46,366.11,124.79,366.17Z"/>
      <path class="cls-7" d="M480.73,19.66c-1-.11-1,.62-1.28,1.39-2.66,8.39-5.31,16.77-8.05,25.12C469,53.62,466.12,61,464,68.5c-3,10.45-6.84,20.61-9.84,31.07-1.59,5.52-3.63,11-5.5,16.43-3.12,9.13-5.87,18.38-8.95,27.52-3.41,10.1-6.33,20.36-9.9,30.41-2.79,7.85-4.65,16-7.53,23.84-2.2,6-4,12.08-6.05,18.08-2.15,6.17-4,12.45-6,18.69q-2.6,8.15-5.18,16.31c-.62,2-1.24,3.91-1.88,5.86-.36,1.13-.38,1.84,1.1,2.29,7.8,2.36,15,6.19,21.93,10.3,11.9,7,22.2,18.34,30.72,29.28,1.52,1.95,3.12-.52,5.12-2.08,7.83-6.09,15.93-11.83,24-17.57,7.5-5.31,14.79-10.9,22.2-16.34,8-5.85,16-11.6,23.9-17.61,7.64-5.84,15.68-11.16,23.51-16.77,5.06-3.64,10-7.41,15.06-11.1q13.25-9.68,26.51-19.31c10.23-7.42,20.49-14.78,30.6-22.36,9.12-6.85,18.51-13.36,27.77-20,.68-.49,1.21-1.2,1.88-1.71,3.51-2.66,3.34-2.52.65-6.13a281.22,281.22,0,0,0-19.26-23.47c-5.72-6.15-11.43-12.31-17.48-18.18C616.28,101,611,96.24,605.87,91.44A260.76,260.76,0,0,0,581.52,72c-8-5.84-16.1-11.63-24.61-16.75-7.44-4.48-15-8.81-22.76-12.74-5.26-2.66-10.48-5.41-15.85-7.87-7.92-3.62-15.86-7.2-24.12-10-3.6-1.23-7.08-2.79-10.63-4.16A25.6,25.6,0,0,0,480.73,19.66Z"/>
      <path class="cls-8" d="M443.17,285.27q-28.68,36-57.39,71.93a25,25,0,0,1-21.66,9.7A28.13,28.13,0,0,1,339,347.23c-3.89-12.46-.59-24.63,8.95-32.65,9.25-7.77,18.56-15.47,27.83-23.2L421.92,253c9.7-8,19.44-15.89,29.11-23.91,10.19-8.45,20.3-17,30.49-25.49,11.34-9.42,22.74-18.75,34.07-28.18q22.18-18.45,44.29-37a5.57,5.57,0,0,1-1.06,1.85Q548.64,153,538.43,165.67q-13.38,16.74-26.74,33.5l-29.63,37.14c-6,7.5-12,15-17.93,22.5-5.63,7.11-11.21,14.26-16.82,21.39C445.93,281.89,444.53,283.56,443.17,285.27ZM347.3,340c1.74,10.94,11.51,18.24,22.08,16.49,9.87-1.62,16.79-12,15.06-22.54C382.65,323,373,315.57,362.69,317.28S345.55,329,347.3,340Z"/>
    </g>
  </g>
</svg>