<svg xmlns="http://www.w3.org/2000/svg" viewBox="0 0 843.06 556">
    <defs>
        <style>.cls-1{fill:#fffaf8;}.cls-2{fill:#ce874b;}</style>
    </defs>
    <g id="Layer_2" data-name="Layer 2">
        <g id="Cavelier_spaniel" data-name="Cavelier spaniel">
            <rect class="cls-1" x="0.06" width="843" height="556"/>
            <path class="cls-2" d="M226,0s74.57,39.6,67.78,128.24-68.29,88.23-87.68,109.08c-10,10.77-25,26.33-26.26,59.09-1.18,29.21-7.26,45.38-27.71,61.14-18.65,14.36-54.2,26.95-96.2,8.8-13.33-5.76-54.85-22.4-55.56-80-.84-68,0-164.81.2-164.82h0L.05,0Z"/>
            <path class="cls-2" d="M331.28,326.06c18.58,13.22,64.12,19.24,85.9-23.21s2.39-64.58,5.9-110.84S463.49,50.67,459.54,0H253.48s74.34,43.63,50.27,165C303.75,165,277.3,287.66,331.28,326.06Z"/>
            <path class="cls-2" d="M470.34,363c-2.77,1.09,2.36-1.66,0,0-6.44,4.54-32.42,11.29-45.43-4.19-20.54-24.42,6.84-40.69,14.55-44.45a34.12,34.12,0,0,0,9.17-6.37c5.71-5.65,12.14-15.57,5.64-28.2-10.38-20.14.06-42.35,21.32-51.82s49.92,0,63.94,20.47,16,47.48,6.81,68.09c-3.72,8.37-11.19,15.61-24.12,21.19-8.71,3.76-20.5,4.29-35.61,14C482.86,354.14,475.1,361.15,470.34,363Z"/>
        </g>
    </g>
</svg>