<svg xmlns="http://www.w3.org/2000/svg" viewBox="0 0 580.08 126.72"><defs><style>.cls-1{fill:#fefefe;}.cls-2{fill:#fbf6f6;}.cls-3{fill:#f6e7e6;}.cls-4{fill:#faf1f1;}.cls-5{fill:#faf2f1;}.cls-6{fill:#f4e0de;}.cls-7{fill:#122c70;}.cls-8{fill:#132c70;}.cls-9{fill:#132d70;}.cls-10{fill:#142d70;}.cls-11{fill:#162e71;}.cls-12{fill:#152e71;}.cls-13{fill:#183072;}.cls-14{fill:#162f71;}.cls-15{fill:#172f72;}.cls-16{fill:#142d71;}.cls-17{fill:#1b3273;}.cls-18{fill:#1f3575;}.cls-19{fill:#1c3374;}.cls-20{fill:#203575;}.cls-21{fill:#223776;}.cls-22{fill:#253978;}.cls-23{fill:#7f799e;}.cls-24{fill:#f69890;}.cls-25{fill:#141212;}.cls-26{fill:#efc9cb;}.cls-27{fill:#f6cece;}.cls-28{fill:#f0c9cb;}.cls-29{fill:#ebc5c9;}.cls-30{fill:#f3dfde;}.cls-31{fill:#f2dedd;}.cls-32{fill:#eddada;}.cls-33{fill:#f3e0de;}.cls-34{fill:#f2dfdd;}.cls-35{fill:#f3dfdd;}.cls-36{fill:#050505;}</style></defs><g id="Layer_2" data-name="Layer 2"><g id="Layer_1-2" data-name="Layer 1"><path class="cls-1" d="M0,23.48V0H580.08V126.72H554.89a.28.28,0,0,1,.13-.39,10.2,10.2,0,0,1,2.58-.46,25.4,25.4,0,0,0,21.58-22.61c.06-.67,0-1.35,0-2V25.66A25.17,25.17,0,0,0,557.11.86,36.64,36.64,0,0,0,552.8.61Q289.58.63,26.36.63c-9.42,0-16.79,4-22,11.88a23.61,23.61,0,0,0-3.5,9.11A5.28,5.28,0,0,1,.4,23.36.3.3,0,0,1,0,23.48Z"/><path class="cls-1" d="M24.71,126.72H0V103.24a.24.24,0,0,1,.33,0,46.05,46.05,0,0,1,1.07,4.65,25.5,25.5,0,0,0,21.06,18,7.39,7.39,0,0,1,2.22.42A.24.24,0,0,1,24.71,126.72Z"/><path class="cls-2" d="M24.71,126.72v-.24a1.66,1.66,0,0,1,1.22-.38c.52,0,1,0,1.56,0H552.11c.93,0,1.93-.27,2.78.38v.24Z"/><path class="cls-3" d="M0,101.57V25.15a.31.31,0,0,1,.4.14,3.66,3.66,0,0,1,.23,1.76V99.67a3.66,3.66,0,0,1-.23,1.76A.31.31,0,0,1,0,101.57Z"/><path class="cls-4" d="M.24,25.15H0V23.48H.24A1.24,1.24,0,0,1,.24,25.15Z"/><path class="cls-5" d="M0,101.57H.24a1.24,1.24,0,0,1,0,1.67H0Z"/><path class="cls-6" d="M.24,103.24V23.48c-.17-.68.24-1.28.25-1.94a11.54,11.54,0,0,1,.4-1.74,16.12,16.12,0,0,1,1-3.18A37.62,37.62,0,0,1,4.22,12,26.36,26.36,0,0,1,9,6.51a26,26,0,0,1,6.06-3.88A19.28,19.28,0,0,1,20.11,1c.42-.49,1-.08,1.53-.38s1,0,1.51-.11C25.27,0,27.4.3,29.53.25s4.32,0,6.48,0H554.85A2.45,2.45,0,0,1,556,.33c.36.22.69.08,1,.15s.81-.18,1.1.24a10.51,10.51,0,0,1,2.68.45,8.43,8.43,0,0,1,1.92.6,28.25,28.25,0,0,1,3.81,1.81,30.49,30.49,0,0,1,3.75,2.54,20,20,0,0,1,2.25,2.06,26.81,26.81,0,0,1,3.91,5.32,26.09,26.09,0,0,1,2,4.67,16.88,16.88,0,0,1,.61,2.62c.06.38.34.67.29,1.09a1.25,1.25,0,0,0,.18,1c.17.23,0,.69,0,1.05V58.07q0,22.21,0,44.43c0,.87-.3,1.67-.28,2.54a10.7,10.7,0,0,1-.52,2.41,18.28,18.28,0,0,1-.9,2.74,17.64,17.64,0,0,1-1.2,2.62,27.3,27.3,0,0,1-5.5,7A29.71,29.71,0,0,1,566.9,123a20.44,20.44,0,0,1-4.63,2.14,10.44,10.44,0,0,1-3.5.84c-.58.43-1.31.06-1.9.32a6.32,6.32,0,0,1-2,.16H24.71a9.66,9.66,0,0,1-2.89-.28,26.74,26.74,0,0,1-2.73-.61,21.62,21.62,0,0,1-5.56-2.22,20.77,20.77,0,0,1-5.07-3.65l-.94-.94a23.11,23.11,0,0,1-4.9-7,17.29,17.29,0,0,1-1.26-3.06A7.78,7.78,0,0,1,.72,106c-.44-.43,0-1.06-.27-1.44S.33,103.69.24,103.24Z"/><path class="cls-1" d="M84.12,116.42H30.87a2.31,2.31,0,0,1-1.49-.19c-.38-.26-1,.2-1.43-.28-3.6-.71-3.14-.84-5.63-2a7.41,7.41,0,0,1-2.49-1.77c-.32-.37-.79-.48-1.11-.83a21.45,21.45,0,0,1-4.21-6.17,18,18,0,0,1-1.11-3.86,10.56,10.56,0,0,0-.26-2.16A6.44,6.44,0,0,1,13,97c-.06-.75,0-1.51,0-2.27q0-32.88,0-65.75c0-.79.35-1.5.28-2.3a9.48,9.48,0,0,1,.39-2.1,8.94,8.94,0,0,1,.59-2.16,19.78,19.78,0,0,1,2.63-4.67A20.44,20.44,0,0,1,20,14.46a15.36,15.36,0,0,1,5.24-3c.39-.12.78-.24,1.16-.39a3.23,3.23,0,0,1,.94-.29,10.69,10.69,0,0,0,1.81-.31,60.32,60.32,0,0,1,8-.2c2.71-.05,5.43,0,8.15,0h91.87a19.87,19.87,0,0,1,4,.63,22.07,22.07,0,0,1,3.39,1.12,15.14,15.14,0,0,1,3.17,1.9,16.17,16.17,0,0,1,2.69,2.47A18.28,18.28,0,0,1,154.29,23c.37,1.1.5,2.25.91,3.33a2.09,2.09,0,0,1,0,.71q0,36.35,0,72.7a14.6,14.6,0,0,1-.58,3,10.62,10.62,0,0,1-.57,1.67c-.21.54-.42,1.13-.63,1.66a14.06,14.06,0,0,1-1.58,2.58,22.35,22.35,0,0,1-3.4,3.61,17.55,17.55,0,0,1-4,2.51,16.19,16.19,0,0,1-3.58,1.19,19.13,19.13,0,0,1-4.72.5Q110.15,116.4,84.12,116.42Z"/><path class="cls-7" d="M243.35,50.3c-1.23,0-2.47,0-3.7,0a1.51,1.51,0,0,1-1.44-1.09,1.73,1.73,0,0,1,.14-1.54c1.15-2.32,2.3-4.63,3.48-6.92a1.65,1.65,0,0,1,2.4-.75,1.22,1.22,0,0,1,.49.56c1.3,2.2,2.36,4.53,3.57,6.77a2.37,2.37,0,0,1,0,2.4,1.1,1.1,0,0,1-1.06.6C245.91,50.26,244.63,50.3,243.35,50.3Z"/><path class="cls-7" d="M219.71,50.3c-1.2,0-2.4,0-3.59,0a1.46,1.46,0,0,1-1.33-.82,1.48,1.48,0,0,1-.19-1.61c1-2,2-4,3-6,.2-.39.49-.75.71-1.15a1.54,1.54,0,0,1,2.58-.39,3.32,3.32,0,0,1,.75,1c1,2.11,2,4.2,3.13,6.25a1.57,1.57,0,0,1,.24,1.21,3,3,0,0,1-.55,1.19,1.41,1.41,0,0,1-1,.36C222.19,50.27,221,50.3,219.71,50.3Z"/><path class="cls-7" d="M231.38,50.3c-1.16,0-2.32-.06-3.47,0a1.75,1.75,0,0,1-1.54-2.27c.38-.93.84-1.81,1.3-2.7.79-1.55,1.58-3.1,2.4-4.63a1.51,1.51,0,0,1,2.55-.45,3,3,0,0,1,.77,1q1,2.22,2.18,4.37c.19.36.38.72.59,1.07a3.66,3.66,0,0,1,.63,2.14,1.46,1.46,0,0,1-1.45,1.44C234,50.32,232.7,50.3,231.38,50.3Z"/><path class="cls-7" d="M216.63,32.08h-1.88V24.91a14.69,14.69,0,0,0,1.48,0c.57,0,.34.38.43.68a5.05,5.05,0,0,1,2.06-.92,2.37,2.37,0,0,1,2.1,1c.13,0,.26,0,.34-.09.73-1,1.84-1,2.87-.82a1.53,1.53,0,0,1,1.23.89,4.66,4.66,0,0,1,.49,1.72c0,1.55,0,3.1,0,4.71h-2.16V28.48c0-.24,0-.48,0-.72a1.18,1.18,0,0,0-1.21-1.17,1.16,1.16,0,0,0-1.19,1.2c0,1.39,0,2.79,0,4.27-.69.09-1.39,0-2.16.06V27.78c0-.89-.44-1.27-1.32-1.2a.88.88,0,0,0-.81.72,4.77,4.77,0,0,0-.29,1.33C216.68,29.74,216.63,30.86,216.63,32.08Z"/><path class="cls-7" d="M266.05,32.07h-2.16v-4.3c0-.67-.34-1.13-.84-1.18-.78-.08-1,.15-1.34.94a3,3,0,0,0-.22,1.23V32h-1.88V24.91H261c.46,0,.46,0,.54.68a4.8,4.8,0,0,1,2.07-.93,2.34,2.34,0,0,1,2.09,1c.14,0,.27,0,.35-.1.73-1,1.85-1,2.87-.81a1.52,1.52,0,0,1,1.22.9,4.61,4.61,0,0,1,.49,1.71c0,1.32,0,2.64,0,4v.77h-2.16V28.47c0-.24,0-.48,0-.71a1.21,1.21,0,0,0-1.22-1.17,1.18,1.18,0,0,0-1.18,1.21C266,29.19,266.05,30.59,266.05,32.07Z"/><path class="cls-7" d="M459.65,30.9c-1.21.89-1.54.92-3.19.48a3.63,3.63,0,0,1-1.85-1.93,4.14,4.14,0,0,1,0-2.56c0-.21.18-.32.26-.49a3.2,3.2,0,0,1,1.44-1.47,3.54,3.54,0,0,1,2.27-.21,1.39,1.39,0,0,1,.85.54c.16.22.42.25.46-.13,0-.23.18-.22.34-.22h1.83c0,2.2,0,4.34,0,6.48a3.14,3.14,0,0,1-2.85,2.86,12.86,12.86,0,0,1-2.15,0,5.19,5.19,0,0,1-1.91-.56c-.22-.13-.43-.33-.14-.67s.22-.75.55-.89a1.44,1.44,0,0,1,1,.19,3.1,3.1,0,0,0,2.55,0c.44-.2.85-.39.82-1C460,31.12,460.2,30.82,459.65,30.9Z"/><path class="cls-7" d="M444,22.3h2.17v9.75a7,7,0,0,1-1.46.05c-.61,0-.61,0-.75-.69-.36.15-.51.53-.88.7a3.12,3.12,0,0,1-3.83-1.17,5.59,5.59,0,0,1-.71-2.56,4.77,4.77,0,0,1,1.09-2.78A3,3,0,0,1,443.3,25c.22.13.56,0,.71.34Z"/><path class="cls-8" d="M178.72,24.08l-1.15,1.15c-.22.23-.4.22-.58,0a2.93,2.93,0,0,0-1.6-.75,2.8,2.8,0,0,0-2.9,1.67,3.52,3.52,0,0,0,.55,3.52,2.88,2.88,0,0,0,2.61.62,3,3,0,0,0,1.4-.68c.27-.28.56-.18.81.09s.61.61.91.9a5,5,0,0,1-6.87.79,5,5,0,1,1,6.82-7.29Z"/><path class="cls-7" d="M182.32,32.07h-1.88V22.33h1.87v3.38c.28-.24.45-.52.64-.53s.42-.2.61-.29a2.25,2.25,0,0,1,3.1,1.07,1.4,1.4,0,0,1,.23.62c0,1.83,0,3.65,0,5.5H185c0-1.28,0-2.55,0-3.81a1.84,1.84,0,0,0-.51-1.35,1.1,1.1,0,0,0-1.87.39,4.1,4.1,0,0,0-.29,1.33C182.38,29.75,182.32,30.87,182.32,32.07Z"/><path class="cls-7" d="M379.32,22.3h1.85v3.39a6.62,6.62,0,0,1,1.25-.78A2.27,2.27,0,0,1,385.59,26a1.38,1.38,0,0,1,.17.53v5.51h-1.92c0-1.25,0-2.52,0-3.78a2.22,2.22,0,0,0-.28-1.08,1.15,1.15,0,0,0-2.17.3,5.11,5.11,0,0,0-.21,1.23c0,1.08,0,2.15,0,3.31-.6.12-1.22,0-1.88.07Z"/><path class="cls-7" d="M413.83,32.1h-1.92c0-1.27,0-2.53,0-3.79a2.3,2.3,0,0,0-.34-1.18,1.1,1.1,0,0,0-1.32-.53,1.05,1.05,0,0,0-.78.9,5,5,0,0,0-.23,1.22c0,1.11,0,2.22,0,3.35H407.4V22.3h1.86v3.37a3.89,3.89,0,0,1,2.55-1,2.43,2.43,0,0,1,2,2c0,1.47,0,2.95,0,4.42Z"/><path class="cls-7" d="M326.53,32.06V22.32h1.87v5.14c.83-.83,1.52-1.51,2.19-2.21a1,1,0,0,1,.83-.35c.58,0,1.18,0,1.76,0l-2.64,2.64,2.9,4.55a17.38,17.38,0,0,0-1.77,0,.88.88,0,0,1-1-.53c-.35-.84-1-1.47-1.39-2.31-.05,0-.08,0-.16.06a1.67,1.67,0,0,0-.73,1.74,8.16,8.16,0,0,1,0,1Z"/><path class="cls-8" d="M248.47,24.67a3.92,3.92,0,0,1,3.93,3.89,4.18,4.18,0,0,1-4,3.81,3.88,3.88,0,0,1-3.86-3.92A3.76,3.76,0,0,1,248.47,24.67Z"/><path class="cls-8" d="M419.24,24.67a3.92,3.92,0,0,1,4,3.85,4.17,4.17,0,0,1-4,3.85,3.89,3.89,0,0,1-3.9-3.88A3.78,3.78,0,0,1,419.24,24.67Z"/><path class="cls-8" d="M428,32.34a3.75,3.75,0,0,1-3.83-3.8,3.86,3.86,0,0,1,4-3.89,4,4,0,0,1,3.9,3.94C432.06,30.42,430.11,32.58,428,32.34Z"/><path class="cls-8" d="M400.07,29.21h-5a1.34,1.34,0,0,0,.66,1.05,1.91,1.91,0,0,0,2.22.07c.61-.36.63-.33,1.08.08a.71.71,0,0,0,.49.27c.15,0,.19.26.07.38a3.13,3.13,0,0,1-2.46,1.28,3.79,3.79,0,0,1-2.21-.46,4.52,4.52,0,0,1-1.8-2.37,3.63,3.63,0,0,1,.11-2.55A3.51,3.51,0,0,1,395.14,25a3.29,3.29,0,0,1,4.14.86,4,4,0,0,1,.87,2.5A1.75,1.75,0,0,1,400.07,29.21Z"/><path class="cls-8" d="M340.15,29.23c.1.77.61,1,1.14,1.25a1.2,1.2,0,0,0,1.4,0c.1-.08.27-.09.41-.17.54-.31.55-.29,1,.1a.94.94,0,0,0,.48.3c.25,0,.23.27.07.44A3.74,3.74,0,0,1,342,32.37a3.81,3.81,0,0,1-3.44-1.79,3.28,3.28,0,0,1-.54-2.62,3.59,3.59,0,0,1,2.54-3.08,3.11,3.11,0,0,1,3.9,1.24,4.38,4.38,0,0,1,.67,3.11Z"/><path class="cls-8" d="M320.74,29.23h-5c0,.7.46.92,1,1.21,1,.59,1.72-.06,2.55-.45.22.2.43.56.73.64s.44.26.18.54a3.65,3.65,0,0,1-2.63,1.2c-1.58.1-2.5-.83-3.45-1.82a4.81,4.81,0,0,1-.45-2.53c.15-.56.12-1.23.57-1.67a5.91,5.91,0,0,1,1.9-1.47,3.31,3.31,0,0,1,4,1.3A5,5,0,0,1,320.74,29.23Z"/><path class="cls-8" d="M295.2,30c.16.16.32.25.38.38.14.32.67.24.67.53s-.41.69-.72.87a2.93,2.93,0,0,1-1.78.62,3.7,3.7,0,0,1-2.21-.48c-.82-.64-1.72-1.18-1.74-2.4-.61-.85-.13-1.74.07-2.53a4,4,0,0,1,3.18-2.3A3.32,3.32,0,0,1,296,26a3.87,3.87,0,0,1,.8,2.53c0,.2,0,.4,0,.6l-.08.08a.21.21,0,0,1-.11,0h-4.88c.09.41.16.76.49,1a2.83,2.83,0,0,0,1,.46,1.13,1.13,0,0,0,1-.14C294.46,30.26,294.89,30.26,295.2,30Z"/><path class="cls-9" d="M196.94,28c0-.36.19-.73-.16-1a1.4,1.4,0,0,0-1-.42c-.45,0-.93-.19-1.36.21-.12.12-.46,0-.7,0s-.37-.07-.34-.33c0-.42-.37-.63-.43-1a3.71,3.71,0,0,1,1.63-.5,7.36,7.36,0,0,1,2.39,0c.82.07,1.71,1.12,2,1.93a9.5,9.5,0,0,1,.22,2.54v2.7h-1.8c-.23,0-.38,0-.37-.31,0-.08-.07-.25-.21-.07-.64.78-1.53.63-2.37.61a2.23,2.23,0,0,1-2-2,1.87,1.87,0,0,1,.51-1.69,2.82,2.82,0,0,1,1.94-.83,9.75,9.75,0,0,0,1.43,0C196.54,27.75,196.68,27.93,196.94,28Z"/><path class="cls-9" d="M227.67,25.52a7,7,0,0,1,4-.59c.88,0,1.74,1.11,2,2a16.12,16.12,0,0,1,.21,3.73c0,.44,0,.88,0,1.4-.61.08-1.24,0-1.86,0-.13,0-.28,0-.29-.14,0-.44-.14-.34-.36-.11a1.2,1.2,0,0,1-1,.47,4.88,4.88,0,0,1-2-.19,2.27,2.27,0,0,1-.7-3.57,2.49,2.49,0,0,1,1.83-.77c.66.06,1.34-.18,2,.17.09,0,.12.08.18,0a1.06,1.06,0,0,0-.29-1.05,2.8,2.8,0,0,0-2-.23c-.12,0-.22.17-.4.19-.52,0-.64-.06-.92-.63a4.66,4.66,0,0,1-.24-.5C227.84,25.65,227.75,25.6,227.67,25.52Z"/><path class="cls-9" d="M278.52,32.1h-1.78c-.22,0-.39,0-.38-.3,0-.07-.05-.28-.2-.09-.64.78-1.53.61-2.38.63a2.5,2.5,0,0,1-2-2,2.37,2.37,0,0,1,2.46-2.52c.48,0,1,0,1.44,0,.26,0,.41.13.64.23,0-.32.18-.65-.05-.9a1.34,1.34,0,0,0-1.09-.51c-.45,0-.94-.2-1.36.21-.12.12-.46,0-.7,0s-.37,0-.36-.32a1.47,1.47,0,0,0-.47-1,7.16,7.16,0,0,1,3.46-.59A2.6,2.6,0,0,1,278.31,27a11.91,11.91,0,0,1,.21,3.26C278.55,30.82,278.52,31.41,278.52,32.1Z"/><path class="cls-9" d="M470.21,32.1a10.5,10.5,0,0,1-1.39,0c-.27,0-.72.3-.81-.35,0-.23-.23.05-.31.12a1.27,1.27,0,0,1-1,.47,4.88,4.88,0,0,1-1.95-.19,2.26,2.26,0,0,1-.69-3.57,2.45,2.45,0,0,1,1.82-.77c.66.06,1.34-.18,2,.17.08,0,.11.08.17,0a1,1,0,0,0-.29-1.05,2.8,2.8,0,0,0-2-.23c-.12,0-.22.17-.4.19-.52,0-.61-.08-.92-.62-.13-.22-.11-.55-.49-.72a6.36,6.36,0,0,1,2.4-.59c.44,0,.88,0,1.32,0a2.68,2.68,0,0,1,2.36,2,16.73,16.73,0,0,1,.21,3.73C470.23,31.1,470.21,31.54,470.21,32.1Z"/><path class="cls-9" d="M363.4,25.55a7,7,0,0,1,4.06-.62c.87,0,1.74,1.12,2,2a15.7,15.7,0,0,1,.21,3.74c0,.43,0,.87,0,1.42-.62,0-1.24,0-1.86,0-.13,0-.29,0-.29-.13,0-.42-.13-.38-.36-.13a1.22,1.22,0,0,1-1,.48c-.65-.06-1.28.16-1.95-.2a2.26,2.26,0,0,1-1-3.1,2.23,2.23,0,0,1,1.91-1.2,3.76,3.76,0,0,1,2.2.14c.09,0,.12.09.18,0a1,1,0,0,0-.28-1.05,2.37,2.37,0,0,0-2.09-.16,1.21,1.21,0,0,1-.44.1c-.44,0-.93.09-.78-.62C363.61,26.09,363.79,25.67,363.4,25.55Z"/><path class="cls-7" d="M351,32.06V24.91h1.33c.54,0,.54,0,.66.71a3.62,3.62,0,0,1,2.44-1,2.33,2.33,0,0,1,2.06,2.08c0,1.76,0,3.51,0,5.31h-1.92c0-1.29,0-2.55,0-3.82a2.18,2.18,0,0,0-.39-1.16,1.07,1.07,0,0,0-1.23-.47c-.46.08-.63.44-.82.85a3,3,0,0,0-.21,1.35c0,1.07,0,2.14,0,3.26Z"/><path class="cls-9" d="M450.63,32.29c-1.09.32-1.84-.41-2.69-.77-.37-.15-.38-.53-.14-.88.09-.13.31-.22.32-.34,0-.57.43-.42.65-.29.4.23.85.3,1.22.51a2.1,2.1,0,0,0,1.15.12c.11,0,.32-.21.35-.43s-.12-.29-.23-.37a4,4,0,0,0-1.55-.6A2.79,2.79,0,0,1,448,28a1.65,1.65,0,0,1,0-1.57,2,2,0,0,1,1.36-1.26,3.49,3.49,0,0,1,3,.23,1.2,1.2,0,0,0,.6.28c.3,0,.32.25.18.39s-.12.38-.24.5-.15.69-.5.73-.46-.18-.66-.33-.61,0-.86-.31a.74.74,0,0,0-.85.15c-.19.2-.3.38,0,.57a1.64,1.64,0,0,0,.76.43,4.81,4.81,0,0,1,1.73.76,1.67,1.67,0,0,1,1,1.68,1.77,1.77,0,0,1-1,1.67A2.27,2.27,0,0,1,450.63,32.29Z"/><path class="cls-9" d="M437.8,24.16c-.45.12-.65-.34-1.06-.23s-.55.25-.6.59,0,.4.27.4h1.36v1.67h-1.59v5.49c-.73.06-1.42,0-2.2,0,0-1.7,0-3.37,0-5,0-.33,0-.54-.44-.48-.17,0-.3,0-.29-.26,0-.4,0-.8,0-1.19,0-.15.08-.24.21-.22.43.07.53-.09.53-.52a2,2,0,0,1,1-1.84,1,1,0,0,1,.72-.28h.36C437.87,22.28,437.89,22,437.8,24.16Z"/><path class="cls-9" d="M289.84,70.63v6.6c-.33.29-.64,0-1,.19V68.84c.06,0,.12-.09.19-.09.9,0,.91,0,1.43.82.74,1.17,1.46,2.35,2.19,3.52.17.28.33.3.48,0,.71-1.32,1.71-2.46,2.43-3.78a1,1,0,0,1,1.35-.54v8.5a1.85,1.85,0,0,1-.89,0V70.56a48.18,48.18,0,0,0-2.9,4.27c-.14.24-.3.22-.49-.09-.81-1.3-1.68-2.58-2.53-3.86A1.66,1.66,0,0,0,289.84,70.63Z"/><path class="cls-9" d="M243.72,24.16c-.45.12-.65-.34-1.06-.23s-.55.25-.6.59,0,.4.27.4h1.36v1.67H242.1v5.49c-.73.06-1.42,0-2.2,0,0-1.7,0-3.37,0-5,0-.33,0-.54-.44-.48-.17,0-.3,0-.29-.26,0-.4,0-.8,0-1.19,0-.15.08-.24.21-.22.43.07.53-.09.53-.52a2,2,0,0,1,1-1.84,1,1,0,0,1,.72-.28H242C243.79,22.28,243.81,22,243.72,24.16Z"/><path class="cls-9" d="M282.84,24.91h1.64v1.62c-.48.18-1,0-1.64.11v2.84c0,.9.28,1.16,1.14.84.38-.15.49.14.5.2a2.94,2.94,0,0,1,0,1.18c-.13.41-.62.55-1,.62a4.43,4.43,0,0,1-1.31,0,1.9,1.9,0,0,1-1.49-2c0-1,0-2.07,0-3.1,0-.34.12-.78-.51-.65-.13,0-.21-.07-.21-.21,0-.4,0-.79,0-1.19,0-.14.06-.27.17-.26.79.12.52-.47.55-.84s0-.69,0-1A2.18,2.18,0,0,1,281,23l1.78,0a.11.11,0,0,1,.08.08Z"/><path class="cls-9" d="M310.92,23v1.84h1.61v1.68h-1.62c0,1,0,2,0,3,0,.8.3,1,1.11.82.19-.05.28-.15.43,0,.31.39.12.84.12,1.25s-.4.41-.66.53a3.39,3.39,0,0,1-2,0c-.93-.33-1.08-1.11-1.12-1.91-.06-1.07,0-2.15,0-3.22,0-.37-.1-.48-.46-.46s-.29-.33-.25-.51c.06-.39-.27-1,.22-1.11s.51-.21.49-.58,0-.87,0-1.34Z"/><path class="cls-9" d="M387.92,23h2.14v1.86h1.65v1.69h-1.63c0,1,0,1.93,0,2.87s.29,1.19,1.11.88c.36-.13.37.08.52.18s0,.14.05.21c.14,1.18-.25,1.62-1.48,1.61a3.06,3.06,0,0,1-1.16-.09,1.9,1.9,0,0,1-1.19-1.88c-.06-1.07,0-2.15,0-3.22,0-.36,0-.68-.48-.55a.19.19,0,0,1-.24-.19c0-.44,0-.88,0-1.31a.19.19,0,0,1,.24-.18c.35.06.5-.06.48-.44S387.92,23.53,387.92,23Z"/><path class="cls-9" d="M472.36,23h2.15V24.9h1.67v1.65h-1.59a7.67,7.67,0,0,0-.06,1.65,15.5,15.5,0,0,0,0,1.67c0,.48.39.79,1.06.49s.51.07.6.31a1.23,1.23,0,0,1,0,.47,1,1,0,0,1-1.07,1.2c-.23,0-.48,0-.71,0-1.05.08-1.93-.4-2-2.05-.08-1.11,0-2.23,0-3.34,0-.16,0-.38-.19-.35-.57.09-.56-.24-.54-.62a7.85,7.85,0,0,0,0-.84c0-.15.08-.25.21-.22.59.12.52-.28.52-.63S472.36,23.49,472.36,23Z"/><path class="cls-9" d="M375,32.33a3.65,3.65,0,0,1-3.67-2.62,3.94,3.94,0,0,1,2.46-4.92,3.46,3.46,0,0,1,3.3.48c.22.18.74.22.66.49a1.33,1.33,0,0,1-.55.85,1.76,1.76,0,0,0-.34.33c-.16.18-.36.2-.48,0a1.5,1.5,0,0,0-.85-.56A1.86,1.86,0,0,0,373.29,28c0,.24,0,.48,0,.72a1.79,1.79,0,0,0,1,1.67,1.69,1.69,0,0,0,1.91-.13c.16-.1.22-.34.45-.35s.37.25.54.4.4.39.6.59.16.32,0,.4C376.85,31.76,376.1,32.62,375,32.33Z"/><path class="cls-8" d="M172,68.75c1.44,0,2.83,0,4.22,0a2.61,2.61,0,0,1,2.19,1.54,2.3,2.3,0,0,1-.71,2.43,1.36,1.36,0,0,1-.41.17c.12.48.63.48.93.74a2.05,2.05,0,0,1-.8,3.5,3.55,3.55,0,0,1-1.34.26c-1.35,0-2.69,0-4.08,0Z"/><path class="cls-9" d="M302.26,28.46a6.65,6.65,0,0,1,1-3.57,6.54,6.54,0,0,1,2.6-2.23s.07-.09.09-.08a1,1,0,0,1,.65.69c.05.22.48.38.12.69s-.5.51-.76.76a4.88,4.88,0,0,0-.78,6.24,8.32,8.32,0,0,0,1.39,1.46c.28.26.37.45.06.77-.09.1-.16.32-.27.48-.21.33-.43.3-.72.11a7,7,0,0,1-2.75-2.84A14,14,0,0,1,302.26,28.46Z"/><path class="cls-9" d="M478.1,33.94c-.08-.09-.36-.27-.41-.51s-.49-.5-.49-.74.48-.32.71-.51a4.83,4.83,0,0,0,1.85-4.82,4.26,4.26,0,0,0-2.18-3.17c-.39-.21-.35-.24-.07-.72s.37-.88.77-.86.63.39.93.6a4.86,4.86,0,0,1,2.39,3.19c.18.87.73,1.78.15,2.76-.2.32-.12.79-.23,1.21a5.55,5.55,0,0,1-2.14,2.9A2.16,2.16,0,0,1,478.1,33.94Z"/><path class="cls-10" d="M179,49.92c-.33.24-.62.1-.88.15a.47.47,0,0,1-.5-.26c-.58-1-1.41-1.8-2-2.77-.15-.24-.22-.33-.47-.33H173v3.22c-.33.27-.63,0-1,.17V41.44c1.48,0,2.95,0,4.41,0a2.61,2.61,0,0,1,2.29,2.46,2.39,2.39,0,0,1-2.19,2.66Z"/><path class="cls-11" d="M319.2,72c.17-.86.17-.86,1.31-.79,0,1.66.09,3.33,0,5a2.92,2.92,0,0,1-2.08,2.92c-.06,0-.11.16-.17.16a6.76,6.76,0,0,1-3.61-.5c-.2-.1-.37-.23-.15-.61s.22-.37.55-.18a6,6,0,0,0,2.27.58,2.52,2.52,0,0,0,1.72-.76c.19-.22.38-.43.29-.72-.15-.48.44-.83.15-1.42a6.87,6.87,0,0,1-.54.54,3,3,0,0,1-4.9-2.12,2.64,2.64,0,0,1,.75-2.2,2.61,2.61,0,0,1,1.78-1,2.43,2.43,0,0,1,2.13.67C318.79,71.71,319.1,71.61,319.2,72Z"/><path class="cls-11" d="M309.17,102.74c-1.64,1.61-3.14,1.66-4.69.39A3.08,3.08,0,0,1,306.43,98c1-.1,1.68.55,2.47,1,.17-.16,0-.44.1-.55.32-.31.73-.09,1.19-.15,0,1.74.08,3.45,0,5.14a3.2,3.2,0,0,1-.54,1.79,3.71,3.71,0,0,1-1.58,1.1c-.07,0-.13.11-.19.11a7,7,0,0,1-3.51-.47c-.31-.16-.35-.37-.16-.71s.28-.34.4-.2a2.92,2.92,0,0,0,1.66.61,2.42,2.42,0,0,0,2.6-.86c.05-.06.17-.13.15-.16C308.77,103.94,309.4,103.4,309.17,102.74Z"/><path class="cls-11" d="M280.15,58.19c.11-.69.11-.69,1.15-.7.21.28.09.61.1.91,0,1.32.07,2.63,0,3.94a3.21,3.21,0,0,1-.95,2.47,3.13,3.13,0,0,1-2.05.84,5.77,5.77,0,0,1-2.79-.49c-.38-.2-.4-.36-.19-.77.13-.25.24-.22.45-.11a6.77,6.77,0,0,0,2.25.64A2.46,2.46,0,0,0,280,64c.05-.06.17-.12.16-.17-.08-.61.28-1.17.27-1.84-2,1.75-3.35,1.5-4.8.33a2.2,2.2,0,0,1-.71-1.48,3.05,3.05,0,0,1,.73-2.68,3.13,3.13,0,0,1,2.17-1C278.8,57.19,279.35,57.83,280.15,58.19Z"/><path class="cls-12" d="M271.09,104.42h-.92v-6.1c.86-.13.86-.13.94.56.35.05.53-.31.69-.46a2.34,2.34,0,0,1,1.74-.45,1.89,1.89,0,0,1,1.34.8,5,5,0,0,1,.34.46c.26-.25.43-.41.6-.59,1-1,2.17-.79,3.34-.15.07.49.62.72.59,1.32-.07,1.51,0,3,0,4.55a1.64,1.64,0,0,1-1,0c0-1.37,0-2.72,0-4.06a1.51,1.51,0,0,0-2.35-1.41,1,1,0,0,0-.54.53,4.18,4.18,0,0,0-.47,1.84c0,1,0,2.06,0,3.06a1.92,1.92,0,0,1-1,.07c0-1.33,0-2.68,0-4a2.1,2.1,0,0,0-.19-.87,1.3,1.3,0,0,0-1.34-.82,1.21,1.21,0,0,0-1.36.78,4.29,4.29,0,0,0-.47,1.72C271.1,102.25,271.09,103.28,271.09,104.42Z"/><path class="cls-12" d="M286.92,104.36a2,2,0,0,1-1,.06v-4.15a1.33,1.33,0,0,0-.89-1.41,1.46,1.46,0,0,0-2.05.74,3.49,3.49,0,0,0-.42,1.62c0,1,0,2.07,0,3.12a1.37,1.37,0,0,1-.92.06V98.32c.87-.12.87-.12.95.57.34,0,.54-.32.69-.47a2.31,2.31,0,0,1,1.74-.45c.62,0,1,.43,1.35.81l.39.39.54-.53c1-1,2.19-.77,3.34-.15.08.49.61.73.58,1.33-.07,1.51,0,3,0,4.52-.28.2-.56.06-.83.1a.31.31,0,0,1-.13-.3c0-1.27,0-2.55,0-3.82a1.52,1.52,0,0,0-2.37-1.4,1,1,0,0,0-.52.54,4.05,4.05,0,0,0-.47,1.84C286.94,102.32,286.92,103.35,286.92,104.36Z"/><path class="cls-12" d="M228.63,90.77h-.88a.91.91,0,0,1-.08-.23c0-1.28,0-2.56,0-3.83a1.57,1.57,0,0,0-2.44-1.43,1.23,1.23,0,0,0-.47.58,3.45,3.45,0,0,0-.46,1.73c0,1,0,2.07,0,3.12a1.57,1.57,0,0,1-1,0c0-1.36,0-2.71,0-4.06a1.5,1.5,0,0,0-2.35-1.4,1,1,0,0,0-.54.53,4.32,4.32,0,0,0-.47,1.84c0,1,0,2,0,3,0,0,0,.06-.07.13h-.84V84.62c.86,0,.86,0,1,.61,1.84-1.49,2.92-1.14,4.14.3.19-.2.39-.39.57-.6a2.45,2.45,0,0,1,3.78.62,1.18,1.18,0,0,1,.07.69C228.63,87.71,228.63,89.19,228.63,90.77Z"/><path class="cls-12" d="M187.57,90.75h-.9v-6.1c.88-.09.88-.09,1,.64.21-.18.38-.43.59-.47s.37-.27.56-.39a2.58,2.58,0,0,1,2.19.29c.27.23.51.5.83.82l.61-.66a2.1,2.1,0,0,1,1.44-.58c.72-.08,1.21.37,1.82.56,0,.49.6.63.57,1.21-.08,1.54,0,3.09,0,4.61-.3.2-.58,0-1,.18V88.55c0-.67,0-1.35,0-2a1.52,1.52,0,0,0-2.93-.59,3.47,3.47,0,0,0-.44,1.61c0,1,0,2.08,0,3.11,0,0,0,.08-.07.09a1.78,1.78,0,0,1-.89,0c0-1.37,0-2.76,0-4.14A1.52,1.52,0,0,0,189,85.07a1.23,1.23,0,0,0-1,.79c-.36,1-.45,1-.45,1.73v3A1.19,1.19,0,0,1,187.57,90.75Z"/><path class="cls-13" d="M212.82,99V95.6H214v8.77c-.09.15-.31.07-.49.07-.61,0-.61,0-.76-.68a3.61,3.61,0,0,1-2.1.93,2.94,2.94,0,0,1-2.32-1,3.62,3.62,0,0,1,0-4.62,2.82,2.82,0,0,1,4.17-.31C212.53,98.77,212.61,98.85,212.82,99Z"/><path class="cls-13" d="M287.6,90.79h-.5c-.6,0-.6,0-.75-.69a3.68,3.68,0,0,1-2.1.94A2.94,2.94,0,0,1,281.93,90a3.62,3.62,0,0,1,0-4.62,2.82,2.82,0,0,1,4.17-.32l.3.27V82a2.85,2.85,0,0,1,1.2-.08Z"/><path class="cls-13" d="M374.45,85.24V82a3.46,3.46,0,0,1,1.2-.06v8.77c-.21.19-.5,0-.76.08-.57.09-.35-.37-.46-.73a10,10,0,0,0-.86.61,3,3,0,0,1-4-1.26,3.78,3.78,0,0,1,.16-3.79,2.86,2.86,0,0,1,4.31-.63c.11.08.13.27.19.4Z"/><path class="cls-13" d="M279.92,77.37h-.49c-.61,0-.61,0-.75-.68a3.66,3.66,0,0,1-2.11.93,2.94,2.94,0,0,1-2.32-1.05,3.62,3.62,0,0,1,0-4.62,2.81,2.81,0,0,1,4.16-.31l.3.26V68.6a3,3,0,0,1,1.2-.08Z"/><path class="cls-13" d="M215,72V68.54h1.13v8.83h-.47c-.62,0-.62,0-.76-.67a3.93,3.93,0,0,1-2.1.92,2.92,2.92,0,0,1-2.32-1,3.63,3.63,0,0,1-.1-4.53,2.82,2.82,0,0,1,4.24-.42C214.68,71.7,214.76,71.78,215,72Z"/><path class="cls-12" d="M325,98.23c1.17,0,1.16,0,1.49,1,.4,1.26.83,2.52,1.29,3.93.48-1.53.89-2.91,1.36-4.27.1-.29.13-.76.71-.71a.52.52,0,0,1,.54.43c.36,1.09.77,2.16,1.12,3.25A8.84,8.84,0,0,1,332,103c.42-1.22.88-2.43,1.23-3.67.07-.25.34-.43.27-.73s.1-.42.4-.39.47,0,.75,0c-.47,1.65-1.25,3.16-1.63,4.8-.1.43-.51.73-.49,1.24,0,.3-.29.16-.46.19a.56.56,0,0,1-.71-.44,13.48,13.48,0,0,0-.48-1.48,23,23,0,0,1-.74-2.45.2.2,0,0,0-.24-.18c-.15,0-.2.07-.24.2-.31,1-.62,2-1,3.07a8.15,8.15,0,0,0-.46,1c-.07.39-.31.27-.52.28s-.41,0-.49-.32a6.29,6.29,0,0,0-.22-.74c-.67-1.6-1.25-3.24-1.76-4.9A1.31,1.31,0,0,0,325,98.23Z"/><path class="cls-12" d="M237.7,32.08h-2.08V22.33c.65-.14,1.35,0,2.08-.08Z"/><path class="cls-12" d="M334.44,32.06V22.32h2a96,96,0,0,1,.07,9.74Z"/><path class="cls-14" d="M228.42,68.53h.93v3.62a11.29,11.29,0,0,1,1.16-.87,2.85,2.85,0,0,1,4,1.23,4,4,0,0,1,.35,2.7,2.78,2.78,0,0,1-1,1.71,3.31,3.31,0,0,1-3.21.47c-.45-.22-.67-.66-1.08-.93,0,0,0,0,0,0-.17.25-.05.53-.09.81a1.31,1.31,0,0,1-.92.06Z"/><path class="cls-14" d="M290.56,89.86v2.67c-.31.35-.63.06-1,.23V84.58h.83c.18.29,0,.62.12,1,.44-.28.71-.64,1.13-.85a2.85,2.85,0,0,1,4,1.23,4.08,4.08,0,0,1,.35,2.7,2.32,2.32,0,0,1-.79,1.45,2.84,2.84,0,0,1-4.17.14,1.72,1.72,0,0,1-.3-.47Z"/><path class="cls-12" d="M253.38,90.76h-1V82.24a1.4,1.4,0,0,1,.91,0v4h5c0-.61,0-1.27,0-1.93s0-1.35,0-2c.3-.2.59,0,.91-.16v8.65h-.89V87h-5Z"/><path class="cls-14" d="M198.19,84.58H199c.22.29-.05.65.18.91.38-.17.5-.7,1-.7a2.73,2.73,0,0,1,3.75.67,3.64,3.64,0,0,1-.1,4.53,2.82,2.82,0,0,1-4.24.22c-.14-.12-.26-.26-.47-.46v2.83a1.28,1.28,0,0,1-1,.08Z"/><path class="cls-14" d="M318.37,92.72V84.65c.91-.09.91-.09,1,.82.45-.12.72-.51,1.06-.75,1.92-1.32,4.5.64,4.44,2.66a3.65,3.65,0,0,1-.75,2.56,2.85,2.85,0,0,1-4.33.23c-.12-.1-.22-.22-.43-.43,0,.55,0,1,0,1.46s0,1,0,1.41C319,92.78,318.74,92.67,318.37,92.72Z"/><path class="cls-14" d="M404,89.73v2.86c-.33.24-.63,0-.95.15V84.63a1.48,1.48,0,0,1,.91,0l0,.79c.07.14.11.12.18,0a3.19,3.19,0,0,1,2.17-1.12,2.85,2.85,0,0,1,2.57,1.25,3.62,3.62,0,0,1-.22,4.44,2.81,2.81,0,0,1-4.24.18Z"/><path class="cls-12" d="M176.94,83.83a3.53,3.53,0,0,0-2.3-1,2.17,2.17,0,0,0-1.84,1c-.33.38.14,1.43.68,1.59.85.26,1.74.43,2.57.74a2.42,2.42,0,0,1,1.73,1.68c.06.28.39.55.19.84-.33.47-.23,1.14-.76,1.49a3,3,0,0,1-1.83.77,8.61,8.61,0,0,1-2.31-.21c-.56-.18-.92-.65-1.47-.81-.13,0-.11-.23,0-.31a8.2,8.2,0,0,1,.57-.62,4,4,0,0,0,2.28,1.22,3.56,3.56,0,0,0,1.7-.23,1.33,1.33,0,0,0,.45-2A2.4,2.4,0,0,0,175,87.2a4.73,4.73,0,0,1-2.38-.94,2.1,2.1,0,0,1-.42-2.94,2.89,2.89,0,0,1,2.52-1.17,4.9,4.9,0,0,1,2.32.49c.64.35.65.41.13,1Z"/><path class="cls-9" d="M215.48,55.81c-1.63,0-3.18,0-4.72,0-.22,0-.58.23-.62-.29s.34-.41.63-.41h6a1.11,1.11,0,0,1-.27,1.24c-1.19,1.53-2.4,3-3.53,4.62a12.26,12.26,0,0,1-1.71,2h5.37c.23,0,.25.14.24.3s.07.42-.25.42h-6.35a.39.39,0,0,1-.35-.55c.22-.35.47-.69.72-1,1.41-1.81,2.84-3.6,4.21-5.44A9.56,9.56,0,0,0,215.48,55.81Z"/><path class="cls-8" d="M173,58.93h4.35c.18,0,.42-.06.41.26s.06.48-.33.46c-.84,0-1.68,0-2.52,0H173V63h5c.32,0,.23.24.24.42s0,.3-.24.3h-5.93V55.1h5.85c.26,0,.32.1.34.34s-.14.39-.42.39H173Z"/><path class="cls-8" d="M403.63,26.08l.56-.76a1.44,1.44,0,0,1,1.64-.61c.17.25.07.53.08.8,0,1,0,1.13-.92,1.29a1.39,1.39,0,0,0-1.2,1.2,5.91,5.91,0,0,0-.3,1.93,17.08,17.08,0,0,1,0,2.15h-1.87V24.91h.85C403.48,24.91,403.48,24.91,403.63,26.08Z"/><path class="cls-8" d="M258.13,24.8c0,.15,0,.35,0,.54,0,.39.1.87-.08,1.15s-.67.24-1,.34c-.68.2-.84.78-1,1.36a6.78,6.78,0,0,0-.23,2.41c0,.47,0,.95,0,1.46h-1.86V25h1.79c.23.22,0,.57.06.76s.16.15.24.06.29-.27.42-.42A1.34,1.34,0,0,1,258.13,24.8Z"/><path class="cls-8" d="M200.83,24.94h1.9v1.21c.34-.43.51-.63.67-.85a1.45,1.45,0,0,1,1.68-.57v1.83c-.44-.11-.83.18-1.25.31a1.31,1.31,0,0,0-.84,1.26c0,.43-.35.68-.29,1.1a7.86,7.86,0,0,1,0,1.19v1.63c-.61.11-1.23,0-1.89.07Z"/><path class="cls-14" d="M341.18,104.41c-.95,0-.95,0-1-.7-.22.19-.4.46-.59.46s-.4.21-.61.29a2.54,2.54,0,0,1-3.13-.66c-.28-.36-.6-.78-.42-1.24s.17-1.1.72-1.36,1.09-.72,1.79-.59,1.33-.24,1.95.22c.18.14.38-.07.31-.31-.15-.59-.24-1.24-.82-1.56a1.78,1.78,0,0,0-1.75-.16c-.37.22-.78,0-1.1.29-.11.11-.37-.17-.39-.4s-.11-.39.18-.48a10.17,10.17,0,0,1,3-.24c.67.49,1.4.81,1.64,1.8C341.31,101.3,341,102.82,341.18,104.41Z"/><path class="cls-14" d="M304.48,77.34c-1,0-1,0-1-.73-.22.21-.4.49-.58.5s-.47.23-.72.31a3.22,3.22,0,0,1-2.21,0,2.29,2.29,0,0,1-1-.92c-.14-.24-.39-.5-.26-.85a6.7,6.7,0,0,1,.42-1.14,2,2,0,0,1,1.52-.88,4.08,4.08,0,0,1,2.53.18c.2.12.36-.06.34-.32a1.87,1.87,0,0,0-2.59-1.71c-.36.13-.76,0-1.09.28-.12.12-.37-.17-.39-.39s-.12-.39.17-.49a9.84,9.84,0,0,1,3-.23c.67.48,1.4.8,1.64,1.78C304.6,74.22,304.28,75.74,304.48,77.34Z"/><path class="cls-14" d="M268.27,104.4c-1,0-1,0-1.11-.65a3.48,3.48,0,0,1-2.7.94,2.74,2.74,0,0,1-2-1.64c-.14-.5.21-.88.28-1.33s.44-.58.85-.71.56-.42.91-.39c.77.07,1.58-.23,2.32.16.12.06.23.1.32,0s.14-.28.11-.42a1.83,1.83,0,0,0-2.66-1.54c-.33.11-.68-.07-1,.21-.16.14-.37-.17-.4-.38s-.11-.39.17-.49a5.47,5.47,0,0,1,3-.18A2.23,2.23,0,0,1,268,99.75C268.39,101.28,268,102.8,268.27,104.4Z"/><path class="cls-14" d="M249,77.32c-.92,0-.92,0-1.06-.67a3.29,3.29,0,0,1-2.68,1,2.77,2.77,0,0,1-2-1.62c-.15-.5.21-.88.29-1.33s.47-.52.83-.72a2.55,2.55,0,0,1,1.62-.41c.57.08,1.17-.19,1.71.22.16.12.38,0,.36-.28a1.89,1.89,0,0,0-2.57-1.77c-.31.11-.67,0-.87.17-.42.34-.55,0-.62-.22s0-.41.36-.55a7.27,7.27,0,0,1,2.66-.18,1.61,1.61,0,0,1,1.14.68,2.55,2.55,0,0,1,.66,1C249.22,74.22,248.88,75.77,249,77.32Z"/><path class="cls-14" d="M241.82,77.31c-.91,0-.91,0-1-.68a3.3,3.3,0,0,1-2.8,1A2.77,2.77,0,0,1,236.06,76c-.15-.5.19-.89.28-1.33s.48-.52.82-.72a2.4,2.4,0,0,1,1.63-.41c.56.07,1.16-.22,1.71.2.16.13.38,0,.36-.26a1.88,1.88,0,0,0-2.56-1.78,7.46,7.46,0,0,1-.88.16c-.55.1-.65,0-.64-.44,0-.13.06-.3.14-.27.43.14.69-.32,1.1-.27a5.82,5.82,0,0,0,1.32,0c1.06-.11,1.57.69,2.21,1.29-.08.48.24.87.27,1.33,0,.19,0,.39,0,.59Z"/><path class="cls-14" d="M356.54,90.76c-1,0-1,0-1-.71-.22.19-.39.46-.58.47s-.47.24-.72.32a3.28,3.28,0,0,1-2.21,0,2.21,2.21,0,0,1-1-.93c-.14-.24-.39-.5-.26-.85a4.33,4.33,0,0,1,.42-1.13A2.32,2.32,0,0,1,353,87c.73,0,1.49-.28,2.19.2.19.13.35-.06.32-.32a1.85,1.85,0,0,0-2.58-1.7c-.36.13-.77-.06-1.1.27-.11.12-.37-.16-.39-.39s-.11-.39.18-.48a9.54,9.54,0,0,1,3-.24c.67.48,1.4.8,1.64,1.79C356.66,87.64,356.34,89.16,356.54,90.76Z"/><path class="cls-14" d="M349.34,90.76c-.95,0-.95,0-1-.73-.23.2-.4.48-.58.49s-.41.21-.61.29a2.53,2.53,0,0,1-3.13-.66c-.26-.33-.56-.7-.43-1.13s.13-1.09.65-1.4a2.72,2.72,0,0,1,1.87-.66c.64.11,1.33-.24,1.95.22.18.13.38-.08.31-.32-.16-.58-.24-1.24-.83-1.56a1.78,1.78,0,0,0-1.75-.15c-.36.22-.77-.06-1.1.29-.1.11-.37-.18-.38-.41s-.12-.38.18-.48a9.84,9.84,0,0,1,3-.23c.66.49,1.4.81,1.63,1.8C349.46,87.65,349.15,89.16,349.34,90.76Z"/><path class="cls-14" d="M200.6,77.34c-.95,0-.95,0-1-.73-.23.21-.41.49-.58.5s-.47.23-.72.31a3.25,3.25,0,0,1-2.22,0,2.21,2.21,0,0,1-1-.92c-.15-.24-.4-.5-.26-.85a5.92,5.92,0,0,1,.41-1.14,2,2,0,0,1,1.52-.88,4.11,4.11,0,0,1,2.54.18c.2.12.35-.06.33-.32A1.86,1.86,0,0,0,197,71.74c-.35.13-.76,0-1.09.28-.12.12-.37-.17-.39-.39s-.12-.39.17-.49a9.84,9.84,0,0,1,3-.23c.67.47,1.4.8,1.64,1.78C200.73,74.22,200.4,75.74,200.6,77.34Z"/><path class="cls-15" d="M438.13,90.68a1.57,1.57,0,0,1-2-.79c-.5-.68-1-1.34-1.53-2l-.21.21c-.37.37-.87.68-1.06,1.12a4,4,0,0,0,0,1.46,1.72,1.72,0,0,1-.94.11V82a1.82,1.82,0,0,1,.88,0v6.1l2.88-2.87c.63-.63.63-.62,1.75-.55-.76.76-1.47,1.49-2.2,2.18-.31.29-.15.46-.05.78.16.51.8.65.82,1.22C437.08,89.33,437.35,90.18,438.13,90.68Z"/><path class="cls-15" d="M390.68,87.92a9.83,9.83,0,0,0-1.2,1.22c-.33.46,0,1.07-.17,1.62h-.87V82h.92V88c1-1,2-1.93,2.87-2.88a1.45,1.45,0,0,1,1.72-.5l-2.2,2.19c-.23.22-.2.35-.08.68a5.46,5.46,0,0,0,.93,1.28,6.35,6.35,0,0,0,1.61,1.88c-1,.34-1.49-.12-2-.81A12.64,12.64,0,0,0,390.68,87.92Z"/><path class="cls-15" d="M342.86,95.6h.93v6.08c1-1,2-1.93,2.87-2.89a1.42,1.42,0,0,1,1.66-.49l-2.48,2.47a23.47,23.47,0,0,0,2.73,3.56,1.37,1.37,0,0,1-1.88-.73,14.94,14.94,0,0,1-1.49-2.07c-.93.77-1.81,1.45-1.37,2.75-.32.26-.63.14-1,.13Z"/><path class="cls-16" d="M482.43,89.94a3.31,3.31,0,0,1-3.4,1,2.71,2.71,0,0,1-1.77-1.18,3.73,3.73,0,0,1,1.07-5.23,3.17,3.17,0,0,1,3.21.4,3.59,3.59,0,0,1,1.14,2.94h-4.55c-.49,0-.6.16-.45.63a2.43,2.43,0,0,0,1.66,1.69c.81.27,1.39-.18,2-.44S482,89.47,482.43,89.94Z"/><path class="cls-16" d="M224.07,60.88h-5A2.32,2.32,0,0,0,220.19,63c1,.52,1.89.28,3.07-.68l.5.51c.07,0,0,.09,0,.17a3.36,3.36,0,0,1-4.9-.09,2.75,2.75,0,0,1-.77-1.95,3.9,3.9,0,0,1,.46-2.2,3.36,3.36,0,0,1,1.58-1.44,3.05,3.05,0,0,1,2.37.21,3.33,3.33,0,0,1,1.59,2.65C224.08,60.36,224.07,60.56,224.07,60.88Z"/><path class="cls-16" d="M231.23,60.87h-4.95c.07,1.64.79,2.24,2.3,2.37a2,2,0,0,0,1.5-.67c.37-.34.49-.17.7.07l.23.24a3.42,3.42,0,0,1-3.38,1.06,3.18,3.18,0,0,1-2.36-3,3.84,3.84,0,0,1,.45-2.21c1.11-1.76,2.21-1.72,4-1.27.36.44.86.73,1.14,1.3A3.58,3.58,0,0,1,231.23,60.87Z"/><path class="cls-16" d="M247.1,60.87h-5c.06,1.64.79,2.24,2.3,2.37a2,2,0,0,0,1.5-.67c.37-.34.49-.17.7.07a2.61,2.61,0,0,0,.22.24,3.42,3.42,0,0,1-3.38,1.06,3.19,3.19,0,0,1-2.36-3,3.76,3.76,0,0,1,.46-2.2c1.1-1.76,2.21-1.72,3.95-1.27a3.81,3.81,0,0,1,1.59,2.67C247.11,60.35,247.1,60.55,247.1,60.87Z"/><path class="cls-16" d="M253.28,101.57c-1.59,0-3.1,0-4.62,0-.36,0-.42.17-.36.43a2.16,2.16,0,0,0,2.5,1.94,2.57,2.57,0,0,0,1.73-1c.12.25.25.49.42.83.08-.18.07-.11,0-.07a3.38,3.38,0,0,1-4.9-.1,3.51,3.51,0,0,1-.77-2.32,3.58,3.58,0,0,1,1.14-2.65,2.67,2.67,0,0,1,2.77-.54,2.35,2.35,0,0,1,1.54,1.14A3,3,0,0,1,253.28,101.57Z"/><path class="cls-16" d="M430.84,87.93h-4.95a2.12,2.12,0,0,0,2.4,2.36,2.15,2.15,0,0,0,1.39-.64c.35-.34.48-.21.7,0a1.26,1.26,0,0,0,.26.21,3.19,3.19,0,0,1-3.4,1.07A3,3,0,0,1,424.87,88a3.69,3.69,0,0,1,.45-2.2c1.1-1.76,2.21-1.73,3.95-1.28.37.43.89.71,1.13,1.3A3.58,3.58,0,0,1,430.84,87.93Z"/><path class="cls-16" d="M464.18,87.94h-4.95c.06,1.64.78,2.24,2.29,2.37a2,2,0,0,0,1.51-.67c.37-.34.48-.18.7.07L464,90a3.31,3.31,0,0,1-3.37,1,2.57,2.57,0,0,1-1.69-1.09A3,3,0,0,1,458.2,88a4.32,4.32,0,0,1,.47-2.2c1.1-1.76,2.21-1.72,3.95-1.27a6.52,6.52,0,0,1,1.14,1.3A3.65,3.65,0,0,1,464.18,87.94Z"/><path class="cls-16" d="M359.24,103l.57.56a.6.6,0,0,1-.08.16,3.27,3.27,0,0,1-5.66-2.42,3.57,3.57,0,0,1,1.05-2.57,2.68,2.68,0,0,1,2.86-.62,2.44,2.44,0,0,1,1.54,1.14,3,3,0,0,1,.52,2.32h-4.51c-.44,0-.62.18-.47.54.23.56.38,1.21,1,1.49a2.21,2.21,0,0,0,1.52.35A3.18,3.18,0,0,0,359.24,103Z"/><path class="cls-16" d="M221.59,101.57h-4.48c-.48,0-.58.16-.44.64a2.17,2.17,0,0,0,1,1.39,2.55,2.55,0,0,0,1.52.37,6.08,6.08,0,0,0,1.81-1.06,2.67,2.67,0,0,0,.18.39,1.18,1.18,0,0,0,.25.25,3.29,3.29,0,0,1-5.65-1.08,4,4,0,0,1,1.59-4.26,3,3,0,0,1,2.23-.07c.31.11.66.06.91.4s.79.68.9,1.18S221.87,100.86,221.59,101.57Z"/><path class="cls-16" d="M236.3,87.91h-4.6c-.38,0-.59.25-.43.58.31.63.52,1.28,1.32,1.6,1.21.49,2-.06,2.9-.73L236,90c-.88,1.13-2.14,1.14-3.43,1.07-.55-.41-1.3-.56-1.66-1.19a3.69,3.69,0,0,1-.65-1.88A3.85,3.85,0,0,1,231.36,85a2.8,2.8,0,0,1,2.77-.62,3,3,0,0,1,1.58,1.11,7.08,7.08,0,0,1,.59,1.66C236.31,87.39,236.3,87.59,236.3,87.91Z"/><path class="cls-16" d="M186.33,74.5h-4.51c-.41,0-.6.22-.45.57.25.55.39,1.23,1,1.48a2.35,2.35,0,0,0,1.53.34,3.47,3.47,0,0,0,1.68-1l.51.67-.15.17a3.39,3.39,0,0,1-4.82-.23,3.5,3.5,0,0,1-.74-2.33,3.59,3.59,0,0,1,1.07-2.56,2.51,2.51,0,0,1,2.76-.62A3,3,0,0,1,186.33,74.5Z"/><path class="cls-16" d="M362.17,74.5c-1.57,0-3.08,0-4.6,0-.37,0-.41.19-.35.44a2.15,2.15,0,0,0,2.5,1.93,2.42,2.42,0,0,0,1.69-.94l.5.69c0-.06,0,0,0,0a3.27,3.27,0,0,1-5.66-2.43,3.56,3.56,0,0,1,1-2.57,2.49,2.49,0,0,1,2.85-.59c.32.1.67.07.92.41s.79.67.9,1.18S362.45,73.79,362.17,74.5Z"/><path class="cls-16" d="M383.34,87.93h-4.95a2.12,2.12,0,0,0,2.4,2.36,2.15,2.15,0,0,0,1.39-.64c.35-.34.48-.21.7,0a1.26,1.26,0,0,0,.26.21,3.19,3.19,0,0,1-3.4,1.07A3,3,0,0,1,377.37,88a3.69,3.69,0,0,1,.45-2.2c1.1-1.76,2.21-1.73,3.95-1.28a5.92,5.92,0,0,1,1.14,1.29A3.67,3.67,0,0,1,383.34,87.93Z"/><path class="cls-16" d="M223.75,74.5h-4.52c-.39,0-.59.25-.43.58.3.63.52,1.28,1.31,1.6,1.21.49,2-.06,2.91-.72l.54.59a3.24,3.24,0,0,1-2.85,1.07,3,3,0,0,1-2.09-1,3.38,3.38,0,0,1-.81-2.42,3.52,3.52,0,0,1,1.08-2.55,2.71,2.71,0,0,1,2.76-.62,2.35,2.35,0,0,1,1.63,1.2A2.79,2.79,0,0,1,223.75,74.5Z"/><path class="cls-16" d="M268.67,76.53a3.29,3.29,0,0,1-3.37,1,2.56,2.56,0,0,1-1.69-1.08,3,3,0,0,1-.69-1.87,4.3,4.3,0,0,1,.47-2.2c1.1-1.76,2.21-1.73,3.95-1.27a6.2,6.2,0,0,1,1.14,1.29,3.62,3.62,0,0,1,.42,2H264a2.14,2.14,0,0,0,2.29,2.41,2.08,2.08,0,0,0,1.51-.66c.37-.34.49-.18.7.06A2.61,2.61,0,0,0,268.67,76.53Z"/><path class="cls-13" d="M193.36,77.35h-.88a.91.91,0,0,1-.08-.23v-3.7c0-1.56-1-2.18-2.43-1.57a2.1,2.1,0,0,0-1.15,2.08c-.08,1.11,0,2.23,0,3.36a1.48,1.48,0,0,1-.93,0V68.6c.27-.23.58,0,.92-.13V72c.29.11.32-.16.45-.25a2.73,2.73,0,0,0,.35-.33,2.27,2.27,0,0,1,2.55-.3,5.77,5.77,0,0,1,1.14,1c.18.15.07.37.07.56C193.36,74.22,193.36,75.74,193.36,77.35Z"/><path class="cls-13" d="M256.91,72.2a3.82,3.82,0,0,1,.29-.48c1.15-1.36,2.88-1,3.95.39a.71.71,0,0,1,.1.44c0,.16,0,.32,0,.48v4.26a2,2,0,0,1-1,.06c0-1.29,0-2.59,0-3.89a2.43,2.43,0,0,0-.07-.81,1.54,1.54,0,0,0-2.12-.89,2.07,2.07,0,0,0-1.39,2.13c-.06,1.12,0,2.23,0,3.37-.27.21-.58.1-.92.08V68.6c.23-.19.54-.07.92-.06v3.53Z"/><path class="cls-13" d="M371.61,77.35h-.92V68.54h.91v3.69c.31-.31.51-.48.67-.68a2.32,2.32,0,0,1,3.29,0,2,2,0,0,1,.63,1.43c-.07,1.42,0,2.85,0,4.26a2,2,0,0,1-1,.09c0-1.31,0-2.61,0-3.91a2.72,2.72,0,0,0-.06-.81,1.56,1.56,0,0,0-2.12-.9,2.09,2.09,0,0,0-1.4,2.14C371.55,75,371.61,76.18,371.61,77.35Z"/><path class="cls-13" d="M190.24,104.43a1.9,1.9,0,0,1-1-.08c0-1.29,0-2.59,0-3.9,0-1.51-1.09-2.16-2.47-1.52-.92.43-1,1.28-1.11,2.11a13.3,13.3,0,0,0,0,1.67v1.69h-.9V95.64c.24-.13.52,0,.87-.06v3.74c.32-.32.52-.48.67-.67a2.34,2.34,0,0,1,3.3,0,2.13,2.13,0,0,1,.64,1.54C190.2,101.56,190.24,103,190.24,104.43Z"/><path class="cls-12" d="M261.26,87.67a2.83,2.83,0,0,1,1.06-2.61,3.33,3.33,0,0,1,5,.87,3.76,3.76,0,0,1-.16,3.79,3.15,3.15,0,0,1-2.43,1.33,3.34,3.34,0,0,1-2.35-.7A2.92,2.92,0,0,1,261.26,87.67Z"/><path class="cls-12" d="M275.4,87.65c.15,1.68-.77,2.6-2.18,3.27a3.48,3.48,0,0,1-3.74-1.15,3.73,3.73,0,0,1,.52-4.72,3.35,3.35,0,0,1,5,.88A3.39,3.39,0,0,1,275.4,87.65Z"/><path class="cls-12" d="M198.62,101.17a2.87,2.87,0,0,1-.39,1.91,3.24,3.24,0,0,1-2.68,1.6,3,3,0,0,1-3.24-2.16,3.69,3.69,0,0,1,.09-2.71A3.22,3.22,0,0,1,194.48,98a3.41,3.41,0,0,1,4.08,2.16A3.37,3.37,0,0,1,198.62,101.17Z"/><path class="cls-12" d="M401.34,87.5a3,3,0,0,1-.39,1.93,3.28,3.28,0,0,1-2.69,1.6A3,3,0,0,1,395,88.87a3.74,3.74,0,0,1,.1-2.71,3.15,3.15,0,0,1,2.08-1.81,3.39,3.39,0,0,1,4.07,2.16A3.33,3.33,0,0,1,401.34,87.5Z"/><path class="cls-12" d="M452.19,87.64a3.62,3.62,0,0,1-.26,1.68c-.33.7-1,1-1.47,1.4A2.11,2.11,0,0,1,449,91,3,3,0,0,1,446,89a4.74,4.74,0,0,1,0-2.69,3.05,3.05,0,0,1,2.07-2,3.46,3.46,0,0,1,4.15,2.23A4.17,4.17,0,0,1,452.19,87.64Z"/><path class="cls-12" d="M217.35,87.8a2.71,2.71,0,0,1-.39,1.62A3.34,3.34,0,0,1,214.27,91,3,3,0,0,1,211,88.88a3.71,3.71,0,0,1,.08-2.72,3.21,3.21,0,0,1,2.07-1.81,3.4,3.4,0,0,1,4.08,2.16.72.72,0,0,1,.09.2C217.36,87,217.35,87.35,217.35,87.8Z"/><path class="cls-12" d="M337,74.09a3,3,0,0,1-.38,1.92,3.27,3.27,0,0,1-2.69,1.6,3,3,0,0,1-3.24-2.15,3.71,3.71,0,0,1,.09-2.72,3.22,3.22,0,0,1,2.08-1.81A3.42,3.42,0,0,1,337,73.1,3,3,0,0,1,337,74.09Z"/><path class="cls-12" d="M206.08,46.64a3.49,3.49,0,0,1-.3,1.94,3.37,3.37,0,0,1-6.11-.47,3.67,3.67,0,0,1,2.19-4.5A3.56,3.56,0,0,1,206,45.84,2.73,2.73,0,0,1,206.08,46.64Z"/><path class="cls-11" d="M190.92,32.08h-2.08V24.94c.65-.06,1.35,0,2.08,0Z"/><path class="cls-11" d="M346.92,32.06V25H349s0,0,0,.05a.19.19,0,0,1,0,.1c0,2.31,0,4.61,0,7Z"/><path class="cls-11" d="M208.59,32.1h-1.91l-.09-.08a.2.2,0,0,1,0-.11c0-2.3,0-4.61,0-6.95h2A51.57,51.57,0,0,1,208.59,32.1Z"/><path class="cls-11" d="M288.08,32.08H286V24.94c.65-.06,1.34,0,2.08,0Z"/><path class="cls-11" d="M179,84.63a.85.85,0,0,1,1.24.59c.33.93.83,1.8,1.13,2.76a10.73,10.73,0,0,0,.81,1.58,1,1,0,0,0,.4-.61,24.18,24.18,0,0,1,.86-2.28c.18-.44.39-.87.55-1.32.28-.79.27-.79,1.18-.69a13.39,13.39,0,0,1-1,2.68c-.4,1.25-1.1,2.41-1.59,3.64a5,5,0,0,1-1.08,1.48.69.69,0,0,1-.62.25,6.37,6.37,0,0,0-1.07,0c-.31,0-.43-.18-.57-.35s0-.28.11-.41.32-.3.59-.08a1,1,0,0,0,1.34-.23,1.16,1.16,0,0,0,.22-1.36c-.26-.52-.46-1.08-.71-1.62-.6-1.3-1.22-2.61-1.82-3.91C179,84.72,179,84.68,179,84.63Z"/><path class="cls-13" d="M238.7,90.76h-.92V84.69c.86-.17.86-.17,1,.66.24-.5.74-.55,1.08-.87s1.48-.17,2,0,.83.69,1.26,1c.15.12.11.28.11.43V90.7c-.31.16-.58.07-1,.08v-3.9a2.72,2.72,0,0,0-.06-.81,1.58,1.58,0,0,0-2.13-.91,2.09,2.09,0,0,0-1.39,2.14C238.65,88.44,238.7,89.59,238.7,90.76Z"/><path class="cls-13" d="M297.48,104.35a1.77,1.77,0,0,1-.91.07V98.28c.85,0,.85,0,1,.69a3.79,3.79,0,0,1,.5-.49,2.78,2.78,0,0,1,2.18-.5c.66.08,1,.61,1.5,1s.29.62.29,1c0,1.47,0,2.94,0,4.4-.28.19-.57.06-.83.1a.3.3,0,0,1-.14-.3c0-1.23,0-2.47,0-3.7,0-1.5-1-2.08-2.36-1.53a2,2,0,0,0-1.21,2C297.41,102.07,297.48,103.23,297.48,104.35Z"/><path class="cls-13" d="M359.2,85.33a2.94,2.94,0,0,1,2.55-1c.69.07,1.06.55,1.54.92s.4.73.4,1.16v4.31a1.41,1.41,0,0,1-1,0c0-1.39,0-2.78,0-4.16s-1-1.79-2.23-1.38-1.26,1.28-1.34,2.17c-.09,1.1,0,2.22,0,3.31-.28.22-.57,0-.81.13-.05,0-.1-.08-.1-.1q0-3,0-6.07C359.08,84.57,359.08,84.57,359.2,85.33Z"/><path class="cls-13" d="M254.53,63.69a1.92,1.92,0,0,1-.93,0V57.58c.19-.18.44-.06.67-.09s.27.09.27.28-.07.6.37.2a2.47,2.47,0,0,1,2-.74,2.68,2.68,0,0,1,1.54.65,1.8,1.8,0,0,1,.69,1.64c-.06,1.35,0,2.71,0,4.08-.27.22-.58.1-1,.09,0-1.39,0-2.77,0-4.16a1.35,1.35,0,0,0-.9-1.41,1.88,1.88,0,0,0-2.36.86,3.86,3.86,0,0,0-.35,1.53C254.58,61.54,254.53,62.58,254.53,63.69Z"/><path class="cls-13" d="M333.94,90.76H333V84.69c.85-.17.85-.17,1,.66.24-.5.74-.55,1.08-.87s1.48-.17,2,0,.83.69,1.26,1c.15.12.11.28.11.43v4.74c-.3.17-.58.08-1,.09v-3.9a2.72,2.72,0,0,0-.06-.81,1.58,1.58,0,0,0-2.13-.91A2.09,2.09,0,0,0,334,87.3C333.89,88.44,333.94,89.59,333.94,90.76Z"/><path class="cls-13" d="M305.15,90.77h-.92v-6.1c.87-.13.87-.13.94.54.3.09.34-.23.5-.34a2.54,2.54,0,0,1,2.05-.56,1.64,1.64,0,0,1,1,.4,2,2,0,0,1,1,2c-.13,1.33,0,2.69,0,4.07h-1c0-1.29,0-2.6,0-3.9a2.63,2.63,0,0,0-.07-.8,1.54,1.54,0,0,0-2.13-.88,2.08,2.08,0,0,0-1.38,2.14C305.12,88.43,305.15,89.55,305.15,90.77Z"/><path class="cls-13" d="M471.17,90.79h-1c0-1.34,0-2.68,0-4a3,3,0,0,0-.17-.88,1.2,1.2,0,0,0-1-.82,2,2,0,0,0-1.61.41,1.47,1.47,0,0,0-.58.84,3.39,3.39,0,0,0-.25,1.45c0,1,0,1.92,0,2.87,0,0,0,.06-.08.12h-.83V84.61c.86,0,.86,0,1,.74.25-.49.72-.59,1.08-.86a2.26,2.26,0,0,1,1.82-.12c.65.13,1.06.77,1.51,1.24.08.09,0,.3,0,.46C471.17,87.61,471.17,89.16,471.17,90.79Z"/><path class="cls-13" d="M485.08,90.76h-.92V84.67c.87-.13.87-.13.94.54.29.08.34-.23.5-.34a2.53,2.53,0,0,1,2-.56,1.72,1.72,0,0,1,1,.4,2.07,2.07,0,0,1,1,2c-.13,1.34,0,2.69,0,4.07h-1c0-1.37,0-2.76,0-4.14a1.44,1.44,0,0,0-1-1.49,2,2,0,0,0-2.37,1.1,4.32,4.32,0,0,0-.26,1.57C485.11,88.75,485.08,89.71,485.08,90.76Z"/><path class="cls-13" d="M423.18,90.76h-.95c0-1.39,0-2.77,0-4.16a1.35,1.35,0,0,0-.9-1.41A1.89,1.89,0,0,0,419,86a4,4,0,0,0-.35,1.54c.06,1,0,2.07,0,3.11a1.41,1.41,0,0,1-.93,0V84.65c.18-.18.43-.06.66-.09s.27.09.27.28-.07.6.38.2a2.44,2.44,0,0,1,2-.74,2.67,2.67,0,0,1,1.53.65,1.8,1.8,0,0,1,.69,1.64C423.14,87.94,423.18,89.3,423.18,90.76Z"/><path class="cls-13" d="M202.52,71.19c.86,0,.86,0,1,.74.23-.5.74-.55,1.07-.87s1.48-.16,2,0,.83.69,1.25,1c.15.12.11.28.11.43v4.74a1.89,1.89,0,0,1-1,.08c0-1.3,0-2.6,0-3.9a2.72,2.72,0,0,0-.06-.81,1.56,1.56,0,0,0-2.12-.9,2.09,2.09,0,0,0-1.4,2.14c-.07,1.14,0,2.29,0,3.46h-.92Z"/><path class="cls-13" d="M190.48,63.7h-.87a1,1,0,0,1-.09-.23c0-1.24,0-2.47,0-3.71A1.6,1.6,0,0,0,187,58.23a2.16,2.16,0,0,0-1,2.05c-.07,1.11,0,2.22,0,3.35a1.4,1.4,0,0,1-.9,0,1.48,1.48,0,0,1-.05-.24c0-1.95,0-3.9,0-5.85.91-.1.91-.1,1,.66.31-.24.62-.46.87-.66a2.3,2.3,0,0,1,2.21-.19c.6.15.91.7,1.34,1.09.18.16.07.37.08.56C190.49,60.56,190.48,62.08,190.48,63.7Z"/><path class="cls-10" d="M320,103.72c1.28,0,2.51,0,3.73,0,.23,0,.37,0,.37.31s0,.42-.38.42c-1.59,0-3.19,0-4.79,0-.37,0-.41-.2-.34-.44a2,2,0,0,1,.39-.79c.55-.6,1.07-1.24,1.63-1.83a21.82,21.82,0,0,1,2.2-2.46H319c-.23,0-.37,0-.37-.31s0-.43.38-.42c1.6,0,3.19,0,4.79,0,.16,0,.34,0,.35.2s0,.35-.06.45c-.41.46-.78,1-1.2,1.4a28.79,28.79,0,0,1-2.26,2.55C320.31,103,320.25,103.37,320,103.72Z"/><path class="cls-14" d="M196,62.36c-.44-1-.44-1-1.49-1.27a7.28,7.28,0,0,1-1.62-.7,1.57,1.57,0,0,1-.32-2.22,2.47,2.47,0,0,1,2.91-.79c.27.11.63-.05.85.29.09.14.53.08.37.42a.55.55,0,0,1-.67.35c-.35-.11-.69-.28-1-.39a1.38,1.38,0,0,0-1.71.58c-.16.25-.22.37,0,.59a2.73,2.73,0,0,0,1.16.68,4.71,4.71,0,0,1,1.54.6,1.8,1.8,0,0,1-.2,3.21,3.17,3.17,0,0,1-2.38.14c-.37-.08-.87-.08-1.07-.56-.63,0-.21-.34-.17-.55s.23-.26.43-.15a4.37,4.37,0,0,0,.9.42C195,63.43,195,63.44,196,62.36Z"/><path class="cls-14" d="M264.62,62.39c-.45-1-.45-1-1.5-1.3a6.88,6.88,0,0,1-1.62-.71,1.56,1.56,0,0,1-.32-2.21,2.48,2.48,0,0,1,2.92-.79c.27.11.64-.06.84.3.07.13.45,0,.38.29s-.24.53-.56.47a7.73,7.73,0,0,1-1.07-.31c-1-.33-1.52-.15-1.88.59-.08.16-.14.3,0,.41a5.24,5.24,0,0,0,.72.55c.5.26,1.1.28,1.52.69,1,0,1.12.88,1.48,1.52.19.33-.19.45-.24.72a1.64,1.64,0,0,1-1.42,1.31,4.66,4.66,0,0,1-2.3-.17c-.38-.13-.52-.56-1-.58-.1,0,.23-.3.2-.55s.23-.13.39,0c.35.21.77.3,1.12.47a3.79,3.79,0,0,0,1.12.18.61.61,0,0,0,.61-.27C264.24,62.76,264.44,62.58,264.62,62.39Z"/><path class="cls-14" d="M231.52,103.21c-.14-1-.78-1.25-1.51-1.4a5.44,5.44,0,0,1-1.62-.71,1.55,1.55,0,0,1-.31-2.21A2.48,2.48,0,0,1,231,98.1c.28.11.65,0,.84.31.07.12.45,0,.39.29s-.25.53-.57.46a7.73,7.73,0,0,1-1.07-.31c-1-.33-1.53-.14-1.88.6-.08.16-.13.29,0,.4a6,6,0,0,0,.72.56c.5.25,1.1.28,1.52.68,1,0,1.12.89,1.48,1.53.18.33-.2.45-.24.72a1.66,1.66,0,0,1-1.43,1.31,4.66,4.66,0,0,1-2.3-.18c-.38-.13-.52-.61-1-.55a2.75,2.75,0,0,1,.2-.57c.08-.16.24-.13.4,0a10.67,10.67,0,0,0,1.12.47,3.76,3.76,0,0,0,1.12.19c.28,0,.43-.11.61-.28S231.37,103.34,231.52,103.21Z"/><path class="cls-14" d="M185.73,50.3a2.51,2.51,0,0,1-2.06-.69c-.72,0-.16-.42-.12-.55.09-.36.29-.15.51,0a4.43,4.43,0,0,0,1.22.5c.6.1,1.27.26,1.71-.41.12-.18.49-.32.35-.54s-.21-.8-.75-.93a4.08,4.08,0,0,1-2.24-.94c-.8,0-.37-.85-.83-1.08A4.5,4.5,0,0,1,184,44.5a2.45,2.45,0,0,1,2.91-.76c.27.1.63,0,.84.3.07.11.43,0,.36.31a.54.54,0,0,1-.47.44,1,1,0,0,1-.54-.14,4.69,4.69,0,0,0-1.18-.33,1.19,1.19,0,0,0-.86.22c-.53.35-.63.8-.18,1.21a3.45,3.45,0,0,0,1,.51,5.49,5.49,0,0,1,1.72.75,1.65,1.65,0,0,1,.52,2.09,2,2,0,0,1-1.81,1.21Z"/><path class="cls-14" d="M175.41,103.18c-.48-1.06-.48-1.07-1.53-1.37a7.56,7.56,0,0,1-1.63-.7,1.58,1.58,0,0,1-.31-2.22,2.47,2.47,0,0,1,2.91-.79c.27.11.65-.06.84.3.07.13.45,0,.39.3s-.24.52-.57.46a6.74,6.74,0,0,1-1.06-.31c-1-.33-1.52-.15-1.88.59-.08.17-.15.3,0,.41a5.28,5.28,0,0,0,.72.56c.49.25,1.09.28,1.51.68,1,0,1.13.88,1.49,1.52.19.33-.19.46-.24.72a1.64,1.64,0,0,1-1.42,1.32,4.78,4.78,0,0,1-2.3-.18c-.38-.13-.52-.56-1-.58-.11,0,.23-.3.2-.55s.23-.13.39,0c.35.21.77.3,1.12.47a3.76,3.76,0,0,0,1.12.19c.28,0,.43-.11.61-.28S175.23,103.33,175.41,103.18Z"/><path class="cls-14" d="M349.36,77.61a2.55,2.55,0,0,1-2.1-.71c-.68,0-.13-.29-.12-.44,0-.37.2-.32.46-.19a4.89,4.89,0,0,0,2,.64c.7,0,.94-.5,1.33-.85.16-.14-.35-1.06-.66-1.06a3.77,3.77,0,0,1-1.08-.32,1.81,1.81,0,0,1-1.27-.66c-.78,0-.38-.85-.8-1.11.19-.36.16-.8.44-1.13.84-1,1.55-1.06,2.92-.71.24.06.57-.08.74.22s.55,0,.45.39-.5.58-.73.4-.65-.15-.95-.32a1.26,1.26,0,0,0-1.4.1c-.57.35-.64.81-.14,1.22a7,7,0,0,0,2.14.91c.49.18.71.59,1.08.86-.17.39.37.65.22,1a3,3,0,0,1-.81,1.35,2,2,0,0,1-1.38.45Z"/><path class="cls-14" d="M369.21,72l-.56.55a7.56,7.56,0,0,1-.93-.58,2,2,0,0,0-2.87.75,2.79,2.79,0,0,0-.13,2.93,2.24,2.24,0,0,0,3.61.58l.29-.3.5.64a3.29,3.29,0,0,1-4.62.3,3.67,3.67,0,0,1-.24-5A3.4,3.4,0,0,1,369.21,72Z"/><path class="cls-14" d="M198,48.61l.59.59a3.33,3.33,0,0,1-4.77.27,3.68,3.68,0,0,1-.14-4.89,3.39,3.39,0,0,1,4.91.07c0,.06-.07.12-.11.17-.48.45-.58.51-1,.14a2,2,0,0,0-2-.56A2.07,2.07,0,0,0,194,46c-.56,1.86.47,3.67,2.41,3.56A2,2,0,0,0,198,48.61Z"/><path class="cls-14" d="M183.28,99.05l-.57.57c-.25-.21-.57-.32-.84-.52a1.94,1.94,0,0,0-3,.7,2.76,2.76,0,0,0,0,3,2.15,2.15,0,0,0,2.56,1,2.64,2.64,0,0,0,1.25-.81l.54.66a3,3,0,0,1-2.11,1,3.4,3.4,0,0,1-2.65-.85,3.7,3.7,0,0,1-.12-4.89A3.39,3.39,0,0,1,183.28,99.05Z"/><path class="cls-14" d="M240.3,98.32c1.09-.11,1.24,0,1.52.83.39,1.24,1,2.38,1.43,3.6.06.18.12.27.3.25s.15-.1.2-.23c.42-1.22,1-2.37,1.43-3.6.28-.86.42-1,1.4-.88.08.16,0,.27-.08.41a28.85,28.85,0,0,0-1.58,3.66c-.2.59-.61,1.1-.87,1.67-.12.27-.19.43-.54.43s-.62-.11-.69-.35c-.37-1.53-1.32-2.81-1.74-4.31A7.28,7.28,0,0,0,240.3,98.32Z"/><path class="cls-12" d="M278.56,85.28v5.39a1.36,1.36,0,0,1-1,.07V85.43c-.23-.25-.49-.14-.71-.14s-.28-.21-.27-.41,0-.32.22-.32h.75a2.3,2.3,0,0,1,.77-2.37c.68-.51,1.36-.11,2-.3a1.54,1.54,0,0,1,0,1c-1.58-.51-1.91-.19-1.76,1.69h1.53c.28,0,.32.12.32.36s0,.37-.31.36C279.62,85.27,279.11,85.28,278.56,85.28Z"/><path class="cls-14" d="M350.26,98.21V96.39a1.92,1.92,0,0,1,.93-.08v1.9c.59,0,1.1,0,1.61,0,.26,0,.35.09.34.34s0,.39-.29.39c-.52,0-1,0-1.64,0,0,1.26,0,2.48,0,3.7,0,.92.56,1.27,1.46.93.16-.06.3-.14.41,0s0,.22,0,.34a.48.48,0,0,1-.39.51,2.73,2.73,0,0,1-2-.34,1.14,1.14,0,0,1-.49-1c0-1.35,0-2.7,0-4-.19-.2-.4-.12-.59-.11-.34,0-.38-.13-.38-.42s.13-.33.37-.31A5.85,5.85,0,0,0,350.26,98.21Z"/><path class="cls-14" d="M307.55,71.86c0,1.27,0,2.5,0,3.73,0,.9.55,1.23,1.48.89a.42.42,0,0,1,.32,0c.17.09.11.28.11.43a.48.48,0,0,1-.41.49,3.58,3.58,0,0,1-1.61-.15,1.31,1.31,0,0,1-.87-1.33c0-1.3,0-2.61,0-3.9-.25-.18-.49-.09-.72-.1s-.24-.16-.24-.32-.05-.41.27-.41h.67V69.26h1v1.89c.6,0,1.11,0,1.62,0,.28,0,.32.13.32.36s0,.38-.32.37C308.65,71.85,308.14,71.86,307.55,71.86Z"/><path class="cls-14" d="M326.5,71.86c-.27,0-.47,0-.66,0s-.29-.17-.3-.38.07-.37.33-.35a6.14,6.14,0,0,0,.62,0V69.31a1.69,1.69,0,0,1,1,0v1.87h1.68c.23,0,.25.14.24.31s.07.42-.25.41h-1.67c0,1.31,0,2.61,0,3.91a1,1,0,0,0,1.35.82c.21-.07.38-.34.55,0s-.14.81-.35.79a3.65,3.65,0,0,1-1.71-.2,1.22,1.22,0,0,1-.81-1.23C326.53,74.61,326.5,73.3,326.5,71.86Z"/><path class="cls-14" d="M339.24,71.15V69.3a2,2,0,0,1,.93,0v1.9h1.61c.28,0,.33.12.33.36s0,.38-.32.37c-.51,0-1,0-1.61,0,0,1.27,0,2.5,0,3.72,0,.91.56,1.24,1.48.9.12,0,.23-.09.32,0s.12.28.12.43a.49.49,0,0,1-.41.49,3.58,3.58,0,0,1-1.61-.15,1.29,1.29,0,0,1-.87-1.32c0-1.16,0-2.31,0-3.47,0-.53-.2-.6-.62-.55-.23,0-.39,0-.36-.3s-.06-.42.26-.42h.72Z"/><path class="cls-14" d="M378.8,71.86a5,5,0,0,0-.58,0c-.35,0-.38-.14-.38-.42s.14-.33.37-.31a4.83,4.83,0,0,0,.56,0V69.34a1.79,1.79,0,0,1,1-.1v1.91c.59,0,1.1,0,1.62,0,.26,0,.34.1.33.35s0,.38-.3.38h-1.63c0,1.26,0,2.49,0,3.71,0,.91.56,1.26,1.46.92.17-.06.3-.14.41,0s0,.22,0,.33a.5.5,0,0,1-.4.51,2.75,2.75,0,0,1-1.91-.27,1.18,1.18,0,0,1-.59-1.07C378.85,74.66,378.8,73.31,378.8,71.86Z"/><path class="cls-14" d="M206.79,85.28c-.26,0-.46,0-.65,0s-.31-.14-.31-.37,0-.37.32-.35h.62V82.78c.32-.28.63,0,1-.18v2h1.68c.32,0,.25.23.25.41s0,.31-.24.31c-.52,0-1,0-1.66,0,0,.65,0,1.32,0,2s0,1.36,0,2a1,1,0,0,0,1.34.73c.21-.08.37-.35.56,0s-.13.79-.34.8a3,3,0,0,1-1.92-.24,1.22,1.22,0,0,1-.63-1.17C206.85,88,206.79,86.73,206.79,85.28Z"/><path class="cls-14" d="M268.41,57.49h1.66c.3,0,.3.16.3.38s-.06.35-.33.34h-1.59c0,1.24,0,2.43,0,3.62s.47,1.34,1.5,1a.52.52,0,0,1,.32,0c.17.09.08.28.1.43a.49.49,0,0,1-.33.45,2.63,2.63,0,0,1-2.36-.58.81.81,0,0,1-.19-.65V58.21h-.62c-.25,0-.34-.07-.35-.33s.1-.43.41-.39a4.32,4.32,0,0,0,.51,0V55.76c.31-.36.64-.08,1-.24Z"/><path class="cls-14" d="M198.88,58.21h-.72c-.22,0-.25-.13-.24-.3s-.07-.42.25-.42h.68V55.67a1.88,1.88,0,0,1,1-.07v1.89h1.62c.26,0,.33.11.32.35s0,.38-.3.37h-1.62c0,1.26,0,2.49,0,3.71,0,.91.57,1.25,1.47.91.12,0,.24-.1.33-.06s.11.28.12.43a.5.5,0,0,1-.41.5,3.49,3.49,0,0,1-1.71-.19,1.29,1.29,0,0,1-.77-1.28C198.9,60.92,198.88,59.61,198.88,58.21Z"/><path class="cls-17" d="M248.57,57.51h.84c.23.37-.06.79.17,1.15,1.54-1.39,1.54-1.39,2.48-1.37.12.09.08.22.07.33,0,.29.11.56-.42.62a2.09,2.09,0,0,0-1.86,1.45,4.77,4.77,0,0,0-.36,1.64c0,.76,0,1.51,0,2.27-.28.28-.6,0-.93.17Z"/><path class="cls-17" d="M233.66,63.7h-.92V57.51h.84c.23.36-.06.79.18,1.17.75-.59,1.26-1.62,2.42-1.41.17.1.12.23.12.34,0,.29.11.57-.42.63A2.1,2.1,0,0,0,234,59.68a5.06,5.06,0,0,0-.35,1.65C233.68,62.08,233.66,62.84,233.66,63.7Z"/><path class="cls-17" d="M224.07,104.44c-.38,0-.66.07-.94-.08V98.29a1.47,1.47,0,0,1,.93,0v1.1c.31,0,.38-.26.54-.38s.33-.34.51-.5a1.62,1.62,0,0,1,1.57-.47c0,.14,0,.25,0,.36,0,.35,0,.52-.47.59a2.08,2.08,0,0,0-1.84,1.47,4.87,4.87,0,0,0-.34,1.66C224.1,102.85,224.07,103.6,224.07,104.44Z"/><path class="cls-17" d="M254.81,98.24h.93v1.22c1.6-1.47,1.6-1.47,2.63-1.43a5.28,5.28,0,0,0,0,.56c0,.25-.08.32-.33.35a2.22,2.22,0,0,0-2,1.48,4.77,4.77,0,0,0-.35,1.65c0,.75,0,1.5,0,2.27a1.37,1.37,0,0,1-.92.06Z"/><path class="cls-17" d="M454.85,90.77h-.92V84.65c.23-.19.54-.07.84-.06.23.35-.07.78.16,1.13,1.55-1.38,1.55-1.38,2.48-1.36.13.08.08.21.08.32,0,.3.1.57-.43.63a2.09,2.09,0,0,0-1.86,1.44,4.87,4.87,0,0,0-.35,1.65C454.87,89.15,454.85,89.91,454.85,90.77Z"/><path class="cls-17" d="M250.7,71.17h1v1.2c1.65-1.44,1.65-1.44,2.56-1.43.16.12.06.29.08.44.05.31,0,.44-.41.51A2.16,2.16,0,0,0,252,73.33a5.35,5.35,0,0,0-.36,1.64c0,.76,0,1.51,0,2.27-.14.22-.35.11-.54.13s-.44,0-.43-.35C250.71,75.08,250.7,73.14,250.7,71.17Z"/><path class="cls-17" d="M180.89,63.7H180V57.52h.83c.23.35-.06.78.18,1.16.75-.59,1.26-1.62,2.42-1.41.18.1.12.23.12.34,0,.29.12.57-.42.63a2.08,2.08,0,0,0-1.86,1.44,4.82,4.82,0,0,0-.36,1.64C180.9,62.08,180.89,62.83,180.89,63.7Z"/><path class="cls-18" d="M260.09,95.6H261v8.76c-.22.25-.55,0-.88.14Z"/><path class="cls-18" d="M353.65,68.53h.88v8.76c-.22.25-.55,0-.88.14Z"/><path class="cls-18" d="M226.43,77.35h-.88V68.59c.23-.17.54-.07.88,0Z"/><path class="cls-19" d="M301.08,84.58H302a.91.91,0,0,1,.08.23q0,3.1,0,6.21c0,1.18-.61,1.73-1.8,1.69-.23,0-.38,0-.36-.32s0-.33.26-.42c.85-.25.94-.4.94-1.19C301.08,88.75,301.08,86.72,301.08,84.58Z"/><path class="cls-19" d="M329.86,84.58h1c0,2.28,0,4.54,0,6.8a1.63,1.63,0,0,1-2,1.32c-.12,0-.14-.18-.13-.3s0-.34.25-.43c.87-.26.95-.39.95-1.18C329.87,88.75,329.86,86.72,329.86,84.58Z"/><path class="cls-15" d="M204.64,103.72c-.55,1.1-1.57,1-2.53.94a2,2,0,0,1-1.6-1.31,1.36,1.36,0,0,1-.19-.64V98.32c.28-.19.56-.07.83-.11a.33.33,0,0,1,.13.31c0,1.15,0,2.31,0,3.46a1.81,1.81,0,0,0,2.83,1.67c.09-.05.13-.2.29-.17l.08,0a.3.3,0,0,1,.13.12Z"/><path class="cls-12" d="M204.4,103.48a3.13,3.13,0,0,0,.49-1.83c0-1.11,0-2.22,0-3.35a1.39,1.39,0,0,1,.9,0,1.29,1.29,0,0,1,.05.24c0,2,0,3.9,0,5.81-.14.2-.31.12-.46.13-.3,0-.56,0-.5-.41,0-.16,0-.32-.23-.31Z"/><path class="cls-20" d="M311.43,71.17h.88v6.12c-.23.23-.55,0-.88.14Z"/><path class="cls-20" d="M191,50H190v-6.2h.49c.26,0,.44,0,.44.36C191,46.14,191,48.08,191,50Z"/><path class="cls-20" d="M326.78,84.58h.88V90.7c-.23.18-.54.07-.88.06Z"/><path class="cls-20" d="M298.88,90.77H298V84.64c.23-.17.54-.07.88,0Z"/><path class="cls-20" d="M181.8,50h-.87V43.86h.87Z"/><path class="cls-20" d="M272.09,57.51H273v6.13c-.24.16-.55.07-.88,0Z"/><path class="cls-20" d="M271.53,77.35h-.88V71.23c.23-.18.54-.07.88,0Z"/><path class="cls-20" d="M294.32,104.42h-.88V98.24h.88Z"/><path class="cls-7" d="M346.94,22.3H349v1.83h-2.08Z"/><path class="cls-7" d="M190.92,24.17h-2.08V22.34h2.08Z"/><path class="cls-7" d="M208.69,22.28v1.87h-2.1V22.36a8,8,0,0,1,1.76-.08C208.42,22.27,208.5,22.28,208.69,22.28Z"/><path class="cls-7" d="M286,22.3h2.08v1.87c-.65,0-1.34,0-2.08,0Z"/><path class="cls-21" d="M312,103.26h1.31c0,.4,0,.79,0,1.17a1.64,1.64,0,0,1-1.07,1.44.4.4,0,0,1-.48-.23c-.25-.38.15-.17.24-.25s.33-.33.5-.5.16-.35,0-.39C311.77,104.32,312.29,103.73,312,103.26Z"/><path class="cls-21" d="M235.37,103.28c-.15.6.07,1.14-.19,1.74s-.62.62-1,.84-.37-.21-.55-.34a1.82,1.82,0,0,0,.91-.68.39.39,0,0,0,0-.3c-.74-.21-.31-.8-.48-1.26Z"/><path class="cls-21" d="M439.26,89.62h1.21a4.65,4.65,0,0,1-.24,1.92c-.23.42-.64.49-1,.67s-.29-.23-.48-.33a1.85,1.85,0,0,0,.73-.49c.21-.25.55-.48-.08-.61-.12,0-.17-.12-.16-.26S439.26,90,439.26,89.62Z"/><path class="cls-21" d="M411,89.63h1.1a4.27,4.27,0,0,1-.18,1.85c-.21.48-.62.52-.94.72s-.36-.19-.52-.35c.42-.07.65-.4.91-.67a.4.4,0,0,0,0-.31c-.71-.15-.34-.72-.43-1.11C411,89.73,411,89.69,411,89.63Z"/><path class="cls-21" d="M311.14,91.87a1.64,1.64,0,0,0,.74-.49c.23-.26.52-.49-.1-.6-.12,0-.16-.14-.15-.27s0-.55,0-.87h1.21a4.29,4.29,0,0,1-.24,1.91c-.23.42-.65.48-1,.66C311.43,92.3,311.33,92,311.14,91.87Z"/><path class="cls-20" d="M281.68,71.16h1.12v1.13a3.4,3.4,0,0,1-1.12,0Z"/><path class="cls-20" d="M246.6,89.63v1.12h-1.13a3.69,3.69,0,0,1,0-1.12Z"/><path class="cls-20" d="M207.8,43.86h1.11V45a3.1,3.1,0,0,1-1.11,0Z"/><path class="cls-20" d="M284.24,63.7h-1.12V62.6c.32-.19.71,0,1.12-.11Z"/><path class="cls-20" d="M203.24,62.54h1.11v1.12a3.32,3.32,0,0,1-1.11.05Z"/><path class="cls-20" d="M203.24,57.51h1.12v1.12a3.41,3.41,0,0,1-1.12,0Z"/><path class="cls-20" d="M281.68,76.2h1.12v1.12a3.4,3.4,0,0,1-1.12,0Z"/><path class="cls-20" d="M245.46,84.58h1.12V85.7a3.38,3.38,0,0,1-1.12,0Z"/><path class="cls-20" d="M383.14,77.37V76.22h1.12a.36.36,0,0,1,.06.25c0,.89,0,.89-.95.9Z"/><path class="cls-20" d="M208.93,48.91V50h-1.12a3.08,3.08,0,0,1,0-1.11Z"/><path class="cls-20" d="M361.53,103.27h1.16v1.11a.38.38,0,0,1-.26.06c-.89,0-.89,0-.9-1Z"/><path class="cls-22" d="M293.18,96.74v-.88h1.1c.16.24.07.54,0,.88Z"/><path class="cls-22" d="M189.75,41.46h1.13c.16.27.05.55.09.87a3.25,3.25,0,0,1-1.12.06C189.69,42.11,189.79,41.83,189.75,41.46Z"/><path class="cls-22" d="M311.14,68.77h1.13c.16.27.05.55.08.84-.36.21-.75,0-1.09.12C311.07,69.42,311.18,69.14,311.14,68.77Z"/><path class="cls-22" d="M270.36,68.77h1.12c.16.27.06.55.09.84-.36.21-.75,0-1.1.12C270.29,69.41,270.4,69.13,270.36,68.77Z"/><path class="cls-22" d="M180.63,41.46h1.13c.16.28.05.55.09.87a3.25,3.25,0,0,1-1.12.06C180.57,42.11,180.68,41.83,180.63,41.46Z"/><path class="cls-22" d="M330.84,83.1h-1.13c-.17-.26,0-.54-.09-.81.12-.12,1-.23,1.11-.08S330.79,82.73,330.84,83.1Z"/><path class="cls-22" d="M271.83,56v-.87h1.1c.17.23.06.53.05.87Z"/><path class="cls-22" d="M327.72,83.1h-1.13c-.16-.26,0-.54-.09-.81.12-.12,1-.23,1.11-.08S327.67,82.73,327.72,83.1Z"/><path class="cls-22" d="M302,82.2v.88h-1.1c-.16-.24-.07-.54,0-.88Z"/><path class="cls-22" d="M297.74,83.08V82.2h1.1c.16.24.06.54.05.88Z"/><path class="cls-23" d="M459.65,30.9c0-.23.2-.35.52-.52-.12.39.17.76-.28,1C459.85,31.2,460,30.92,459.65,30.9Z"/><path class="cls-24" d="M118.27,45.75a4.77,4.77,0,0,1-.93,2.49,6.16,6.16,0,0,1-4.43,2.55,3,3,0,0,0-2.53,2.06,4.51,4.51,0,0,0-.29,1.57c.22,2.92-.37,5.82-.22,8.75a24,24,0,0,1-1,4.12c-.47,1.09-1.08,2.1-1.62,3.15a5.47,5.47,0,0,1-.89,1.17c-.86.93-1.43,2.16-2.66,2.73-.14.06,0,.43-.29.4a6.37,6.37,0,0,1-4.52,2.13c-1.11.15-2.18.17-2.37,1.61,0,.1-.19.11-.31.09V77c-.28-.21-.6-.09-.91-.1-1,0-1.91,0-2.87,0a8.4,8.4,0,0,1-2.81-.45c-.45-.15-1-.14-1.45-.25-1.43-.32-2.88-.5-4.29-.92A5.88,5.88,0,0,0,82.31,75c-.59,0-1.1-.43-1.7-.26-.43-.48-1.16,0-1.6-.48C78.3,74.42,77.65,74,77,74c-.46.06-.78-.29-1.22-.28s-.88.21-1.23-.19a.33.33,0,0,0-.23,0,21.05,21.05,0,0,1-3.37-.23c-1.12,0-2.24,0-3.36,0-.28,0-.38.26-.62.25a19.87,19.87,0,0,1-10.87-3.2,3.06,3.06,0,0,1-.88-1.11c-.38-.65-1-1.15-1.32-1.84A14.73,14.73,0,0,1,53,65.22a8.41,8.41,0,0,1-.23-3.12,3.44,3.44,0,0,1,.33-1.65c.26-.41-.1-.54-.1-.8a10.17,10.17,0,0,1,2.56-4.76,2,2,0,0,1,1-.75c.82-.35,1.53-.9,2.33-1.3a17.46,17.46,0,0,1,4-1.35,3.29,3.29,0,0,1,1.34-.22c.53.09.94-.33,1.47-.26s1,0,1.43,0c.79,0,1.51-.43,2.3-.24a39.68,39.68,0,0,0,4.21.28,17.3,17.3,0,0,1,2.18.23,12.51,12.51,0,0,1,2,.25c.76.34,1.52,0,2.27.33a4.11,4.11,0,0,0,2.23.07,18.69,18.69,0,0,0,4.27-.65.7.7,0,0,1,.35,0c.83.16,1.6-.27,2.42-.25s1.6,0,2.39,0a1.21,1.21,0,0,0,1-.4c.86-.9,1.77-1.74,2.62-2.64a11.18,11.18,0,0,0,1.85-2.82c.55-1.15,1.27-2.19,1.9-3.28.71-1.24,1.55-2.4,2.37-3.57.15-.23,0-.51.16-.65s.15-.62.38-.94c.84-1.17,1.32-2.57,2.14-3.77a4.89,4.89,0,0,1,1.61-1.59c.26-.14.63-.28.72-.51s.52-.53.57-.84.47-.43.32-.82a1.87,1.87,0,0,1,.43,1.44c0,.2,0,.4,0,.6-.14,1.54.38,3,.25,4.57,0,.42.28.53.68.62a6.92,6.92,0,0,1,3.59,1.74A5.14,5.14,0,0,1,114,41.74c0,.28,0,.56,0,.84a1,1,0,0,0,1,1c.68,0,1.36,0,2,0,.16,0,.33,0,.31.24C116.6,45,117.55,45.32,118.27,45.75Z"/><path class="cls-7" d="M55.18,69.23a11.89,11.89,0,0,0,3.69,2.33,20.15,20.15,0,0,0,3.38,1.07,24.59,24.59,0,0,1,3.42.66,3,3,0,0,0,1,0c.17,0,.33,0,.31.24a30.35,30.35,0,0,1-3.53,5.13c-1.47,1.77-3.2,3.28-4.77,5-.5.54-1.17.88-1.69,1.43a8,8,0,0,0-2,3.83c-.15.54,0,1.1-.23,1.57a7.75,7.75,0,0,0-.2,2.66c0,.6.09.69.72.79a1.91,1.91,0,0,1,1.64,2.43,2,2,0,0,1-1,.94,3.66,3.66,0,0,1-3.27.15,9.27,9.27,0,0,1-.89-.45,1.67,1.67,0,0,1-.8-.84,2.86,2.86,0,0,1,0-1.64,2.77,2.77,0,0,0,.16-1.12q0-4.07,0-8.13a3.68,3.68,0,0,1,1.22-3,7.51,7.51,0,0,0,2.21-3.63c.17-.61.32-1.22.44-1.85C55.41,74.27,55.06,71.75,55.18,69.23Z"/><path class="cls-7" d="M56.62,54.14c-.14.38-.49.59-.76.86a9.27,9.27,0,0,0-2.34,4c-.1.32-.16.57-.5.67a18.36,18.36,0,0,1-2.46-4.73,4,4,0,0,1-.4-1.85c.06-.41-.3-.62-.27-1a4.34,4.34,0,0,0,0-1.08,9.32,9.32,0,0,1,.25-2.17,7.4,7.4,0,0,1,.48-2,15.85,15.85,0,0,1,2.22-4.23,13.75,13.75,0,0,1,5.4-4.31,6.69,6.69,0,0,1,3-.73,11.43,11.43,0,0,0,1.31,0,6.22,6.22,0,0,1,3.36.86,24.85,24.85,0,0,1,3.35,1.76,6.23,6.23,0,0,1,.62.51c.75.72,1.47,1.47,2.21,2.2a1.93,1.93,0,0,1,.79,1.46c.59.61-.17,1-.29,1.48s-.6.55-1,.6a2.07,2.07,0,0,1-1.87-.67,6.94,6.94,0,0,0-2.75-2,6.32,6.32,0,0,0-2.25-.64c-.42,0-.76-.41-1.22-.24a9.62,9.62,0,0,1-1.69.28,6.45,6.45,0,0,0-1.47.47A12.41,12.41,0,0,0,58.27,45c-.29.2-.48.65-.78.71s-.37.53-.64.71-.41.56-.63.8a3.88,3.88,0,0,0-.75,2,5.93,5.93,0,0,0,.19,3.12A5.68,5.68,0,0,0,56.62,54.14Z"/><path class="cls-7" d="M96.2,78.57a.19.19,0,0,0,.24-.19c0-.39,0-.79,0-1.18,0-.17,0-.32.24-.31.47,0,.84-.26,1.33-.26a7.65,7.65,0,0,0,4.7-1.55,3.4,3.4,0,0,1,.69-.34,17.27,17.27,0,0,1-.61,2.63q-.35,1.69-.84,3.36c-.27.89-.39,1.82-.64,2.72A6,6,0,0,0,101,85c0,1.14-.37,2.23-.28,3.38a25,25,0,0,1,0,3.35c0,.64.3,1.19.3,1.82a.77.77,0,0,0,.77.63,2.25,2.25,0,0,1,1.82,2.63c-.12.47-.64.61-1,.64s-.7.31-1.1.29-1,0-1.43,0a2.26,2.26,0,0,1-2-1.26,13.89,13.89,0,0,1-1-3,8.1,8.1,0,0,0-.66-2.59.15.15,0,0,1,0-.11c.18-.91-.27-1.75-.26-2.66C96.23,85,96.2,81.77,96.2,78.57Z"/><path class="cls-25" d="M118.27,45.75c-.38,0-.86.16-1.12-.1a1.41,1.41,0,0,1-.37-1c0-.09-.15-.17-.18-.27-.1-.34.05-.5.48-.53a1.76,1.76,0,0,1,.23,0c1.12.07,1.38.5,1,1.56A1,1,0,0,0,118.27,45.75Z"/><path class="cls-26" d="M243.9,43.12c.3,1.13-.14,2.13-.16,3.16a.22.22,0,0,1-.23.2.24.24,0,0,1-.25-.18,3.06,3.06,0,0,1-.26-1.09,2.34,2.34,0,0,0-.2-1.57c-.2-.29,0-.51.46-.52Z"/><path class="cls-27" d="M244,46.94v1.12c-.27.17-.55.06-.81.09a1.57,1.57,0,0,1-.09-1.11C243.28,46.84,243.59,47,244,46.94Z"/><path class="cls-28" d="M219.33,43.14h1.16c-.12.45,0,.84-.21,1.33a3.41,3.41,0,0,0,0,1.63c0,.34-.15.38-.42.38s-.35-.13-.31-.36C219.67,45.14,219,44.23,219.33,43.14Z"/><path class="cls-29" d="M220.45,47v1.12h-1.12a3.38,3.38,0,0,1-.05-1.12Z"/><path class="cls-28" d="M231.09,43.12h1c0,.06.12.12.12.18a18.62,18.62,0,0,0-.24,3c0,.22-.2.19-.35.19s-.39,0-.36-.18C231.43,45.24,230.79,44.25,231.09,43.12Z"/><path class="cls-29" d="M232.2,47v1.12h-1.12A3.4,3.4,0,0,1,231,47Z"/><path class="cls-30" d="M458.38,26.35a1.41,1.41,0,0,1,1,.39c.47.31.34,1,.69,1.38-.31.42-.18,1-.62,1.39a1.69,1.69,0,0,1-1.26.44,1.89,1.89,0,0,1-1.7-1.82A1.87,1.87,0,0,1,458.38,26.35Z"/><path class="cls-30" d="M440.7,28.54a2.65,2.65,0,0,1,.35-1.42c.1-.29.48-.45.78-.63a1.06,1.06,0,0,1,.9-.11,2.91,2.91,0,0,1,1.18.89c.31.38,0,.94.39,1.28-.35.57-.27,1.32-.95,1.77a1.5,1.5,0,0,1-2.42-.82A1.82,1.82,0,0,1,440.7,28.54Z"/><path class="cls-30" d="M250.22,28.33c0,1.09-.22,1.76-1.11,2.14a1.79,1.79,0,0,1-2.49-1.35,9.55,9.55,0,0,1,0-1.07,1.8,1.8,0,0,1,3.6,0Z"/><path class="cls-30" d="M421,28.46a1.83,1.83,0,0,1-3.6.64,7.53,7.53,0,0,1,0-1,1.8,1.8,0,0,1,3.6-.06Z"/><path class="cls-30" d="M429.9,28.61a1.66,1.66,0,0,1-.6,1.57,1.76,1.76,0,0,1-3-.92,2.54,2.54,0,0,1,.09-1.73,1.87,1.87,0,0,1,2-1.18,2,2,0,0,1,1.46,1.93Z"/><path class="cls-31" d="M396.5,28h-1c-.41,0-.62-.39-.32-.66s.28-.6.59-.79A1.43,1.43,0,0,1,398,27.67c0,.23,0,.37-.3.36S396.89,28,396.5,28Z"/><path class="cls-31" d="M341.66,28c-.4,0-.8,0-1.19,0s-.32-.17-.29-.38a1.5,1.5,0,0,1,2.09-1.1c.54.18.52.62.77.91s0,.56-.43.57Z"/><path class="cls-31" d="M317.09,28c-.36,0-.72,0-1.07,0s-.38-.31-.29-.47a2.49,2.49,0,0,1,.69-.95,1.4,1.4,0,0,1,2.17,1.06c0,.22,0,.37-.31.36S317.49,28,317.09,28Z"/><path class="cls-31" d="M293.1,28h-1c-.42,0-.63-.39-.33-.67s.29-.59.6-.78a1.43,1.43,0,0,1,2.18,1.09c0,.23,0,.37-.31.36S293.5,28,293.1,28Z"/><path class="cls-32" d="M196.94,29.65c.06.45,0,.91-.34,1-.59.1-1.18.55-1.82,0a.86.86,0,0,1,.07-1.45,1.72,1.72,0,0,1,1.63-.11c.07,0,.13.11.19.11C197.07,29.23,197.6,29.15,196.94,29.65Z"/><path class="cls-32" d="M230.55,29c.23,0,.54-.11.66.1s.82.05.67.29.07.8-.28,1.09a1.06,1.06,0,0,1-.51.22c-.36.06-.68.33-1.09.22s-.91-.72-.89-1a1.51,1.51,0,0,1,1-.92C230.23,29,230.39,29,230.55,29Z"/><path class="cls-32" d="M275.17,29c.23,0,.55-.11.66.1s.83.05.67.29.07.8-.28,1.09a1,1,0,0,1-.5.22c-.37.07-.69.33-1.1.22s-.91-.72-.89-1a1.51,1.51,0,0,1,1-.92C274.85,29,275,29,275.17,29Z"/><path class="cls-32" d="M466.88,29c.22.05.53-.12.66.12s.79,0,.63.3.21,1.29-.81,1.29c-.34,0-.69.3-1.08.21a2.09,2.09,0,0,1-.87-.9c0-.27.56-.95.88-1A5.76,5.76,0,0,1,466.88,29Z"/><path class="cls-32" d="M366.16,30.93c-.36.14-.61-.16-.85-.29a.86.86,0,0,1,0-1.42,2.56,2.56,0,0,1,1.21-.25c.42,0,.66.4,1.1.28.1,0,.06.15,0,.23a.41.41,0,0,0-.11.19c0,.3.13.67-.23.85A11,11,0,0,1,366.16,30.93Z"/><path class="cls-6" d="M173,76.65V73.54c1.09,0,2.15,0,3.22,0a2,2,0,0,1,1,.33c.44.31.88.79.72,1.33s-.37,1.14-1.17,1.24a9.34,9.34,0,0,1-1.1.19Z"/><path class="cls-33" d="M173,72.82V69.47c.95,0,1.9,0,2.84,0a2,2,0,0,1,1.69,1.32,1.53,1.53,0,0,1-.68,1.61,2.37,2.37,0,0,1-1.37.43C174.68,72.81,173.88,72.82,173,72.82Z"/><path class="cls-6" d="M173,42.16c1,0,1.86,0,2.76,0a3.7,3.7,0,0,1,1.36.45,1.19,1.19,0,0,1,.61.68,3,3,0,0,1,0,1.4A1.82,1.82,0,0,1,175.89,46c-.95.07-1.9,0-2.88,0Z"/><path class="cls-30" d="M315,73.93a2.23,2.23,0,0,1,3.79-1.68,2.35,2.35,0,0,1,.75,1.68,2.51,2.51,0,0,1-.79,1.66,2.16,2.16,0,0,1-1.41.6A2.25,2.25,0,0,1,315,73.93Z"/><path class="cls-30" d="M304.67,101a2.23,2.23,0,0,1,3.77-1.73,2.41,2.41,0,0,1,.77,1.67,2.47,2.47,0,0,1-.77,1.67,2.13,2.13,0,0,1-1.52.61A2.25,2.25,0,0,1,304.67,101Z"/><path class="cls-30" d="M275.89,60.28a2.22,2.22,0,0,1,3.74-1.73,2.47,2.47,0,0,1,.79,1.66,2.34,2.34,0,0,1-.75,1.69,1.91,1.91,0,0,1-1.5.62,2.47,2.47,0,0,1-1.64-.66A1.85,1.85,0,0,1,275.89,60.28Z"/><path class="cls-33" d="M208.5,101.38a2.38,2.38,0,0,1,.47-1.83,2.15,2.15,0,0,1,2.93-.44,3.35,3.35,0,0,1,1.11,2,2.74,2.74,0,0,1-.55,1.79,2,2,0,0,1-1.61,1,1.76,1.76,0,0,1-1.81-.76C208.74,102.64,208.27,102.1,208.5,101.38Z"/><path class="cls-33" d="M282.15,87.73a2.37,2.37,0,0,1,.47-1.83,2.14,2.14,0,0,1,2.93-.44,3.32,3.32,0,0,1,1.11,2.05,2.81,2.81,0,0,1-.55,1.79,2,2,0,0,1-1.61,1,1.76,1.76,0,0,1-1.81-.76C282.39,89,281.92,88.44,282.15,87.73Z"/><path class="cls-33" d="M374.77,87.7a12.23,12.23,0,0,1-.71,1.74,2.33,2.33,0,0,1-1.45.83,1.66,1.66,0,0,1-1.75-.61,3.07,3.07,0,0,1,0-4c.32-.46.86-.47,1.3-.62a1.74,1.74,0,0,1,1.38.38C374.34,85.92,374.51,86.83,374.77,87.7Z"/><path class="cls-33" d="M274.48,74.29c-.24-.71.24-1.24.47-1.83s.92-.67,1.44-.81a1.92,1.92,0,0,1,1.49.42,3,3,0,0,1,1.1,2,2.64,2.64,0,0,1-.56,1.79,2,2,0,0,1-1.62,1,1.81,1.81,0,0,1-1.8-.78C274.7,75.56,274.23,75,274.48,74.29Z"/><path class="cls-33" d="M212.91,71.61c.4.22,1,.2,1.35.63a2.71,2.71,0,0,1,0,4,2,2,0,0,1-3.21-.47,3.08,3.08,0,0,1,.1-3.33A2,2,0,0,1,212.91,71.61Z"/><path class="cls-30" d="M233.9,74.29a4.09,4.09,0,0,1-.51,1.77c-.19.59-.86.62-1.33.8a1.31,1.31,0,0,1-1.32-.21c-.45-.4-1.11-.69-1.14-1.39,0-.53-.66-1.07,0-1.6-.11-1.07.69-1.46,1.42-1.9a1.29,1.29,0,0,1,1.22,0A2.54,2.54,0,0,1,233.9,74.29Z"/><path class="cls-30" d="M295.08,87.7a4.32,4.32,0,0,1-.51,1.78c-.19.58-.86.62-1.33.8a1.34,1.34,0,0,1-1.33-.22c-.45-.4-1.1-.68-1.14-1.39,0-.53-.65-1.06,0-1.6-.11-1.07.7-1.46,1.43-1.9a1.27,1.27,0,0,1,1.21,0A2.53,2.53,0,0,1,295.08,87.7Z"/><path class="cls-30" d="M203.67,87.52a4.45,4.45,0,0,1-.52,2c-.21.59-.87.6-1.34.79a1.3,1.3,0,0,1-1.32-.22c-.43-.41-1.09-.69-1.12-1.41,0-.53-.63-1.06,0-1.59-.2-.85.47-1.23,1-1.63a1.73,1.73,0,0,1,1.79-.22C203.45,85.68,203.5,86.73,203.67,87.52Z"/><path class="cls-30" d="M323.86,87.58a3.88,3.88,0,0,1-.49,1.87c-.23.6-.9.69-1.43.84a1.8,1.8,0,0,1-1.5-.39A3.39,3.39,0,0,1,319.31,88a5,5,0,0,1,.47-1.83c.52-.51,1-1.13,1.83-1.1a2.21,2.21,0,0,1,2,1.5C323.69,86.9,324,87.2,323.86,87.58Z"/><path class="cls-30" d="M408.55,87.7a4.17,4.17,0,0,1-.51,1.78c-.19.59-.86.62-1.33.8a1.32,1.32,0,0,1-1.32-.22c-.46-.4-1.11-.68-1.14-1.39,0-.53-.66-1.06,0-1.6-.11-1.07.7-1.46,1.43-1.9a1.27,1.27,0,0,1,1.21,0A2.53,2.53,0,0,1,408.55,87.7Z"/><path class="cls-34" d="M338.48,101.33c.52-.15,1,.36,1.53.25.19,0,.17.21.17.36a2,2,0,0,1-2.72,1.87,1.19,1.19,0,0,1-1-1c0-.19,0-.23.07-.35A1.73,1.73,0,0,1,338.48,101.33Z"/><path class="cls-34" d="M301.78,74.26c.51-.15,1,.37,1.53.25.18,0,.17.21.16.37a2,2,0,0,1-2.72,1.86,1.17,1.17,0,0,1-1-1c-.05-.19,0-.23.07-.35A1.74,1.74,0,0,1,301.78,74.26Z"/><path class="cls-34" d="M265.24,104c-.49.19-.78-.3-1.24-.27s-.53-1-.35-1.29a2,2,0,0,1,2.61-1c.1,0,.17.14.31.14s.57-.13.64.11a.91.91,0,0,1-.1.89c-.21.25,0,.77-.44.87S265.8,104.09,265.24,104Z"/><path class="cls-34" d="M248,74.57a2,2,0,0,1-.35,1.6c-.31.57-1.58.79-2.26.6-.53-.15-1-.25-1-1,0-.14-.06-.24,0-.43a2,2,0,0,1,2.61-1C247.37,74.49,247.72,74.36,248,74.57Z"/><path class="cls-34" d="M239.16,74.26c.52-.15,1,.36,1.53.25.19,0,.17.21.17.36a2,2,0,0,1-2.72,1.87,1.17,1.17,0,0,1-1-1c0-.19,0-.23.07-.35A1.72,1.72,0,0,1,239.16,74.26Z"/><path class="cls-34" d="M355.47,87.91a2.22,2.22,0,0,1-.27,1.61c-.17.47-.81.51-1.23.74a1.53,1.53,0,0,1-1.12-.07c-.55-.19-1-.31-1-1,0-.1-.12-.16,0-.35a1.88,1.88,0,0,1,1.66-1.17C354.17,87.58,354.76,88,355.47,87.91Z"/><path class="cls-34" d="M348.27,87.88c.21.72-.18,1.2-.32,1.73-.74.37-1.41,1.12-2.36.47-.69.09-.85-.33-.91-.89,0-.11-.15-.15-.06-.35a2,2,0,0,1,1.66-1.18C347,87.57,347.55,88,348.27,87.88Z"/><path class="cls-34" d="M197.9,74.26c.51-.15,1,.36,1.53.25.19,0,.17.21.17.36a2,2,0,0,1-2.72,1.87,1.15,1.15,0,0,1-1-1c0-.19,0-.23.07-.35A1.72,1.72,0,0,1,197.9,74.26Z"/><path class="cls-35" d="M481.71,87.19c-1.27,0-2.43,0-3.59,0-.47,0-.63-.22-.42-.64a2.81,2.81,0,0,1,1.12-1.27,1.7,1.7,0,0,1,2.42.73C481.4,86.37,481.53,86.75,481.71,87.19Z"/><path class="cls-35" d="M223.15,60.1h-4.06A2.28,2.28,0,0,1,220.68,58a1.93,1.93,0,0,1,1.69.55C222.81,59,222.77,59.57,223.15,60.1Z"/><path class="cls-35" d="M230.24,60.09h-4A2.31,2.31,0,0,1,227.89,58a1.88,1.88,0,0,1,1.68.56A4.15,4.15,0,0,1,230.24,60.09Z"/><path class="cls-35" d="M246.13,60.13h-3.59c-.47,0-.63-.22-.43-.64a2.89,2.89,0,0,1,1.13-1.27,1.71,1.71,0,0,1,2.42.73C245.82,59.3,246,59.68,246.13,60.13Z"/><path class="cls-35" d="M252.3,100.82h-4A2.3,2.3,0,0,1,250,98.7a1.84,1.84,0,0,1,1.68.56A3.6,3.6,0,0,1,252.3,100.82Z"/><path class="cls-35" d="M429.89,87.19c-1.27,0-2.43,0-3.59,0-.47,0-.63-.22-.42-.64A2.81,2.81,0,0,1,427,85.28a1.7,1.7,0,0,1,2.42.73C429.58,86.37,429.71,86.75,429.89,87.19Z"/><path class="cls-35" d="M463.43,87.19h-3.95c-.41,0-.36-.29-.3-.48a2.54,2.54,0,0,1,1.61-1.66,1.8,1.8,0,0,1,2.2,1.5A.91.91,0,0,0,463.43,87.19Z"/><path class="cls-35" d="M359.17,100.85c-1.35,0-2.55,0-3.75,0-.35,0-.41-.16-.36-.43a2.76,2.76,0,0,1,1.66-1.74,1.9,1.9,0,0,1,2.15,1.47A2.06,2.06,0,0,0,359.17,100.85Z"/><path class="cls-35" d="M220.86,100.85h-3.75c-.47,0-.63-.23-.43-.65a2.89,2.89,0,0,1,1.13-1.27,1.78,1.78,0,0,1,2.44.72C220.47,100,220.33,100.47,220.86,100.85Z"/><path class="cls-35" d="M235.34,87.19c-1.3,0-2.57,0-3.83,0-.33,0-.27-.26-.24-.42A2.42,2.42,0,0,1,233.18,85a1.81,1.81,0,0,1,1.91,1.59C235.13,86.82,235.27,86.94,235.34,87.19Z"/><path class="cls-35" d="M185.45,73.78h-3.6c-.48,0-.63-.22-.43-.64a2.53,2.53,0,0,1,1.63-1.5,1.82,1.82,0,0,1,2.13,1.46A4.52,4.52,0,0,0,185.45,73.78Z"/><path class="cls-35" d="M361.33,73.75h-4.05a2.25,2.25,0,0,1,1.57-2.12,1.93,1.93,0,0,1,1.69.55C361,72.59,360.94,73.22,361.33,73.75Z"/><path class="cls-35" d="M382.53,87.19h-3.88c-.25,0-.35-.09-.33-.34A2.61,2.61,0,0,1,380,85a1.87,1.87,0,0,1,2,1.09C382.19,86.46,382,86.89,382.53,87.19Z"/><path class="cls-35" d="M222.85,73.78h-3.58c-.47,0-.63-.23-.43-.64A2.86,2.86,0,0,1,220,71.86a1.69,1.69,0,0,1,2.41.73C222.55,73,222.68,73.33,222.85,73.78Z"/><path class="cls-35" d="M268,73.78h-3.59c-.47,0-.63-.23-.43-.64a2.92,2.92,0,0,1,1.13-1.28,1.71,1.71,0,0,1,2.42.73C267.65,73,267.78,73.33,268,73.78Z"/><path class="cls-6" d="M266.77,87.73c.21.61-.23,1.17-.5,1.72-.39.79-1.58.92-2.52.65a2,2,0,0,1-1.44-1.53,3.06,3.06,0,0,1,.13-2.14,2.15,2.15,0,0,1,2.34-1.38,2.56,2.56,0,0,1,2,2.23Z"/><path class="cls-6" d="M274.45,87.74c.21.61-.24,1.17-.51,1.72-.39.79-1.59.92-2.52.64A2.09,2.09,0,0,1,270,88.56a3.06,3.06,0,0,1,.13-2.14,2.17,2.17,0,0,1,2.36-1.37,2.55,2.55,0,0,1,2,2.24Z"/><path class="cls-6" d="M193.12,101.26c-.21-.62.29-1.14.5-1.73s.77-.59,1.23-.75a2.07,2.07,0,0,1,1.31.11,2.13,2.13,0,0,1,1.43,1.56,3,3,0,0,1-.14,2.13A2.16,2.16,0,0,1,195.1,104a2.55,2.55,0,0,1-2-2.24Z"/><path class="cls-6" d="M400.41,87.83c.19.58-.27,1.12-.55,1.67-.4.76-1.54.88-2.44.63-2-.55-2-3.39-.78-4.6.33-.33.77-.25,1.13-.46a1.4,1.4,0,0,1,1,.1A2.53,2.53,0,0,1,400.41,87.83Z"/><path class="cls-6" d="M446.7,87.62c-.21-.61.22-1.17.5-1.72.39-.79,1.57-.92,2.51-.66a2.07,2.07,0,0,1,1.45,1.54,3,3,0,0,1-.13,2.13,2.14,2.14,0,0,1-2.34,1.38,2.52,2.52,0,0,1-2-2.22C446.69,88,446.7,87.83,446.7,87.62Z"/><path class="cls-6" d="M211.83,87.57c-.21-.62.31-1.13.52-1.72s.8-.56,1.24-.74a1.9,1.9,0,0,1,1.21.09c2,.57,2,3.39.8,4.61-.33.33-.77.26-1.13.46a1.18,1.18,0,0,1-1-.1A2.43,2.43,0,0,1,211.83,87.57Z"/><path class="cls-6" d="M336.1,74.33c.21.61-.24,1.16-.51,1.71-.38.8-1.58.92-2.51.65a2.12,2.12,0,0,1-1.45-1.54,3.06,3.06,0,0,1,.14-2.14,2.16,2.16,0,0,1,2.35-1.37,2.55,2.55,0,0,1,2,2.23Z"/><path class="cls-6" d="M205.12,47.08c.21.62-.27,1.15-.55,1.7a2.06,2.06,0,0,1-2.34.69,2.31,2.31,0,0,1-1.56-1.58,3.1,3.1,0,0,1,.13-2.24,2.32,2.32,0,0,1,2.4-1.33,2.66,2.66,0,0,1,1.91,2.3C205.12,46.74,205.12,46.86,205.12,47.08Z"/><path class="cls-7" d="M204.4,103.48a.21.21,0,0,1,.24.24Q204.39,103.74,204.4,103.48Z"/><path class="cls-36" d="M112,42.15c0,.26.07.53-.15.78-.45.5-.63.54-1.29.19-.32-.17-.65-.38-.68-.71s.17-.55.24-.85a1.09,1.09,0,0,1,1.16-.6A1.14,1.14,0,0,1,112,42.15Z"/></g></g></svg>