<svg xmlns="http://www.w3.org/2000/svg" viewBox="0 0 577.44 126.24"><defs><style>.cls-1{fill:#fefefe;}.cls-2{fill:#f6e7e6;}.cls-3{fill:#faf1f1;}.cls-4{fill:#faf1f0;}.cls-5{fill:#faf2f2;}.cls-6{fill:#f4e0de;}.cls-7{fill:#122c70;}.cls-8{fill:#132c70;}.cls-9{fill:#132d70;}.cls-10{fill:#142d70;}.cls-11{fill:#162e71;}.cls-12{fill:#152e71;}.cls-13{fill:#183072;}.cls-14{fill:#162f71;}.cls-15{fill:#172f72;}.cls-16{fill:#142d71;}.cls-17{fill:#1b3273;}.cls-18{fill:#1f3575;}.cls-19{fill:#1c3374;}.cls-20{fill:#203575;}.cls-21{fill:#223776;}.cls-22{fill:#253978;}.cls-23{fill:#7f799e;}.cls-24{fill:#f69890;}.cls-25{fill:#040404;}.cls-26{fill:#bebed0;}.cls-27{fill:#374781;}.cls-28{fill:#415087;}.cls-29{fill:#3f4d85;}.cls-30{fill:#9c9dba;}.cls-31{fill:#8e8fb1;}.cls-32{fill:#f0c9cb;}.cls-33{fill:#ebc5c9;}.cls-34{fill:#f3dfde;}.cls-35{fill:#f2dedd;}.cls-36{fill:#eddada;}.cls-37{fill:#f3e0de;}.cls-38{fill:#f2dfdd;}.cls-39{fill:#f3dfdd;}.cls-40{fill:#040303;}.cls-41{fill:#a2a2be;}.cls-42{fill:#2c3e7b;}.cls-43{fill:#eeedf2;}.cls-44{fill:#213676;}.cls-45{fill:#adacc4;}.cls-46{fill:#233777;}.cls-47{fill:#555e8f;}.cls-48{fill:#a5a5be;}.cls-49{fill:#dddce6;}</style></defs><g id="Layer_2" data-name="Layer 2"><g id="Layer_1-2" data-name="Layer 1"><path class="cls-1" d="M577.44,102.76v23.48H0V0H23.51a.29.29,0,0,1-.12.39,10.29,10.29,0,0,1-2.66.67A25.35,25.35,0,0,0,.92,22.8,19.48,19.48,0,0,0,.86,25q0,38,0,75.93a23.58,23.58,0,0,0,6.48,16.18,24.81,24.81,0,0,0,16,8.2,19.35,19.35,0,0,0,2.15.11q263.4,0,526.81,0c9.17,0,16.16-4.48,21.07-12.15a23.33,23.33,0,0,0,3.32-8.93,3.66,3.66,0,0,1,.39-1.37A.3.3,0,0,1,577.44,102.76Z"/><path class="cls-1" d="M554.17,0h23.27V23a.24.24,0,0,1-.33,0c-.56-1.42-.6-3-1.09-4.4q-4.9-14.7-20.09-17.8A5.65,5.65,0,0,1,554.2.33.24.24,0,0,1,554.17,0Z"/><path class="cls-2" d="M25.43,0H552.49a.31.31,0,0,1-.14.4,4.68,4.68,0,0,1-2.13.23q-14,0-27.94,0h-494A6.7,6.7,0,0,1,25.57.4.3.3,0,0,1,25.43,0Z"/><path class="cls-2" d="M577.44,24.19v77.38a.3.3,0,0,1-.4-.15,3.63,3.63,0,0,1-.23-1.76V26.1a3.64,3.64,0,0,1,.23-1.76A.3.3,0,0,1,577.44,24.19Z"/><path class="cls-3" d="M25.43,0V.24a1.48,1.48,0,0,1-1.92,0V0Z"/><path class="cls-4" d="M552.49.24V0h1.68V.24A1.26,1.26,0,0,1,552.49.24Z"/><path class="cls-5" d="M577.2,101.57h.24v1.19h-.24A.82.82,0,0,1,577.2,101.57Z"/><path class="cls-5" d="M577.44,24.19h-.24a.82.82,0,0,1,0-1.19h.24Z"/><path class="cls-6" d="M577.2,23v79.76c.17.68-.24,1.28-.25,1.94a14.63,14.63,0,0,1-.4,1.74,20.52,20.52,0,0,1-1.59,4.62,21.65,21.65,0,0,1-2,3.48,35.33,35.33,0,0,1-2.25,2.8,25.83,25.83,0,0,1-7.56,5.78,22.32,22.32,0,0,1-4,1.59c-.86.23-1.75.43-2.63.62a12.23,12.23,0,0,0-2,.28,6.61,6.61,0,0,1-2.21.14c-.72,0-1.44,0-2.16,0H23.42c-.6-.57-1.48.07-2.08-.48a9.53,9.53,0,0,1-3.17-.74,36.84,36.84,0,0,1-5.06-2.27,27,27,0,0,1-6.59-5.48,23.33,23.33,0,0,1-3.87-6.06,30.69,30.69,0,0,1-1.47-4.3,20.41,20.41,0,0,1-.71-5.82q0-38.44,0-76.89a2.62,2.62,0,0,1,.2-1.59c.24-.39-.18-1,.27-1.44a10.31,10.31,0,0,1,1-3.79,23.62,23.62,0,0,1,1.72-3.72A30.54,30.54,0,0,1,5.85,9.91a18,18,0,0,1,3.49-3.6c1-.71,1.93-1.5,2.95-2.18a22.72,22.72,0,0,1,5.59-2.7A27.06,27.06,0,0,1,22,.44a10.39,10.39,0,0,1,1.47-.2H554.17c.68-.17,1.28.24,1.94.25a9.56,9.56,0,0,1,1.74.41,22.74,22.74,0,0,1,5.92,2.22,23.54,23.54,0,0,1,4.05,2.69,26.2,26.2,0,0,1,2,1.8,24.83,24.83,0,0,1,3.85,5,25.15,25.15,0,0,1,2.41,5.12,13.35,13.35,0,0,1,.68,2.61,3.4,3.4,0,0,0,.24,1.31C577.3,22.11,577.11,22.55,577.2,23Z"/><path class="cls-1" d="M84,115.7q-26.39,0-52.77,0a17.36,17.36,0,0,1-3.88-.53,13.83,13.83,0,0,1-3.83-1.43,12.16,12.16,0,0,1-3.2-2.13c-.29-.3-.7-.45-1-.75a19.76,19.76,0,0,1-4.39-6.21,19.36,19.36,0,0,1-1.23-3.94,28.57,28.57,0,0,1-.44-6.39q0-32.76,0-65.51c0-.78.25-1.53.24-2.29a9.8,9.8,0,0,1,.4-2.36c.17-.72.44-1.41.67-2.12a14.89,14.89,0,0,1,2.3-4.19A19.52,19.52,0,0,1,22,12.94a18.27,18.27,0,0,1,5.34-2.19c.89-.23,1.79-.3,2.67-.49a19.41,19.41,0,0,1,4.23-.19H135.49a5.94,5.94,0,0,1,2.12.1c.68.27,1.43-.15,2,.38.57-.17,1,.21,1.58.26a6.81,6.81,0,0,1,1.36.46,16.92,16.92,0,0,1,4.82,2.56,23.61,23.61,0,0,1,2.6,2.39,17.1,17.1,0,0,1,2.39,3.2,15.83,15.83,0,0,1,1.75,4.06,19.16,19.16,0,0,1,.64,3.1,78.9,78.9,0,0,1,.21,9.6c0,3.2,0,6.39,0,9.58V84.31c0,3.88,0,7.75,0,11.62,0,1.38-.22,2.73-.31,4.09a13.6,13.6,0,0,1-1.06,3.74,16.85,16.85,0,0,1-2.95,5.13,12.92,12.92,0,0,1-1.56,1.74,20.4,20.4,0,0,1-5.05,3.41,22.58,22.58,0,0,1-3.59,1.2,18.79,18.79,0,0,1-4.36.47Z"/><path class="cls-7" d="M239.81,48.63c-1,0-2.08,0-3.12,0a3.64,3.64,0,0,1-1.3-.35c-.47-.17-.52-.71-.68-1.14a1.4,1.4,0,0,1,.07-1.21c.77-1.47,1.45-3,2.26-4.45.49-.87,1-1.75,1.4-2.66.3-.69.95-.67,1.43-1,.51.32,1.18.27,1.5,1,.6,1.43,1.46,2.75,2.11,4.16.31.68.77,1.27,1.1,1.94.21.43.33.9.54,1.33s-.25,1.5-.81,1.88a2.46,2.46,0,0,1-1.5.43C241.81,48.61,240.81,48.63,239.81,48.63Z"/><path class="cls-7" d="M228,48.63c-1,0-2.08,0-3.12,0A1.85,1.85,0,0,1,223,47.44,1.75,1.75,0,0,1,223,46a57.42,57.42,0,0,1,2.94-5.6,5.23,5.23,0,0,0,.73-1.48c.2-.8.94-.69,1.38-1.06.57.23,1.22.28,1.55,1,.67,1.44,1.42,2.84,2.15,4.25a10,10,0,0,0,.88,1.56,5.62,5.62,0,0,1,.76,1.71,1.25,1.25,0,0,1-.1.89,2.33,2.33,0,0,1-2.18,1.38C230.07,48.66,229,48.63,228,48.63Z"/><path class="cls-7" d="M216.38,48.63c-1,0-2-.05-3,0a2.55,2.55,0,0,1-1.59-.52,2.43,2.43,0,0,1-.62-1,1.2,1.2,0,0,1,0-.89,18.9,18.9,0,0,1,1.61-3.4c.7-1.19,1.27-2.43,1.91-3.64.26-.51.45-1.14,1.29-1.14.5,0,1.16,0,1.48.3a2,2,0,0,1,.36.57c1,2,2.12,4.08,3.21,6.09a10,10,0,0,1,.49,1.24,1.81,1.81,0,0,1-.79,2,2.45,2.45,0,0,1-1.39.42C218.38,48.6,217.38,48.63,216.38,48.63Z"/><path class="cls-7" d="M217.83,30.15h-2.16V25.79a1,1,0,0,0-.13-.67,1.14,1.14,0,0,0-2,.23,3.28,3.28,0,0,0-.29,1.32c.07,1.15,0,2.3,0,3.48H211.4V23c.44,0,.87,0,1.3,0s.52,0,.64.67c1.65-1.15,2.68-1.41,4.22,0a.28.28,0,0,0,.3-.14c.75-1,1.86-.8,2.9-.81.3.42,1,.4,1.17,1a5.16,5.16,0,0,1,.46,1.73c0,1.51,0,3,0,4.54,0,0,0,.06-.07.12h-2.08V26a1.22,1.22,0,0,0-1.17-1.34A1.18,1.18,0,0,0,217.83,26v4.2Z"/><path class="cls-7" d="M262.45,30.16h-2.16c0-1.45,0-2.87,0-4.3,0-.89-.44-1.26-1.31-1.19a.87.87,0,0,0-.82.71,5.33,5.33,0,0,0-.29,1.34c.07,1.11,0,2.23,0,3.4H256V23c.47,0,1,0,1.48,0,.35,0,.35,0,.43.67a5.25,5.25,0,0,1,2.07-.93,2.34,2.34,0,0,1,2.09,1c.14,0,.26,0,.35-.1.73-1,1.84-1,2.87-.82a1.52,1.52,0,0,1,1.22.9,4.82,4.82,0,0,1,.5,1.71c0,1.55,0,3.11,0,4.72h-2.16V26.56c0-.24,0-.48,0-.71a1.2,1.2,0,0,0-2.39,0C262.44,27.27,262.45,28.66,262.45,30.16Z"/><path class="cls-7" d="M455.33,29c-1.2.89-1.54.92-3.19.48a3.67,3.67,0,0,1-1.85-1.93,4.11,4.11,0,0,1,0-2.55c0-.22.18-.33.26-.49A3.28,3.28,0,0,1,452,23a3.61,3.61,0,0,1,2.27-.21,1.41,1.41,0,0,1,.85.55c.16.22.42.25.47-.13,0-.23.17-.22.33-.22h1.83c0,2.2,0,4.34,0,6.48a3.13,3.13,0,0,1-2.85,2.85,12.86,12.86,0,0,1-2.15,0,5,5,0,0,1-1.91-.56c-.22-.13-.43-.32-.14-.66s.22-.76.55-.89a1.37,1.37,0,0,1,1,.19,3.14,3.14,0,0,0,2.55,0c.44-.2.85-.38.82-1C455.69,29.2,455.89,28.91,455.33,29Z"/><path class="cls-7" d="M441.62,30.18c-.52,0-1,0-1.47,0s-.59,0-.75-.69c-.34.17-.52.53-.88.71A3.13,3.13,0,0,1,434.7,29a5.69,5.69,0,0,1-.71-2.57,4.73,4.73,0,0,1,1.1-2.77,3,3,0,0,1,3.66-.57c.22.14.56,0,.75.33v-3h2.12Z"/><path class="cls-8" d="M175.64,22.12c-.35.35-.62.64-.92.91s-.27.42-.53.44-.36-.27-.55-.4a3,3,0,0,0-3-.26A2.78,2.78,0,0,0,169.15,25a3.43,3.43,0,0,0,.75,2.67,2.88,2.88,0,0,0,2.51.73,3.68,3.68,0,0,0,1.5-.73.5.5,0,0,1,.81,0c1,1.06,1.39.86-.06,1.86a4.49,4.49,0,0,1-2.54.84,5.26,5.26,0,0,1-2.75-.61,4.45,4.45,0,0,1-2.15-2.56,5.45,5.45,0,0,1,0-3.39,5,5,0,0,1,4.43-3.3,6.09,6.09,0,0,1,3,.71C175,21.52,175.19,21.89,175.64,22.12Z"/><path class="cls-7" d="M405,23.75a3.81,3.81,0,0,1,2.55-1,2.45,2.45,0,0,1,2,2c0,1.79,0,3.57,0,5.4h-1.92c0-1.24,0-2.5,0-3.76a2.05,2.05,0,0,0-.27-1.09,1.12,1.12,0,0,0-1.27-.63,1.08,1.08,0,0,0-.89.92,4.17,4.17,0,0,0-.22,1.22c0,1.11,0,2.21,0,3.35h-1.83c-.11-1.11-.12-8.39,0-9.77H405Z"/><path class="cls-7" d="M179,30.15h-1.89V20.41H179v3.38c.28-.24.45-.51.64-.53s.42-.19.61-.28A2.25,2.25,0,0,1,183.3,24a1.49,1.49,0,0,1,.23.63c0,1.82,0,3.64,0,5.49H181.6c0-1.28,0-2.54,0-3.81A1.8,1.8,0,0,0,181.1,25a1.1,1.1,0,0,0-1.87.39,4,4,0,0,0-.29,1.33C179,27.84,179,29,179,30.15Z"/><path class="cls-7" d="M381.68,30.15h-1.92c0-1.29,0-2.56,0-3.83a2,2,0,0,0-.37-1.16,1.1,1.1,0,0,0-1.23-.48c-.47.08-.64.43-.83.85a3.1,3.1,0,0,0-.22,1.34v3.27h-1.84s0,0,0,0a.21.21,0,0,1,0-.1c0-3.19,0-6.38,0-9.6h1.88a9,9,0,0,1,0,1.57c0,.55,0,1.11,0,1.75a3.92,3.92,0,0,1,2.49-1,2.32,2.32,0,0,1,2.07,2.07v5.34Z"/><path class="cls-7" d="M322.71,20.38h1.89V25.5c.8-.8,1.51-1.49,2.19-2.2a.89.89,0,0,1,.72-.31c.59,0,1.19,0,1.81,0-.12.16.06-.05.06.11s-.05.06-.08.09c-.85.84-1.69,1.69-2.54,2.54,1,1.42,1.76,3,2.85,4.36-.31.17-.66.06-1,.08s-.72,0-1.08,0a.71.71,0,0,1-.63-.48c-.4-.84-1-1.55-1.51-2.47a4.31,4.31,0,0,1-.46.55.9.9,0,0,0-.36.82c.05.51,0,1,0,1.55h-1.88Z"/><path class="cls-8" d="M414.91,30.42A3.77,3.77,0,0,1,411,26.59a3.87,3.87,0,0,1,3.91-3.86,4,4,0,0,1,4,3.85C418.92,28.48,416.92,30.63,414.91,30.42Z"/><path class="cls-8" d="M244.91,22.76a3.89,3.89,0,0,1,3.89,3.92,4.15,4.15,0,0,1-4.07,3.77,3.87,3.87,0,0,1-3.83-3.83A3.77,3.77,0,0,1,244.91,22.76Z"/><path class="cls-8" d="M424,30.42a3.78,3.78,0,0,1-3.92-3.83A3.88,3.88,0,0,1,424,22.73a4,4,0,0,1,4,3.86C428,28.45,426.07,30.63,424,30.42Z"/><path class="cls-8" d="M317.12,27.31h-5A1.25,1.25,0,0,0,313,28.5c.82.42,1.22.35,2.63-.46.25.23.46.59.76.68.59.18.34.36.1.62a3.61,3.61,0,0,1-2.54,1.11,3.74,3.74,0,0,1-3.41-1.84,3.08,3.08,0,0,1-.5-2.51c.16-.55.12-1.22.57-1.66a5.94,5.94,0,0,1,1.9-1.48,3.37,3.37,0,0,1,4,1.29A5,5,0,0,1,317.12,27.31Z"/><path class="cls-8" d="M341.34,27.34h-5c0,.83.64,1,1.19,1.27s1,.2,2.31-.59a8.2,8.2,0,0,0,.65.67c.44.37.44.34.16.67a3.78,3.78,0,0,1-5.26,0,4,4,0,0,1,1.5-6.6,3.45,3.45,0,0,1,3.85,1.58A4.48,4.48,0,0,1,341.34,27.34Z"/><path class="cls-8" d="M293.06,27.3h-4.81c-.44.4.32.53.12.86.46.14.82.51,1.31.59a2,2,0,0,0,1.39-.42c.29-.18.66-.41.9.08.16.31.67.25.68.53s-.4.69-.71.87a3,3,0,0,1-1.78.63A3.8,3.8,0,0,1,288,30c-.85-.63-1.73-1.18-1.76-2.39a2.66,2.66,0,0,1,.07-2.53,3.52,3.52,0,0,1,2.08-2,3.23,3.23,0,0,1,4,1.05,3.85,3.85,0,0,1,.8,2.53C293.13,26.8,293.22,27.05,293.06,27.3Z"/><path class="cls-8" d="M395.79,27.31H391.2c-.44,0-.49.09-.3.46a1.85,1.85,0,0,0,2.28.85,3,3,0,0,0,1.08-.57c.36.2.52.66,1,.73.15,0,.15.26,0,.39a3.66,3.66,0,0,1-2.59,1.28,3.75,3.75,0,0,1-3.45-1.76,3.86,3.86,0,0,1-.58-2.72c.44-.36,0-1,.45-1.37s.64-.7,1-1a3.32,3.32,0,0,1,5.16.87A4.6,4.6,0,0,1,395.79,27.31Z"/><path class="cls-9" d="M195.76,30.18a10.44,10.44,0,0,1-1.38,0c-.28,0-.73.29-.82-.35,0-.23-.23,0-.3.12a1.37,1.37,0,0,1-1,.47,4.85,4.85,0,0,1-1.95-.2,2.25,2.25,0,0,1-.7-3.56,2.43,2.43,0,0,1,1.82-.78c.66.07,1.34-.17,2,.17.08.05.11.08.17,0a1,1,0,0,0-.28-1.05,2.82,2.82,0,0,0-2-.24c-.13,0-.23.18-.41.19-.52,0-.63-.05-.91-.62a3.27,3.27,0,0,1-.24-.5c0-.07-.11-.12-.22-.23a6.16,6.16,0,0,1,2.36-.58h1.32a2.67,2.67,0,0,1,2.36,2,16.78,16.78,0,0,1,.21,3.74C195.78,29.18,195.76,29.62,195.76,30.18Z"/><path class="cls-9" d="M224.12,23.55a7.33,7.33,0,0,1,3.95-.54c.86,0,1.77,1.12,2,2,.46,1.71.09,3.43.24,5.18-.6,0-1.12,0-1.63,0-.25,0-.54.13-.58-.36,0-.22-.22,0-.3.11a1.4,1.4,0,0,1-1,.48c-.65-.07-1.28.15-2-.2a2.28,2.28,0,0,1-1-3.1,2.25,2.25,0,0,1,1.91-1.2,3.8,3.8,0,0,1,2.21.13c.09,0,.11.1.17,0a1,1,0,0,0-.27-1.05,2.31,2.31,0,0,0-2.09-.17c-.32.15-.62.05-.92.1s-.3-.05-.28-.26C224.58,24.23,224.27,24,224.12,23.55Z"/><path class="cls-9" d="M272.75,26.1c0-.37.19-.74-.17-1a1.4,1.4,0,0,0-1-.42c-.44.06-.93-.19-1.35.21-.13.12-.46,0-.7,0s-.36-.08-.35-.34-.26-.68-.45-1a3.51,3.51,0,0,1,1.67-.54,7.59,7.59,0,0,1,2.38,0c.81.07,1.71,1.13,1.94,1.94.47,1.71.08,3.44.26,5.23-.66,0-1.24,0-1.83,0-.24,0-.38,0-.37-.32,0-.08-.07-.24-.21-.07a2.35,2.35,0,0,1-2.14.62,2.58,2.58,0,0,1-2.2-1.56,2.36,2.36,0,0,1,1.16-2.62,2.41,2.41,0,0,1,1.53-.37C271.5,25.92,272.12,25.72,272.75,26.1Z"/><path class="cls-9" d="M359.63,23.58a3.51,3.51,0,0,1,1.66-.54,7.65,7.65,0,0,1,2.39,0A2.81,2.81,0,0,1,365.62,25c.47,1.71.08,3.43.26,5.23-.65,0-1.24,0-1.83,0-.23,0-.38,0-.37-.31,0-.08-.06-.26-.21-.08-.64.79-1.53.63-2.37.62a2.25,2.25,0,0,1-2-2,1.89,1.89,0,0,1,.51-1.7,2.85,2.85,0,0,1,1.94-.82c.47,0,.95,0,1.43,0a.59.59,0,0,1,.61.26c0-.39.24-.76-.11-1a1.45,1.45,0,0,0-1-.42c-.45.06-.93-.19-1.36.21-.12.12-.46,0-.7,0s-.35-.07-.34-.33A1.74,1.74,0,0,0,359.63,23.58Z"/><path class="cls-9" d="M459.71,23.55a7.41,7.41,0,0,1,3.93-.54,2.76,2.76,0,0,1,2,2c.47,1.71.09,3.43.25,5.2h-1.86c-.16,0-.32,0-.32-.22s-.06-.34-.24-.13c-.74.83-1.72.6-2.63.57-.68,0-1.6-1.13-1.7-1.81-.24-1.77,1-2.64,2.49-2.71.52,0,1,0,1.56,0,.19,0,.27.13.41.24a1,1,0,0,0,.06-.87,1.13,1.13,0,0,0-.84-.53,2.13,2.13,0,0,0-1.49.09c-.32.18-.62.07-.92.11s-.32,0-.3-.24C460.16,24.23,459.82,23.94,459.71,23.55Z"/><path class="cls-7" d="M349.14,23.69a3.64,3.64,0,0,1,2.46-1,2.44,2.44,0,0,1,2,2c0,1.59,0,3.19,0,4.78v.62h-1.92c0-1.24,0-2.5,0-3.76a2.18,2.18,0,0,0-.28-1.09,1.12,1.12,0,0,0-1.27-.63,1.08,1.08,0,0,0-.89.92,4.53,4.53,0,0,0-.22,1.22c0,1.11,0,2.21,0,3.35h-1.87V23c.42,0,.81,0,1.21,0C349,23,349,23,349.14,23.69Z"/><path class="cls-9" d="M446,30.4c-1,.28-1.71-.42-2.54-.73-.42-.16-.46-.58-.18-1,.09-.12.29-.22.3-.35.07-.56.45-.37.68-.24a6.22,6.22,0,0,0,1.23.5c.07,0,.12.12.18.13.49.11,1.18-.08,1.28-.36s-.31-.66-.95-.82a3.6,3.6,0,0,1-2.09-1c-.24-.29-.6-.47-.57-1a2.67,2.67,0,0,1,.46-1.73,2.53,2.53,0,0,1,1.81-.84,2.91,2.91,0,0,1,2,.31c.32.23,1,.25.95.61s-.38.86-.61,1.28c-.08.15-.16.15-.34,0-.35-.2-.79-.24-1.12-.45s-.45-.09-.67-.13a.54.54,0,0,0-.55.38c-.14.27.15.45.33.55a16.43,16.43,0,0,1,1.74.73,2.71,2.71,0,0,0,.48.26,1.66,1.66,0,0,1,1,1.73,1.78,1.78,0,0,1-1,1.64A2.65,2.65,0,0,1,446,30.4Z"/><path class="cls-9" d="M431.86,30.18h-2.2c0-1.59,0-3.13,0-4.68,0-.36.26-.95-.55-.84-.1,0-.16-.11-.16-.25,0-.4,0-.8,0-1.2,0-.06.06-.19.09-.19.91.08.49-.62.64-1a2.37,2.37,0,0,1,.63-1.13,2.14,2.14,0,0,1,1.46-.54c1.89.07,1.74-.1,1.73,1.74a1.2,1.2,0,0,1,0,.17c-.38.2-.63-.35-1-.22s-.54.25-.59.59,0,.4.28.39.87,0,1.35,0v1.67h-1.59Z"/><path class="cls-9" d="M240.35,23v1.65h-1.63v5.51h-2.18v-5c0-.18.1-.51-.17-.48-.82.08-.53-.5-.53-.86s-.28-.93.53-.85c.26,0,.16-.31.17-.48a2.21,2.21,0,0,1,1.09-1.93.83.83,0,0,1,.52-.21c.56,0,1.12,0,1.67,0a.54.54,0,0,1,.56.6c0,.43,0,.86,0,1.25-.46.18-.65-.32-1.07-.21s-.55.25-.6.58-.07.41.25.41S239.83,23,240.35,23Z"/><path class="cls-9" d="M293.12,66.65v8.54h-.92V68.4a48.32,48.32,0,0,0-2.89,4.3c-.11.2-.33.19-.47,0-.9-1.38-1.79-2.77-2.79-4.31a26.71,26.71,0,0,0-.08,3.42c0,1.11,0,2.22,0,3.36a1.55,1.55,0,0,1-.93,0V66.68a.6.6,0,0,1,.21-.08c.89,0,.91,0,1.43.83.74,1.17,1.45,2.35,2.17,3.53.16.26.31.25.48,0,.81-1.26,1.6-2.53,2.43-3.78A1.07,1.07,0,0,1,293.12,66.65Z"/><path class="cls-9" d="M467.81,21.11H470V23h1.67v1.68H470c0,1,0,2,0,2.93s.21,1.09,1.16.79c.3-.09.37.07.42.17a1.2,1.2,0,0,1-.66,1.76,3,3,0,0,1-1.93,0,1.34,1.34,0,0,1-.8-.61,3.1,3.1,0,0,1-.36-1.29c0-1.11,0-2.23,0-3.34,0-.16,0-.39-.19-.36-.7.11-.52-.38-.53-.74s0-.47,0-.71.08-.25.2-.23c.59.12.53-.26.53-.63S467.81,21.58,467.81,21.11Z"/><path class="cls-9" d="M387.66,23v1.69H386c0,1,0,2,0,3,0,.8.35,1.15,1.09.82.56-.25.54.11.57.33.2,1.18-.22,1.65-1.43,1.65a2.69,2.69,0,0,1-1.16-.08c-.35-.17-.76-.33-.89-.69a3.3,3.3,0,0,1-.34-1.17c0-1.12,0-2.23,0-3.35,0-.35-.08-.51-.46-.46-.19,0-.27-.08-.27-.27V23.2c0-.13.08-.23.22-.2.46.09.54-.13.51-.53s0-.87,0-1.35h2.09c.2.55,0,1.19.11,1.83Z"/><path class="cls-9" d="M304.91,21.11h2.14V23h1.66v1.69h-1.64v3c0,.73.35,1.08,1,.81s.61,0,.65.34c.17,1.17-.24,1.61-1.47,1.6a3.06,3.06,0,0,1-1.16-.09,1.9,1.9,0,0,1-1.18-1.88c-.07-1.11,0-2.23,0-3.35,0-.17.08-.44-.24-.41s-.52-.05-.48-.44a7.69,7.69,0,0,0,0-1c0-.18.05-.31.26-.28.36.05.5-.08.47-.45S304.91,21.61,304.91,21.11Z"/><path class="cls-9" d="M277.08,21.1h2.13v1.82c.56.19,1.12,0,1.68.12v1.61h-1.65c0,1,0,2,0,2.92s.34,1.2,1,.89c.5-.22.5,0,.63.27,0,.06,0,.15,0,.23.06,1.08-.28,1.46-1.4,1.45a3,3,0,0,1-1.26-.11,1.89,1.89,0,0,1-1.16-1.9c-.06-1.11,0-2.23,0-3.34,0-.2,0-.42-.29-.38s-.47-.13-.44-.48a7.53,7.53,0,0,0,0-.95c0-.14.07-.26.18-.25.68.12.55-.35.54-.72Z"/><path class="cls-9" d="M370.88,30.42c-1.5.23-3-1.08-3.62-2.73a4,4,0,0,1,2.47-4.82,3.64,3.64,0,0,1,3.21.4c.27.19.84.26.76.56a1.87,1.87,0,0,1-.61.94c-.45.38-.41.38-1,0a1.62,1.62,0,0,0-1.8-.15,1.71,1.71,0,0,0-1,1.71,2.63,2.63,0,0,0,.13,1.26,1.71,1.71,0,0,0,2.8.68c.38-.31.58-.32.84,0a.76.76,0,0,0,.09.09c.9.87.9.87-.25,1.52A2.63,2.63,0,0,1,370.88,30.42Z"/><path class="cls-8" d="M168.92,75.14V66.59a44.27,44.27,0,0,1,4.46,0,2.1,2.1,0,0,1,1.94,1.51,2.19,2.19,0,0,1-.7,2.42,1.86,1.86,0,0,1-.41.17c.13.46.63.48.93.74a2,2,0,0,1-.81,3.49,3.32,3.32,0,0,1-1.33.26c-1.32,0-2.63,0-3.95,0C169,75.21,169,75.18,168.92,75.14Z"/><path class="cls-9" d="M302.15,32.09c-3-1.77-3.67-3.3-3.67-5.73s.74-4,3.65-5.73c.46.25.63.72.91,1.22-.36.37-.74.77-1.13,1.15a4.85,4.85,0,0,0,0,6.69c.26.25.51.5.76.76.41.42.39.41.1,1A3.61,3.61,0,0,1,302.15,32.09Z"/><path class="cls-9" d="M473.62,20.61a7.18,7.18,0,0,1,2.16,1.61,5.09,5.09,0,0,1,1.4,3c0,.48.39,1,.2,1.44s-.14,1.11-.36,1.64c-.16.37-.25.78-.44,1.14a10.82,10.82,0,0,1-1.34,1.6c-.24.29-.59.35-.86.57-.66.53-.9.5-1.28-.17a1.51,1.51,0,0,0-.3-.47c-.24-.18-.15-.31,0-.42a4.41,4.41,0,0,0,2.21-2.9,5.46,5.46,0,0,0-.15-3.23,6.25,6.25,0,0,0-1.52-2c-.21-.22-.79-.12-.66-.58.07-.24.35-.47.49-.75A2.26,2.26,0,0,1,473.62,20.61Z"/><path class="cls-10" d="M168.93,39.76c1.4,0,2.75,0,4.11,0a2.56,2.56,0,0,1,.36,5.1L176,48.31c-.78.12-1.31.22-1.72-.61a4.43,4.43,0,0,0-1-1.28,7.71,7.71,0,0,1-.94-1.39h-2.48v3.33h-.93Z"/><path class="cls-11" d="M236.73,100.56c-1.62,1.62-3.15,1.69-4.7.41A3.08,3.08,0,0,1,234,95.79a4.13,4.13,0,0,1,2.46,1c.18-.17,0-.41.11-.56s.13-.14,1.19-.1c0,1.7,0,3.4,0,5.1a3.45,3.45,0,0,1-.51,1.69,2.32,2.32,0,0,1-1.55,1.12c-.1,0-.18.18-.28.18a6.91,6.91,0,0,1-3.51-.47c-.31-.16-.33-.37-.15-.71s.28-.34.41-.2c.45.5,1.12.48,1.66.62a2.41,2.41,0,0,0,2.59-.87c.07-.08.2-.15.16-.29C236.37,101.71,236.89,101.26,236.73,100.56Z"/><path class="cls-11" d="M277.8,55.63c0,1.69.05,3.4,0,5.1a3.55,3.55,0,0,1-.51,1.68,2.36,2.36,0,0,1-1.55,1.13c-.07,0-.12.15-.17.15a6.25,6.25,0,0,1-3.71-.54c-.21-.13-.21-.24-.08-.52s.18-.41.54-.23a4.86,4.86,0,0,0,2.26.6,2.39,2.39,0,0,0,1.89-.93c.05-.06.16-.13.15-.17-.17-.6.29-1.11.24-1.68-.24-.16-.25.1-.36.16s-.16.18-.26.25A3,3,0,0,1,272,60.4a1.86,1.86,0,0,1-.58-1.06,3.56,3.56,0,0,1,.14-2.27,3.08,3.08,0,0,1,1.81-1.67,2.34,2.34,0,0,1,2.41.43c.22.23.53.24.75.43C276.66,55.57,276.66,55.57,277.8,55.63Z"/><path class="cls-11" d="M315.61,73.55c-.37.26-.67.6-1.07.84a3.26,3.26,0,0,1-2.13.33,2.77,2.77,0,0,1-1.52-.9,2.38,2.38,0,0,1-.71-1.6,3.1,3.1,0,0,1,.72-2.47,4.08,4.08,0,0,1,1.88-1,3.48,3.48,0,0,1,2.41.83c.16.1.3.19.27-.07-.06-.45.12-.56.53-.51a4.85,4.85,0,0,0,.68,0c0,1.73.07,3.43,0,5.13a3.13,3.13,0,0,1-.54,1.79,3.39,3.39,0,0,1-1.58,1.1c-.07,0-.12.12-.19.12a6.92,6.92,0,0,1-3.51-.48.51.51,0,0,1-.14-.8c.1-.17.28-.23.38-.12.44.5,1.11.48,1.65.62a2.43,2.43,0,0,0,2.52-.75.8.8,0,0,0,.25-.62c0-.31-.07-.62.22-.88A.46.46,0,0,0,315.61,73.55Z"/><path class="cls-12" d="M210.15,102.26a2,2,0,0,1-.9,0,1,1,0,0,1-.05-.22c0-2,0-3.9,0-5.85.91-.1.91-.1,1,.58.33,0,.55-.33.69-.47a2.13,2.13,0,0,1,1.75-.45c.61,0,1,.44,1.34.81l.38.39c.21-.21.43-.42.63-.64a2.22,2.22,0,0,1,1.44-.59c.72-.08,1.22.38,1.82.56,0,.5.61.62.58,1.21-.09,1.54,0,3.1,0,4.63-.3.17-.58.07-1,.1v-4a2,2,0,0,0-.22-1,1.43,1.43,0,0,0-1.3-.72,1.22,1.22,0,0,0-1.35.66,4.2,4.2,0,0,0-.5,1.83c0,1.06,0,2.13,0,3.22h-1V98.1a1.46,1.46,0,0,0-1-1.48,1.48,1.48,0,0,0-1.89.74,2.75,2.75,0,0,0-.48,1.72Z"/><path class="cls-12" d="M203,102.26h-.88c0-.09-.08-.15-.08-.22,0-1.28,0-2.56,0-3.83a1.58,1.58,0,0,0-2.45-1.44,1.31,1.31,0,0,0-.47.59,3.42,3.42,0,0,0-.46,1.73c0,1,0,2.07,0,3.12a1.59,1.59,0,0,1-.94,0V96.15c.88-.09.88-.09,1,.71.31-.49.78-.61,1.16-.92a2.31,2.31,0,0,1,2.16.28c.28.24.52.51.87.86.19-.24.38-.48.58-.7A2.07,2.07,0,0,1,205,95.8c.68,0,1.12.4,1.7.56,0,.48.59.64.56,1.21-.08,1.55,0,3.1,0,4.62a2,2,0,0,1-1,.09c0-1.35,0-2.69,0-4a2.35,2.35,0,0,0-.18-.88,1.35,1.35,0,0,0-1.35-.82,1.21,1.21,0,0,0-1.36.78,4.29,4.29,0,0,0-.47,1.72C203,100.08,203,101.12,203,102.26Z"/><path class="cls-12" d="M192.88,88.85H192a.91.91,0,0,1-.08-.23c0-1.28,0-2.56,0-3.83a1.58,1.58,0,0,0-2.45-1.43.92.92,0,0,0-.45.48,4.69,4.69,0,0,0-.48,1.84c0,1,0,2,0,3a.45.45,0,0,1,0,.11c-.24.21-.54,0-.76.11a.32.32,0,0,1-.17-.32c0-1.27,0-2.55,0-3.82a1.51,1.51,0,0,0-2.36-1.4,1,1,0,0,0-.53.53,4.12,4.12,0,0,0-.47,1.84c0,1,0,2.06,0,3.12h-.91V82.7c.86,0,.86,0,1,.62,1.81-1.49,2.91-1.15,4.13.29.19-.2.4-.39.58-.6a2.44,2.44,0,0,1,3.77.63,1.15,1.15,0,0,1,.07.68C192.89,85.8,192.88,87.27,192.88,88.85Z"/><path class="cls-12" d="M220,88.87c0-1.43,0-2.78,0-4.13a1.55,1.55,0,0,0-2.38-1.39,1.14,1.14,0,0,0-.52.54,4.4,4.4,0,0,0-.47,1.84c0,1,0,2.06,0,3.11h-.91V82.69c.86,0,.86,0,1,.64,1.75-1.47,2.83-1.21,4.11.27.2-.2.41-.39.6-.6a2.45,2.45,0,0,1,3.77.65,1.22,1.22,0,0,1,.06.68c0,1.48,0,3,0,4.44a1.42,1.42,0,0,1-1,0c0-1.39,0-2.77,0-4.16a1.52,1.52,0,0,0-1.93-1.51,1.25,1.25,0,0,0-1,.81,5,5,0,0,0-.44,1.73c0,.88,0,1.76,0,2.63,0,.53,0,.53-.6.55Z"/><path class="cls-13" d="M274.84,74.53a3.71,3.71,0,0,1-2.1.94,3,3,0,0,1-2.24-1,3.61,3.61,0,0,1-.17-4.62,2.83,2.83,0,0,1,4.25-.41c.08.06.16.14.33.3v-3.4h1.17v8.84h-.49C275,75.21,275,75.21,274.84,74.53Z"/><path class="cls-13" d="M502.59,83.48V80.05h1.14v8.77c-.15.13-.36.05-.54.05-.54,0-.54,0-.66-.7a3.61,3.61,0,0,1-2.44,1,3.21,3.21,0,0,1-2.75-2.47,4.36,4.36,0,0,1,.21-2.42,3,3,0,0,1,4.74-1Z"/><path class="cls-13" d="M211.61,69.82V66.38h1.09c.12,1.05.14,7.26,0,8.84h-.45c-.62,0-.62,0-.76-.68a3.91,3.91,0,0,1-2.09.93,3,3,0,0,1-2.33-1,3.63,3.63,0,0,1-.1-4.53,2.83,2.83,0,0,1,4.24-.43C211.32,69.54,211.4,69.62,211.61,69.82Z"/><path class="cls-13" d="M284,88.87h-.5c-.6,0-.6,0-.75-.69a3.69,3.69,0,0,1-2,.94,2.88,2.88,0,0,1-2.43-1.06,3.59,3.59,0,0,1,0-4.61,2.8,2.8,0,0,1,4.07-.39c.11.08.16.25.39.27V80.14c.4-.25.79-.06,1.2-.16Z"/><path class="cls-13" d="M371.59,80.05v8.73c-.19.17-.4.08-.59.09-.54,0-.54,0-.65-.7a3.68,3.68,0,0,1-2.44,1,3.22,3.22,0,0,1-2.76-2.47,4.33,4.33,0,0,1,.22-2.41,3,3,0,0,1,4.74-1.06c.06,0,.11.12.23.23a7.78,7.78,0,0,0,.06-1.66c0-.55,0-1.11,0-1.7Z"/><path class="cls-12" d="M262.15,96.13c-.54,1.52-1.11,3-1.59,4.56-.13.41-.44.71-.49,1.11s0,.52-.44.5-.66-.08-.79-.52c-.29-1-.62-2-.95-3a2.82,2.82,0,0,0-.44-1.09c-.09-.09-.16.15-.53,1.11a25.41,25.41,0,0,1-1.15,3.12c-.2.38-.38.26-.61.32s-.31-.18-.43-.38a5.48,5.48,0,0,1-.42-1.15c-.56-1.48-1.07-3-1.6-4.48,0,0-.05-.06-.09-.09.22-.26.51-.08.76-.13s.36.17.46.47c.45,1.44,1,2.86,1.51,4.39.47-1.4.93-2.7,1.32-4,.07-.23.25-.37.27-.61,0-.4.35-.2.55-.23s.33,0,.42.26c.28.88.7,1.71.92,2.6a16.41,16.41,0,0,1,.68,1.94c.34-1,.71-2,1-3,.08-.29.22-.55.29-.85C261,96,261.07,96,262.15,96.13Z"/><path class="cls-12" d="M234.34,30.16h-2.08V20.38c.65-.05,1.35,0,2.08,0Z"/><path class="cls-12" d="M330.62,20.38h2.08v9.75c-.65.15-1.35,0-2.08.08Z"/><path class="cls-14" d="M225.07,66.38H226V70c.48-.26.73-.63,1.15-.84a2.86,2.86,0,0,1,4,1.21,4,4,0,0,1,.36,2.7,2.77,2.77,0,0,1-1,1.71,3.25,3.25,0,0,1-3.2.48c-.49-.22-.7-.71-1.14-1-.23.27,0,.62-.19.91h-.82Z"/><path class="cls-12" d="M249.73,85.08v3.7a1.72,1.72,0,0,1-.9.08V80.28h.86v4c1.7.11,3.35,0,5.05.06v-4a1.39,1.39,0,0,1,1-.08v8.5c-.28.21-.58,0-.92.12V85.08Z"/><path class="cls-14" d="M196,88v2.75h-.89V82.71a1.59,1.59,0,0,1,.81,0c.24.26,0,.62.16.89.06,0,.1,0,.17-.06a3.12,3.12,0,0,1,2.18-1.09,2.9,2.9,0,0,1,2.48,1.2,3.61,3.61,0,0,1-.29,4.61,2.79,2.79,0,0,1-4,.19,2.93,2.93,0,0,1-.45-.53Z"/><path class="cls-14" d="M286.93,87.94v2.82H286V82.67h.83c.2.27,0,.61.13.94.43-.26.69-.62,1.11-.83A2.85,2.85,0,0,1,292,84a4.2,4.2,0,0,1,.36,2.7,2.36,2.36,0,0,1-.8,1.45,2.82,2.82,0,0,1-4.16.15,1.77,1.77,0,0,1-.32-.47Z"/><path class="cls-14" d="M315.47,83.65a12.06,12.06,0,0,1,1.16-.87,2.85,2.85,0,0,1,4,1.23,4.07,4.07,0,0,1,.35,2.7,2.37,2.37,0,0,1-.79,1.45,2.84,2.84,0,0,1-4.17.13c-.14-.11-.2-.31-.47-.34v2.7c-.32.23-.62.13-1,.1v-8c.23-.18.54-.07.92-.06Z"/><path class="cls-12" d="M171.48,89.11a4.61,4.61,0,0,1-2.95-1,.25.25,0,0,1-.06-.4c.1-.12.24-.22.33-.34s.26-.13.44,0c.35.28.73.68,1.12.71a11.83,11.83,0,0,0,1.46.31,5.11,5.11,0,0,0,1.21-.3c.69-.18.87-1.4.46-2a2.23,2.23,0,0,0-1.46-.82c-.44-.09-.89-.21-1.33-.31a2.34,2.34,0,0,1-1.82-3.27,2.7,2.7,0,0,1,2.4-1.49,4.87,4.87,0,0,1,2.68.48c.58.32.58.43.11.94-.18.2-.26.23-.52,0a3.42,3.42,0,0,0-2.21-.73,2.27,2.27,0,0,0-1.7,1.08c-.31.4.23,1.39.78,1.56.82.25,1.65.44,2.45.73s1.63.72,1.78,1.75c.61.49,0,1-.05,1.46a1.56,1.56,0,0,1-.92,1.11,3.07,3.07,0,0,1-1.72.46A3.71,3.71,0,0,0,171.48,89.11Z"/><path class="cls-9" d="M212.19,53.9h-5c-.26,0-.48,0-.43-.36,0-.16,0-.33.2-.36h6.46a1.22,1.22,0,0,1-.27,1.2c-1.22,1.5-2.42,3-3.52,4.63-.48.7-1.1,1.3-1.7,2a8.37,8.37,0,0,0,1.65.06c1.2,0,2.4,0,3.59,0,.28,0,.32.13.32.36s0,.37-.32.37H207c-.41,0-.57-.33-.32-.69q.66-.93,1.35-1.83c1.15-1.48,2.34-2.93,3.45-4.44A6.58,6.58,0,0,1,212.19,53.9Z"/><path class="cls-8" d="M169.89,57h4.35c.18,0,.42-.06.41.26s.06.48-.33.47c-.84,0-1.68,0-2.52,0h-1.92v3.35h4c.32,0,.64,0,1,0s.26.13.25.3.07.42-.25.42H169V53.18h5.85c.26,0,.32.1.34.35s-.13.39-.42.38h-4.83Z"/><path class="cls-8" d="M252.31,30.15h-1.8V23h1.78c.22.24,0,.59.09.8s.16.1.23,0,.3-.27.42-.43a1.46,1.46,0,0,1,1.67-.63c.18.26.06.59.07.89,0,.94,0,1.07-.89,1.19a1.42,1.42,0,0,0-1.22,1.19,5.33,5.33,0,0,0-.3,1.92,15.28,15.28,0,0,1,0,2S252.34,30.08,252.31,30.15Z"/><path class="cls-8" d="M399.43,30.16h-1.87V23c.56-.06,1.18,0,1.88,0v.93l.19.12.48-.64a1.43,1.43,0,0,1,1.65-.6c.16.16.07.37.07.55a3.73,3.73,0,0,1-.08,1.29c-.4-.08-.69.24-1.08.29a1.19,1.19,0,0,0-.93,1.05,7.34,7.34,0,0,0-.32,1.68C399.49,28.48,399.43,29.31,399.43,30.16Z"/><path class="cls-8" d="M197.72,23h1.89v1.21l.67-.84a1.46,1.46,0,0,1,1.68-.58v1.83c-.44-.11-.83.19-1.25.32a1.3,1.3,0,0,0-.84,1.25c0,.43-.35.69-.29,1.1a8,8,0,0,1,0,1.2v1.64c-.61.07-1.23,0-1.88,0Z"/><path class="cls-14" d="M345.48,88.86c-.93,0-.93,0-1-.72a3.41,3.41,0,0,1-2.66,1,2.59,2.59,0,0,1-2.09-1.69c-.09-.45.2-.8.27-1.21s.49-.65.91-.79.53-.44.91-.39c.77.11,1.56-.23,2.32.18.28.16.44,0,.4-.3A2,2,0,0,0,342,83.14c-.24.39-.71.07-1,.26-.51.41-.5-.08-.57-.31s0-.36.32-.48a7.68,7.68,0,0,1,2.78-.19c.62,0,1.52,1.07,1.7,1.69C345.67,85.66,345.34,87.22,345.48,88.86Z"/><path class="cls-14" d="M352.46,88.84c-.95,0-.95,0-1-.71-.22.19-.4.46-.59.47s-.4.21-.61.29a2.52,2.52,0,0,1-3.12-.66c-.26-.33-.56-.7-.43-1.12s.13-1.09.65-1.4a2.68,2.68,0,0,1,1.87-.67c.64.11,1.32-.24,1.95.22.18.14.37-.08.31-.32-.16-.58-.25-1.24-.83-1.55a1.76,1.76,0,0,0-1.75-.16c-.36.22-.78,0-1.1.29-.1.11-.37-.17-.39-.4s-.11-.39.19-.48a9.82,9.82,0,0,1,3-.24c.66.49,1.39.81,1.63,1.8C352.58,85.73,352.26,87.25,352.46,88.84Z"/><path class="cls-14" d="M197.44,75.18c-.9,0-.9,0-1.06-.67a3.45,3.45,0,0,1-2.82.95,2.44,2.44,0,0,1-1.87-1.76,1.82,1.82,0,0,1,.48-1.47,2.36,2.36,0,0,1,1.91-.83c.69.06,1.41-.27,2.07.21.17.13.35,0,.33-.31a1.87,1.87,0,0,0-2.58-1.72c-.36.13-.76,0-1.09.28-.14.13-.37-.17-.4-.38s-.11-.4.17-.49a9.52,9.52,0,0,1,3-.24c.67.47,1.43.79,1.65,1.78a11.22,11.22,0,0,1,.19,2.3C197.45,73.59,197.44,74.34,197.44,75.18Z"/><path class="cls-14" d="M238.48,75.14c-.92.06-.92.06-1-.64a3.5,3.5,0,0,1-2.79,1,2.83,2.83,0,0,1-1.94-1.59c-.15-.49.19-.88.27-1.33s.49-.51.81-.73a2.32,2.32,0,0,1,1.63-.42c.57.07,1.16-.21,1.71.19.24.18.43,0,.38-.34a1.89,1.89,0,0,0-2.44-1.74,6.86,6.86,0,0,1-1,.21c-.57.09-.65.05-.66-.42,0-.16,0-.24.24-.31a7.29,7.29,0,0,1,2.9-.21c.63,0,1.49,1.08,1.67,1.71C238.68,72,238.34,73.59,238.48,75.14Z"/><path class="cls-14" d="M245.46,75.18c-.94,0-.94,0-1.1-.67a3.45,3.45,0,0,1-2.82.95,2.44,2.44,0,0,1-1.87-1.76,1.8,1.8,0,0,1,.48-1.46,2.34,2.34,0,0,1,1.91-.84c.68.06,1.4-.27,2.06.21.18.13.36,0,.34-.31a1.87,1.87,0,0,0-2.58-1.72c-.36.13-.76,0-1.09.27-.15.14-.37-.16-.4-.37s-.11-.4.17-.49a5.47,5.47,0,0,1,3-.18,2.23,2.23,0,0,1,1.66,1.72C245.59,72.06,245.26,73.58,245.46,75.18Z"/><path class="cls-14" d="M300.6,75.18c-.91,0-.91,0-1.06-.67a3.45,3.45,0,0,1-2.82.95,2.44,2.44,0,0,1-1.87-1.76,1.76,1.76,0,0,1,.47-1.46,2.37,2.37,0,0,1,1.92-.84c.68.06,1.4-.27,2.06.21.18.13.36,0,.34-.31a1.87,1.87,0,0,0-2.58-1.72c-.36.13-.76,0-1.09.27-.15.14-.37-.16-.4-.37s-.12-.4.16-.49a5.51,5.51,0,0,1,3-.18,2.17,2.17,0,0,1,1.66,1.72,11.24,11.24,0,0,1,.2,2.3C300.61,73.58,300.6,74.34,300.6,75.18Z"/><path class="cls-14" d="M268.51,102.24c-1,0-1,0-1.12-.65a3.45,3.45,0,0,1-2.7.94,2.72,2.72,0,0,1-2-1.64c-.14-.49.21-.88.28-1.33s.44-.58.85-.7.56-.43.91-.4c.77.07,1.58-.23,2.32.16a.36.36,0,0,0,.32.06c.18-.09.14-.28.11-.43a1.83,1.83,0,0,0-2.66-1.54c-.33.11-.68-.06-1,.21-.16.14-.37-.16-.4-.37s-.11-.4.17-.49a5.38,5.38,0,0,1,3-.18,2.23,2.23,0,0,1,1.66,1.72C268.62,99.13,268.28,100.65,268.51,102.24Z"/><path class="cls-14" d="M196.05,102.29c-1,0-1,0-1.08-.72a3.5,3.5,0,0,1-2.79,1,2.87,2.87,0,0,1-1.94-1.59c-.15-.49.19-.88.27-1.32s.49-.52.81-.74a2.29,2.29,0,0,1,1.62-.42c.57.07,1.17-.21,1.72.19.24.17.43,0,.38-.34a1.89,1.89,0,0,0-2.44-1.74,8.57,8.57,0,0,1-1,.21c-.57.09-.65,0-.66-.42,0-.16,0-.25.24-.32a7.85,7.85,0,0,1,2.89-.21c.63,0,1.49,1.09,1.68,1.72C196.25,99.09,195.83,100.66,196.05,102.29Z"/><path class="cls-15" d="M275.65,96.15l-2.48,2.48a24.87,24.87,0,0,0,2.7,3.56,1.38,1.38,0,0,1-1.87-.75c-.44-.74-1.16-1.23-1.49-2-.95.75-1.8,1.45-1.38,2.72-.31.34-.63.07-1,.23V93.5a1.43,1.43,0,0,1,.93,0v6L274,96.64C274.59,96,274.59,96,275.65,96.15Z"/><path class="cls-15" d="M401.32,86c-1,.77-1.76,1.52-1.35,2.76a1.35,1.35,0,0,1-1,.08V80.09c.27-.21.58,0,.91-.12v6c.17-.12,0,.06.13.06s.06,0,.08-.07l1.36-1.36,1.35-1.35c.62-.61.62-.61,1.68-.45-.72.71-1.4,1.44-2.15,2.1-.36.32-.23.52-.06.87a15.19,15.19,0,0,0,1,1.27,5.93,5.93,0,0,0,1.49,1.76,1.44,1.44,0,0,1-1.93-.75A20.82,20.82,0,0,1,401.32,86Z"/><path class="cls-16" d="M232.93,86c-1.58,0-3.09,0-4.6,0-.37,0-.58.26-.41.59.3.62.52,1.27,1.32,1.59,1.21.49,2-.07,2.89-.72l.56.57a3.47,3.47,0,0,1-3.35,1.07A3.22,3.22,0,0,1,227,86.27a3.82,3.82,0,0,1,.46-2.44A3.18,3.18,0,0,1,229,82.44a3,3,0,0,1,2.36.28A3.42,3.42,0,0,1,232.93,86Z"/><path class="cls-16" d="M181.1,99.43h-4.95a2.12,2.12,0,0,0,2.4,2.36,2.15,2.15,0,0,0,1.39-.64c.35-.34.48-.22.7,0a1.26,1.26,0,0,0,.26.21,3.19,3.19,0,0,1-3.39,1.07,3,3,0,0,1-2.38-2.94,3.72,3.72,0,0,1,.45-2.21c1.1-1.75,2.22-1.73,3.95-1.27a5.67,5.67,0,0,1,1.14,1.29A3.67,3.67,0,0,1,181.1,99.43Z"/><path class="cls-16" d="M287.57,99.41H283c-.38,0-.59.26-.43.59.31.63.52,1.27,1.32,1.6,1.2.48,2-.06,2.9-.73l.54.58c-.89,1.13-2.15,1.15-3.45,1.08-.54-.41-1.29-.56-1.65-1.19a3.72,3.72,0,0,1-.65-1.89,3.83,3.83,0,0,1,1.08-2.91,2.75,2.75,0,0,1,2.77-.62,2.39,2.39,0,0,1,1.63,1.21A2.85,2.85,0,0,1,287.57,99.41Z"/><path class="cls-16" d="M511.41,86c-1.59,0-3.1,0-4.62,0-.36,0-.42.17-.36.43a2.16,2.16,0,0,0,2.5,1.94,2.52,2.52,0,0,0,1.7-.94l.49.7c0-.08,0,0,0,0a3.38,3.38,0,0,1-4.9-.1,3.51,3.51,0,0,1-.77-2.32,3.6,3.6,0,0,1,1.14-2.65,2.68,2.68,0,0,1,2.77-.54,2.37,2.37,0,0,1,1.54,1.13A3,3,0,0,1,511.41,86Z"/><path class="cls-16" d="M448.25,87.43l.59.58c-.07.08-.13.17-.2.24a3.27,3.27,0,0,1-5.57-2.42,3.65,3.65,0,0,1,1.14-2.76,2.54,2.54,0,0,1,2.68-.57c1.48.4,2.25,1.71,2.15,3.5-1.51,0-3,0-4.52,0-.42,0-.61.2-.45.55.24.55.37,1.22,1,1.49a2.27,2.27,0,0,0,1.52.34A3.32,3.32,0,0,0,448.25,87.43Z"/><path class="cls-16" d="M242.56,60.27l.64.64c.06.05,0,.09,0,.17a3.37,3.37,0,0,1-4.9-.1,3.48,3.48,0,0,1-.78-2.31A3.63,3.63,0,0,1,238.6,56a2.46,2.46,0,0,1,2.77-.53c1.46.48,2.15,1.62,2.09,3.44H239c-.49,0-.6.17-.45.63a2.29,2.29,0,0,0,1.35,1.54c1,.52,1.73,0,2.5-.44C242.46,60.59,242.49,60.4,242.56,60.27Z"/><path class="cls-16" d="M430.86,86h-5c.07,1.65.79,2.24,2.3,2.37a2,2,0,0,0,1.5-.67c.38-.35.49-.16.7.07l.22.24a3.4,3.4,0,0,1-3.38,1.06,3.19,3.19,0,0,1-2.36-3,3.61,3.61,0,0,1,.46-2.21,3.27,3.27,0,0,1,1.57-1.45,3,3,0,0,1,2.36.22,3.26,3.26,0,0,1,1.61,2.63C430.88,85.51,430.86,85.7,430.86,86Z"/><path class="cls-16" d="M358.39,72.36h-4.95a2.11,2.11,0,0,0,2.4,2.36,2.15,2.15,0,0,0,1.39-.64c.35-.34.48-.21.7,0a1.26,1.26,0,0,0,.26.21,3.19,3.19,0,0,1-3.4,1.07,3,3,0,0,1-2.37-2.94,3.72,3.72,0,0,1,.45-2.21c1.1-1.75,2.21-1.72,3.95-1.27A5.92,5.92,0,0,1,358,70.28,3.67,3.67,0,0,1,358.39,72.36Z"/><path class="cls-16" d="M264.48,73.77l.57.57s0,.12-.08.16a3.37,3.37,0,0,1-4.9-.11,3.45,3.45,0,0,1-.76-2.32,3.6,3.6,0,0,1,1.13-2.65,2.47,2.47,0,0,1,2.77-.51c.31.1.66.07.91.41s.79.67.91,1.18.5,1.13.23,1.84h-4.49c-.48,0-.58.17-.44.65a2.13,2.13,0,0,0,.95,1.38,2,2,0,0,0,1.51.35A3.14,3.14,0,0,0,264.48,73.77Z"/><path class="cls-16" d="M220.43,72.34h-4.52c-.44,0-.62.19-.47.55.24.55.37,1.22,1,1.49a2.23,2.23,0,0,0,1.52.35,3.21,3.21,0,0,0,1.69-1l.5.69c0-.06,0,0,0,0a3.26,3.26,0,0,1-5.65-2.43,3.57,3.57,0,0,1,1.05-2.57,2.46,2.46,0,0,1,2.85-.57c.24.09.53-.06.74.22s.61.54.82.87a3.8,3.8,0,0,1,.51,1.21A5.08,5.08,0,0,1,220.43,72.34Z"/><path class="cls-16" d="M183,72.34h-4.6c-.37,0-.58.27-.41.6.31.63.48,1.34,1.33,1.57a2.49,2.49,0,0,0,2.86-.73l.58.59a3.43,3.43,0,0,1-3.35,1.07,3.18,3.18,0,0,1-2.39-2.83,4,4,0,0,1,.37-2.23c1.13-1.86,2.25-1.92,4-1.35a2.33,2.33,0,0,1,1.18,1.23A4.06,4.06,0,0,1,183,72.34Z"/><path class="cls-16" d="M396.67,87.43l.59.58a2.36,2.36,0,0,1-.2.23,3.36,3.36,0,0,1-4.81-.21,3.45,3.45,0,0,1-.76-2.2,3.65,3.65,0,0,1,1.14-2.76,2.54,2.54,0,0,1,2.68-.57c1.48.39,2.25,1.71,2.15,3.5-1.5,0-3,0-4.51,0-.43,0-.62.2-.46.55.24.55.37,1.22,1,1.49a2.22,2.22,0,0,0,1.52.34A3.32,3.32,0,0,0,396.67,87.43Z"/><path class="cls-16" d="M227.84,58.93h-4.56c-.36,0-.49.16-.41.49a2.33,2.33,0,0,0,1.75,1.86c.83.24,1.45-.23,2.11-.59.13-.07.21-.23.32-.34l.61.61A3.51,3.51,0,0,1,224.29,62a3.22,3.22,0,0,1-2.38-2.84,3.89,3.89,0,0,1,.38-2.23c1.12-1.82,2.18-2,4-1.35a2.37,2.37,0,0,1,1.37,1.64A2.66,2.66,0,0,1,227.84,58.93Z"/><path class="cls-16" d="M378.34,87.33,379,88c.05,0,0,.09-.06.17a3.38,3.38,0,0,1-4.9-.1,3.42,3.42,0,0,1-.77-2.31,3.54,3.54,0,0,1,1.13-2.65,2.44,2.44,0,0,1,2.76-.53c1.47.48,2.16,1.62,2.09,3.44-1.5,0-3,0-4.5,0-.5,0-.61.17-.46.63a2.3,2.3,0,0,0,1.35,1.54c1,.51,1.74,0,2.51-.44C378.24,87.66,378.27,87.47,378.34,87.33Z"/><path class="cls-16" d="M220.68,59h-5c.06,1.65.78,2.24,2.3,2.37a2,2,0,0,0,1.5-.67c.37-.34.49-.17.7.07a2.61,2.61,0,0,0,.22.24A3.4,3.4,0,0,1,217.07,62a3.17,3.17,0,0,1-2.36-3,3.79,3.79,0,0,1,.46-2.21c1.1-1.75,2.21-1.72,4-1.27a6.52,6.52,0,0,1,1.14,1.3A3.68,3.68,0,0,1,220.68,59Z"/><path class="cls-13" d="M185.66,70.05a3.77,3.77,0,0,1,.38-.57,2.23,2.23,0,0,1,3.35,0,1.67,1.67,0,0,1,.63,1.42c-.06,1.43,0,2.86,0,4.26a1.92,1.92,0,0,1-1,.06V71.3a2.72,2.72,0,0,0-.07-.81,1.55,1.55,0,0,0-2.12-.89,2.08,2.08,0,0,0-1.39,2.14c-.06,1.11,0,2.23,0,3.36-.27.21-.58.1-.92.09V66.44c.24-.18.54-.07.92-.06v3.53Z"/><path class="cls-13" d="M367.77,75.2a2.05,2.05,0,0,1-.94-.06v-8.7c.28-.22.59,0,.92-.12v3.55c.29.1.33-.17.46-.26a2.69,2.69,0,0,0,.35-.33,2.26,2.26,0,0,1,2.55-.3c.48.23.75.69,1.14,1,.17.15.07.38.07.57,0,1.51,0,3,0,4.55-.29.19-.59.1-1,.07,0-1.39,0-2.78,0-4.16s-1-1.81-2.22-1.4-1.28,1.25-1.35,2.16C367.7,72.89,367.77,74,367.77,75.2Z"/><path class="cls-13" d="M253.21,70c.2-.2.41-.39.59-.6a2.32,2.32,0,0,1,3.21,0,2,2,0,0,1,.66,1.54c-.06,1.39,0,2.78,0,4.19a1.42,1.42,0,0,1-1,0c0-1.38,0-2.77,0-4.15s-1-1.79-2.23-1.38-1.26,1.27-1.34,2.17c-.1,1.1,0,2.22,0,3.31-.27.2-.56.07-.83.11,0,0-.08,0-.08-.08V66.43c.23-.17.52,0,.78-.08a.33.33,0,0,1,.14.3c0,.92,0,1.83,0,2.75C253.1,69.59,253,69.8,253.21,70Z"/><path class="cls-13" d="M474.8,80h.92v3.54l.22.13a3.24,3.24,0,0,1,.38-.56,2.24,2.24,0,0,1,3.35,0,1.68,1.68,0,0,1,.63,1.43c-.06,1.42,0,2.85,0,4.26a1.92,1.92,0,0,1-1,.06V85a2.72,2.72,0,0,0-.07-.81,1.54,1.54,0,0,0-2.12-.88,2.1,2.1,0,0,0-1.4,2.14c-.05,1.11,0,2.23,0,3.36-.27.2-.58.1-.92.08Z"/><path class="cls-12" d="M207.5,86c0-1.75.58-2.85,2.08-3.42a3.28,3.28,0,0,1,3.93,1.23,3.54,3.54,0,0,1,0,3.89A3,3,0,0,1,211,89.13a3.22,3.22,0,0,1-2.34-.71A2.75,2.75,0,0,1,207.5,86Z"/><path class="cls-12" d="M333.19,72.06a3,3,0,0,1-.26,1.68,3.37,3.37,0,0,1-2.88,1.72,3,3,0,0,1-3.08-2A3.35,3.35,0,1,1,333.18,71,3.76,3.76,0,0,1,333.19,72.06Z"/><path class="cls-12" d="M264.13,85.82c.12,1.8-.95,2.62-2.23,3.2s-3-.25-3.85-1.51a3.92,3.92,0,0,1-.35-2.71,2.56,2.56,0,0,1,1-1.62,3.38,3.38,0,0,1,5.45,1.56A3.55,3.55,0,0,1,264.13,85.82Z"/><path class="cls-12" d="M271.81,85.87a2.61,2.61,0,0,1-.41,1.64,3.24,3.24,0,0,1-2.68,1.6A3,3,0,0,1,265.48,87a3.69,3.69,0,0,1,.09-2.71,3.17,3.17,0,0,1,2.08-1.81,3.39,3.39,0,0,1,4.07,2.17.5.5,0,0,1,.08.2C271.81,85.12,271.81,85.44,271.81,85.87Z"/><path class="cls-12" d="M418.62,85.67a3,3,0,0,1-.39,1.83,3.31,3.31,0,0,1-2.68,1.61A3,3,0,0,1,412.3,87a3.74,3.74,0,0,1,.08-2.71,3.23,3.23,0,0,1,2.08-1.82,3.41,3.41,0,0,1,4.08,2.16A3.75,3.75,0,0,1,418.62,85.67Z"/><path class="cls-12" d="M481.94,86c0-1.76.59-2.86,2.08-3.43A3.25,3.25,0,0,1,488,83.84a3.47,3.47,0,0,1,.05,3.68,3.28,3.28,0,0,1-2.56,1.61,3.15,3.15,0,0,1-2.35-.71A2.77,2.77,0,0,1,481.94,86Z"/><path class="cls-12" d="M202.72,45.33c.12,1.81-.95,2.63-2.23,3.21s-3.05-.25-3.85-1.51a3.87,3.87,0,0,1-.35-2.71,2.54,2.54,0,0,1,1-1.62,3.37,3.37,0,0,1,5.45,1.56A3.47,3.47,0,0,1,202.72,45.33Z"/><path class="cls-11" d="M185.48,23h2.08v7.14c-.65.05-1.34,0-2.08,0Z"/><path class="cls-11" d="M282.4,23h2.08v7.14c-.65.05-1.34,0-2.08,0Z"/><path class="cls-11" d="M343.1,23h2.07v7.14H343.1Z"/><path class="cls-11" d="M203.24,23h2.07v7.14c-.64.05-1.34,0-2.07,0Z"/><path class="cls-11" d="M178.86,87.68c.13-.21.32-.28.35-.51a13.77,13.77,0,0,1,.87-2.4c.16-.45.4-.87.56-1.32.29-.79.27-.8,1.28-.71-.33.37-.28.82-.53,1.23a7.73,7.73,0,0,0-.9,2.12c-.2.78-.76,1.36-.86,2.18a4,4,0,0,1-.68,1.38,2.59,2.59,0,0,1-1.07,1.08,3.66,3.66,0,0,1-1.65,0,.47.47,0,0,1-.38-.52.62.62,0,0,1,.62-.38c.11,0,.18.19.28.2a1.24,1.24,0,0,0,1.46-1.58c-.38-.19-.22-.62-.39-.92-.83-1.48-1.36-3.11-2.21-4.59,0-.06,0-.15,0-.23.88-.1.9-.1,1.22.55A21.41,21.41,0,0,1,178,86,12.78,12.78,0,0,0,178.86,87.68Z"/><path class="cls-13" d="M200.08,75.19h-.93v-6.1c.87-.11.87-.11,1,.65.33-.21.62-.45.88-.64a2.29,2.29,0,0,1,2.5-.08c.41.17.69.63,1,1,.15.14.09.3.09.44,0,1.59,0,3.17,0,4.78h-.95c0-1.39,0-2.77,0-4.15a1.46,1.46,0,0,0-1-1.48,2,2,0,0,0-2.36,1.11,4.83,4.83,0,0,0-.26,1.57C200.11,73.19,200.08,74.15,200.08,75.19Z"/><path class="cls-13" d="M334.42,88.87h-.83a.32.32,0,0,1-.13-.3c0-1.23,0-2.47,0-3.7,0-1.5-1-2.08-2.36-1.53a2,2,0,0,0-1.21,2c-.09,1.15,0,2.3,0,3.42a1.76,1.76,0,0,1-.91.07V82.7c.86,0,.86,0,1,.61.31,0,.38-.49.74-.43.36-.57.93-.46,1.48-.48a2.12,2.12,0,0,1,1.56.59,2,2,0,0,1,.73,1.74C334.38,86.08,334.42,87.43,334.42,88.87Z"/><path class="cls-13" d="M250.94,61.78H250V55.69c.87-.14.87-.14,1,.62a6.43,6.43,0,0,0,.88-.62,2.3,2.3,0,0,1,2.5-.09c.41.18.69.63,1.05.95.14.13.09.29.09.44,0,1.35,0,2.71,0,4.06v.72h-1c0-1.37,0-2.75,0-4.14a1.45,1.45,0,0,0-1-1.48,2,2,0,0,0-2.37,1.09,4.62,4.62,0,0,0-.26,1.57C251,59.77,250.94,60.73,250.94,61.78Z"/><path class="cls-13" d="M239.9,88.83h-1c0-1.34,0-2.65,0-4a1.58,1.58,0,0,0-2.47-1.51,2.12,2.12,0,0,0-1.11,2c-.08,1.14,0,2.29,0,3.48h-.9V82.71c.85,0,.85,0,1,.69a3.79,3.79,0,0,1,.5-.49,2.77,2.77,0,0,1,2.18-.5,2.44,2.44,0,0,1,1.33.83,1.29,1.29,0,0,1,.48,1.12C239.87,85.83,239.9,87.31,239.9,88.83Z"/><path class="cls-13" d="M182.56,61.77h-.93V55.66c.19-.18.44,0,.67-.09s.26,0,.26.17c-.05,1,.29.31.54.14a2.6,2.6,0,0,1,2.79-.31,5.22,5.22,0,0,1,1.14,1c.19.15.09.37.09.56,0,1.51,0,3,0,4.56-.27.21-.58.1-1,.08,0-1.39,0-2.77,0-4.16a1.33,1.33,0,0,0-.9-1.4,1.88,1.88,0,0,0-2.36.85,3.35,3.35,0,0,0-.35,1.54,13.34,13.34,0,0,1,0,1.55Z"/><path class="cls-13" d="M305.87,88.84h-1c0-1.34,0-2.65,0-4,0-1.52-1.07-2.16-2.46-1.53a2.19,2.19,0,0,0-1.12,2.11c-.08,1.11,0,2.22,0,3.31-.29.18-.57.07-.9.1V82.72c.85-.07.85-.07,1,.71a2.32,2.32,0,0,1,1.16-.89,2.42,2.42,0,0,1,2.31.2,9.61,9.61,0,0,1,.86.83c.23.2.14.44.14.66C305.88,85.74,305.87,87.26,305.87,88.84Z"/><path class="cls-13" d="M224.11,96.1c.86,0,.86,0,1,.74.26-.53.86-.53,1.15-1a3.26,3.26,0,0,1,2.24.23,6.79,6.79,0,0,1,.95.91c.14.13.1.29.1.44,0,1.58,0,3.17,0,4.74a2,2,0,0,1-1,.07c0-1.3,0-2.6,0-3.9a2.72,2.72,0,0,0-.06-.81,1.55,1.55,0,0,0-2.12-.89A2.09,2.09,0,0,0,225,98.8c-.06,1.12,0,2.24,0,3.37-.27.21-.58.1-.92.09Z"/><path class="cls-13" d="M355.29,88.78a1.75,1.75,0,0,1-.91.07V82.71c.86,0,.86,0,1,.69a3.77,3.77,0,0,1,.49-.49,2.75,2.75,0,0,1,2.18-.5c.66.08,1,.61,1.51,1s.29.62.29,1v4.4c-.28.19-.56.06-.83.1a.31.31,0,0,1-.13-.3c0-1.23,0-2.47,0-3.7,0-1.5-1-2.08-2.36-1.53a2,2,0,0,0-1.22,2C355.23,86.5,355.29,87.66,355.29,88.78Z"/><path class="cls-13" d="M384.36,82.69c.86,0,.86,0,1,.73.26-.52.87-.52,1.15-1a3.34,3.34,0,0,1,2.25.23,7.41,7.41,0,0,1,.94.92c.14.13.11.28.11.43v4.8h-1V85a3.1,3.1,0,0,0-.07-.81,1.55,1.55,0,0,0-2.12-.9,2.07,2.07,0,0,0-1.39,2.14c-.07,1.11,0,2.23,0,3.36-.27.22-.58.1-.92.09Z"/><path class="cls-13" d="M433.26,88.84h-.93V82.73c.19-.18.44-.06.66-.08s.27.09.27.27-.07.6.38.21a2.43,2.43,0,0,1,2-.75,2.7,2.7,0,0,1,1.54.65,1.85,1.85,0,0,1,.69,1.64c-.06,1.36,0,2.71,0,4.08-.27.22-.58.1-1,.09,0-1.39,0-2.77,0-4.16a1.34,1.34,0,0,0-.9-1.41,1.87,1.87,0,0,0-2.35.86,3.91,3.91,0,0,0-.36,1.53C433.3,86.69,433.26,87.73,433.26,88.84Z"/><path class="cls-13" d="M450.57,82.68c.87,0,.87,0,1,.74.27-.52.87-.52,1.15-1a3.29,3.29,0,0,1,2.25.24,6.7,6.7,0,0,1,.94.91c.14.13.11.28.11.43v4.8h-1V85a2.4,2.4,0,0,0-.07-.81,1.55,1.55,0,0,0-2.12-.9,2.08,2.08,0,0,0-1.39,2.14c-.06,1.11,0,2.23,0,3.35-.26.3-.59,0-.92.19Z"/><path class="cls-10" d="M249.92,96.78c-1.23,0-2.46,0-3.69,0-.25,0-.35-.08-.34-.34s0-.39.29-.39h4.91c.12,0,.28,0,.3.11s.12.41,0,.55c-.62.5-.94,1.24-1.52,1.77-.78.72-1.29,1.67-2.11,2.36a2.65,2.65,0,0,0-.38.72h3.75c.25,0,.35.08.34.34s0,.39-.29.39c-1.63,0-3.27,0-4.91,0-.39,0-.39-.27-.31-.46a2.2,2.2,0,0,1,.57-1c.88-.74,1.44-1.75,2.27-2.54C249.19,97.91,249.44,97.3,249.92,96.78Z"/><path class="cls-14" d="M259.38,62a2.51,2.51,0,0,1-2.06-.69c-.72,0-.15-.43-.12-.55.09-.37.29-.15.51,0a4.14,4.14,0,0,0,1.22.5c.6.11,1.27.27,1.71-.4.12-.19.49-.33.35-.55s-.21-.79-.75-.92a4.15,4.15,0,0,1-2.24-.94c-.8,0-.37-.86-.83-1.08a4.5,4.5,0,0,1,.44-1.13,2.45,2.45,0,0,1,2.91-.77c.27.11.63,0,.84.31.07.11.43,0,.36.3a.54.54,0,0,1-.47.45.93.93,0,0,1-.54-.15,4.68,4.68,0,0,0-1.18-.32,1.15,1.15,0,0,0-.86.22c-.54.35-.63.8-.18,1.21a3.08,3.08,0,0,0,1,.5,5.76,5.76,0,0,1,1.72.76,1.63,1.63,0,0,1,.51,2.09A1.94,1.94,0,0,1,259.9,62Z"/><path class="cls-14" d="M465.21,87.61c-.49-1.06-.48-1.08-1.53-1.37a7.56,7.56,0,0,1-1.63-.7,1.58,1.58,0,0,1-.31-2.22,2.47,2.47,0,0,1,2.91-.79c.27.11.65-.06.84.3.07.13.45,0,.39.3s-.24.52-.57.46a6.74,6.74,0,0,1-1.06-.31c-1-.33-1.53-.15-1.89.59-.07.16-.14.3,0,.41a5.28,5.28,0,0,0,.72.56c.49.25,1.09.28,1.51.68,1,0,1.13.88,1.49,1.52.19.33-.19.46-.24.72a1.67,1.67,0,0,1-1.42,1.32,4.77,4.77,0,0,1-2.3-.18c-.39-.13-.52-.56-1-.58-.11,0,.23-.3.2-.55s.23-.13.39,0c.35.21.77.3,1.11.47a3.85,3.85,0,0,0,1.13.18c.28.06.43-.1.61-.27S465,87.76,465.21,87.61Z"/><path class="cls-14" d="M192.64,60.41c-.11-.86-.81-1-1.5-1.25-.54-.16-1.14-.19-1.5-.71-.8,0-.39-.84-.83-1.07.24-.38.16-.87.48-1.24a2.51,2.51,0,0,1,2.85-.67c.27.08.64,0,.84.3.07.12.44,0,.37.3s-.25.52-.58.45a5,5,0,0,1-1.06-.33,1.41,1.41,0,0,0-1.4.09c-.55.34-.64.79-.2,1.21a1.62,1.62,0,0,0,.88.45,7.59,7.59,0,0,1,1.46.56c.68.19.94.93,1.15,1.6.07.23-.2.29-.25.49A1.85,1.85,0,0,1,191.54,62a4.8,4.8,0,0,1-1.83-.2c-.31-.13-.51-.43-.76-.46-.68-.08-.17-.42-.13-.57.1-.39.3-.16.51-.05a6.84,6.84,0,0,0,1.22.51A1.66,1.66,0,0,0,192.64,60.41Z"/><path class="cls-14" d="M182.66,48.63a3.78,3.78,0,0,1-2.21-.68c-.41-.25-.07-.26-.06-.42,0-.32.14-.44.43-.28s.79.29,1.12.47a2.51,2.51,0,0,0,1.12.18,2.13,2.13,0,0,0,1.18-.86c.08-.23-.41-.94-.73-1a14,14,0,0,1-1.59-.5c-.59-.27-1.17-.51-1.37-1.33a1.58,1.58,0,0,1,.28-1.31,2.51,2.51,0,0,1,2.9-.85c.35.12.7.25,1,.39s.24.31,0,.53-.51.18-.83.06a3.92,3.92,0,0,0-1.41-.37,1.52,1.52,0,0,0-.73.27.66.66,0,0,0-.14,1.16,1.53,1.53,0,0,0,.87.48c.57,0,.94.43,1.47.55.72.15,1,.93,1.14,1.58a1.18,1.18,0,0,1-.28.93,2.13,2.13,0,0,1-1.84,1C182.94,48.62,182.82,48.63,182.66,48.63Z"/><path class="cls-14" d="M345.32,75.46a3.78,3.78,0,0,1-2.21-.68c-.41-.25-.08-.26-.07-.42,0-.32.14-.44.43-.28s.8.29,1.12.47a2.38,2.38,0,0,0,1.12.18,2.19,2.19,0,0,0,1.19-.86c.07-.23-.42-.94-.74-1.05a14,14,0,0,1-1.59-.49c-.59-.28-1.16-.51-1.37-1.33a1.53,1.53,0,0,1,.28-1.31,2.07,2.07,0,0,1,2-1,4.46,4.46,0,0,1,1.84.49c.13.07.31,0,.32.24s-.15.28-.26.37-.45.11-.73,0a3.75,3.75,0,0,0-1.41-.39,1.64,1.64,0,0,0-.73.28.66.66,0,0,0-.15,1.16,1.45,1.45,0,0,0,.87.47c.57,0,.94.44,1.47.56.73.15,1,.93,1.15,1.58a1.22,1.22,0,0,1-.29.93,2.11,2.11,0,0,1-1.83,1Z"/><path class="cls-14" d="M519.55,89.11a3.46,3.46,0,0,1-2-.68c-.4-.24-.09-.24-.07-.41,0-.45.18-.4.52-.22a3.75,3.75,0,0,0,2.15.59,2.38,2.38,0,0,0,1.18-.86c.08-.23-.4-1-.73-1A14,14,0,0,1,519,86c-.58-.27-1.33-.45-1.31-1.34-.45-.51,0-1,.22-1.29a2,2,0,0,1,2-1,4.5,4.5,0,0,1,1.84.49c.12.07.31,0,.32.24s-.15.28-.26.37-.45.11-.73,0a3.93,3.93,0,0,0-1.41-.38,1.44,1.44,0,0,0-.73.28.65.65,0,0,0-.16,1.15,1.52,1.52,0,0,0,.88.48c.56,0,.93.44,1.46.55.74.15,1,.94,1.15,1.58a1.28,1.28,0,0,1-.29.92,2,2,0,0,1-1.82,1C520,89.1,519.8,89.11,519.55,89.11Z"/><path class="cls-14" d="M473.32,83.48l-.56.57c-.27-.2-.57-.31-.84-.51a2,2,0,0,0-3,.68,2.76,2.76,0,0,0,0,3,2.15,2.15,0,0,0,2.55,1,2.76,2.76,0,0,0,1.27-.83l.5.66a3.32,3.32,0,0,1-4.72.19,3.69,3.69,0,0,1-.14-4.89A3.41,3.41,0,0,1,473.32,83.48Z"/><path class="cls-14" d="M364.78,70.42a8.22,8.22,0,0,0-1-.66,1.51,1.51,0,0,0-1.52-.22c-.49.24-1.17.24-1.25,1a2.85,2.85,0,0,0,0,3.31,2.39,2.39,0,0,0,2.41.77,2.31,2.31,0,0,0,1.19-.73l.55.56c-1,1.4-3.25,1.33-4.52.29a3.66,3.66,0,0,1-.21-5.06,3.08,3.08,0,0,1,2.49-.94,3.25,3.25,0,0,1,2.38,1.11Z"/><path class="cls-14" d="M195.27,43l-.15.17c-.44.43-.58.49-1,.1a2,2,0,0,0-2.3-.41,1.67,1.67,0,0,0-.82.6,3.4,3.4,0,0,0,0,3.64,2.59,2.59,0,0,0,2.37.71,2.37,2.37,0,0,0,1.33-.85l.59.6a3.39,3.39,0,0,1-4.81.22,3.7,3.7,0,0,1-.1-4.89A3.4,3.4,0,0,1,195.27,43Z"/><path class="cls-14" d="M174.37,96.14c.18.29-.13.41-.21.6-.62,1.46-1.27,2.91-1.91,4.36a5.37,5.37,0,0,0-.42.78c-.09.31-.2.42-.54.42a.69.69,0,0,1-.72-.46,32.23,32.23,0,0,0-1.39-3.26c-.37-.78-.68-1.61-1.07-2.47.39,0,.72-.18,1,0a1.68,1.68,0,0,1,.51.74,21.47,21.47,0,0,0,1.11,2.78c.13.34.22.7.36,1a.26.26,0,0,0,.46,0c.22-.59.53-1.17.69-1.75.2-.77.69-1.38.88-2.16S173.4,96.06,174.37,96.14Z"/><path class="cls-12" d="M275,88.85h-1V83.52c-.23-.26-.48-.15-.71-.15S273,83.19,273,83s.08-.36.34-.34.38,0,.64,0a2.34,2.34,0,0,1,.76-2.36c.68-.51,1.36-.12,2-.3a1.68,1.68,0,0,1,0,1c-1.62-.49-1.92-.21-1.79,1.69.51,0,1,0,1.53,0,.27,0,.34.1.33.35s0,.38-.3.37c-.51,0-1,0-1.58,0Z"/><path class="cls-14" d="M204.4,83.36c0,1.29,0,2.48,0,3.67,0,.86.58,1.32,1.36,1.06.21-.07.38-.34.54,0s-.13.79-.35.79a3.17,3.17,0,0,1-1.82-.22,1.28,1.28,0,0,1-.71-1.22c.05-1.31,0-2.63,0-3.94-.2-.22-.45-.11-.68-.11s-.28-.18-.29-.39.08-.36.34-.34.38,0,.61,0V80.8a1.69,1.69,0,0,1,1,0v1.86c.59,0,1.14,0,1.68,0,.24,0,.25.15.24.31s.06.42-.25.41Z"/><path class="cls-14" d="M195.52,56.29c-.25,0-.45,0-.64,0s-.33-.11-.33-.35,0-.4.3-.38h.63V53.81c.32-.31.63-.06,1-.2v2h1.43c.27,0,.56-.07.53.4s-.25.32-.47.32h-1.46c0,1.3,0,2.53,0,3.76a1,1,0,0,0,1.33,1c.21-.06.37-.35.58-.07s-.12.78-.33.8a2.89,2.89,0,0,1-1.92-.22,1.23,1.23,0,0,1-.64-1.16C195.55,59,195.52,57.7,195.52,56.29Z"/><path class="cls-14" d="M264.85,56.29c0,1.29,0,2.48,0,3.67,0,.86.58,1.32,1.36,1.06.21-.07.38-.34.55,0s-.14.79-.35.79a3.17,3.17,0,0,1-1.82-.22,1.26,1.26,0,0,1-.72-1.21c.06-1.32,0-2.63,0-4-.19-.22-.45-.11-.67-.11s-.29-.17-.29-.39.07-.36.33-.34.38,0,.61,0V53.78c.34-.25.64-.05.91-.14a1.67,1.67,0,0,1,.07.31c0,.51-.17,1.17.09,1.5s1,.08,1.47.12c.23,0,.36,0,.37.31s0,.44-.39.42S265.44,56.29,264.85,56.29Z"/><path class="cls-14" d="M278.53,94.12v1.94c.55,0,1.06,0,1.57,0,.24,0,.34.07.35.33s-.08.42-.4.4c-.47,0-.95,0-1.53,0,0,1.32,0,2.62,0,3.92a1,1,0,0,0,1.36.79c.22-.07.4-.33.54,0s-.14.79-.36.77c-.57,0-1.14.14-1.72-.2a1.27,1.27,0,0,1-.79-1.25c0-1.31,0-2.62,0-3.93-.21-.21-.46-.1-.68-.11s-.28-.2-.28-.4,0-.31.23-.33a1.27,1.27,0,0,0,.73-.09V94.24C277.85,94.06,278.14,94.17,278.53,94.12Z"/><path class="cls-14" d="M302.75,69.71h-.66c-.29,0-.29-.16-.3-.38s.07-.36.33-.34.38,0,.62,0V67.16a1.53,1.53,0,0,1,1,0V69h1.68c.23,0,.25.13.24.3s.07.42-.25.42h-1.67c0,1.3,0,2.6,0,3.9a1,1,0,0,0,1.35.83c.21-.07.38-.34.55,0s-.14.81-.35.79a3.77,3.77,0,0,1-1.71-.19,1.23,1.23,0,0,1-.81-1.24C302.77,72.46,302.75,71.14,302.75,69.71Z"/><path class="cls-14" d="M323.63,69c.59,0,1.11,0,1.62,0,.29,0,.29.15.3.37s-.06.36-.33.35h-1.59c0,1.24,0,2.43,0,3.61s.47,1.35,1.49,1a.52.52,0,0,1,.32,0c.18.09.09.28.1.43s-.18.38-.33.45a2.58,2.58,0,0,1-2.44-.67,1,1,0,0,1-.1-.68c0-1.34,0-2.69,0-4-.18-.19-.35-.11-.5-.12s-.46.07-.48-.33.26-.39.53-.39h.43V67.07c.24,0,.39,0,.55,0s.46,0,.43.36S323.63,68.39,323.63,69Z"/><path class="cls-14" d="M336.06,69c.64,0,1.15,0,1.67,0,.29,0,.29.16.3.37s-.07.36-.33.35h-1.6c0,1.24,0,2.43,0,3.62,0,1,.48,1.34,1.5,1a.52.52,0,0,1,.32,0c.17.09.08.28.1.43a.48.48,0,0,1-.33.45,2.63,2.63,0,0,1-2.36-.58.81.81,0,0,1-.19-.65V69.83c-.18-.19-.35-.11-.5-.12s-.45.06-.47-.33.26-.39.53-.39h.43V67.1h.93Z"/><path class="cls-14" d="M375.64,69c.64,0,1.15,0,1.67,0,.29,0,.29.15.3.37s-.07.36-.33.35h-1.6c0,1.24,0,2.43,0,3.61s.47,1.35,1.49,1a.52.52,0,0,1,.32,0c.18.09.09.28.1.43a.48.48,0,0,1-.33.45,2.64,2.64,0,0,1-2.36-.58.8.8,0,0,1-.18-.65c0-1.23,0-2.47,0-3.7v-.41c-.18-.19-.34-.11-.49-.12s-.46.07-.48-.33.26-.39.53-.39h.43V67.1h.93Z"/><path class="cls-17" d="M183.52,102.26h-.92V96.14c.23-.18.54-.06.84-.06.23.36-.06.79.16,1.14,1.55-1.38,1.55-1.38,2.48-1.36.13.08.08.21.08.32,0,.29.11.56-.42.62a2.11,2.11,0,0,0-1.87,1.45,5.06,5.06,0,0,0-.35,1.65C183.54,100.65,183.52,101.41,183.52,102.26Z"/><path class="cls-17" d="M176.82,61.88V55.67c.27-.19.55-.06.83-.1.25.34,0,.76.18,1.2.78-.56,1.27-1.62,2.47-1.42.18.13.08.34.1.53s0,.38-.36.43a2.15,2.15,0,0,0-1.77,1.1,6.14,6.14,0,0,0-.48,1.94,20.34,20.34,0,0,0,0,2.34C177.48,61.91,177.19,61.73,176.82,61.88Z"/><path class="cls-17" d="M421.26,88.85h-.92V82.67h.84c.23.35-.06.78.18,1.16.75-.59,1.26-1.62,2.42-1.41.17.1.12.23.12.34,0,.29.12.57-.42.63a2.09,2.09,0,0,0-1.86,1.44,4.83,4.83,0,0,0-.36,1.65C421.28,87.23,421.26,88,421.26,88.85Z"/><path class="cls-17" d="M512.94,82.66h.84c.23.37-.06.8.18,1.17.76-.58,1.25-1.64,2.5-1.39a2,2,0,0,1,0,.34c0,.29.1.55-.43.61a2.09,2.09,0,0,0-1.86,1.45,5.12,5.12,0,0,0-.35,1.65c0,.75,0,1.51,0,2.26-.28.28-.6,0-.93.17Z"/><path class="cls-17" d="M230.3,61.71a1.73,1.73,0,0,1-.9.08V55.64c.24-.14.52,0,.82-.06.18.35,0,.76.12,1.2.82-.57,1.3-1.66,2.52-1.42.13.1.08.27.08.42s.07.47-.38.54a2.06,2.06,0,0,0-1.88,1.42,5.77,5.77,0,0,0-.38,1.75C230.32,60.24,230.3,61,230.3,61.71Z"/><path class="cls-17" d="M245.9,61.77H245V55.64a1.86,1.86,0,0,1,.89,0v1.31c.43-.43.74-.7,1-1a1.87,1.87,0,0,1,1-.55c.55-.17.76.09.69.68,0,.31-.24.22-.42.27a2.25,2.25,0,0,0-1.87,1.45,5.35,5.35,0,0,0-.36,1.64C245.91,60.17,245.9,61,245.9,61.77Z"/><path class="cls-17" d="M248.06,75.21h-.9V69.06c.22-.18.51,0,.78-.11.23.39.05.79.16,1.24.81-.56,1.29-1.64,2.51-1.42.16.13.06.34.09.53s0,.38-.38.43a2.14,2.14,0,0,0-1.76,1.1,6.14,6.14,0,0,0-.48,1.94C248,73.55,248.06,74.35,248.06,75.21Z"/><path class="cls-18" d="M188.56,102.26h-1V93.54c.27-.21.58-.1,1-.09v8.81Z"/><path class="cls-18" d="M222.19,66.38h.88v8.75c-.23.18-.54.07-.88.06Z"/><path class="cls-18" d="M350.45,75.2h-.88V66.44c.24-.18.55-.07.88-.06Z"/><path class="cls-19" d="M297.48,82.67h.87a.63.63,0,0,1,.08.23q0,3.1,0,6.21c0,1.18-.61,1.73-1.8,1.68-.24,0-.38-.05-.35-.32s0-.33.26-.42c.83-.24.93-.4.94-1.19Z"/><path class="cls-19" d="M326,82.67h.88a.63.63,0,0,1,.08.23c0,2.07,0,4.14,0,6.21a1.62,1.62,0,0,1-1.82,1.69c-.23,0-.38-.06-.36-.33s0-.33.26-.42c.84-.24.94-.4.94-1.19C326,86.83,326,84.8,326,82.67Z"/><path class="cls-15" d="M494.43,88.15c-.54,1.1-1.56,1-2.52.94a2,2,0,0,1-1.6-1.31,1.36,1.36,0,0,1-.19-.64V82.75c.28-.2.56-.07.83-.11a.32.32,0,0,1,.13.3c0,1.16,0,2.32,0,3.47a1.8,1.8,0,0,0,2.82,1.67c.1,0,.14-.21.29-.17l.09,0a.4.4,0,0,1,.13.13Z"/><path class="cls-12" d="M494.19,87.91a3.09,3.09,0,0,0,.5-1.83c0-1.11,0-2.23,0-3.36a1.59,1.59,0,0,1,.94,0v6.09c-.12.16-.29.07-.44.09-.3,0-.56,0-.5-.41,0-.16,0-.33-.24-.31A2.72,2.72,0,0,0,494.19,87.91Z"/><path class="cls-20" d="M295.3,82.64v6.14c-.27.17-.55.06-.82.09-.11-.07-.12-.18-.12-.31V83.43C294.36,82.66,294.36,82.66,295.3,82.64Z"/><path class="cls-20" d="M178.45,48.37h-.88V42.24c.23-.17.54-.07.88-.05Z"/><path class="cls-20" d="M186.92,42.18h.89v6.13c-.24.23-.56,0-.89.13Z"/><path class="cls-20" d="M268.49,55.6h.88v6.12c-.22.25-.55,0-.88.15Z"/><path class="cls-20" d="M308.47,75.19h-.88V69.07c.24-.17.55-.07.88,0Z"/><path class="cls-20" d="M267,69h.92v6.21c-.19,0-.34,0-.49,0s-.44,0-.44-.36C267,72.92,267,71,267,69Z"/><path class="cls-20" d="M222.11,102.26h-.89V96.14c.24-.23.56,0,.89-.13Z"/><path class="cls-20" d="M322.94,82.66h.89v6.13c-.24.17-.55.07-.89,0Z"/><path class="cls-7" d="M343.08,22.24V20.4h2.11c.06.57,0,1.18,0,1.84Z"/><path class="cls-7" d="M185.42,20.38h2.14v1.84c-.06.1-.23.06-.38.06l-1.65,0A10.82,10.82,0,0,1,185.42,20.38Z"/><path class="cls-7" d="M282.38,22.24V20.4h2.12c.06.57,0,1.18,0,1.84Z"/><path class="cls-7" d="M203.24,20.38h2.07v1.88c-.64,0-1.34,0-2.07,0Z"/><path class="cls-21" d="M405.76,87.7h1.35a4.56,4.56,0,0,1-.21,1.89c-.23.45-.64.5-1,.7s-.38-.16-.43-.3.2-.09.28-.17a4,4,0,0,0,.59-.58.37.37,0,0,0-.05-.3C405.49,88.72,406.17,88.1,405.76,87.7Z"/><path class="cls-21" d="M307.78,87.7H309a4.68,4.68,0,0,1-.23,1.92c-.23.42-.64.48-1,.68-.16.09-.26-.14-.36-.24s0-.2.15-.23.4-.36.61-.52a.32.32,0,0,0,.08-.31C307.51,88.82,307.86,88.22,307.78,87.7Z"/><path class="cls-21" d="M523.55,87.7h1.35a4.56,4.56,0,0,1-.21,1.89c-.23.45-.64.5-1,.7s-.38-.16-.43-.3.2-.09.29-.17a4,4,0,0,0,.58-.58.37.37,0,0,0,0-.3C523.29,88.72,524,88.1,523.55,87.7Z"/><path class="cls-21" d="M239.55,101.11h1.31c0,.39,0,.78,0,1.17a1.64,1.64,0,0,1-1.07,1.43.4.4,0,0,1-.48-.23c-.25-.38.15-.17.24-.25l.5-.5c.13-.13.16-.35,0-.39C239.32,102.16,239.84,101.57,239.55,101.11Z"/><path class="cls-20" d="M205.55,43.34h-1.11V42.22a3.32,3.32,0,0,1,1.11,0Z"/><path class="cls-20" d="M241.84,83.8V82.68h1.1c.19.32,0,.71.11,1.12Z"/><path class="cls-20" d="M204.41,48.35V47.23h1.13a3.4,3.4,0,0,1,0,1.12Z"/><path class="cls-20" d="M200.1,56.73V55.61h1.12a3.16,3.16,0,0,1,0,1.12Z"/><path class="cls-20" d="M241.84,88.87V87.72H243c.05,0,.07.13.07.25,0,.89,0,.89-1,.9Z"/><path class="cls-20" d="M380.2,75.22h-1.12V74.1c.32-.19.71,0,1.12-.12Z"/><path class="cls-20" d="M279.22,74.06v1.12H278.1a3.4,3.4,0,0,1,0-1.12Z"/><path class="cls-20" d="M288.86,102.24v-1.11H290a3.33,3.33,0,0,1,0,1.11Z"/><path class="cls-20" d="M278,69h1.16v1.11s-.13.07-.25.07c-.9,0-.9,0-.91-1Z"/><path class="cls-20" d="M279.52,60.6h1.05c.06.08.11.1.11.13,0,.32,0,.64,0,1-.36.22-.74,0-1.16.14Z"/><path class="cls-20" d="M200.12,60.63h1.12v1.12a3.4,3.4,0,0,1-1.12,0Z"/><path class="cls-22" d="M178.47,39.8v.88h-1.1c-.17-.23-.07-.54-.05-.88Z"/><path class="cls-22" d="M187.86,40.7h-1.13c-.16-.27-.06-.55-.09-.86a3,3,0,0,1,1.11-.06C187.92,40.06,187.81,40.34,187.86,40.7Z"/><path class="cls-22" d="M268.19,53.2h1.13c.17.27.05.55.09.81-.12.12-1,.23-1.11.08S268.25,53.57,268.19,53.2Z"/><path class="cls-22" d="M327,81.19h-1.13c-.16-.28-.05-.56-.09-.84.36-.22.75,0,1.1-.12C327.06,80.54,327,80.82,327,81.19Z"/><path class="cls-22" d="M323.85,80.29v.88h-1.1c-.17-.24-.07-.54-.05-.88Z"/><path class="cls-22" d="M297.26,81.17v-.88h1.1c.16.23.07.54,0,.88Z"/><path class="cls-22" d="M294.1,80.27h1.13c.17.26,0,.54.09.81-.12.12-1,.23-1.11.08S294.15,80.64,294.1,80.27Z"/><path class="cls-22" d="M268,66.59v.92h-1.11c-.19-.18,0-.47-.06-.73s.19-.19.35-.19Z"/><path class="cls-22" d="M308.49,66.63v.88h-1.1c-.17-.23-.06-.54-.05-.88Z"/><path class="cls-22" d="M221,94.58V93.7h1.1c.16.24.07.54,0,.88Z"/><path class="cls-23" d="M455.33,29c0-.23.21-.34.52-.51-.12.39.17.75-.28,1C455.53,29.28,455.69,29,455.33,29Z"/><path class="cls-24" d="M137.22,45.51c.24,0,.24.15.24.31a15.41,15.41,0,0,1,0,2.15c-.25,1.72-.54,3.45-2,4.68a15.36,15.36,0,0,1-2.5,1.48c-.28.17-.6.26-.89.45-.59.38-.82.63-.56,1.15A17.74,17.74,0,0,1,132.81,60a9.12,9.12,0,0,1,.33,2.86,1.88,1.88,0,0,1-1.42,1.83,7.18,7.18,0,0,1-2.55.49c-.48-.06-.85.31-1.34.26a3.57,3.57,0,0,0-1.35.18,8.94,8.94,0,0,1-2.14,0,.47.47,0,0,1-.47-.3c-.25-.77-1.16-1-1.35-2.08a2.63,2.63,0,0,0-.16,1.43,9,9,0,0,1-1.87,5.81,14.23,14.23,0,0,1-1.7,1.93c-.5.52-1,1.06-1.48,1.59a2.73,2.73,0,0,0-.23.25,11.6,11.6,0,0,1-3.8,2.4c-1.06.45-2,.9-2.21,2.14-.46-.15-.2-.52-.22-.79-.06-.61,0-.55-.66-.42a22.74,22.74,0,0,1-4.15,1c-.56.41-1.28,0-1.8.29s-1.16,0-1.71.2a18.05,18.05,0,0,1-4.46.22c-1.48,0-3,0-4.43,0a3.46,3.46,0,0,1-1.48-.19c-.47-.21-1.2.11-1.61-.13s-1.07.15-1.41-.38c-1.52.06-2.8-.87-4.28-1a7.59,7.59,0,0,0-2.15-.87,51.1,51.1,0,0,1-4.9-2.33c-.42-.21-.54.08-.8.09-2,1-4.19.88-6.32.77a15,15,0,0,1-7-2.17,4.48,4.48,0,0,1-2-2A17.3,17.3,0,0,1,60,68.91c0-.08-.13-.2-.27-.16a6.67,6.67,0,0,1-.94-3.54c-.15-2.7.15-5.34,1.93-7.58a3.83,3.83,0,0,1,1.64-1.34,13.08,13.08,0,0,1,3.84-2c.87-.23,1.73-.47,2.62-.63.61-.11,1.24-.12,1.81-.26s1.27-.05,1.82-.24,1,0,1.46-.23a5.46,5.46,0,0,1,1.47-.22,18.42,18.42,0,0,1,3.76-.47c.53-.38,1.19-.06,1.69-.27a5.05,5.05,0,0,1,1.71-.21c.46,0,.85-.32,1.34-.25a1.34,1.34,0,0,0,1.22-.22s.08,0,.12,0c1.06.15,2.07-.37,3.14-.24.58.07,1.09-.34,1.7-.26a2,2,0,0,0,1.58-.21s.16,0,.24,0a10.19,10.19,0,0,0,2.59-.1,9.73,9.73,0,0,1,2.46-.13c.88,0,1.76,0,2.64,0,1.17,0,2.31-.31,3.5-.27a14.19,14.19,0,0,0,1.94.29,5.56,5.56,0,0,1,1.91,0c1,.27,2.14.16,3.16.48a1,1,0,0,0,1.07-.18A40.36,40.36,0,0,0,114.74,48a76.55,76.55,0,0,0,5.73-5.52,11.76,11.76,0,0,1,4.32-2.61,6.53,6.53,0,0,1,3.73-.12c.48.08,1,.15,1.45.28a4.38,4.38,0,0,1,2.31,1.38,1.29,1.29,0,0,1,.39,1,6.15,6.15,0,0,0,0,1,1,1,0,0,0,1,.91,10.25,10.25,0,0,1,2.06-.24c.16,0,.33,0,.31.25-.19.39-1.08.11-.87.85a2.24,2.24,0,0,0,1.25,1.33c.27.14.45,0,.52-.25S137,45.7,137.22,45.51Z"/><path class="cls-7" d="M62.37,56.29c0,.42-.59.39-.69.65s-.44.53-.64.8a7,7,0,0,0-1.57,3.41A20.56,20.56,0,0,0,59,64.64a13.56,13.56,0,0,0,.57,3.1,7.41,7.41,0,0,1,.14,1,11.49,11.49,0,0,1-2,6,7.73,7.73,0,0,1-3.43,2.94,15.79,15.79,0,0,1-2.34.71,18.28,18.28,0,0,1-2.66.21,3.18,3.18,0,0,0,.53-2.68c-.53.52-1,1-1.53,1.52A7.83,7.83,0,0,1,45.36,79c-.2.07-.28-.1-.26-.28s.18-.32.26-.49a8,8,0,0,0,.46-3.63V72.87c-.35.93-.8,1.78-1.2,2.66a.23.23,0,0,1-.26.17c-.14,0-.17-.1-.23-.21a2.2,2.2,0,0,1-.25-1.1c0-.11-.19-.25-.32-.33s-.17.11-.24.19c-.32.35-.81.38-1.16.67-.13.1-.19-.08-.25-.14s-.22-.08-.08-.26c.69-.88.65-2,1.1-3-.13-.79.42-1.5.25-2.29.08-.24.39-.59-.24-.48a10.12,10.12,0,0,1-2.62,3.47c-.34.32-.83.43-1.09.84-.32-.15-.44.43-.73.22s.28-.5.12-.8c.51-.59.14-1.29.22-1.94,0-.12-.26-.18-.38-.06a3.17,3.17,0,0,1-1.19.88c-.3-.52,0-1,.25-1.38a8.29,8.29,0,0,0,.86-3.11c0-.47.36-.84.26-1.34a7.68,7.68,0,0,1,0-1.37,5.47,5.47,0,0,0-1.86,2.6,11.81,11.81,0,0,0-1.1,2.9c-.06.43-.41.79-.4,1.27,0,.22-.24.29-.42.57A8.65,8.65,0,0,1,35.05,68a20.25,20.25,0,0,1,.87-2.63c.39-.83.69-1.71,1-2.57l-.07-.07.08-.06h-.1l-.15.13a9.48,9.48,0,0,0-2,1.43,22.8,22.8,0,0,1-2.77,1.92.15.15,0,0,1-.12-.17.34.34,0,0,1,0-.2.3.3,0,0,1,.08-.08s0,0,0,0a.54.54,0,0,0-.05.11.44.44,0,0,0-.08.15L31.7,66a.33.33,0,0,1-.17.12h-.1a.56.56,0,0,0-.6.24.54.54,0,0,1-.6.24q-.12.15-.24,0a39.35,39.35,0,0,1,4.43-4.79c.29-.31.68-.54.85-1l0-.12a2,2,0,0,1,.19-.22c.11-.09.21-.2.31-.3a.7.7,0,0,1,.19-.15l0-.1L36,60a1.21,1.21,0,0,0-.16.16c-.09.09-.17.18-.26.26a3.36,3.36,0,0,1-.29.24A.21.21,0,0,1,35,60.6c-.92.48-1.84,1-2.77,1.44a1,1,0,0,1-.35,0,.14.14,0,0,1-.24,0c.21-.64.73-1.1,1-1.74A7.68,7.68,0,0,0,33.18,59c0-.08.26-.11.07-.25a.25.25,0,0,0-.22,0,17.5,17.5,0,0,0-3.71,2.42A1.55,1.55,0,0,1,29.47,60c.33-.56.77-1,1.14-1.55.05-.08.35.1.27-.17s-.23-.3-.34-.29a2.62,2.62,0,0,0-1.47.2,6,6,0,0,0-1.7,1.07c-.11.14-.27.22-.4.12s.25-.25.14-.46,0-.15,0-.23l-.24-.24a5.07,5.07,0,0,1-2.21.72A7.07,7.07,0,0,1,27.33,57a5.73,5.73,0,0,1,1.73-.44,15.3,15.3,0,0,1,3.58,0c1,.15,1.93.12,2.89.21.57.05,1-.27,1.58-.27a7.5,7.5,0,0,1,1.7.24c.55.12,1.17-.15,1.69.25.83-.17,1.58.35,2.41.25s1.34.33,2.06.25a16.89,16.89,0,0,0,2.54-.23,3,3,0,0,1,1.81.19c.53.2,1.18-.2,1.69.26,1.2-.14,2.41.24,3.62-.21.47-.18,1-.07,1.57-.24a23.76,23.76,0,0,1,2.7-.69,6.76,6.76,0,0,1,2.16-.31A8.19,8.19,0,0,0,62.37,56.29Z"/><path class="cls-7" d="M61.65,71.14c.67.34,1.05,1,1.71,1.38a16.93,16.93,0,0,0,4.69,2A20.8,20.8,0,0,0,71,75a16.7,16.7,0,0,0,3,0,11.56,11.56,0,0,1,1.58-.22c.5,0,.93-.4,1.46-.23-.87,2.2-2.58,3.75-4.26,5.29a12.34,12.34,0,0,1-3.55,2.1,6.72,6.72,0,0,0-2.85,2.37,10.69,10.69,0,0,0-1.41,2.18,7.05,7.05,0,0,0-.66,2.81c.26.17.26-.13.39-.14a7.48,7.48,0,0,1,2.49.37,4.41,4.41,0,0,1,2,1.51c.33.34.08.75.17,1.12-1,.15-8.53.19-10.76.06a2,2,0,0,1,.17-1.08,5.7,5.7,0,0,1,1.58-2.7,3.59,3.59,0,0,0,.67-.68c.17-.28.43-.53.42-.9s-.07-.7.22-1c.07-.08,0-.32,0-.45s-.19-.22-.2-.4a17.93,17.93,0,0,1-.21-4.44c.41-2.41.12-4.81.19-7.21C61.41,72.58,61.84,71.9,61.65,71.14Z"/><path class="cls-7" d="M111.07,78.81v-.24c0-.46-.2-1.06.11-1.35a3.46,3.46,0,0,1,1.1-.44A18,18,0,0,0,117.07,74a1.36,1.36,0,0,1,.24.24c-.19,1.26-.61,2.48-.75,3.76-.12,1-.33,2.1-.5,3.15a13.32,13.32,0,0,1-.22,1.82,4.72,4.72,0,0,0-.19,1.82c0,.35-.31.52-.27.86a3.84,3.84,0,0,1,0,.83,2.19,2.19,0,0,0,.68,1.52c.34.43.75.36,1.18.37a5.89,5.89,0,0,0,.84,0c1.55-.21,2.53.74,3.45,1.75a1.37,1.37,0,0,1,.34.93c0,.75-.12.91-.86.91-3.12,0-6.23,0-9.35,0a2.36,2.36,0,0,1-1-.3c-.46-.2-.51-.6-.36-1.2.24-1,.37-1.93.52-2.9a37.5,37.5,0,0,0,.22-4.09c0-.41.38-.79.22-1.22C110.88,81.16,111.16,80,111.07,78.81Z"/><path class="cls-25" d="M137.22,45.51v1.74a3.92,3.92,0,0,1-2.63-2.42.36.36,0,0,1,.37-.51H136C136.92,44.38,137.16,44.62,137.22,45.51Z"/><path class="cls-26" d="M42.94,68.75c0-.11,0-.25,0-.34a1.17,1.17,0,0,1,.42-.36c-.07.4.31.85-.19,1.18C43.15,69.05,43.3,68.77,42.94,68.75Z"/><path class="cls-27" d="M30,66.59h.24a.6.6,0,0,1-.48.48.14.14,0,0,1-.24,0A.6.6,0,0,1,30,66.59Z"/><path class="cls-28" d="M31.91,65.87v.24c0,.23-.14.26-.3.24a.19.19,0,0,1-.18-.24,1.36,1.36,0,0,0,.24-.24A.15.15,0,0,1,31.91,65.87Z"/><path class="cls-29" d="M31.67,62h.24c0,.36-.3.21-.48.24Q31.42,62,31.67,62Z"/><path class="cls-30" d="M29.51,67.07h.24c0,.2-.11.25-.27.24s-.17-.06-.17-.09S29.39,67.06,29.51,67.07Z"/><path class="cls-31" d="M31.43,62.39c-.05,0-.11.11-.14.1s-.11-.1-.05-.14l.19-.07Z"/><path class="cls-1" d="M36.7,62.76c0-.17.08-.24.24-.24v.24Z"/><path class="cls-1" d="M35,60.6h.24c.06.06.08.11.06.16s0,.08-.06.08Q35,60.86,35,60.6Z"/><path class="cls-1" d="M26.87,58.45q.24,0,.24.24Q26.86,58.69,26.87,58.45Z"/><path class="cls-7" d="M117.31,74.26c-.16,0-.24-.07-.24-.24h.24Z"/><path class="cls-32" d="M239.48,41.46h1.16c-.12.45,0,.84-.21,1.33a3.46,3.46,0,0,0,0,1.64c0,.35-.16.37-.43.37s-.33-.14-.3-.37C239.82,43.46,239.19,42.55,239.48,41.46Z"/><path class="cls-33" d="M240.62,46.45h-1.16V45.34c0-.05.14-.07.26-.07.89,0,.89,0,.9.95Z"/><path class="cls-32" d="M227.71,41.44c.31,0,.58,0,.85,0s.26.14.32.35c.13.5-.28.87-.26,1.33s0,1,0,1.43c0,.32-.24.23-.42.24s-.33,0-.3-.24C228,43.54,227.49,42.58,227.71,41.44Z"/><path class="cls-33" d="M227.69,46.43V45.32h1.12a3.08,3.08,0,0,1,0,1.11Z"/><path class="cls-32" d="M217.15,41.48c-.15.44,0,.82-.2,1.27a4.76,4.76,0,0,0-.08,1.74c0,.28-.13.32-.36.31s-.38,0-.35-.19c.16-1-.48-2-.19-3.13Z"/><path class="cls-33" d="M215.93,46.43V45.32h1.12a3.3,3.3,0,0,1,0,1.11Z"/><path class="cls-34" d="M454,24.43a1.51,1.51,0,0,1,1.15.42c.45.32.28,1,.68,1.38-.4.38-.23,1.06-.69,1.38a1.69,1.69,0,0,1-1,.43,1.86,1.86,0,0,1-1.89-1.75A1.84,1.84,0,0,1,454,24.43Z"/><path class="cls-34" d="M437.84,24.43a1.87,1.87,0,0,1,1.64,1.48,2.17,2.17,0,0,0,.25.62c.1.25-.3.35-.24.62a.94.94,0,0,1-.38.92,2.4,2.4,0,0,1-1,.66,1.74,1.74,0,0,1-1.69-.93,3.17,3.17,0,0,1,0-2.42A1.84,1.84,0,0,1,437.84,24.43Z"/><path class="cls-34" d="M416.71,26.66a1.72,1.72,0,0,1-1.06,1.86,1.78,1.78,0,0,1-2.54-1.36c0-.32,0-.64,0-1A1.82,1.82,0,0,1,415,24.43a1.84,1.84,0,0,1,1.74,1.77Z"/><path class="cls-34" d="M246.62,26.56a1.83,1.83,0,1,1-3.6.62c0-.32,0-.64,0-1a1.8,1.8,0,0,1,3.6,0Z"/><path class="cls-34" d="M425.82,26.71a1.71,1.71,0,0,1-.88,1.78,1.77,1.77,0,0,1-2.66-1,2.76,2.76,0,0,1,0-1.75,1.91,1.91,0,0,1,2.08-1.26,2,2,0,0,1,1.44,1.83C425.83,26.38,425.82,26.5,425.82,26.71Z"/><path class="cls-35" d="M313.51,26.11a1.45,1.45,0,0,1-.36,0c-.34-.11-.82.29-1-.23-.12-.29.39-1,.8-1.21a1.16,1.16,0,0,1,1.83.57c.43.83.41.86-.53.87Z"/><path class="cls-35" d="M337.8,26.11h-1.19c-.31,0-.31-.21-.26-.39a1.82,1.82,0,0,1,.74-1,1.38,1.38,0,0,1,2.13,1.1c0,.15,0,.32-.22.32Z"/><path class="cls-35" d="M289.5,26.11c-.32,0-.64,0-.95,0s-.63-.39-.33-.66.29-.59.6-.79A1.44,1.44,0,0,1,291,25.75c0,.23,0,.37-.31.36Z"/><path class="cls-35" d="M392.18,26.11c-.36,0-.72,0-1.08,0a.32.32,0,0,1-.29-.48,3.16,3.16,0,0,1,.7-.94,1.4,1.4,0,0,1,2.17,1.06c0,.24,0,.37-.31.36Z"/><path class="cls-36" d="M192.39,27.07a1.48,1.48,0,0,1,.47,0c.32.1.63.26.94.39-.34.23-.11.59-.21.86s-.43.34-.73.45a1.51,1.51,0,0,1-1.18.1A1.24,1.24,0,0,1,191,28c-.06-.21.26-.34.28-.6s.38-.14.56-.32.38,0,.58,0Z"/><path class="cls-36" d="M226.94,27.07c.22,0,.55-.12.66.08.18.35.63-.07.74.32-.43.25,0,.77-.33,1.06a.89.89,0,0,1-.5.23c-.4.06-.76.35-1.2.19a1.76,1.76,0,0,1-.8-.94,1.78,1.78,0,0,1,1-.94A3.84,3.84,0,0,1,226.94,27.07Z"/><path class="cls-36" d="M273,27.47c-.44.26-.05.73-.33,1.07s-.76.05-1,.42c-.07.1-.49.11-.76-.08s-.78-.69-.7-.87a1.43,1.43,0,0,1,.65-.8c.76-.43,1.4.11,2.1.11C272.91,27.32,272.94,27.42,273,27.47Z"/><path class="cls-36" d="M362.5,27.07c.22,0,.54-.12.66.09s.82.05.66.3.07.79-.27,1.08a1.06,1.06,0,0,1-.51.22c-.37.07-.69.33-1.09.23s-.92-.73-.9-1a1.56,1.56,0,0,1,1-.92A3.84,3.84,0,0,1,362.5,27.07Z"/><path class="cls-36" d="M462.39,27.09c.37,0,.68-.08.74,0,.22.33.61.09.83.32-.32.21-.22.55-.23.85,0,0,0,.09,0,.11-.31.44-.84.46-1.29.58a.9.9,0,0,1-1.1-.51c-.08-.18-.43-.36-.18-.57s.1-.55.54-.64C462,27.18,462.26,27.1,462.39,27.09Z"/><path class="cls-6" d="M169.87,74.5V71.38c1.07,0,2.14-.06,3.2,0a1.93,1.93,0,0,1,1.23.45c.95.93.67,1.95-.6,2.41a3.32,3.32,0,0,1-1.22.22Z"/><path class="cls-37" d="M169.87,70.67V67.31c1,0,2,0,3,0a2.1,2.1,0,0,1,1.56,1.33,1.77,1.77,0,0,1-.78,1.68,2.62,2.62,0,0,1-1.29.34,1.92,1.92,0,0,0-.24,0Z"/><path class="cls-6" d="M169.89,40.48c.94,0,1.86,0,2.76,0A3.76,3.76,0,0,1,174,41a1.19,1.19,0,0,1,.61.68,3,3,0,0,1,0,1.4,1.85,1.85,0,0,1-1.82,1.27c-.94.07-1.89,0-2.88,0Z"/><path class="cls-34" d="M232.22,98.85a2.27,2.27,0,0,1,2.2-2.33,2.36,2.36,0,0,1,1.54.58,3,3,0,0,1,.82,1.66,5.52,5.52,0,0,1-.72,1.72,3.4,3.4,0,0,1-1.54.61,3,3,0,0,1-1.63-.65A1.8,1.8,0,0,1,232.22,98.85Z"/><path class="cls-34" d="M274.49,56.05a2.85,2.85,0,0,1,1.63.64,4.67,4.67,0,0,1,.72,1.71,7.73,7.73,0,0,1-.72,1.6c-.51.2-.93.63-1.54.61A3.1,3.1,0,0,1,273,60a2.09,2.09,0,0,1-.67-1.75A2.23,2.23,0,0,1,274.49,56.05Z"/><path class="cls-34" d="M311.15,71.77A2.23,2.23,0,0,1,314.89,70a2.52,2.52,0,0,1,.8,1.66,2.34,2.34,0,0,1-.75,1.69,1.93,1.93,0,0,1-1.5.63,2.47,2.47,0,0,1-1.64-.66A1.86,1.86,0,0,1,311.15,71.77Z"/><path class="cls-37" d="M270.63,72c-.22-.69.29-1.2.54-1.78s.86-.59,1.34-.76a1.57,1.57,0,0,1,1.4.33,2.74,2.74,0,0,1,0,4.55,1.52,1.52,0,0,1-1.5.34c-.5-.24-1.11-.31-1.39-1A3.22,3.22,0,0,1,270.63,72Z"/><path class="cls-37" d="M498.3,85.69c-.23-.7.29-1.21.53-1.79s.87-.58,1.35-.76a1.55,1.55,0,0,1,1.39.33,2.75,2.75,0,0,1,0,4.56,1.56,1.56,0,0,1-1.51.33c-.5-.23-1.1-.3-1.39-1A3.26,3.26,0,0,1,498.3,85.69Z"/><path class="cls-37" d="M207.31,72.13c-.25-.71.24-1.24.47-1.82s.91-.68,1.44-.82a1.94,1.94,0,0,1,1.48.42,3,3,0,0,1,1.11,2,2.74,2.74,0,0,1-.56,1.78,2,2,0,0,1-1.62,1,1.77,1.77,0,0,1-1.8-.78C207.53,73.4,207.05,72.85,207.31,72.13Z"/><path class="cls-37" d="M280.64,83.08a2.84,2.84,0,0,1,2,1.25,2.8,2.8,0,0,1-.68,3.64,2.11,2.11,0,0,1-2.69-.18,3.07,3.07,0,0,1,0-4.07C279.6,83.25,280.19,83.31,280.64,83.08Z"/><path class="cls-37" d="M366.12,85.69c-.22-.71.24-1.25.54-1.79a2.15,2.15,0,0,1,2.85-.37,3.25,3.25,0,0,1,1.11,2,2.71,2.71,0,0,1-.62,1.88,2,2,0,0,1-1.65.91,1.81,1.81,0,0,1-1.76-.85A2.33,2.33,0,0,1,366.12,85.69Z"/><path class="cls-34" d="M230.53,72a3.73,3.73,0,0,1-.49,1.92c-.22.6-.89.69-1.42.84a1.81,1.81,0,0,1-1.51-.39A3.43,3.43,0,0,1,226,72.39a5.1,5.1,0,0,1,.47-1.84c.52-.51,1-1.12,1.83-1.09a2.17,2.17,0,0,1,2,1.5C230.35,71.33,230.85,71.6,230.53,72Z"/><path class="cls-34" d="M200.56,85.55a3.78,3.78,0,0,1-.54,2,2,2,0,0,1-2.74.5c-.42-.36-1-.66-1-1.36,0-.53-.6-1.06,0-1.59-.2-.85.48-1.22,1-1.62a1.3,1.3,0,0,1,1.77-.16C200.36,83.6,200.3,84.79,200.56,85.55Z"/><path class="cls-34" d="M291.47,85.7a3.87,3.87,0,0,1-.48,1.82c-.24.61-.9.69-1.42.84a1.55,1.55,0,0,1-1.5-.37A2.66,2.66,0,0,1,287,86.16a2.57,2.57,0,0,1,2.33-3,2.22,2.22,0,0,1,1.89,1.47C291.29,85,291.75,85.33,291.47,85.7Z"/><path class="cls-34" d="M320,85.75a3.21,3.21,0,0,1-.53,1.82,2,2,0,0,1-2.73.51c-.43-.35-1-.66-1.05-1.35,0-.53-.62-1.06,0-1.59-.2-.85.47-1.23,1-1.62a1.41,1.41,0,0,1,1.79-.2c.34.21.88.26,1,.62A3.53,3.53,0,0,1,320,85.75Z"/><path class="cls-38" d="M342.78,85.76c.52-.19,1,.36,1.53.25.21,0,.19.19.19.35a1.84,1.84,0,0,1-.53,1.43,2.42,2.42,0,0,1-2,.59c-.16-.38-.56-.18-.83-.32s-.1-.62-.33-.82,0-.21,0-.35A1.75,1.75,0,0,1,342.78,85.76Z"/><path class="cls-38" d="M349.42,88.39c-.46.18-.75-.31-1.21-.28-.31,0-.54-.94-.35-1.29a2,2,0,0,1,2.6-1c.1,0,.17.14.3.14s.57-.13.65.11a.86.86,0,0,1-.1.88c-.2.26,0,.76-.43.88S350,88.48,349.42,88.39Z"/><path class="cls-38" d="M194.77,72.1c.51-.18,1,.37,1.52.25.21,0,.19.2.19.35a2,2,0,0,1-2.71,1.89c-.63-.17-.9-.4-1-1a.43.43,0,0,1,0-.35A1.76,1.76,0,0,1,194.77,72.1Z"/><path class="cls-38" d="M237.43,72.31c.22.72-.18,1.19-.31,1.73-.74.37-1.42,1.11-2.36.47-.68.08-.86-.32-.92-.89,0-.11-.15-.15-.05-.35a2,2,0,0,1,1.65-1.18C236.13,72,236.71,72.47,237.43,72.31Z"/><path class="cls-38" d="M242.45,74.73c-.48.18-.78-.3-1.24-.27-.3,0-.53-.95-.35-1.29a2,2,0,0,1,2.61-1c.1,0,.16.14.3.15s.57-.13.65.11a.89.89,0,0,1-.1.88c-.21.25,0,.77-.44.88S243,74.86,242.45,74.73Z"/><path class="cls-38" d="M299.58,72.35a2.27,2.27,0,0,1-.29,1.61c-.17.47-.81.49-1.22.73a1.58,1.58,0,0,1-1.12-.07c-.57-.19-1-.34-1-1,0-.11-.11-.17,0-.35a1.85,1.85,0,0,1,1.66-1.16C298.28,72,298.87,72.41,299.58,72.35Z"/><path class="cls-38" d="M267.42,99.38c.21.72-.18,1.2-.31,1.73-.75.37-1.42,1.11-2.37.47-.69.09-.85-.33-.91-.9,0-.11-.15-.14-.05-.34a2,2,0,0,1,1.65-1.19C266.12,99.07,266.7,99.54,267.42,99.38Z"/><path class="cls-38" d="M195,99.48a2,2,0,0,1-.35,1.6c-.31.57-1.58.79-2.25.6s-1-.25-1-1c0-.14-.06-.24,0-.43a2,2,0,0,1,2.61-1C194.35,99.4,194.7,99.27,195,99.48Z"/><path class="cls-39" d="M232,85.28h-3.64c-.48,0-.64-.23-.43-.65a2.81,2.81,0,0,1,1.12-1.27,1.68,1.68,0,0,1,2.41.74c.07.15.25.23.24.37A1.13,1.13,0,0,0,232,85.28Z"/><path class="cls-39" d="M180.05,98.69c-1.2,0-2.4,0-3.59,0-.36,0-.42-.16-.37-.43a2.76,2.76,0,0,1,1.67-1.73A1.9,1.9,0,0,1,179.91,98C180,98.21,179.89,98.46,180.05,98.69Z"/><path class="cls-39" d="M286.84,98.69h-3.9c-.25,0-.36-.08-.34-.34a2.63,2.63,0,0,1,1.7-1.82,1.89,1.89,0,0,1,1.95,1.08C286.48,98,286.26,98.39,286.84,98.69Z"/><path class="cls-39" d="M510.64,85.28c-1.42,0-2.65,0-3.88,0-.26,0-.36-.09-.33-.34a2.63,2.63,0,0,1,1.71-1.82,1.9,1.9,0,0,1,1.95,1.09C510.3,84.55,510.1,85,510.64,85.28Z"/><path class="cls-39" d="M448.12,85.28h-3.58c-.48,0-.64-.23-.43-.65a2.87,2.87,0,0,1,1.12-1.27,1.71,1.71,0,0,1,2.42.73C447.81,84.45,447.94,84.83,448.12,85.28Z"/><path class="cls-39" d="M242.69,58.21H238.8c-.25,0-.37-.07-.34-.33a2.65,2.65,0,0,1,1.7-1.83,1.93,1.93,0,0,1,2,1.08C242.34,57.47,242.12,57.91,242.69,58.21Z"/><path class="cls-39" d="M430,85.28c-1.42,0-2.65,0-3.88,0-.26,0-.35-.09-.33-.34a2.63,2.63,0,0,1,1.71-1.82,1.9,1.9,0,0,1,2,1.09C429.69,84.55,429.5,85,430,85.28Z"/><path class="cls-39" d="M357.58,71.62H353.7c-.26,0-.35-.09-.33-.35a2.59,2.59,0,0,1,1.71-1.81A1.87,1.87,0,0,1,357,70.56C357.24,70.89,357.05,71.32,357.58,71.62Z"/><path class="cls-39" d="M264.41,71.59h-4.06a2.29,2.29,0,0,1,1.59-2.11,1.9,1.9,0,0,1,1.69.55C264.08,70.44,264,71.07,264.41,71.59Z"/><path class="cls-39" d="M219.55,71.59h-4.06a2.29,2.29,0,0,1,1.59-2.11,1.9,1.9,0,0,1,1.69.55C219.22,70.44,219.17,71.07,219.55,71.59Z"/><path class="cls-39" d="M182.05,71.62c-1.26,0-2.49,0-3.72,0-.41,0-.37-.27-.31-.47a2.51,2.51,0,0,1,1.59-1.67,1.85,1.85,0,0,1,2.21,1.37C181.89,71.09,182,71.33,182.05,71.62Z"/><path class="cls-39" d="M394.52,85.28c-.56,0-1.12,0-1.68,0-.37,0-.41-.18-.36-.44a2.46,2.46,0,0,1,1.91-1.73,1.84,1.84,0,0,1,1.92,1.59c0,.11,0,.22.11.32s.12.25-.1.25Z"/><path class="cls-39" d="M226.93,58.21h-3.58c-.47,0-.63-.23-.43-.64A2.84,2.84,0,0,1,224,56.29a1.71,1.71,0,0,1,2.42.73C226.63,57.38,226.76,57.76,226.93,58.21Z"/><path class="cls-39" d="M378.45,85.28c-1.41,0-2.64,0-3.87,0-.26,0-.36-.09-.34-.34A2.65,2.65,0,0,1,376,83.12a1.9,1.9,0,0,1,1.95,1.09C378.12,84.55,377.92,85,378.45,85.28Z"/><path class="cls-39" d="M219.74,58.21h-3.59c-.47,0-.63-.23-.42-.65a2.81,2.81,0,0,1,1.12-1.27,1.71,1.71,0,0,1,2.42.73C219.43,57.39,219.56,57.76,219.74,58.21Z"/><path class="cls-6" d="M213,85.89c.21.59-.32,1.1-.53,1.69s-.8.56-1.24.74a1.87,1.87,0,0,1-1.2-.09c-2-.56-2-3.39-.8-4.61.33-.33.77-.26,1.13-.46a1.34,1.34,0,0,1,1,.09A2.47,2.47,0,0,1,213,85.89Z"/><path class="cls-6" d="M332.26,72.25c.21.62-.32,1.12-.55,1.7s-.8.55-1.23.73a1.86,1.86,0,0,1-1.21-.12A2.23,2.23,0,0,1,327.81,73a2.89,2.89,0,0,1,.14-2.23c.2-.41.43-.94.85-1a3.18,3.18,0,0,1,1.56-.29,2.66,2.66,0,0,1,1.9,2.33Z"/><path class="cls-6" d="M258.61,85.68c-.21-.61.29-1.13.5-1.72s.77-.59,1.23-.75a2,2,0,0,1,1.31.11,2.12,2.12,0,0,1,1.43,1.55,3,3,0,0,1-.14,2.14,2.16,2.16,0,0,1-2.35,1.37,2.56,2.56,0,0,1-2-2.24Z"/><path class="cls-6" d="M270.85,85.9c.21.62-.32,1.12-.55,1.7s-.81.53-1.23.73a1.34,1.34,0,0,1-1.12-.06c-1-.47-1.23-.6-1.55-1.59a2.84,2.84,0,0,1,.14-2.23c.2-.41.42-1,.84-1a3.29,3.29,0,0,1,1.56-.29,2.71,2.71,0,0,1,1.91,2.33Z"/><path class="cls-6" d="M417.67,85.9c.2.62-.33,1.12-.55,1.7s-.81.55-1.24.73a1.8,1.8,0,0,1-1.21-.11,2.23,2.23,0,0,1-1.45-1.54,2.87,2.87,0,0,1,.14-2.24c.2-.4.42-.94.84-1a3.18,3.18,0,0,1,1.56-.29,2.68,2.68,0,0,1,1.91,2.34Z"/><path class="cls-6" d="M487.49,85.89c.2.59-.32,1.1-.54,1.69s-.79.56-1.23.74a1.9,1.9,0,0,1-1.21-.09c-2-.57-2-3.39-.8-4.61.33-.33.77-.26,1.13-.46a1.34,1.34,0,0,1,1,.09A2.48,2.48,0,0,1,487.49,85.89Z"/><path class="cls-6" d="M201.76,45.48c.16.63-.36,1.12-.6,1.69s-.82.52-1.25.7a1.84,1.84,0,0,1-1.11-.11c-2-.61-2-3.39-.82-4.61.33-.34.77-.28,1.13-.48a1.25,1.25,0,0,1,1,.1A2.49,2.49,0,0,1,201.76,45.48Z"/><path class="cls-7" d="M494.19,87.91q.26,0,.24.24Q494.19,88.17,494.19,87.91Z"/><path class="cls-40" d="M127.87,46.56a4.48,4.48,0,0,1,.22-1.9,1,1,0,0,1,1.49-.43,8.21,8.21,0,0,1,.59.59c.62.65.41,1.4-.51,1.63-.29.07-.51.38-.85.26S128.31,46.32,127.87,46.56Z"/><path class="cls-41" d="M36,60.13a.57.57,0,0,1-.48.47c-.07-.05-.09-.1-.07-.15s0-.08.07-.08q0-.25.24-.24Q35.87,60,36,60.13Z"/><path class="cls-42" d="M32.5,58.45c-.11,0-.29,0-.3-.08s.19-.15.31-.16.29-.05.31.08S32.62,58.42,32.5,58.45Z"/><path class="cls-43" d="M35.51,60.37v.23q0,.26-.24.24V60.6C35.26,60.44,35.34,60.36,35.51,60.37Z"/><path class="cls-44" d="M37.9,59.41c0,.07,0,.18-.08.19s-.17-.08-.15-.2,0-.18.08-.19S37.91,59.29,37.9,59.41Z"/><path class="cls-31" d="M36,60.13h-.24c0-.36.29-.21.47-.24C36.23,60.05,36.15,60.13,36,60.13Z"/><path class="cls-45" d="M37.08,62.3s.08.07.08.08a.38.38,0,0,1-.11.14c-.1,0-.15,0-.1-.1S37,62.34,37.08,62.3Z"/><path class="cls-46" d="M32.29,65.18s.07.06.07.07-.06.12-.11.14-.15,0-.1-.1S32.24,65.21,32.29,65.18Z"/><path class="cls-47" d="M31.91,65.64q0-.26.24-.24A.21.21,0,0,1,31.91,65.64Z"/><path class="cls-48" d="M31.91,65.87h-.24c0-.16.07-.24.24-.23Z"/><path class="cls-49" d="M31.67,65.87q0,.25-.24.24Q31.42,65.87,31.67,65.87Z"/><path class="cls-47" d="M36.36,59.67s.08.06.08.07-.06.12-.11.14-.15,0-.1-.1S36.32,59.7,36.36,59.67Z"/></g></g></svg>