<svg xmlns="http://www.w3.org/2000/svg" viewBox="0 0 578.16 126.72"><defs><style>.cls-1{fill:#fefefe;}.cls-2{fill:#f6e7e6;}.cls-3{fill:#0a0a0a;}.cls-4{fill:#faf2f1;}.cls-5{fill:#f4e0de;}.cls-6{fill:#090909;}.cls-7{fill:#122c70;}.cls-8{fill:#132c70;}.cls-9{fill:#132d70;}.cls-10{fill:#142d70;}.cls-11{fill:#162e71;}.cls-12{fill:#152e71;}.cls-13{fill:#183072;}.cls-14{fill:#162f71;}.cls-15{fill:#172f72;}.cls-16{fill:#142d71;}.cls-17{fill:#1b3273;}.cls-18{fill:#1f3575;}.cls-19{fill:#203575;}.cls-20{fill:#223776;}.cls-21{fill:#253978;}.cls-22{fill:#7f799e;}.cls-23{fill:#f69890;}.cls-24{fill:#060606;}.cls-25{fill:#f0c9cb;}.cls-26{fill:#ebc5c9;}.cls-27{fill:#f2dfdd;}.cls-28{fill:#f3dfde;}.cls-29{fill:#f2dedd;}.cls-30{fill:#eddada;}.cls-31{fill:#f3e0de;}.cls-32{fill:#f3dfdd;}.cls-33{fill:#010101;}.cls-34{fill:#363a51;}.cls-35{fill:#3c3f54;}.cls-36{fill:#383842;}.cls-37{fill:#3d3f51;}.cls-38{fill:#3c405b;}.cls-39{fill:#393e60;}</style></defs><g id="Layer_2" data-name="Layer 2"><g id="Layer_1-2" data-name="Layer 1"><path class="cls-1" d="M119,182.16H0v-79.1a.3.3,0,0,1,.4.13A5.33,5.33,0,0,1,.88,105a25.26,25.26,0,0,0,22.77,20.7c1.75.15,3.51.2,5.26.2H550.68c6.4,0,12.28-1.56,17.3-5.68a24.75,24.75,0,0,0,9.34-17.35,65.65,65.65,0,0,0,.22-6.58q0-34.69,0-69.38a25.47,25.47,0,0,0-5.76-16.89A24.85,24.85,0,0,0,554.71.85a65.76,65.76,0,0,0-6.58-.23H27.2C20.76.62,14.87,2.24,9.81,6.4A25.2,25.2,0,0,0,.87,21.56a5.62,5.62,0,0,1-.46,1.8.32.32,0,0,1-.41.13V0H578.16V182.16H119.23c-.36-.41-.2-1-.49-1.44-.14-.21-.35-.41-.59-.26s0,.4.08.6C118.45,181.45,119.07,181.56,119,182.16Z"/><path class="cls-2" d="M0,101.39V25.17a.29.29,0,0,1,.4.14,3.66,3.66,0,0,1,.23,1.76V99.48a3.7,3.7,0,0,1-.23,1.77A.31.31,0,0,1,0,101.39Z"/><path class="cls-3" d="M119,182.16c-.33-.29-.64-.61-1-.87a1.11,1.11,0,0,1-.39-1.29,7.45,7.45,0,0,1,.82,0,1,1,0,0,1,.81.84c0,.44,0,.87,0,1.31Z"/><path class="cls-4" d="M0,101.39H.24a1.24,1.24,0,0,1,0,1.67H0Z"/><path class="cls-4" d="M.24,25.17H0V23.49H.24A1.26,1.26,0,0,1,.24,25.17Z"/><path class="cls-5" d="M.24,25.17V23.49c-.17-.68.24-1.28.25-1.94A9.56,9.56,0,0,1,.9,19.81,22.57,22.57,0,0,1,3.13,13.9,22.61,22.61,0,0,1,5.82,9.85c.58-.69,1.16-1.37,1.8-2a24,24,0,0,1,5-3.84A39.69,39.69,0,0,1,17,1.87c1.22-.5,2.52-.61,3.73-1.11.5-.21,1.16.06,1.69-.28C24,.6,25.47.22,27,.22q262.46,0,524.89,0c1.22,0,2.4.43,3.62.25,1.23.46,2.64.24,3.8,1a19.08,19.08,0,0,1,6,2.6,35.62,35.62,0,0,1,3.16,2.21,18.81,18.81,0,0,1,3,2.84,18.73,18.73,0,0,1,2.59,3.59c.39.72.83,1.42,1.2,2.14A23.53,23.53,0,0,1,577,19.27c.12.44.14.92.27,1.33a6.46,6.46,0,0,1,.21,1.23,6.35,6.35,0,0,1,.24,1.58A2.71,2.71,0,0,0,577.9,25c.1.19,0,.47,0,.71q0,37.58,0,75.14c0,.64-.3,1.19-.28,1.82a3.61,3.61,0,0,1-.19,1.83c-.19.42.09,1-.27,1.45a9.29,9.29,0,0,1-.74,2.93,26.27,26.27,0,0,1-2.2,4.72,22.48,22.48,0,0,1-2.44,3.52,18,18,0,0,1-3.41,3.28c-.71.51-1.36,1.12-2.11,1.58a34.25,34.25,0,0,1-4.73,2.47c-1,.45-2.15.58-3.15,1.09-.4.21-.95-.12-1.31.3a9.47,9.47,0,0,0-2.54.28c-4.72.43-9.45.13-14.18.19s-9.51,0-14.27,0H41.41c-4.75,0-9.51,0-14.27,0-1.58,0-3.12-.37-4.7-.27a16.42,16.42,0,0,0-2.32-.46,7,7,0,0,0-2.2-.49c-1.06-.63-2.29-.85-3.36-1.44a31.11,31.11,0,0,1-5.11-3.33,22.69,22.69,0,0,1-2.57-2.42,30.28,30.28,0,0,1-3.08-4.1,28.4,28.4,0,0,1-2.75-6.3,10.94,10.94,0,0,1-.61-2.88c0-.51-.22-1-.2-1.59V25.17Z"/><path class="cls-6" d="M115.37,179.28c-.94,0-1.12-.28-.79-1.22s.6-1.16,1.37-.69a1.18,1.18,0,0,1,.64,1.24A1.22,1.22,0,0,1,115.37,179.28Z"/><path class="cls-1" d="M84,10.31h50.74a9.16,9.16,0,0,1,2.62,0c.78.24,1.63-.07,2.33.43a10.94,10.94,0,0,1,3.45,1c1,.4,1.93.94,2.89,1.41a7.79,7.79,0,0,1,1,.77,16.16,16.16,0,0,1,3.71,3.49,20.33,20.33,0,0,1,2.43,3.92,23,23,0,0,1,1.11,3.25,14.52,14.52,0,0,1,.46,4.25q0,35.1,0,70.21a15.46,15.46,0,0,1-.81,4.22,20,20,0,0,1-1.34,3.16,24.36,24.36,0,0,1-1.46,2.27,14.22,14.22,0,0,1-2.2,2.45,17.09,17.09,0,0,1-3.68,2.7,21.68,21.68,0,0,1-3.67,1.57c-.42.13-.94-.06-1.28.36-.75-.09-1.43.41-2.18.24a12.76,12.76,0,0,1-4.22.22q-50.85,0-101.7,0a4.54,4.54,0,0,1-2.09-.17c-.6-.28-1.4.17-2-.29a15.48,15.48,0,0,1-5.35-1.87,14.18,14.18,0,0,1-3.42-2.45,11.23,11.23,0,0,0-.85-.84,16.68,16.68,0,0,1-3.72-5.17,8.79,8.79,0,0,1-.8-2.06c-.15-.74-.64-1.4-.51-2.2-.5-.65-.14-1.47-.42-2.21A6.8,6.8,0,0,1,13,96.71Q13,62.86,13,29a3.11,3.11,0,0,1,.14-1.73c.31-.52-.07-1.13.23-1.71s.16-1.13.36-1.65.35-1.05.53-1.57a15.37,15.37,0,0,1,2.29-4.21,20.91,20.91,0,0,1,5.23-5,18.74,18.74,0,0,1,7.66-2.66,73.38,73.38,0,0,1,9-.2c3.08-.06,6.16,0,9.23,0H84Z"/><path class="cls-7" d="M233.69,50.81c-1.16,0-2.31,0-3.47,0a1.81,1.81,0,0,1-1.69-2.45,17.18,17.18,0,0,1,1.39-2.78c.56-1.25,1.2-2.46,1.83-3.68a5.61,5.61,0,0,1,.6-.95,1.48,1.48,0,0,1,2.4-.21,3.69,3.69,0,0,1,.75,1c1.07,2.11,2.11,4.24,3.22,6.34a2,2,0,0,1,0,1.72c-.15.5-.58.66-1,.91a1.16,1.16,0,0,1-.68.09Z"/><path class="cls-7" d="M221.88,50.81h-3.36a1.77,1.77,0,0,1-1.7-2.49,26.79,26.79,0,0,1,1.32-2.69c.52-1.3,1.23-2.52,1.84-3.79a5.39,5.39,0,0,1,1.18-1.42,1.69,1.69,0,0,1,1.44,0,5.27,5.27,0,0,1,1.05,1.24c1.09,2.22,2.24,4.42,3.32,6.65a1.55,1.55,0,0,1,0,1.6,1.62,1.62,0,0,1-1.47.94Z"/><path class="cls-7" d="M245.39,50.81H242a1.79,1.79,0,0,1-1.65-2.71c1.06-2.12,2.13-4.23,3.18-6.35a5.11,5.11,0,0,1,1.11-1.33,1.69,1.69,0,0,1,1.44,0,5.27,5.27,0,0,1,1,1.24c1.09,2.22,2.24,4.42,3.32,6.65a1.57,1.57,0,0,1,0,1.6,1.62,1.62,0,0,1-1.47.94Z"/><path class="cls-7" d="M253.57,30.88h-2.15V26.67a1,1,0,0,0-.61-1.06c-1-.42-1.75,0-1.79,1,0,.71,0,1.43,0,2.15v2.08h-2.16v-4.3c0-.67-.34-1.11-.87-1.16a1.12,1.12,0,0,0-1.31.84,3.33,3.33,0,0,0-.22,1.35v3.27h-1.89V23.73a8.05,8.05,0,0,0,1.39,0c.64-.1.45.37.55.71a4.57,4.57,0,0,1,2.07-1,2.33,2.33,0,0,1,2.06,1c.18,0,.29,0,.37-.11.74-1,1.84-.84,2.88-.84.38.36,1,.42,1.21,1a4.2,4.2,0,0,1,.48,1.59C253.57,27.65,253.57,29.24,253.57,30.88Z"/><path class="cls-7" d="M173,21.57c1.52,0,3-.05,4.46,0a4.38,4.38,0,0,1,2.61,1.22,4.57,4.57,0,0,1-.56,7.25,5.25,5.25,0,0,1-2.77.86c-1.23,0-2.46,0-3.74,0Z"/><path class="cls-7" d="M314,29.72c-1.21.89-1.54.92-3.19.48A3.62,3.62,0,0,1,309,28.26a4,4,0,0,1,0-2.55c0-.21.18-.32.26-.49a3.2,3.2,0,0,1,1.44-1.47,3.61,3.61,0,0,1,2.27-.22,1.46,1.46,0,0,1,.85.55c.16.22.42.25.46-.13s.18-.22.34-.22h1.83c0,2.2,0,4.34,0,6.48a3.13,3.13,0,0,1-2.85,2.86,12.86,12.86,0,0,1-2.15,0,5,5,0,0,1-1.91-.56c-.23-.13-.43-.33-.14-.66s.22-.76.55-.9a1.44,1.44,0,0,1,1,.19,3.1,3.1,0,0,0,2.55,0c.44-.2.85-.39.82-1C314.39,29.94,314.58,29.64,314,29.72Z"/><path class="cls-7" d="M326.5,30.92V21.15c.61-.14,1.23,0,1.89-.08v3.4a4.5,4.5,0,0,0,.94-.62,3.33,3.33,0,0,1,2.13-.35,2.57,2.57,0,0,1,1.52.89,3,3,0,0,1,1,2.1c0,.56,0,1.12,0,1.68a3.35,3.35,0,0,1-3.1,3,5.21,5.21,0,0,1-1.82-.54c-.3-.13-.5-.48-.61.13,0,.19-.25.14-.4.14Z"/><path class="cls-7" d="M288.88,21.11h1.89v5.13c.81-.81,1.51-1.5,2.2-2.21a.86.86,0,0,1,.71-.31c.6,0,1.19,0,1.81,0-.12.16.06-.05.06.11s-.05.06-.07.09l-2.55,2.54c1,1.42,1.76,3,2.85,4.37-.3.17-.66.06-1,.07s-.72,0-1.08,0a.7.7,0,0,1-.63-.47c-.41-.84-1-1.56-1.52-2.48a5.24,5.24,0,0,1-.45.56.9.9,0,0,0-.36.81c0,.51,0,1,0,1.56h-1.88Z"/><path class="cls-8" d="M207.15,31.16a3.79,3.79,0,0,1-3.92-3.84,3.88,3.88,0,0,1,3.92-3.86,4,4,0,0,1,4,3.86C211.16,29.2,209.19,31.36,207.15,31.16Z"/><path class="cls-8" d="M258.74,31.16a3.78,3.78,0,0,1-3.93-3.83,3.88,3.88,0,0,1,3.92-3.87,4,4,0,0,1,4,3.86C262.74,29.21,260.75,31.36,258.74,31.16Z"/><path class="cls-8" d="M339,31.16a3.77,3.77,0,0,1-3.82-3.82,3.87,3.87,0,0,1,4-3.88,4,4,0,0,1,3.88,4C343.05,29.25,341.11,31.4,339,31.16Z"/><path class="cls-8" d="M348.29,23.49a3.92,3.92,0,0,1,3.91,3.91,4.18,4.18,0,0,1-4.06,3.79,3.89,3.89,0,0,1-3.84-3.94A3.75,3.75,0,0,1,348.29,23.49Z"/><path class="cls-8" d="M371.51,28H366.7c-.44.4.32.53.12.85.46.14.82.52,1.31.59a2.06,2.06,0,0,0,1.39-.41c.29-.18.66-.41.9.08.15.31.66.25.68.52s-.41.7-.71.87a2.94,2.94,0,0,1-1.78.63,3.76,3.76,0,0,1-2.21-.48c-.84-.63-1.73-1.18-1.75-2.39a2.69,2.69,0,0,1,.06-2.53,3.57,3.57,0,0,1,2.09-2,3.23,3.23,0,0,1,4,1.05,3.85,3.85,0,0,1,.8,2.53C371.58,27.54,371.67,27.78,371.51,28Z"/><path class="cls-8" d="M325,28h-4.81c-.44.4.32.53.12.85.46.14.82.52,1.31.59a2.06,2.06,0,0,0,1.39-.41c.29-.18.66-.41.9.08.15.31.66.25.68.52s-.41.7-.71.87a2.94,2.94,0,0,1-1.78.63,3.76,3.76,0,0,1-2.21-.48c-.84-.63-1.73-1.18-1.75-2.39a2.69,2.69,0,0,1,.06-2.53,3.58,3.58,0,0,1,2.08-2,3.23,3.23,0,0,1,4,1.05,3.8,3.8,0,0,1,.8,2.53C325,27.54,325.13,27.78,325,28Z"/><path class="cls-8" d="M303.39,28h-5a1.34,1.34,0,0,0,.66,1,1.91,1.91,0,0,0,2.22.07c.61-.36.63-.33,1.08.08a.71.71,0,0,0,.49.27c.15,0,.19.26.07.38a3.13,3.13,0,0,1-2.46,1.28,3.79,3.79,0,0,1-2.21-.46,4.5,4.5,0,0,1-1.8-2.38,3.63,3.63,0,0,1,.11-2.55,3.51,3.51,0,0,1,1.88-1.95,3.3,3.3,0,0,1,4.14.87,4,4,0,0,1,.87,2.5A1.75,1.75,0,0,1,303.39,28Z"/><path class="cls-8" d="M271,28.07h-5c.06.84.67,1.07,1.23,1.3a1.16,1.16,0,0,0,1.31-.11,2.24,2.24,0,0,1,.49-.25c.27-.09.61-.34.82.12a.2.2,0,0,0,.08.08c.7.62.72.65.08,1.17a2.83,2.83,0,0,1-1.95.79,4,4,0,0,1-2.21-.46,4.5,4.5,0,0,1-1.81-2.37,3.55,3.55,0,0,1,.16-2.64,3.75,3.75,0,0,1,2.12-2,3.33,3.33,0,0,1,4.05,1.35A5.07,5.07,0,0,1,271,28.07Z"/><path class="cls-9" d="M224.56,24.31a3.55,3.55,0,0,1,1.67-.54,7.9,7.9,0,0,1,2.38,0,2.84,2.84,0,0,1,1.95,1.94c.46,1.71.08,3.44.26,5.24-.65,0-1.24,0-1.83,0-.23,0-.38,0-.37-.31,0-.07-.07-.25-.21-.07-.64.78-1.53.63-2.38.61a2.24,2.24,0,0,1-2-2,1.92,1.92,0,0,1,.52-1.7,2.81,2.81,0,0,1,1.93-.82c.48,0,1,0,1.44,0a.6.6,0,0,1,.6.26c0-.39.25-.76-.11-1a1.39,1.39,0,0,0-1-.43c-.45.06-.93-.18-1.36.22-.13.12-.46,0-.7,0s-.36-.07-.35-.33A1.68,1.68,0,0,0,224.56,24.31Z"/><path class="cls-8" d="M182.54,23.73h1.77c.38,0,.55.16.66.52.41,1.34.86,2.67,1.34,4.15.71-1.54,1.08-3.08,1.63-4.62H190c0,.17.06.36,0,.47a15.66,15.66,0,0,0-.8,2.06c-.68,1.6-1.31,3.21-1.84,4.87a3.54,3.54,0,0,1-.52,1.09,1.69,1.69,0,0,1-1.45.8c-.54,0-1.09.14-1.59-.22-.13-.1-.42.09-.5-.17a1.08,1.08,0,0,1,0-.59,2.25,2.25,0,0,1,.35-.69c.14-.18.31-.39.58-.14s.59.15.88.1.34-.41.24-.65c-.56-1.37-1.17-2.71-1.61-4.13A29.72,29.72,0,0,0,182.54,23.73Z"/><path class="cls-9" d="M193.68,31.11c-1,.34-1.75-.4-2.59-.69-.43-.14-.48-.59-.22-1,.09-.13.31-.23.32-.35,0-.56.43-.41.65-.28.4.23.85.31,1.22.51a2,2,0,0,0,1,.13.5.5,0,0,0,.46-.45c0-.23-.17-.38-.32-.45a7,7,0,0,0-1.45-.51,2.82,2.82,0,0,1-1.72-1.29,1.73,1.73,0,0,1,0-1.58,2,2,0,0,1,1.37-1.26,3.56,3.56,0,0,1,3,.24,1.29,1.29,0,0,0,.6.28c.3,0,.28.21.19.4s-.29.52-.43.78c-.27.5-.32.58-.8.23-.32-.24-.73-.14-1-.42a.7.7,0,0,0-.86.14c-.2.2-.29.39,0,.57a1.62,1.62,0,0,0,.77.43c.69,0,1.15.51,1.72.76a1.66,1.66,0,0,1,.95,1.69,1.75,1.75,0,0,1-1,1.66A2.28,2.28,0,0,1,193.68,31.11Z"/><path class="cls-9" d="M291.76,71v6.57a1.29,1.29,0,0,1-1,.1V69.1c.05-.08.17-.07.28-.07.7,0,.72,0,1.15.64.81,1.22,1.59,2.45,2.36,3.7.18.3.33.32.48,0,.73-1.32,1.7-2.47,2.43-3.79a1,1,0,0,1,1.3-.56,77.64,77.64,0,0,1,.07,8.52c-.26.14-.54,0-.91.06V70.84c-1.07,1.49-2,2.83-2.89,4.27-.15.25-.29.23-.48-.07-.85-1.34-1.74-2.64-2.62-4C291.94,71,291.86,71,291.76,71Z"/><path class="cls-9" d="M359.61,21.85h2.15v1.84h1.62a11.68,11.68,0,0,1,.08,1.68h-1.69c0,1,0,2,0,3,0,.8.36,1.16,1.08.83.57-.26.55.1.58.32.2,1.18-.22,1.67-1.42,1.65a2.89,2.89,0,0,1-1.26-.13,1.92,1.92,0,0,1-1.13-1.92c0-1.12,0-2.23,0-3.35,0-.15,0-.37-.2-.33-.6.11-.52-.29-.52-.64v-.84c0-.14.08-.23.22-.21.45.09.54-.12.51-.53S359.61,22.34,359.61,21.85Z"/><path class="cls-9" d="M198.4,21.84h2.14v1.88h1.65V25.4h-1.63c0,1,0,2,0,3,0,.72.35,1.08,1,.8s.6.05.64.35c.17,1.17-.24,1.61-1.47,1.6a3.28,3.28,0,0,1-1.16-.09,1.91,1.91,0,0,1-1.18-1.89c-.06-1.11,0-2.23,0-3.35,0-.17.07-.44-.25-.41s-.52-.05-.48-.44,0-.64,0-1,.06-.31.26-.28c.36.05.49-.09.47-.45S198.4,22.34,198.4,21.84Z"/><path class="cls-9" d="M216.1,23.49a3.66,3.66,0,0,1,2.52.9c.16.12.08.19,0,.35a3,3,0,0,1-.61.83c-.27.31-.46.42-.86.07a1.52,1.52,0,0,0-1.87-.28,1.77,1.77,0,0,0-1.07,1.82,2.82,2.82,0,0,0,.12,1.14,1.75,1.75,0,0,0,2.8.73c.35-.3.55-.39.85,0a5.45,5.45,0,0,0,.58.6c.33.32.33.52-.18.57a3.53,3.53,0,0,1-3.32.92,3.32,3.32,0,0,1-2.22-1.5,5.67,5.67,0,0,1-.78-1.82A4.3,4.3,0,0,1,214,24,3.25,3.25,0,0,1,216.1,23.49Z"/><path class="cls-8" d="M179.36,73.23a4,4,0,0,1,1.37,1,1.63,1.63,0,0,1,.39,1.27,3.09,3.09,0,0,1-.65,1.38,3.93,3.93,0,0,1-1.72.72H174.2V69a44.26,44.26,0,0,1,4.46,0,2.13,2.13,0,0,1,1.94,1.51,2.19,2.19,0,0,1-.71,2.43A3.13,3.13,0,0,1,179.36,73.23Z"/><path class="cls-9" d="M240.94,22.63c-.44.42-.86.79-1.24,1.19a4.43,4.43,0,0,0-1.24,2.95,5.18,5.18,0,0,0,.68,2.84,6.32,6.32,0,0,0,1.14,1.31c.73.8.76.81,0,1.68l-.23.21a7.55,7.55,0,0,1-2.77-2.4,6.41,6.41,0,0,1-.95-3.32,6.53,6.53,0,0,1,1-3.42A7.48,7.48,0,0,1,240,21.38C240.46,21.61,240.62,22.08,240.94,22.63Z"/><path class="cls-9" d="M372.69,22.73c.57-.4.64-1,1.19-1.34a6.74,6.74,0,0,1,2.94,2.66,2.86,2.86,0,0,1,.52,1.69c0,.43.3.69.28,1.1a11.94,11.94,0,0,1-.74,3.16,6.76,6.76,0,0,1-2.78,2.65c-.21.1-.26.11-.44,0-.37-.26-.38-.76-.75-1s.08-.3.14-.32a2.93,2.93,0,0,0,1.08-.86,4.85,4.85,0,0,0,0-6.68A3.18,3.18,0,0,0,372.69,22.73Z"/><path class="cls-10" d="M174.21,41.94c1.4,0,2.75,0,4.11,0a2.45,2.45,0,0,1,2.33,1.55A2.41,2.41,0,0,1,178.73,47a42.4,42.4,0,0,0,2.55,3.45c-.81.13-1.34.23-1.75-.6a4.18,4.18,0,0,0-1-1.28,7.71,7.71,0,0,1-.94-1.39h-2.48v3.33h-.93Z"/><path class="cls-11" d="M506.43,84.9c0,1.7,0,3.41,0,5.11a3.56,3.56,0,0,1-.52,1.68,2.31,2.31,0,0,1-1.55,1.12c-.06,0-.11.16-.17.16a6.2,6.2,0,0,1-3.7-.54c-.21-.13-.22-.24-.08-.53s.18-.41.54-.22a4.67,4.67,0,0,0,2.26.59,2.38,2.38,0,0,0,1.89-.92c.05-.06.15-.13.14-.17-.16-.6.29-1.11.25-1.68-.24-.16-.26.1-.37.16s-.16.18-.25.24a3,3,0,0,1-4.23-.22,1.8,1.8,0,0,1-.58-1.06,3.55,3.55,0,0,1,.14-2.27A3.07,3.07,0,0,1,502,84.67a2.32,2.32,0,0,1,2.4.43c.22.23.53.25.76.44C505.29,84.84,505.29,84.84,506.43,84.9Z"/><path class="cls-11" d="M478.26,89.42c-1.6,1.57-3.11,1.61-4.65.35a3.09,3.09,0,0,1,1.95-5.19c1-.1,1.68.56,2.47,1,.17-.17,0-.44.1-.55.32-.32.73-.1,1.19-.16,0,1.75.08,3.45,0,5.15a3.2,3.2,0,0,1-.54,1.79,3.71,3.71,0,0,1-1.58,1.1c-.07,0-.13.11-.19.11a6.9,6.9,0,0,1-3.51-.48c-.31-.15-.36-.36-.16-.7s.28-.34.4-.21a3,3,0,0,0,1.66.62,2.43,2.43,0,0,0,2.6-.85.5.5,0,0,0,.16-.42,1.78,1.78,0,0,1,.23-1.1A.34.34,0,0,0,478.26,89.42Z"/><path class="cls-11" d="M317.06,89.37c-1.51,1.6-3.16,1.69-4.69.37A3.17,3.17,0,0,1,312,86a3.06,3.06,0,0,1,2.26-1.42c.82,0,.82,0,2.58.91.13-.68.13-.68,1.27-.61,0,1.67.09,3.34,0,5A2.92,2.92,0,0,1,316,92.83c-.07,0-.12.15-.18.15a6.77,6.77,0,0,1-3.61-.49c-.19-.1-.36-.23-.15-.61s.22-.38.55-.19a5.82,5.82,0,0,0,2.27.58,2.48,2.48,0,0,0,1.72-.76c.19-.21.38-.42.29-.71C316.75,90.32,317.34,90,317.06,89.37Z"/><path class="cls-11" d="M282.16,62.44a2.38,2.38,0,0,1-.31.5,3,3,0,0,1-3.86.23A3,3,0,0,1,276.84,61a2.76,2.76,0,0,1,.71-2.22,3.14,3.14,0,0,1,1.87-1,2.39,2.39,0,0,1,2.12.7,1,1,0,0,0,.47.23c.15,0,.11-.25.11-.4s.06-.29.27-.29h.93c0,1.72.07,3.42,0,5.12a3.43,3.43,0,0,1-.54,1.79A3.38,3.38,0,0,1,281.18,66c-.07,0-.12.13-.18.13a6.87,6.87,0,0,1-3.61-.53c-.3-.17-.18-.36-.09-.62s.21-.33.49-.19a4.69,4.69,0,0,0,2.37.62,2.25,2.25,0,0,0,1.62-.72c.22-.24.46-.47.34-.81S282.66,63.08,282.16,62.44Z"/><path class="cls-11" d="M197.09,103.05c-1.53,1.62-3.19,1.63-4.68.35a3.16,3.16,0,0,1-.27-3.8,3.35,3.35,0,0,1,2.18-1.35,3.57,3.57,0,0,1,2.49,1c.38-.09-.11-.66.37-.69.31,0,.62,0,1,0,0,1.7.07,3.33,0,4.95a3,3,0,0,1-2.09,3c-.07,0-.12.15-.17.15a6.89,6.89,0,0,1-3.62-.5c-.21-.12-.35-.25-.14-.62s.23-.34.56-.17a4.36,4.36,0,0,0,2.39.56,2.19,2.19,0,0,0,1.52-.67c.25-.28.46-.54.36-.92S197.42,103.58,197.09,103.05Z"/><path class="cls-11" d="M251.18,103c-2,1.77-3.38,1.52-4.81.33a2.24,2.24,0,0,1-.71-1.48,3,3,0,0,1,2.92-3.66c1,0,1.51.63,2.27,1,.21-.14,0-.47.14-.61s.69,0,1.15-.15c0,1.26,0,2.44,0,3.62a9.44,9.44,0,0,1-.21,2.42,2.65,2.65,0,0,1-1.22,1.7,3.72,3.72,0,0,1-2,.5,5.48,5.48,0,0,1-2.53-.56c-.29-.13-.21-.33-.1-.61s.2-.36.48-.2a5,5,0,0,0,2.25.63,2.29,2.29,0,0,0,1.91-.89c.05-.06.17-.12.16-.17C250.8,104.27,251.21,103.72,251.18,103Z"/><path class="cls-11" d="M321.42,75.94c-1.63,1.61-3.16,1.68-4.71.41a3.09,3.09,0,0,1,2-5.19c1-.09,1.68.55,2.46,1,.18-.16,0-.44.11-.55.32-.3.73-.1,1.19-.15,0,1.75,0,3.45,0,5.15a3.54,3.54,0,0,1-.5,1.69,2.35,2.35,0,0,1-1.55,1.12c-.1,0-.19.18-.28.19a6.9,6.9,0,0,1-3.51-.48c-.32-.16-.34-.37-.15-.71s.28-.33.4-.2c.45.5,1.12.48,1.66.62a2.42,2.42,0,0,0,2.6-.86c.07-.09.2-.15.16-.29C321.05,77.09,321.57,76.63,321.42,75.94Z"/><path class="cls-12" d="M520.7,85.81a7.51,7.51,0,0,0,.57-.58,2.45,2.45,0,0,1,3.78.59.79.79,0,0,1,.09.44v4.79h-1c0-1.38,0-2.76,0-4.15a1.33,1.33,0,0,0-.9-1.41,1.45,1.45,0,0,0-2,.75,3.49,3.49,0,0,0-.42,1.62c0,1,0,2.07,0,3.12a1.41,1.41,0,0,1-1,0c0-1.39,0-2.78,0-4.17a1.53,1.53,0,0,0-1.94-1.51,1.29,1.29,0,0,0-1,.82,5.18,5.18,0,0,0-.43,1.73c0,1,0,2.07,0,3.08-.3.18-.58.07-.91.1V84.92c.85-.06.85-.06,1,.72.33-.52.91-.59,1.23-1,.73,0,1.49-.14,2.1.42C520.18,85.27,520.43,85.53,520.7,85.81Z"/><path class="cls-12" d="M221.23,84.89c.86,0,.86,0,1,.65,1.7-1.44,2.75-1.25,4.12.25l.51-.5a2.17,2.17,0,0,1,1.39-.7,4.09,4.09,0,0,1,2,.52c.06.5.63.72.6,1.32-.07,1.51,0,3,0,4.56a1.49,1.49,0,0,1-1,0c0-1.4,0-2.79,0-4.17a1.53,1.53,0,0,0-1.94-1.51,1.28,1.28,0,0,0-1,.82,5.23,5.23,0,0,0-.43,1.74c0,1,0,2.06,0,3.06-.3.21-.59,0-1,.18v-2.3c0-.68,0-1.36,0-2a1.56,1.56,0,0,0-1.15-1.48,1.58,1.58,0,0,0-1.77.89,3.47,3.47,0,0,0-.44,1.61c0,1.07,0,2.14,0,3.23h-.92Z"/><path class="cls-12" d="M198.4,91.06h-1c0-1.41,0-2.8,0-4.19a1.51,1.51,0,0,0-1.92-1.52,1.27,1.27,0,0,0-1,.81,5,5,0,0,0-.43,1.73c0,1,0,2,0,3a.45.45,0,0,1,0,.11c-.25.2-.54,0-.77.11a.33.33,0,0,1-.16-.32c0-1.28,0-2.55,0-3.83a1.52,1.52,0,0,0-2.37-1.4,1,1,0,0,0-.52.54,4.09,4.09,0,0,0-.47,1.84c0,1,0,2.06,0,3.07a1.88,1.88,0,0,1-.91.06V84.9c.86,0,.86,0,1,.63,1.81-1.5,2.91-1.16,4.12.28.2-.2.4-.39.59-.6a2.45,2.45,0,0,1,3.77.63,1.18,1.18,0,0,1,.07.69C198.4,88,198.4,89.48,198.4,91.06Z"/><path class="cls-13" d="M218.27,77.66h-.5c-.6,0-.6,0-.75-.69a3.68,3.68,0,0,1-2.1.94,2.92,2.92,0,0,1-2.32-1.06,3.61,3.61,0,0,1,0-4.61,2.81,2.81,0,0,1,4.16-.32,2.7,2.7,0,0,1,.3.26v-3.3a3.09,3.09,0,0,1,1.21-.08Z"/><path class="cls-13" d="M280.68,72.22V68.87a3,3,0,0,1,1.16-.07v8.79c-.1.15-.31.06-.49.06-.61,0-.61,0-.76-.68a3.68,3.68,0,0,1-2.1.94,3,3,0,0,1-2.32-1.06,3.59,3.59,0,0,1,0-4.61,2.81,2.81,0,0,1,4.16-.32Z"/><path class="cls-13" d="M239.18,99.3V96a3,3,0,0,1,1.16-.06v8.78c-.1.15-.32.07-.5.07-.6,0-.6,0-.75-.69a3.56,3.56,0,0,1-2.1.94,2.94,2.94,0,0,1-2.32-1,3.62,3.62,0,0,1,0-4.62,2.82,2.82,0,0,1,4.17-.31Z"/><path class="cls-13" d="M429.66,85.45V82.31c.36-.21.75,0,1.16-.13V91c-.1.15-.31.07-.5.07-.6,0-.6,0-.75-.69a3.56,3.56,0,0,1-2.1.94,3,3,0,0,1-2.32-1.06,3.59,3.59,0,0,1,0-4.61,2.79,2.79,0,0,1,4.07-.39c.11.07.15.25.22.39Z"/><path class="cls-12" d="M284.76,23.75h2.16v4.4c0,.88-.05,1.76,0,2.63a2.31,2.31,0,0,1-.53,1.58,1.82,1.82,0,0,1-1.42.72h-1.31c-.22-.2-.1-.45-.11-.68,0-.54,0-1,.75-1,.32,0,.46-.34.45-.71,0-1.19,0-2.39,0-3.58Z"/><path class="cls-12" d="M276.64,21.12h2.09V30.9c-.66.05-1.35,0-2.09,0Z"/><path class="cls-14" d="M380.75,90.09v.85c-.32.28-.63,0-1,.18V82.29a1.5,1.5,0,0,1,.95,0v3.56a7.16,7.16,0,0,0,1.05-.78,2.85,2.85,0,0,1,3.86.8,3.68,3.68,0,0,1-.52,4.79,3.26,3.26,0,0,1-3.2.46C381.48,90.87,381.25,90.44,380.75,90.09Z"/><path class="cls-14" d="M262,99.51c.47-.3.74-.66,1.16-.87a2.85,2.85,0,0,1,4,1.23,4,4,0,0,1,.35,2.7,2.7,2.7,0,0,1-1,1.71,3.28,3.28,0,0,1-3.21.48c-.47-.23-.67-.73-1.13-.94-.19.25,0,.54-.15.85-.22.16-.52.07-.81,0,0,0-.09-.07-.09-.1V96c.27-.29.59,0,1-.21Z"/><path class="cls-14" d="M231.53,76.66l-.05.92a1.48,1.48,0,0,1-.91,0V68.87a1.4,1.4,0,0,1,.91,0v3.58c.5-.27.77-.68,1.2-.89a2.89,2.89,0,0,1,2.29-.15,2.82,2.82,0,0,1,2,2.13,3.49,3.49,0,0,1-1,3.62,3.23,3.23,0,0,1-3.29.53C232.26,77.44,232,77,231.53,76.66Z"/><path class="cls-14" d="M201.29,89.84V93h-.93V84.88h.83c.23.26-.05.61.17.9.39-.21.64-.58,1.06-.79a2.86,2.86,0,0,1,4,1.21,4,4,0,0,1,.36,2.7,2.41,2.41,0,0,1-.87,1.54,2.83,2.83,0,0,1-4,.16A5.32,5.32,0,0,1,201.29,89.84Z"/><path class="cls-14" d="M302.73,103.89v2.74h-.89V98.57a1.75,1.75,0,0,1,.82,0c.22.26,0,.61.14.92.4-.15.57-.51.89-.71A3,3,0,0,1,308,100a3.74,3.74,0,0,1-.64,4,2.79,2.79,0,0,1-4,.18,3.31,3.31,0,0,1-.45-.53Z"/><path class="cls-12" d="M174.3,89.42a4.08,4.08,0,0,0,2.75,1.19,2.9,2.9,0,0,0,1.21-.28c.89-.25.91-1.41.45-2a2.57,2.57,0,0,0-1.58-.82,4.64,4.64,0,0,1-2.38-.94,2.09,2.09,0,0,1-.4-2.94,3,3,0,0,1,2.52-1.17,5.92,5.92,0,0,1,2.43.51c.19.08.48.28.37.53a2.11,2.11,0,0,1-.55.61S179,84,179,84a2.75,2.75,0,0,0-1.4-.68,2.21,2.21,0,0,0-2.62.88,1.38,1.38,0,0,0,.71,1.6c.85.26,1.74.42,2.57.74a2.39,2.39,0,0,1,1.72,1.69c.05.28.38.54.18.84-.31.47-.24,1.14-.76,1.48a2.94,2.94,0,0,1-1.83.77,5.59,5.59,0,0,1-2.3-.24,6.62,6.62,0,0,1-.81-.36C173.55,90.16,173.56,90.15,174.3,89.42Z"/><path class="cls-10" d="M262.2,91c-1,.13-.95.12-1.32-.6-.1-.2-.05-.39-.12-.55a2.63,2.63,0,0,0-.57-1.06c-.22-.18-.68-.07-1-.07h-3c-.56,0-.83.12-.89.62a6.54,6.54,0,0,1-.49,1.24c-.15.5-.45.56-.88.55s-.13-.18-.13-.36a2.73,2.73,0,0,1,.53-1.35c1.07-2.15,1.88-4.42,3.05-6.52a.7.7,0,0,1,1-.33,1.79,1.79,0,0,1,.3.47,15.44,15.44,0,0,1,.93,2.13c.83,1.73,1.62,3.47,2.39,5.23C262,90.55,262.37,90.67,262.2,91Z"/><path class="cls-9" d="M217.71,56.33h-5c-.17,0-.4.1-.45-.22s.08-.49.43-.49H219a1.16,1.16,0,0,1-.33,1.27c-1.2,1.52-2.37,3.07-3.52,4.63a8.87,8.87,0,0,1-1.6,1.88c.29.23.61.12.9.12,1.44,0,2.87,0,4.31,0,.27,0,.33.11.33.36s0,.37-.31.37h-6.35c-.31,0-.44-.37-.22-.68q.66-.93,1.35-1.83c1.15-1.48,2.33-2.94,3.46-4.44A5.93,5.93,0,0,1,217.71,56.33Z"/><path class="cls-8" d="M174.21,55.61H180c.18,0,.41-.06.41.26s.06.48-.34.46c-.67,0-1.35,0-2,0h-2.88v3.11c1.46,0,2.93,0,4.4,0,.35,0,.37.16.37.43s-.15.31-.38.3h-4.37v3.36c1.63,0,3.26,0,4.9,0,.39,0,.32.24.33.47s-.23.25-.42.25h-5.78Z"/><path class="cls-8" d="M357.9,23.57v1.79a3,3,0,0,0-1.26.33A1.35,1.35,0,0,0,355.8,27c0,.46-.38.76-.28,1.23a5.9,5.9,0,0,1,0,1.19v1.49h-1.88V23.79h1.82c.19.26-.08.62.17.89C356.32,24.17,356.71,23.12,357.9,23.57Z"/><path class="cls-14" d="M393.24,91.05c-.95,0-.95,0-1-.71-.22.19-.39.46-.58.47s-.4.21-.61.29a2.53,2.53,0,0,1-3.13-.66c-.25-.33-.56-.7-.42-1.13s.13-1.09.64-1.4a2.72,2.72,0,0,1,1.87-.66c.64.11,1.33-.24,1.95.22.18.13.38-.08.31-.32-.16-.58-.24-1.24-.83-1.56a1.78,1.78,0,0,0-1.75-.15c-.36.22-.77-.06-1.09.29-.11.1-.38-.18-.39-.41s-.11-.38.18-.48a9.84,9.84,0,0,1,3-.23c.66.48,1.4.81,1.63,1.79C393.36,87.94,393,89.45,393.24,91.05Z"/><path class="cls-14" d="M373.09,91.07c-.95,0-.95,0-1-.71-.21.17-.39.43-.59.46a2.41,2.41,0,0,0-.71.32,2.55,2.55,0,0,1-3.21-1c-.2-.34-.4-.75-.22-1.08s.24-1.17.93-1.35c.4-.1.67-.52,1.12-.47.77.09,1.56-.23,2.32.17.3.16.44,0,.41-.29a1.85,1.85,0,0,0-2.6-1.67c-.36.13-.79-.11-1.1.28-.06.07-.37-.19-.38-.43s-.09-.37.2-.47a9.86,9.86,0,0,1,3-.23c.65.5,1.39.81,1.63,1.81C373.21,88,372.88,89.47,373.09,91.07Z"/><path class="cls-14" d="M400.2,91.07c-.95,0-.95,0-1.05-.71-.22.17-.39.43-.59.46s-.48.23-.71.32a2.57,2.57,0,0,1-3.22-1c-.19-.34-.39-.75-.21-1.09s.25-1.16.93-1.34c.4-.1.67-.52,1.12-.47.77.09,1.57-.24,2.32.18a.37.37,0,0,0,.31,0c.18-.09.11-.29.09-.43-.3-1.45-1.22-2-2.69-1.49-.32.11-.7-.12-1,.22-.07.08-.37-.19-.38-.43s-.09-.37.2-.47a9.86,9.86,0,0,1,3-.23c.65.51,1.39.81,1.63,1.81C400.31,88,400,89.47,400.2,91.07Z"/><path class="cls-14" d="M190.26,104.66c-.92.07-.92.07-1-.63a3.49,3.49,0,0,1-2.79,1,2.85,2.85,0,0,1-1.94-1.59c-.15-.5.19-.89.27-1.33s.49-.52.81-.73a2.28,2.28,0,0,1,1.63-.43c.57.07,1.16-.21,1.71.2.24.17.43,0,.38-.35A1.89,1.89,0,0,0,186.84,99a8.62,8.62,0,0,1-1,.22c-.57.08-.65,0-.66-.43,0-.16,0-.24.24-.31a7.48,7.48,0,0,1,2.9-.21c.63,0,1.49,1.08,1.67,1.71C190.46,101.55,190.12,103.12,190.26,104.66Z"/><path class="cls-14" d="M531.34,90.27a3.37,3.37,0,0,1-3.05,1,2.76,2.76,0,0,1-1.72-1.68c-.1-.46.22-.79.29-1.21s.45-.53.79-.74a2.31,2.31,0,0,1,1.62-.43c.57.07,1.16-.21,1.72.18.25.18.43,0,.39-.32A1.86,1.86,0,0,0,529,85.37c-.37.09-.74.14-1.1.23s-.51,0-.55-.31,0-.36.33-.47a7.48,7.48,0,0,1,2.66-.2c.69,0,1.61,1,1.81,1.71.43,1.47.13,3,.23,4.44,0,.28-.13.36-.36.3s-.61.22-.6-.3C531.38,90.66,531.36,90.55,531.34,90.27Z"/><path class="cls-14" d="M306.4,77.58c-.95.07-.95.07-1.07-.64a3.52,3.52,0,0,1-2.8,1,2.82,2.82,0,0,1-1.94-1.59c-.15-.49.19-.88.28-1.33s.49-.51.81-.73a2.28,2.28,0,0,1,1.62-.42c.57.07,1.16-.21,1.72.19.23.17.42,0,.37-.35A1.89,1.89,0,0,0,303,71.94a8.57,8.57,0,0,1-1,.21c-.57.08-.65,0-.65-.42,0-.17,0-.25.23-.32a7.68,7.68,0,0,1,2.9-.21c.63,0,1.48,1.09,1.68,1.72C306.61,74.47,306.19,76,306.4,77.58Z"/><path class="cls-14" d="M251,77.64c-.95,0-.95,0-1-.72-.21.19-.39.45-.58.47s-.4.21-.61.29a2.53,2.53,0,0,1-3.13-.67c-.25-.33-.55-.7-.41-1.13s.11-1,.56-1.31a2.72,2.72,0,0,1,1.84-.74c.69.07,1.4-.2,2.07.22.2.12.33-.09.31-.33a1.85,1.85,0,0,0-2.6-1.69c-.36.14-.78-.09-1.09.28-.08.09-.37-.18-.38-.42s-.11-.37.19-.47a9.54,9.54,0,0,1,3-.23c.65.49,1.39.81,1.63,1.8C251.1,74.52,250.78,76,251,77.64Z"/><path class="cls-14" d="M244,77.66c-.93,0-.93,0-1-.74a3.41,3.41,0,0,1-2.9,1,2.74,2.74,0,0,1-1.85-1.69c-.1-.45.21-.8.28-1.21a1.11,1.11,0,0,1,.81-.74c.33-.12.61-.47,1-.43.77.09,1.56-.24,2.31.18.28.16.44,0,.4-.32a2,2,0,0,0-2.54-1.76c-.25.39-.65.15-1,.24s-.52,0-.56-.3,0-.36.32-.47a7.51,7.51,0,0,1,2.66-.2c.7,0,1.62,1,1.82,1.7C244.19,74.45,243.86,76,244,77.66Z"/><path class="cls-14" d="M202.72,77.61c-.91,0-.91,0-1.05-.65a3.49,3.49,0,0,1-2.7,1,2.79,2.79,0,0,1-2-1.64c-.15-.5.22-.88.29-1.33s.43-.58.84-.71.62-.45,1-.4c.73.08,1.48-.18,2.21.15.33.15.46.06.44-.23A1.87,1.87,0,0,0,199.19,72c-.34.12-.7,0-1,.21s-.45-.1-.51-.3-.1-.39.27-.52a7.5,7.5,0,0,1,1.94-.22,2.47,2.47,0,0,1,2.15.88,2.69,2.69,0,0,1,.64,1.88C202.77,75.13,202.72,76.33,202.72,77.61Z"/><path class="cls-14" d="M269,91c-.93.06-.93.06-1.06-.67a3.28,3.28,0,0,1-2.8,1,2.78,2.78,0,0,1-1.92-1.6c-.15-.5.18-.89.27-1.33s.49-.52.83-.72a4.28,4.28,0,0,1,3.23-.28c.41.08.53,0,.47-.31a1.84,1.84,0,0,0-2.64-1.6,5.94,5.94,0,0,1-.8.09c-.56.1-.65,0-.64-.43,0-.18,0-.28.26-.3.49,0,.92-.36,1.46-.24a3.28,3.28,0,0,0,.83,0,1.69,1.69,0,0,1,1.45.53c.36.39.93.66.8,1.34C269.23,88,268.77,89.51,269,91Z"/><path class="cls-14" d="M288.6,91c-.91,0-.91,0-1-.66a3.36,3.36,0,0,1-2.69,1,2.8,2.8,0,0,1-2-1.62c-.15-.5.2-.88.28-1.33s.48-.52.83-.72a2.49,2.49,0,0,1,1.62-.41c.57.08,1.17-.21,1.71.21.16.13.38,0,.36-.27a1.88,1.88,0,0,0-2.56-1.78,6,6,0,0,1-.89.16c-.53.1-.58.08-.62-.32,0-.19,0-.32.26-.42a7.42,7.42,0,0,1,2.77-.2,1.66,1.66,0,0,1,1.14.68c.27.32.75.51.62,1.06-.08.33.27.51.26.86C288.57,88.49,288.6,89.76,288.6,91Z"/><path class="cls-15" d="M534.28,91.08V82.3c.28-.18.56,0,.91-.15v6.2c1.06-1,2-1.94,2.87-2.89a1.54,1.54,0,0,1,1.75-.53c-.77.78-1.51,1.52-2.26,2.25-.21.21-.14.33,0,.59a5.81,5.81,0,0,0,1,1.38,5.73,5.73,0,0,0,1.55,1.8,1.37,1.37,0,0,1-1.89-.67c-.49-.75-1.13-1.35-1.6-2.11-.26.26-.47.51-.71.71a1.62,1.62,0,0,0-.66,1.53C535.26,91.06,535.21,91.06,534.28,91.08Z"/><path class="cls-16" d="M225.89,74.78h-4.5c-.4,0-.55.21-.44.58a2.56,2.56,0,0,0,1,1.48,2.87,2.87,0,0,0,1.53.34,5.7,5.7,0,0,0,1.67-1l.53.62a3.33,3.33,0,0,1-5,0,3.44,3.44,0,0,1-.73-2.33A3.52,3.52,0,0,1,221,71.92a2.53,2.53,0,0,1,2.76-.61c.33.09.74.09,1,.47s.8.68.89,1.18S226.21,74.1,225.89,74.78Z"/><path class="cls-16" d="M224.19,103.3l.54.55c.05.06,0,.1-.06.17a3.37,3.37,0,0,1-4.89-.1,3.47,3.47,0,0,1-.78-2.32A3.64,3.64,0,0,1,220.13,99a2.7,2.7,0,0,1,2.78-.55,2.41,2.41,0,0,1,1.54,1.14,3,3,0,0,1,.52,2.33c-1.49,0-3,0-4.49,0-.49,0-.6.16-.45.64a2.21,2.21,0,0,0,1.35,1.53c1.05.52,1.8,0,2.59-.52A1.49,1.49,0,0,0,224.19,103.3Z"/><path class="cls-16" d="M334.84,101.87c-1.5,0-3,0-4.51,0-.43,0-.61.19-.46.55.24.55.38,1.22,1,1.49a2.18,2.18,0,0,0,1.53.34,3.35,3.35,0,0,0,1.71-1l.45.75c0-.05,0,0-.09.1a3.36,3.36,0,0,1-4.81-.21,3.3,3.3,0,0,1-.76-2.19A3.66,3.66,0,0,1,330,98.94a2.52,2.52,0,0,1,2.68-.57C334.17,98.76,334.94,100.07,334.84,101.87Z"/><path class="cls-16" d="M270.85,74.81H265.8A2.28,2.28,0,0,0,267,76.92c1,.53,1.89.29,3.07-.67l.5.51c.07,0,0,.09,0,.17a3.35,3.35,0,0,1-4.89-.09,2.75,2.75,0,0,1-.77-2,3.93,3.93,0,0,1,.46-2.21,3.41,3.41,0,0,1,1.58-1.44,3.05,3.05,0,0,1,2.37.22,3.33,3.33,0,0,1,1.59,2.65C270.86,74.3,270.85,74.5,270.85,74.81Z"/><path class="cls-16" d="M237.62,89.64l.55.55c.05,0,0,.09-.06.17a3.38,3.38,0,0,1-4.9-.1,3.46,3.46,0,0,1-.77-2.32,3.57,3.57,0,0,1,1.13-2.65,2.45,2.45,0,0,1,2.76-.52c.31.1.67,0,.92.4s.79.68.9,1.18.52,1.13.24,1.85h-4.48c-.49,0-.6.16-.45.63a2.25,2.25,0,0,0,1.35,1.54c1.05.52,1.8,0,2.59-.52A1.49,1.49,0,0,0,237.62,89.64Z"/><path class="cls-16" d="M188.55,74.78c-1.59,0-3.1,0-4.61,0-.27,0-.52,0-.41.37A2.34,2.34,0,0,0,185,77c1.23.47,1.92-.22,2.78-.73l.55.55A3.44,3.44,0,0,1,185,77.88a3.17,3.17,0,0,1-2.38-2.83,3.85,3.85,0,0,1,.38-2.24c1.11-1.81,2.16-1.94,4-1.35a2.3,2.3,0,0,1,1.17,1.24A3.87,3.87,0,0,1,188.55,74.78Z"/><path class="cls-16" d="M514.09,88.2h-4.65c-.34,0-.43.14-.37.41a2.16,2.16,0,0,0,2.49,2,2.78,2.78,0,0,0,1.72-.91l.53.52c.06.06,0,.1,0,.17a3.37,3.37,0,0,1-4.9-.09,2.82,2.82,0,0,1-.76-2,3.77,3.77,0,0,1,.47-2.21,4.38,4.38,0,0,1,1.57-1.46,5,5,0,0,1,2.39.22A3.66,3.66,0,0,1,514.09,88.2Z"/><path class="cls-16" d="M299.52,103.31l.54.54c.05.06,0,.1-.06.17a3.38,3.38,0,0,1-4.9-.1,3.51,3.51,0,0,1-.77-2.32A3.64,3.64,0,0,1,295.46,99a2.41,2.41,0,0,1,2.76-.51c.25.09.54-.06.75.23s.61.53.82.86a4.21,4.21,0,0,1,.51,1.22,5.56,5.56,0,0,1,.06,1.12c-1.55,0-3.05,0-4.56,0-.49,0-.58.16-.44.64a2.25,2.25,0,0,0,.94,1.39,2.64,2.64,0,0,0,1.52.36A5.55,5.55,0,0,0,299.52,103.31Z"/><path class="cls-16" d="M445,88.2h-4.4c-.36,0-.49.16-.41.49A2.33,2.33,0,0,0,442,90.56c.83.24,1.45-.24,2.11-.59.13-.07.21-.23.31-.35l.62.61a3.46,3.46,0,0,1-3.37,1.07,3.18,3.18,0,0,1-2.38-2.84,3.89,3.89,0,0,1,.38-2.23c1.12-1.82,2.19-2,4-1.34A2.23,2.23,0,0,1,445,86.53C445.09,87,445.6,87.51,445,88.2Z"/><path class="cls-16" d="M420.06,88.2h-4.6c-.38,0-.59.26-.42.59.31.62.52,1.27,1.32,1.59,1.21.49,2-.07,2.89-.72l.56.57a3.44,3.44,0,0,1-3.35,1.06,3.2,3.2,0,0,1-2.39-2.82,3.74,3.74,0,0,1,.47-2.44,3.18,3.18,0,0,1,1.62-1.4,3,3,0,0,1,2.36.28A3.45,3.45,0,0,1,420.06,88.2Z"/><path class="cls-16" d="M226.23,61.39h-5a2.31,2.31,0,0,0,1.16,2.11c1,.53,1.9.28,3.08-.67l.5.5c.07.06,0,.1,0,.17a3.34,3.34,0,0,1-4.89-.08,2.75,2.75,0,0,1-.77-2,3.85,3.85,0,0,1,.46-2.21,3.36,3.36,0,0,1,1.58-1.44,3,3,0,0,1,2.37.22,3.3,3.3,0,0,1,1.59,2.64C226.24,60.88,226.23,61.07,226.23,61.39Z"/><path class="cls-16" d="M233.42,61.36h-4.6c-.38,0-.59.25-.42.59.3.62.52,1.27,1.31,1.59,1.2.49,2,0,2.9-.72l.54.58c-.89,1.14-2.15,1.14-3.44,1.08-.55-.41-1.3-.56-1.66-1.19a3.8,3.8,0,0,1,.43-4.8,2.63,2.63,0,0,1,2.77-.61A3.23,3.23,0,0,1,233.42,61.36Z"/><path class="cls-16" d="M248.94,61.36h-4.53c-.38,0-.58.25-.42.59.3.62.52,1.27,1.31,1.6,1.21.48,2-.06,2.91-.73l.54.58c-.89,1.13-2.16,1.15-3.45,1.08-.55-.41-1.29-.56-1.65-1.19a3.78,3.78,0,0,1,.42-4.8,2.8,2.8,0,0,1,2.78-.63,2.4,2.4,0,0,1,1.62,1.21A2.79,2.79,0,0,1,248.94,61.36Z"/><path class="cls-16" d="M258.76,103.33l.51.51c.07,0,0,.09,0,.17a3.35,3.35,0,0,1-4.89-.08,2.71,2.71,0,0,1-.77-2,3.77,3.77,0,0,1,.46-2.21,3.35,3.35,0,0,1,1.57-1.44,3,3,0,0,1,2.37.21,3.33,3.33,0,0,1,1.6,2.65c0,.19,0,.39,0,.66h-5a2.34,2.34,0,0,0,1.17,2.16C256.68,104.53,257.59,104.29,258.76,103.33Z"/><path class="cls-16" d="M331.69,89.67l.56.56a3.26,3.26,0,0,1-2.87,1.1,3,3,0,0,1-2.08-1,3.45,3.45,0,0,1-.82-2.42,3.56,3.56,0,0,1,1.08-2.55,2.53,2.53,0,0,1,2.76-.6c.34.09.74.1,1,.47s.8.7.89,1.18.52,1.14.18,1.81h-4.5c-.38,0-.59.25-.43.58.31.63.52,1.28,1.32,1.6C330,90.88,330.81,90.33,331.69,89.67Z"/><path class="cls-16" d="M212.43,103.3l.58.58a2.11,2.11,0,0,1-.19.23,3.37,3.37,0,0,1-4.81-.2,3.4,3.4,0,0,1-.76-2.32A3.67,3.67,0,0,1,208.3,99a2.8,2.8,0,0,1,2.86-.61,2.33,2.33,0,0,1,1.54,1.14,2.93,2.93,0,0,1,.52,2.32c-1.5,0-3,0-4.51,0-.44,0-.62.19-.47.54.24.55.38,1.22,1,1.5a2.22,2.22,0,0,0,1.52.34A3.27,3.27,0,0,0,212.43,103.3Z"/><path class="cls-16" d="M345.34,89.64l.58.58a2.2,2.2,0,0,1-.2.23,3.35,3.35,0,0,1-4.8-.21,3.41,3.41,0,0,1-.77-2.2,3.69,3.69,0,0,1,1.14-2.77,2.54,2.54,0,0,1,2.68-.56c1.48.39,2.25,1.7,2.15,3.49h-4.51c-.43,0-.62.19-.46.55.24.55.37,1.22,1,1.49a2.59,2.59,0,0,0,1.53.35A5.89,5.89,0,0,0,345.34,89.64Z"/><path class="cls-13" d="M195.52,77.64h-.88c0-.1-.08-.16-.08-.23V73.7c0-1.55-1-2.18-2.43-1.57A2.11,2.11,0,0,0,191,74.22c-.08,1.1,0,2.22,0,3.33-.3.24-.61,0-.93.14V68.87a1.48,1.48,0,0,1,1,0v3.7l.67-.75a2.33,2.33,0,0,1,3.2,0,2.07,2.07,0,0,1,.68,1.66C195.48,74.82,195.52,76.18,195.52,77.64Z"/><path class="cls-13" d="M407.83,82.2v3.57a.73.73,0,0,0,.54-.4,2.34,2.34,0,0,1,3.47,0,1.88,1.88,0,0,1,.56,1.34c0,1.43,0,2.86,0,4.3-.3.23-.61,0-1,.15,0-1.42,0-2.73,0-4,0-1.52-1.07-2.16-2.46-1.53a2.15,2.15,0,0,0-1.12,2.11c-.08,1.1,0,2.22,0,3.31-.29.18-.57.07-.9.11V82.27C407.16,82.13,407.44,82.25,407.83,82.2Z"/><path class="cls-13" d="M258.83,72.48a3.24,3.24,0,0,1,.38-.56,2.24,2.24,0,0,1,3.36,0,1.69,1.69,0,0,1,.62,1.42c-.06,1.43,0,2.86,0,4.26a1.92,1.92,0,0,1-1,.06v-3.9a2.65,2.65,0,0,0-.07-.8A1.54,1.54,0,0,0,260,72a2.1,2.1,0,0,0-1.4,2.14c-.05,1.11,0,2.23,0,3.35-.26.29-.59,0-.92.18V68.87c.24-.17.54-.07.92-.05v3.53Z"/><path class="cls-12" d="M201.78,47.29c-.25-.7.19-1.31.51-1.88a3,3,0,0,1,1.64-1.2,3.35,3.35,0,0,1,3.82,1.35,3.49,3.49,0,0,1,0,3.79,3,3,0,0,1-2.42,1.47,3.2,3.2,0,0,1-2.54-.79A3,3,0,0,1,201.78,47.29Z"/><path class="cls-12" d="M219.51,88c.12,1.81-.95,2.63-2.23,3.21s-3.05-.25-3.85-1.51a3.87,3.87,0,0,1-.35-2.71,2.59,2.59,0,0,1,1-1.62A3.37,3.37,0,0,1,219.49,87,3.47,3.47,0,0,1,219.51,88Z"/><path class="cls-12" d="M275.41,101.49a4.14,4.14,0,0,1-.3,1.79c-.32.7-1,1-1.47,1.4a2.49,2.49,0,0,1-1.42.32,3.21,3.21,0,0,1-3.23-2.24,3.57,3.57,0,0,1,2.14-4.41,3.41,3.41,0,0,1,3.81,1.41A2.63,2.63,0,0,1,275.41,101.49Z"/><path class="cls-12" d="M484.55,88.32c.06-1.87.63-2.9,2.07-3.51a3.51,3.51,0,0,1,2.18-.13A2.76,2.76,0,0,1,490.6,86a3.6,3.6,0,0,1,0,3.89,3,3,0,0,1-2.45,1.45,3.33,3.33,0,0,1-2.45-.76A2.82,2.82,0,0,1,484.55,88.32Z"/><path class="cls-12" d="M283.32,101.74a2.66,2.66,0,0,1-.4,1.64,3.26,3.26,0,0,1-2.69,1.6,3,3,0,0,1-3.24-2.16,3.74,3.74,0,0,1,.09-2.71,3.2,3.2,0,0,1,2.08-1.81,3.41,3.41,0,0,1,4.08,2.16.6.6,0,0,1,.08.21C283.33,101,283.32,101.31,283.32,101.74Z"/><path class="cls-12" d="M320.75,101.32a3.46,3.46,0,0,1-.3,1.93,3.36,3.36,0,0,1-6.1-.47,3.67,3.67,0,0,1,2.19-4.5,3.55,3.55,0,0,1,4.16,2.24A2.39,2.39,0,0,1,320.75,101.32Z"/><path class="cls-11" d="M272.55,30.88V23.77h2.06l0,0a.2.2,0,0,1,0,.11c0,2.3,0,4.61,0,7Z"/><path class="cls-11" d="M282.8,30.9h-2.08V23.75c.65-.05,1.35,0,2.08,0Z"/><path class="cls-11" d="M220.51,23.75h2.08v7.11h-2.08Z"/><path class="cls-11" d="M181,85c.81-.23,1.21,0,1.43.59.32.91.79,1.75,1.11,2.66a14.46,14.46,0,0,0,.82,1.68c.12-.12.31-.22.34-.35a28,28,0,0,1,1.38-3.74c.07-.2,0-.39.09-.56a.93.93,0,0,1,1.12-.33.22.22,0,0,1,.05.31c-.29.19-.13.52-.25.74-1,1.72-1.49,3.62-2.35,5.38-.07.14-.19.24-.26.37a2.18,2.18,0,0,1-2.69,1.3c-.25-.06-.54-.45-.4-.61s.29-.55.65-.27a1,1,0,0,0,1.43-.22,1.2,1.2,0,0,0,.16-1.37c-.25-.52-.43-1.09-.72-1.61C182.22,87.65,181.85,86.24,181,85Z"/><path class="cls-13" d="M276.37,91.05h-1c0-1.41,0-2.79,0-4.18s-1-1.79-2.23-1.39-1.26,1.28-1.34,2.17c-.1,1.11,0,2.22,0,3.36a1.67,1.67,0,0,1-.94,0V84.94c.88-.09.88-.09,1,.71a2.57,2.57,0,0,1,1.16-.9,2.35,2.35,0,0,1,1.91,0c.59.21.91.72,1.34,1.11.17.15.07.37.07.56C276.37,87.93,276.37,89.45,276.37,91.05Z"/><path class="cls-13" d="M187.16,58.05c.87,0,.87,0,1,.74.27-.53.87-.53,1.15-1a3.29,3.29,0,0,1,2.25.24,6.7,6.7,0,0,1,.94.91c.14.13.11.28.11.43v4.74a1.9,1.9,0,0,1-1,.08v-3.9a2.43,2.43,0,0,0-.07-.81,1.55,1.55,0,0,0-2.12-.9,2.08,2.08,0,0,0-1.39,2.14c-.07,1.12,0,2.23,0,3.37-.27.21-.58.1-.92.09Z"/><path class="cls-13" d="M305.39,91.06a2,2,0,0,1-.93,0V84.94c.19-.18.44-.06.67-.09s.27.09.26.28-.06.6.38.2a2.51,2.51,0,0,1,2-.75,2.69,2.69,0,0,1,1.54.66,1.8,1.8,0,0,1,.69,1.64c-.06,1.35,0,2.71,0,4.07-.26.3-.59,0-1,.21,0-1.5,0-2.88,0-4.27a1.35,1.35,0,0,0-.9-1.41,1.89,1.89,0,0,0-2.36.85,4,4,0,0,0-.35,1.54C305.43,88.9,305.39,89.94,305.39,91.06Z"/><path class="cls-13" d="M347.66,84.89c.86,0,.86,0,1,.73.26-.51.86-.52,1.15-1a3.32,3.32,0,0,1,2.24.24,7.42,7.42,0,0,1,.95.91c.14.14.1.29.1.44V91a1.9,1.9,0,0,1-1,.07c0-1.3,0-2.6,0-3.9a2.72,2.72,0,0,0-.06-.81,1.56,1.56,0,0,0-2.13-.89,2.08,2.08,0,0,0-1.39,2.14c-.06,1.11,0,2.23,0,3.37-.28.2-.59.1-.92.08Z"/><path class="cls-13" d="M493.72,91.06h-.92V85c.85-.16.85-.16,1,.67.24-.51.75-.55,1.08-.87s1.48-.17,2,0,.83.69,1.25,1c.15.12.11.28.11.43V91c-.3.16-.58.07-1,.08,0-1.3,0-2.6,0-3.9a2.72,2.72,0,0,0-.06-.81,1.58,1.58,0,0,0-2.12-.91,2.09,2.09,0,0,0-1.4,2.14C493.66,88.74,493.72,89.89,493.72,91.06Z"/><path class="cls-13" d="M240.93,85.62a2.94,2.94,0,0,1,2.55-1c.69.07,1.06.55,1.54.92s.4.73.4,1.16V91c-.29.25-.6,0-1,.16,0-1.49,0-2.88,0-4.27s-1-1.78-2.23-1.37-1.26,1.28-1.34,2.17c-.09,1.1,0,2.22,0,3.32-.28.19-.57.06-.83.1,0,0-.09,0-.09-.08V84.93C240.8,84.86,240.8,84.86,240.93,85.62Z"/><path class="cls-13" d="M457,91l-.28.07c-.19,0-.39,0-.68,0,0-1.41,0-2.79,0-4.17a1.53,1.53,0,0,0-1.78-1.59c-.48,0-.77.48-1.23.5,0,.31-.27.52-.37.81a4.28,4.28,0,0,0-.22,1.46c0,1,0,1.91,0,2.88-.28.25-.59,0-.92.16V85c.87-.13.87-.13,1,.63a5.41,5.41,0,0,0,.88-.63,2.33,2.33,0,0,1,2.51-.09c.41.18.69.64,1,.95.15.14.1.3.1.44Z"/><path class="cls-13" d="M205.58,77.63h-.91v-6.1c.87-.12.87-.12,1,.65.34-.21.62-.46.89-.64a2.32,2.32,0,0,1,2.29-.16c.58.19.81.71,1.25,1,.16.12.09.29.09.44v4.78h-1c0-1.39,0-2.77,0-4.15a1.46,1.46,0,0,0-1-1.48,2,2,0,0,0-2.36,1.11,4.58,4.58,0,0,0-.26,1.57c0,.91,0,1.83,0,2.75C205.59,77.47,205.59,77.51,205.58,77.63Z"/><path class="cls-13" d="M201,104.72a2.18,2.18,0,0,1-.93,0V98.6c.19-.18.43-.06.66-.09s.27.09.27.28-.07.6.38.2a2.45,2.45,0,0,1,2-.74,2.67,2.67,0,0,1,1.53.65,1.81,1.81,0,0,1,.69,1.64c-.06,1.35,0,2.71,0,4.07-.26.3-.58,0-1,.22,0-1.51,0-2.89,0-4.28a1.35,1.35,0,0,0-.9-1.41,1.88,1.88,0,0,0-2.36.86,3.9,3.9,0,0,0-.35,1.53C201.08,102.56,201,103.6,201,104.72Z"/><path class="cls-13" d="M232.22,104.74c-.38,0-.65.07-1-.09,0-1.29,0-2.6,0-3.91a1.57,1.57,0,0,0-2.47-1.51,2.09,2.09,0,0,0-1.1,2c-.08,1.14,0,2.29,0,3.42a1.77,1.77,0,0,1-.91.08V98.58c.85-.06.85-.06,1,.69a4.51,4.51,0,0,1,.49-.49,2.82,2.82,0,0,1,2.18-.51,2.54,2.54,0,0,1,1.34.84,1.33,1.33,0,0,1,.48,1.13C232.2,101.71,232.22,103.18,232.22,104.74Z"/><path class="cls-13" d="M256.45,64.21h-.92V58.12c.85-.14.85-.14,1,.62.29-.46.87-.5,1.16-.92a3.11,3.11,0,0,1,2.33.32c.29.21.51.51.78.75a.6.6,0,0,1,.18.52v4.74a1.92,1.92,0,0,1-1,.06c0-1.33,0-2.68,0-4a1.61,1.61,0,0,0-.12-.79,1.56,1.56,0,0,0-2.07-.78,2.1,2.1,0,0,0-1.4,2.14C256.42,61.87,256.45,63,256.45,64.21Z"/><path class="cls-14" d="M196.55,64.48a2.57,2.57,0,0,1-2.1-.71c-.6,0-.16-.26-.14-.44.05-.36.2-.35.47-.2a4.85,4.85,0,0,0,2,.64c.71.06,1-.49,1.33-.84.17-.16-.32-1.08-.63-1.06s-.65-.22-1-.31c-.48-.13-1.07-.18-1.39-.68-.78,0-.38-.85-.81-1.1a4,4,0,0,1,.45-1.12c.83-1,1.55-1.07,2.91-.74.23.06.57-.07.74.22s.53,0,.46.39-.49.58-.73.41-.65-.16-1-.32a1.28,1.28,0,0,0-1.4.1c-.54.33-.62.82-.15,1.21a7.2,7.2,0,0,0,2.13.92,1.83,1.83,0,0,1,1,.88c.13.26.43.64.29.94a3.06,3.06,0,0,1-.81,1.35,2.06,2.06,0,0,1-1.38.46C196.79,64.47,196.67,64.48,196.55,64.48Z"/><path class="cls-14" d="M338.21,105a2.4,2.4,0,0,1-2-.72c-.79,0-.07-.34-.07-.47,0-.37.22-.25.46-.13a4.87,4.87,0,0,0,2,.62c.71,0,.92-.53,1.32-.87.15-.13-.4-1-.7-1.06-.49-.09-.93-.38-1.37-.44s-.82-.52-1.29-.67-.07-.77-.47-1a4.08,4.08,0,0,1,.39-1,2.13,2.13,0,0,1,1.87-1,3.47,3.47,0,0,1,2,.48c.13.06.32,0,.34.22s-.18.35-.32.46-.46.13-.54,0c-.22-.35-.58-.12-.85-.31a1.28,1.28,0,0,0-1.4.12c-.54.31-.59.75-.18,1.15a1.65,1.65,0,0,0,1,.51,11.25,11.25,0,0,1,1.46.56c.63.16.92.92,1,1.54a1.57,1.57,0,0,1-.4,1.12C339.83,104.84,339.48,105,338.21,105Z"/><path class="cls-14" d="M176,105a2.52,2.52,0,0,1-2.16-.71c-.79,0-.07-.33-.08-.46,0-.38.22-.27.46-.14a5.07,5.07,0,0,0,2,.62c.71,0,.93-.53,1.32-.87.15-.12-.41-1-.69-1a3.16,3.16,0,0,1-1.08-.32c-.42-.14-1-.21-1.27-.66-.76,0-.36-.87-.78-1.13.22-.35.18-.79.45-1.13a2.65,2.65,0,0,1,2.85-.79c.21.35.72,0,.93.4,0,.06.3,0,.33.21s-.17.37-.32.46-.42,0-.65,0A4.64,4.64,0,0,0,176,99a1.47,1.47,0,0,0-.86.25c-.53.31-.59.75-.19,1.15a1.67,1.67,0,0,0,1,.51c.55,0,.94.42,1.46.55s.93.93,1.05,1.54a1.58,1.58,0,0,1-.4,1.13A2.14,2.14,0,0,1,176,105Z"/><path class="cls-14" d="M461.17,91.32a2.61,2.61,0,0,1-2.11-.7c-.6,0-.16-.26-.14-.45.05-.36.2-.35.47-.2a4.86,4.86,0,0,0,2,.65c.71.06,1-.48,1.33-.84.2-.19-.34-1-.76-1.08a8.25,8.25,0,0,1-1-.31,1.79,1.79,0,0,1-1.27-.67c-.78,0-.38-.84-.81-1.09a4,4,0,0,1,.45-1.12c.84-1.05,1.56-1.08,2.91-.75.23.06.57-.07.74.23s.53,0,.46.39-.5.57-.72.41-.66-.16-.95-.33a1.32,1.32,0,0,0-1.41.1c-.54.33-.62.83-.15,1.21a6.72,6.72,0,0,0,2.13.92,1.87,1.87,0,0,1,1,.88c.13.26.42.64.29.94a3,3,0,0,1-.81,1.35,2,2,0,0,1-1.37.46Z"/><path class="cls-14" d="M187.89,50.81a2.51,2.51,0,0,1-2.06-.69c-.72,0-.16-.42-.12-.55.09-.37.29-.15.51,0a4.14,4.14,0,0,0,1.22.5c.6.11,1.27.27,1.71-.4.12-.19.49-.32.35-.55s-.21-.79-.75-.92a4.15,4.15,0,0,1-2.24-.94c-.8,0-.37-.86-.83-1.08a4.5,4.5,0,0,1,.44-1.13,2.45,2.45,0,0,1,2.91-.77c.27.11.63,0,.84.3.07.11.43,0,.36.31a.54.54,0,0,1-.47.45,1,1,0,0,1-.54-.15,4.68,4.68,0,0,0-1.18-.32,1.11,1.11,0,0,0-.86.22c-.54.34-.63.8-.18,1.21a3.08,3.08,0,0,0,1,.5,5.76,5.76,0,0,1,1.72.76,1.65,1.65,0,0,1,.51,2.09,1.94,1.94,0,0,1-1.81,1.2Z"/><path class="cls-14" d="M292.38,91.31a2.58,2.58,0,0,1-2.23-.71c-.76,0-.09-.33-.09-.46,0-.37.21-.27.46-.15a5.24,5.24,0,0,0,2,.63c.71,0,.93-.52,1.32-.86.15-.13-.4-1.06-.68-1.05s-.57-.21-.85-.29c-.49-.14-1.07-.16-1.41-.65-.77,0-.5-.84-.88-1.17.26-.37.2-.85.52-1.23a2.78,2.78,0,0,1,2.78-.7c.2.36.72,0,.93.41,0,.06.3,0,.33.21s-.17.37-.32.45a.62.62,0,0,1-.65,0,3.47,3.47,0,0,0-1-.36,1.42,1.42,0,0,0-1.1.22c-.5.35-.61.78-.18,1.15.23.19.49.48.74.48.61,0,1,.52,1.59.56.39,0,.63.45.86.75a1.26,1.26,0,0,1,.31.92,2.41,2.41,0,0,1-1.21,1.69A3.12,3.12,0,0,1,292.38,91.31Z"/><path class="cls-14" d="M266.53,62.84c-.12-.83-.78-1.08-1.5-1.24a5.44,5.44,0,0,1-1.62-.71,1.55,1.55,0,0,1-.3-2.21,2.47,2.47,0,0,1,2.91-.79c.27.11.65,0,.84.31.07.12.45,0,.38.29s-.24.53-.57.46a4.81,4.81,0,0,1-1.06-.32,1.38,1.38,0,0,0-1.4.08c-.57.36-.69.8-.21,1.19a2,2,0,0,0,.87.48c.55,0,.95.41,1.46.55.69.18.95.93,1.15,1.59.07.26-.18.48-.26.73a1.77,1.77,0,0,1-1.42,1.19,4.89,4.89,0,0,1-2.3-.17c-.39-.13-.53-.56-1-.59-.15,0,.22-.21.17-.44s.21-.26.33-.19a5,5,0,0,0,1,.48A1.76,1.76,0,0,0,266.53,62.84Z"/><path class="cls-14" d="M356.9,91.32a3.46,3.46,0,0,1-2-.68c-.39-.24-.1-.23-.08-.41.06-.45.19-.4.53-.22a3.74,3.74,0,0,0,2.14.59,2.41,2.41,0,0,0,1.19-.86c.08-.22-.41-.95-.73-1a12.23,12.23,0,0,1-1.59-.5c-.57-.28-1.34-.44-1.31-1.34-.46-.51,0-1,.22-1.29a2,2,0,0,1,2-1,4.31,4.31,0,0,1,1.84.49c.12.07.31,0,.32.23s-.14.28-.25.38-.45.11-.73,0a3.74,3.74,0,0,0-1.41-.38,1.52,1.52,0,0,0-.73.27c-.55.29-.57.74-.16,1.16a1.4,1.4,0,0,0,.87.47c.57,0,.94.44,1.47.55.74.16,1,.94,1.15,1.59a1.37,1.37,0,0,1-.36,1,2,2,0,0,1-1.87,1Z"/><path class="cls-14" d="M200.8,45.18c-.15.15-.27.25-.38.38s-.21.16-.44,0a3.27,3.27,0,0,1-.65-.45,1.54,1.54,0,0,0-1.52-.3c-.5.2-1.27.23-1.34,1a2.85,2.85,0,0,0,0,3.31,2.47,2.47,0,0,0,2.34.8c.68-.2.68-.2,1.37-.89l.47.66a3.26,3.26,0,0,1-4.56.29,3.68,3.68,0,0,1-.28-5A3.42,3.42,0,0,1,200.8,45.18Z"/><path class="cls-14" d="M327.34,103.3l.55.55a3.26,3.26,0,0,1-4.63.4,3.67,3.67,0,0,1-.28-5,3.37,3.37,0,0,1,4.86,0l-.61.59a1.84,1.84,0,0,1-.66-.4A1.57,1.57,0,0,0,325,99a2.21,2.21,0,0,0-1.45,1.12,3.23,3.23,0,0,0,.18,3.33,2.62,2.62,0,0,0,2.28.73C326.62,104,326.65,104,327.34,103.3Z"/><path class="cls-14" d="M333.18,85c1-.13,1.2,0,1.48.81.4,1.19.95,2.32,1.41,3.48.06.17,0,.41.3.4s.21-.3.27-.44c.43-1.18,1.05-2.28,1.39-3.5a2.21,2.21,0,0,1,.4-.67c.17-.21.83-.29,1-.12s-.09.4-.18.58c-.83,1.7-1.42,3.5-2.31,5.16-.17.31-.29.46-.66.43s-.51-.23-.64-.55q-.5-1.29-1.05-2.55C334.12,87,333.65,86,333.18,85Z"/><path class="cls-14" d="M360.49,85c1.09-.1,1.24,0,1.52.84.39,1.23,1,2.37,1.43,3.6.06.18.12.27.3.25s.15-.11.2-.23c.42-1.23,1-2.37,1.43-3.6.28-.87.42-1,1.4-.88.08.15,0,.26-.08.41A27.66,27.66,0,0,0,365.11,89c-.2.59-.61,1.1-.87,1.67-.12.27-.19.43-.54.43s-.62-.11-.69-.36c-.37-1.52-1.32-2.8-1.74-4.31A7.55,7.55,0,0,0,360.49,85Z"/><path class="cls-14" d="M308.47,69.53h1v1.9c.5,0,1,0,1.43,0,.27,0,.56-.09.54.39s-.25.32-.48.32c-.47,0-.94,0-1.46,0,0,1.3,0,2.53,0,3.76a1,1,0,0,0,1.33,1c.2-.06.36-.35.57-.08s-.12.78-.33.81a2.91,2.91,0,0,1-1.91-.22,1.23,1.23,0,0,1-.65-1.16c.06-1.35,0-2.7,0-4.11a6.29,6.29,0,0,0-.63,0c-.27,0-.34-.1-.33-.35s0-.39.3-.38a6.14,6.14,0,0,0,.62,0Z"/><path class="cls-14" d="M209,85.57h-.72c-.23,0-.24-.15-.23-.31s-.07-.42.25-.41h.68V83h1v1.89c.59,0,1.11,0,1.62,0,.27,0,.32.13.32.36s0,.38-.31.37h-1.62c0,1.27,0,2.49,0,3.72,0,.9.56,1.24,1.47.9.12,0,.24-.1.33,0s.11.27.11.42a.49.49,0,0,1-.41.5c-.53,0-1,.14-1.61-.15a1.31,1.31,0,0,1-.87-1.33C209,88.27,209,87,209,85.57Z"/><path class="cls-14" d="M465.41,84.85V83a1.92,1.92,0,0,1,.93-.08v1.91c.59,0,1.1,0,1.61,0,.26,0,.35.09.34.35s0,.39-.29.38h-1.63c0,1.25,0,2.48,0,3.7,0,.92.56,1.27,1.46.93.17-.06.3-.14.41,0s0,.22,0,.33a.49.49,0,0,1-.39.52,2.71,2.71,0,0,1-2-.34,1.14,1.14,0,0,1-.5-1c0-1.35,0-2.7,0-4-.19-.19-.4-.12-.58-.1-.34,0-.39-.14-.39-.42s.13-.34.37-.31S465.13,84.85,465.41,84.85Z"/><path class="cls-14" d="M375.2,85.57h-.66c-.28,0-.3-.15-.3-.37s.06-.37.32-.35.39,0,.62,0V83.06c.33-.27.63,0,1-.17v2h1.68c.32,0,.24.23.25.41s0,.31-.24.31h-1.68c0,1.34,0,2.68,0,4a1,1,0,0,0,1.34.72c.2-.08.37-.35.55,0s-.13.8-.34.79a3.09,3.09,0,0,1-1.82-.21,1.25,1.25,0,0,1-.72-1.21C375.24,88.33,375.2,87,375.2,85.57Z"/><path class="cls-14" d="M297.68,84.85c.63,0,1.15,0,1.66,0,.29,0,.29.17.3.38s-.07.36-.33.35h-1.59c0,1.24,0,2.43,0,3.62s.47,1.34,1.5,1a.49.49,0,0,1,.31,0c.18.09.09.28.1.43a.46.46,0,0,1-.33.45,2.61,2.61,0,0,1-2.35-.58.78.78,0,0,1-.19-.65V85.57h-.62c-.26,0-.34-.07-.35-.33s.1-.43.41-.39c.15,0,.31,0,.51,0V83.12c.31-.36.64-.08,1-.25Z"/><path class="cls-14" d="M269.41,58.72a5,5,0,0,0-.58,0c-.34,0-.39-.13-.39-.42s.13-.33.37-.31a5.17,5.17,0,0,0,.56,0V56.2a2,2,0,0,1,1-.11V58H272c.26,0,.35.09.34.34s0,.39-.29.39c-.51,0-1,0-1.63,0,0,1.26,0,2.48,0,3.7,0,.92.56,1.28,1.46.93.17-.06.3-.14.41,0s0,.23.05.34a.5.5,0,0,1-.4.51,2.66,2.66,0,0,1-2-.34,1.13,1.13,0,0,1-.5-1C269.43,61.53,269.41,60.17,269.41,58.72Z"/><path class="cls-14" d="M201,58.72h-.67c-.29,0-.29-.16-.3-.37s.07-.37.33-.35.39,0,.62,0V56.21c.33-.25.63-.05,1-.16v2h1.68c.23,0,.25.14.24.31s.08.41-.25.41H202c0,1.31,0,2.61,0,3.91a1,1,0,0,0,1.35.83c.21-.07.38-.34.56,0s-.15.81-.35.79a3.8,3.8,0,0,1-1.72-.19,1.23,1.23,0,0,1-.81-1.24C201.06,61.48,201,60.16,201,58.72Z"/><path class="cls-14" d="M180.41,99.23a5.67,5.67,0,0,0-.59,0c-.35,0-.38-.14-.38-.42s.14-.32.37-.3h.56V96.7a1.89,1.89,0,0,1,1-.09v1.9H183c.26,0,.34.09.33.34s0,.39-.3.38c-.51,0-1,0-1.63,0,0,1.26,0,2.48,0,3.71,0,.91.56,1.26,1.47.92.16-.06.29-.14.4,0a.64.64,0,0,1,0,.34.49.49,0,0,1-.4.51,2.75,2.75,0,0,1-1.91-.27,1.2,1.2,0,0,1-.59-1.07C180.45,102,180.41,100.67,180.41,99.23Z"/><path class="cls-14" d="M291.2,98.51h1.67c.29,0,.29.16.29.38s-.06.35-.33.34c-.51,0-1,0-1.59,0,0,1.24,0,2.43,0,3.62s.47,1.34,1.5,1a.46.46,0,0,1,.32,0c.17.08.08.28.1.43s-.19.37-.33.45a2.63,2.63,0,0,1-2.36-.59.79.79,0,0,1-.19-.64V99.23c-.24,0-.43,0-.62,0s-.34-.07-.35-.33.1-.43.41-.39h.51V96.78c.31-.36.64-.08,1-.25Z"/><path class="cls-14" d="M279.72,85.57c0,1.28,0,2.48,0,3.67,0,.85.58,1.32,1.35,1.06.21-.07.38-.34.55,0s-.13.79-.35.79a3.17,3.17,0,0,1-1.82-.22,1.29,1.29,0,0,1-.71-1.22c.05-1.31,0-2.63,0-3.95-.19-.21-.44-.1-.67-.11s-.28-.17-.29-.38.07-.36.33-.34.39,0,.62,0V83a1.69,1.69,0,0,1,1,0v1.87h1.68c.24,0,.25.14.24.31s.07.41-.25.41Z"/><path class="cls-17" d="M402.79,91.05h-.92V84.93c.24-.17.55-.07.84-.05.22.36-.06.79.16,1.14,1.54-1.39,1.54-1.39,2.52-1.36a3.11,3.11,0,0,1,0,.32c0,.3.1.56-.44.62a2.08,2.08,0,0,0-1.85,1.45,5.12,5.12,0,0,0-.35,1.65C402.81,89.45,402.79,90.21,402.79,91.05Z"/><path class="cls-17" d="M215.67,104.72h-.92V98.53h.84c.23.36-.07.79.18,1.16.75-.58,1.25-1.61,2.45-1.4.17.19.06.39.09.58s0,.33-.31.37a2.2,2.2,0,0,0-2,1.46,5.07,5.07,0,0,0-.36,1.65C215.69,103.1,215.67,103.86,215.67,104.72Z"/><path class="cls-17" d="M447.65,91.06h-.92V84.93c.23-.24.55,0,.81-.1.26.41,0,.83.2,1.18,1.54-1.38,1.54-1.38,2.47-1.36.13.09.08.22.08.33,0,.29.1.56-.43.62A2.08,2.08,0,0,0,448,87a5.12,5.12,0,0,0-.35,1.65C447.67,89.45,447.65,90.2,447.65,91.06Z"/><path class="cls-17" d="M183,64.21h-.91V58.07a1.9,1.9,0,0,1,.9,0v1.31c.42-.43.73-.7,1-1a2,2,0,0,1,1-.55c.56-.17.76.09.69.68,0,.31-.23.22-.41.27a2.22,2.22,0,0,0-1.87,1.45,5.36,5.36,0,0,0-.37,1.64C183.05,62.61,183,63.39,183,64.21Z"/><path class="cls-17" d="M235.93,59.2c.72-.62,1.23-1.58,2.41-1.43.2.13.1.35.12.53s0,.39-.36.44a2.19,2.19,0,0,0-1.95,1.5,4.87,4.87,0,0,0-.34,1.66c.05.75,0,1.5,0,2.24-.28.18-.57.06-.83.1,0,0-.09-.06-.09-.09V58.06a1.67,1.67,0,0,1,.86,0C235.92,58.44,235.69,58.86,235.93,59.2Z"/><path class="cls-17" d="M251.42,64.21h-.93V58.09c.24-.18.55-.07.93-.05v1.2C253,57.78,253,57.78,254,57.81c.12.08.07.21.07.32,0,.3.11.56-.43.62a2.09,2.09,0,0,0-1.86,1.45,5.12,5.12,0,0,0-.35,1.65C251.43,62.6,251.42,63.36,251.42,64.21Z"/><path class="cls-17" d="M253.81,77.64h-.92V71.51c.24-.18.54-.07.84-.06.23.36-.06.79.17,1.14,1.54-1.38,1.54-1.38,2.47-1.36.13.08.08.21.08.32,0,.3.11.56-.43.62a2.12,2.12,0,0,0-1.86,1.45,5.12,5.12,0,0,0-.35,1.65C253.83,76,253.81,76.78,253.81,77.64Z"/><path class="cls-17" d="M286,98.42v1.4c.45-.45.77-.82,1.14-1.13a1.57,1.57,0,0,1,1.41-.39c.16.12.06.34.08.52s-.06.38-.38.43a2.21,2.21,0,0,0-1.76,1.11,5,5,0,0,0-.49,1.94c0,.39,0,.79,0,1.19v1.16a2,2,0,0,1-.9.09V98.58C285.29,98.41,285.58,98.59,286,98.42Z"/><path class="cls-17" d="M310,98.53h.93v1.24c.84-.66,1.35-1.7,2.55-1.48.15.2,0,.41.08.6s-.07.31-.32.35a2.21,2.21,0,0,0-2,1.47,4.87,4.87,0,0,0-.35,1.65c0,.76,0,1.51,0,2.28a1.32,1.32,0,0,1-.92.06Z"/><path class="cls-18" d="M324.83,91.06h-1V82.33c.27-.21.58-.1,1-.09v8.82Z"/><path class="cls-18" d="M227.67,68.81h.86s.09.08.09.11c0,2.87,0,5.74,0,8.63a1.28,1.28,0,0,1-.88.08s-.08-.07-.08-.1Z"/><path class="cls-19" d="M192.42,50.65V44.44c.27-.2.56,0,.94-.18v6.2C193.07,50.68,192.78,50.5,192.42,50.65Z"/><path class="cls-19" d="M471.12,91.06h-.87V84.87h.87Z"/><path class="cls-19" d="M421.78,84.87h.89V91c-.24.16-.55.07-.89,0Z"/><path class="cls-19" d="M302.24,91.06h-.89V84.93c.24-.24.56,0,.89-.14Z"/><path class="cls-19" d="M183.09,44.36H184v6.13c-.22.25-.55,0-.87.15Z"/><path class="cls-19" d="M275.13,64.21h-.89V58.08c.24-.23.56,0,.89-.13Z"/><path class="cls-19" d="M273.45,77.64h-.88V71.51c.23-.17.54-.07.88-.05Z"/><path class="cls-19" d="M314,77.64h-.88V71.51c.24-.17.54-.08.88-.05Z"/><path class="cls-7" d="M220.51,21.11h2.08V23c-.65.05-1.34,0-2.08,0Z"/><path class="cls-7" d="M274.67,21.13V23h-2.12c-.06-.57,0-1.18,0-1.84Z"/><path class="cls-7" d="M282.8,23h-2.08V21.11c.65-.05,1.35,0,2.08,0Z"/><path class="cls-10" d="M286.9,21.13V23h-2.11c-.06-.57,0-1.18,0-1.84Z"/><path class="cls-20" d="M432.77,89.9H434a4.83,4.83,0,0,1-.23,1.92c-.23.44-.64.48-1,.69-.15.09-.26-.13-.36-.24s0-.2.14-.23c.29-.07.4-.36.62-.52a.32.32,0,0,0,.08-.31C432.5,91,432.86,90.43,432.77,89.9Z"/><path class="cls-20" d="M541.15,89.9h1.28a5,5,0,0,1-.23,1.92c-.23.43-.64.48-1,.69-.15.09-.26-.13-.36-.24s0-.2.13-.23.4-.36.62-.51a.3.3,0,0,0,.08-.31C540.94,91,541.32,90.42,541.15,89.9Z"/><path class="cls-19" d="M248.52,84.89V86h-1.13a3.4,3.4,0,0,1,0-1.12Z"/><path class="cls-19" d="M283.6,76.48h1.12v1.1c-.32.19-.71,0-1.12.11Z"/><path class="cls-19" d="M283.58,72.58V71.47h1.13a3.35,3.35,0,0,1,0,1.11Z"/><path class="cls-19" d="M324.13,77.62V76.5h1.12a3.4,3.4,0,0,1,0,1.12Z"/><path class="cls-19" d="M211.11,45.52H210V44.41s.14-.07.26-.07c.89,0,.89,0,.9.95Z"/><path class="cls-19" d="M247.38,89.9h1.12V91a3.38,3.38,0,0,1-1.12,0Z"/><path class="cls-19" d="M342.38,103.56h1.12v1.13a3.41,3.41,0,0,1-1.12,0Z"/><path class="cls-19" d="M286.4,64.21h-1.12v-1.1c.32-.19.71,0,1.12-.11Z"/><path class="cls-19" d="M206.53,63v1.15h-1.11s-.07-.13-.07-.25c0-.89,0-.89,1-.9Z"/><path class="cls-19" d="M206.52,59.2h-1.05c-.06-.07-.11-.1-.11-.13,0-.31,0-.63,0-1,.36-.21.75,0,1.17-.13Z"/><path class="cls-19" d="M210,49.4h1.12v1.1c-.32.19-.71,0-1.12.11Z"/><path class="cls-21" d="M193.37,42.88h-1.12c-.17-.27-.06-.55-.1-.86a3,3,0,0,1,1.12-.06C193.44,42.24,193.33,42.52,193.37,42.88Z"/><path class="cls-21" d="M312.82,69.05h1.12c.17.27.06.55.09.84-.36.21-.75,0-1.09.12C312.75,69.7,312.86,69.42,312.82,69.05Z"/><path class="cls-21" d="M273.47,69.07V70h-1.1c-.17-.24-.07-.54-.05-.88Z"/><path class="cls-21" d="M301.06,82.47h1.13c.16.27.05.55.08.81a1.55,1.55,0,0,1-1.1.09C301,83.15,301.11,82.84,301.06,82.47Z"/><path class="cls-21" d="M421.49,82.47h1.13c.16.27.05.55.09.84-.36.22-.75,0-1.1.12C421.43,83.12,421.54,82.84,421.49,82.47Z"/><path class="cls-21" d="M471.14,82.49v.88h-1.09c-.17-.23-.07-.54-.05-.88Z"/><path class="cls-21" d="M182.79,42h1.13c.16.28.05.56.09.87a3,3,0,0,1-1.12.06C182.73,42.61,182.84,42.33,182.79,42Z"/><path class="cls-21" d="M275.18,56.54h-1.13c-.16-.26-.05-.54-.08-.81a1.6,1.6,0,0,1,1.1-.08C275.28,55.87,275.13,56.17,275.18,56.54Z"/><path class="cls-22" d="M314,29.72c0-.23.2-.35.52-.52-.12.39.17.76-.28,1C314.23,30,314.39,29.74,314,29.72Z"/><path class="cls-23" d="M53,46.5a11.07,11.07,0,0,1,2.82-1.87,13.7,13.7,0,0,1,3.43-1.28A13.73,13.73,0,0,0,61,42.86c.65-.18,1.32-.24,2-.43a20.63,20.63,0,0,1,2-.29c.93-.17,1.89,0,2.77-.23A19.38,19.38,0,0,1,72,41.72a24.69,24.69,0,0,1,4.3,0,11.85,11.85,0,0,0,3,.17c2-.26,4.09-.11,6.13-.26a9.86,9.86,0,0,1,2.41-.17,19.13,19.13,0,0,0,3.62.21.69.69,0,0,1,.43.14c.41.28.8.07,1.17-.13a22.06,22.06,0,0,1,7.79,3.75,12.58,12.58,0,0,1,5.24,10.14,4.33,4.33,0,0,1-.55,2.64,8.93,8.93,0,0,1-1.35,3.85c-.47.81-1,1.56-1.53,2.34A10,10,0,0,1,99,67.85c-.62.33-1.22.68-1.87,1a8,8,0,0,0-1.14.71,17,17,0,0,1-5.37,1.4c-1,.14-1.66.4-1.52,1.57a1,1,0,0,1-.31.86c-.23,0-.24-.14-.24-.31V71c-1.46,0-2.89,0-4.31,0a13.36,13.36,0,0,1-1.58-.28c-.49,0-1,.23-1.45-.22A8.45,8.45,0,0,1,78.5,70a17.41,17.41,0,0,1-2.73-.89C73.85,68.33,72,67.53,70,66.83c-1-.37-2.09-.74-3.11-1.14s-2-.77-3-1.08a4.38,4.38,0,0,0-.78-.13,1,1,0,0,1-.7,0c-3.28-1.09-6.72-1.73-9.82-3.37a25.93,25.93,0,0,1-3.5-2.28,2.15,2.15,0,0,1-.93-1.25c.06.12.23.49-.4.64,0-1.28.4-2.53.24-3.82A2.22,2.22,0,0,0,48.22,53,10.69,10.69,0,0,1,53,46.5Z"/><path class="cls-7" d="M105.56,58.24a21.27,21.27,0,0,0,.24-2.77c-.31-2.07-.43-4.18-1.67-6a8.61,8.61,0,0,0-1-1.48,18.77,18.77,0,0,0-3-2.69,17.14,17.14,0,0,0-4-2.19c-.66-.2-1.32-.48-2-.74a4.05,4.05,0,0,0-.88-.18c-.3,0-.15-.3-.19-.47.15,0,.29,0,.45-.08a22.05,22.05,0,0,1,3.31-1.54c1.07-.46,2.17-.92,3.29-1.31,1.32-.46,2.6-1,3.94-1.46.56-.18,1.13-.36,1.71-.5s1.15-.32,1.75-.41c.93-.14,1.85-.39,2.8-.45.2,0,.21-.13.28-.28A12.2,12.2,0,0,1,112,33.27a2.29,2.29,0,0,1,.48-.45,9.53,9.53,0,0,0,2.16-2.14c.76-1,1.49-2.1,2.27-3.19a8.4,8.4,0,0,1,.32,4.11,3.56,3.56,0,0,1-.94,2.1,2.08,2.08,0,0,0-.42,1.85,1.05,1.05,0,0,0,.78.83,7.17,7.17,0,0,1,2.72,1.52,41.62,41.62,0,0,1,3.87,3.38,1.48,1.48,0,0,1,.42,1.79c-.19.44,0,.88-.16,1.25a2.59,2.59,0,0,0-.22,1.22,4.79,4.79,0,0,0,.75,1.39,1.77,1.77,0,0,0,.35.26,1.5,1.5,0,0,1,.34.27c0,.59,0,1.19,0,1.79a7.41,7.41,0,0,1-1.24,4.26,5,5,0,0,1-2.45,2,1.79,1.79,0,0,1-.7.05h-4.65a1.49,1.49,0,0,0-1.07.35,4.12,4.12,0,0,1-2.26.82,4.37,4.37,0,0,1-2.83-.92c-.34-.22-.67-.48-1-.72A18.15,18.15,0,0,1,105.56,58.24Z"/><path class="cls-7" d="M47.74,58.24a.19.19,0,0,0,.24-.19,5.72,5.72,0,0,1,.07-1c.53,1.48,1.9,2,3,2.84a21.18,21.18,0,0,0,5.85,2.65c1.84.56,3.68,1.13,5.54,1.65.23.07.37.28.61.27-1.2,1.77-2.33,3.6-3.61,5.31S57.25,73,56.16,74.65c-.78,1.18-1.49,2.42-2.21,3.64A6.47,6.47,0,0,0,53,81.61c0,1.08,0,2.16,0,3.23A1.08,1.08,0,0,0,53.62,86c.36.15.53.45.82.62.65.39.49,1,.5,1.6a.51.51,0,0,1-.35.43c-.46-.1-.75.34-1.21.29a14.79,14.79,0,0,0-2.4,0c-.74,0-1.11-.6-1.72-.78a.31.31,0,0,1-.08-.2c.09-.57-.21-1.19.17-1.73.13-.18.06-.38.07-.57,0-.6,0-1.19,0-1.79s0-1.28-.85-1.43c-.63-.76-1.41-1.44-1.31-2.57a3.24,3.24,0,0,1,.8-1.7A5.59,5.59,0,0,0,49.28,76a3.51,3.51,0,0,0,.14-.66c0-.88,0-1.75,0-2.63,0-.52-.42-.93-.25-1.46-.44-1.09-.29-2.31-.7-3.42-.19-.52.14-1.17-.26-1.69.18-.87-.36-1.67-.23-2.53A23.31,23.31,0,0,0,47.73,61C47.76,60.08,47.74,59.16,47.74,58.24Z"/><path class="cls-7" d="M88.76,73.34V70.83c.15-.2.36-.13.55-.12a12.47,12.47,0,0,0,3.61-.53,12.27,12.27,0,0,0,3-.87s.06,0,.08.08a.48.48,0,0,1,0,.12,23.17,23.17,0,0,1-.91,5.36,11,11,0,0,1-1.2,3.34c-.14.22.08.57-.25.73.44.38.13.93.32,1.39a10.92,10.92,0,0,1,.85,3.13c0,.3.15.08.28,0a2.09,2.09,0,0,1,2.35.79,7.13,7.13,0,0,1,1.1,1.81,1.47,1.47,0,0,1-1.35,2.11c-1.44,0-2.88,0-4.31,0-.65,0-.93-.5-1.19-1a15.09,15.09,0,0,1-.56-1.81c-.49-1.19-.59-2.56-1.57-3.53-.08-.79-.61-1.46-.53-2.3a5.76,5.76,0,0,0,0-2A22.12,22.12,0,0,1,88.76,73.34Z"/><path class="cls-8" d="M53,46.5c-.32.6-1,.78-1.43,1.28-1,1.15-1.79,2.43-2.65,3.66.08.57-.43.93-.52,1.45,0,0-.13,0-.2.08a5.76,5.76,0,0,1-1.85-1.29,2.57,2.57,0,0,1-.82-3.07,5.12,5.12,0,0,1,2.24-2.76A3,3,0,0,1,50,45.59a26.64,26.64,0,0,1,2.74.91A1,1,0,0,0,53,46.5Z"/><path class="cls-24" d="M124.75,47.46h-.48c-.07-.09-.17-.16-.24-.24-.66-.29-.65-1-1-1.51,0-.07.08-.2.23-.17a4.09,4.09,0,0,1,.7,0,.77.77,0,0,1,.74.86Z"/><path class="cls-25" d="M233.25,43.62h1.17c-.14.48,0,.87-.23,1.36a3.59,3.59,0,0,0,0,1.64c0,.23,0,.36-.31.36s-.47,0-.42-.37C233.58,45.64,233,44.72,233.25,43.62Z"/><path class="cls-26" d="M234.36,47.5v1.12h-1.1c-.19-.32,0-.71-.11-1.12Z"/><path class="cls-25" d="M222.67,43.66c-.15.44,0,.82-.2,1.27a4.56,4.56,0,0,0-.08,1.74c0,.28-.13.33-.36.31s-.38,0-.35-.19c.16-1-.48-2-.2-3.13Z"/><path class="cls-26" d="M221.47,47.48h1.12v1.1c-.32.19-.71,0-1.12.11Z"/><path class="cls-25" d="M245,43.65h1.15c-.11.44,0,.83-.2,1.32a3.41,3.41,0,0,0,0,1.63c0,.34-.14.39-.42.39s-.35-.13-.31-.37C245.33,45.65,244.71,44.74,245,43.65Z"/><path class="cls-26" d="M246.12,47.5v1.12H245c-.19-.32,0-.71-.11-1.12Z"/><path class="cls-27" d="M174.93,23.48a8,8,0,0,1,2.8.25c.55.24,1.11.45,1.31,1.14s.62,1.25.26,2c-.24.55-.33,1.22-.88,1.53a3.78,3.78,0,0,1-2,.57c-.47,0-.94,0-1.45,0Z"/><path class="cls-28" d="M312.76,28.76A1.86,1.86,0,0,1,310.9,27a1.89,1.89,0,0,1,1.7-1.82,1.69,1.69,0,0,1,1.26.44c.44.35.31,1,.62,1.39-.35.41-.22,1.07-.69,1.38A1.37,1.37,0,0,1,312.76,28.76Z"/><path class="cls-29" d="M330.22,29.49a1.45,1.45,0,0,1-1.41-.92,2.75,2.75,0,0,1,.1-2.75,1.62,1.62,0,0,1,2.63,0,2.72,2.72,0,0,1,.09,2.75A1.45,1.45,0,0,1,330.22,29.49Z"/><path class="cls-28" d="M209,27.29a1.82,1.82,0,1,1-3.59.62,7.53,7.53,0,0,1,0-.95,1.81,1.81,0,0,1,1.71-1.79A1.83,1.83,0,0,1,209,26.91C209,27,209,27.15,209,27.29Z"/><path class="cls-28" d="M260.53,27.43a1.68,1.68,0,0,1-.6,1.57,1.76,1.76,0,0,1-3-.92,2.54,2.54,0,0,1,.09-1.73,1.87,1.87,0,0,1,2-1.18,1.94,1.94,0,0,1,1.46,1.92Z"/><path class="cls-28" d="M340.9,27.44a1.72,1.72,0,0,1-.7,1.65,1.76,1.76,0,0,1-2.86-1,2.48,2.48,0,0,1,.09-1.73,1.89,1.89,0,0,1,2-1.17,2,2,0,0,1,1.45,1.93Z"/><path class="cls-28" d="M350,27.43a1.66,1.66,0,0,1-.6,1.57,1.77,1.77,0,0,1-3-.92,2.48,2.48,0,0,1,.1-1.73,1.86,1.86,0,0,1,2-1.18A1.93,1.93,0,0,1,350,27.09C350,27.17,350,27.25,350,27.43Z"/><path class="cls-29" d="M368,26.84a1.37,1.37,0,0,1-.35,0c-.34-.11-.82.3-1-.22-.12-.3.38-1,.79-1.21a1.16,1.16,0,0,1,1.84.56c.43.83.41.87-.53.87C368.44,26.85,368.2,26.84,368,26.84Z"/><path class="cls-29" d="M321.41,26.84c-.36,0-.72,0-1.07,0s-.38-.31-.3-.47a2.62,2.62,0,0,1,.7-1,1.39,1.39,0,0,1,2.16,1.06c0,.23,0,.38-.3.37S321.81,26.84,321.41,26.84Z"/><path class="cls-29" d="M301.26,26.84c-.83,0-1.66,0-2.48,0-.39,0-.42-.25-.33-.44a2.07,2.07,0,0,1,1-1.14,1.15,1.15,0,0,1,1.17.13C301.09,25.72,301.24,26,301.26,26.84Z"/><path class="cls-29" d="M267.49,26.84c-.36,0-.72,0-1.07,0s-.46-.17-.36-.42a2.37,2.37,0,0,1,.93-1.15c.5-.32.89,0,1.29.14s.51.63.64,1,0,.45-.35.42S267.85,26.84,267.49,26.84Z"/><path class="cls-30" d="M228.83,28.21c-.44.25-.05.73-.33,1.06s-.75.07-1,.43a.8.8,0,0,1-.76-.08c-.25-.18-.78-.69-.7-.88a1.37,1.37,0,0,1,.74-.86c.71-.3,1.34.12,2,.17C228.78,28.05,228.8,28.15,228.83,28.21Z"/><path class="cls-5" d="M175.13,76.94V74.11a2.12,2.12,0,0,1,.06-.29c1.05,0,2.11,0,3.17,0a2,2,0,0,1,1,.33c.44.31.88.79.72,1.34s-.37,1.13-1.18,1.23a7.27,7.27,0,0,1-1.09.2Z"/><path class="cls-31" d="M175.15,73.1V69.75c.95,0,1.9,0,2.84,0a2,2,0,0,1,1.68,1.32,1.53,1.53,0,0,1-.67,1.61,2.37,2.37,0,0,1-1.37.43C176.84,73.09,176,73.1,175.15,73.1Z"/><path class="cls-5" d="M175.15,46.5V42.66c1,0,2,0,2.94,0a2.24,2.24,0,0,1,1.74,1,2.08,2.08,0,0,1-1,2.62,3.6,3.6,0,0,1-1.34.23C176.78,46.48,176,46.5,175.15,46.5Z"/><path class="cls-28" d="M500.91,87.63a2.25,2.25,0,0,1,2.21-2.32,2.19,2.19,0,0,1,1.53.6,2.46,2.46,0,0,1,.8,1.66,2.31,2.31,0,0,1-.75,1.68,1.87,1.87,0,0,1-1.5.63,2.47,2.47,0,0,1-1.64-.66A1.86,1.86,0,0,1,500.91,87.63Z"/><path class="cls-28" d="M473.8,87.55A2.23,2.23,0,0,1,476,85.32a2.16,2.16,0,0,1,1.52.61,2.38,2.38,0,0,1,.78,1.67,2.48,2.48,0,0,1-.76,1.67,2.16,2.16,0,0,1-1.52.62A2.25,2.25,0,0,1,473.8,87.55Z"/><path class="cls-28" d="M314.78,85.33c.65-.08,1.12.36,1.64.62a4.77,4.77,0,0,1,.72,1.71,3.08,3.08,0,0,1-.82,1.66,2,2,0,0,1-1.42.57,3.25,3.25,0,0,1-1.64-.65,2.09,2.09,0,0,1-.68-1.75A2.25,2.25,0,0,1,314.78,85.33Z"/><path class="cls-28" d="M277.8,60.81a2.23,2.23,0,0,1,3.78-1.71,2.4,2.4,0,0,1,.76,1.67,2.48,2.48,0,0,1-.78,1.67,2.07,2.07,0,0,1-1.4.61A2.25,2.25,0,0,1,277.8,60.81Z"/><path class="cls-28" d="M194.84,99a2.72,2.72,0,0,1,1.63.64,4.62,4.62,0,0,1,.73,1.71,8.32,8.32,0,0,1-.73,1.6c-.51.2-.92.64-1.54.61a3.1,3.1,0,0,1-1.63-.66,2.11,2.11,0,0,1-.67-1.76A2.23,2.23,0,0,1,194.84,99Z"/><path class="cls-28" d="M246.62,101.21a2.23,2.23,0,0,1,3.76-1.62,2.44,2.44,0,0,1,.78,1.68,2.48,2.48,0,0,1-.78,1.67,2.15,2.15,0,0,1-1.51.61A2.24,2.24,0,0,1,246.62,101.21Z"/><path class="cls-28" d="M316.91,74.22a2.24,2.24,0,0,1,2.15-2.33,2.29,2.29,0,0,1,1.63.63,2.39,2.39,0,0,1,.75,1.68,2.46,2.46,0,0,1-.78,1.67,2.11,2.11,0,0,1-1.4.6A2.24,2.24,0,0,1,316.91,74.22Z"/><path class="cls-31" d="M212.82,74.5c-.25-.71.23-1.25.52-1.79a2.17,2.17,0,0,1,2.85-.42,3.26,3.26,0,0,1,1.13,2,2.78,2.78,0,0,1-.59,1.89,2.53,2.53,0,0,1-1.64,1c-.46.15-.76-.33-1.22-.28-.15,0-.48-.35-.61-.67C213.05,75.67,212.62,75.18,212.82,74.5Z"/><path class="cls-31" d="M276.39,74.56c-.24-.69.2-1.26.48-1.8a2.12,2.12,0,0,1,2.93-.43,3.29,3.29,0,0,1,1.1,2.06,2.63,2.63,0,0,1-.63,1.87,2,2,0,0,1-1.66.89,1.76,1.76,0,0,1-1.78-1C276.6,75.66,276.24,75.2,276.39,74.56Z"/><path class="cls-31" d="M234.9,101.66c-.25-.71.24-1.25.47-1.83s.91-.67,1.44-.81a1.9,1.9,0,0,1,1.48.41,3,3,0,0,1,1.11,2,2.76,2.76,0,0,1-.56,1.79,2,2,0,0,1-1.62,1,1.8,1.8,0,0,1-1.8-.78C235.11,102.93,234.64,102.38,234.9,101.66Z"/><path class="cls-31" d="M425.37,87.93c-.25-.72.23-1.26.53-1.8a2.15,2.15,0,0,1,2.84-.41,3.21,3.21,0,0,1,1.13,2,2.78,2.78,0,0,1-.59,1.89,2.53,2.53,0,0,1-1.64.95c-.46.16-.75-.33-1.22-.28-.15,0-.48-.34-.6-.67C425.6,89.09,425.17,88.6,425.37,87.93Z"/><path class="cls-28" d="M385.27,87.91a3.87,3.87,0,0,1-.48,1.82c-.24.61-.9.69-1.42.84a1.55,1.55,0,0,1-1.5-.37,2.66,2.66,0,0,1-1.08-1.83,2.59,2.59,0,0,1,2.33-3.05A2.22,2.22,0,0,1,385,86.8C385.1,87.21,385.55,87.54,385.27,87.91Z"/><path class="cls-28" d="M266.52,101.53a3.84,3.84,0,0,1-.49,1.88c-.22.6-.9.68-1.43.83a1.59,1.59,0,0,1-1.49-.4A2.9,2.9,0,0,1,262,102a2.35,2.35,0,0,1,.39-1.83,2.1,2.1,0,0,1,2-1.2,2.27,2.27,0,0,1,1.88,1.49C266.35,100.85,266.71,101.15,266.52,101.53Z"/><path class="cls-28" d="M236.06,74.45a3.78,3.78,0,0,1-.5,1.87c-.22.6-.9.69-1.42.84a1.81,1.81,0,0,1-1.51-.39,3.38,3.38,0,0,1-1.12-1.94A5.1,5.1,0,0,1,232,73c.52-.51,1-1.12,1.82-1.09a2.23,2.23,0,0,1,2,1.5C235.88,73.76,236.24,74.07,236.06,74.45Z"/><path class="cls-28" d="M205.83,87.87a3.88,3.88,0,0,1-.49,1.87c-.23.6-.9.69-1.43.84a1.63,1.63,0,0,1-1.5-.4,2.9,2.9,0,0,1-1.1-1.82,2.47,2.47,0,0,1,.39-1.84,2.15,2.15,0,0,1,2-1.2,2.28,2.28,0,0,1,1.87,1.5C205.65,87.19,206,87.49,205.83,87.87Z"/><path class="cls-28" d="M307.31,101.53a3.85,3.85,0,0,1-.5,1.88c-.22.6-.9.68-1.42.83a1.75,1.75,0,0,1-1.51-.39,3.38,3.38,0,0,1-1.12-1.94,5,5,0,0,1,.47-1.83c.52-.51,1-1.12,1.82-1.09a2.22,2.22,0,0,1,2,1.49C307.13,100.85,307.49,101.15,307.31,101.53Z"/><path class="cls-27" d="M259.89,87.94H256a11.43,11.43,0,0,0,.89-2,3.86,3.86,0,0,0,.8-1.93s.11-.11.18-.12.24.07.31.25c.45,1.2,1.12,2.31,1.5,3.54C259.67,87.75,259.75,87.79,259.89,87.94Z"/><path class="cls-27" d="M390.52,88c.52-.19,1,.36,1.53.25.21,0,.19.19.19.34a2,2,0,0,1-2.71,1.89c-.63-.16-.9-.4-1-1a.44.44,0,0,1,0-.34A1.74,1.74,0,0,1,390.52,88Z"/><path class="cls-27" d="M370.37,88c.52-.19,1,.36,1.53.25.21,0,.19.19.19.34a1.85,1.85,0,0,1-.53,1.44,2.08,2.08,0,0,1-2,.55c-.27-.12-.57-.14-.84-.28s-.1-.62-.33-.83,0-.21,0-.34A1.72,1.72,0,0,1,370.37,88Z"/><path class="cls-27" d="M397.5,88c.48-.21.93.35,1.49.24.22,0,.2.18.21.34a2,2,0,0,1-2.7,1.91c-.6-.17-.94-.36-1-1,0-.13-.06-.19,0-.34A1.79,1.79,0,0,1,397.5,88Z"/><path class="cls-27" d="M187.24,104.26c-.45.18-.75-.31-1.21-.28-.3,0-.53-1-.35-1.29a2,2,0,0,1,2.62-1c.09,0,.16.13.3.14s.57-.13.64.11a.91.91,0,0,1-.1.89c-.2.25,0,.76-.44.88S187.82,104.37,187.24,104.26Z"/><path class="cls-27" d="M531.31,88.17c.21.72-.18,1.2-.31,1.73-.75.38-1.42,1.12-2.37.47-.68.09-.85-.33-.91-.89,0-.11-.15-.15-.05-.35A2,2,0,0,1,529.33,88C530,87.86,530.59,88.33,531.31,88.17Z"/><path class="cls-27" d="M303.71,74.54c.47-.2.92.35,1.48.25.22,0,.2.18.2.34A2,2,0,0,1,302.7,77c-.61-.17-.94-.37-1-1,0-.13-.07-.19,0-.35A1.81,1.81,0,0,1,303.71,74.54Z"/><path class="cls-27" d="M249.91,74.75a2.26,2.26,0,0,1-.27,1.64c-.17.47-.81.51-1.23.74a1.58,1.58,0,0,1-1.12-.07c-.55-.19-1-.32-1-1,0-.1-.11-.16,0-.34a1.92,1.92,0,0,1,1.66-1.18C248.62,74.44,249.2,74.91,249.91,74.75Z"/><path class="cls-27" d="M243,74.75a2.24,2.24,0,0,1-.27,1.65c-.18.47-.81.49-1.23.73a1.58,1.58,0,0,1-1.12-.07c-.57-.18-1-.34-1-1,0-.11-.1-.17,0-.35A1.9,1.9,0,0,1,241,74.52C241.67,74.45,242.24,74.91,243,74.75Z"/><path class="cls-27" d="M200.06,74.55c.49-.21.93.34,1.49.24.22,0,.2.18.21.34a2,2,0,0,1-2.7,1.91c-.6-.17-.94-.37-1-1a.6.6,0,0,1,0-.35A1.79,1.79,0,0,1,200.06,74.55Z"/><path class="cls-27" d="M267.91,88.2a2.28,2.28,0,0,1-.28,1.62c-.17.46-.81.5-1.22.73a1.53,1.53,0,0,1-1.12-.07c-.55-.18-1-.31-1-1,0-.1-.12-.16,0-.35A1.91,1.91,0,0,1,265.93,88C266.61,87.87,267.19,88.29,267.91,88.2Z"/><path class="cls-27" d="M285.94,88c.49-.21.94.35,1.5.24.21,0,.2.18.2.34A2,2,0,0,1,285,90.46c-.61-.17-.94-.36-1-1a.45.45,0,0,1,0-.34A1.79,1.79,0,0,1,285.94,88Z"/><path class="cls-32" d="M225.09,74.06h-3.91c-.24,0-.24-.16-.23-.32a2.59,2.59,0,0,1,1.69-1.83,1.9,1.9,0,0,1,2,1.07C224.82,73.32,224.63,73.75,225.09,74.06Z"/><path class="cls-32" d="M224.06,101.15h-3.83c-.33,0-.26-.27-.23-.43A2.41,2.41,0,0,1,221.91,99a1.8,1.8,0,0,1,1.9,1.59C223.86,100.77,224,100.89,224.06,101.15Z"/><path class="cls-32" d="M333.93,101.15h-3.59c-.47,0-.63-.23-.42-.65A2.81,2.81,0,0,1,331,99.23a1.7,1.7,0,0,1,2.42.73C333.62,100.32,333.75,100.7,333.93,101.15Z"/><path class="cls-32" d="M269.91,74h-4.05a2.33,2.33,0,0,1,1.61-2.12,1.91,1.91,0,0,1,1.68.57C269.59,72.89,269.56,73.51,269.91,74Z"/><path class="cls-32" d="M237.49,87.48H233.9c-.47,0-.63-.22-.42-.64a2.89,2.89,0,0,1,1.12-1.28,1.71,1.71,0,0,1,2.42.74C237.18,86.66,237.31,87,237.49,87.48Z"/><path class="cls-32" d="M187.77,74.06H184c-.37,0-.58-.29-.41-.6a2.83,2.83,0,0,1,1.61-1.54,1.82,1.82,0,0,1,2.2,1.52A.89.89,0,0,0,187.77,74.06Z"/><path class="cls-32" d="M513.37,87.48h-4.06c-.33,0-.26-.26-.23-.42A2.41,2.41,0,0,1,511,85.33a1.79,1.79,0,0,1,1.9,1.59C512.94,87.1,513,87.26,513.37,87.48Z"/><path class="cls-32" d="M299.38,101.15H295.8c-.47,0-.63-.23-.43-.65a2.83,2.83,0,0,1,1.13-1.27,1.69,1.69,0,0,1,2.41.73C299.08,100.32,299.21,100.7,299.38,101.15Z"/><path class="cls-32" d="M444.28,87.48H440.7c-.47,0-.63-.22-.43-.64a3,3,0,0,1,1.12-1.28,1.7,1.7,0,0,1,2.42.74C444,86.66,444.11,87,444.28,87.48Z"/><path class="cls-32" d="M419.14,87.45h-4.06a2.29,2.29,0,0,1,1.6-2.11,1.91,1.91,0,0,1,1.69.55C418.81,86.3,418.76,86.93,419.14,87.45Z"/><path class="cls-32" d="M225.25,60.64h-3.58c-.47,0-.63-.23-.43-.64a2.81,2.81,0,0,1,1.13-1.28,1.7,1.7,0,0,1,2.41.73C225,59.81,225.08,60.19,225.25,60.64Z"/><path class="cls-32" d="M232.47,60.64h-3.6c-.48,0-.63-.22-.43-.64a2.55,2.55,0,0,1,1.63-1.5A1.82,1.82,0,0,1,232.2,60,4.52,4.52,0,0,0,232.47,60.64Z"/><path class="cls-32" d="M248,60.64h-3.58c-.47,0-.63-.23-.43-.64a2.81,2.81,0,0,1,1.13-1.28,1.69,1.69,0,0,1,2.41.73C247.74,59.81,247.87,60.19,248,60.64Z"/><path class="cls-32" d="M258.6,101.15H255c-.47,0-.63-.23-.42-.65a2.81,2.81,0,0,1,1.12-1.27,1.7,1.7,0,0,1,2.42.73C258.29,100.32,258.42,100.7,258.6,101.15Z"/><path class="cls-32" d="M331.53,87.48h-3.59c-.47,0-.63-.22-.42-.64a3,3,0,0,1,1.12-1.28,1.71,1.71,0,0,1,2.42.74C331.22,86.66,331.35,87,331.53,87.48Z"/><path class="cls-32" d="M212.47,101.15c-1.44,0-2.67,0-3.9,0-.25,0-.36-.07-.34-.33a2.63,2.63,0,0,1,1.7-1.83,1.91,1.91,0,0,1,2,1.08C212.11,100.41,211.89,100.85,212.47,101.15Z"/><path class="cls-32" d="M345.2,87.48h-3.58c-.47,0-.63-.22-.43-.64a2.91,2.91,0,0,1,1.13-1.28,1.69,1.69,0,0,1,2.41.74C344.9,86.66,345,87,345.2,87.48Z"/><path class="cls-5" d="M207.27,47.58c.22.62-.26,1.16-.54,1.71a2.06,2.06,0,0,1-2.34.69,2.33,2.33,0,0,1-1.56-1.58,3,3,0,0,1,.13-2.24,2.32,2.32,0,0,1,2.39-1.34,2.69,2.69,0,0,1,1.92,2.31C207.28,47.25,207.27,47.37,207.27,47.58Z"/><path class="cls-5" d="M218.55,88.11c.21.62-.32,1.12-.55,1.7s-.8.55-1.23.73a1.89,1.89,0,0,1-1.22-.11,2.21,2.21,0,0,1-1.45-1.54,2.82,2.82,0,0,1,.12-2.13c.22-.45.42-1,.87-1.15a2.91,2.91,0,0,1,1.56-.29,2.69,2.69,0,0,1,1.9,2.33Z"/><path class="cls-5" d="M274.45,101.72c.2.61-.29,1.13-.52,1.72s-.78.57-1.23.74a1.76,1.76,0,0,1-1.21-.08c-2-.6-2-3.37-.82-4.6.33-.34.76-.27,1.13-.48a1.22,1.22,0,0,1,1,.1A2.46,2.46,0,0,1,274.45,101.72Z"/><path class="cls-5" d="M490.13,88.11c.19.56-.3,1.08-.53,1.67s-.78.57-1.22.74a1.85,1.85,0,0,1-1.22-.08c-2-.6-2-3.37-.82-4.6.33-.34.76-.27,1.13-.48a1.34,1.34,0,0,1,1,.09A2.5,2.5,0,0,1,490.13,88.11Z"/><path class="cls-5" d="M282.36,101.77c.21.62-.32,1.12-.54,1.7s-.81.55-1.24.73a1.8,1.8,0,0,1-1.21-.11,2.25,2.25,0,0,1-1.46-1.54,3,3,0,0,1,.14-2.24c.21-.4.43-.94.85-1a3.18,3.18,0,0,1,1.56-.29,2.67,2.67,0,0,1,1.9,2.33C282.37,101.43,282.36,101.55,282.36,101.77Z"/><path class="cls-5" d="M319.81,101.77c.18.56-.31,1.08-.53,1.67s-.78.57-1.23.74a1.82,1.82,0,0,1-1.21-.08c-2-.6-2-3.37-.83-4.6.33-.34.76-.27,1.13-.48a1.34,1.34,0,0,1,1,.09A2.52,2.52,0,0,1,319.81,101.77Z"/><path class="cls-33" d="M122.11,43.38v.24a.59.59,0,0,1,0,.72,2.72,2.72,0,0,0-.24.24c-.42,0-.76.36-1.2.24-.8-.27-.67-.84-.48-1.44v-.24a1.36,1.36,0,0,0,.24-.24c.26,0,.41-.35.72-.24.07.09.17.16.24.24h.24a11941971885979.72,11941971885979.72,0,0,1,.48.48Z"/><path class="cls-34" d="M120.19,43.38v.36c0,.67,0,.67.48,1.08-.72,0-.74,0-.71-.66C120,43.9,119.73,43.53,120.19,43.38Z"/><path class="cls-35" d="M122.11,44.34v-.72Q122.6,44,122.11,44.34Z"/><path class="cls-36" d="M121.87,44.58q0-.24.24-.24Q122.13,44.6,121.87,44.58Z"/><path class="cls-37" d="M121.39,42.9q-.26,0-.24-.24Q121.4,42.66,121.39,42.9Z"/><path class="cls-37" d="M124,47.22q.24,0,.24.24Q124,47.46,124,47.22Z"/><path class="cls-36" d="M120.43,42.9q0,.26-.24.24Q120.18,42.9,120.43,42.9Z"/><path class="cls-38" d="M122.11,43.38q-.26,0-.24-.24Q122.13,43.14,122.11,43.38Z"/><path class="cls-39" d="M121.87,43.14q-.25,0-.24-.24Q121.89,42.9,121.87,43.14Z"/></g></g></svg>