<svg xmlns="http://www.w3.org/2000/svg" viewBox="0 0 578.16 126.24"><defs><style>.cls-1{fill:#f4e0de;}.cls-2{fill:#fefdfd;}.cls-3{fill:#fefefe;}.cls-4{fill:#f6e7e6;}.cls-5{fill:#faf1f0;}.cls-6{fill:#faf2f1;}.cls-7{fill:#f9f0ef;}.cls-8{fill:#122c70;}.cls-9{fill:#132c70;}.cls-10{fill:#132d70;}.cls-11{fill:#142d70;}.cls-12{fill:#162e71;}.cls-13{fill:#152e71;}.cls-14{fill:#183072;}.cls-15{fill:#162f71;}.cls-16{fill:#172f72;}.cls-17{fill:#142d71;}.cls-18{fill:#1b3273;}.cls-19{fill:#1f3575;}.cls-20{fill:#1c3374;}.cls-21{fill:#203575;}.cls-22{fill:#223776;}.cls-23{fill:#253978;}.cls-24{fill:#7f799e;}.cls-25{fill:#f69890;}.cls-26{fill:#161515;}.cls-27{fill:#efc9cb;}.cls-28{fill:#f6cece;}.cls-29{fill:#f3dfde;}.cls-30{fill:#f2dedd;}.cls-31{fill:#f0dcdc;}.cls-32{fill:#eddada;}.cls-33{fill:#f3e0de;}.cls-34{fill:#f2dfdd;}.cls-35{fill:#f3dfdd;}.cls-36{fill:#070606;}</style></defs><g id="Layer_2" data-name="Layer 2"><g id="Layer_1-2" data-name="Layer 1"><path class="cls-1" d="M552.25,126.24H25.67c-.54-.26-1.12-.06-1.68-.12H22.86c-4,.06-7.5-1.44-10.78-3.48A25.7,25.7,0,0,1,.75,107.76a18.42,18.42,0,0,1-.63-5V23.44c0-5.17,2.05-9.54,5.1-13.52A25.67,25.67,0,0,1,17.8,1.14a17.55,17.55,0,0,1,5.66-.9q264-.4,528-.16c7.67,0,14.19,2.34,19.53,7.8a24.92,24.92,0,0,1,6.65,12.27,26.6,26.6,0,0,1,.41,5.71c0,25-.09,50,.07,75a25.9,25.9,0,0,1-18.17,24.65,21.07,21.07,0,0,1-4.6.64H554C553.44,126.19,552.83,126,552.25,126.24Z"/><path class="cls-2" d="M555.13,126a1.72,1.72,0,0,0,.6,0,23.26,23.26,0,0,1,2.76-.56,28.89,28.89,0,0,0,6.36-2.59,19.42,19.42,0,0,0,3.28-2.24c.82-.67,1.58-1.4,2.34-2.13a24.13,24.13,0,0,0,4.8-6.76,14.84,14.84,0,0,0,1.29-3.18,8.76,8.76,0,0,0,.64-2.61c.5-.43.14-1.08.43-1.63s0-1.19.07-1.76a32.25,32.25,0,0,0,.2-6.73q0-34.8,0-69.58c0-1.22-.2-2.41-.31-3.61a17.89,17.89,0,0,0-.86-3.81,21.53,21.53,0,0,0-2.63-6,37.31,37.31,0,0,0-2.21-3.17,20,20,0,0,0-2.76-2.91,30.28,30.28,0,0,0-3.68-2.67,31.38,31.38,0,0,0-6.37-2.85,16.48,16.48,0,0,1-2.78-.55c-1.06-.17-2.13,0-3.14-.22A24.42,24.42,0,0,0,548,.25L27,.23a38.93,38.93,0,0,1-4.58.25,46,46,0,0,0-6.35,1.75,26.1,26.1,0,0,0-5.9,3.38,20.61,20.61,0,0,0-4,3.8A35.61,35.61,0,0,0,3.12,14,22.71,22.71,0,0,0,.93,19.69a19.59,19.59,0,0,0-.69,3.79c-.08.11-.16.12-.24,0V0H578.16V126.24h-23c-.09,0-.12-.11-.09-.16S555.1,126,555.13,126Z"/><path class="cls-3" d="M.24,103c-.17.68.24,1.28.25,1.94a8.8,8.8,0,0,0,.41,1.74c.23,1.1.67,2.12,1,3.18a17.75,17.75,0,0,0,1.61,3.41,15.07,15.07,0,0,0,1.71,2.54c.75.88,1.44,1.81,2.23,2.66a24.25,24.25,0,0,0,5.06,4,20.34,20.34,0,0,0,3.78,1.84,19.84,19.84,0,0,0,2.19.8,11.15,11.15,0,0,0,2.86.62c.5,0,.93.4,1.46.24.09,0,.12.11.09.16s-.06.08-.09.08H0V103Q.12,102.82.24,103Z"/><path class="cls-4" d="M.24,25.15v76.18q-.12.18-.24,0V25.15Q.12,25,.24,25.15Z"/><ellipse class="cls-5" cx="0.12" cy="24.31" rx="0.17" ry="1.19"/><ellipse class="cls-6" cx="0.12" cy="102.17" rx="0.17" ry="1.19"/><path class="cls-4" d="M24,126h1.39c.16,0,.31,0,.29.24H24c-.09,0-.12-.11-.09-.16S24,126,24,126Z"/><path class="cls-4" d="M552.25,126.24c0-.22.13-.24.29-.24h1.39c.09,0,.12.11.09.16s-.06.08-.09.08Z"/><ellipse class="cls-7" cx="23.39" cy="126.12" rx="0.85" ry="0.17"/><ellipse class="cls-7" cx="554.53" cy="126.12" rx="0.85" ry="0.17"/><path class="cls-3" d="M83.75,116.18H31.1a2.27,2.27,0,0,1-1.48-.19c-.38-.26-1,.2-1.44-.28a6,6,0,0,1-2.21-.47,18.15,18.15,0,0,1-5.35-2.72c-.71-.53-1.22-1.3-2.07-1.64-.88-1.21-2.06-2.18-2.72-3.55-.21-.44-.51-.82-.75-1.24-.76-1.3-1-2.8-1.62-4.13a6.62,6.62,0,0,0-.29-1.92,69.37,69.37,0,0,1-.2-8.77c-.05-3,0-5.9,0-8.86V64.8Q13,46.89,13,29a3.11,3.11,0,0,1,.14-1.73c.31-.52-.07-1.13.23-1.71s.16-1.12.36-1.64.34-1.06.53-1.58a17.81,17.81,0,0,1,2.6-4.56,25.14,25.14,0,0,1,2.93-3.08,14.36,14.36,0,0,1,2.49-1.77,20.07,20.07,0,0,1,4.07-1.75,6.33,6.33,0,0,1,1.4-.34c.55-.05,1-.37,1.58-.3a2.37,2.37,0,0,0,1.47-.21c.18-.11.47,0,.71,0h104.7c1.75.31,3.59.11,5.24,1a8.29,8.29,0,0,1,3.33,1.23,17.09,17.09,0,0,1,2.95,1.88,14,14,0,0,1,2.16,2A17.45,17.45,0,0,1,153.79,23c.3,1,.56,2,.76,3.05a13.74,13.74,0,0,1,.18,2.55q0,34.91,0,69.82a16.54,16.54,0,0,1-1.09,5.54,18.5,18.5,0,0,1-2.76,5,23.93,23.93,0,0,1-2.67,2.83,14.08,14.08,0,0,1-2.39,1.72,20.55,20.55,0,0,1-4.81,2,11.26,11.26,0,0,0-1.21.24,3.43,3.43,0,0,1-1.12.22c-3.15.48-6.33.16-9.49.22s-6.4,0-9.6,0H83.75Z"/><path class="cls-8" d="M232.75,50.78c-1,0-2,0-3,0a2.7,2.7,0,0,1-1.38-.42,1.24,1.24,0,0,1-.71-.88,2.54,2.54,0,0,1,.19-1.64c.7-1.43,1.43-2.83,2.1-4.27.39-.85,1-1.58,1.34-2.44.26-.58.86-1.18,1.5-1.08a2.11,2.11,0,0,1,1.63,1.25c.6,1.27,1.24,2.52,1.89,3.76.48.92,1.05,1.78,1.48,2.74a2.44,2.44,0,0,1,.06,1.78c-.28.92-1.08,1.12-1.87,1.18C234.9,50.84,233.82,50.78,232.75,50.78Z"/><path class="cls-8" d="M221,50.78c-1,0-2,0-3,0a2.9,2.9,0,0,1-1.39-.42c-.28-.15-.67-.41-.68-.77a3.3,3.3,0,0,1,.13-1.73,46.43,46.43,0,0,1,2.45-4.62,11.46,11.46,0,0,0,.78-1.7,3,3,0,0,1,.93-1.17A4.91,4.91,0,0,1,221,40c.18.43.68.08.92.39a4.55,4.55,0,0,1,.78,1c.37.84.82,1.65,1.25,2.47.65,1.21,1.28,2.43,2,3.62a3.15,3.15,0,0,1,.26,2.14,1.35,1.35,0,0,1-1,.92,4.31,4.31,0,0,1-1.34.26C222.91,50.75,222,50.78,221,50.78Z"/><path class="cls-8" d="M244.5,50.78h-3a2.83,2.83,0,0,1-1.38-.42c-.28-.16-.68-.42-.68-.77a3.82,3.82,0,0,1,.13-1.74c.74-1.54,1.54-3,2.38-4.52.38-.68.71-1.38,1.07-2.07.27-.52.55-1,1.26-1a2.5,2.5,0,0,1,1.17.17,3,3,0,0,1,.78,1c.29.68.66,1.32,1,2q1.08,2,2.14,4a3.72,3.72,0,0,1,.34,2.13,1.23,1.23,0,0,1-.9,1,3.42,3.42,0,0,1-1.21.3C246.58,50.74,245.53,50.78,244.5,50.78Z"/><path class="cls-8" d="M247.82,30.14c0-1.43,0-2.82,0-4.21a1,1,0,0,0-.61-1.06c-1-.41-1.75,0-1.78,1,0,1.39,0,2.79,0,4.23h-2.08c-.2-.22-.07-.55-.07-.85,0-1.15,0-2.31,0-3.47a1.13,1.13,0,0,0-.76-1.15,1.18,1.18,0,0,0-1.42.86,3.13,3.13,0,0,0-.22,1.34v3.27H239s0,0,0,0a.16.16,0,0,1-.05-.1V23c.46,0,.89,0,1.32,0s.54,0,.66.71a4,4,0,0,1,2.07-1,2.33,2.33,0,0,1,2,1c.2,0,.3,0,.38-.12.74-1.05,1.85-.82,2.89-.83.36.33,1,.4,1.16.86a3.72,3.72,0,0,1,.51,1.59c0,.16,0,.32,0,.48v4.45Z"/><path class="cls-8" d="M256.45,29c-1.2.89-1.54.92-3.19.48a3.65,3.65,0,0,1-1.84-1.93,4,4,0,0,1,0-2.55c0-.22.18-.33.26-.49A3.33,3.33,0,0,1,253.1,23a3.63,3.63,0,0,1,2.28-.21,1.41,1.41,0,0,1,.85.55c.15.22.41.25.46-.13,0-.23.17-.22.33-.22h1.83c0,2.2,0,4.34,0,6.48A3.12,3.12,0,0,1,256,32.33a12.85,12.85,0,0,1-2.15,0,5,5,0,0,1-1.92-.56c-.22-.13-.42-.32-.14-.66s.22-.76.56-.89a1.36,1.36,0,0,1,1,.19,3.14,3.14,0,0,0,2.55,0c.44-.2.85-.38.82-1C256.82,29.2,257,28.91,256.45,29Z"/><path class="cls-8" d="M294.6,29c-1.21.89-1.54.92-3.19.48a3.63,3.63,0,0,1-1.85-1.93,4.11,4.11,0,0,1,0-2.55,1.89,1.89,0,0,1,.27-.49A3.28,3.28,0,0,1,291.25,23a3.6,3.6,0,0,1,2.27-.21,1.41,1.41,0,0,1,.85.55c.16.22.42.25.46-.13,0-.23.18-.22.33-.22H297c0,2.2,0,4.34,0,6.48a3.13,3.13,0,0,1-2.85,2.85,12.86,12.86,0,0,1-2.15,0,4.91,4.91,0,0,1-1.91-.56c-.23-.13-.43-.32-.14-.66s.21-.76.55-.89a1.38,1.38,0,0,1,1,.19,3.12,3.12,0,0,0,2.54,0c.45-.2.86-.38.83-1C295,29.2,295.14,28.91,294.6,29Z"/><path class="cls-8" d="M340.42,29c-1.21.89-1.54.92-3.19.48a3.63,3.63,0,0,1-1.85-1.93,4,4,0,0,1,0-2.55c0-.22.18-.33.26-.49A3.28,3.28,0,0,1,337.07,23a3.61,3.61,0,0,1,2.27-.21,1.41,1.41,0,0,1,.85.55c.16.22.42.25.46-.13,0-.23.18-.22.34-.22h1.83c0,2.2,0,4.34,0,6.48A3.13,3.13,0,0,1,340,32.33a12.86,12.86,0,0,1-2.15,0,5,5,0,0,1-1.91-.56c-.23-.13-.43-.32-.14-.66s.22-.76.55-.89a1.38,1.38,0,0,1,1,.19,3.12,3.12,0,0,0,2.54,0c.45-.2.86-.38.83-1C340.78,29.2,341,28.91,340.42,29Z"/><path class="cls-8" d="M200.36,32.31h-1.93V23c.47,0,1,0,1.48,0s.34.38.46.74a9.92,9.92,0,0,1,.87-.62,3.17,3.17,0,0,1,1.41-.36c.55,0,1.12,0,1.51.39s.81.44,1.06,1a3.62,3.62,0,0,1,.61,2,5.39,5.39,0,0,1-.23,2.29,3.08,3.08,0,0,1-4.2,1.72c-.33-.15-.64-.34-1-.5Z"/><path class="cls-8" d="M182.6,30.18c-.66,0-1.17,0-1.69,0s-.55-.22-.78-.52-.19-.72-.39-1.06-.39-.6-.84-.59c-.92,0-1.84,0-2.75,0a.74.74,0,0,0-.8.5c-.25.54-.2,1.36-.78,1.56a6.87,6.87,0,0,1-2,0c.46-1,.94-2,1.39-3a17.69,17.69,0,0,0,.91-2.13,16.21,16.21,0,0,0,.82-2.07c.1-.57.64-1.06.72-1.72a.49.49,0,0,1,.44-.34c.48,0,1,0,1.44,0,.25,0,.37.23.48.44.45.85.76,1.76,1.16,2.62s.78,1.83,1.17,2.74.84,2,1.27,3.06A3.89,3.89,0,0,0,182.6,30.18Z"/><path class="cls-9" d="M193,30.42a3.78,3.78,0,0,1-3.92-3.83A3.87,3.87,0,0,1,193,22.73a4,4,0,0,1,4,3.86C197,28.45,195,30.63,193,30.42Z"/><path class="cls-9" d="M233.54,22.76a3.92,3.92,0,0,1,4,3.83,4.17,4.17,0,0,1-4,3.86,3.89,3.89,0,0,1-3.92-3.86A3.78,3.78,0,0,1,233.54,22.76Z"/><path class="cls-9" d="M218.27,27.31h-5c0,.87.67,1.1,1.23,1.32a1.17,1.17,0,0,0,1.31-.1,1.45,1.45,0,0,1,.48-.25c.28-.08.61-.36.83.11,0,0,.06.05.08.09.12.28.58.17.61.43s-.35.62-.62.8a2.89,2.89,0,0,1-1.85.72,4,4,0,0,1-2.22-.46,4.49,4.49,0,0,1-1.81-2.36,3.51,3.51,0,0,1,.16-2.64,3.76,3.76,0,0,1,2.11-2,3.34,3.34,0,0,1,4.06,1.34A5.14,5.14,0,0,1,218.27,27.31Z"/><path class="cls-9" d="M267.44,27.31h-4.59c-.44,0-.48.09-.29.46a1.84,1.84,0,0,0,2.27.85c.36-.18.8-.24,1.08-.58.36.21.52.67,1,.75.15,0,.15.25,0,.39a3.8,3.8,0,0,1-6.05-.49,3.87,3.87,0,0,1-.58-2.72c.44-.36,0-1,.46-1.37s.64-.7,1-1a3.32,3.32,0,0,1,5.16.88A4.49,4.49,0,0,1,267.44,27.31Z"/><path class="cls-9" d="M328.35,27.33h-5c.07.85.68,1.07,1.24,1.31a1.19,1.19,0,0,0,1.31-.11,1.81,1.81,0,0,1,.48-.26c.28-.09.61-.33.83.13,0,0,.05.05.08.08.69.61.71.64.07,1.16a2.79,2.79,0,0,1-1.95.79,4,4,0,0,1-2.21-.46,4.48,4.48,0,0,1-1.81-2.37,3.51,3.51,0,0,1,.17-2.64,3.73,3.73,0,0,1,2.12-2,3.29,3.29,0,0,1,4,1.35A4.08,4.08,0,0,1,328.35,27.33Z"/><path class="cls-9" d="M355.53,27.31h-5a1.25,1.25,0,0,0,.85,1.19c.82.42,1.22.34,2.63-.46.24.23.45.59.75.68.59.17.35.36.1.62a3.62,3.62,0,0,1-2.54,1.11,3.76,3.76,0,0,1-3.41-1.84,3.09,3.09,0,0,1-.49-2.5c.15-.56.11-1.23.56-1.67a6,6,0,0,1,1.9-1.48,3.31,3.31,0,0,1,4,1.3A5.07,5.07,0,0,1,355.53,27.31Z"/><path class="cls-10" d="M305.7,23.55a7.37,7.37,0,0,1,3.92-.54,2.76,2.76,0,0,1,2,2c.47,1.71.09,3.43.25,5.2H310c-.16,0-.33,0-.33-.22s0-.34-.24-.13c-.74.83-1.72.6-2.63.57-.68,0-1.6-1.13-1.69-1.81-.25-1.77,1-2.64,2.49-2.71.51,0,1,0,1.55,0,.2,0,.27.13.41.24a.93.93,0,0,0,.06-.87,1.11,1.11,0,0,0-.83-.53,2.16,2.16,0,0,0-1.5.09c-.31.18-.61.07-.91.11s-.32,0-.31-.24C306.15,24.23,305.8,23.94,305.7,23.55Z"/><path class="cls-8" d="M281.4,23c.48,0,.88,0,1.27,0,.59,0,.59,0,.75.69a3.31,3.31,0,0,1,2.59-.94,2.28,2.28,0,0,1,1.86,1.9c0,1.82,0,3.65,0,5.5H286c0-1.25,0-2.52,0-3.78a2.22,2.22,0,0,0-.28-1.08,1.08,1.08,0,0,0-1.28-.61,1.11,1.11,0,0,0-.89.92,5.11,5.11,0,0,0-.21,1.22c0,1.08,0,2.16,0,3.33-.6.07-1.22,0-1.92,0V23Z"/><path class="cls-10" d="M304,23.84a2.39,2.39,0,0,1-.42.9c-.32.58-.3.55-.69.42a8,8,0,0,1-.94-.32,1.51,1.51,0,0,0-.89-.15.68.68,0,0,0-.4.38c-.1.22.11.38.27.47.57.33,1.25.42,1.83.78.16.1.41.2.59.29a2,2,0,0,1,.57,2.79,2.63,2.63,0,0,1-2,1,3.85,3.85,0,0,0-.48,0,4.32,4.32,0,0,1-2.67-.78c-.41-.18-.43-.56-.14-1,.09-.12.27-.23.28-.36,0-.51.51-.34.6-.27.4.35.91.34,1.33.58a1.67,1.67,0,0,0,1,.09c.14,0,.33-.21.4-.37s-.11-.39-.27-.47a5.56,5.56,0,0,0-1.43-.55,2.65,2.65,0,0,1-1.74-1.25,1.85,1.85,0,0,1,0-1.67,2.3,2.3,0,0,1,2-1.41A4.5,4.5,0,0,1,304,23.84Z"/><path class="cls-10" d="M297.19,77.59h-.93V70.76c-.77,1.14-1.44,2.13-2.12,3.11-.31.46-.64.9-1,1.35a4.7,4.7,0,0,1-1-1.32c-.69-1-1.34-2-2-3-.06,0-.09,0-.11.08a.19.19,0,0,0,0,.1v6.43c-.29.18-.57.07-.9.11V69.06c1.06-.08,1.07-.09,1.62.78.73,1.17,1.43,2.36,2.16,3.53.17.27.3.26.49,0q1.18-1.9,2.44-3.78a1.06,1.06,0,0,1,1.34-.51Z"/><path class="cls-10" d="M184,21.11h2.15V23h1.65v1.68h-1.64v2.87c0,.92.27,1.18,1.13.87.36-.13.46.08.5.19a1.25,1.25,0,0,1-1.32,1.81,3.23,3.23,0,0,1-1.27-.09A1.9,1.9,0,0,1,184,28.43c-.07-1.11,0-2.23,0-3.34,0-.18.07-.44-.25-.41s-.51-.06-.47-.45a7.53,7.53,0,0,0,0-.95c0-.19.07-.31.27-.28.36.05.48-.09.46-.46S184,21.6,184,21.11Z"/><path class="cls-9" d="M273.13,30.18h-1c-.88,0-1.07-.11-1.32-.94a35.4,35.4,0,0,0-1.59-4.12c-.28-.67-.5-1.37-.78-2.12h1c1.18,0,1.26,0,1.53,1.07s.81,2.29,1.06,3.49c.54-.27.42-.82.62-1.22a11,11,0,0,0,.61-1.89c.14-.46.15-1.12.46-1.34S275,23,275.54,23a.35.35,0,0,1,.33.55,5.11,5.11,0,0,0-.62,1.42c-.5,1.35-1.17,2.62-1.54,4A6.23,6.23,0,0,1,273.13,30.18Z"/><path class="cls-9" d="M172.76,77.54V69a44.26,44.26,0,0,1,4.46,0,2.12,2.12,0,0,1,1.94,1.51,2.18,2.18,0,0,1-.7,2.42,1.89,1.89,0,0,1-.41.18c.13.46.63.47.93.74a2,2,0,0,1-.81,3.49,3.55,3.55,0,0,1-1.34.25c-1.31,0-2.63,0-3.94,0C172.86,77.61,172.82,77.58,172.76,77.54Z"/><path class="cls-10" d="M227.55,32.09c-3-1.75-3.68-3.3-3.68-5.74s.73-4,3.75-5.79c.07.11.15.24.24.36.68.84.69.85-.06,1.57A5.21,5.21,0,0,0,226.2,25a5.08,5.08,0,0,0,.16,3.34,5.58,5.58,0,0,0,1.44,1.92c.75.73.74.73.06,1.57C227.79,31.87,227.69,32,227.55,32.09Z"/><path class="cls-10" d="M357.68,32c-.09-.1-.37-.28-.42-.51s-.49-.51-.49-.74.48-.32.71-.51a4.86,4.86,0,0,0,1.85-4.83,4.26,4.26,0,0,0-2.18-3.17c-.39-.2-.35-.23-.07-.72s.37-.87.77-.86.63.39.94.61a4.83,4.83,0,0,1,2.38,3.18c.18.87.73,1.78.15,2.76-.2.32-.12.8-.23,1.21a5.56,5.56,0,0,1-2.14,2.9A2.17,2.17,0,0,1,357.68,32Z"/><path class="cls-11" d="M172.77,42.16h4.11a2.47,2.47,0,0,1,2.33,1.56,2.43,2.43,0,0,1-2,3.55c.85,1.14,1.68,2.24,2.56,3.43-.77.13-1.3.23-1.71-.6a4.18,4.18,0,0,0-1-1.28,7.71,7.71,0,0,1-.94-1.39H173.7v3.33h-.93Z"/><path class="cls-12" d="M264.8,99.16c.1-.35-.09-.86.54-.71a4.14,4.14,0,0,0,.71,0V102a10.43,10.43,0,0,1-.21,2.42,2.63,2.63,0,0,1-1.23,1.7,3.52,3.52,0,0,1-1.83.5,5.66,5.66,0,0,1-2.55-.51c-.37-.16-.39-.38-.18-.77s.25-.22.45-.09a4.81,4.81,0,0,0,2.25.62,2.27,2.27,0,0,0,1.91-.88c0-.06.17-.12.16-.17-.1-.61.3-1.16.28-1.84-2,1.77-3.38,1.51-4.81.33a2.16,2.16,0,0,1-.72-1.48,3.12,3.12,0,0,1,.73-2.68,3.06,3.06,0,0,1,2.19-1C263.45,98.16,264,98.8,264.8,99.16Z"/><path class="cls-12" d="M319.47,72.13c.13-.74.13-.75.66-.74.19,0,.4-.08.62.1,0,1.59.07,3.23,0,4.85a3,3,0,0,1-2.1,3c-.06,0-.11.15-.17.15a6.81,6.81,0,0,1-3.62-.51c-.22-.12-.31-.26-.13-.61s.23-.34.56-.17a4.27,4.27,0,0,0,2.39.56,2.07,2.07,0,0,0,1.51-.67c.21-.25.49-.44.37-.81s.45-.83.18-1.33c-.24,0-.33.27-.49.4a3,3,0,0,1-3.78.19,3.11,3.11,0,0,1-1.2-2.26,2.72,2.72,0,0,1,.75-2.2,3,3,0,0,1,1.8-1A3.82,3.82,0,0,1,319.47,72.13Z"/><path class="cls-12" d="M250.64,62.49c-1.64,1.61-3.15,1.66-4.7.4a3.1,3.1,0,0,1,1.95-5.19c1-.09,1.68.56,2.47,1,.18-.17,0-.4.11-.56s.12-.17,1.19-.1c0,1.7.07,3.4,0,5.1a3.05,3.05,0,0,1-.54,1.79,3.66,3.66,0,0,1-1.58,1.1c-.07,0-.12.11-.19.11a6.92,6.92,0,0,1-3.51-.48c-.31-.16-.35-.36-.16-.7s.28-.35.41-.21a3,3,0,0,0,1.66.62,2.4,2.4,0,0,0,2.59-.86c.05-.06.17-.13.16-.17C250.24,63.7,250.86,63.15,250.64,62.49Z"/><path class="cls-12" d="M346.89,62.59c-1.68,1.51-3.2,1.57-4.75.3a3.09,3.09,0,0,1,2-5.19c1-.09,1.68.55,2.46,1,.18-.17,0-.45.11-.55.32-.31.73-.1,1.19-.16,0,1.75,0,3.45,0,5.15a3.54,3.54,0,0,1-.5,1.69,2.35,2.35,0,0,1-1.55,1.12c-.1,0-.19.18-.28.19a6.9,6.9,0,0,1-3.51-.48c-.31-.16-.34-.37-.15-.71s.27-.34.4-.2c.45.5,1.12.48,1.66.62a2.42,2.42,0,0,0,2.6-.86c.07-.09.18-.15.16-.29A4.47,4.47,0,0,1,346.89,62.59Z"/><path class="cls-12" d="M482.59,89.56c-1.48,1.58-3.14,1.69-4.68.38a3.17,3.17,0,0,1-.38-3.71A4.42,4.42,0,0,1,478.92,85a2.49,2.49,0,0,1,1.82-.17,6,6,0,0,1,1.62.88c.14-.69.14-.69,1.28-.62,0,1.66.09,3.33,0,5A2.89,2.89,0,0,1,481.54,93c-.07,0-.11.15-.17.16a7,7,0,0,1-3.62-.48c-.37-.18-.27-.41-.12-.72s.29-.21.52-.09a5.69,5.69,0,0,0,2.26.58,2.44,2.44,0,0,0,1.73-.76c.19-.21.39-.42.29-.71C482.27,90.5,482.87,90.15,482.59,89.56Z"/><path class="cls-12" d="M355,103c-.37.26-.67.59-1.06.83a3.24,3.24,0,0,1-2.14.33,2.73,2.73,0,0,1-1.52-.89,2.33,2.33,0,0,1-.7-1.61,3,3,0,0,1,.71-2.46,4,4,0,0,1,1.88-1,3.47,3.47,0,0,1,2.42.83c.16.09.29.18.26-.07-.06-.46.13-.57.54-.51a4.94,4.94,0,0,0,.67,0c0,1.73.08,3.44,0,5.13a3,3,0,0,1-.54,1.79,3.43,3.43,0,0,1-1.57,1.11c-.07,0-.13.11-.19.11a6.9,6.9,0,0,1-3.51-.47.52.52,0,0,1-.15-.81c.11-.16.29-.22.38-.12a2.92,2.92,0,0,0,1.66.63,2.43,2.43,0,0,0,2.52-.76.81.81,0,0,0,.25-.62c0-.3-.07-.61.22-.87A.48.48,0,0,0,355,103Z"/><path class="cls-13" d="M197,91.26h-1V89c0-.67,0-1.35,0-2a1.55,1.55,0,0,0-1.15-1.48,1.57,1.57,0,0,0-1.77.89,3.47,3.47,0,0,0-.44,1.61c0,1,0,2.08,0,3.13-.27.21-.58.1-1,.09,0-1.39,0-2.78,0-4.16a1.53,1.53,0,0,0-1.92-1.54,1.24,1.24,0,0,0-1,.8c-.36,1-.45,1-.45,1.73v3.11a1.48,1.48,0,0,1-.93,0V85.13c.87-.09.87-.09,1,.64.22-.18.39-.43.6-.47s.37-.27.56-.39a2.55,2.55,0,0,1,2.18.29,10.54,10.54,0,0,1,.83.82l.62-.66a2.1,2.1,0,0,1,1.44-.58c.72-.09,1.21.37,1.82.55,0,.5.6.64.57,1.22C196.91,88.09,197,89.64,197,91.26Z"/><path class="cls-13" d="M220.47,91.23h-.93v-6.1c.87-.09.87-.09,1,.64.22-.18.39-.43.6-.47s.37-.27.56-.39a2.55,2.55,0,0,1,2.18.29c.27.23.51.5.83.82l.61-.66a2.1,2.1,0,0,1,1.44-.58c.72-.09,1.22.37,1.82.55,0,.5.61.63.57,1.21-.08,1.55,0,3.1,0,4.63-.29.17-.57.07-.95.1V89c0-.67,0-1.35,0-2A1.55,1.55,0,0,0,227,85.52a1.57,1.57,0,0,0-1.76.89,3.47,3.47,0,0,0-.44,1.61c0,1.07,0,2.13,0,3.22h-1c0-1.39,0-2.78,0-4.16a1.34,1.34,0,0,0-.9-1.41,1.47,1.47,0,0,0-2,.77,3.6,3.6,0,0,0-.41,1.62C220.49,89.1,220.47,90.13,220.47,91.23Z"/><path class="cls-10" d="M252.89,91.27V82.64c1.27,0,2.5,0,3.73,0a4.5,4.5,0,0,1,3.2,2c.64,1.12.44,2.33.47,3.51a9.6,9.6,0,0,1-1.34,2,4.42,4.42,0,0,1-3.27,1.11C254.77,91.24,253.85,91.27,252.89,91.27Z"/><path class="cls-14" d="M280.42,68.79v8.73c-.18.17-.39.09-.58.09-.54,0-.54,0-.65-.7a3.71,3.71,0,0,1-2.44,1A3.24,3.24,0,0,1,274,75.39,4.42,4.42,0,0,1,274.2,73a3,3,0,0,1,4.74-1.06l.24.24a8.62,8.62,0,0,0,.06-1.67c0-.55,0-1.1,0-1.7Z"/><path class="cls-14" d="M216.85,68.79v8.73c-.19.17-.4.09-.58.09-.54,0-.54,0-.66-.7a3.67,3.67,0,0,1-2.44,1,3.23,3.23,0,0,1-2.75-2.48,4.24,4.24,0,0,1,.21-2.41,3,3,0,0,1,4.74-1.06l.23.24a8.65,8.65,0,0,0,.07-1.67c0-.55,0-1.1,0-1.7Z"/><path class="cls-14" d="M393.16,104.68h-.5c-.61,0-.61,0-.75-.68a3.61,3.61,0,0,1-2.1.93,2.94,2.94,0,0,1-2.32-1.05,3.61,3.61,0,0,1,0-4.62,2.81,2.81,0,0,1,4.16-.31c.09.06.16.14.34.29v-3.4h1.17Z"/><path class="cls-14" d="M415,85.86V82.44h1.13v8.83h-.57c-.52,0-.52,0-.64-.69a4,4,0,0,1-2.09.94,3,3,0,0,1-2.33-1,3.6,3.6,0,0,1-.12-4.53C411.61,84.56,413.23,84.24,415,85.86Z"/><path class="cls-14" d="M326,91.27h-.51c-.6,0-.6,0-.75-.7a3.57,3.57,0,0,1-2.1,1,3,3,0,0,1-2.32-1.06,3.62,3.62,0,0,1,0-4.62,2.81,2.81,0,0,1,4.07-.38c.11.08.15.26.39.27v-3.2c.4-.25.79,0,1.21-.16Z"/><path class="cls-13" d="M313.59,20.38h2.08v9.75c-.65.15-1.35,0-2.08.08Z"/><path class="cls-13" d="M319.75,30.16h-2.08V20.41c.64-.14,1.35,0,2.08-.07Z"/><path class="cls-15" d="M230.15,76.68c-.17.26-.05.54-.09.81-.27.28-.59,0-.92.17V68.84c.23-.19.54-.07.92-.06v3.6c.48-.29.74-.65,1.16-.86a2.84,2.84,0,0,1,4,1.22,3.91,3.91,0,0,1,.36,2.7,2.81,2.81,0,0,1-1,1.71,3.28,3.28,0,0,1-3.21.48C230.81,77.4,230.61,76.9,230.15,76.68Z"/><path class="cls-15" d="M199.81,90.17v3h-.88V85.1a1.59,1.59,0,0,1,.81,0c.24.26,0,.61.18.9.36-.13.53-.5.85-.7a3,3,0,0,1,4.31,1.31,3.69,3.69,0,0,1-.64,4,2.79,2.79,0,0,1-4,.18A6.66,6.66,0,0,1,199.81,90.17Z"/><path class="cls-15" d="M274.48,98.48h.94v.94a6.47,6.47,0,0,0,1.06-.78,2.84,2.84,0,0,1,3.77.71,3.64,3.64,0,0,1-.1,4.53,2.83,2.83,0,0,1-4.25.22c-.13-.12-.25-.25-.46-.46v2.83a1.34,1.34,0,0,1-1,.09Z"/><path class="cls-13" d="M172.86,89.58a4.11,4.11,0,0,0,2.25,1.2,3.72,3.72,0,0,0,1.7-.23,1.31,1.31,0,0,0,.46-2c-.46-.59-.74-.62-1.68-.85a4.43,4.43,0,0,1-2.27-.91,2.13,2.13,0,0,1-.42-3,2.88,2.88,0,0,1,2.51-1.17,4.9,4.9,0,0,1,2.32.49c.65.36.66.4.14,1l-.2.2a3.54,3.54,0,0,0-2.54-.93,2.16,2.16,0,0,0-1.66,1.12c-.29.41.28,1.35.84,1.52.82.24,1.65.43,2.45.73a2.39,2.39,0,0,1,1.73,1.67c.07.28.4.55.2.84-.32.47-.23,1.13-.75,1.49a2.88,2.88,0,0,1-1.83.77,8.7,8.7,0,0,1-2.2-.19c-.6-.19-1-.63-1.58-.82-.15,0-.12-.26,0-.39Z"/><path class="cls-9" d="M173.71,56.29v3.12c1.5,0,3,0,4.44,0,.39,0,.33.22.34.46s-.21.27-.4.27h-4.36V63.4c.27.18.64.07,1,.07,1.32,0,2.64,0,4,0,.28,0,.3.15.3.37s-.06.35-.32.35c-2,0-3.91,0-5.89,0V55.57h4c.6,0,1.2,0,1.8,0,.33,0,.39.13.38.41s-.13.32-.36.32h-4.9Z"/><path class="cls-9" d="M211.87,63.48h4.83c.29,0,.46.05.41.39,0,.15,0,.32-.21.34h-6V55.57h5.84c.35,0,.38.15.38.42s-.16.31-.38.31h-4.85v3.12c1.47,0,2.94,0,4.41,0,.4,0,.32.24.33.47s-.22.25-.41.25h-4.35Z"/><path class="cls-9" d="M332,30.16h-1.88V23c.57-.06,1.19,0,1.77,0,.24.32,0,.68.29,1l.51-.64a1.44,1.44,0,0,1,1.67-.58v1.83c-.43-.11-.82.19-1.24.32a1.31,1.31,0,0,0-.85,1.25c0,.43-.34.69-.28,1.1a8,8,0,0,1,0,1.2Z"/><path class="cls-15" d="M518.71,91.24c-1,0-1,0-1-.7-.22.18-.39.45-.58.46s-.4.21-.61.28a2.53,2.53,0,0,1-3.13-.65c-.28-.37-.6-.79-.42-1.24s.17-1.11.72-1.37,1.09-.72,1.79-.59,1.32-.23,1.94.23c.19.13.39-.08.32-.32-.16-.58-.25-1.24-.83-1.56a1.78,1.78,0,0,0-1.75-.15c-.36.22-.77-.06-1.1.28-.1.12-.37-.17-.38-.4s-.12-.38.18-.48a9.81,9.81,0,0,1,3-.23c.66.48,1.39.8,1.63,1.79C518.83,88.12,518.51,89.64,518.71,91.24Z"/><path class="cls-15" d="M304.7,77.61c-.93,0-.93,0-1-.74a3.43,3.43,0,0,1-2.91,1,2.71,2.71,0,0,1-1.84-1.68c-.1-.45.21-.8.28-1.21a1.1,1.1,0,0,1,.8-.74c.33-.12.61-.48,1-.43.77.09,1.57-.24,2.32.18.28.15.44,0,.39-.32a2,2,0,0,0-2.54-1.77c-.24.39-.65.16-1,.25s-.51.05-.56-.3,0-.36.33-.47a7.25,7.25,0,0,1,2.66-.2c.69,0,1.62,1,1.82,1.7C304.89,74.41,304.55,76,304.7,77.61Z"/><path class="cls-15" d="M242.54,77.57c-.9,0-.9,0-1.06-.66a3.45,3.45,0,0,1-2.82,1,2.46,2.46,0,0,1-1.87-1.77,1.8,1.8,0,0,1,.48-1.46,2.37,2.37,0,0,1,1.91-.84c.69.07,1.41-.27,2.07.21.17.13.35,0,.33-.3A1.88,1.88,0,0,0,239,72c-.36.14-.76,0-1.09.28-.15.14-.37-.16-.4-.38s-.11-.39.17-.49a5.57,5.57,0,0,1,3-.18,2.2,2.2,0,0,1,1.67,1.73,11.81,11.81,0,0,1,.2,2.29C242.55,76,242.54,76.74,242.54,77.57Z"/><path class="cls-15" d="M201.32,77.59c-.95,0-.95,0-1-.74-.23.2-.4.48-.58.49s-.41.21-.61.29A2.53,2.53,0,0,1,196,77c-.25-.33-.56-.7-.42-1.12s.13-1.09.64-1.4a2.74,2.74,0,0,1,1.87-.67c.65.11,1.33-.23,1.95.22.18.14.38-.08.31-.32-.16-.58-.24-1.24-.83-1.55a1.75,1.75,0,0,0-1.75-.15c-.36.22-.78-.06-1.1.28-.1.11-.37-.17-.38-.4s-.11-.38.18-.48a9.84,9.84,0,0,1,3-.24c.66.49,1.4.81,1.63,1.8C201.44,74.47,201.13,76,201.32,77.59Z"/><path class="cls-15" d="M249.52,77.61c-.93,0-.93,0-1-.74a3.42,3.42,0,0,1-2.9,1,2.71,2.71,0,0,1-1.85-1.68c-.1-.45.21-.8.28-1.21a1.11,1.11,0,0,1,.8-.74c.34-.12.62-.48,1-.43.76.09,1.56-.24,2.31.18.28.15.44,0,.4-.32A2,2,0,0,0,246,71.88c-.25.39-.65.16-1,.25s-.51.05-.56-.3,0-.36.33-.47a7.29,7.29,0,0,1,2.66-.2c.7,0,1.62,1,1.82,1.7C249.71,74.41,249.38,76,249.52,77.61Z"/><path class="cls-16" d="M266.38,91.24h-1V82.48a1.43,1.43,0,0,1,.9,0v5.87c.33.07.38-.23.54-.34a4.89,4.89,0,0,0,.52-.5c.62-.62,1.28-1.21,1.85-1.88a1.63,1.63,0,0,1,1.76-.51l-2.55,2.55a24.85,24.85,0,0,0,2.68,3.53,1.38,1.38,0,0,1-1.87-.76c-.44-.73-1.16-1.23-1.49-2C266.75,89.11,265.92,89.83,266.38,91.24Z"/><path class="cls-16" d="M274.59,88.37l-.13.13a5,5,0,0,0-1.15,1.2,3.85,3.85,0,0,0,0,1.48,1.86,1.86,0,0,1-.93.06V82.43h.9v6.09l2.88-2.88c.62-.61.62-.61,1.72-.52-.75.76-1.47,1.48-2.19,2.19-.22.21-.24.34-.1.68a6.09,6.09,0,0,0,.93,1.28,5.84,5.84,0,0,0,1.65,1.87c-1,.38-1.52-.11-2-.79S275.1,89,274.59,88.37Z"/><path class="cls-16" d="M242.08,104.76V95.9c.28-.15.56-.06.91-.08V102c1.06-1,2-1.94,2.87-2.88a1.55,1.55,0,0,1,1.76-.54l-2.26,2.26c-.21.2-.14.33-.05.59a6,6,0,0,0,1,1.37,5.73,5.73,0,0,0,1.55,1.8,1.37,1.37,0,0,1-1.89-.67,22.1,22.1,0,0,1-1.56-2.14l-.24.24a4.67,4.67,0,0,0-1.07,1.11,4.61,4.61,0,0,0-.11,1.5C242.73,104.79,242.44,104.6,242.08,104.76Z"/><path class="cls-16" d="M437.14,82.43h.93V88.5c1-1,2-1.92,2.87-2.89a1.42,1.42,0,0,1,1.67-.48l-2.48,2.48a23.18,23.18,0,0,0,2.72,3.55,1.38,1.38,0,0,1-1.88-.74,14.75,14.75,0,0,1-1.51-2.11c-.46.46-.87.82-1.22,1.23s-.07,1.06-.22,1.64c-.23.18-.54.07-.88.06Z"/><path class="cls-16" d="M191.53,104.66h-1V95.9a1.47,1.47,0,0,1,.94,0v6L194.34,99c.61-.61.61-.6,1.7-.47l-2.51,2.5a26.41,26.41,0,0,0,2.69,3.52,1.38,1.38,0,0,1-1.87-.75c-.44-.74-1.16-1.23-1.49-2C191.9,102.53,191.08,103.25,191.53,104.66Z"/><path class="cls-17" d="M377.59,88.39H373c-.37,0-.58.27-.41.6.31.62.52,1.27,1.32,1.59,1.21.49,2-.07,2.89-.73l.56.57A3.43,3.43,0,0,1,374,91.49a3.2,3.2,0,0,1-2.39-2.83,3.78,3.78,0,0,1,.46-2.43,3.12,3.12,0,0,1,1.63-1.39,3,3,0,0,1,2.36.27A3.43,3.43,0,0,1,377.59,88.39Z"/><path class="cls-17" d="M283.93,89.83l.54.55c0,.05,0,.09-.06.17a3.27,3.27,0,0,1-5.67-2.42,3.55,3.55,0,0,1,1.13-2.65,2.41,2.41,0,0,1,2.76-.51c.25.09.54-.06.75.23s.61.53.82.86a4.26,4.26,0,0,1,.51,1.22,6.35,6.35,0,0,1,.06,1.11h-4.56c-.49,0-.59.17-.45.64a2.17,2.17,0,0,0,.95,1.39,2.54,2.54,0,0,0,1.51.37A5.43,5.43,0,0,0,283.93,89.83Z"/><path class="cls-17" d="M237,88.39h-4.57c-.36,0-.48.17-.41.5a2.35,2.35,0,0,0,1.76,1.86,2.68,2.68,0,0,0,2-.52c.53-.27.51-.31.94.12l.07.07a3.16,3.16,0,0,1-3.36,1A3,3,0,0,1,231,88.53a3.72,3.72,0,0,1,.45-2.21c1.08-1.76,2.25-1.82,3.92-1.24a2.37,2.37,0,0,1,1.37,1.64A2.71,2.71,0,0,1,237,88.39Z"/><path class="cls-17" d="M363.44,103.83a3.29,3.29,0,0,1-3.4,1,2.72,2.72,0,0,1-1.77-1.17,3.75,3.75,0,0,1,1.06-5.24,3.19,3.19,0,0,1,3.22.4,3.53,3.53,0,0,1,1.13,3c-1.53,0-3,0-4.54,0-.49,0-.6.17-.45.63a2.44,2.44,0,0,0,1.65,1.69c.82.27,1.4-.17,2-.43S363,103.37,363.44,103.83Z"/><path class="cls-17" d="M240.62,101.83h-5c.07,1.65.79,2.24,2.3,2.37a2,2,0,0,0,1.5-.67c.38-.35.49-.15.7.08l.22.23A3.4,3.4,0,0,1,237,104.9a3.19,3.19,0,0,1-2.36-3,3.6,3.6,0,0,1,.46-2.2,3.27,3.27,0,0,1,1.57-1.45,3,3,0,0,1,2.36.22,3.28,3.28,0,0,1,1.61,2.64C240.64,101.32,240.62,101.52,240.62,101.83Z"/><path class="cls-17" d="M339.32,103.22l.6.62a3.45,3.45,0,0,1-3.34,1.07,3.21,3.21,0,0,1-2.4-2.83,3.89,3.89,0,0,1,.47-2.44,3.2,3.2,0,0,1,1.62-1.39,3,3,0,0,1,2.37.28,3.43,3.43,0,0,1,1.53,3.27h-4.72c-.28,0-.34.13-.31.36a2.19,2.19,0,0,0,3.17,1.79C338.67,103.76,339.11,103.65,339.32,103.22Z"/><path class="cls-17" d="M362.48,74.74h-4.6c-.38,0-.58.26-.42.59.31.63.53,1.27,1.33,1.59,1.21.49,2-.06,2.88-.72l.57.56a3.43,3.43,0,0,1-3.35,1.08,3.22,3.22,0,0,1-2.4-2.83,3.88,3.88,0,0,1,.47-2.44,3.14,3.14,0,0,1,1.63-1.39,3,3,0,0,1,2.36.28A3.44,3.44,0,0,1,362.48,74.74Z"/><path class="cls-17" d="M534,90.42a3.18,3.18,0,0,1-3.37,1,3,3,0,0,1-2.37-2.94,3.76,3.76,0,0,1,.44-2.2c1.1-1.76,2.25-1.81,3.94-1.24A2.26,2.26,0,0,1,534,86.61c.13.53.59,1.06.11,1.76h-4.8a2.17,2.17,0,0,0,3.13,2.18,1.77,1.77,0,0,1,.49-.27c.2,0,.35-.28.53-.43l.08.08Z"/><path class="cls-17" d="M295.7,89.86l.51.5c.08.06,0,.1,0,.17a3.35,3.35,0,0,1-4.9-.08,2.75,2.75,0,0,1-.77-2,3.9,3.9,0,0,1,.46-2.2,3.32,3.32,0,0,1,1.58-1.44,3,3,0,0,1,2.37.21,3.34,3.34,0,0,1,1.59,2.64c0,.2,0,.39,0,.67h-5a2.35,2.35,0,0,0,1.16,2.15C293.63,91.06,294.54,90.81,295.7,89.86Z"/><path class="cls-17" d="M187.07,74.74h-4.52c-.43,0-.61.2-.46.55.24.55.38,1.22,1,1.49a2.58,2.58,0,0,0,1.52.36,6.52,6.52,0,0,0,1.78-1c.07.12.13.26.21.38s.17.17.27.28c-.06.07-.12.16-.19.23a3.26,3.26,0,0,1-5.57-2.41,3.68,3.68,0,0,1,1.14-2.77,2.56,2.56,0,0,1,2.68-.57C186.39,71.63,187.16,73,187.07,74.74Z"/><path class="cls-17" d="M223.46,76.17l.57.56s0,.12-.08.16a3.37,3.37,0,0,1-4.9-.1,3.51,3.51,0,0,1-.77-2.32,3.6,3.6,0,0,1,1.14-2.65,2.39,2.39,0,0,1,2.76-.5c.24.09.54-.06.75.23s.61.53.82.86a4,4,0,0,1,.5,1.22,5,5,0,0,1,0,1.11h-4.52c-.49,0-.58.16-.44.64a2.2,2.2,0,0,0,.94,1.39,2.11,2.11,0,0,0,1.52.35A3.14,3.14,0,0,0,223.46,76.17Z"/><path class="cls-17" d="M269.33,74.74h-4.52c-.39,0-.59.25-.43.58.3.63.48,1.35,1.32,1.59,1.29.36,1.71.28,2.87-.74l.57.62a3.24,3.24,0,0,1-2.85,1.07,3,3,0,0,1-2.09-1,3.38,3.38,0,0,1-.81-2.42,3.52,3.52,0,0,1,1.08-2.55,2.75,2.75,0,0,1,2.77-.63,2.4,2.4,0,0,1,1.62,1.21A2.79,2.79,0,0,1,269.33,74.74Z"/><path class="cls-17" d="M181.6,101.84h-5a2.31,2.31,0,0,0,1.16,2.11c1,.52,1.89.28,3.07-.68l.51.51c.07.06,0,.09,0,.17a3.35,3.35,0,0,1-4.89-.09,2.75,2.75,0,0,1-.77-2,3.74,3.74,0,0,1,.46-2.2,3.32,3.32,0,0,1,1.58-1.44,3,3,0,0,1,2.37.22,3.3,3.3,0,0,1,1.59,2.64C181.62,101.33,181.6,101.52,181.6,101.84Z"/><path class="cls-17" d="M290.26,63.36a3.42,3.42,0,0,1-3.38,1.06,3.19,3.19,0,0,1-2.36-3,3.76,3.76,0,0,1,.46-2.2c1.1-1.76,2.21-1.72,3.95-1.27.37.44.87.73,1.14,1.3a3.58,3.58,0,0,1,.42,2h-4.95a2.15,2.15,0,0,0,2.3,2.42,2,2,0,0,0,1.5-.67c.37-.34.49-.17.7.07Z"/><path class="cls-17" d="M297.89,61.32h-4.5c-.43,0-.62.2-.46.55.24.55.38,1.22,1,1.49a2.29,2.29,0,0,0,1.53.34,3.32,3.32,0,0,0,1.69-1l.51.67s-.07.09-.14.16a3.36,3.36,0,0,1-4.81-.21,3.4,3.4,0,0,1-.76-2.2,3.65,3.65,0,0,1,1.15-2.77,2.55,2.55,0,0,1,2.68-.56A3.09,3.09,0,0,1,297.89,61.32Z"/><path class="cls-17" d="M313.5,61.32c-1.59,0-3.1,0-4.62,0-.35,0-.43.17-.36.43a2.23,2.23,0,0,0,2.49,2,4.75,4.75,0,0,0,1.68-.92l.47.61c.15,0,.11,0,0,.08a3.27,3.27,0,0,1-5.67-2.42,3.57,3.57,0,0,1,1.13-2.65,2.68,2.68,0,0,1,2.77-.55A2.35,2.35,0,0,1,313,59,3,3,0,0,1,313.5,61.32Z"/><path class="cls-17" d="M452.84,88.39h-4.51c-.38,0-.59.26-.43.59.31.63.52,1.27,1.32,1.6,1.21.49,2-.06,2.9-.73l.55.58c-.9,1.13-2.16,1.15-3.46,1.08-.54-.41-1.29-.56-1.65-1.19a3.72,3.72,0,0,1-.65-1.89A3.83,3.83,0,0,1,448,85.52a2.56,2.56,0,0,1,2.76-.59,1.56,1.56,0,0,1,1,.47c.31.39.8.7.89,1.18S453.17,87.72,452.84,88.39Z"/><path class="cls-17" d="M430.56,88.39h-4.51c-.43,0-.61.2-.46.55.24.55.38,1.23,1,1.49a2.21,2.21,0,0,0,1.52.35,3.38,3.38,0,0,0,1.71-1l.45.74s0,0-.09.11a3.36,3.36,0,0,1-4.81-.21,3.4,3.4,0,0,1-.76-2.2,3.69,3.69,0,0,1,1.14-2.77,2.54,2.54,0,0,1,2.68-.56C429.89,85.29,430.66,86.6,430.56,88.39Z"/><path class="cls-17" d="M354.46,89.83l.55.56a.48.48,0,0,1-.08.16,3.36,3.36,0,0,1-4.89-.11,3.46,3.46,0,0,1-.77-2.32,3.58,3.58,0,0,1,1.14-2.65,2.67,2.67,0,0,1,2.77-.54,2.42,2.42,0,0,1,1.54,1.14,3,3,0,0,1,.52,2.32h-4.5c-.49,0-.58.17-.44.65a2.08,2.08,0,0,0,.94,1.38,2.48,2.48,0,0,0,1.52.37A5.84,5.84,0,0,0,354.46,89.83Z"/><path class="cls-14" d="M301.55,82.43h1V86l.22.14a3.82,3.82,0,0,1,.29-.48c1.15-1.37,2.88-1,4,.38a.65.65,0,0,1,.1.44v4.79h-1c0-1.28,0-2.58,0-3.88a2.43,2.43,0,0,0-.07-.81,1.55,1.55,0,0,0-2.12-.89,2.08,2.08,0,0,0-1.39,2.14c-.06,1.11,0,2.23,0,3.35-.26.3-.58,0-1,.2V82.43Z"/><path class="cls-14" d="M368.73,95.84h1v3.54l.22.13a2.72,2.72,0,0,1,.37-.56,2.25,2.25,0,0,1,3.36,0,1.67,1.67,0,0,1,.62,1.43c-.06,1.42,0,2.85,0,4.26a1.88,1.88,0,0,1-.95.06c0-1.3,0-2.6,0-3.9a2.43,2.43,0,0,0-.07-.81,1.54,1.54,0,0,0-2.12-.88,2.09,2.09,0,0,0-1.39,2.14c-.05,1.11,0,2.23,0,3.36-.28.2-.58.1-1,.08V95.84Z"/><path class="cls-14" d="M256.21,68.77h1v3.54l.19.11c.16-.21.31-.43.48-.63a2.32,2.32,0,0,1,3.2,0,2,2,0,0,1,.7,1.65c-.06,1.38,0,2.77,0,4.18h-1c0-1.37,0-2.75,0-4.13a1.42,1.42,0,0,0-1-1.49,2,2,0,0,0-2.37,1.09,4.62,4.62,0,0,0-.26,1.57c0,.95,0,1.91,0,2.88-.27.26-.59,0-.83.12-.08-.08-.12-.11-.12-.14C256.21,74.61,256.21,71.74,256.21,68.77Z"/><path class="cls-14" d="M375.44,77.63c0-1.41,0-2.72,0-4,0-1.49-1-2.07-2.37-1.52a2,2,0,0,0-1.2,2c-.09,1.14,0,2.29,0,3.42a1.89,1.89,0,0,1-.91.06V68.81a1.86,1.86,0,0,1,.89,0v3.71c.31-.31.51-.48.67-.68a2.34,2.34,0,0,1,3.29,0,2.12,2.12,0,0,1,.63,1.55c-.05,1.39,0,2.78,0,4.15C376.11,77.69,375.83,77.58,375.44,77.63Z"/><path class="cls-14" d="M392.72,91.24h-.92V82.43h.91v3.69a8.31,8.31,0,0,0,.67-.67,2.31,2.31,0,0,1,3.29,0,2,2,0,0,1,.63,1.43c-.07,1.43,0,2.86,0,4.26a2,2,0,0,1-1,.09c0-1.3,0-2.6,0-3.9a2.72,2.72,0,0,0-.06-.81,1.57,1.57,0,0,0-2.12-.91,2.09,2.09,0,0,0-1.4,2.14C392.66,88.92,392.72,90.07,392.72,91.24Z"/><path class="cls-14" d="M194.08,77.59h-.88a.91.91,0,0,1-.08-.23V73.65c0-1.55-1-2.17-2.43-1.56a2.11,2.11,0,0,0-1.15,2.09c-.08,1.1,0,2.22,0,3.35a1.48,1.48,0,0,1-.93,0V68.82a1.51,1.51,0,0,1,.92,0v3.46c.28.11.32-.16.46-.25a3.51,3.51,0,0,0,.34-.33,2.27,2.27,0,0,1,2.55-.3,5.77,5.77,0,0,1,1.14,1c.18.15.07.37.07.56C194.08,74.46,194.08,76,194.08,77.59Z"/><path class="cls-14" d="M316.21,104.76V95.91c.27-.17.55-.06.82-.09,0,0,.08.05.08.08v3.48a.75.75,0,0,0,.58-.4,2.33,2.33,0,0,1,3.47,0,1.84,1.84,0,0,1,.56,1.33c-.05,1.35,0,2.71,0,4.06a1.94,1.94,0,0,1,0,.24c-.28.24-.59,0-.94.15v-4c0-1.53-1.07-2.17-2.46-1.54a2.16,2.16,0,0,0-1.12,2.11c-.09,1.1,0,2.22,0,3.3C316.86,104.78,316.57,104.61,316.21,104.76Z"/><path class="cls-13" d="M261.72,61.08a3,3,0,0,1,2.1-3.16,3.23,3.23,0,0,1,3.91,1.27,3.48,3.48,0,0,1,0,3.78,3.06,3.06,0,0,1-2.42,1.48,3.44,3.44,0,0,1-2.38-.63,3.5,3.5,0,0,1-1-1.27A3.41,3.41,0,0,1,261.72,61.08Z"/><path class="cls-13" d="M337.3,74.59c.12,1.49-.73,2.49-2.18,3.15a3.36,3.36,0,0,1-4.27-2.23,3.64,3.64,0,0,1,1-3.63,3.36,3.36,0,0,1,5,.86A3.79,3.79,0,0,1,337.3,74.59Z"/><path class="cls-13" d="M211.56,88.43c0-1.77.61-2.8,2-3.41a3.37,3.37,0,0,1,4.06,1.35,3.81,3.81,0,0,1,.1,3.4,3.17,3.17,0,0,1-2.85,1.75,3,3,0,0,1-2.55-1.07A2.59,2.59,0,0,1,211.56,88.43Z"/><path class="cls-13" d="M210.15,101.6c.14,1.69-.82,2.56-2.2,3.22a2.87,2.87,0,0,1-2,.05,3,3,0,0,1-1.76-1.22,3.74,3.74,0,0,1,.55-4.72,3.31,3.31,0,0,1,5,.91A2.77,2.77,0,0,1,210.15,101.6Z"/><path class="cls-13" d="M206.77,47.64a3.66,3.66,0,0,1-.26,1.68c-.33.69-1,1-1.47,1.4a2.09,2.09,0,0,1-1.42.31A3,3,0,0,1,200.54,49a4.79,4.79,0,0,1,0-2.68,3,3,0,0,1,2.07-1.95,3.45,3.45,0,0,1,4.15,2.22A4.24,4.24,0,0,1,206.77,47.64Z"/><path class="cls-12" d="M209.65,23v7.1h-2.06s0,0,0,0a.2.2,0,0,1,0-.11c0-2.3,0-4.61,0-6.95Z"/><path class="cls-12" d="M279.45,30.16h-2.09V23c.65-.07,1.35,0,2.09,0Z"/><path class="cls-12" d="M344.78,23h2.08v7.14h-2.08Z"/><path class="cls-12" d="M182.93,90.07c.13-.14.32-.24.34-.36.23-1.49,1.15-2.73,1.46-4.19.1-.46.54-.62,1-.48.12,0,.22.21.14.27-.33.24-.19.63-.34.94-.71,1.46-1.31,3-1.88,4.49A5.75,5.75,0,0,1,183,92,3,3,0,0,1,182,93.11a4.26,4.26,0,0,1-1.64.06c-.24,0-.51-.46-.38-.6s.29-.54.66-.26a1,1,0,0,0,1.42-.24,1.11,1.11,0,0,0,.13-1.37,12.56,12.56,0,0,1-.52-1.21c-.7-1.42-1.33-2.88-2-4.33.9-.14.9-.14,1.24.51a19.06,19.06,0,0,1,1.19,2.74A13.51,13.51,0,0,0,182.93,90.07Z"/><path class="cls-14" d="M208.71,77.59h-1c0-1.39,0-2.77,0-4.15A1.53,1.53,0,0,0,206,71.86c-.46,0-.76.46-1.22.5,0,.31-.27.52-.37.81a4.32,4.32,0,0,0-.22,1.46c0,1,0,1.91,0,2.88a1.41,1.41,0,0,1-.93.06V71.49c.87-.12.87-.12,1,.64a10.78,10.78,0,0,0,.88-.63,2.31,2.31,0,0,1,2.51-.09c.41.18.69.63,1,1,.15.14.09.3.09.45C208.72,74.39,208.71,76,208.71,77.59Z"/><path class="cls-14" d="M337.82,85.08c.86,0,.86,0,1,.7.29-.47.88-.5,1.17-.93a3.15,3.15,0,0,1,2.33.32c.28.21.5.52.77.75a.61.61,0,0,1,.19.52v4.79h-1c0-1.32,0-2.66,0-4a1.49,1.49,0,0,0-.12-.79,1.56,1.56,0,0,0-2.07-.79,2.1,2.1,0,0,0-1.39,2.14c-.05,1.12,0,2.23,0,3.37-.28.19-.58.1-.92.07Z"/><path class="cls-14" d="M470,91.28V85.12c.88-.07.88-.07,1,.71a2.38,2.38,0,0,1,1.16-.9,2.46,2.46,0,0,1,2.32.2,9.61,9.61,0,0,1,.86.83c.22.2.14.44.14.66,0,1.51,0,3,0,4.55a1.42,1.42,0,0,1-1,0c0-1.31,0-2.62,0-3.92,0-1.54-1.06-2.17-2.45-1.54-.95.42-1.06,1.28-1.12,2.1-.09,1.11,0,2.22,0,3.32C470.63,91.35,470.35,91.23,470,91.28Z"/><path class="cls-14" d="M239.42,91.24h-.92V85.15c.87-.13.87-.13.94.54.29.08.34-.23.5-.34a2.5,2.5,0,0,1,2.05-.56,1.66,1.66,0,0,1,1,.4,2,2,0,0,1,1,2c-.13,1.33,0,2.69,0,4.07h-1c0-1.38,0-2.76,0-4.14a1.43,1.43,0,0,0-1-1.49,2,2,0,0,0-2.37,1.09,4.64,4.64,0,0,0-.26,1.58C239.46,89.23,239.42,90.19,239.42,91.24Z"/><path class="cls-14" d="M321,64.17h-.93v-6.1c.87-.11.87-.11,1,.65.33-.21.62-.45.88-.64a2.32,2.32,0,0,1,2.29-.15c.58.18.82.71,1.25,1,.16.11.09.29.09.44,0,1.58,0,3.16,0,4.77h-1c0-1.39,0-2.77,0-4.15a1.47,1.47,0,0,0-1-1.48,2,2,0,0,0-2.36,1.11,4.88,4.88,0,0,0-.26,1.57C321,62.17,321,63.13,321,64.17Z"/><path class="cls-14" d="M224.79,64.18h-.92V58.09c.85-.15.85-.15,1,.66.26-.52.86-.53,1.15-1a3.26,3.26,0,0,1,2.24.23,6.79,6.79,0,0,1,1,.91c.14.14.1.29.1.44,0,1.59,0,3.17,0,4.74a1.87,1.87,0,0,1-1,.07c0-1.29,0-2.6,0-3.9a2.72,2.72,0,0,0-.06-.81,1.56,1.56,0,0,0-2.13-.89,2.1,2.1,0,0,0-1.39,2.14C224.74,61.83,224.79,63,224.79,64.18Z"/><path class="cls-14" d="M185.72,58c.86,0,.86,0,1,.71.28-.48.87-.5,1.16-.93a3.1,3.1,0,0,1,2.33.31c.29.21.5.52.77.75a.61.61,0,0,1,.19.52v4.8h-1V60.28a2.72,2.72,0,0,0-.07-.81,1.54,1.54,0,0,0-2.12-.89,2.11,2.11,0,0,0-1.4,2.14c-.05,1.12,0,2.23,0,3.37-.27.2-.58.1-.92.08Z"/><path class="cls-14" d="M212.79,104.65h-.93V98.54c.19-.18.44-.05.66-.08s.28.08.27.27-.07.61.38.21a2.43,2.43,0,0,1,2-.75,2.7,2.7,0,0,1,1.54.65,1.83,1.83,0,0,1,.69,1.64c-.06,1.38,0,2.77,0,4.18h-1c0-1.4,0-2.78,0-4.16a1.34,1.34,0,0,0-.9-1.41c-.87-.34-2.23.08-2.43.93a4.8,4.8,0,0,0-.29,1.57C212.85,102.58,212.79,103.58,212.79,104.65Z"/><path class="cls-14" d="M253.33,104.66a2,2,0,0,1-.93,0V98.54c.19-.18.44-.06.67-.08s.27.09.27.27-.07.6.37.21a2.44,2.44,0,0,1,2-.75,2.68,2.68,0,0,1,1.54.65,1.82,1.82,0,0,1,.69,1.64c-.06,1.36,0,2.71,0,4.07-.26.3-.59,0-1,.22,0-1.51,0-2.89,0-4.28a1.35,1.35,0,0,0-.9-1.41,1.89,1.89,0,0,0-2.36.86,3.9,3.9,0,0,0-.35,1.53C253.38,102.5,253.33,103.54,253.33,104.66Z"/><path class="cls-14" d="M290,104.65h-.91V98.54c.19-.18.44-.06.66-.08s.27.08.27.27-.07.61.38.21a2.43,2.43,0,0,1,2-.75,2.73,2.73,0,0,1,1.54.65,1.84,1.84,0,0,1,.69,1.64c-.06,1.38,0,2.77,0,4.18h-1c0-1.4,0-2.78,0-4.16a1.33,1.33,0,0,0-.9-1.41c-.86-.34-2.22.08-2.42.93a4.8,4.8,0,0,0-.29,1.57c.08,1,0,1.91,0,2.87C290,104.5,290,104.54,290,104.65Z"/><path class="cls-11" d="M282.24,58.69h-3.79c-.19,0-.41.05-.41-.26s-.06-.49.34-.47.87,0,1.31,0h3.36c.17,0,.44-.1.5.15a.55.55,0,0,1-.18.64c-.47.36-.69.94-1.11,1.33-.84.77-1.38,1.81-2.28,2.52-.27.21-.21.59-.68.87h3.86c.18,0,.41,0,.4.26s.07.47-.33.47c-1.71,0-3.42,0-5.14,0a1.29,1.29,0,0,1,.49-1.36c.87-.75,1.46-1.74,2.25-2.56C281.28,59.82,281.66,59.27,282.24,58.69Z"/><path class="cls-15" d="M380.89,91.51a3.51,3.51,0,0,1-2-.68c-.4-.24-.09-.24-.08-.41.06-.46.19-.4.53-.23a3.68,3.68,0,0,0,2.14.6,2.42,2.42,0,0,0,1.19-.86c.08-.23-.41-1-.73-1.06a14,14,0,0,1-1.59-.49c-.58-.28-1.34-.45-1.32-1.34-.45-.51,0-1,.23-1.29a2,2,0,0,1,2-1,4.17,4.17,0,0,1,1.84.49c.13.07.31,0,.32.23s-.14.28-.25.38-.45.1-.73,0a3.94,3.94,0,0,0-1.41-.39,1.64,1.64,0,0,0-.73.28.65.65,0,0,0-.16,1.15,1.37,1.37,0,0,0,.87.48c.57,0,.94.44,1.47.55.74.15,1,.94,1.15,1.58a1.4,1.4,0,0,1-.36,1,2,2,0,0,1-1.87,1A3.3,3.3,0,0,0,380.89,91.51Z"/><path class="cls-15" d="M349.47,77.85a2.48,2.48,0,0,1-2-.72c-.79,0-.06-.35-.06-.48,0-.38.23-.23.46-.11a3.84,3.84,0,0,0,2,.59c.19,0,.39.09.56-.08a7.77,7.77,0,0,0,.74-.78c.14-.17-.4-1-.71-1a10,10,0,0,1-1.58-.5c-.56-.29-1.37-.41-1.33-1.33-.48-.51,0-1,.22-1.29a2,2,0,0,1,2-1,4,4,0,0,1,1.84.48c.12.07.31,0,.33.23s-.14.28-.25.38-.45.11-.74,0a4.22,4.22,0,0,0-1.28-.38,1.48,1.48,0,0,0-.86.26c-.54.31-.59.74-.16,1.15a1.76,1.76,0,0,0,1,.51,11.06,11.06,0,0,1,1.45.55c.64.17.91.94,1,1.55a1.6,1.6,0,0,1-.41,1.12C351.1,77.7,350.74,77.85,349.47,77.85Z"/><path class="cls-15" d="M329.34,64.44a2.42,2.42,0,0,1-2-.72c-.8,0-.07-.34-.08-.47,0-.37.22-.26.46-.13a5.18,5.18,0,0,0,2,.62c.71,0,.93-.53,1.32-.87.15-.13-.4-1-.7-1.06-.48-.09-.93-.38-1.36-.44s-.82-.52-1.29-.67-.08-.76-.48-1c.23-.34.19-.78.46-1.13a2.69,2.69,0,0,1,2.85-.78c.21.35.72,0,.93.4,0,.06.3,0,.32.22s-.18.35-.32.45-.46.13-.54,0c-.21-.35-.58-.12-.85-.31a1.28,1.28,0,0,0-1.4.12c-.53.31-.59.75-.18,1.15a1.67,1.67,0,0,0,1,.51,11.2,11.2,0,0,1,1.46.55c.63.16.92.93,1.05,1.55a1.61,1.61,0,0,1-.4,1.12C331,64.29,330.61,64.44,329.34,64.44Z"/><path class="cls-15" d="M233.28,64.44a3.73,3.73,0,0,1-2.21-.68c-.4-.25-.08-.25-.06-.41,0-.33.14-.45.43-.29s.79.29,1.12.47a2.38,2.38,0,0,0,1.12.18,2.08,2.08,0,0,0,1.18-.86c.08-.23-.4-.94-.73-1a14,14,0,0,1-1.59-.5c-.59-.27-1.17-.51-1.37-1.33a1.54,1.54,0,0,1,.28-1.31,2.07,2.07,0,0,1,2-1,4.35,4.35,0,0,1,1.84.49c.13.07.31,0,.32.24s-.15.28-.26.37-.46.11-.74,0a3.47,3.47,0,0,0-1.4-.38,1.52,1.52,0,0,0-.74.27.66.66,0,0,0-.14,1.16,1.53,1.53,0,0,0,.87.48c.56,0,.93.43,1.47.55.72.15,1,.93,1.14,1.58a1.18,1.18,0,0,1-.28.93,2.12,2.12,0,0,1-1.83,1Z"/><path class="cls-15" d="M195.14,64.43a2.51,2.51,0,0,1-2.15-.71c-.8,0-.08-.34-.08-.46,0-.38.21-.27.46-.15a5,5,0,0,0,2,.63c.71,0,.92-.53,1.32-.87.14-.12-.41-1.06-.7-1a3,3,0,0,1-1.08-.33,2,2,0,0,1-1.27-.66c-.76,0-.36-.86-.78-1.12.23-.35.18-.79.45-1.14a2.69,2.69,0,0,1,2.86-.78c.2.35.72,0,.92.4,0,.06.31,0,.33.21a.51.51,0,0,1-.32.46c-.2.11-.41,0-.65,0a4.64,4.64,0,0,0-1.28-.39,1.5,1.5,0,0,0-.86.25c-.53.31-.59.75-.19,1.15a1.67,1.67,0,0,0,1,.51c.54,0,.93.42,1.46.55s.92.93,1,1.54a1.54,1.54,0,0,1-.4,1.12A2.12,2.12,0,0,1,195.14,64.43Z"/><path class="cls-15" d="M226.27,104.92a2.51,2.51,0,0,1-2.06-.69c-.74,0-.15-.44-.12-.56.1-.36.3-.14.52,0a3.93,3.93,0,0,0,1.22.5c.6.11,1.22.23,1.71-.39s.32-1.28-.42-1.43c-.3-.07-.55-.23-.84-.31-.48-.14-1.08-.16-1.39-.68-.8,0-.37-.86-.82-1.08a4.15,4.15,0,0,1,.44-1.13,2.45,2.45,0,0,1,2.91-.77c.27.11.62,0,.84.31.07.1.43,0,.35.3s-.26.51-.59.44a8,8,0,0,1-1.05-.33c-.94-.32-1.58-.09-1.89.63-.06.17-.08.29,0,.42a2.12,2.12,0,0,0,.83.6c.5.13,1,.48,1.43.57,1,.18,1.17.92,1.43,1.6a1.35,1.35,0,0,1-.3,1,2.08,2.08,0,0,1-2,1A2.76,2.76,0,0,0,226.27,104.92Z"/><path class="cls-15" d="M186.35,51a2.43,2.43,0,0,1-2-.72c-.78,0-.06-.34-.06-.47,0-.38.22-.24.46-.12a4.85,4.85,0,0,0,2,.61c.71,0,.92-.52,1.31-.87.15-.14-.4-1-.71-1.05-.47-.11-.92-.4-1.36-.45s-.82-.51-1.29-.67-.05-.78-.47-1a3.74,3.74,0,0,1,.4-1,2.12,2.12,0,0,1,1.87-1,3.7,3.7,0,0,1,2,.48c.11.08.31,0,.33.23s-.13.28-.24.38-.45.12-.73,0a4.69,4.69,0,0,0-1.29-.38,1.45,1.45,0,0,0-.85.26c-.56.32-.6.74-.17,1.15a1.76,1.76,0,0,0,1,.51,11.77,11.77,0,0,1,1.46.55c.63.17.91.94,1,1.55a1.57,1.57,0,0,1-.4,1.12C188,50.88,187.61,51,186.35,51Z"/><path class="cls-15" d="M305.08,104.92a3.44,3.44,0,0,1-2-.68c-.4-.24-.09-.24-.07-.41,0-.45.18-.4.52-.22a3.75,3.75,0,0,0,2.15.59,2.38,2.38,0,0,0,1.18-.86c.08-.23-.41-1-.73-1a14,14,0,0,1-1.59-.5c-.58-.27-1.33-.45-1.32-1.34-.44-.51,0-1,.23-1.29a2,2,0,0,1,2-1,4.5,4.5,0,0,1,1.84.49c.12.07.3,0,.32.24s-.15.28-.26.37-.45.11-.73,0a3.93,3.93,0,0,0-1.41-.38,1.44,1.44,0,0,0-.73.28.65.65,0,0,0-.16,1.15,1.53,1.53,0,0,0,.87.48c.57,0,.94.44,1.47.55.74.15,1,.94,1.15,1.58a1.28,1.28,0,0,1-.29.92,2,2,0,0,1-1.82,1C305.49,104.91,305.33,104.92,305.08,104.92Z"/><path class="cls-15" d="M362.25,85.88c-.08.08-.2.15-.25.25-.23.53-.59.15-.83.07a3.64,3.64,0,0,1-.74-.51,1.08,1.08,0,0,0-1.1-.13c-.36.25-.81.11-1.14.5a3.29,3.29,0,0,0-.13,4,2.52,2.52,0,0,0,1.48.73,2.21,2.21,0,0,0,1.6-.46,3.39,3.39,0,0,0,.49-.51l.62.62a3.4,3.4,0,0,1-4.91.13,3.69,3.69,0,0,1,0-4.81A3.39,3.39,0,0,1,362.25,85.88Z"/><path class="cls-15" d="M199.36,45.4l-.31.3c-.15.12-.21.36-.53.11s-.42-.3-.64-.45a2,2,0,0,0-2.88.76,2.78,2.78,0,0,0-.13,2.92,2.23,2.23,0,0,0,3.6.59l.3-.3.5.65a3.29,3.29,0,0,1-4.62.29,3.67,3.67,0,0,1-.24-5A3.4,3.4,0,0,1,199.36,45.4Z"/><path class="cls-15" d="M314.12,103.22l.59.58a3.3,3.3,0,0,1-4.66.38,3.67,3.67,0,0,1-.26-5,3.4,3.4,0,0,1,4.92,0,.91.91,0,0,1-.09.17c-.51.49-.55.53-1.08.09a1.93,1.93,0,0,0-2.19-.38,1.72,1.72,0,0,0-.9.67,3.25,3.25,0,0,0,0,3.54,2.51,2.51,0,0,0,2.35.78A2.12,2.12,0,0,0,314.12,103.22Z"/><path class="cls-15" d="M369.45,72.22l-.38.38c-.13.16-.21.16-.44.05a3.27,3.27,0,0,1-.65-.45,1.54,1.54,0,0,0-1.52-.3c-.5.2-1.27.23-1.34,1a2.85,2.85,0,0,0,0,3.31,2.4,2.4,0,0,0,2.33.8,2.07,2.07,0,0,0,1.35-.94l.5.71a3.26,3.26,0,0,1-4.56.29,3.68,3.68,0,0,1-.28-5A3.42,3.42,0,0,1,369.45,72.22Z"/><path class="cls-15" d="M423.93,85.16a22.84,22.84,0,0,1-1.08,2.42,20.4,20.4,0,0,1-1.54,3.32c-.14.2-.14.36-.44.38s-.72-.1-.78-.39c-.36-1.53-1.34-2.8-1.75-4.31a9,9,0,0,0-.43-.89c-.09-.19-.44-.38-.17-.58a.79.79,0,0,1,.88,0,1,1,0,0,1,.27.49c.47,1.16,1.06,2.27,1.43,3.48.08.25.14.65.45.69s.41-.44.47-.66c.3-1.19.95-2.24,1.36-3.39C422.87,85,422.92,85,423.93,85.16Z"/><path class="cls-13" d="M331.54,99.17v5.42c-.3.16-.58.07-.93.09V99.3a.77.77,0,0,0-.65-.12c-.25,0-.33-.08-.35-.34s.1-.43.41-.39a3.38,3.38,0,0,0,.45,0c.2-.23.12-.48.1-.7a1.82,1.82,0,0,1,1.95-1.94,5.73,5.73,0,0,0,.83,0c0,.07.11.13.11.2,0,.23.05.53-.07.68s-.38-.11-.58-.16a1,1,0,0,0-1.27,1c0,.28,0,.55,0,.92h1.67c.31,0,.24.23.25.41s0,.32-.24.31Z"/><path class="cls-13" d="M345.74,85.76c-.32,0-.51,0-.71,0s-.29-.16-.3-.38.06-.36.33-.34h.65a2.4,2.4,0,0,1,.75-2.37c.69-.53,1.38,0,2-.3.24.2.16.37.16.52,0,.48,0,.48-.49.33-.87-.27-1.39.07-1.42.94,0,.27,0,.54,0,.88.56,0,1.07,0,1.58,0,.26,0,.35.09.34.35s0,.39-.29.38c-.52,0-1,0-1.59,0v5.35c-.31.25-.62.14-1,.13Z"/><path class="cls-15" d="M340.38,71.38c.64,0,1.15,0,1.66,0,.29,0,.3.16.3.38s-.06.35-.33.35c-.51,0-1,0-1.59,0,0,1.25,0,2.43,0,3.62s.47,1.34,1.5,1a.45.45,0,0,1,.32,0c.17.08.08.28.1.43s-.19.37-.33.45a2.63,2.63,0,0,1-2.36-.59.79.79,0,0,1-.19-.64V72.2c-.23-.17-.43-.09-.62-.09s-.34-.08-.35-.33.1-.43.41-.4a5,5,0,0,0,.55,0V69.49h.93Z"/><path class="cls-15" d="M307.07,72.1a3.42,3.42,0,0,0-.58,0c-.35,0-.38-.15-.38-.42s.14-.33.37-.31.32,0,.56,0V69.57a1.89,1.89,0,0,1,1-.09v1.9c.59,0,1.11,0,1.62,0,.26,0,.34.1.33.35s0,.38-.3.38c-.52,0-1,0-1.63,0,0,1.26,0,2.49,0,3.71,0,.91.56,1.26,1.47.92.12,0,.24-.11.33-.07s.12.27.12.42a.5.5,0,0,1-.4.51,2.75,2.75,0,0,1-1.91-.27,1.2,1.2,0,0,1-.59-1.07C307.12,74.9,307.07,73.55,307.07,72.1Z"/><path class="cls-15" d="M326.74,72.1H326c-.23,0-.25-.13-.24-.3s-.07-.42.25-.42.39,0,.68,0V69.57a1.78,1.78,0,0,1,1-.08v1.89c.59,0,1.1,0,1.61,0,.27,0,.34.11.33.35s0,.38-.31.38c-.51,0-1,0-1.62,0,0,1.27,0,2.49,0,3.72,0,.9.56,1.24,1.47.9.12,0,.24-.09.32,0s.12.27.12.42-.23.51-.4.5a3.38,3.38,0,0,1-1.71-.19,1.26,1.26,0,0,1-.77-1.28C326.76,74.81,326.74,73.5,326.74,72.1Z"/><path class="cls-15" d="M199.56,56.08h1V58H202c.26,0,.55-.08.53.39s-.25.33-.47.33h-1.46c0,1.3,0,2.52,0,3.75a1,1,0,0,0,1.33,1c.2-.06.36-.35.58-.08s-.12.78-.33.81a2.94,2.94,0,0,1-1.92-.22,1.24,1.24,0,0,1-.64-1.16c0-1.35,0-2.7,0-4.1H199c-.26,0-.34-.1-.33-.35s0-.39.3-.37h.63Z"/><path class="cls-15" d="M378.82,71.38V69.5h.93v1.88c.59,0,1.11,0,1.62,0,.27,0,.32.12.32.36s0,.37-.31.37c-.52,0-1,0-1.62,0,0,1.27,0,2.5,0,3.72,0,.91.55,1.24,1.47.9.12,0,.24-.09.33,0s.11.28.11.43a.49.49,0,0,1-.41.49,3.58,3.58,0,0,1-1.61-.15,1.3,1.3,0,0,1-.87-1.32c0-1.31,0-2.62,0-3.91-.25-.18-.49-.1-.72-.1s-.24-.15-.24-.32-.06-.41.26-.41S378.5,71.38,378.82,71.38Z"/><path class="cls-15" d="M238.66,58h1.66c.29,0,.3.16.31.37s-.07.36-.33.35h-1.6c0,1.24,0,2.43,0,3.62,0,1,.48,1.34,1.5,1a.52.52,0,0,1,.32,0c.17.09.08.28.1.43a.48.48,0,0,1-.33.45,2.64,2.64,0,0,1-2.36-.58.8.8,0,0,1-.19-.65V58.81c-.18-.19-.35-.11-.5-.12s-.45.07-.47-.33.26-.39.53-.39h.43V56.08h.93Z"/><path class="cls-15" d="M257.65,58.69H257c-.27,0-.33-.11-.32-.35s0-.39.31-.37h.62v-1.8a1.36,1.36,0,0,1,1-.07V58c.54,0,1.05,0,1.55,0,.33,0,.41.11.4.41s-.11.33-.36.32h-1.51a6.72,6.72,0,0,0-.05,1.49c0,.76,0,1.52,0,2.27a1,1,0,0,0,1.33,1c.21-.06.37-.34.57-.06s-.12.79-.33.8a2.94,2.94,0,0,1-1.92-.23,1.2,1.2,0,0,1-.64-1.16C257.7,61.43,257.65,60.09,257.65,58.69Z"/><path class="cls-15" d="M207.51,85.76c-.27,0-.47,0-.66,0s-.3-.16-.3-.38.06-.36.33-.34h.61V83.21a1.53,1.53,0,0,1,1,0V85h1.68c.33,0,.24.24.25.42s0,.3-.25.3c-.51,0-1,0-1.67,0,0,1.3,0,2.6,0,3.9a1,1,0,0,0,1.35.83c.21-.07.37-.34.55,0s-.14.81-.34.79c-.57-.06-1.13.14-1.72-.19a1.23,1.23,0,0,1-.81-1.23C207.53,88.51,207.51,87.2,207.51,85.76Z"/><path class="cls-15" d="M271.05,58h1.66c.29,0,.3.16.3.37s-.06.36-.33.35h-1.59c0,1.24,0,2.43,0,3.62,0,1,.48,1.34,1.5,1a.49.49,0,0,1,.31,0c.18.09.09.28.11.43a.49.49,0,0,1-.33.45,2.63,2.63,0,0,1-2.36-.58.81.81,0,0,1-.19-.65V58.81c-.18-.19-.35-.11-.5-.12s-.46.07-.48-.33.27-.39.53-.39h.44V56.08h.93Z"/><path class="cls-15" d="M333.94,58.69h-.67c-.29,0-.29-.16-.29-.38s.07-.36.33-.34h.61V56.14a1.53,1.53,0,0,1,1,0V58h1.69c.23,0,.25.14.24.3s.07.42-.25.42H334.9c0,1.3,0,2.6,0,3.9a1,1,0,0,0,1.35.83c.21-.07.38-.34.55,0s-.14.8-.35.78a3.74,3.74,0,0,1-1.71-.19,1.24,1.24,0,0,1-.82-1.24C334,61.44,333.94,60.12,333.94,58.69Z"/><path class="cls-15" d="M231.75,96.45v2h1.57c.24,0,.34.06.35.33s-.08.41-.4.4c-.47,0-1,0-1.53,0,0,1.32,0,2.62,0,3.93a1,1,0,0,0,1.36.79c.22-.08.4-.33.54,0s-.14.79-.37.77c-.56,0-1.13.14-1.71-.2a1.27,1.27,0,0,1-.79-1.25c0-1.31,0-2.63,0-3.93-.16-.2-.38-.12-.56-.11s-.42-.09-.4-.4.1-.34.35-.33.39.07.61-.1v-1.7C231.07,96.43,231.36,96.61,231.75,96.45Z"/><path class="cls-15" d="M219.75,99.17c-.28,0-.48,0-.67,0s-.29-.17-.3-.38.08-.36.34-.34h.61V96.62a1.61,1.61,0,0,1,1,0v1.86h1.68c.24,0,.25.14.25.31s.06.41-.26.41h-1.66c0,1.31,0,2.61,0,3.91a1,1,0,0,0,1.35.82c.21-.07.38-.34.55,0s-.14.79-.35.79a3.15,3.15,0,0,1-1.82-.22,1.28,1.28,0,0,1-.72-1.22C219.78,101.92,219.75,100.61,219.75,99.17Z"/><path class="cls-15" d="M364.17,85.76c-.28,0-.47,0-.67,0s-.29-.17-.3-.38.07-.36.34-.34h.61V83.21a1.53,1.53,0,0,1,1,0V85h1.68c.23,0,.25.14.25.3s.07.42-.26.42c-.51,0-1,0-1.66,0,0,1.3,0,2.6,0,3.9a1,1,0,0,0,1.35.83c.21-.07.37-.34.55,0s-.14.81-.35.79a3.8,3.8,0,0,1-1.72-.19,1.24,1.24,0,0,1-.81-1.24C364.19,88.51,364.17,87.19,364.17,85.76Z"/><path class="cls-15" d="M508.83,85.76a5.69,5.69,0,0,0-.59,0c-.34,0-.38-.14-.38-.42s.14-.32.37-.3h.56V83.23a2,2,0,0,1,1-.1V85c.59,0,1.1,0,1.61,0,.26,0,.34.1.33.35s0,.39-.29.38c-.52,0-1,0-1.63,0,0,1.25,0,2.48,0,3.7,0,.92.56,1.27,1.47.92.16-.06.3-.13.4,0s0,.22,0,.34a.51.51,0,0,1-.4.51A2.75,2.75,0,0,1,509.4,91a1.16,1.16,0,0,1-.59-1.08C508.87,88.56,508.83,87.2,508.83,85.76Z"/><path class="cls-15" d="M521.78,85c.6,0,1.11,0,1.63,0,.29,0,.29.16.3.38s-.06.36-.33.35c-.51,0-1,0-1.6,0,0,1.24,0,2.43,0,3.61s.47,1.35,1.49,1a.52.52,0,0,1,.32,0c.18.09.09.28.1.43a.48.48,0,0,1-.33.45,2.58,2.58,0,0,1-2.44-.67c-.17-.23-.1-.45-.1-.68,0-1.34,0-2.69,0-4-.18-.19-.34-.11-.49-.12s-.46.07-.48-.33.26-.39.53-.39h.43V83.12h.54c.26,0,.47,0,.44.36S521.78,84.44,521.78,85Z"/><path class="cls-18" d="M496.35,91.24h-.92V85.12c.24-.16.55-.08.93,0v1.21c.85-.65,1.34-1.71,2.55-1.46.15.19.06.4.08.59s-.07.31-.32.35a2.2,2.2,0,0,0-2,1.47,4.87,4.87,0,0,0-.35,1.65C496.37,89.64,496.35,90.4,496.35,91.24Z"/><path class="cls-18" d="M315,58h.84c.23.37-.05.8.18,1.17.76-.59,1.26-1.64,2.51-1.39,0,.11,0,.22,0,.33,0,.3.09.56-.44.62a2.09,2.09,0,0,0-1.86,1.45,5.06,5.06,0,0,0-.35,1.65c0,.75,0,1.51,0,2.26-.28.27-.6,0-.93.16Z"/><path class="cls-18" d="M299.43,58h.83c.24.37-.05.79.18,1.15,1.54-1.39,1.54-1.39,2.48-1.37.12.09.07.22.07.33,0,.29.1.56-.43.62a2.09,2.09,0,0,0-1.86,1.45,5,5,0,0,0-.35,1.64c0,.76,0,1.51,0,2.27-.28.27-.6,0-.93.16Z"/><path class="cls-18" d="M345.22,98.25c0,.2,0,.35,0,.51s-.05.38-.37.43a2.14,2.14,0,0,0-1.77,1.11,6.08,6.08,0,0,0-.48,1.93,23.08,23.08,0,0,0,0,2.35c-.3.18-.58.07-.9.11V98.52c.22-.15.5,0,.8-.07.21.35,0,.76.14,1.21C343.43,99.08,343.92,98,345.22,98.25Z"/><path class="cls-18" d="M219.75,64.17h-.93V58.05a1.52,1.52,0,0,1,1,0v1.2c1.56-1.49,1.56-1.49,2.62-1.43,0,.18,0,.37,0,.56s-.11.3-.34.34a2.22,2.22,0,0,0-2,1.49,5,5,0,0,0-.34,1.65C219.77,62.59,219.75,63.34,219.75,64.17Z"/><path class="cls-18" d="M287.16,91.25h-.92V85.06h.84c.22.36-.06.79.18,1.16.75-.58,1.25-1.62,2.42-1.4.17.1.12.23.12.34,0,.29.11.57-.42.63a2.08,2.08,0,0,0-1.87,1.44,4.76,4.76,0,0,0-.35,1.64C287.18,89.63,287.16,90.38,287.16,91.25Z"/><path class="cls-18" d="M254.77,71.18c0,.24,0,.39,0,.55s0,.34-.3.38a2.23,2.23,0,0,0-2,1.45,5.13,5.13,0,0,0-.36,1.65c0,.78,0,1.57,0,2.38h-.92V71.41h.9v1.24C253,72,253.48,71,254.77,71.18Z"/><path class="cls-18" d="M433,91.24h-.92V85.12c.24-.17.54-.07.84-.05.22.36-.06.79.16,1.14,1.54-1.39,1.54-1.39,2.52-1.36a3.11,3.11,0,0,1,0,.32c0,.3.1.56-.44.62a2.08,2.08,0,0,0-1.85,1.45,5,5,0,0,0-.36,1.65C433,89.64,433,90.39,433,91.24Z"/><path class="cls-18" d="M462.77,91.24h-.92V85.06h.84c.22.36-.06.78.17,1.16.76-.58,1.26-1.61,2.43-1.4.17.09.12.23.11.34,0,.28.12.56-.41.63a2.09,2.09,0,0,0-1.87,1.44,5,5,0,0,0-.36,1.64C462.78,89.62,462.77,90.38,462.77,91.24Z"/><path class="cls-18" d="M501.15,91.23h-.9V85.11c.24-.17.52,0,.78-.1.25.38,0,.8.2,1.21.78-.55,1.25-1.63,2.47-1.39.14.09.09.26.09.41s.06.48-.38.54a2.06,2.06,0,0,0-1.88,1.42,5.77,5.77,0,0,0-.38,1.75C501.17,89.7,501.15,90.45,501.15,91.23Z"/><path class="cls-18" d="M181.6,64.17h-.93V58.05a1.51,1.51,0,0,1,1,0v1.21c1.58-1.49,1.58-1.49,2.62-1.44a5.42,5.42,0,0,0,0,.57c0,.26-.1.3-.34.34a2.21,2.21,0,0,0-2,1.48,5.11,5.11,0,0,0-.34,1.65C181.62,62.59,181.6,63.34,181.6,64.17Z"/><path class="cls-19" d="M354.81,77.59h-1V68.86c.28-.2.58-.1,1-.08v8.81Z"/><path class="cls-19" d="M226.27,68.77h.87v8.76c-.22.18-.53.06-.87.06Z"/><path class="cls-19" d="M327,95.84h.88v8.76c-.23.18-.54.06-.88.05Z"/><path class="cls-19" d="M445,91.25h-.89V82.49c.24-.18.55-.07.89,0Z"/><path class="cls-20" d="M286,98.47h1c0,2.28,0,4.54,0,6.8a1.63,1.63,0,0,1-2,1.32c-.12,0-.14-.18-.13-.3s0-.34.25-.43c.87-.26.95-.39.95-1.18Z"/><path class="cls-20" d="M173.69,98.44c0,2.28,0,4.47,0,6.65a1.58,1.58,0,0,1-2,1.51c-.22,0-.18-.22-.18-.37s0-.28.19-.36c1-.39,1-.4,1-1.37v-6C173,98.37,173.3,98.49,173.69,98.44Z"/><path class="cls-16" d="M458.69,90.55c-.55,1.09-1.57,1-2.52.93a2,2,0,0,1-1.61-1.3,1.52,1.52,0,0,1-.19-.64v-4.4c.28-.19.57-.06.83-.1a.32.32,0,0,1,.13.3c0,1.16,0,2.31,0,3.47a1.81,1.81,0,0,0,2.83,1.66c.1,0,.14-.2.29-.16h.09a.29.29,0,0,1,.14.13Z"/><path class="cls-16" d="M403.51,90.55c-.54,1.09-1.56,1-2.52.93a2,2,0,0,1-1.6-1.3,1.54,1.54,0,0,1-.2-.64c0-1.47,0-2.94,0-4.4.29-.19.57-.06.83-.1a.31.31,0,0,1,.14.3c0,1.16,0,2.31,0,3.47A1.8,1.8,0,0,0,403,90.47c.1,0,.14-.2.29-.16h.1a.27.27,0,0,1,.13.13Z"/><path class="cls-16" d="M187.36,104c-.54,1.1-1.56,1.05-2.52.94a2,2,0,0,1-1.6-1.31,1.5,1.5,0,0,1-.2-.64c0-.12,0-.24,0-.36v-4c.29-.2.57-.07.83-.11a.31.31,0,0,1,.14.3c0,1.16,0,2.32,0,3.47a1.8,1.8,0,0,0,2.82,1.67c.1,0,.14-.21.29-.17h.1a.29.29,0,0,1,.13.14Z"/><path class="cls-16" d="M380.48,104c-.54,1.1-1.56,1.05-2.52.94a2,2,0,0,1-1.6-1.31,1.5,1.5,0,0,1-.2-.64V98.56c.29-.2.57-.07.83-.11a.28.28,0,0,1,.13.3c0,1.16,0,2.32,0,3.47a1.8,1.8,0,0,0,2.82,1.67c.1,0,.14-.21.29-.17h.1a.29.29,0,0,1,.13.14Z"/><path class="cls-16" d="M313.55,90.55c-.55,1.09-1.57,1-2.52.93a2,2,0,0,1-1.61-1.3,1.52,1.52,0,0,1-.19-.64v-4.4c.28-.19.57-.06.83-.1a.32.32,0,0,1,.13.3c0,1.16,0,2.31,0,3.47A1.81,1.81,0,0,0,313,90.47c.1,0,.14-.2.29-.16h.09a.26.26,0,0,1,.14.13Z"/><path class="cls-13" d="M403.27,90.31a3,3,0,0,0,.49-1.84c0-1.11,0-2.22,0-3.35a1.51,1.51,0,0,1,.94,0v6.08c-.12.16-.29.08-.44.1-.3,0-.57,0-.5-.41,0-.16,0-.33-.24-.31A1.36,1.36,0,0,0,403.27,90.31Z"/><path class="cls-13" d="M313.31,90.31a3.11,3.11,0,0,0,.49-1.84c0-1.11,0-2.22,0-3.35a1.48,1.48,0,0,1,.93,0v6.08c-.11.16-.28.08-.43.1-.3,0-.57,0-.5-.41,0-.16,0-.33-.24-.31A1.36,1.36,0,0,0,313.31,90.31Z"/><path class="cls-13" d="M458.45,90.31a3.11,3.11,0,0,0,.49-1.84c0-1.11,0-2.22,0-3.35a1.48,1.48,0,0,1,.93,0v6.08c-.11.16-.28.08-.43.1-.3,0-.57,0-.5-.41,0-.16,0-.33-.24-.31A1.36,1.36,0,0,0,458.45,90.31Z"/><path class="cls-13" d="M380.24,103.72a3,3,0,0,0,.49-1.83c0-1.11,0-2.23,0-3.36a1.58,1.58,0,0,1,.94,0v6.09c-.12.16-.29.07-.44.09-.3,0-.57,0-.5-.41,0-.16,0-.33-.24-.31A2.72,2.72,0,0,0,380.24,103.72Z"/><path class="cls-13" d="M187.12,103.72a3,3,0,0,0,.49-1.83c0-1.11,0-2.23,0-3.36a1.58,1.58,0,0,1,.94,0v6.09c-.12.16-.29.07-.44.09s-.57,0-.5-.41c0-.16,0-.33-.24-.31A2.72,2.72,0,0,0,187.12,103.72Z"/><path class="cls-21" d="M243.46,64.18h-.88V58.05c.23-.24.55,0,.88-.14Z"/><path class="cls-21" d="M338.54,58h.88v6.18h-.88Z"/><path class="cls-21" d="M526.3,91.25h-.88V85.12c.24-.17.54-.07.88-.05Z"/><path class="cls-21" d="M182.53,50.76h-.89V44.64c.23-.24.56,0,.89-.14Z"/><path class="cls-21" d="M493.44,91.24h-.89V85.12a1.33,1.33,0,0,1,.89,0Z"/><path class="cls-21" d="M468,91.24h-.89V85.12c.24-.23.56,0,.89-.13Z"/><path class="cls-21" d="M407.15,85.06H408v6.12c-.23.18-.54.07-.88.06Z"/><path class="cls-21" d="M190.76,44.58h.88V50.7c-.24.17-.54.08-.88,0Z"/><path class="cls-21" d="M369,91.28V85.13c.27-.17.55-.06.82-.09,0,0,.08,0,.08.08v6.07C369.64,91.35,369.36,91.23,369,91.28Z"/><path class="cls-21" d="M506.39,91.24h-.88V85.12c.24-.17.54-.07.88-.05Z"/><path class="cls-21" d="M335.82,91.24h-.88V85.12c.23-.18.54-.06.88-.05Z"/><path class="cls-21" d="M250.2,98.44v6.15c-.27.17-.56.06-.83.09,0,0-.07-.05-.07-.08q0-3,0-6.07C249.55,98.37,249.83,98.49,250.2,98.44Z"/><path class="cls-21" d="M317.83,91.24H317V85.12c.24-.17.54-.07.88-.05Z"/><path class="cls-21" d="M283.76,104.66h-.88V98.54c.24-.18.54-.08.88-.05Z"/><path class="cls-21" d="M323.9,98.48h.89v6.12c-.24.23-.56,0-.89.13Z"/><path class="cls-21" d="M347.81,104.66h-.87V98.54c.23-.18.54-.07.87-.06Z"/><path class="cls-21" d="M312.55,77.59h-.88V71.46c.24-.22.55,0,.88-.13Z"/><path class="cls-21" d="M262.49,85.06h.88v6.12c-.23.18-.54.07-.88.06Z"/><path class="cls-21" d="M271.09,71.41H272v6.2h-.48c-.26,0-.45,0-.44-.36C271.1,75.31,271.09,73.37,271.09,71.41Z"/><path class="cls-21" d="M383.86,104.69V98.54c.27-.17.55-.05.82-.09a.34.34,0,0,1,.08.09.21.21,0,0,1,0,.1v5.94C384.51,104.76,384.23,104.65,383.86,104.69Z"/><path class="cls-8" d="M344.78,20.38h2.07v1.88c-.64,0-1.34,0-2.07,0Z"/><path class="cls-8" d="M277.3,20.38h2.14v1.84c-.06.1-.22.06-.37.06l-1.66,0A10.82,10.82,0,0,1,277.3,20.38Z"/><path class="cls-8" d="M209.7,22.26h-2.14V20.42c.05-.1.22-.06.37-.06l1.66,0A10.82,10.82,0,0,1,209.7,22.26Z"/><path class="cls-22" d="M534.92,92.33a1.57,1.57,0,0,0,.86-.55c.26-.27.3-.45-.16-.52-.2,0-.16-.22-.16-.38v-.76h1.21a4.43,4.43,0,0,1-.24,1.9c-.23.42-.64.49-1,.67S535.17,92.46,534.92,92.33Z"/><path class="cls-22" d="M485.56,90.09h1.2c0,.39,0,.78,0,1.17a1.64,1.64,0,0,1-1.07,1.43.4.4,0,0,1-.48-.23c-.25-.38.15-.16.23-.24s.34-.34.51-.5a.27.27,0,0,0,0-.41C485.56,90.84,485.56,90.84,485.56,90.09Z"/><path class="cls-22" d="M384.9,90.1h1.33A4.49,4.49,0,0,1,386,92c-.22.47-.63.5-.95.72s-.39-.15-.45-.29.19-.11.27-.18a5.39,5.39,0,0,0,.59-.58.42.42,0,0,0,0-.3C384.61,91.14,385.29,90.51,384.9,90.1Z"/><path class="cls-22" d="M197.44,103.5h1.2c0,.4,0,.79,0,1.17a1.59,1.59,0,0,1-1.06,1.43.39.39,0,0,1-.48-.22c-.25-.38.15-.17.23-.25s.34-.33.51-.5a.27.27,0,0,0,0-.41C197.44,104.26,197.44,104.26,197.44,103.5Z"/><path class="cls-22" d="M327.88,90.09h1.28a4.81,4.81,0,0,1-.24,1.91c-.23.44-.63.49-1,.69-.15.1-.26-.12-.36-.23s0-.21.13-.24.4-.35.62-.51a.31.31,0,0,0,.08-.3C327.67,91.22,328.05,90.61,327.88,90.09Z"/><path class="cls-22" d="M267.84,103.5h1.33c0,.4,0,.79,0,1.17a1.64,1.64,0,0,1-1.07,1.44.41.41,0,0,1-.48-.23c-.25-.38.15-.17.23-.25s.34-.33.51-.5.16-.36,0-.39C267.62,104.56,268.16,104,267.84,103.5Z"/><path class="cls-22" d="M296,105.75a1.57,1.57,0,0,0,.86-.55c.26-.27.3-.46-.16-.53-.2,0-.16-.22-.16-.37v-.76h1.2a4.4,4.4,0,0,1-.23,1.89c-.23.43-.64.49-1,.67S296.23,105.88,296,105.75Z"/><path class="cls-21" d="M208.49,45.71V44.6h1.13a3.33,3.33,0,0,1,0,1.11Z"/><path class="cls-21" d="M205.08,64.18H204V63.06a3.38,3.38,0,0,1,1.12-.05Z"/><path class="cls-21" d="M282.16,76.43h1.12v1.13a3.4,3.4,0,0,1-1.12,0Z"/><path class="cls-21" d="M394.9,104.64v-1.12H396a3.15,3.15,0,0,1,0,1.12Z"/><path class="cls-21" d="M282.14,72.54V71.42h1.13a3.4,3.4,0,0,1,0,1.12Z"/><path class="cls-21" d="M245.9,85.06h1.16v1.11s-.14.07-.26.07c-.89,0-.89,0-.9-.95Z"/><path class="cls-21" d="M349.56,64.16V63h1.1c.19.32,0,.71.11,1.12Z"/><path class="cls-21" d="M203.94,59.13V58h1.12a3.15,3.15,0,0,1,0,1.12Z"/><path class="cls-21" d="M208.49,50.74V49.63h1.13a3.35,3.35,0,0,1,0,1.11Z"/><path class="cls-21" d="M384.52,77.59H383.4V76.47a3.4,3.4,0,0,1,1.12,0Z"/><path class="cls-21" d="M247.08,90.11v1.12H246a3.4,3.4,0,0,1,0-1.12Z"/><path class="cls-23" d="M250.19,96.1V97H249.1c-.17-.24-.08-.55,0-.88Z"/><path class="cls-23" d="M173.7,97h-1.13c-.16-.27,0-.55-.08-.82a1.6,1.6,0,0,1,1.1-.08C173.8,96.32,173.65,96.62,173.7,97Z"/><path class="cls-23" d="M384.78,96.06V97h-1.1c-.2-.18-.06-.47-.07-.73s.19-.19.35-.18Z"/><path class="cls-23" d="M262.23,83.6v-.92h1.11c.19.19.05.48.06.73s-.19.19-.35.19Z"/><path class="cls-23" d="M317.88,83.58h-1.13c-.16-.27-.05-.55-.08-.84.36-.21.75,0,1.09-.11C317.94,82.94,317.84,83.22,317.88,83.58Z"/><path class="cls-23" d="M283.78,96.1V97h-1.1c-.17-.23-.06-.53-.05-.87Z"/><path class="cls-23" d="M335.87,83.58h-1.12c-.16-.27-.06-.55-.09-.84.36-.21.75,0,1.09-.11C335.94,82.94,335.83,83.22,335.87,83.58Z"/><path class="cls-23" d="M190.5,43.08V42.2h1.1c.24.23,0,.55.13.88Z"/><path class="cls-23" d="M243.48,55.61v.88h-1.1c-.17-.23-.07-.54,0-.88Z"/><path class="cls-23" d="M339.54,56.51h-1.18c-.21-.26,0-.55-.15-.84a2.69,2.69,0,0,1,1.15-.08C339.56,55.86,339.38,56.15,339.54,56.51Z"/><path class="cls-23" d="M285.74,97V96.1h1.11c.19.18,0,.47.06.73s-.19.19-.35.19Z"/><path class="cls-23" d="M368.71,82.66h1.13c.16.28.05.56.09.84-.36.21-.75,0-1.1.12C368.65,83.31,368.76,83,368.71,82.66Z"/><path class="cls-23" d="M324.84,97h-1.13c-.16-.27,0-.55-.08-.82a1.6,1.6,0,0,1,1.1-.08C324.94,96.32,324.79,96.62,324.84,97Z"/><path class="cls-23" d="M181.38,43.08V42.2h1.1c.17.23.07.54.05.88Z"/><path class="cls-23" d="M270.87,69.91V69H272c.17.23.06.54,0,.88Z"/><path class="cls-23" d="M406.89,83.56v-.88H408c.17.24.07.54.05.88Z"/><path class="cls-23" d="M312.57,69v.88h-1.1c-.16-.24-.07-.55-.05-.88Z"/><path class="cls-23" d="M347.87,97h-1.13c-.16-.28-.05-.56-.09-.84.37-.22.75,0,1.1-.12C347.93,96.35,347.82,96.63,347.87,97Z"/><path class="cls-23" d="M468.06,83.58h-1.13c-.16-.27-.05-.55-.08-.81a1.54,1.54,0,0,1,1.1-.08C468.16,82.9,468,83.21,468.06,83.58Z"/><path class="cls-23" d="M525.13,82.66h1.13c.16.27,0,.55.08.84-.36.22-.74,0-1.09.12C525.07,83.31,525.17,83,525.13,82.66Z"/><path class="cls-23" d="M505.22,82.66h1.13c.15.28,0,.56.08.84-.36.21-.75,0-1.09.12C505.16,83.31,505.26,83,505.22,82.66Z"/><path class="cls-23" d="M492.3,83.6v-.92h1.1c.2.19.05.48.07.73s-.2.19-.35.19Z"/><path class="cls-24" d="M256.45,29c0-.23.21-.34.52-.51-.12.39.17.75-.28,1C256.66,29.28,256.81,29,256.45,29Z"/><path class="cls-24" d="M340.42,29c0-.23.2-.34.51-.51-.11.39.18.75-.27,1C340.62,29.28,340.78,29,340.42,29Z"/><path class="cls-24" d="M294.6,29c0-.23.2-.34.51-.51-.11.39.18.75-.27,1C294.8,29.28,295,29,294.6,29Z"/><path class="cls-25" d="M126.67,52.7a11.43,11.43,0,0,1,0,1.55,9.07,9.07,0,0,1-1.41,4.34c-1.12,1.48-1.89,2-3.6,2-1.32,0-2.63,0-4,0a2.31,2.31,0,0,0-1.49.48,3.38,3.38,0,0,1-3.73.33,5.27,5.27,0,0,1-1.91-1.18c-.17-.21-.37-.13-.49.05a14.51,14.51,0,0,1-2.64,3.1c-.4.35,0,.95-.44,1.25.12.59-.39,1-.46,1.48a3.35,3.35,0,0,1-.74,1.38c-.6.91-1.16,1.85-1.79,2.75a9.94,9.94,0,0,1-3.48,2.91,8.22,8.22,0,0,1-2.41,1.1c-.14,0-.26.09-.23.2.16.49-.25.86-.27,1.34a16.41,16.41,0,0,1-.68,3.78A15.07,15.07,0,0,1,95.72,83a1.89,1.89,0,0,0-.18,1.67c.31.65.38,1.35.62,2a2.81,2.81,0,0,1,.31,1.45c0,.22,0,.55.58.3a1.71,1.71,0,0,1,1.79.51,6.8,6.8,0,0,1,1.59,2.35,1.08,1.08,0,0,1-.48,1.4c-.16.11-.27.33-.44.38s-.49.4-.86.11-.49.19-.73.2a12.51,12.51,0,0,1-2.87,0,1.94,1.94,0,0,1-1.74-1.5c-.29-1.3-.9-2.51-1.22-3.81a1.84,1.84,0,0,0-.44-.77,3.13,3.13,0,0,1-.72-1.85,14.8,14.8,0,0,1-.26-2.66,15.4,15.4,0,0,0,0-2.63,14.11,14.11,0,0,1-.23-2.06c0-.68,0-1.36,0-2-.27-.23-.6-.1-.9-.11-.76,0-1.52,0-2.28,0a22.28,22.28,0,0,1-8.1-1.58c-1.45-.55-2.86-1.2-4.3-1.77-1.68-.67-3.38-1.3-5.08-1.92-1.25-.45-2.53-.83-3.77-1.32a1.46,1.46,0,0,0-.78-.1c-.27,0-.33.38-.48.56-1.2,1.38-2.06,3-3.18,4.45s-2,3-3,4.48-1.89,3-2.81,4.48a4.23,4.23,0,0,0-.8,2.66,3.8,3.8,0,0,1-.19,1.59,1.66,1.66,0,0,0,.1,1.24,3.82,3.82,0,0,1,.09,1.52.75.75,0,0,0,.49.81,4.33,4.33,0,0,1,1.3,1.19.73.73,0,0,1,0,1,1.84,1.84,0,0,1-1.14.7c-.37.07-.74.12-1.11.22-.95.23-1.85-.3-2.78-.49-.29-.06-.51-.48-.77-.73-.06-.06,0-.09,0-.18.29-.51.07-1.07.14-1.61s-.18-1.18.24-1.7c-.23-.55-.08-1.22-.56-1.69A6.8,6.8,0,0,0,50,87c-.71-.48-.72-1.3-1-2,.27-.47.24-1.06.64-1.49a6.66,6.66,0,0,0,1.56-2.7,2.41,2.41,0,0,0,.13-.78,11,11,0,0,0-.19-2.55A18.29,18.29,0,0,1,50.67,75a8.37,8.37,0,0,1-.28-2c.07-.49-.31-.85-.28-1.34s.25-1-.21-1.34c0,0,0-.15,0-.23.07-1.5-.4-2.95-.25-4.46a10.7,10.7,0,0,0,0-1.79,14.69,14.69,0,0,1,.74-5c.06-.2.31-.34,0-.52s-.26-.28-.45-.37A9.4,9.4,0,0,1,48,56.48a2.58,2.58,0,0,1-.67-2.77,4.5,4.5,0,0,1,2.35-2.84,2.49,2.49,0,0,1,2-.19c.94.23,1.86.53,2.79.78.48.13.84.57,1.35.51s.75-.66,1.17-.93a13.54,13.54,0,0,1,2.58-1.58,35.39,35.39,0,0,1,3.65-1.35,33.42,33.42,0,0,0,3.93-.92h.11c1.19.13,2.32-.42,3.5-.24.75.12,1.42-.35,2.18-.26a21.33,21.33,0,0,0,2.4,0c.76,0,1.52,0,2.28,0s1.18.33,1.82.27a19.81,19.81,0,0,1,2,0,8.69,8.69,0,0,0,1.91,0A21.35,21.35,0,0,1,88,46.72c1.52,0,3,0,4.56,0a2.74,2.74,0,0,1,1.48.19,1.31,1.31,0,0,0,1.11-.14c1.69-.82,3.43-1.56,5.15-2.31s3.74-1.4,5.62-2.07c1.37-.49,2.82-.68,4.19-1.17a5.22,5.22,0,0,1,1.19,0,1.37,1.37,0,0,0,1.32-.85,5.91,5.91,0,0,1,1.86-2.57,6.56,6.56,0,0,0,1.32-1.13,31,31,0,0,0,2.89-4c.11.11.32.22.33.34a12.15,12.15,0,0,1,.25,3.12A7.29,7.29,0,0,1,118,38.92a1.62,1.62,0,0,0,1.13,2.73c.42.06.6.31.89.49a16.09,16.09,0,0,1,1.84,1.35c1.09.85,2,1.86,3,2.79a1.81,1.81,0,0,1,.55,1.35c.08.87-.34,1.67-.27,2.54,0,.13-.27.18-.23.37A19.52,19.52,0,0,0,126.67,52.7Z"/><path class="cls-26" d="M126.67,52.7a12.61,12.61,0,0,1-1.24-.73c-.49-.35-.46-.9-.44-1.43h.35c.78,0,1.33.36,1.33,1.35Z"/><path class="cls-27" d="M233.34,43.6c.32,1.13-.17,2.17-.16,3.23,0,0-.12.1-.19.11s-.2,0-.2,0c-.1-.35-.37-.62-.35-1a2.88,2.88,0,0,0-.2-1.8.29.29,0,0,1,.3-.46C232.81,43.61,233.08,43.6,233.34,43.6Z"/><path class="cls-28" d="M233.38,48.61h-.88v-1.1c.24-.17.54-.06.88,0Z"/><path class="cls-27" d="M221.59,43.6c.3,1.13-.15,2.13-.17,3.16a.18.18,0,0,1-.23.19c-.07,0-.19-.05-.19-.08,0-.34-.34-.56-.31-.95a3.44,3.44,0,0,0-.21-1.92c-.11-.23,0-.45.36-.41A6.11,6.11,0,0,0,221.59,43.6Z"/><path class="cls-28" d="M220.75,47.45h.88v1.1c-.23.24-.55,0-.88.13Z"/><path class="cls-27" d="M245.09,43.6c.33,1.13-.17,2.17-.16,3.23,0,0-.11.1-.18.11s-.2,0-.21,0c-.09-.35-.37-.62-.34-1a2.88,2.88,0,0,0-.21-1.8c-.09-.16-.09-.49.31-.46S244.84,43.6,245.09,43.6Z"/><path class="cls-28" d="M245.16,47.41v1.13c-.27.17-.55.05-.81.09a1.58,1.58,0,0,1-.09-1.11C244.48,47.32,244.79,47.47,245.16,47.41Z"/><path class="cls-29" d="M255.2,28a1.86,1.86,0,0,1-1.87-1.85,1.88,1.88,0,0,1,1.88-1.76,1.8,1.8,0,0,1,1,.42c.46.32.3,1,.69,1.38-.38.4-.22,1.06-.68,1.39S255.6,28.17,255.2,28Z"/><path class="cls-29" d="M293.4,28a1.8,1.8,0,1,1-.23-3.6,1.68,1.68,0,0,1,1.25.44c.44.35.32,1,.63,1.39-.35.4-.21,1.08-.69,1.37C294.06,27.82,293.76,28.15,293.4,28Z"/><path class="cls-29" d="M339,24.43a1.46,1.46,0,0,1,1.15.4c.47.31.33,1,.69,1.38-.32.42-.2,1.05-.64,1.39a1.77,1.77,0,0,1-1,.43,1.8,1.8,0,1,1-.18-3.6Z"/><path class="cls-30" d="M204,26.59c-.41.67-.19,1.64-1.21,2a1.5,1.5,0,0,1-2-.78,2.8,2.8,0,0,1,.09-2.75,1.66,1.66,0,0,1,2.58-.07A8.75,8.75,0,0,1,204,26.59Z"/><path class="cls-31" d="M178.72,26c-.1.17-.23.13-.34.13h-1.95c-.27-.35.06-.46.14-.65.23-.58.5-1.14.7-1.72.07-.18.11-.28.3-.26s.16.1.2.22C178.08,24.47,178.41,25.24,178.72,26Z"/><path class="cls-29" d="M194.8,26.64a1.72,1.72,0,0,1-1,1.88,1.79,1.79,0,0,1-2.56-1.35c0-.32,0-.64,0-1a1.8,1.8,0,0,1,3.6,0Z"/><path class="cls-29" d="M235.34,26.71a1.9,1.9,0,0,1-2,2.05c-1-.13-1.58-1-1.67-2.23a2,2,0,0,1,1.67-2.1,1.85,1.85,0,0,1,2,1.8C235.35,26.39,235.34,26.55,235.34,26.71Z"/><path class="cls-30" d="M214.59,26.11c-.28,0-.56,0-.84,0s-.43.11-.47-.19-.1-.45.12-.52c.39-.14.26-.63.73-.8a1.42,1.42,0,0,1,2,1.21c0,.17,0,.31-.25.3Z"/><path class="cls-30" d="M263.85,26.11a1.45,1.45,0,0,1-.36,0c-.34-.11-.82.29-1-.23-.12-.29.39-1,.8-1.21a1.16,1.16,0,0,1,1.83.57c.43.83.41.86-.53.87Z"/><path class="cls-30" d="M324.77,26.11h-1.08c-.4,0-.37-.3-.29-.47a2.59,2.59,0,0,1,.7-.95,1.39,1.39,0,0,1,2.16,1.06c0,.23,0,.37-.3.36Z"/><path class="cls-30" d="M351.94,26.11h-1.19c-.32,0-.31-.26-.24-.41a2.32,2.32,0,0,1,.93-1.15c.49-.31.88,0,1.28.13s.51.63.64,1,0,.46-.35.43A9.53,9.53,0,0,0,351.94,26.11Z"/><path class="cls-32" d="M308.5,27.07a1.47,1.47,0,0,1,.47,0c.32.1.63.26.94.39-.33.23-.11.59-.21.86s-.43.34-.73.45a1.49,1.49,0,0,1-1.17.1,1.19,1.19,0,0,1-.71-.87c-.06-.21.25-.34.27-.6s.39-.14.56-.32.38,0,.58,0Z"/><path class="cls-1" d="M173.72,76.89V73.78H177a3.19,3.19,0,0,1,.84.28,1.52,1.52,0,0,1,.89,1.23c.09.37-.48,1.29-.9,1.33s-.67.32-1.09.29C175.74,76.85,174.75,76.89,173.72,76.89Z"/><path class="cls-33" d="M173.71,73.06V69.71c.94,0,1.88,0,2.82,0a1.89,1.89,0,0,1,1.72,1.54c.08.74-.37,1.2-1.29,1.6a2.14,2.14,0,0,1-.87.21Z"/><path class="cls-1" d="M173.71,46.71V42.88c1,0,2,0,3,0a2.56,2.56,0,0,1,1.14.4,1.89,1.89,0,0,1,.08,2.91,2.29,2.29,0,0,1-1.46.5Z"/><path class="cls-29" d="M262.73,98.93a2.85,2.85,0,0,1,1.63.64,4.62,4.62,0,0,1,.73,1.71,9,9,0,0,1-.72,1.6c-.52.2-.93.63-1.54.61a3.1,3.1,0,0,1-1.64-.66,2.09,2.09,0,0,1-.67-1.75A2.23,2.23,0,0,1,262.73,98.93Z"/><path class="cls-29" d="M315.23,74.19a2.24,2.24,0,0,1,2.14-2.34,2.27,2.27,0,0,1,1.63.62,2.2,2.2,0,0,1,0,3.35,2.14,2.14,0,0,1-1.52.6A2.24,2.24,0,0,1,315.23,74.19Z"/><path class="cls-29" d="M248.31,58.45a1.81,1.81,0,0,1,1.58.59,2.21,2.21,0,0,1,0,3.34,2.12,2.12,0,0,1-1.51.63,2.25,2.25,0,0,1-2.27-2.2A2.22,2.22,0,0,1,248.31,58.45Z"/><path class="cls-29" d="M342.34,60.77A2.23,2.23,0,0,1,346.09,59a2.48,2.48,0,0,1,.78,1.67,2.33,2.33,0,0,1-.75,1.68,1.91,1.91,0,0,1-1.5.62,2.47,2.47,0,0,1-1.64-.66A1.86,1.86,0,0,1,342.34,60.77Z"/><path class="cls-29" d="M478.12,87.78a2.24,2.24,0,0,1,2.21-2.28,2.27,2.27,0,0,1,1.53.59,2.5,2.5,0,0,1,.8,1.66,2.38,2.38,0,0,1-.74,1.69,2,2,0,0,1-1.51.63,2.91,2.91,0,0,1-1.63-.66A1.86,1.86,0,0,1,478.12,87.78Z"/><path class="cls-29" d="M350.49,101.27a2.23,2.23,0,0,1,3.77-1.73,2.41,2.41,0,0,1,.77,1.67,2.47,2.47,0,0,1-.77,1.67,2.13,2.13,0,0,1-1.52.61A2.25,2.25,0,0,1,350.49,101.27Z"/><path class="cls-1" d="M253.84,90.55V83.36a14.65,14.65,0,0,1,2.48,0,3.31,3.31,0,0,1,2.6,1.8,4,4,0,0,1,.36,2.81,3.25,3.25,0,0,1-2.18,2.31,4,4,0,0,1-1.46.25C255.05,90.51,254.46,90.55,253.84,90.55Z"/><path class="cls-33" d="M275,74.5c-.23-.69.2-1.26.49-1.8a2.07,2.07,0,0,1,2.93-.39,2.77,2.77,0,0,1,0,4.35,1.65,1.65,0,0,1-1.58.43c-.51-.18-1.18-.22-1.43-1C275.2,75.59,274.81,75.13,275,74.5Z"/><path class="cls-33" d="M211.38,74.4c-.19-.74.32-1.24.58-1.81s.89-.54,1.37-.7a1.75,1.75,0,0,1,1.38.37,2.72,2.72,0,0,1,.53,4,2,2,0,0,1-1.56.85,1.77,1.77,0,0,1-1.84-.89A2.33,2.33,0,0,1,211.38,74.4Z"/><path class="cls-33" d="M387.69,101.46c-.21-.66.3-1.17.55-1.75s.86-.58,1.35-.76a1.56,1.56,0,0,1,1.39.33,2.76,2.76,0,0,1,0,4.56,1.57,1.57,0,0,1-1.51.33c-.5-.23-1.1-.3-1.39-1A3.54,3.54,0,0,1,387.69,101.46Z"/><path class="cls-33" d="M410.72,88.05c-.21-.67.31-1.18.55-1.75s.86-.59,1.35-.76a1.56,1.56,0,0,1,1.39.33,2.75,2.75,0,0,1,0,4.55,1.55,1.55,0,0,1-1.51.34c-.5-.24-1.1-.31-1.39-1A3.5,3.5,0,0,1,410.72,88.05Z"/><path class="cls-33" d="M320.54,88.2a2.28,2.28,0,0,1,.47-1.82,2.13,2.13,0,0,1,2.92-.45A3.33,3.33,0,0,1,325,88a2.77,2.77,0,0,1-.55,1.79,2,2,0,0,1-1.61,1,1.78,1.78,0,0,1-1.8-.76C320.77,89.47,320.31,88.92,320.54,88.2Z"/><path class="cls-29" d="M234.63,74.39a3.74,3.74,0,0,1-.54,1.93,2,2,0,0,1-2.75.5c-.42-.36-1-.66-1-1.35,0-.54-.6-1.07,0-1.6-.19-.84.49-1.22,1-1.62a1.43,1.43,0,0,1,1.79-.19c.33.22.88.26,1,.63C234.31,73.28,234.73,73.83,234.63,74.39Z"/><path class="cls-29" d="M204.36,87.82a4,4,0,0,1-.49,2.15c-.2.58-.87.6-1.34.78a1.27,1.27,0,0,1-1.32-.21c-.44-.41-1.09-.69-1.12-1.41,0-.53-.63-1.06,0-1.6-.2-.84.47-1.22,1-1.62a1.3,1.3,0,0,1,1.77-.17C204.2,86,204.12,87.18,204.36,87.82Z"/><path class="cls-29" d="M280,101.5a3.55,3.55,0,0,1-.55,1.91c-.28.56-.92.65-1.46.78a1.51,1.51,0,0,1-1.39-.39,11.23,11.23,0,0,1-.84-.85c-.24-.27.12-.72-.26-1-.25-1.53,1-3.13,2.33-3a2.11,2.11,0,0,1,1.9,1.46C279.77,100.8,280.25,101.13,280,101.5Z"/><path class="cls-34" d="M517.64,88.36a2.27,2.27,0,0,1-.27,1.64c-.17.47-.81.51-1.23.74a1.59,1.59,0,0,1-1.12-.07c-.55-.19-1-.32-1-1,0-.1-.11-.16,0-.35a1.92,1.92,0,0,1,1.66-1.18C516.35,88.05,516.92,88.52,517.64,88.36Z"/><path class="cls-34" d="M302,74.5c.48-.21.92.35,1.48.25.22,0,.2.18.2.33A2,2,0,0,1,301,77c-.61-.17-.94-.37-1-1,0-.13-.07-.18,0-.34A1.81,1.81,0,0,1,302,74.5Z"/><path class="cls-34" d="M239.87,74.5c.51-.19,1,.36,1.52.25.21,0,.19.19.19.35a1.81,1.81,0,0,1-.53,1.43,2.41,2.41,0,0,1-2,.59c-.16-.38-.55-.18-.82-.32s-.1-.61-.34-.82,0-.21,0-.35A1.76,1.76,0,0,1,239.87,74.5Z"/><path class="cls-34" d="M200.25,74.71c.21.71-.18,1.19-.32,1.73-.74.37-1.41,1.11-2.36.47-.69.09-.85-.34-.91-.9,0-.11-.15-.15,0-.35a1.94,1.94,0,0,1,1.65-1.18C199,74.39,199.53,74.86,200.25,74.71Z"/><path class="cls-34" d="M248.48,74.74a2.27,2.27,0,0,1-.28,1.61c-.18.47-.81.5-1.23.74a1.54,1.54,0,0,1-1.12-.08c-.56-.18-1-.32-1-1,0-.11-.11-.17,0-.35a1.88,1.88,0,0,1,1.66-1.17C247.18,74.41,247.77,74.81,248.48,74.74Z"/><path class="cls-35" d="M376.63,87.67c-1.27,0-2.43,0-3.58,0-.48,0-.64-.22-.43-.64a3,3,0,0,1,1.12-1.28,1.7,1.7,0,0,1,2.42.74C376.32,86.85,376.45,87.22,376.63,87.67Z"/><path class="cls-35" d="M283.92,87.67c-1.42,0-2.65,0-3.89,0-.41,0-.36-.29-.29-.48a2.51,2.51,0,0,1,1.6-1.66c.94-.32,1.88.36,2.22,1.5,0,.14,0,.31.14.42S283.76,87.51,283.92,87.67Z"/><path class="cls-35" d="M236.22,87.67h-3.9c-.25,0-.36-.07-.34-.33a2.63,2.63,0,0,1,1.7-1.83,1.91,1.91,0,0,1,2,1.08C235.86,86.94,235.64,87.37,236.22,87.67Z"/><path class="cls-35" d="M362.72,101.09h-3.59c-.47,0-.63-.23-.42-.65a2.81,2.81,0,0,1,1.12-1.27,1.71,1.71,0,0,1,2.42.73C362.41,100.26,362.54,100.64,362.72,101.09Z"/><path class="cls-35" d="M239.68,101.05h-4.05a2.32,2.32,0,0,1,1.61-2.11,1.88,1.88,0,0,1,1.69.57C239.36,99.92,239.33,100.53,239.68,101.05Z"/><path class="cls-35" d="M339.34,101.09c-1.42,0-2.65,0-3.88,0-.4,0-.37-.27-.31-.47a2.52,2.52,0,0,1,1.6-1.67,1.84,1.84,0,0,1,2.22,1.49c0,.15,0,.32.14.42Z"/><path class="cls-35" d="M361.65,74h-3.89c-.41,0-.36-.28-.3-.47a2.56,2.56,0,0,1,1.61-1.67c.94-.32,1.88.37,2.21,1.5,0,.15,0,.32.15.42Z"/><path class="cls-35" d="M533.34,87.64h-4.06a2.29,2.29,0,0,1,1.59-2.11,1.9,1.9,0,0,1,1.69.55C533,86.49,533,87.12,533.34,87.64Z"/><path class="cls-35" d="M295.49,87.64h-4a2.33,2.33,0,0,1,1.61-2.12,1.88,1.88,0,0,1,1.68.57A4.08,4.08,0,0,1,295.49,87.64Z"/><path class="cls-35" d="M186.35,74h-4c-.41,0-.36-.29-.29-.48a2.53,2.53,0,0,1,1.6-1.66,1.82,1.82,0,0,1,2.21,1.51A.88.88,0,0,0,186.35,74Z"/><path class="cls-35" d="M223.52,74h-3.83a.4.4,0,0,1-.41-.6,2.83,2.83,0,0,1,1.61-1.54,1.82,1.82,0,0,1,2.2,1.51A1,1,0,0,0,223.52,74Z"/><path class="cls-35" d="M268.58,74H264.7c-.26,0-.36-.09-.33-.34a2.63,2.63,0,0,1,1.71-1.82A1.9,1.9,0,0,1,268,73C268.24,73.29,268.05,73.71,268.58,74Z"/><path class="cls-35" d="M180.84,101.09c-1.49,0-2.72,0-4,0-.41,0-.37-.27-.31-.47A2.51,2.51,0,0,1,178.17,99a1.83,1.83,0,0,1,2.22,1.49A.92.92,0,0,0,180.84,101.09Z"/><path class="cls-35" d="M289.6,60.57h-4.06a2.29,2.29,0,0,1,1.59-2.11,1.93,1.93,0,0,1,1.69.55C289.27,59.42,289.22,60.05,289.6,60.57Z"/><path class="cls-35" d="M297,60.6H293.4c-.47,0-.63-.22-.43-.64a2.58,2.58,0,0,1,1.63-1.5,1.84,1.84,0,0,1,2.14,1.46A2.73,2.73,0,0,0,297,60.6Z"/><path class="cls-35" d="M312.58,60.6H309c-.47,0-.63-.22-.42-.64a2.81,2.81,0,0,1,1.12-1.27,1.7,1.7,0,0,1,2.42.73C312.27,59.78,312.4,60.16,312.58,60.6Z"/><path class="cls-35" d="M452,87.67h-3.92c-.23,0-.24-.16-.22-.32a2.6,2.6,0,0,1,1.68-1.83,1.92,1.92,0,0,1,2,1.07C451.76,86.93,451.58,87.36,452,87.67Z"/><path class="cls-35" d="M429.65,87.67c-1.27,0-2.43,0-3.59,0-.47,0-.63-.22-.42-.64a2.89,2.89,0,0,1,1.12-1.28,1.71,1.71,0,0,1,2.42.74C429.34,86.85,429.47,87.22,429.65,87.67Z"/><path class="cls-35" d="M354.46,87.67h-3.88c-.25,0-.35-.09-.33-.35A2.63,2.63,0,0,1,352,85.52a1.86,1.86,0,0,1,1.94,1.09C354.12,86.94,353.93,87.37,354.46,87.67Z"/><path class="cls-1" d="M262.69,60.91c-.11-.69.38-1.21.66-1.82s.81-.37,1.2-.6.7,0,1.1.11c2,.61,2,3.39.81,4.61-.32.34-.76.28-1.12.47a1.33,1.33,0,0,1-1-.09A2.45,2.45,0,0,1,262.69,60.91Z"/><path class="cls-1" d="M336.34,74.56c.2.6-.23,1.16-.5,1.71-.4.8-1.57.92-2.51.66a2,2,0,0,1-1.45-1.54,3,3,0,0,1,.13-2.13,2.15,2.15,0,0,1,2.34-1.38,2.53,2.53,0,0,1,2,2.22Z"/><path class="cls-1" d="M217.11,88.35c.17.64-.36,1.13-.59,1.7s-.83.52-1.26.7a1.85,1.85,0,0,1-1.11-.11c-2-.61-2-3.39-.81-4.61.32-.34.76-.28,1.12-.48a1.28,1.28,0,0,1,1,.1A2.46,2.46,0,0,1,217.11,88.35Z"/><path class="cls-1" d="M209.19,101.61a2.4,2.4,0,0,1-.49,1.72,2,2,0,0,1-2.5.66c-.39-.16-.89-.25-1-.62s-.56-.8-.53-1.33a4,4,0,0,1,.25-1.8A2.31,2.31,0,0,1,207.41,99,2.46,2.46,0,0,1,209.19,101.61Z"/><path class="cls-1" d="M205.85,47.82c.19.55-.3,1.08-.53,1.66s-.78.58-1.23.75a1.89,1.89,0,0,1-1.21-.08c-2-.61-2-3.38-.82-4.6.32-.35.76-.28,1.12-.48a1.36,1.36,0,0,1,1,.09A2.5,2.5,0,0,1,205.85,47.82Z"/><path class="cls-8" d="M458.45,90.31q.26,0,.24.24Q458.43,90.55,458.45,90.31Z"/><path class="cls-8" d="M403.27,90.31q.25,0,.24.24A.21.21,0,0,1,403.27,90.31Z"/><path class="cls-8" d="M187.12,103.72q.25,0,.24.24Q187.12,104,187.12,103.72Z"/><path class="cls-8" d="M380.24,103.72q.25,0,.24.24Q380.24,104,380.24,103.72Z"/><path class="cls-8" d="M313.31,90.31q.26,0,.24.24Q313.29,90.55,313.31,90.31Z"/><path class="cls-36" d="M121.87,49.83c0-.64-.1-1.17.23-1.68s.54-.64,1.07-.26a2.6,2.6,0,0,0,.36.27,1.19,1.19,0,0,1,.5,1,1.31,1.31,0,0,1-1,.65Z"/></g></g></svg>