<svg xmlns="http://www.w3.org/2000/svg" viewBox="0 0 577.44 126"><defs><style>.cls-1{fill:#f6eae3;}.cls-2{fill:#fefefe;}.cls-3{fill:#f8efea;}.cls-4{fill:#f9f1ec;}.cls-5{fill:#fbf7f4;}.cls-6{fill:#fbf6f3;}.cls-7{fill:#fbf6f4;}.cls-8{fill:#122c70;}.cls-9{fill:#132c70;}.cls-10{fill:#132d70;}.cls-11{fill:#142d70;}.cls-12{fill:#162f71;}.cls-13{fill:#152e71;}.cls-14{fill:#183072;}.cls-15{fill:#162e71;}.cls-16{fill:#172f72;}.cls-17{fill:#142e71;}.cls-18{fill:#1b3374;}.cls-19{fill:#1b3273;}.cls-20{fill:#1f3575;}.cls-21{fill:#1c3374;}.cls-22{fill:#203675;}.cls-23{fill:#223777;}.cls-24{fill:#233877;}.cls-25{fill:#203575;}.cls-26{fill:#253a78;}.cls-27{fill:#7f7da0;}.cls-28{fill:#f69890;}.cls-29{fill:#050505;}.cls-30{fill:#fad2ca;}.cls-31{fill:#f7aaa1;}.cls-32{fill:#fbd6cf;}.cls-33{fill:#fcded8;}.cls-34{fill:#f7a69d;}.cls-35{fill:#f8aea5;}.cls-36{fill:#fad1c9;}.cls-37{fill:#efd0b3;}.cls-38{fill:#eaccb2;}.cls-39{fill:#f5e9e3;}.cls-40{fill:#f4e8e2;}.cls-41{fill:#f2e6e0;}.cls-42{fill:#efe3df;}.cls-43{fill:#f5eae3;}.cls-44{fill:#f5e9e2;}.cls-45{fill:#040303;}.cls-46{fill:#f6a59b;}.cls-47{fill:#fbdbd5;}.cls-48{fill:#f8b8af;}.cls-49{fill:#fce4df;}.cls-50{fill:#f6a99f;}.cls-51{fill:#203676;}</style></defs><g id="Layer_2" data-name="Layer 2"><g id="Layer_1-2" data-name="Layer 1"><path class="cls-1" d="M24,0H552.73c.53.25,1.09.06,1.64.12,4.67,0,8.69,1.79,12.41,4.4a26.21,26.21,0,0,1,9.63,12.92,16.61,16.61,0,0,1,.91,5.5v79.87c0,5.53-2.4,10.11-5.83,14.2a25.55,25.55,0,0,1-13.43,8.34,24.3,24.3,0,0,1-6.19.52H171.79c-48.66,0-97.31-.09-146,.06A26.09,26.09,0,0,1,1,107.51,19.67,19.67,0,0,1,.24,102q0-38.74,0-77.48A23.57,23.57,0,0,1,4.47,11a26.2,26.2,0,0,1,12.1-9.64A17.38,17.38,0,0,1,22.52.12C23,.06,23.52.25,24,0Z"/><path class="cls-2" d="M22.79.24a13.65,13.65,0,0,0-2.91.51c-.91.15-1.75.6-2.65.83a17.22,17.22,0,0,0-3,1.39A22.93,22.93,0,0,0,9.85,5.8,23,23,0,0,0,6.78,8.73a24.55,24.55,0,0,0-4.19,6.52C1.94,16.75,1.48,18.3,1,19.84c.12.71-.4,1.35-.24,2.06a10,10,0,0,0-.23,3.73q0,38.21,0,76.41a2.81,2.81,0,0,0,.2,1.6c.23.39-.17,1,.27,1.44a12.72,12.72,0,0,0,1,3.68,20.32,20.32,0,0,0,2.3,4.79,24.19,24.19,0,0,0,4.42,5.35A25.3,25.3,0,0,0,12.75,122c.91.5,1.82,1,2.76,1.45A15.93,15.93,0,0,0,20.59,125c.43.51,1.09.12,1.63.43s1.13-.08,1.64.08a12.46,12.46,0,0,0,3.75.2q261.77,0,523.53,0a6.16,6.16,0,0,0,2.44-.19c.69-.27,1.56.16,2.28-.28a12.72,12.72,0,0,0,3.85-.85,25.2,25.2,0,0,0,4.25-1.88,24.25,24.25,0,0,0,3.78-2.5c.8-.65,1.51-1.36,2.25-2.06a24.08,24.08,0,0,0,4.81-6.76,28.74,28.74,0,0,0,1.62-4,12.19,12.19,0,0,0,.52-2.54c.07-.65.43-1.26.26-1.94q.12-.17.24,0V126H0V0H22.79c.09.05.11.11.09.16S22.82.24,22.79.24Z"/><path class="cls-2" d="M577.2,22.76a1.72,1.72,0,0,0,0-.6,23.26,23.26,0,0,1-.56-2.76A30.57,30.57,0,0,0,574,13.05a25.42,25.42,0,0,0-5.77-6.94,20.84,20.84,0,0,0-3.6-2.54,34.34,34.34,0,0,0-3.39-1.67A20.47,20.47,0,0,0,557.57.73a10,10,0,0,0-3.16-.49c-.09,0-.11-.11-.09-.16s.06-.08.09-.08h23V22.76Q577.32,22.93,577.2,22.76Z"/><ellipse class="cls-3" cx="577.32" cy="62.88" rx="0.17" ry="54.78"/><path class="cls-4" d="M554.41,0V.24H553c-.16,0-.31,0-.29-.24Z"/><ellipse class="cls-5" cx="577.32" cy="23.48" rx="0.17" ry="1.02"/><ellipse class="cls-6" cx="577.32" cy="102.17" rx="0.17" ry="0.85"/><path class="cls-7" d="M22.79.24V0H24c0,.21-.12.24-.29.24Z"/><path class="cls-2" d="M84.08,10.06q26.57,0,53.13,0c.68,0,1.28.27,1.94.27a9.45,9.45,0,0,1,1.75.4,16.51,16.51,0,0,1,4.34,1.69A17.43,17.43,0,0,1,148,14.22c.5.36.93.81,1.42,1.19a10.8,10.8,0,0,1,1.68,1.94,16.26,16.26,0,0,1,2.15,3.53,19.2,19.2,0,0,1,1,3.16c.25,1,.34,2.1.53,3.14a19.24,19.24,0,0,1,.17,3.63q0,33.11,0,66.22c0,.79-.31,1.51-.28,2.3a12.57,12.57,0,0,1-.38,2.09,9.3,9.3,0,0,1-.61,2.16,15.4,15.4,0,0,1-1.13,2.53,16.83,16.83,0,0,1-1.57,2.32,27.88,27.88,0,0,1-3.66,3.54,18.83,18.83,0,0,1-5.63,2.9,18.45,18.45,0,0,1-3,.63,56,56,0,0,1-8.19.18q-49.53,0-99.06,0a3,3,0,0,1-1.51-.12c-.45-.24-1,.07-1.38-.14s-1,0-1.37-.45a16.66,16.66,0,0,1-5.62-2.38c-.17-.1-.3-.22-.46-.33a19.53,19.53,0,0,1-3.7-3.45,17.78,17.78,0,0,1-3.06-5.45c-.15-.49-.33-1-.47-1.48a21.71,21.71,0,0,1-.51-2.55,42.06,42.06,0,0,1-.2-6.73c-.05-2.28,0-4.55,0-6.83q0-28.74,0-57.48a3.78,3.78,0,0,1,.21-1.59c.2-.44-.21-1,.26-1.45-.19-.88.42-1.6.51-2.43a5.16,5.16,0,0,1,.61-1.54,15.73,15.73,0,0,1,2.95-4.66c.37-.37.63-.87,1-1.24a19.6,19.6,0,0,1,5.44-3.65A14.91,14.91,0,0,1,28,10.5a8.4,8.4,0,0,0,1.46-.23A4.16,4.16,0,0,1,31,10.06H84.08Z"/><path class="cls-8" d="M232.24,52.46c-1.2,0-2.4,0-3.6,0a1.25,1.25,0,0,1-1.19-.45c-.34-.6-.78-1.21-.35-2,.78-1.46,1.49-3,2.25-4.45.46-.89,1-1.73,1.41-2.65.29-.7,1-.67,1.43-1,.52.32,1.23.24,1.5,1A19.51,19.51,0,0,0,235,45.54c.61,1.18,1.35,2.3,1.86,3.54.16.37.31.76.47,1.12a1.28,1.28,0,0,1,0,1.08,3.17,3.17,0,0,1-1,1.15c-.11.1-.38,0-.58,0Z"/><path class="cls-8" d="M220.45,52.46c-1.2,0-2.41-.05-3.6,0a1.45,1.45,0,0,1-1.33-.82,1.35,1.35,0,0,1-.24-1.37,16.36,16.36,0,0,1,1.38-2.89c.73-1.14,1.21-2.39,1.89-3.54A3,3,0,0,0,219,43c.18-.84,1-.73,1.49-1,.48.32,1.1.32,1.43,1,1.14,2.29,2.38,4.53,3.56,6.79a1.62,1.62,0,0,1,.25,1.21,3,3,0,0,1-.54,1.2,1.42,1.42,0,0,1-1,.37C222.93,52.43,221.69,52.46,220.45,52.46Z"/><path class="cls-8" d="M240.86,31.84H239V24.72a4.45,4.45,0,0,1,1.22,0c.6,0,.6,0,.75.68,1.42-1,2.49-1.55,4.23,0,.2,0,.27-.15.37-.25a1.9,1.9,0,0,1,1.74-.7,3,3,0,0,1,1.46.26A2.64,2.64,0,0,1,250,27.07c.06,1.55,0,3.11,0,4.69-.32.2-.69.07-1,.09s-.71,0-1.13,0V29.09c0-.51,0-1,0-1.55a1.15,1.15,0,0,0-1.19-1.19,1.17,1.17,0,0,0-1.2,1.18c0,1,0,2.08,0,3.11v1.19h-2.16V27.56c0-.92-.42-1.28-1.3-1.22a.88.88,0,0,0-.83.7,4.58,4.58,0,0,0-.29,1.34C240.91,29.52,240.86,30.67,240.86,31.84Z"/><path class="cls-8" d="M340.42,30.66c-1.21.89-1.54.92-3.19.48a3.63,3.63,0,0,1-1.85-1.93,4.07,4.07,0,0,1,0-2.56c0-.21.18-.32.26-.49a3.2,3.2,0,0,1,1.44-1.47,3.54,3.54,0,0,1,2.27-.21,1.39,1.39,0,0,1,.85.54c.16.22.42.25.46-.13s.18-.22.34-.22h1.83c0,2.2,0,4.34,0,6.48A3.14,3.14,0,0,1,340,34a12.86,12.86,0,0,1-2.15,0,5.14,5.14,0,0,1-1.91-.56c-.23-.13-.43-.33-.14-.66s.22-.76.55-.9a1.44,1.44,0,0,1,1,.19,3.08,3.08,0,0,0,2.54,0c.45-.2.86-.39.83-1C340.78,30.88,341,30.59,340.42,30.66Z"/><path class="cls-8" d="M294.36,30.66c-1.21.89-1.54.92-3.19.48a3.63,3.63,0,0,1-1.85-1.93,4.14,4.14,0,0,1,0-2.56c.05-.21.19-.32.27-.49A3.2,3.2,0,0,1,291,24.69a3.54,3.54,0,0,1,2.27-.21,1.39,1.39,0,0,1,.85.54c.16.22.42.25.46-.13s.18-.22.33-.22h1.84c0,2.2,0,4.34,0,6.48A3.14,3.14,0,0,1,293.9,34a12.86,12.86,0,0,1-2.15,0,5.08,5.08,0,0,1-1.91-.56c-.23-.13-.43-.33-.14-.66s.21-.76.55-.9a1.44,1.44,0,0,1,1,.19,3.08,3.08,0,0,0,2.54,0c.45-.2.86-.39.83-1C294.72,30.88,294.9,30.59,294.36,30.66Z"/><path class="cls-8" d="M256.45,30.66c-1.2.89-1.54.92-3.19.48a3.65,3.65,0,0,1-1.84-1.93,4.07,4.07,0,0,1,0-2.56c0-.21.18-.32.26-.49a3.25,3.25,0,0,1,1.44-1.47,3.57,3.57,0,0,1,2.28-.21,1.39,1.39,0,0,1,.85.54c.15.22.41.25.46-.13s.17-.22.33-.22h1.83c0,2.2,0,4.34,0,6.48A3.13,3.13,0,0,1,256,34a12.85,12.85,0,0,1-2.15,0,5.18,5.18,0,0,1-1.92-.56c-.22-.13-.42-.33-.14-.66s.22-.76.56-.9a1.41,1.41,0,0,1,1,.19,3.1,3.1,0,0,0,2.55,0c.44-.2.85-.39.82-1C256.82,30.88,257,30.59,256.45,30.66Z"/><path class="cls-8" d="M198.44,24.67h1.22c.6,0,.6,0,.75.7a3.41,3.41,0,0,1,2.47-.95,3.52,3.52,0,0,1,2.25,1.27,3.11,3.11,0,0,1,.7,2.23,6.6,6.6,0,0,1-.21,2.06,3.09,3.09,0,0,1-4.31,1.8c-.28-.15-.52-.46-1-.38V34h-1.88Z"/><path class="cls-8" d="M182.66,31.86c-.69,0-1.17,0-1.64,0s-.73-.19-.94-.65-.14-.72-.37-1-.34-.49-.7-.48c-1,0-1.92,0-2.87,0a.74.74,0,0,0-.8.51c-.18.37-.24.77-.42,1.14a.76.76,0,0,1-.8.51h-1.61L174,28.55a12.25,12.25,0,0,0,.86-2c.17-.7.66-1.23.8-2s.61-1.08.72-1.72a.44.44,0,0,1,.44-.33h.36c.43,0,.9-.15,1.27.1a2.2,2.2,0,0,1,.72,1.25,20,20,0,0,0,1,2.34c.57,1.43,1.14,2.87,1.83,4.26A4.49,4.49,0,0,0,182.66,31.86Z"/><path class="cls-9" d="M193,32.1a3.78,3.78,0,0,1-3.9-3.85A3.86,3.86,0,0,1,193,24.41a4,4,0,0,1,4,3.87C197,30.07,195.1,32.3,193,32.1Z"/><path class="cls-9" d="M233.35,24.43a3.92,3.92,0,0,1,3.94,3.88,4.18,4.18,0,0,1-4,3.82,3.88,3.88,0,0,1-3.87-3.91A3.76,3.76,0,0,1,233.35,24.43Z"/><path class="cls-9" d="M328.36,29h-5c.09.73.6.95,1.13,1.21a1.19,1.19,0,0,0,1.39,0c.11-.08.27-.09.41-.17.55-.31.55-.29,1,.1a1,1,0,0,0,.47.3c.26,0,.23.27.07.44a3.71,3.71,0,0,1-2.6,1.25,3.81,3.81,0,0,1-3.44-1.79,3.28,3.28,0,0,1-.55-2.62,3.59,3.59,0,0,1,2.54-3.08,3.13,3.13,0,0,1,3.91,1.24A4.38,4.38,0,0,1,328.36,29Z"/><path class="cls-9" d="M355.53,29h-4.92c-.37.4.3.53.14.85a6.56,6.56,0,0,0,1.2.57c.78.19,1.36-.35,2.16-.72a2.54,2.54,0,0,1,.25.41c.13.32.65.22.67.53s-.36.6-.64.78a2.85,2.85,0,0,1-1.87.7,3.58,3.58,0,0,1-2.2-.48c-.83-.64-1.73-1.19-1.74-2.4-.62-.85-.13-1.74.06-2.53a4,4,0,0,1,3.19-2.3,3.33,3.33,0,0,1,2.91,1.33,3.94,3.94,0,0,1,.8,2.53A5.5,5.5,0,0,0,355.53,29Z"/><path class="cls-9" d="M218.29,29h-5a1.28,1.28,0,0,0,.84,1.19c.82.41,1.22.34,2.61-.45.35.16.48.59.88.69s.25.32.08.5a3.53,3.53,0,0,1-2.74,1.21c-1.56,0-2.46-.86-3.36-1.91-.37-.43,0-1-.47-1.37.09-.49-.21-1,.24-1.46,0-1.46,1.06-2.14,2.17-2.71A3.25,3.25,0,0,1,217.66,26,5.22,5.22,0,0,1,218.29,29Z"/><path class="cls-9" d="M267.49,29h-4.64c-.43,0-.48.08-.29.46a1.85,1.85,0,0,0,2.27.84,2.78,2.78,0,0,0,1.13-.63l.63.7c.12.13.43,0,.42.29s-.2.33-.33.46a3.62,3.62,0,0,1-2.34,1,3.76,3.76,0,0,1-3.45-1.77,3.36,3.36,0,0,1-.57-2.6,4.18,4.18,0,0,1,1.25-2.36,3.36,3.36,0,0,1,5.65,1.44,2.8,2.8,0,0,1,.27.73Z"/><path class="cls-10" d="M305.45,25.23a7.22,7.22,0,0,1,3.95-.54c.86,0,1.77,1.11,2,2,.47,1.71.09,3.42.25,5.18-.61,0-1.12,0-1.63,0-.25,0-.55.12-.58-.36,0-.23-.22,0-.3.1a1.35,1.35,0,0,1-1,.48c-.64-.06-1.28.16-1.95-.19a2.28,2.28,0,0,1-1-3.1,2.21,2.21,0,0,1,1.91-1.21,3.93,3.93,0,0,1,2.2.13c.09.05.12.1.18,0a1,1,0,0,0-.27-1.05,2.31,2.31,0,0,0-2.09-.16,3.28,3.28,0,0,1-.92.1c-.18,0-.3-.06-.29-.26C305.91,25.91,305.59,25.64,305.45,25.23Z"/><path class="cls-8" d="M283.08,31.86h-1.64a1.22,1.22,0,0,1-.25-.07V24.67h1.62c.2,0,.28.09.27.28s-.08.6.38.21a2.89,2.89,0,0,1,2.09-.74,2.27,2.27,0,0,1,2.09,2.17c0,1.71,0,3.42,0,5.24-.61.07-1.22,0-1.92,0,0-1.31,0-2.58,0-3.85a1.88,1.88,0,0,0-.52-1.34,1.09,1.09,0,0,0-1.86.4,3.8,3.8,0,0,0-.29,1.33C283.13,29.52,283.08,30.63,283.08,31.86Z"/><path class="cls-10" d="M303.69,25.48c.1.29-.15.38-.21.55-.13.35-.21.8-.55.94s-.58-.35-.83-.34-.55-.29-.86-.28-.55-.07-.76.22a.36.36,0,0,0,0,.5,1.23,1.23,0,0,0,.77.44,7.27,7.27,0,0,1,1.73.76,1.9,1.9,0,0,1,.24,3.23,3.41,3.41,0,0,1-1.78.63,5.27,5.27,0,0,1-2.81-.76c-.5-.25-.55-.56-.22-1,.09-.13.26-.23.27-.36a.36.36,0,0,1,.61-.25c.4.34.92.33,1.33.57a1.66,1.66,0,0,0,1,.09c.14,0,.32-.22.39-.39s-.12-.39-.27-.46A6.09,6.09,0,0,0,300.3,29a2.65,2.65,0,0,1-1.73-1.25,1.88,1.88,0,0,1,0-1.67,2.14,2.14,0,0,1,2-1.38,2.66,2.66,0,0,1,1.73.14A11.77,11.77,0,0,0,303.69,25.48Z"/><path class="cls-10" d="M184.24,22.79h2.15v1.87H188v1.63c-.47.17-1,0-1.64.12v2.81c0,.92.27,1.18,1.12.87.37-.14.47.08.51.18a1.26,1.26,0,0,1-1.32,1.82,3.43,3.43,0,0,1-1.27-.09,1.9,1.9,0,0,1-1.18-1.89c-.07-1.11,0-2.23,0-3.34,0-.18.07-.44-.25-.42s-.51-.05-.47-.44a7.53,7.53,0,0,0,0-.95c0-.19.06-.31.27-.28.36.05.48-.09.46-.46S184.24,23.28,184.24,22.79Z"/><path class="cls-9" d="M272.13,29.19c.57-.16.23-.81.64-1.05.16-1.11.73-2.1,1-3.19,0-.19.08-.28.28-.28.52,0,1,0,1.55,0s.36.23.33.46a6.18,6.18,0,0,1-.51,1.22c-.6,1.51-1.24,3-1.75,4.53-.08.24-.28.45-.36.69s-.05.3-.27.29c-.48,0-1,0-1.43,0-.28,0-.37-.29-.5-.56-.36-.77-.56-1.6-.92-2.37-.44-.93-.77-1.91-1.15-2.87-.17-.43-.33-.87-.52-1.38h1.07c1.1,0,1.12,0,1.46,1S271.75,28,272.13,29.19Z"/><path class="cls-10" d="M178,74.85c.38.42.85.54,1.17.91a1.89,1.89,0,0,1-.36,2.88,2.93,2.93,0,0,1-1.89.65h-4.07s-.06-.05-.08-.08a.21.21,0,0,1,0-.1V70.67c1.49,0,3,0,4.41,0a2.59,2.59,0,0,1,2.07,1.68A2.1,2.1,0,0,1,178,74.85Z"/><path class="cls-10" d="M223.57,28.22a6.12,6.12,0,0,1,3.59-5.8s.07-.09.09-.08a1,1,0,0,1,.65.69c.06.22.48.38.13.69s-.5.51-.77.75a4.9,4.9,0,0,0-.77,6.25,7.91,7.91,0,0,0,1.38,1.46c.28.26.38.45.06.77a5,5,0,0,0-.26.48c-.22.33-.43.3-.73.11a7,7,0,0,1-2.75-2.84A14,14,0,0,1,223.57,28.22Z"/><path class="cls-10" d="M356.44,32.41A4.23,4.23,0,0,0,358,31.23a4.56,4.56,0,0,0,1.18-2.86,5.2,5.2,0,0,0-.6-2.74A4.5,4.5,0,0,0,357,24c-.17-.1-.29-.25-.45-.35l.3-.34A2.09,2.09,0,0,0,357,23c.48-.78.53-.77,1.34-.22a7.27,7.27,0,0,1,2,1.91,3.46,3.46,0,0,1,.68,1.5c.09.91.73,1.84.09,2.77a5.15,5.15,0,0,1-1.91,3.75c-.23.24-.55.29-.75.51s-.6.3-.84.53c-.2-.28-.57-.4-.62-.83C356.92,32.77,356.67,32.64,356.44,32.41Z"/><path class="cls-11" d="M177.26,48.73l2.48,3.35c-.34.23-.62.09-.89.14a.45.45,0,0,1-.49-.25c-.58-1-1.41-1.8-2-2.77-.15-.25-.23-.34-.47-.33h-2.18v3.22c-.33.27-.64,0-1,.17V43.6c1.48,0,2.95,0,4.42,0a2.6,2.6,0,0,1,2.28,2.46A2.4,2.4,0,0,1,177.26,48.73Z"/><path class="cls-12" d="M264.75,100.74c.16-.86.16-.86,1.3-.78,0,1.66.09,3.33,0,5a2.92,2.92,0,0,1-2.08,2.92c-.06,0-.11.15-.17.15a6.61,6.61,0,0,1-3.71-.56c-.41-.25,0-.43,0-.64s.22-.27.41-.16.55.44.91.41.92.37,1.46.26a2.91,2.91,0,0,0,1.71-.78c.2-.22.38-.43.29-.72-.14-.48.44-.83.15-1.41a6.87,6.87,0,0,1-.54.54,3,3,0,0,1-4.9-2.13,2.67,2.67,0,0,1,.75-2.2,2.61,2.61,0,0,1,1.79-1,2.49,2.49,0,0,1,2.13.67C264.34,100.45,264.64,100.36,264.75,100.74Z"/><path class="cls-12" d="M355.77,99.89c0,1.66.06,3.22,0,4.77a3.28,3.28,0,0,1-.89,2.49,3.23,3.23,0,0,1-2.15.9,6.21,6.21,0,0,1-2.79-.5c-.32-.15-.36-.46-.15-.8.1-.17.28-.22.38-.12.43.44,1,.39,1.56.57a2.42,2.42,0,0,0,2.44-.53,1,1,0,0,0,.42-1c-.11-.43.53-.74.14-1.19-.37.25-.67.58-1.06.83a3.26,3.26,0,0,1-2.13.33,2.68,2.68,0,0,1-1.52-.9,2.3,2.3,0,0,1-.71-1.6,3,3,0,0,1,.71-2.46,4.1,4.1,0,0,1,1.88-1,3.52,3.52,0,0,1,2.41.83c.16.09.3.2.27-.06-.05-.45.11-.58.53-.52A4.85,4.85,0,0,0,355.77,99.89Z"/><path class="cls-12" d="M250.41,60.09c.1-.67.1-.67.65-.68h.49c.21.28.09.61.1.91,0,1.31.07,2.63,0,3.94a3.07,3.07,0,0,1-3,3.31,5.78,5.78,0,0,1-2.79-.5c-.37-.19-.4-.37-.19-.77.13-.25.25-.21.46-.11a6.66,6.66,0,0,0,2.24.64,2.38,2.38,0,0,0,1.91-.88c.05-.06.17-.12.16-.17-.09-.61.29-1.17.27-1.83-2,1.75-3.35,1.49-4.8.32a2.2,2.2,0,0,1-.71-1.48,3.14,3.14,0,0,1,.73-2.68,11.93,11.93,0,0,1,1-.71c.37-.31.8-.2,1.22-.24a1.94,1.94,0,0,1,1.21.25A4.33,4.33,0,0,0,250.41,60.09Z"/><path class="cls-12" d="M482.39,91c-1.58,1.61-3.15,1.71-4.71.42a3.09,3.09,0,0,1,2-5.18,4.28,4.28,0,0,1,2.46,1c.15-.7.15-.7,1.29-.65,0,1.7,0,3.4,0,5.11a3.56,3.56,0,0,1-.52,1.68,2.32,2.32,0,0,1-1.55,1.12c-.06,0-.11.16-.17.16a6.14,6.14,0,0,1-3.7-.54c-.2-.12-.26-.23-.08-.52s.16-.46.53-.23a8,8,0,0,0,2.14.6,2.35,2.35,0,0,0,1.93-.84c.09-.11.29-.18.24-.38C482,92.13,482.54,91.67,482.39,91Z"/><path class="cls-12" d="M346.6,63.93c-1.63,1.6-3.15,1.66-4.7.39a3.09,3.09,0,0,1,2-5.18c1-.09,1.68.55,2.46,1,.18-.16,0-.44.11-.55.32-.3.73-.09,1.19-.15,0,1.75,0,3.45,0,5.15a3.58,3.58,0,0,1-.5,1.69,2.35,2.35,0,0,1-1.55,1.12c-.1,0-.19.18-.28.18a6.9,6.9,0,0,1-3.51-.47c-.31-.16-.34-.37-.16-.71s.28-.34.41-.2c.45.5,1.12.48,1.66.61a2.4,2.4,0,0,0,2.6-.85c0-.07.16-.14.15-.17C346.2,65.13,346.83,64.59,346.6,63.93Z"/><path class="cls-13" d="M188.32,92.69a2,2,0,0,1-.93-.06V86.57c.87-.09.87-.09,1,.63.21-.18.38-.42.59-.46s.37-.28.57-.39a2.55,2.55,0,0,1,2.18.29c.27.23.51.5.83.82l.61-.66a2.16,2.16,0,0,1,1.56-.59c.68,0,1.12.41,1.7.56,0,.5.59.63.56,1.21-.07,1.55,0,3.1,0,4.63-.3.16-.58.07-1,.09v-4a2,2,0,0,0-.22-1,1.41,1.41,0,0,0-1.31-.73,1.22,1.22,0,0,0-1.34.67,4.27,4.27,0,0,0-.5,1.83c0,1,0,2.07,0,3.11,0,0,0,.08-.08.09l-.88.06c0-1.44,0-2.82,0-4.21A1.52,1.52,0,0,0,189.76,87a1.24,1.24,0,0,0-1,.8c-.36,1-.45,1-.45,1.72Z"/><path class="cls-13" d="M220.47,92.68a1.89,1.89,0,0,1-.93-.05V86.57c.87-.09.87-.09,1,.58.33,0,.55-.32.69-.47a2.12,2.12,0,0,1,1.75-.44c.6,0,1,.43,1.34.81l.4.41.61-.66a2.15,2.15,0,0,1,1.44-.59c.72-.08,1.22.38,1.82.56,0,.5.61.62.57,1.21-.08,1.54,0,3.1,0,4.62-.29.2-.58,0-.95.18V90.47c0-.67,0-1.35,0-2A1.58,1.58,0,0,0,227,87a1.59,1.59,0,0,0-1.77.89,3.47,3.47,0,0,0-.44,1.62c0,1.06,0,2.13,0,3.22h-1c0-1.39,0-2.78,0-4.16a1.4,1.4,0,0,0-1-1.48,1.47,1.47,0,0,0-1.88.74,2.64,2.64,0,0,0-.48,1.72Z"/><path class="cls-10" d="M252.85,92.7c0-2.84,0-5.59,0-8.34a1.8,1.8,0,0,1,.06-.28c1.26,0,2.53,0,3.79,0a4.69,4.69,0,0,1,3.1,2,6.82,6.82,0,0,1,.48,3.51,6.08,6.08,0,0,1-1.33,2,5.2,5.2,0,0,1-1.75,1,2.55,2.55,0,0,1-.66.12Z"/><path class="cls-14" d="M279,78.56a3.69,3.69,0,0,1-2.09,1,3,3,0,0,1-2.34-1,3.62,3.62,0,0,1-.07-4.62c1.17-1.31,2.8-1.63,4.48-.08a7.78,7.78,0,0,0,.06-1.66c0-.55,0-1.1,0-1.7h1.11s.09.08.09.14v8.13c0,.19.09.5-.12.53s-.73.15-1-.08C279,79.11,279,78.83,279,78.56Z"/><path class="cls-14" d="M215.67,70.45h1.16v8.76c-.19.19-.49,0-.75.08-.56.09-.37-.35-.45-.73-.34.16-.57.45-.88.6a2.8,2.8,0,0,1-3.95-1.25,3.65,3.65,0,0,1,.13-3.79,2.87,2.87,0,0,1,4.31-.63c.11.07.14.26.2.37.17-.15.23-.18.23-.2Z"/><path class="cls-14" d="M392.92,106.12h-.5c-.6,0-.6,0-.75-.69a3.65,3.65,0,0,1-2.11.94,3,3,0,0,1-2.32-1.06,3.61,3.61,0,0,1,0-4.61,2.82,2.82,0,0,1,4.08-.39c.11.08.16.24.38.27V97.35a2.91,2.91,0,0,1,1.21-.08Z"/><path class="cls-14" d="M324.82,87.07V83.93c.36-.2.75,0,1.17-.12v8.82c-.11.15-.33.07-.51.07-.59,0-.59,0-.75-.69a3.69,3.69,0,0,1-2,.94,2.9,2.9,0,0,1-2.51-1.14,3.61,3.61,0,0,1,.09-4.53,2.81,2.81,0,0,1,4.08-.38c.11.07.14.26.21.39Z"/><path class="cls-14" d="M414.75,87.27V83.92a3.23,3.23,0,0,1,1.2-.07v8.77c-.2.2-.49,0-.75.08-.57.1-.36-.35-.45-.72a7.93,7.93,0,0,0-.88.6,3,3,0,0,1-4-1.25,3.78,3.78,0,0,1,.15-3.79,2.87,2.87,0,0,1,4.32-.64C414.48,87,414.57,87.1,414.75,87.27Z"/><path class="cls-15" d="M319.75,31.84h-2.08V22.09c.64-.14,1.34,0,2.08-.08Z"/><path class="cls-15" d="M313.59,22.06h2.08v9.78c-.65.05-1.34,0-2.08,0Z"/><path class="cls-12" d="M229.1,70.45h1V74c.47-.19.58-.75,1.08-.73a2.74,2.74,0,0,1,3.83.76,3.66,3.66,0,0,1-.5,4.78,3.24,3.24,0,0,1-3.2.47c-.47-.23-.68-.71-1.13-.94-.18.27,0,.55-.13.85a1.26,1.26,0,0,1-.84,0s-.07-.08-.07-.11C229.1,76.28,229.1,73.41,229.1,70.45Z"/><path class="cls-12" d="M198.88,86.5h.87c.22.29-.05.64.18.91.38-.18.5-.71,1-.71a2.72,2.72,0,0,1,3.75.68,3.62,3.62,0,0,1-.1,4.52,2.81,2.81,0,0,1-4.24.22,6.29,6.29,0,0,1-.47-.46v2.81c-.31.31-.63,0-.88.16-.07-.09-.11-.12-.11-.15Z"/><path class="cls-12" d="M275.45,105.2v2.7a1.31,1.31,0,0,1-1,.1v-8c.24-.18.55-.07.84-.06.18.28,0,.62.13.94a10.55,10.55,0,0,1,1.12-.84,2.82,2.82,0,0,1,3.95,1.24,3.69,3.69,0,0,1-.44,4.14,2.82,2.82,0,0,1-4.16.14,1.78,1.78,0,0,1-.3-.48Z"/><path class="cls-13" d="M175.32,92.94a4.59,4.59,0,0,1-3-1,.25.25,0,0,1-.05-.4c.1-.12.24-.21.33-.34s.27-.16.43,0,.76.38,1,.74c.53-.17.95.22,1.45.27a3.46,3.46,0,0,0,1.34-.3c.68-.18.87-1.4.46-2a2.23,2.23,0,0,0-1.46-.82c-.44-.09-.89-.21-1.33-.31a2.33,2.33,0,0,1-1.82-3.27,2.7,2.7,0,0,1,2.4-1.49,4.87,4.87,0,0,1,2.68.48c.57.32.58.44.11.94-.19.2-.26.23-.52,0a3.31,3.31,0,0,0-2.21-.73,2.2,2.2,0,0,0-1.7,1.08c-.31.39.22,1.38.78,1.55.82.25,1.65.45,2.45.73s1.63.72,1.78,1.75c.61.49,0,1-.06,1.47a1.51,1.51,0,0,1-.91,1.1,3.16,3.16,0,0,1-1.72.47A3.3,3.3,0,0,0,175.32,92.94Z"/><path class="cls-13" d="M289.2,77.61a4.16,4.16,0,0,0,2.6,1.21,2.72,2.72,0,0,0,1.33-.27,1.31,1.31,0,0,0,.53-2,2.13,2.13,0,0,0-1.47-.79c-.45-.07-.87-.25-1.33-.31a2.59,2.59,0,0,1-2-2.8,2.94,2.94,0,0,1,2.06-1.94,5.1,5.1,0,0,1,3.16.45c.67.4.7.41.18,1l-.24.22a3.46,3.46,0,0,0-2.62-.93,2.21,2.21,0,0,0-1.56,1.09c-.29.41.27,1.37.82,1.54l2.46.72c.88.27,1.27.93,1.79,1.75.37.61,0,1-.09,1.39a1.72,1.72,0,0,1-.84,1.17,4.8,4.8,0,0,1-4.77-.25c-.09-.08-.17-.21-.27-.22-.47-.07-.42-.26-.16-.53Z"/><path class="cls-9" d="M211.86,57.73v3.11h4.45c.27,0,.33.11.33.35s0,.38-.31.38h-4.46v3.36h2.2c.88,0,1.76,0,2.64,0,.31,0,.42.08.41.4s-.1.33-.35.33h-5.9V57h6c.24,0,.24.15.24.31s.06.41-.26.41h-5Z"/><path class="cls-9" d="M172.77,57h5.79c.18,0,.41-.06.41.26s.06.48-.33.47c-.68,0-1.36,0-2,0h-2.88v3.11h4.4c.22,0,.37,0,.37.3s0,.44-.37.43c-1,0-1.92,0-2.88,0h-1.5v3.36c1.63,0,3.26,0,4.9,0,.39,0,.32.24.33.47s-.23.25-.41.25c-1.92,0-3.83,0-5.79,0Z"/><path class="cls-9" d="M331.78,31.84H329.9V24.7c.57-.06,1.19,0,1.77,0,.24.32,0,.67.29,1,.18-.22.35-.43.51-.65a1.44,1.44,0,0,1,1.67-.57v1.83c-.43-.11-.82.19-1.24.31a1.34,1.34,0,0,0-.85,1.26c0,.43-.34.68-.28,1.1a7.87,7.87,0,0,1,0,1.19Z"/><path class="cls-16" d="M518.23,92.68c-1,0-1,0-1.05-.71-.22.18-.39.45-.58.47s-.4.2-.61.28a2.52,2.52,0,0,1-3.13-.67c-.25-.32-.56-.7-.41-1.12s.11-1,.56-1.32a2.74,2.74,0,0,1,1.84-.73c.69.06,1.4-.2,2.06.22.21.12.34-.09.32-.34a1.85,1.85,0,0,0-2.6-1.68c-.36.14-.78-.09-1.1.28-.07.09-.37-.18-.38-.42s-.1-.37.2-.47a9.51,9.51,0,0,1,3-.23c.65.49,1.39.81,1.62,1.8C518.35,89.57,518,91.09,518.23,92.68Z"/><path class="cls-16" d="M249.56,79.25c-1,0-1,0-1.12-.66a3.44,3.44,0,0,1-2.7,1,2.75,2.75,0,0,1-2-1.64c-.13-.5.22-.88.29-1.33s.44-.58.85-.71.62-.45,1-.4c.73.08,1.49-.21,2.2.17a.38.38,0,0,0,.32.05c.17-.08.14-.28.11-.42a1.83,1.83,0,0,0-2.66-1.55c-.33.11-.68-.06-1,.21s-.37-.16-.4-.37-.11-.4.16-.49a5.51,5.51,0,0,1,3-.18,2.23,2.23,0,0,1,1.66,1.72C249.67,76.13,249.33,77.65,249.56,79.25Z"/><path class="cls-16" d="M242.36,79.25c-1,0-1,0-1.11-.66a3.45,3.45,0,0,1-2.7,1,2.75,2.75,0,0,1-2-1.65c-.14-.49.21-.87.28-1.32s.45-.58.85-.71.57-.42.91-.39c.77.06,1.58-.23,2.32.16a.39.39,0,0,0,.32.05c.18-.08.14-.28.11-.42a1.83,1.83,0,0,0-2.66-1.55c-.33.11-.68-.06-1,.21-.16.15-.37-.16-.4-.37s-.11-.4.17-.49a5.47,5.47,0,0,1,3-.18,2.23,2.23,0,0,1,1.66,1.72C242.48,76.13,242.13,77.65,242.36,79.25Z"/><path class="cls-16" d="M201.28,79.24c-.91,0-.91,0-1.05-.67a3.36,3.36,0,0,1-2.69,1,2.79,2.79,0,0,1-2-1.63c-.15-.5.22-.88.29-1.33s.48-.52.83-.72a2.58,2.58,0,0,1,1.63-.4c.56.07,1.16-.2,1.7.22.17.12.38,0,.36-.29a1.89,1.89,0,0,0-2.57-1.76c-.31.11-.68,0-.87.17-.43.36-.55,0-.63-.23s0-.41.37-.55a7.5,7.5,0,0,1,2.66-.18,1.68,1.68,0,0,1,1.15.69c.26.32.74.51.61,1.06-.08.33.26.51.25.86C201.25,76.71,201.28,78,201.28,79.24Z"/><path class="cls-16" d="M271.13,92.6a1.46,1.46,0,0,1-1.94-.76,23.52,23.52,0,0,1-1.51-2l-.3.27a4.6,4.6,0,0,0-1.05,1.12,3.77,3.77,0,0,0,0,1.43,1.41,1.41,0,0,1-.93,0V83.91a1.59,1.59,0,0,1,.92,0v5.88c.17-.12,0,.06.13,0s0,0,.08-.07L268,88.22c.36-.36.76-.71,1.09-1.1a1.5,1.5,0,0,1,1.64-.62c-.09.13.08-.07.09.09s0,.06-.07.08l-1.86,1.86c-.57.57-.59.71-.06,1.32.27.32.5.68.77,1A8.65,8.65,0,0,0,271.13,92.6Z"/><path class="cls-16" d="M437.58,90c1-1,2-1.93,2.87-2.89a1.45,1.45,0,0,1,1.71-.49c-.74.74-1.46,1.47-2.19,2.18-.23.22-.2.36-.08.68a5.72,5.72,0,0,0,.92,1.28,6.58,6.58,0,0,0,1.62,1.89,1.56,1.56,0,0,1-2-.82c-.48-.68-1-1.31-1.53-2l-.14.13c-.39.4-.92.73-1.14,1.2a4.12,4.12,0,0,0,0,1.54h-.94V83.86h.92Z"/><path class="cls-16" d="M192.85,103.23c-1,.77-1.76,1.52-1.35,2.76a1.43,1.43,0,0,1-1,.08V97.33a1.51,1.51,0,0,1,.92,0v5.87c.17-.12,0,0,.12,0s.06,0,.09-.06l1.35-1.36c.43-.42.88-.82,1.27-1.27a1.52,1.52,0,0,1,1.64-.62c-.09.13.08-.08.08.08s0,.06-.06.08L194,102c-.45.45-.48.64-.07,1.15.28.36.58.71.86,1.07a7.83,7.83,0,0,0,1.5,1.76,1.44,1.44,0,0,1-1.93-.75A19.2,19.2,0,0,1,192.85,103.23Z"/><path class="cls-16" d="M243.09,106.11h-.9a69.62,69.62,0,0,1-.09-8.78c.25-.15.53,0,.92-.09v6.12c1-1,1.93-1.93,2.84-2.84.64-.63.64-.63,1.79-.58-.81.8-1.54,1.54-2.29,2.27-.2.2-.15.33-.06.59a5.81,5.81,0,0,0,1,1.38,5.73,5.73,0,0,0,1.52,1.78c-1,.26-1.37.17-1.91-.72a24.81,24.81,0,0,1-1.52-2.11,2.9,2.9,0,0,1-.3.36A2.25,2.25,0,0,0,243.09,106.11Z"/><path class="cls-16" d="M274.64,89.76l-.38.37c-.34.34-.81.63-1,1a4,4,0,0,0,0,1.43,1.34,1.34,0,0,1-.93.06V83.92c.26-.23.57,0,.95-.14v6.15c1-1,2-1.92,2.86-2.89a1.54,1.54,0,0,1,1.74-.48l-2.52,2.52A25.55,25.55,0,0,0,278,92.61a1.4,1.4,0,0,1-1.87-.76C275.71,91.11,275,90.62,274.64,89.76Z"/><path class="cls-17" d="M223.46,77.84l.57.57a.83.83,0,0,1-.09.16,3.36,3.36,0,0,1-4.89-.11,3.41,3.41,0,0,1-.77-2.32,3.54,3.54,0,0,1,1.06-2.56,2.67,2.67,0,0,1,2.85-.62,2.42,2.42,0,0,1,1.54,1.14,2.9,2.9,0,0,1,.52,2.31h-4.5c-.44,0-.62.18-.47.54.24.55.37,1.22,1,1.49a2.24,2.24,0,0,0,1.52.35A3.22,3.22,0,0,0,223.46,77.84Z"/><path class="cls-17" d="M355.23,89.83h-4.57c-.36,0-.48.17-.41.5A2.37,2.37,0,0,0,352,92.19a2.72,2.72,0,0,0,2-.52c.52-.27.5-.31.93.11l.07.08a3.2,3.2,0,0,1-3.36,1A3,3,0,0,1,349.3,90a3.71,3.71,0,0,1,.45-2.21c1.08-1.76,2.25-1.82,3.92-1.24A2.37,2.37,0,0,1,355,88.16,2.7,2.7,0,0,1,355.23,89.83Z"/><path class="cls-17" d="M296.46,89.83H292c-.43,0-.62.2-.46.55.24.55.38,1.22,1,1.49a2.17,2.17,0,0,0,1.52.34,3.32,3.32,0,0,0,1.71-1l.46.74s0,0-.1.11a3.35,3.35,0,0,1-4.8-.21,3.41,3.41,0,0,1-.77-2.2,3.65,3.65,0,0,1,1.15-2.77,2.53,2.53,0,0,1,2.68-.56C295.79,86.73,296.56,88,296.46,89.83Z"/><path class="cls-17" d="M284.46,89.83H279.9c-.37,0-.49.16-.42.49a2.35,2.35,0,0,0,1.76,1.86,2.69,2.69,0,0,0,2.11-.59c.13-.07.21-.22.32-.34l.61.61a3.49,3.49,0,0,1-3.37,1.07,3.17,3.17,0,0,1-2.38-2.84,3.89,3.89,0,0,1,.38-2.23c1.12-1.82,2.18-2,4-1.34a2.33,2.33,0,0,1,1.37,1.63A2.67,2.67,0,0,1,284.46,89.83Z"/><path class="cls-17" d="M235.94,91.26l.56.56c0,.05,0,.12-.08.16a3.36,3.36,0,0,1-4.89-.1,3.41,3.41,0,0,1-.77-2.32,3.6,3.6,0,0,1,1.13-2.65,2.47,2.47,0,0,1,2.77-.51c.31.1.66.06.91.4s.8.68.9,1.18.52,1.14.24,1.85h-4.48c-.49,0-.59.16-.44.64a2.21,2.21,0,0,0,2.45,1.74A3.2,3.2,0,0,0,235.94,91.26Z"/><path class="cls-17" d="M313.45,62.76h-4.51c-.37,0-.58.26-.42.59.31.63.52,1.27,1.32,1.6,1.2.48,2-.07,2.9-.73l.54.58c-.89,1.13-2.16,1.15-3.45,1.07-.54-.4-1.29-.55-1.65-1.18a3.83,3.83,0,0,1-.66-1.89,3.87,3.87,0,0,1,1.09-2.91,2.55,2.55,0,0,1,2.76-.59,1.58,1.58,0,0,1,1,.47c.3.39.8.7.89,1.18S313.79,62.09,313.45,62.76Z"/><path class="cls-17" d="M297.64,62.76h-4.53c-.38,0-.58.26-.42.59.31.63.52,1.27,1.32,1.6,1.2.48,2-.07,2.89-.73l.55.58c-.9,1.13-2.16,1.15-3.45,1.07-.55-.4-1.3-.55-1.65-1.18a3.78,3.78,0,0,1,.42-4.8,2.77,2.77,0,0,1,2.78-.62,2.35,2.35,0,0,1,1.62,1.21A2.78,2.78,0,0,1,297.64,62.76Z"/><path class="cls-17" d="M377.33,89.85h-4.95c.07,1.64.79,2.24,2.3,2.37a2.05,2.05,0,0,0,1.5-.66c.37-.34.49-.18.7.06l.23.24a3.32,3.32,0,0,1-3.38,1,2.52,2.52,0,0,1-1.68-1.09,3,3,0,0,1-.7-1.86,4.4,4.4,0,0,1,.47-2.2C372.93,86,374,86,375.77,86.48a5.92,5.92,0,0,1,1.14,1.29A3.6,3.6,0,0,1,377.33,89.85Z"/><path class="cls-17" d="M290.44,62.76h-4.52c-.38,0-.54.23-.44.59s.62,1.34,1,1.47,1,.49,1.54.33a3.27,3.27,0,0,0,1.65-1l.57.62a3.28,3.28,0,0,1-2.85,1.08,3,3,0,0,1-2.08-1,3.32,3.32,0,0,1-.82-2.41,3.52,3.52,0,0,1,1.08-2.55,2.7,2.7,0,0,1,2.77-.63,2.36,2.36,0,0,1,1.62,1.2A2.77,2.77,0,0,1,290.44,62.76Z"/><path class="cls-17" d="M430.31,89.83h-4.53c-.38,0-.54.23-.44.59.15.51.62,1.34,1,1.47a2.67,2.67,0,0,0,1.41.33,3.23,3.23,0,0,0,1.78-1l.56.62A3.24,3.24,0,0,1,427.26,93a2.92,2.92,0,0,1-2.08-1,3.42,3.42,0,0,1-.82-2.41A3.53,3.53,0,0,1,425.44,87a2.73,2.73,0,0,1,2.77-.62,2.34,2.34,0,0,1,1.62,1.2A2.8,2.8,0,0,1,430.31,89.83Z"/><path class="cls-17" d="M305.58,76.41c-1.59,0-3.1,0-4.62,0-.35,0-.42.16-.36.42a2.23,2.23,0,0,0,2.49,2,4.7,4.7,0,0,0,1.71-.94l.29.28.25.26c.05,0,0,.09-.06.17a3.38,3.38,0,0,1-4.9-.1,3.51,3.51,0,0,1-.77-2.32,3.57,3.57,0,0,1,1.13-2.65,2.68,2.68,0,0,1,2.77-.55,2.38,2.38,0,0,1,1.54,1.14A3,3,0,0,1,305.58,76.41Z"/><path class="cls-17" d="M452.44,91.85A3.31,3.31,0,0,1,449,92.9a2.72,2.72,0,0,1-1.77-1.19,3.73,3.73,0,0,1,1.07-5.23,3.19,3.19,0,0,1,3.22.41,3.58,3.58,0,0,1,1.13,2.94h-4.55c-.49,0-.59.17-.45.64a2.44,2.44,0,0,0,1.66,1.68c.81.28,1.39-.17,2-.43S452,91.39,452.44,91.85Z"/><path class="cls-17" d="M533.71,89.83h-4.54c-.38,0-.58.25-.42.59.31.62.49,1.34,1.32,1.58,1.34.37,1.66.32,2.87-.74l.57.61c-.89,1.13-2.16,1.14-3.45,1.07-.55-.4-1.29-.55-1.65-1.18a3.77,3.77,0,0,1,.43-4.8,2.75,2.75,0,0,1,2.77-.62,2.36,2.36,0,0,1,1.62,1.2A2.84,2.84,0,0,1,533.71,89.83Z"/><path class="cls-17" d="M268.55,77.83l.61.61a3.43,3.43,0,0,1-3.35,1.07,3.2,3.2,0,0,1-2.4-2.82,3.8,3.8,0,0,1,.47-2.44,3.15,3.15,0,0,1,1.62-1.39,3,3,0,0,1,2.37.27,3.45,3.45,0,0,1,1.53,3.24,11.05,11.05,0,0,1-1.73,0c-1,0-2,0-3,0-.28,0-.34.13-.31.36a2.19,2.19,0,0,0,3.17,1.79C267.9,78.37,268.35,78.26,268.55,77.83Z"/><path class="cls-17" d="M181.53,103.26h-4.89a2.16,2.16,0,0,0,3.13,2.14,1.89,1.89,0,0,1,.49-.27c.19,0,.41-.44.5-.41a2.39,2.39,0,0,1,.61.54,3.19,3.19,0,0,1-3.38,1,3,3,0,0,1-2.38-2.93,3.72,3.72,0,0,1,.45-2.21c1.09-1.76,2.25-1.81,3.93-1.24a2.31,2.31,0,0,1,1.34,1.53A2.62,2.62,0,0,1,181.53,103.26Z"/><path class="cls-17" d="M240.62,103.27h-5c.06,1.64.79,2.24,2.3,2.37a2,2,0,0,0,1.5-.67c.37-.35.49-.17.7.07l.22.24a3.42,3.42,0,0,1-3.38,1.06,3.19,3.19,0,0,1-2.36-3,3.84,3.84,0,0,1,.46-2.2c1.11-1.76,2.21-1.72,3.95-1.27a3.81,3.81,0,0,1,1.59,2.67C240.64,102.75,240.62,103,240.62,103.27Z"/><path class="cls-17" d="M186.28,77.85l.58.58a2.11,2.11,0,0,1-.19.23,3.37,3.37,0,0,1-4.81-.2,3.4,3.4,0,0,1-.76-2.32,3.66,3.66,0,0,1,1.05-2.57A2.8,2.8,0,0,1,185,73a2.33,2.33,0,0,1,1.54,1.14,2.91,2.91,0,0,1,.52,2.31h-4.51c-.44,0-.62.19-.47.54.24.55.38,1.22,1,1.49a2.23,2.23,0,0,0,1.52.35A3.27,3.27,0,0,0,186.28,77.85Z"/><path class="cls-17" d="M339.87,103.24c-1.58,0-3.09,0-4.6,0-.37,0-.42.18-.36.43a2.14,2.14,0,0,0,2.49,1.94,2.49,2.49,0,0,0,1.7-.93l.5.69c0-.07,0,0,0,0a3.27,3.27,0,0,1-5.66-2.42,3.54,3.54,0,0,1,1.13-2.65,2.46,2.46,0,0,1,2.76-.52c.32.1.67.07.92.41s.79.67.9,1.18S340.14,102.53,339.87,103.24Z"/><path class="cls-17" d="M363.41,103.24h-4.57c-.37,0-.58.26-.42.59.31.62.52,1.27,1.32,1.59,1.21.49,2-.07,2.89-.73l.56.57a3.4,3.4,0,0,1-3.34,1.07,3.2,3.2,0,0,1-2.4-2.82,3.8,3.8,0,0,1,.47-2.44,3.11,3.11,0,0,1,1.62-1.39,3.36,3.36,0,0,1,2.37.27,2.39,2.39,0,0,1,1,1.1A3.47,3.47,0,0,1,363.41,103.24Z"/><path class="cls-14" d="M391.55,83.86h.94v3.55l.18.1c.16-.22.32-.43.49-.64a2.31,2.31,0,0,1,3.2,0,2,2,0,0,1,.69,1.64c-.06,1.39,0,2.77,0,4.19h-.95c0-1.38,0-2.77,0-4.15A1.53,1.53,0,0,0,394.29,87c-.47,0-.76.48-1.23.5,0,.31-.27.52-.37.81a4.24,4.24,0,0,0-.22,1.46c0,1,0,1.91,0,2.88a1.34,1.34,0,0,1-.93.06Z"/><path class="cls-14" d="M307.07,92.68h-.88a.84.84,0,0,1-.07-.23c0-1.24,0-2.47,0-3.71,0-1.55-1-2.17-2.43-1.56a2.12,2.12,0,0,0-1.15,2.09c-.08,1.1,0,2.22,0,3.32-.3.24-.61,0-.93.15V83.91a1.51,1.51,0,0,1,.92,0v3.46c.29.1.33-.16.46-.25a2.65,2.65,0,0,0,.34-.33,2.28,2.28,0,0,1,2.56-.3c.48.23.74.68,1.13,1,.18.15.08.37.08.56C307.08,89.55,307.07,91.07,307.07,92.68Z"/><path class="cls-14" d="M315,79.25h-.94V70.49a1.55,1.55,0,0,1,.93,0V74c.28.08.33-.18.46-.27a2.65,2.65,0,0,0,.34-.33,2.27,2.27,0,0,1,2.56-.29c.48.22.74.68,1.13,1,.17.15.07.37.07.56,0,1.52,0,3,0,4.54-.28.27-.6,0-1,.18,0-1.5,0-2.88,0-4.27s-1-1.78-2.22-1.39S315.09,75,315,75.86C314.92,77,315,78.08,315,79.25Z"/><path class="cls-14" d="M257.17,79.26h-.93V70.51a1.44,1.44,0,0,1,.95,0v3.76l.68-.79a2.32,2.32,0,0,1,3.2,0,2.05,2.05,0,0,1,.68,1.65c-.06,1.35,0,2.71,0,4.07-.26.29-.59,0-1,.21,0-1.5,0-2.88,0-4.27a1.35,1.35,0,0,0-.9-1.41c-.87-.33-2.22.09-2.43.94a4.8,4.8,0,0,0-.29,1.57C257.23,77.19,257.17,78.19,257.17,79.26Z"/><path class="cls-14" d="M316.91,106.1H316V97.34c.23-.25.55,0,.92-.16v3.64l.2.11c.16-.21.31-.43.48-.64a2.31,2.31,0,0,1,3.2,0,2.06,2.06,0,0,1,.7,1.64c-.07,1.38,0,2.77,0,4.19h-1c0-1.37,0-2.76,0-4.14a1.45,1.45,0,0,0-1-1.49,2,2,0,0,0-2.38,1.09,4.89,4.89,0,0,0-.26,1.58C316.94,104.08,316.91,105,316.91,106.1Z"/><path class="cls-14" d="M189.75,74.12a2.72,2.72,0,0,1,.37-.56,2.24,2.24,0,0,1,3.35,0,1.67,1.67,0,0,1,.63,1.42c-.06,1.43,0,2.86,0,4.32h-1V75.37a2.72,2.72,0,0,0-.07-.81,1.55,1.55,0,0,0-2.12-.89,2.1,2.1,0,0,0-1.4,2.14c-.05,1.11,0,2.23,0,3.36-.27.21-.58.1-.92.09V70.51c.22-.26.55,0,.92-.16V74Z"/><path class="cls-14" d="M369.45,97.17v3.64a.73.73,0,0,0,.54-.4,2.32,2.32,0,0,1,3.46,0,1.85,1.85,0,0,1,.57,1.33c0,1.43,0,2.86,0,4.31a1.43,1.43,0,0,1-1,0c0-1.31,0-2.62,0-3.93,0-1.52-1.06-2.16-2.45-1.53a2.15,2.15,0,0,0-1.12,2.11c-.09,1.1,0,2.22,0,3.31-.29.18-.58.07-.9.1v-8.8C368.77,97.15,369.06,97.33,369.45,97.17Z"/><path class="cls-13" d="M210.15,103.06c.12,1.8-.94,2.63-2.22,3.21s-3.05-.25-3.86-1.51a4,4,0,0,1-.35-2.71,2.56,2.56,0,0,1,1-1.62,3.37,3.37,0,0,1,5.45,1.56A3.48,3.48,0,0,1,210.15,103.06Z"/><path class="cls-13" d="M218.07,89.65c.12,1.8-.95,2.62-2.23,3.21s-3.05-.26-3.85-1.52a3.9,3.9,0,0,1-.35-2.7,2.58,2.58,0,0,1,1-1.63,3.37,3.37,0,0,1,5.44,1.57A3.47,3.47,0,0,1,218.07,89.65Z"/><path class="cls-13" d="M261.47,62.81c0-1.78.59-2.88,2.08-3.44a3.27,3.27,0,0,1,3.94,1.23,3.54,3.54,0,0,1,0,3.89,3.05,3.05,0,0,1-2.49,1.4,3.25,3.25,0,0,1-2.35-.7A2.79,2.79,0,0,1,261.47,62.81Z"/><path class="cls-13" d="M206.79,49.15c.13,1.73-.86,2.58-2.21,3.22a3.44,3.44,0,0,1-3.65-1.11,3.64,3.64,0,0,1,.48-4.79,3.36,3.36,0,0,1,5.37,1.61A3.47,3.47,0,0,1,206.79,49.15Z"/><path class="cls-12" d="M346.88,24.71v7.11h-2.07s0,0,0-.05a.17.17,0,0,1,0-.1v-7Z"/><path class="cls-12" d="M209.64,31.84h-2.09V24.73h2.09Z"/><path class="cls-12" d="M277.08,24.7h2.12v7.12h-2a7,7,0,0,1-.08-2C277.07,28.12,277.08,26.42,277.08,24.7Z"/><path class="cls-15" d="M179.67,86.61c.89-.16.89-.16,1.24.49a22.09,22.09,0,0,1,1.19,2.73,15.52,15.52,0,0,0,.83,1.69c.11-.19.32-.25.36-.48a11.64,11.64,0,0,1,.92-2.49c.18-.45.36-.89.51-1.35.25-.75.26-.76.92-.73.29,0,.33.17.26.38-.26.81-.65,1.57-1,2.35-.53,1.25-1,2.53-1.62,3.76-.08.17-.21.3-.28.48a2,2,0,0,1-1,1.09,3.89,3.89,0,0,1-1.64.08c-.26,0-.53-.45-.39-.6s.28-.55.65-.27a1,1,0,0,0,1.43-.22,1.12,1.12,0,0,0,.14-1.37,9.73,9.73,0,0,1-.52-1.22C181,89.51,180.33,88.06,179.67,86.61Z"/><path class="cls-14" d="M289.8,106.1h-.87c0-.06-.09-.09-.09-.12v-6c.89-.14.89-.14,1.07.61.28-.45.87-.49,1.16-.92a3.15,3.15,0,0,1,2.33.32c.29.22.5.52.77.75a.6.6,0,0,1,.19.53v4.79h-1v-3.9a3,3,0,0,0-.07-.8,1.5,1.5,0,0,0-2.12-.87c-.33.15-.77.2-.91.54a3.8,3.8,0,0,0-.5,1.59C289.81,103.76,289.8,104.88,289.8,106.1Z"/><path class="cls-14" d="M244,92.7h-.84a.31.31,0,0,1-.12-.3c0-1.24,0-2.47,0-3.71,0-1.49-1-2.07-2.37-1.52a2.05,2.05,0,0,0-1.21,2c-.09,1.14,0,2.3,0,3.43a2,2,0,0,1-.91.05V86.53c.86,0,.86,0,1,.67a5,5,0,0,0,.8-.58c.65-.69,1.44-.41,2.12-.33s1.06.75,1.51,1.23c.08.09,0,.3,0,.45Z"/><path class="cls-14" d="M257.65,106.1h-.87a.63.63,0,0,1-.08-.23c0-1.24,0-2.47,0-3.71a1.59,1.59,0,0,0-2.53-1.53,2.15,2.15,0,0,0-1,2.05c-.07,1.11,0,2.22,0,3.35a1.47,1.47,0,0,1-.93,0V100c.88-.1.88-.1,1,.66.31-.25.63-.46.88-.66a2.26,2.26,0,0,1,2.2-.19c.6.15.91.7,1.34,1.09.18.16.08.37.08.56C257.66,103,257.65,104.48,257.65,106.1Z"/><path class="cls-14" d="M337.58,86.51c.86,0,.86,0,1,.7.29-.46.88-.49,1.17-.92a3.11,3.11,0,0,1,2.33.32c.28.21.5.51.77.75a.61.61,0,0,1,.19.52v4.74a1.92,1.92,0,0,1-1,.06c0-1.34,0-2.68,0-4a1.5,1.5,0,0,0-.12-.79,1.56,1.56,0,0,0-2.07-.78,2.09,2.09,0,0,0-1.39,2.14c-.05,1.11,0,2.23,0,3.36-.28.2-.58.1-.92.08Z"/><path class="cls-14" d="M474.28,92.72c0-1.41,0-2.72,0-4,0-1.49-1-2.07-2.37-1.52a2,2,0,0,0-1.2,2c-.09,1.14,0,2.3,0,3.47h-.91V86.53c.86,0,.86,0,1,.67a7.07,7.07,0,0,0,.79-.58c.66-.67,1.45-.42,2.13-.33s1.05.75,1.5,1.23c.09.09.05.3.05.45V92.6C475,92.78,474.67,92.67,474.28,92.72Z"/><path class="cls-14" d="M212.79,106.1h-.92V100c.85-.13.85-.13,1,.62.28-.45.87-.49,1.16-.92a3.15,3.15,0,0,1,2.33.32c.29.22.5.52.77.75a.59.59,0,0,1,.19.53V106a1.92,1.92,0,0,1-1,.06c0-1.33,0-2.67,0-4a1.4,1.4,0,0,0-.12-.79,1.55,1.55,0,0,0-2.07-.78,2.09,2.09,0,0,0-1.39,2.14C212.75,103.76,212.79,104.88,212.79,106.1Z"/><path class="cls-14" d="M320.75,65.61h-.93V59.52c.87-.13.87-.13,1,.62a5.67,5.67,0,0,0,.88-.62,2.32,2.32,0,0,1,2.5-.09c.41.18.69.63,1,1,.14.13.09.29.09.44,0,1.58,0,3.17,0,4.79h-.95c0-1.38,0-2.76,0-4.14a1.44,1.44,0,0,0-1-1.49A2,2,0,0,0,321,61.07a4.89,4.89,0,0,0-.26,1.58C320.78,63.6,320.75,64.56,320.75,65.61Z"/><path class="cls-14" d="M224.86,60.18a2.92,2.92,0,0,1,2.54-1c.7.06,1.06.55,1.55.91a1.2,1.2,0,0,1,.39,1.16v4.32a1.39,1.39,0,0,1-1,0c0-1.39,0-2.77,0-4.16s-1-1.78-2.23-1.37-1.26,1.27-1.34,2.17c-.1,1.1,0,2.22,0,3.31-.29.19-.57.07-.84.11,0,0-.08-.06-.08-.09V59.49C224.73,59.42,224.73,59.42,224.86,60.18Z"/><path class="cls-14" d="M208.71,79.29h-.54l-.42,0c0-1.4,0-2.79,0-4.17s-1-1.8-2.22-1.4-1.28,1.27-1.35,2.17c-.09,1.1,0,2.22,0,3.35a1.59,1.59,0,0,1-.94,0V73.15c.88-.09.88-.09,1,.64.22-.18.39-.43.59-.47s.37-.32.57-.38a3,3,0,0,1,1.93,0,4.17,4.17,0,0,1,1.33,1.1c.18.16.08.38.08.57C208.72,76.14,208.71,77.65,208.71,79.29Z"/><path class="cls-14" d="M185.72,59.44c.86,0,.86,0,1,.7.29-.45.87-.49,1.16-.92a3.15,3.15,0,0,1,2.33.32c.29.21.5.52.77.75a.58.58,0,0,1,.19.52v4.74a1.92,1.92,0,0,1-1,.06v-3.9a2.72,2.72,0,0,0-.07-.81,1.54,1.54,0,0,0-2.12-.88,2.11,2.11,0,0,0-1.4,2.14c0,1.12,0,2.23,0,3.37-.27.19-.58.1-.92.07Z"/><path class="cls-11" d="M279.33,64.92h3.91c.27,0,.33.11.33.36s0,.37-.31.37c-1.63,0-3.27,0-4.91,0-.41,0-.35-.29-.29-.48a1.85,1.85,0,0,1,.42-.78c1.3-1.29,2.36-2.8,3.63-4.14-.26-.22-.58-.1-.87-.11-1,0-1.92,0-2.88,0-.27,0-.33-.11-.32-.36s0-.37.31-.37h4.9c.13,0,.29,0,.3.12s.1.39-.07.56c-.41.41-.74.91-1.13,1.31a26.19,26.19,0,0,1-2.27,2.54C279.79,64.17,279.78,64.56,279.33,64.92Z"/><path class="cls-12" d="M228,104.84a1.66,1.66,0,0,0-1.52-1.34,5.61,5.61,0,0,1-1.74-.74c-.49-.27-.4-.86-.61-1.29,0-.07.18-.23.22-.37a2,2,0,0,1,1.82-1.46,4.83,4.83,0,0,1,2.31.49c.26.12.25.31,0,.53s-.51.18-.83.06a3.92,3.92,0,0,0-1.41-.37,1.52,1.52,0,0,0-.73.27.66.66,0,0,0-.14,1.16,1.55,1.55,0,0,0,.88.48c.56,0,.94.43,1.46.55.72.16.92.94,1.17,1.58.09.22-.23.29-.23.49,0,.87-.83,1-1.32,1.47-1.06,0-2.19.22-3.08-.65-.2-.21-.25-.33-.17-.56s.24-.28.42-.16a4.41,4.41,0,0,0,1.77.65,1.23,1.23,0,0,0,1.34-.51A1.59,1.59,0,0,1,228,104.84Z"/><path class="cls-12" d="M380.65,92.94a3.49,3.49,0,0,1-2-.67c-.4-.25-.09-.24-.08-.41.06-.46.19-.41.53-.23a3.83,3.83,0,0,0,2.14.6,2.49,2.49,0,0,0,1.19-.86c.08-.23-.41-1-.73-1.06a12.23,12.23,0,0,1-1.59-.5c-.58-.27-1.34-.44-1.32-1.34-.45-.51,0-1,.23-1.29a2,2,0,0,1,2-1,4.17,4.17,0,0,1,1.84.49c.13.06.31,0,.32.23s-.14.28-.25.37-.45.11-.73,0a3.94,3.94,0,0,0-1.41-.39,1.53,1.53,0,0,0-.73.28.65.65,0,0,0-.16,1.15,1.47,1.47,0,0,0,.87.48c.57,0,.94.44,1.47.55.74.15,1,.94,1.15,1.58a1.41,1.41,0,0,1-.36,1,2,2,0,0,1-1.87,1A3,3,0,0,0,380.65,92.94Z"/><path class="cls-12" d="M331.12,64.36A1.68,1.68,0,0,0,329.58,63a5,5,0,0,1-1.73-.74c-.49-.26-.4-.85-.61-1.28,0-.07.18-.24.22-.37a2,2,0,0,1,1.82-1.46,4.83,4.83,0,0,1,2.31.49c.26.11.24.31,0,.53s-.52.17-.83.06a3.93,3.93,0,0,0-1.41-.38,1.46,1.46,0,0,0-.73.28.66.66,0,0,0-.14,1.16,1.48,1.48,0,0,0,.88.47c.56,0,.94.43,1.46.55.71.17.92,1,1.17,1.59.09.22-.23.29-.24.49,0,.87-.82,1-1.31,1.47-1.07,0-2.19.22-3.08-.66a.48.48,0,0,1-.18-.56c.1-.27.25-.27.43-.15a4.75,4.75,0,0,0,1.77.66,1.27,1.27,0,0,0,1.34-.52A1.25,1.25,0,0,1,331.12,64.36Z"/><path class="cls-12" d="M305,106.36a3.78,3.78,0,0,1-2.21-.68c-.41-.25-.07-.26-.06-.41,0-.33.14-.45.43-.29s.79.29,1.12.47a2.38,2.38,0,0,0,1.12.18,2.08,2.08,0,0,0,1.18-.86c.08-.23-.41-.94-.73-1a14,14,0,0,1-1.59-.5c-.59-.27-1.17-.51-1.37-1.33a1.54,1.54,0,0,1,.28-1.31,2.11,2.11,0,0,1,2-1,6.09,6.09,0,0,1,1.95.5c.27.11.25.31,0,.53s-.5.18-.83.06a3.68,3.68,0,0,0-1.41-.37,1.52,1.52,0,0,0-.73.27.66.66,0,0,0-.14,1.16,1.53,1.53,0,0,0,.87.48c.57,0,.94.43,1.47.55.72.15,1,.93,1.14,1.58a1.18,1.18,0,0,1-.28.93,2.12,2.12,0,0,1-1.83,1C305.29,106.35,305.17,106.36,305,106.36Z"/><path class="cls-12" d="M186.35,52.46a2.41,2.41,0,0,1-2-.72c-.78,0-.06-.34-.07-.47,0-.38.22-.25.46-.13a4.87,4.87,0,0,0,2,.62c.71,0,.92-.53,1.31-.87.15-.13-.4-1-.7-1.06-.48-.09-.93-.38-1.36-.44s-.83-.52-1.29-.67-.08-.77-.48-1a3.68,3.68,0,0,1,.4-1,2.12,2.12,0,0,1,1.87-1,3.51,3.51,0,0,1,2,.48c.12.06.31,0,.33.22s-.18.35-.32.46-.46.13-.54,0c-.22-.34-.58-.12-.85-.31a1.28,1.28,0,0,0-1.4.12c-.55.33-.6.74-.18,1.15a1.74,1.74,0,0,0,1,.52,10.25,10.25,0,0,1,1.45.55c.63.16.93.93,1,1.54a1.52,1.52,0,0,1-.4,1.12C188,52.32,187.62,52.46,186.35,52.46Z"/><path class="cls-12" d="M233.11,65.87a3.49,3.49,0,0,1-2-.67c-.4-.24-.09-.24-.07-.41.05-.46.18-.4.52-.23a3.76,3.76,0,0,0,2.15.6,2.51,2.51,0,0,0,1.18-.86c.08-.23-.41-.95-.73-1.06a14,14,0,0,1-1.59-.49c-.58-.28-1.33-.46-1.32-1.35-.44-.51,0-1,.23-1.28a2,2,0,0,1,2-1,4.21,4.21,0,0,1,1.84.49c.12.06.3,0,.32.23s-.15.28-.26.38-.45.1-.73,0a3.94,3.94,0,0,0-1.41-.39,1.64,1.64,0,0,0-.73.28.65.65,0,0,0-.16,1.15,1.47,1.47,0,0,0,.87.48c.57,0,.94.44,1.47.55.74.15,1,.94,1.15,1.58a1.4,1.4,0,0,1-.36,1,2,2,0,0,1-1.87,1A3,3,0,0,0,233.11,65.87Z"/><path class="cls-12" d="M195.22,65.86a2.6,2.6,0,0,1-2.23-.7c-.76,0-.09-.33-.09-.46,0-.38.21-.28.46-.15a5.24,5.24,0,0,0,2,.63c.71,0,.93-.53,1.32-.87.15-.13-.4-1.06-.68-1s-.57-.21-.85-.29c-.49-.14-1.07-.17-1.41-.66-.77,0-.5-.84-.88-1.16.26-.37.2-.85.53-1.23a2.76,2.76,0,0,1,2.77-.7c.2.36.72,0,.93.41,0,.06.3,0,.33.2s-.17.37-.32.46a.62.62,0,0,1-.65,0,3.22,3.22,0,0,0-1-.36,1.41,1.41,0,0,0-1.1.21c-.5.36-.61.79-.18,1.15.23.2.49.49.74.49.61,0,1,.51,1.59.55.39,0,.63.45.86.75a1.28,1.28,0,0,1,.31.93,2.43,2.43,0,0,1-1.21,1.69A3.08,3.08,0,0,1,195.22,65.86Z"/><path class="cls-12" d="M198.72,50.74l.58.59a3.27,3.27,0,0,1-4.63.4,3.67,3.67,0,0,1-.28-5,3.38,3.38,0,0,1,4.91,0s0,.08,0,.09l-.52.52a2.47,2.47,0,0,1-.83-.47,1.57,1.57,0,0,0-1.6-.41,2.23,2.23,0,0,0-1.46,1.12,3.25,3.25,0,0,0,.19,3.33,2.46,2.46,0,0,0,2.27.72A2,2,0,0,0,198.72,50.74Z"/><path class="cls-12" d="M312,77.85c.2.21.4.4.6.6a3.39,3.39,0,0,1-4.91.13,3.69,3.69,0,0,1,0-4.81,3.39,3.39,0,0,1,4.91.13c-.08.09-.2.15-.25.25-.23.54-.59.15-.83.08a3.78,3.78,0,0,1-.73-.52,1.13,1.13,0,0,0-1.11-.13c-.36.25-.81.12-1.14.5a3.29,3.29,0,0,0-.13,4,2.46,2.46,0,0,0,1.48.73,2.2,2.2,0,0,0,1.6-.45A4.81,4.81,0,0,0,312,77.85Z"/><path class="cls-12" d="M314.5,100.72l-.15.17c-.44.43-.58.49-1,.1a2,2,0,0,0-2.3-.41,1.73,1.73,0,0,0-.82.6,3.4,3.4,0,0,0,0,3.64,2.59,2.59,0,0,0,2.37.71,2.37,2.37,0,0,0,1.33-.85l.59.59a3.38,3.38,0,0,1-4.81.23,3.7,3.7,0,0,1-.1-4.89A3.4,3.4,0,0,1,314.5,100.72Z"/><path class="cls-12" d="M361.62,91.23l.58.59a3.28,3.28,0,0,1-4.64.39,3.69,3.69,0,0,1-.27-5,3.4,3.4,0,0,1,4.92,0s0,.12-.08.16c-.52.5-.58.56-1.08.1a2.06,2.06,0,0,0-2.31-.36,1.52,1.52,0,0,0-.79.64,3.29,3.29,0,0,0,0,3.54,2.48,2.48,0,0,0,2.35.8A2.09,2.09,0,0,0,361.62,91.23Z"/><path class="cls-18" d="M248.3,48.39a3.55,3.55,0,0,1,.95,2.75,2.12,2.12,0,0,1-.58,1.08c-.25.31-.56.24-.86.24-2.47,0-4.94,0-7.41,0a1.65,1.65,0,0,1-1.13-.5c-.42-.32-.24-.87-.57-1.21.28-.24.19-.63.34-.93l3.38-6.72s.08,0,.12,0c.24,0,.34.1.42.29a2.37,2.37,0,0,1-.41,1.46c-.75,1.54-1.55,3.05-2.29,4.6s-.46,2.12,1.28,2.13,3.51,0,5.26,0c1.44,0,1.7-.39,1.28-1.77a2.2,2.2,0,0,1-.2-1.16C248,48.48,248.06,48.33,248.3,48.39Z"/><path class="cls-12" d="M423.69,86.59A22.13,22.13,0,0,1,422.61,89a21.21,21.21,0,0,1-1.54,3.32c-.14.19-.14.35-.44.38s-.72-.1-.78-.39c-.36-1.53-1.34-2.8-1.75-4.31a9.09,9.09,0,0,0-.43-.9c-.09-.19-.44-.37-.17-.57a.79.79,0,0,1,.88,0,.92.92,0,0,1,.27.48c.47,1.16,1.06,2.28,1.43,3.48.08.26.14.66.45.69s.41-.43.47-.65c.3-1.19.95-2.24,1.36-3.39C422.63,86.43,422.68,86.45,423.69,86.59Z"/><path class="cls-15" d="M345.5,87.19c-.32,0-.51,0-.71,0s-.29-.16-.3-.38.07-.37.33-.35.38,0,.65,0a2.38,2.38,0,0,1,.75-2.37c.69-.51,1.37-.11,2-.28.21.18.13.35.13.5,0,.48,0,.48-.49.33-.86-.27-1.39.08-1.42.94,0,.27,0,.55,0,.88.56,0,1.07,0,1.58,0,.26,0,.35.09.34.34s0,.39-.29.39h-1.59v5.36c-.32.25-.62.14-1,.12Z"/><path class="cls-15" d="M331.34,106.1h-1v-5.33c-.23-.26-.48-.15-.71-.15s-.28-.18-.29-.39.07-.36.33-.34.38,0,.65,0a2.38,2.38,0,0,1,.75-2.37c.69-.54,1.38,0,2-.34a1.82,1.82,0,0,1,0,1c-1.62-.48-1.92-.2-1.79,1.7.5,0,1,0,1.53,0,.26,0,.34.1.33.34s0,.39-.3.38c-.52,0-1,0-1.59,0Z"/><path class="cls-12" d="M257.41,60.13c-.27,0-.47,0-.66,0s-.3-.16-.3-.38.06-.37.33-.35a6,6,0,0,0,.61,0V57.62c.33-.26.63,0,1-.17v2H260c.33,0,.24.24.25.42s0,.3-.25.3c-.52,0-1,0-1.67,0,0,1.3,0,2.6,0,3.9a1,1,0,0,0,1.35.83c.2-.07.37-.34.55,0s-.14.81-.34.79c-.57-.06-1.13.14-1.72-.19a1.25,1.25,0,0,1-.82-1.23C257.43,62.88,257.41,61.57,257.41,60.13Z"/><path class="cls-12" d="M220.67,99.89c.64,0,1.15,0,1.66,0,.29,0,.3.16.3.37s-.06.36-.33.35c-.51,0-1,0-1.59,0,0,1.24,0,2.43,0,3.62,0,1,.47,1.34,1.5,1a.51.51,0,0,1,.32,0c.17.09.08.28.1.43a.49.49,0,0,1-.33.45,2.63,2.63,0,0,1-2.36-.58.81.81,0,0,1-.19-.65v-4.13a.79.79,0,0,0-.62-.09c-.25,0-.34-.08-.35-.34s.1-.43.41-.39c.15,0,.31,0,.55,0V98h.93Z"/><path class="cls-12" d="M508.59,87.19c-.28,0-.48,0-.67,0s-.29-.17-.3-.38.07-.37.34-.35a6,6,0,0,0,.61,0V84.64a1.69,1.69,0,0,1,1,0v1.87h1.68c.24,0,.25.14.25.31s.06.42-.26.41h-1.66c0,1.31,0,2.61,0,3.91a1,1,0,0,0,1.35.82c.21-.07.37-.34.55,0s-.14.81-.35.79a3.67,3.67,0,0,1-1.72-.2,1.24,1.24,0,0,1-.81-1.23C508.61,89.94,508.59,88.63,508.59,87.19Z"/><path class="cls-12" d="M333.7,60.13c-.31,0-.51,0-.71,0s-.24-.24-.25-.42,0-.32.25-.31h.68V57.52h1v1.89c.59,0,1.11,0,1.62,0,.26,0,.33.11.33.35s0,.39-.31.38c-.51,0-1,0-1.62,0,0,1.26,0,2.48,0,3.7,0,.91.57,1.26,1.47.92a.46.46,0,0,1,.33-.06c.17.08.12.27.12.42a.5.5,0,0,1-.4.5,2.69,2.69,0,0,1-1.91-.27,1.18,1.18,0,0,1-.59-1.07C333.74,62.92,333.7,61.57,333.7,60.13Z"/><path class="cls-12" d="M230.78,100.61c-.27,0-.47,0-.66,0s-.29-.16-.3-.38.07-.36.33-.34.38,0,.62,0V98.1c.33-.25.63,0,1-.16v2c.58,0,1.13,0,1.68,0,.23,0,.25.14.24.3s.07.42-.25.42h-1.67c0,1.3,0,2.6,0,3.9a1,1,0,0,0,1.35.83c.21-.07.38-.34.55,0s-.14.8-.35.78a3.77,3.77,0,0,1-1.71-.19,1.23,1.23,0,0,1-.81-1.24C230.8,103.36,230.78,102,230.78,100.61Z"/><path class="cls-12" d="M207.51,87.32c-.17-.19-.34-.11-.49-.12s-.46.07-.48-.32.24-.41.52-.41h.44V84.59h.93v1.82a7.76,7.76,0,0,0,1.66.06c.28,0,.3.15.31.37s-.05.36-.32.36c-.52,0-1,0-1.61,0,0,1.24,0,2.43,0,3.61s.48,1.36,1.49,1a.52.52,0,0,1,.32,0c.17.09.1.28.1.43a.51.51,0,0,1-.42.49,2.82,2.82,0,0,1-1.81-.23,1.19,1.19,0,0,1-.66-1.14C207.55,90,207.51,88.62,207.51,87.32Z"/><path class="cls-12" d="M270.15,59.41V57.52h.92v1.89c.6,0,1.11,0,1.62,0,.28,0,.32.13.32.36s0,.38-.31.37c-.51,0-1,0-1.61,0,0,1.26,0,2.49,0,3.71,0,.91.56,1.24,1.48.9a.47.47,0,0,1,.32,0c.18.09.11.28.11.43s-.23.51-.4.49a3.57,3.57,0,0,1-1.61-.15,1.29,1.29,0,0,1-.87-1.32c0-1.31,0-2.62,0-3.91-.25-.18-.49-.09-.72-.1s-.24-.15-.24-.31-.06-.42.26-.41Z"/><path class="cls-12" d="M520.3,84.58h1v1.9c.5,0,1,0,1.44,0,.26,0,.55-.09.53.39s-.25.32-.48.32c-.47,0-.94,0-1.46,0,0,1.3,0,2.53,0,3.76a1,1,0,0,0,1.33,1c.2-.07.36-.36.57-.08s-.12.78-.33.8a2.85,2.85,0,0,1-1.91-.22,1.2,1.2,0,0,1-.64-1.16c0-1.34,0-2.69,0-4.1a6.29,6.29,0,0,0-.63,0c-.26,0-.34-.1-.33-.35s0-.39.3-.38h.62Z"/><path class="cls-12" d="M237.74,60.13a5.69,5.69,0,0,0-.59,0c-.35,0-.38-.15-.37-.42s.14-.32.37-.31a4.83,4.83,0,0,0,.56,0V57.6a1.79,1.79,0,0,1,1-.09v1.9c.59,0,1.1,0,1.62,0,.26,0,.33.1.33.35s0,.39-.3.38c-.52,0-1,0-1.63,0,0,1.25,0,2.48,0,3.7,0,.92.56,1.26,1.47.92a.46.46,0,0,1,.33-.06c.17.08.12.26.12.42a.49.49,0,0,1-.4.5,2.69,2.69,0,0,1-1.91-.27,1.15,1.15,0,0,1-.59-1.07C237.78,62.92,237.74,61.57,237.74,60.13Z"/><path class="cls-12" d="M200.56,60.13c0,1.28,0,2.47,0,3.67,0,.85.58,1.31,1.36,1,.21-.07.38-.33.55,0s-.14.79-.36.78a3.17,3.17,0,0,1-1.82-.22,1.27,1.27,0,0,1-.71-1.21c0-1.32,0-2.63,0-3.95-.2-.22-.45-.1-.67-.11s-.29-.17-.3-.38.08-.37.34-.35a6,6,0,0,0,.61,0V57.57a1.69,1.69,0,0,1,1,0v1.87h1.68c.24,0,.25.15.24.31s.07.42-.25.42C201.7,60.12,201.18,60.13,200.56,60.13Z"/><path class="cls-12" d="M321.9,71.17h1v1.89h1.43c.27,0,.55-.08.53.39s-.25.33-.48.33h-1.45c0,1.3,0,2.53,0,3.75a1,1,0,0,0,1.33,1c.2-.06.36-.35.58-.07s-.13.78-.33.8a2.93,2.93,0,0,1-1.92-.22,1.23,1.23,0,0,1-.64-1.16c.05-1.35,0-2.7,0-4.1-.26,0-.45,0-.64,0s-.34-.1-.33-.34,0-.4.3-.38h.62Z"/><path class="cls-12" d="M364,86.48V84.63a2,2,0,0,1,.92,0v1.9h1.62c.28,0,.33.12.32.36s0,.38-.31.37c-.51,0-1,0-1.61,0,0,1.27,0,2.5,0,3.72,0,.91.56,1.24,1.48.9.12,0,.23-.09.32,0s.11.28.12.43a.49.49,0,0,1-.41.49,3.58,3.58,0,0,1-1.61-.15,1.29,1.29,0,0,1-.87-1.32c0-1.31,0-2.62,0-3.91-.25-.18-.49-.09-.72-.1s-.24-.15-.24-.31-.06-.42.26-.42Z"/><path class="cls-19" d="M345,99.69V100c0,.29.11.57-.43.63a2.09,2.09,0,0,0-1.86,1.44,4.82,4.82,0,0,0-.36,1.64c0,.76,0,1.51,0,2.29-.28.2-.58.1-.92.08V99.91h.83c.23.36-.06.79.18,1.16C343.19,100.49,343.69,99.46,345,99.69Z"/><path class="cls-19" d="M180.68,59.43h.84c.23.36-.06.79.18,1.16.75-.58,1.26-1.62,2.46-1.4.16.18.05.39.08.58s0,.33-.3.37a2.2,2.2,0,0,0-2,1.46,4.55,4.55,0,0,0-.36,1.64c0,.76,0,1.51,0,2.28-.27.2-.58.1-.92.08Z"/><path class="cls-19" d="M286.92,92.67H286V86.54c.25-.14.53,0,.81-.06.23.35,0,.77.17,1.18.79-.55,1.26-1.63,2.48-1.4.14.1.09.27.09.42s.06.48-.39.54a2,2,0,0,0-1.87,1.42,5.77,5.77,0,0,0-.38,1.75C286.94,91.14,286.92,91.89,286.92,92.67Z"/><path class="cls-19" d="M299.17,65.64V59.5c.26-.19.55,0,.83-.1.26.34,0,.76.18,1.2.78-.56,1.27-1.62,2.46-1.42.19.13.09.34.11.53s0,.38-.36.43a2.21,2.21,0,0,0-1.95,1.5,4.43,4.43,0,0,0-.33,1.66c0,.51,0,1,0,1.55C300.11,65.61,300.11,65.61,299.17,65.64Z"/><path class="cls-19" d="M315,65.64V59.5c.26-.19.54,0,.82-.1.26.34,0,.76.18,1.2.78-.56,1.27-1.62,2.47-1.42.19.13.09.34.11.53s0,.38-.37.43a2.22,2.22,0,0,0-2,1.5,4.86,4.86,0,0,0-.33,1.66c0,.51,0,1,0,1.55C315.94,65.61,315.94,65.61,315,65.64Z"/><path class="cls-19" d="M500.91,92.68H500V86.5h.84c.22.36-.06.78.18,1.16.75-.58,1.26-1.62,2.42-1.41.17.1.12.23.12.34,0,.29.11.57-.42.63a2.12,2.12,0,0,0-1.87,1.44,5.12,5.12,0,0,0-.35,1.65C500.93,91.06,500.91,91.82,500.91,92.68Z"/><path class="cls-19" d="M496,87.66c.76-.58,1.26-1.62,2.42-1.41.17.11.12.24.12.35,0,.3.1.56-.43.62a2.09,2.09,0,0,0-1.86,1.45,5.06,5.06,0,0,0-.35,1.65c0,.75,0,1.51,0,2.28-.28.19-.58.1-.92.07V86.56c.24-.18.54-.07.84-.06C496,86.86,495.73,87.29,496,87.66Z"/><path class="cls-19" d="M462.53,92.68h-.92V86.5h.83c.23.36-.06.78.18,1.16.76-.58,1.26-1.62,2.43-1.41.17.1.12.24.11.35,0,.29.11.56-.42.62a2.1,2.1,0,0,0-1.86,1.45,4.77,4.77,0,0,0-.36,1.64C462.55,91.07,462.53,91.82,462.53,92.68Z"/><path class="cls-19" d="M432.78,92.68h-.92V86.56c.23-.25.55,0,.8-.11.27.41,0,.84.2,1.19,1.54-1.38,1.54-1.38,2.48-1.36.13.08.08.21.08.32,0,.3.1.56-.43.62a2.09,2.09,0,0,0-1.86,1.45,5.07,5.07,0,0,0-.36,1.65C432.8,91.07,432.78,91.83,432.78,92.68Z"/><path class="cls-19" d="M219.75,59.4v1.32c.46-.45.77-.82,1.15-1.13a1.55,1.55,0,0,1,1.41-.39c.15.12.05.33.08.52s0,.37-.38.42a2.17,2.17,0,0,0-1.76,1.11,6.42,6.42,0,0,0-.48,1.94,23.05,23.05,0,0,0,0,2.35c-.3.17-.58.07-1,.1V60.19C218.79,59.43,218.8,59.43,219.75,59.4Z"/><path class="cls-19" d="M251.21,73.06h.51l.42,0v1.22c1.6-1.47,1.6-1.47,2.63-1.44a5.42,5.42,0,0,0,0,.57c0,.25-.08.31-.33.35a2.21,2.21,0,0,0-2,1.47,4.87,4.87,0,0,0-.35,1.65c0,.76,0,1.51,0,2.28a1.35,1.35,0,0,1-.93,0Z"/><path class="cls-20" d="M327,97.28h1V106c-.27.21-.58.1-1,.09V97.28Z"/><path class="cls-20" d="M443.85,83.86h.89v8.76c-.25.16-.55.08-.89,0Z"/><path class="cls-20" d="M226.91,79.27H226V70.51c.25-.16.55-.08.89-.05Z"/><path class="cls-20" d="M296.8,70.45h.88v8.76c-.24.17-.55.07-.88.05Z"/><path class="cls-21" d="M172.73,99.91h1c0,2.29,0,4.55,0,6.81a1.62,1.62,0,0,1-2,1.3c-.12,0-.11-.18-.11-.3s0-.34.15-.4.26,0,.35,0a1.14,1.14,0,0,0,.71-1.09C172.7,104.15,172.73,102.08,172.73,99.91Z"/><path class="cls-21" d="M286,99.91h.88a.91.91,0,0,1,.08.23c0,2.07,0,4.14,0,6.21,0,1.18-.61,1.73-1.8,1.69-.24,0-.38,0-.36-.32s0-.33.26-.42c.85-.25.94-.4.94-1.19Z"/><path class="cls-16" d="M458.45,92c-.55,1.1-1.57,1-2.52.94a2,2,0,0,1-1.61-1.31,1.48,1.48,0,0,1-.19-.64V86.58c.28-.19.57-.07.83-.1a.31.31,0,0,1,.13.3c0,1.15,0,2.31,0,3.46a1.81,1.81,0,0,0,2.83,1.67c.1,0,.14-.2.29-.16h.09a.29.29,0,0,1,.14.13Z"/><path class="cls-16" d="M313.31,92c-.55,1.1-1.57,1-2.52.94a2,2,0,0,1-1.61-1.31A1.48,1.48,0,0,1,309,91V86.58c.28-.19.57-.07.83-.1a.31.31,0,0,1,.13.3c0,1.15,0,2.31,0,3.46a1.81,1.81,0,0,0,2.83,1.67c.1,0,.14-.2.29-.16h.09a.29.29,0,0,1,.14.13Z"/><path class="cls-16" d="M380.24,105.4c-.54,1.09-1.56,1-2.52.93a2,2,0,0,1-1.6-1.3,1.54,1.54,0,0,1-.2-.64V100c.29-.19.57-.06.83-.1a.28.28,0,0,1,.13.3c0,1.16,0,2.31,0,3.47a1.8,1.8,0,0,0,2.82,1.67c.1,0,.14-.21.29-.17h.1a.35.35,0,0,1,.13.14Z"/><path class="cls-16" d="M187.36,105.4c-.54,1.09-1.56,1-2.52.93a2,2,0,0,1-1.6-1.3,1.54,1.54,0,0,1-.2-.64c0-.12,0-.24,0-.36v-4c.29-.19.57-.06.83-.1a.31.31,0,0,1,.14.3c0,1.16,0,2.31,0,3.47a1.8,1.8,0,0,0,2.82,1.67c.1,0,.14-.21.29-.17h.1a.29.29,0,0,1,.13.14Z"/><path class="cls-16" d="M403.27,92c-.54,1.1-1.56,1-2.52.94a2,2,0,0,1-1.6-1.31A1.5,1.5,0,0,1,399,91c0-1.47,0-2.94,0-4.39.29-.19.57-.07.83-.1a.3.3,0,0,1,.14.3c0,1.15,0,2.31,0,3.46a1.8,1.8,0,0,0,2.82,1.67c.1,0,.14-.2.29-.16h.1a.27.27,0,0,1,.13.13Z"/><path class="cls-13" d="M458.21,91.75a3.11,3.11,0,0,0,.49-1.84c0-1.11,0-2.22,0-3.35a1.41,1.41,0,0,1,.93,0v6.08c-.11.16-.28.08-.43.09-.3,0-.57,0-.5-.41,0-.16,0-.32-.24-.31A1.75,1.75,0,0,0,458.21,91.75Z"/><path class="cls-13" d="M403,91.75a3,3,0,0,0,.49-1.84c0-1.11,0-2.22,0-3.35a1.44,1.44,0,0,1,.94,0v6.08c-.12.16-.29.08-.44.09s-.57,0-.5-.41c0-.16,0-.32-.24-.31A1.75,1.75,0,0,0,403,91.75Z"/><path class="cls-13" d="M313.07,91.75a3.11,3.11,0,0,0,.49-1.84c0-1.11,0-2.22,0-3.35a1.41,1.41,0,0,1,.93,0v6.08c-.11.16-.28.08-.43.09-.3,0-.57,0-.5-.41,0-.16,0-.32-.24-.31A1.75,1.75,0,0,0,313.07,91.75Z"/><path class="cls-13" d="M187.12,105.16a3,3,0,0,0,.49-1.83c0-1.11,0-2.23,0-3.36a1.58,1.58,0,0,1,.94,0V106c-.12.15-.29.07-.44.09s-.57,0-.5-.41c0-.16,0-.33-.24-.31A1.36,1.36,0,0,0,187.12,105.16Z"/><path class="cls-13" d="M380,105.16a3,3,0,0,0,.49-1.83c0-1.11,0-2.23,0-3.36a1.58,1.58,0,0,1,.94,0V106c-.12.15-.29.07-.44.09-.3,0-.57,0-.5-.41,0-.16,0-.33-.24-.31A1.36,1.36,0,0,0,380,105.16Z"/><path class="cls-22" d="M406.89,92.72V86.56c.27-.16.55,0,.88-.09v6.17C407.54,92.78,407.26,92.67,406.89,92.72Z"/><path class="cls-22" d="M467.52,92.68h-.87V86.5h.87Z"/><path class="cls-22" d="M492.07,86.5H493v6.12c-.24.17-.55.07-.89,0Z"/><path class="cls-22" d="M505.91,92.68H505V86.56c.23-.18.54-.07.88-.06Z"/><path class="cls-22" d="M526.06,92.68h-.88V86.56c.23-.18.54-.07.88,0Z"/><path class="cls-22" d="M369.67,86.47v6.15c-.27.16-.55,0-.82.08a.31.31,0,0,1-.12-.3V87.26C368.73,86.5,368.73,86.5,369.67,86.47Z"/><path class="cls-22" d="M335.62,92.68h-.92v-6.2h.49c.26,0,.44,0,.44.36C335.61,88.77,335.62,90.72,335.62,92.68Z"/><path class="cls-22" d="M316.71,86.5h.88v6.12c-.24.17-.54.07-.88,0Z"/><path class="cls-22" d="M262.25,86.5h.88v6.12c-.23.23-.55,0-.88.14Z"/><path class="cls-22" d="M242.34,59.43h.88v6.12c-.23.18-.54.07-.88.06Z"/><path class="cls-22" d="M383.64,99.91h.88V106c-.23.18-.54.07-.88.06Z"/><path class="cls-22" d="M339.42,65.61h-.88V59.49c.22-.24.55,0,.88-.14Z"/><path class="cls-22" d="M347.6,99.89V106c-.27.17-.56,0-.82.09a.34.34,0,0,1-.13-.31c0-1.71,0-3.42,0-5.13C346.66,99.91,346.66,99.91,347.6,99.89Z"/><path class="cls-22" d="M323.67,99.91h.88V106c-.24.18-.55.07-.88.06Z"/><path class="cls-22" d="M272,79.27h-.88V73.14c.23-.17.54-.07.88,0Z"/><path class="cls-22" d="M182.53,52.2h-.89V46.07c.23-.23.56,0,.89-.13Z"/><path class="cls-22" d="M191.88,52.2H191V46.07c.24-.16.55-.07.88,0Z"/><path class="cls-22" d="M282.88,99.91h.88v6.18h-.88Z"/><path class="cls-22" d="M249.3,99.91h.88V106c-.24.18-.54.07-.88.06Z"/><path class="cls-23" d="M242.78,43.36q0-.26-.24-.24c.27-.32.2-1,.83-.95.37,0,.61-.47,1.07-.18a3.1,3.1,0,0,1,1.22,1.16c.71,1.42,1.44,2.83,2.16,4.24l.48,1q-.26,0-.24.24c-.66,0-.82-.53-1.06-.94-.51-.89-.93-1.82-1.39-2.74C244.66,43.1,244.66,43.1,242.78,43.36Z"/><path class="cls-8" d="M346.87,22v1.87h-2s-.1-.07-.1-.13c0-.56,0-1.11,0-1.66a6.92,6.92,0,0,1,1.64-.08Z"/><path class="cls-8" d="M207.55,22.06h2.08v1.87c-.64.05-1.34,0-2.08,0Z"/><path class="cls-8" d="M277.13,22.06h2.07v1.87c-.64.05-1.34,0-2.07,0Z"/><path class="cls-24" d="M327.77,91.54h1.1a4.3,4.3,0,0,1-.17,1.86c-.21.48-.62.52-.95.72s-.36-.2-.52-.35a1.73,1.73,0,0,0,.91-.68.38.38,0,0,0,0-.3c-.71-.16-.34-.73-.42-1.12C327.7,91.65,327.74,91.61,327.77,91.54Z"/><path class="cls-24" d="M384.93,91.53h1.31c0,.39,0,.78,0,1.16a1.64,1.64,0,0,1-1.07,1.44.4.4,0,0,1-.48-.23c-.25-.38.15-.17.24-.25s.33-.33.5-.5.16-.35,0-.39C384.7,92.58,385.22,92,384.93,91.53Z"/><path class="cls-24" d="M485.08,91.54h1.21a4.34,4.34,0,0,1-.24,1.93c-.23.41-.65.49-1,.65-.18.09-.28-.23-.46-.33a1.65,1.65,0,0,0,.74-.5c.23-.26.5-.49-.11-.59-.12,0-.15-.15-.14-.28Z"/><path class="cls-24" d="M535.22,91.54h1.21a4.34,4.34,0,0,1-.24,1.93c-.23.41-.65.49-1,.65-.18.09-.28-.23-.46-.33a1.65,1.65,0,0,0,.74-.5c.23-.26.5-.49-.11-.59-.12,0-.15-.15-.14-.28Z"/><path class="cls-24" d="M197.44,105h1.21a4.65,4.65,0,0,1-.24,1.92c-.23.42-.64.49-1,.67s-.29-.23-.48-.33a1.85,1.85,0,0,0,.73-.49c.21-.25.55-.48-.08-.61-.12,0-.17-.12-.17-.26S197.44,105.3,197.44,105Z"/><path class="cls-24" d="M267.73,104.94h1.21a4.81,4.81,0,0,1-.23,1.91c-.23.44-.64.49-1,.69-.16.1-.26-.12-.37-.23s0-.2.13-.24.42-.34.62-.51a.25.25,0,0,0,0-.4C267.73,105.71,267.73,105.71,267.73,104.94Z"/><path class="cls-24" d="M296.15,104.92h1c.16,0,.31,0,.31.24a6.63,6.63,0,0,1,0,1.18,1.67,1.67,0,0,1-1,1.2c-.22.1-.38-.06-.48-.22-.26-.39.14-.17.23-.25s.34-.34.51-.5.15-.36,0-.39C295.94,106,296.45,105.4,296.15,104.92Z"/><path class="cls-25" d="M247.06,92.68h-1.12V91.56a3.4,3.4,0,0,1,1.12,0Z"/><path class="cls-22" d="M326.31,78.11h1.11v1.12a3.32,3.32,0,0,1-1.11,0Z"/><path class="cls-25" d="M283.28,79.27h-1.12v-1.1c.32-.19.71,0,1.12-.11Z"/><path class="cls-25" d="M282.14,74.22V73.1h1.13a3.69,3.69,0,0,1,0,1.12Z"/><path class="cls-25" d="M245.92,87.67V86.52H247c.05,0,.07.13.07.25,0,.89,0,.89-.95.9Z"/><path class="cls-25" d="M209.67,47.19h-1.15V46.06c0-.05.13-.07.25-.07.89,0,.89,0,.9.95Z"/><path class="cls-22" d="M350.69,65.61h-1.12V64.49a3.42,3.42,0,0,1,1.12,0Z"/><path class="cls-25" d="M205.07,65.62H204V64.49a3.35,3.35,0,0,1,1.11,0Z"/><path class="cls-22" d="M395.84,106.1h-1.16V105a.36.36,0,0,1,.25-.06c.9,0,.9,0,.91,1Z"/><path class="cls-25" d="M208.51,51h1.12v1.12a3.38,3.38,0,0,1-1.12.05Z"/><path class="cls-25" d="M205.11,60.58H204V59.47a.32.32,0,0,1,.25-.06c.9,0,.9,0,.9,1A1.43,1.43,0,0,1,205.11,60.58Z"/><path class="cls-26" d="M384.54,97.53v.82c-.05.05-.08.1-.1.1h-1c-.2-.27-.1-.58-.08-.92Z"/><path class="cls-26" d="M346.4,97.51h1.13c.16.28.05.56.09.84-.36.22-.75,0-1.1.12C346.34,98.16,346.45,97.88,346.4,97.51Z"/><path class="cls-26" d="M324.66,98.43h-1.18c-.2-.26,0-.55-.13-.81.39-.24.78-.05,1.11-.14C324.69,97.78,324.51,98.07,324.66,98.43Z"/><path class="cls-26" d="M286.9,97.53v.88h-1.1c-.16-.23-.07-.54-.05-.88Z"/><path class="cls-26" d="M283.78,97.49v.92h-1.1c-.2-.18-.06-.47-.07-.73s.19-.19.35-.19S283.43,97.49,283.78,97.49Z"/><path class="cls-26" d="M250.23,98.43H249.1c-.16-.27,0-.55-.09-.83.36-.22.75,0,1.1-.12C250.29,97.79,250.18,98.07,250.23,98.43Z"/><path class="cls-26" d="M173.67,97.49v.92h-1.11c-.19-.18-.05-.47-.06-.73s.19-.19.35-.19S173.32,97.49,173.67,97.49Z"/><path class="cls-26" d="M270.87,71.58V70.7H272c.16.24.07.55,0,.88Z"/><path class="cls-26" d="M242.08,57.93v-.88h1.1c.24.23,0,.55.13.88Z"/><path class="cls-26" d="M190.71,43.62h1.12c.17.26.06.54.09.81a1.57,1.57,0,0,1-1.11.08C190.61,44.29,190.76,44,190.71,43.62Z"/><path class="cls-26" d="M339.44,57.05v.88h-1.1c-.24-.23,0-.55-.13-.88Z"/><path class="cls-26" d="M181.39,44.52v-.88h1.09c.17.23.07.54.05.88Z"/><path class="cls-26" d="M263.15,84.12V85h-1.1c-.16-.24-.07-.54-.05-.88Z"/><path class="cls-26" d="M316.45,85v-.92h1.1c.2.18.06.47.07.73s-.19.19-.35.19Z"/><path class="cls-26" d="M526.11,85H525c-.16-.27-.06-.55-.09-.84.36-.22.75,0,1.09-.12C526.18,84.37,526.07,84.65,526.11,85Z"/><path class="cls-26" d="M506,85h-1.13c-.15-.28-.05-.56-.08-.84.36-.21.75,0,1.09-.12C506,84.37,505.92,84.65,506,85Z"/><path class="cls-26" d="M491.78,84.1h1.13c.16.27,0,.55.09.84-.36.21-.75,0-1.1.12C491.72,84.75,491.83,84.47,491.78,84.1Z"/><path class="cls-26" d="M334.44,85v-.88h1.1c.17.23.06.54,0,.88Z"/><path class="cls-26" d="M466.35,84.1h1.13c.17.27,0,.55.09.81-.12.12-1,.23-1.11.08S466.4,84.47,466.35,84.1Z"/><path class="cls-26" d="M406.65,85v-.88h1.1c.17.23.06.54.05.88Z"/><path class="cls-26" d="M368.41,84.1h1.18c.2.27,0,.55.13.81-.39.25-.78,0-1.11.14C368.39,84.75,368.56,84.46,368.41,84.1Z"/><path class="cls-27" d="M340.42,30.66c0-.23.2-.35.51-.52-.11.39.18.76-.27,1C340.62,31,340.78,30.68,340.42,30.66Z"/><path class="cls-27" d="M294.36,30.66c0-.23.2-.35.51-.52-.11.39.18.76-.27,1C294.56,31,294.72,30.68,294.36,30.66Z"/><path class="cls-27" d="M256.45,30.66c0-.23.21-.35.52-.52-.12.39.17.76-.28,1C256.66,31,256.81,30.68,256.45,30.66Z"/><path class="cls-28" d="M56.38,68.75a12.19,12.19,0,0,1-1.94,5.9,7.78,7.78,0,0,1-3.14,2.81,6.83,6.83,0,0,1-2.75.91,11.66,11.66,0,0,1-2.46.16c-.11-.53.48-.82.46-1.32s0-.95,0-1.51A9.21,9.21,0,0,1,43,78.64a11.79,11.79,0,0,1-1.14.39c-.09,0,0-.54.21-1.13a8.18,8.18,0,0,0,.39-1,5,5,0,0,0,0-1V72.59a14,14,0,0,1-1.18,2.88c-.09.19-.18.24-.33.22a.19.19,0,0,1-.16-.26c.11-.35-.23-.54-.27-.86-.07-.52-.19-.51-.69-.21a1.47,1.47,0,0,1-1.44.3,7.21,7.21,0,0,0,1.16-3.17A15.47,15.47,0,0,0,40,68a10.6,10.6,0,0,1-2.82,4,10.93,10.93,0,0,1-1.67,1.18c-.15.1-.28.15-.4,0a.26.26,0,0,1,.07-.4c.55-.48.11-1.29.59-1.79-.23-.12-.17-.44-.34-.57s-.35.05-.49.19a4.26,4.26,0,0,1-.42.43.49.49,0,0,1-.55,0c-.22-.13,0-.3,0-.48a17.78,17.78,0,0,0,1-2.93,8.17,8.17,0,0,0,.22-3.53,7.7,7.7,0,0,0-1.87,2.91c-.34.89-.74,1.77-1.08,2.66a15.62,15.62,0,0,1-.71,1.64,11.58,11.58,0,0,1,.07-2.49,43.75,43.75,0,0,1,1.27-4.27,12.15,12.15,0,0,0,.73-2.1c-.89.31-1.41,1.12-2.19,1.6-1,.6-1.79,1.48-2.85,2-.08,0-.12,0-.11-.13v-.09l0-.09-.07.06h-.09c-.34.21-.76.3-1,.65-.11.15-.29,0-.43.07s-.16.11-.24,0a45.5,45.5,0,0,1,4.68-5,3.2,3.2,0,0,0,.84-.95,1.78,1.78,0,0,1,.61-.64.23.23,0,0,0,.15-.17.31.31,0,0,1-.15.17c-.22.11-.37.32-.61.41C31.07,60.92,30,61.49,28.9,62a1,1,0,0,1-.35,0q-.12.15-.24,0c.23-.67.76-1.18,1.05-1.84.21-.49.38-1,.58-1.58a15.2,15.2,0,0,0-4,2.46,1.42,1.42,0,0,1,.47-1.57c.42-.36.4-1.15,1.24-1.12a1.62,1.62,0,0,0-1.81-.28,4.1,4.1,0,0,0-1.9,1.2.27.27,0,0,1-.32.09c-.25-.14,0-.21.06-.32a2,2,0,0,0,0-.34c0-.29-.23-.4-.36-.26-.4.4-1,.33-1.42.65a.63.63,0,0,1-.64-.06A6.58,6.58,0,0,1,24.13,57a14.35,14.35,0,0,1,1.73-.45c1.16,0,2.32,0,3.47,0,.52,0,.93.35,1.47.27a16,16,0,0,0,2.66-.22,2.75,2.75,0,0,1,1.83.17c.54.24,1.25-.2,1.8.27.79-.17,1.52.38,2.3.23.57-.1,1,.3,1.58.25a14.75,14.75,0,0,0,3-.2,2.44,2.44,0,0,1,1.85.11c.55.32,1.18,0,1.8.28a3.86,3.86,0,0,0,1.89,0,3.94,3.94,0,0,0,1.72-.19c.44-.22,1.08.06,1.56-.28.88.15,1.58-.59,2.44-.48.36-.51,1-.05,1.41-.38a2,2,0,0,1,1.39-.08A2.62,2.62,0,0,0,60,55.69a13.2,13.2,0,0,1,4.28-1.83,10.59,10.59,0,0,0,1.46-.24,3.27,3.27,0,0,1,1.47-.19c.41,0,.67-.37,1.1-.27a2,2,0,0,0,1-.18,9.23,9.23,0,0,1,1.81-.22,11,11,0,0,1,2.54-.3c.44.07.76-.32,1.22-.26s.79.18,1.11-.21c0-.06.23,0,.35,0,1,.17,1.83-.39,2.78-.24.65-.36,1.43-.05,2-.28s1.34,0,1.95-.22c.77-.24,1.58,0,2.29-.26s1.58,0,2.3-.23a24.68,24.68,0,0,1,2.67-.23c2.08-.41,4.18,0,6.25-.25,1.13-.14,2.26-.13,3.38-.23.69-.06,1.26.35,1.94.28a4.9,4.9,0,0,1,1.91,0c1.09.32,2.28.13,3.31.68.15.08.28-.07.41-.16,1.32-1,2.66-1.92,4-3,.9-.71,1.68-1.52,2.5-2.31q1.68-1.64,3.31-3.3a27.19,27.19,0,0,1,2.76-2c.61.09,1-.56,1.59-.5s1.17-.39,1.82-.25,1.18-.22,1.69.24a3,3,0,0,1,1.46.25,4.45,4.45,0,0,1,2.32,1.38,1.32,1.32,0,0,1,.38,1,6.15,6.15,0,0,0,0,1,1,1,0,0,0,1,.91,10.83,10.83,0,0,1,2-.24c.16,0,.33,0,.31.25-.26.37-1.22.35-.67,1.19.3.43.61.92,1.16,1s.29-.76.71-1c.24,0,.24.15.24.31a15.56,15.56,0,0,1,0,2.16c-.25,1.68-.51,3.37-1.9,4.6a9.44,9.44,0,0,1-2.1,1.3c-.46.24-.93.46-1.38.72s-.83.68-.53,1.13c.62.94.55,2.09,1.07,3,.19.34.08.75.15,1.13a9.71,9.71,0,0,1,.36,3.07,1.81,1.81,0,0,1-1.42,1.7,10.57,10.57,0,0,1-2.68.5c-.44,0-.86.29-1.34.24a3.25,3.25,0,0,0-1.23.18,4.51,4.51,0,0,1-1.9,0,.87.87,0,0,1-.8-.49,9.7,9.7,0,0,0-1.32-1.73A4.88,4.88,0,0,0,119,65a7.18,7.18,0,0,1-1.08,4.22,10,10,0,0,1-1.85,2.59,5.46,5.46,0,0,0-.68.68c-.46.61-1.31.92-1.44,1.8s-.35,1.45-.51,2.19a23.8,23.8,0,0,1-.69,3.54c.19.91-.38,1.75-.23,2.65.09.53-.31.94-.26,1.46a4,4,0,0,1-.17,1.35,2.5,2.5,0,0,0,.13,1.83c.38.72.81,1.2,1.69,1.11.28,0,.57,0,.84,0,1.57-.21,2.54.76,3.46,1.77a1.37,1.37,0,0,1,.31,1.06c-.06.59-.17.76-.77.76h-9.48a1.48,1.48,0,0,1-.74-.24.93.93,0,0,1-.54-1.28c.24-1,.37-1.93.53-2.9.2-1.3.1-2.58.23-3.86a4.1,4.1,0,0,0,.19-1.34,17,17,0,0,1-.21-4.09c0-.32-.27-.45-.27-.74s-.22-.22-.36-.15c-1.11.64-2.42.67-3.59,1.16-.45.19-1,0-1.48.2a5.59,5.59,0,0,1-1.79.27c-1.5,0-3,.37-4.46.29s-3,0-4.56,0a4.93,4.93,0,0,1-2.08-.16c-.61-.28-1.35.06-2-.26a9.21,9.21,0,0,0-1.57-.25c-1.59-.39-3.15-.88-4.72-1.36a42.77,42.77,0,0,1-6.37-2.84c-.36-.18-.47-.07-.68.11-.4.34-.49.84-.76,1.25a16.26,16.26,0,0,1-7.24,6.16A6.21,6.21,0,0,0,63,84.24,18.25,18.25,0,0,0,61.76,86a7.85,7.85,0,0,0-.85,3.18c.18.23.22,0,.3,0a2.55,2.55,0,0,1,1.37,0,4.45,4.45,0,0,1,2.46,1,2.06,2.06,0,0,0,.25.26,1.41,1.41,0,0,1,.65,1.64c-1,.16-7.83.21-10.69.07-.19-.43,0-.79.16-1.19a5.44,5.44,0,0,1,1.47-2.51,4.89,4.89,0,0,0,.75-.76,1.62,1.62,0,0,0,.43-.9,1.29,1.29,0,0,1,.22-1,.46.46,0,0,0-.09-.54.48.48,0,0,1-.13-.3c.08-1.3-.46-2.56-.24-3.85.47-2.64.13-5.29.24-7.93,0-.61.37-1.17.25-1.81a.84.84,0,0,0-.26-.62A4.31,4.31,0,0,1,56.86,69l-.24-.24a.41.41,0,0,1-.13-.29A.34.34,0,0,1,56.38,68.75Z"/><path class="cls-29" d="M133.86,45.51V47.2a3.48,3.48,0,0,1-2.63-2.37.36.36,0,0,1,.37-.51h1.06C133.56,44.38,133.8,44.62,133.86,45.51Z"/><path class="cls-30" d="M32.15,60.37a.58.58,0,0,1,.72-.48,1.35,1.35,0,0,1-.72.71Z"/><path class="cls-31" d="M26.63,66.59h.24a.6.6,0,0,1-.48.48q-.12.15-.24,0A.6.6,0,0,1,26.63,66.59Z"/><path class="cls-32" d="M56.38,68.75v-.24c0-.11,0-.22.16-.19s.06.12.07.19a1,1,0,0,1,0,.24Z"/><path class="cls-33" d="M26.15,67.07h.24c0,.2-.11.25-.27.24s-.17-.06-.17-.09S26,67.06,26.15,67.07Z"/><path class="cls-34" d="M28.55,65.87v.24c0,.12,0,.23-.16.19s-.07-.12-.08-.19a1.92,1.92,0,0,1,0-.24A.14.14,0,0,1,28.55,65.87Z"/><path class="cls-35" d="M28.31,62h.24c0,.36-.3.21-.48.24Q28.06,62,28.31,62Z"/><path class="cls-32" d="M56.62,68.75q.24,0,.24.24Q56.61,69,56.62,68.75Z"/><path class="cls-36" d="M28.07,62.39c-.05,0-.11.11-.14.1s-.11-.1-.05-.14l.19-.07Z"/><path class="cls-37" d="M231.78,45.54H233c-.12.45,0,.85-.22,1.33a4.49,4.49,0,0,0,0,1.76c0,.23-.15.24-.31.24s-.45.06-.41-.25C232.11,47.6,231.57,46.65,231.78,45.54Z"/><path class="cls-38" d="M231.78,49.37h1.12v1.12a3.4,3.4,0,0,1-1.12,0Z"/><path class="cls-37" d="M220.05,45.54h1.15c-.11.44.05.83-.2,1.32a3.41,3.41,0,0,0,0,1.63c0,.34-.14.39-.42.38s-.35-.12-.31-.36C220.38,47.54,219.76,46.63,220.05,45.54Z"/><path class="cls-38" d="M221.19,50.52H220V49.41s.13-.07.26-.07c.89,0,.89,0,.9,1Z"/><path class="cls-39" d="M339.15,29.71a1.81,1.81,0,1,1,.05-3.61,1.75,1.75,0,0,1,1,.43c.45.33.3,1,.67,1.38-.38.39-.22,1.08-.69,1.38S339.54,29.85,339.15,29.71Z"/><path class="cls-39" d="M291.24,27.9a1.91,1.91,0,0,1,1.84-1.81,2.23,2.23,0,0,1,1,.4c.46.31.35,1,.68,1.38-.31.42-.17,1-.61,1.39a1.71,1.71,0,0,1-1.13.45A1.84,1.84,0,0,1,291.24,27.9Z"/><path class="cls-39" d="M255.18,29.7a1.84,1.84,0,0,1-1.85-1.77A1.88,1.88,0,0,1,255,26.11a1.68,1.68,0,0,1,1.26.43c.44.35.31,1,.62,1.4-.34.4-.21,1.07-.68,1.38A1.44,1.44,0,0,1,255.18,29.7Z"/><path class="cls-40" d="M202.23,26.1c.48.14,1,.2,1.26.87a2.3,2.3,0,0,1,0,2.62,1.3,1.3,0,0,1-1.33.82,1.27,1.27,0,0,1-1.35-.8,2.3,2.3,0,0,1,0-2.63C201,26.29,201.53,26.15,202.23,26.1Z"/><path class="cls-41" d="M176.24,27.73a15.84,15.84,0,0,0,1-2.39.22.22,0,0,1,.24-.19c.15,0,.2.07.24.19a15.75,15.75,0,0,0,1,2.39Z"/><path class="cls-39" d="M191.2,28.17a1.63,1.63,0,0,1,.6-1.57,1.76,1.76,0,0,1,3,.9,2.53,2.53,0,0,1-.08,1.73,1.85,1.85,0,0,1-2,1.19,1.93,1.93,0,0,1-1.47-1.91Z"/><path class="cls-39" d="M231.5,28.45c0-1.09.22-1.77,1.11-2.15a1.79,1.79,0,0,1,2.49,1.35,7.79,7.79,0,0,1,0,1.08,1.8,1.8,0,0,1-3.6,0Z"/><path class="cls-40" d="M324.77,27.79h-1c-.41,0-.62-.39-.32-.66s.28-.6.59-.79a1.43,1.43,0,0,1,2.18,1.09c0,.23,0,.37-.3.36Z"/><path class="cls-40" d="M351.89,27.79a1.08,1.08,0,0,1-.36,0c-.34-.1-.81.3-1-.22-.12-.3.38-1,.79-1.21a1.15,1.15,0,0,1,1.83.56c.43.84.41.87-.52.88Z"/><path class="cls-40" d="M214.71,27.79c-.32,0-.63,0-1,0-.17,0-.43.12-.48-.17s-.09-.42.12-.54.28-.59.52-.7a1.28,1.28,0,0,1,1.38-.09,1.66,1.66,0,0,1,.84,1.21c0,.15,0,.3-.23.3Z"/><path class="cls-40" d="M263.88,27.79h-.95c-.47,0-.71-.34-.41-.63s.33-.69.8-.87a1.4,1.4,0,0,1,2,1.2c0,.18,0,.3-.25.3Z"/><path class="cls-42" d="M309.67,29.15c-.44.25,0,.73-.32,1.06s-.76.07-1,.43c-.08.1-.5.1-.76-.08s-.78-.69-.71-.88a1.38,1.38,0,0,1,.75-.86c.7-.29,1.33.12,2,.17C309.62,29,309.64,29.09,309.67,29.15Z"/><path class="cls-1" d="M173.71,78.57V75.46c1.07,0,2.13,0,3.19,0,.33,0,.53.24.85.28.47,0,1,.83,1,1.27a1.67,1.67,0,0,1-1.07,1.34,3.41,3.41,0,0,1-1.34.23Z"/><path class="cls-43" d="M173.71,74.74V71.38c1,0,1.9,0,2.84,0a2,2,0,0,1,1.68,1.32,1.5,1.5,0,0,1-.67,1.6,2.24,2.24,0,0,1-1.37.43h-2.48Z"/><path class="cls-1" d="M173.71,48.15V44.32c1,0,2,0,3,0a2.78,2.78,0,0,1,1.14.4,1.9,1.9,0,0,1,.08,2.92,2.29,2.29,0,0,1-1.46.5Z"/><path class="cls-39" d="M260.53,102.67a2.22,2.22,0,0,1,3.79-1.67,2.31,2.31,0,0,1,.75,1.68,2.48,2.48,0,0,1-.8,1.66,2.1,2.1,0,0,1-1.41.59A2.25,2.25,0,0,1,260.53,102.67Z"/><path class="cls-39" d="M350.25,102.7a2.24,2.24,0,0,1,2.13-2.34A2.28,2.28,0,0,1,354,101a2.21,2.21,0,0,1,0,3.35,2.18,2.18,0,0,1-1.52.61A2.25,2.25,0,0,1,350.25,102.7Z"/><path class="cls-39" d="M246.14,62.12a2.24,2.24,0,0,1,2.23-2.25,2.2,2.2,0,0,1,1.52.61,2.43,2.43,0,0,1,.79,1.67,2.47,2.47,0,0,1-.77,1.67,2.16,2.16,0,0,1-1.51.63A2.24,2.24,0,0,1,246.14,62.12Z"/><path class="cls-39" d="M477.88,89.26A2.25,2.25,0,0,1,480,86.94a2.22,2.22,0,0,1,1.63.64,2.35,2.35,0,0,1,.75,1.68,2.51,2.51,0,0,1-.79,1.66,2.16,2.16,0,0,1-1.41.6A2.26,2.26,0,0,1,477.88,89.26Z"/><path class="cls-39" d="M344.3,59.89a2.77,2.77,0,0,1,1.63.63,4.94,4.94,0,0,1,.73,1.71,8.06,8.06,0,0,1-.73,1.6c-.51.2-.93.64-1.54.61a3,3,0,0,1-1.63-.66,2.09,2.09,0,0,1-.67-1.75A2.22,2.22,0,0,1,344.3,59.89Z"/><path class="cls-1" d="M253.84,92V84.8c.8,0,1.59-.06,2.37,0a3.49,3.49,0,0,1,2.86,2,5,5,0,0,1,.25,2.52,3.58,3.58,0,0,1-2.23,2.41,3.83,3.83,0,0,1-1.46.24C255.07,92,254.51,92,253.84,92Z"/><path class="cls-39" d="M274.72,76.23a2.29,2.29,0,0,1,.47-1.83,2.13,2.13,0,0,1,2.92-.44A3.28,3.28,0,0,1,279.22,76a2.75,2.75,0,0,1-.55,1.79,2,2,0,0,1-1.61,1,1.75,1.75,0,0,1-1.8-.76C275,77.49,274.49,76.94,274.72,76.23Z"/><path class="cls-39" d="M213.77,73.61a2.49,2.49,0,0,1,1.18.52,2.78,2.78,0,0,1-.19,4.27,2.21,2.21,0,0,1-2.52,0,2.93,2.93,0,0,1-.68-3.26,2,2,0,0,0,.24-.49.91.91,0,0,1,.62-.78C212.83,73.83,213.1,73.43,213.77,73.61Z"/><path class="cls-39" d="M387.47,103c-.24-.71.22-1.26.51-1.8a2.14,2.14,0,0,1,2.85-.43,3.15,3.15,0,0,1,1.14,2.16,2.88,2.88,0,0,1-.59,1.77,2.31,2.31,0,0,1-1.51.95,2.06,2.06,0,0,1-1.94-.93C387.66,104.16,387.26,103.65,387.47,103Z"/><path class="cls-39" d="M320.53,89.49c-.19-.74.32-1.24.58-1.81s.89-.54,1.37-.7a1.77,1.77,0,0,1,1.39.37A2.73,2.73,0,0,1,325,89.47a2.81,2.81,0,0,1-.64,1.88,2,2,0,0,1-1.56.84A1.77,1.77,0,0,1,321,91.3,2.33,2.33,0,0,1,320.53,89.49Z"/><path class="cls-39" d="M415.07,89.62a10.17,10.17,0,0,1-.71,1.73,2.34,2.34,0,0,1-1.45.84,1.66,1.66,0,0,1-1.75-.62,3.1,3.1,0,0,1,0-4c.32-.46.86-.46,1.31-.61a1.79,1.79,0,0,1,1.38.37C414.64,87.83,414.81,88.74,415.07,89.62Z"/><path class="cls-39" d="M234.61,76.12a3.87,3.87,0,0,1-.48,1.82c-.24.61-.9.69-1.42.84a1.55,1.55,0,0,1-1.5-.37,2.66,2.66,0,0,1-1.08-1.83,2.58,2.58,0,0,1,2.33-3,2.22,2.22,0,0,1,1.9,1.47C234.44,75.42,234.89,75.75,234.61,76.12Z"/><path class="cls-39" d="M204.39,89.53a3.76,3.76,0,0,1-.49,1.82c-.23.61-.9.69-1.41.85a1.58,1.58,0,0,1-1.51-.38A2.73,2.73,0,0,1,199.9,90a2.58,2.58,0,0,1,2.34-3,2.22,2.22,0,0,1,1.89,1.48C204.21,88.83,204.67,89.16,204.39,89.53Z"/><path class="cls-39" d="M280,103a3.7,3.7,0,0,1-.48,1.82c-.23.6-.9.69-1.41.84a1.58,1.58,0,0,1-1.51-.38,2.71,2.71,0,0,1-1.08-1.82,2.58,2.58,0,0,1,2.34-3,2.21,2.21,0,0,1,1.89,1.47C279.78,102.25,280.24,102.58,280,103Z"/><path class="cls-40" d="M515.52,89.59c.51-.18,1,.36,1.52.25.21,0,.19.19.19.35a1.83,1.83,0,0,1-.53,1.43,2.06,2.06,0,0,1-2,.55c-.27-.11-.57-.14-.84-.28s-.1-.62-.33-.82,0-.21,0-.35A1.74,1.74,0,0,1,515.52,89.59Z"/><path class="cls-40" d="M248.49,76.48a2,2,0,0,1-.35,1.61,2.37,2.37,0,0,1-2.26.6c-.53-.15-1-.26-1-1,0-.15-.06-.25,0-.43a2,2,0,0,1,2.6-1C247.84,76.4,248.2,76.27,248.49,76.48Z"/><path class="cls-40" d="M239.63,76.18c.51-.19,1,.36,1.53.25.2,0,.18.19.18.34a1.82,1.82,0,0,1-.53,1.44,2.07,2.07,0,0,1-2,.55c-.28-.12-.58-.14-.85-.28s-.09-.62-.33-.83,0-.21,0-.34A1.75,1.75,0,0,1,239.63,76.18Z"/><path class="cls-40" d="M200.26,76.42A2.27,2.27,0,0,1,200,78c-.18.47-.82.5-1.23.73a1.58,1.58,0,0,1-1.12-.07c-.57-.18-1-.33-1-1,0-.1-.1-.16,0-.34a1.85,1.85,0,0,1,1.66-1.17C199,76.09,199.55,76.49,200.26,76.42Z"/><path class="cls-44" d="M223.53,75.7c-1.49,0-2.72,0-3.95,0-.41,0-.36-.29-.3-.48a2.52,2.52,0,0,1,1.61-1.66,1.8,1.8,0,0,1,2.2,1.5A.94.94,0,0,0,223.53,75.7Z"/><path class="cls-44" d="M354.32,89.11h-3.59c-.47,0-.63-.23-.42-.64a2.79,2.79,0,0,1,1.12-1.28,1.7,1.7,0,0,1,2.42.74C354,88.29,354.14,88.66,354.32,89.11Z"/><path class="cls-44" d="M293.52,89.11c-.56,0-1.12,0-1.68,0-.37,0-.41-.18-.36-.44A2.47,2.47,0,0,1,293.4,87a1.83,1.83,0,0,1,1.91,1.59c0,.11,0,.23.11.32s.12.25-.1.25Z"/><path class="cls-44" d="M283.55,89.11H280c-.47,0-.63-.23-.42-.64a2.79,2.79,0,0,1,1.12-1.28,1.71,1.71,0,0,1,2.42.73C283.24,88.28,283.37,88.66,283.55,89.11Z"/><path class="cls-44" d="M235.74,89.08H231.8A2.31,2.31,0,0,1,233.39,87a1.86,1.86,0,0,1,1.69.56A3.52,3.52,0,0,1,235.74,89.08Z"/><path class="cls-44" d="M312.63,62c-1.35,0-2.55,0-3.75,0-.35,0-.42-.15-.36-.42a2.72,2.72,0,0,1,1.66-1.74,1.89,1.89,0,0,1,2.15,1.46A2.06,2.06,0,0,0,312.63,62Z"/><path class="cls-44" d="M297,62h-3.86a.4.4,0,0,1-.39-.61,3.11,3.11,0,0,1,1.11-1.3,1.81,1.81,0,0,1,2.69,1.18C296.58,61.52,296.52,61.77,297,62Z"/><path class="cls-44" d="M376.39,89.11h-3.58c-.48,0-.64-.23-.43-.64a2.84,2.84,0,0,1,1.12-1.28,1.7,1.7,0,0,1,2.42.74C376.08,88.29,376.21,88.66,376.39,89.11Z"/><path class="cls-44" d="M289.63,62h-3.92c-.23,0-.24-.16-.23-.32a2.61,2.61,0,0,1,1.69-1.83A1.89,1.89,0,0,1,289.12,61C289.35,61.29,289.17,61.72,289.63,62Z"/><path class="cls-44" d="M429.46,89.11c-1.35,0-2.55,0-3.75,0-.35,0-.41-.16-.36-.43A2.76,2.76,0,0,1,427,87a1.9,1.9,0,0,1,2.15,1.47A2.06,2.06,0,0,0,429.46,89.11Z"/><path class="cls-44" d="M304.68,75.7h-3.6c-.48,0-.63-.22-.43-.64a2.56,2.56,0,0,1,1.63-1.49A1.82,1.82,0,0,1,304.41,75,4.2,4.2,0,0,0,304.68,75.7Z"/><path class="cls-44" d="M451.85,89.11c-1.42,0-2.65,0-3.89,0-.41,0-.36-.29-.29-.48a2.52,2.52,0,0,1,1.6-1.67c.94-.32,1.88.37,2.21,1.5,0,.15,0,.32.15.42S451.69,89,451.85,89.11Z"/><path class="cls-44" d="M532.81,89.11H529c-.33,0-.26-.26-.23-.43A2.44,2.44,0,0,1,530.66,87a1.8,1.8,0,0,1,1.9,1.6C532.61,88.74,532.75,88.85,532.81,89.11Z"/><path class="cls-44" d="M268.51,75.7c-1.37,0-2.64,0-3.91,0-.24,0-.24-.16-.23-.32a2.63,2.63,0,0,1,1.69-1.84A1.91,1.91,0,0,1,268,74.61C268.24,75,268.06,75.38,268.51,75.7Z"/><path class="cls-44" d="M180.63,102.52c-1.27,0-2.42,0-3.58,0-.48,0-.63-.22-.43-.64a2.91,2.91,0,0,1,1.13-1.28,1.7,1.7,0,0,1,2.41.74C180.32,101.7,180.46,102.08,180.63,102.52Z"/><path class="cls-44" d="M239.63,102.52c-1.26,0-2.5,0-3.73,0-.4,0-.37-.27-.31-.47a2.54,2.54,0,0,1,1.6-1.67,1.87,1.87,0,0,1,2.21,1.37C239.47,102,239.55,102.23,239.63,102.52Z"/><path class="cls-44" d="M186.29,75.7c-1.41,0-2.64,0-3.87,0-.26,0-.36-.09-.34-.34a2.61,2.61,0,0,1,1.71-1.82,1.87,1.87,0,0,1,2,1.09C186,75,185.76,75.39,186.29,75.7Z"/><path class="cls-44" d="M339,102.52c-1.27,0-2.43,0-3.59,0-.47,0-.63-.22-.42-.64a2.81,2.81,0,0,1,1.12-1.27,1.7,1.7,0,0,1,2.42.73C338.66,101.7,338.79,102.08,339,102.52Z"/><path class="cls-44" d="M362.62,102.52h-3.88c-.26,0-.36-.09-.33-.34a2.59,2.59,0,0,1,1.71-1.82,1.87,1.87,0,0,1,1.95,1.09C362.28,101.79,362.09,102.22,362.62,102.52Z"/><path class="cls-1" d="M209.2,103.14c.21.59-.32,1.1-.53,1.69s-.8.56-1.23.74a1.9,1.9,0,0,1-1.21-.1c-2-.56-2-3.39-.8-4.6.33-.34.77-.26,1.13-.47a1.4,1.4,0,0,1,1,.1A2.46,2.46,0,0,1,209.2,103.14Z"/><path class="cls-1" d="M212.55,89.52c-.21-.61.29-1.14.5-1.73s.77-.59,1.23-.75a2.07,2.07,0,0,1,1.31.11A2.13,2.13,0,0,1,217,88.71a3,3,0,0,1-.14,2.13,2.14,2.14,0,0,1-2.35,1.37,2.56,2.56,0,0,1-2-2.24Z"/><path class="cls-1" d="M262.45,62.39c-.21-.62.27-1.15.55-1.7a2.06,2.06,0,0,1,2.34-.69,2.33,2.33,0,0,1,1.56,1.58,3.1,3.1,0,0,1-.13,2.24,2.35,2.35,0,0,1-2.4,1.34,2.71,2.71,0,0,1-1.92-2.31Z"/><path class="cls-1" d="M201.27,48.94c-.11-.7.39-1.22.67-1.82s.81-.38,1.19-.61.71,0,1.1.11c2,.61,2,3.39.82,4.61-.33.34-.76.28-1.13.48a1.44,1.44,0,0,1-1-.09A2.47,2.47,0,0,1,201.27,48.94Z"/><path class="cls-1" d="M242.78,43.36c.24,0,.31-.22.45-.34a1.1,1.1,0,0,1,1.94.36c.35.64.6,1.34,1,2,.66,1.08,1,2.36,1.91,3.29,0,.62.48,1.07.61,1.66a1.65,1.65,0,0,1-.06,1.07.86.86,0,0,1-1,.63c-1.71,0-3.42,0-5.13,0-.72,0-1.44,0-2.15,0a1,1,0,0,1-1-.95,2.57,2.57,0,0,1,.24-1.33c1-2,2-3.94,3.05-5.89A1.55,1.55,0,0,0,242.78,43.36Z"/><path class="cls-8" d="M458.21,91.75c.17,0,.25.07.24.23C458.28,92,458.2,91.91,458.21,91.75Z"/><path class="cls-8" d="M313.07,91.75c.17,0,.25.07.24.23C313.14,92,313.06,91.91,313.07,91.75Z"/><path class="cls-8" d="M380,105.16q.25,0,.24.24Q380,105.42,380,105.16Z"/><path class="cls-8" d="M187.12,105.16q.25,0,.24.24Q187.12,105.42,187.12,105.16Z"/><path class="cls-8" d="M403,91.75c.17,0,.25.07.24.23C403.11,92,403,91.91,403,91.75Z"/><path class="cls-45" d="M125.6,44.08c.22,0,.47-.07.65.17s.79.56.89,1.07a.83.83,0,0,1-.27.84,2.16,2.16,0,0,1-2.19.31.23.23,0,0,1-.17-.26,3.38,3.38,0,0,1,.22-1.46C125,44.1,125,44.07,125.6,44.08Z"/><path class="cls-46" d="M29.15,58.21c.11,0,.3-.06.31.08s-.19.15-.32.15-.29.06-.3-.08S29,58.24,29.15,58.21Z"/><path class="cls-47" d="M28.55,65.87h-.24q0-.24.24-.24Z"/><path class="cls-48" d="M28.69,65.41s.08.07.07.08-.06.12-.11.14-.15,0-.1-.1A.55.55,0,0,1,28.69,65.41Z"/><path class="cls-49" d="M33.73,62.3s.07.07.07.08a.38.38,0,0,1-.11.14c-.1,0-.15,0-.1-.1S33.68,62.34,33.73,62.3Z"/><path class="cls-48" d="M33,59.67s.07.06.07.07-.06.12-.11.14-.15,0-.1-.1S33,59.7,33,59.67Z"/><path class="cls-50" d="M34.51,59.25l-.08.16s-.08-.06-.08-.08a.48.48,0,0,1,.08-.16Z"/><path class="cls-51" d="M243.5,45.55H245a2.33,2.33,0,0,0-.31,1.81c.07.5-.27.86-.27,1.32,0,.3-.3.16-.47.18s-.24-.13-.24-.3V48a3.84,3.84,0,0,0-.23-1.8C243.43,46,243.5,45.79,243.5,45.55Z"/><path class="cls-26" d="M243.5,49.37h1.16v1.11a.38.38,0,0,1-.26.07c-.89,0-.89,0-.9-1Z"/></g></g></svg>