<svg xmlns="http://www.w3.org/2000/svg" viewBox="0 0 580.08 126.72"><defs><style>.cls-1{fill:#fefefe;}.cls-2{fill:#fbf6f6;}.cls-3{fill:#f6e7e6;}.cls-4{fill:#faf2f1;}.cls-5{fill:#f4e0de;}.cls-6{fill:#122c70;}.cls-7{fill:#132c70;}.cls-8{fill:#132d70;}.cls-9{fill:#142d70;}.cls-10{fill:#162e71;}.cls-11{fill:#152e71;}.cls-12{fill:#183072;}.cls-13{fill:#162f71;}.cls-14{fill:#172f72;}.cls-15{fill:#142d71;}.cls-16{fill:#1b3273;}.cls-17{fill:#1f3575;}.cls-18{fill:#1c3374;}.cls-19{fill:#203575;}.cls-20{fill:#223776;}.cls-21{fill:#253978;}.cls-22{fill:#7f799e;}.cls-23{fill:#f69890;}.cls-24{fill:#0a0909;}.cls-25{fill:#f0c9cb;}.cls-26{fill:#ebc5c9;}.cls-27{fill:#f3dfde;}.cls-28{fill:#f2dedd;}.cls-29{fill:#eddada;}.cls-30{fill:#f3e0de;}.cls-31{fill:#f2dfdd;}.cls-32{fill:#f3dfdd;}.cls-33{fill:#070606;}</style></defs><g id="Layer_2" data-name="Layer 2"><g id="Layer_1-2" data-name="Layer 1"><path class="cls-1" d="M555.37,0h24.71V126.72H0V103.24a.28.28,0,0,1,.39.12A4.34,4.34,0,0,1,.83,105a25.29,25.29,0,0,0,22.54,20.94,37.3,37.3,0,0,0,3.95.19H552.93c6.79,0,12.87-1.94,17.92-6.53,5.24-4.76,8.31-10.69,8.34-17.82q.13-38.39,0-76.77a23.56,23.56,0,0,0-6.64-16.25,24.73,24.73,0,0,0-15.31-8A5,5,0,0,1,555.5.39.28.28,0,0,1,555.37,0Z"/><path class="cls-1" d="M0,23.48V0H24.23a.24.24,0,0,1,0,.33,6.11,6.11,0,0,1-2,.43A25.5,25.5,0,0,0,.78,21.6a5.4,5.4,0,0,1-.45,1.85A.24.24,0,0,1,0,23.48Z"/><path class="cls-2" d="M24.23.24V0H555.37V.24a1.66,1.66,0,0,1-1.22.38c-.52,0-1,0-1.56,0H27C26.08.62,25.09.89,24.23.24Z"/><path class="cls-3" d="M0,101.57V25.15a.31.31,0,0,1,.4.14,3.66,3.66,0,0,1,.23,1.76V99.67a3.66,3.66,0,0,1-.23,1.76A.31.31,0,0,1,0,101.57Z"/><path class="cls-4" d="M0,101.57H.24a1.24,1.24,0,0,1,0,1.67H0Z"/><path class="cls-4" d="M.24,25.15H0V23.48H.24A1.24,1.24,0,0,1,.24,25.15Z"/><path class="cls-5" d="M.24,25.15V23.48A3.55,3.55,0,0,1,.45,22c.18-.4-.13-.94.27-1.33a8.09,8.09,0,0,1,.62-2.74A28.58,28.58,0,0,1,3.28,13.6a23.35,23.35,0,0,1,2.2-3.41C6,9.53,6.62,9,7.09,8.34A11.92,11.92,0,0,1,9.49,6a23.39,23.39,0,0,1,6.65-3.91A29.52,29.52,0,0,1,19.83.9,12.07,12.07,0,0,1,22.05.48c.74,0,1.42-.42,2.18-.24H555.37a7.82,7.82,0,0,1,2.77.29c.87.14,1.75.41,2.61.6a21.6,21.6,0,0,1,5.28,2,24.61,24.61,0,0,1,3.69,2.41,26,26,0,0,1,3.68,3.51,18.83,18.83,0,0,1,2.6,3.58c.45.81.94,1.61,1.31,2.45a19.08,19.08,0,0,1,1.57,4.5c.41.41.08,1,.32,1.42s0,.95.17,1.37a10.54,10.54,0,0,1,.22,3.62q0,38,0,76.05a24.08,24.08,0,0,1-.55,4.34,12,12,0,0,1-.76,2.79c-.55,1.25-1.14,2.48-1.75,3.71a18.63,18.63,0,0,1-3.08,4.47c-.35.37-.55.83-.92,1.19a29,29,0,0,1-5.25,4.1,24.26,24.26,0,0,1-4.5,2.18,15.23,15.23,0,0,0-2.41.83c-.42.24-1-.17-1.31.33-.75-.15-1.42.4-2.18.24H556a.76.76,0,0,0-.09.09.6.6,0,0,1-.08.08.33.33,0,0,1-.1.06H26.29a6.12,6.12,0,0,1-2.43-.19c-.69-.27-1.56.16-2.28-.28a12.72,12.72,0,0,1-3.85-.85,30.41,30.41,0,0,1-4.26-1.87,27.19,27.19,0,0,1-3.67-2.44,17.72,17.72,0,0,1-2.93-2.74A23,23,0,0,1,3.81,114c-.38-.68-.78-1.36-1.16-2a29.63,29.63,0,0,1-2-5.78,14.62,14.62,0,0,0-.24-1.45,4.46,4.46,0,0,1-.21-1.48V25.15Z"/><path class="cls-1" d="M84.31,10.3h53.13A15.75,15.75,0,0,1,143,11.39a16.22,16.22,0,0,1,6.38,4c.39.41.78.81,1.19,1.19a12.78,12.78,0,0,1,2.25,3A13.72,13.72,0,0,1,154.35,23c.26.85.44,1.74.65,2.61a17.59,17.59,0,0,1,.2,4.34q0,34.32,0,68.63a16.51,16.51,0,0,1-1,5.55,18.37,18.37,0,0,1-2.84,5.07,17.82,17.82,0,0,1-2.42,2.56,15.42,15.42,0,0,1-3.14,2.23c-.6.3-1.21.56-1.81.86a11.37,11.37,0,0,1-1.88.67c-.57.17-1.16.3-1.74.44-2.95.7-5.94.45-8.92.45q-50,0-100,0a19,19,0,0,1-6.92-1.5,19.58,19.58,0,0,1-7.24-5.37A14,14,0,0,1,14.91,106a17.48,17.48,0,0,1-1.52-4.77,17.43,17.43,0,0,0-.22-1.94,17.73,17.73,0,0,1-.21-4c0-1.36,0-2.71,0-4.07q0-31.14,0-62.28c0-.9.29-1.75.29-2.65a9.82,9.82,0,0,1,.55-2.52,22.69,22.69,0,0,1,.86-2.39,16.15,16.15,0,0,1,2.84-4.47,14,14,0,0,1,1.3-1.48,21,21,0,0,1,3.58-2.63,20.78,20.78,0,0,1,5.57-2.16,15.1,15.1,0,0,1,2.52-.32Q57.39,10.32,84.31,10.3Z"/><path class="cls-6" d="M243.79,51.74c-1.16,0-2.32,0-3.48,0a1.6,1.6,0,0,1-1.54-.84,1.85,1.85,0,0,1-.09-1.82c1.09-2,2.09-4,3-6,.18-.38.47-.65.65-1,.38-.85,1.22-.9,2-.8a1.06,1.06,0,0,1,.75.66c1.26,2.35,2.54,4.69,3.62,7.13a1.83,1.83,0,0,1-1.64,2.74C246,51.76,244.91,51.74,243.79,51.74Z"/><path class="cls-6" d="M232,51.74c-1.16,0-2.31,0-3.47,0a1.78,1.78,0,0,1-1.65-2.45,16.25,16.25,0,0,1,1.5-3.08c.69-1.26,1.3-2.57,1.93-3.86.5-1,.91-1.27,2-1.14a1.38,1.38,0,0,1,1.2.85c.63,1.41,1.39,2.77,2.11,4.14a17.53,17.53,0,0,0,1.09,1.94,5.21,5.21,0,0,1,.53,1.33,1.8,1.8,0,0,1-1.75,2.27Z"/><path class="cls-6" d="M220.27,51.74h-3.35a1.88,1.88,0,0,1-1.73-2.86c.93-2,2-3.89,3-5.79.2-.36.38-.72.57-1.08a1.58,1.58,0,0,1,2.72-.14A18.1,18.1,0,0,1,223.18,45c.73,1.41,1.41,2.84,2.12,4.26a1.79,1.79,0,0,1-1.44,2.48Z"/><path class="cls-6" d="M419.11,29.22c-1.21.89-1.54.92-3.19.48a3.63,3.63,0,0,1-1.85-1.93,4.11,4.11,0,0,1,0-2.55,1.89,1.89,0,0,1,.27-.49,3.3,3.3,0,0,1,1.43-1.48A3.57,3.57,0,0,1,418,23a1.41,1.41,0,0,1,.85.55c.15.22.42.25.46-.13s.17-.22.33-.22h1.84c0,2.2,0,4.34,0,6.48a3.11,3.11,0,0,1-2.84,2.85,12.86,12.86,0,0,1-2.15,0,4.91,4.91,0,0,1-1.91-.56c-.23-.13-.43-.32-.14-.66s.21-.76.55-.89a1.38,1.38,0,0,1,1,.19,3.12,3.12,0,0,0,2.54,0c.45-.2.86-.38.83-1C419.47,29.44,419.66,29.15,419.11,29.22Z"/><path class="cls-6" d="M204.36,30.42H202.9c-.61,0-.61,0-.75-.68-.36.14-.51.52-.88.7a3.15,3.15,0,0,1-3.83-1.17,5.63,5.63,0,0,1-.71-2.57,4.72,4.72,0,0,1,1.09-2.77,3,3,0,0,1,3.66-.59c.22.13.56,0,.76.35V20.63c.68-.06,1.38,0,2.12,0Z"/><path class="cls-6" d="M360.82,23.93V20.64h2.09v9.78H361.4c-.53,0-.53,0-.65-.67-.22,0-.29.2-.41.31a2.65,2.65,0,0,1-2.77.38,3.17,3.17,0,0,1-2.07-2.59,2.87,2.87,0,0,1-.18-1.45,14.1,14.1,0,0,1,.65-1.89,3.15,3.15,0,0,1,3.95-1.26A1.57,1.57,0,0,1,360.82,23.93Z"/><path class="cls-6" d="M227,23.24h1.22c.6,0,.6,0,.75.69a3.4,3.4,0,0,1,2.47-.94,3.59,3.59,0,0,1,2.25,1.26,3.21,3.21,0,0,1,.7,2.35,6.45,6.45,0,0,1-.21,1.94,3.09,3.09,0,0,1-4.31,1.81c-.28-.15-.52-.45-1-.39v2.6H227Z"/><path class="cls-6" d="M210.43,20.62h1.85V24c.32-.12.45-.47.63-.47s.42-.19.62-.28a2.28,2.28,0,0,1,3.17,1.14,1.33,1.33,0,0,1,.17.52v5.51H215c0-1.25,0-2.52,0-3.78a2.22,2.22,0,0,0-.28-1.08,1.08,1.08,0,0,0-1.28-.61,1.09,1.09,0,0,0-.89.92,5.11,5.11,0,0,0-.21,1.22c0,1.08,0,2.16,0,3.33-.61.07-1.22,0-1.88,0Z"/><path class="cls-6" d="M170.59,30.42v-9.3h7.15V23h-5.23v1.92H177v1.88h-4.46a6.59,6.59,0,0,0-.07,1.53c0,.52,0,1,0,1.55s0,.55-.6.55Z"/><path class="cls-7" d="M182.62,30.66a3.76,3.76,0,0,1-3.85-3.89,3.83,3.83,0,0,1,4-3.8,4,4,0,0,1,3.92,3.92C186.66,28.71,184.72,30.9,182.62,30.66Z"/><path class="cls-7" d="M191.82,23a3.91,3.91,0,0,1,4,3.85,4.17,4.17,0,0,1-4,3.84,3.89,3.89,0,0,1-3.9-3.88A3.77,3.77,0,0,1,191.82,23Z"/><path class="cls-7" d="M342,23a3.92,3.92,0,0,1,4,3.83,4.17,4.17,0,0,1-4,3.86,3.89,3.89,0,0,1-3.92-3.86A3.78,3.78,0,0,1,342,23Z"/><path class="cls-7" d="M242.74,27.55h-5c0,.87.67,1.09,1.23,1.32a1.17,1.17,0,0,0,1.31-.1,1.45,1.45,0,0,1,.48-.25c.28-.09.61-.36.83.11,0,0,.06.05.08.09.12.28.58.16.61.43s-.35.62-.62.8a2.89,2.89,0,0,1-1.85.72,4,4,0,0,1-2.22-.46,4.49,4.49,0,0,1-1.81-2.36,3.51,3.51,0,0,1,.16-2.64,3.76,3.76,0,0,1,2.11-2,3.34,3.34,0,0,1,4.06,1.34A5.14,5.14,0,0,1,242.74,27.55Z"/><path class="cls-7" d="M263.61,27.57h-5c.06.85.68,1.07,1.23,1.3a1.17,1.17,0,0,0,1.31-.1,1.68,1.68,0,0,1,.48-.25c.28-.09.62-.36.83.11,0,0,.07.05.08.09.12.28.58.16.61.43s-.35.62-.62.8a2.84,2.84,0,0,1-1.85.72,3.93,3.93,0,0,1-2.21-.46,4.46,4.46,0,0,1-1.82-2.36,3.5,3.5,0,0,1,.17-2.64,3.7,3.7,0,0,1,2.11-2A3.33,3.33,0,0,1,263,24.56,5.17,5.17,0,0,1,263.61,27.57Z"/><path class="cls-7" d="M354.09,27.54h-4.91c-.41.41.31.54.13.86.46.14.82.51,1.31.59a2,2,0,0,0,1.39-.42c.29-.19.67-.39.9.08.15.31.67.25.68.53s-.41.69-.72.87a3,3,0,0,1-1.78.63,3.8,3.8,0,0,1-2.2-.48c-.84-.64-1.73-1.19-1.75-2.4a2.64,2.64,0,0,1,.07-2.53,3.48,3.48,0,0,1,2.08-2,3.23,3.23,0,0,1,4,1.05,3.85,3.85,0,0,1,.8,2.53C354.08,27,354.09,27.22,354.09,27.54Z"/><path class="cls-7" d="M378.23,27.54h-4.82c-.43.4.32.54.13.86.46.14.82.51,1.31.59a2.07,2.07,0,0,0,1.39-.42c.29-.18.66-.41.9.08.15.31.66.25.68.53s-.41.69-.72.87a3,3,0,0,1-1.78.63,3.88,3.88,0,0,1-2.2-.48c-.84-.63-1.73-1.19-1.75-2.4a2.67,2.67,0,0,1,.06-2.52,3.55,3.55,0,0,1,2.08-2,3.23,3.23,0,0,1,4,1.05,3.8,3.8,0,0,1,.8,2.53C378.3,27.05,378.39,27.29,378.23,27.54Z"/><path class="cls-7" d="M407.05,27.55h-5c.09.78.61,1,1.14,1.25a1.19,1.19,0,0,0,1.4,0c.1-.08.27-.09.4-.17.54-.31.55-.29,1,.1a.88.88,0,0,0,.48.3c.24.05.22.28.06.45a3.73,3.73,0,0,1-2.61,1.24,3.77,3.77,0,0,1-3.44-1.8,3.25,3.25,0,0,1-.54-2.61,3.6,3.6,0,0,1,2.54-3.08,3.15,3.15,0,0,1,3.91,1.24A4.33,4.33,0,0,1,407.05,27.55Z"/><path class="cls-7" d="M434.17,27.55c-1.56,0-3.08,0-4.59,0-.43,0-.48.09-.29.46a1.86,1.86,0,0,0,2.28.85,2.84,2.84,0,0,0,1.12-.64l.63.71c.12.13.43,0,.42.28s-.2.33-.33.46a3.57,3.57,0,0,1-2.34,1,3.75,3.75,0,0,1-3.45-1.76,3.86,3.86,0,0,1-.57-2.72c.44-.37,0-1,.45-1.38s.64-.7,1-1a3.33,3.33,0,0,1,5.16.89A4.49,4.49,0,0,1,434.17,27.55Z"/><path class="cls-8" d="M390.32,30.42c-.56,0-1,0-1.5,0-.26,0-.64.22-.7-.35,0-.23-.22,0-.3.11a1.35,1.35,0,0,1-1,.48,4.54,4.54,0,0,1-1.95-.2,2.27,2.27,0,0,1-1-3.11,2.23,2.23,0,0,1,1.92-1.19,3.69,3.69,0,0,1,2.2.13c.08,0,.11.09.17,0a1,1,0,0,0-.28-1.05,2.71,2.71,0,0,0-2-.23,2.44,2.44,0,0,1-.52.18c-.45,0-.92.08-.78-.63-.3-.12-.12-.54-.56-.68a6.24,6.24,0,0,1,2.44-.62h1.08a2.57,2.57,0,0,1,2.62,2.12,7.25,7.25,0,0,1,.19,1.95C390.34,28.3,390.32,29.3,390.32,30.42Z"/><path class="cls-7" d="M218,23.24h1.16c1.19,0,1.2,0,1.55,1.06s.71,2.33,1.06,3.5c.52-.27.42-.82.61-1.21.3-.63.38-1.35.69-2a10.74,10.74,0,0,0,.43-1.36h1.8c.23,0,.23.16.23.32s0,.18,0,.23a31.09,31.09,0,0,0-1.38,3.38,21.63,21.63,0,0,0-1.22,3.32,6.64,6.64,0,0,1-.54,1.21,1.64,1.64,0,0,1-1.51.88,5,5,0,0,1-1.71-.21c-.31-.11-.32-.21-.36-.46s.22-.64.33-.94.32-.5.64-.18.54.11.79.1.41-.42.29-.7c-.56-1.33-1.13-2.65-1.57-4a8.72,8.72,0,0,0-.73-1.72C218.32,24.08,218.41,23.63,218,23.24Z"/><path class="cls-7" d="M316.78,23.24h1.67c.31,0,.53.27.37.52a13,13,0,0,0-.8,2.07,49,49,0,0,0-1.84,4.86,3.68,3.68,0,0,1-.53,1.09,1.73,1.73,0,0,1-1.45.8,12.09,12.09,0,0,1-1.59-.18c-.57-.12-.54-.37-.48-.7a2.13,2.13,0,0,1,.36-.8c.12-.19.3-.38.57-.13a.92.92,0,0,0,.88.09c.24-.05.34-.41.23-.65-.58-1.32-1.11-2.65-1.59-4-.34-1-.76-1.91-1.19-3h1.76c.38,0,.54.19.65.53.41,1.34.86,2.67,1.34,4.15C315.85,26.37,316.21,24.83,316.78,23.24Z"/><path class="cls-6" d="M271.81,30.39h-1.92c0-1.31,0-2.58,0-3.84a2.07,2.07,0,0,0-.39-1.16,1.06,1.06,0,0,0-1.23-.47c-.46.08-.63.44-.82.86a3.18,3.18,0,0,0-.21,1.35v3.25h-1.86V23.24h1.27c.53,0,.53,0,.66.7a3.6,3.6,0,0,1,2.44-1,2.33,2.33,0,0,1,2.05,2.09C271.79,26.82,271.81,28.57,271.81,30.39Z"/><path class="cls-8" d="M255.25,24.11c.06.3-.2.47-.3.71-.29.73-.32.65-1.24.39a3,3,0,0,0-1.07-.3.74.74,0,0,0-.63.23c-.15.2-.17.36,0,.5s.5.43.76.45a5.47,5.47,0,0,1,1.73.75,1.86,1.86,0,0,1,.46,3,2.87,2.87,0,0,1-1.92.85,4.52,4.52,0,0,1-2.82-.73c-.62-.4-.71-.54-.19-1.12.17-.18,0-.59.45-.58.26,0,.41.17.62.25a4.3,4.3,0,0,0,1.71.48,1.37,1.37,0,0,0,.45-.07.41.41,0,0,0,.08-.74,3.07,3.07,0,0,0-1.42-.58,3.39,3.39,0,0,1-1.79-1.19,2.34,2.34,0,0,1,.16-2.18,2.7,2.7,0,0,1,2-1A4.52,4.52,0,0,1,255.25,24.11Z"/><path class="cls-8" d="M367.35,30.62c-1,.33-1.74-.4-2.58-.7-.43-.15-.47-.58-.21-1,.09-.13.3-.23.31-.35.05-.57.45-.4.67-.27.39.23.85.3,1.22.51s.61.07.9.13.46-.17.56-.35-.13-.47-.31-.56a7.34,7.34,0,0,0-1.45-.51,2.73,2.73,0,0,1-1.71-1.29,1.7,1.7,0,0,1,0-1.58,2,2,0,0,1,1.37-1.25,3.53,3.53,0,0,1,3,.24,1.05,1.05,0,0,0,.59.28.21.21,0,0,1,.23.31c-.19.4-.42.78-.64,1.16-.07.12-.14.2-.35.07a11.91,11.91,0,0,0-1.21-.52,1.16,1.16,0,0,0-.8,0,.52.52,0,0,0-.35.43.38.38,0,0,0,.25.37c.63.29,1.27.59,1.92.82a4.51,4.51,0,0,1,.49.28,1.71,1.71,0,0,1,.94,1.69,1.75,1.75,0,0,1-1,1.65A2.34,2.34,0,0,1,367.35,30.62Z"/><path class="cls-8" d="M276.13,30.64c-1,.27-1.71-.41-2.54-.73-.42-.17-.45-.58-.17-1,.09-.13.28-.23.29-.35.08-.57.46-.37.68-.23.39.24.85.29,1.23.5a1.82,1.82,0,0,0,1,.11.68.68,0,0,0,.43-.36c.11-.21-.08-.4-.25-.47a9.65,9.65,0,0,0-1.55-.58,2.81,2.81,0,0,1-1.7-1.31,1.68,1.68,0,0,1,.05-1.58A1.92,1.92,0,0,1,275,23.44a3.76,3.76,0,0,1,2.85.2,5.64,5.64,0,0,0,.71.31c.27.09.27.25.13.43-.28.36-.28.94-.68,1.13s-.65-.38-1.07-.36-.59-.32-1-.25a.7.7,0,0,0-.54.39c-.13.27.16.46.34.55a17.2,17.2,0,0,1,1.73.73,4.48,4.48,0,0,0,.49.26,1.65,1.65,0,0,1,1,1.73,1.77,1.77,0,0,1-1,1.64A2.61,2.61,0,0,1,276.13,30.64Z"/><path class="cls-8" d="M296.71,78.55h-.93V71.72c-.77,1.14-1.44,2.13-2.12,3.11l-1,1.35a4.34,4.34,0,0,1-1-1.32c-.7-1-1.35-2-2-3-.05,0-.09,0-.11.08a.16.16,0,0,0-.05.09v6.44c-.29.18-.57.07-.84.1a72.37,72.37,0,0,1-.07-8.55c1.07-.08,1.08-.09,1.63.78.73,1.17,1.44,2.35,2.16,3.53.16.25.3.24.48,0,.81-1.26,1.61-2.54,2.45-3.78.29-.42.69-.79,1.34-.46Z"/><path class="cls-8" d="M284.76,21.35h2.15v1.88h1.65v1.63c-.47.17-1,0-1.64.11v2.81c0,.93.26,1.18,1.12.87.37-.13.47.08.51.19a1.25,1.25,0,0,1-1.32,1.81,3.23,3.23,0,0,1-1.27-.09,1.9,1.9,0,0,1-1.18-1.89c-.07-1.11,0-2.23,0-3.34,0-.18.07-.44-.25-.41s-.51-.06-.47-.45a7.53,7.53,0,0,0,0-.95c0-.19.07-.31.27-.28.36.05.48-.09.46-.46S284.76,21.84,284.76,21.35Z"/><path class="cls-8" d="M306.83,21.36H309v1.85h1.66v1.68H309v3c0,.79.3,1,1.12.82.11,0,.16-.25.34-.06a1.45,1.45,0,0,1-.06,1.7c-.76.5-2.47.53-3.08-.29a2.36,2.36,0,0,1-.48-1.47c0-1.08,0-2.15,0-3.23,0-.38-.13-.44-.47-.45s-.26-.44-.24-.64-.32-.92.23-1,.49-.24.48-.59S306.83,21.82,306.83,21.36Z"/><path class="cls-7" d="M329.53,23.24c.74,0,1.3,0,1.85,0,.38,0,.54.19.65.53.42,1.34.86,2.67,1.29,4a19.74,19.74,0,0,0,1.61-4.49H337a1.15,1.15,0,0,1-.11.77c-.65,1.72-1.47,3.37-2,5.15-.12.41-.28,1-.58,1.14a3.47,3.47,0,0,1-1.64.06c-.19,0-.34-.25-.42-.5-.2-.63-.48-1.24-.71-1.86-.56-1.52-1.26-3-1.76-4.52C329.76,23.45,329.68,23.4,329.53,23.24Z"/><path class="cls-7" d="M293.67,23.24h1.05c1.19,0,1.26,0,1.53,1.07s.81,2.29,1.06,3.5c.54-.28.42-.84.62-1.23a12.06,12.06,0,0,0,.62-1.9c.14-.46.14-1.09.45-1.33s1.07-.09,1.61-.11.66.27.45.55a5.24,5.24,0,0,0-.62,1.42,41.77,41.77,0,0,0-1.54,4,7.06,7.06,0,0,1-.58,1.18h-1c-.88,0-1.07-.11-1.32-1a36.11,36.11,0,0,0-1.59-4.12C294.17,24.69,294,24,293.67,23.24Z"/><path class="cls-7" d="M171.79,78.57V70c1.46,0,2.92,0,4.38,0a2.61,2.61,0,0,1,2.08,1.68,2.08,2.08,0,0,1-1.2,2.48c.29.43.82.53,1.15.91a1.89,1.89,0,0,1-.35,2.88,2.86,2.86,0,0,1-1.88.66Z"/><path class="cls-8" d="M324.05,26.85c.23-2.4.89-4.23,2.86-5.34a.2.2,0,0,0,.09-.09c.17-.35.61-.3.83-.57a3.45,3.45,0,0,1,.7.9c.13.27.16.4,0,.59s-.63.62-.93.93a4.5,4.5,0,0,0-1.29,3.06,5,5,0,0,0,.7,2.83,11.05,11.05,0,0,0,1.33,1.48c.43.49.47.54.13,1.06-.1.16-.27.28-.39.44s-.25.09-.43,0a5.92,5.92,0,0,1-3-3.15c-.06-.16-.27-.25-.24-.37C324.5,27.89,324,27.26,324.05,26.85Z"/><path class="cls-8" d="M435.26,31.05a5.29,5.29,0,0,0,1.54-1.16,4.67,4.67,0,0,0,1.27-3.07,5,5,0,0,0-.49-2.43,4.1,4.1,0,0,0-1.78-1.88c-.27-.14-.55-.39-.07-.66.06,0,.16-.12.16-.17,0-.44.42-.54.6-.83a2.56,2.56,0,0,0,.85.54,7,7,0,0,1,2.07,2.14,2.36,2.36,0,0,1,.49,1.21c0,.93.71,1.84.08,2.77a5.06,5.06,0,0,1-1.92,3.75,8.28,8.28,0,0,1-1.31.87c-.28.18-.34.09-.53-.06C435.87,31.8,435.92,31.25,435.26,31.05Z"/><path class="cls-9" d="M172.77,51.48h-1v-8.6c1.49,0,3-.06,4.5,0a2.6,2.6,0,0,1,2.19,2.54,2.38,2.38,0,0,1-2.2,2.56l2.54,3.42c-.79.16-1.3.18-1.71-.62a6.64,6.64,0,0,0-1-1.29c-.37-.4-.55-1.12-1-1.31a5.16,5.16,0,0,0-1.89-.05h-.51Z"/><path class="cls-10" d="M319,73.08c.13-.73.13-.73.66-.74h.62c0,1.7.07,3.33,0,5a3,3,0,0,1-2.09,3c-.07,0-.12.15-.18.15a6.87,6.87,0,0,1-3.61-.5c-.21-.13-.34-.25-.14-.62s.24-.36.56-.17a5.67,5.67,0,0,0,2.27.57,2.41,2.41,0,0,0,1.8-.86c.06-.09.21-.2.2-.26-.16-.59.29-1.1.24-1.71-.3,0-.39.27-.55.41a3,3,0,0,1-3.77.19,3.07,3.07,0,0,1-1.21-2.26,2.68,2.68,0,0,1,.75-2.2,2.93,2.93,0,0,1,1.79-1A3.81,3.81,0,0,1,319,73.08Z"/><path class="cls-10" d="M285,86.47c.08-.38-.08-.86.54-.72a3.88,3.88,0,0,0,.7,0V91c-.35.7-.23,1.59-1,2.11a3.56,3.56,0,0,1-2.06.83,5.92,5.92,0,0,1-2.79-.5c-.35-.17-.38-.4-.17-.78.09-.19.27-.25.36-.16.44.45,1,.41,1.57.58a2.34,2.34,0,0,0,2.52-.6c.24-.23.48-.46.35-.81s.53-.82.16-1.3c-1.9,1.7-3.3,1.45-4.73.26a2.24,2.24,0,0,1-.71-1.48,3.12,3.12,0,0,1,.74-2.68,3.08,3.08,0,0,1,2.19-1C283.61,85.47,284.16,86.11,285,86.47Z"/><path class="cls-10" d="M347.38,58.74c0,1.7,0,3.4,0,5.1a3.55,3.55,0,0,1-.51,1.69,2.35,2.35,0,0,1-1.55,1.12c-.07,0-.11.15-.17.16a6.33,6.33,0,0,1-3.71-.55c-.2-.12-.21-.23-.08-.52s.18-.41.54-.23a4.64,4.64,0,0,0,2.27.6,2.41,2.41,0,0,0,1.89-.92c0-.06.15-.13.14-.18-.16-.59.29-1.1.24-1.67-.23-.16-.25.1-.36.15s-.16.18-.26.25a3,3,0,0,1-4.22-.22,1.85,1.85,0,0,1-.59-1.06,3.69,3.69,0,0,1,.14-2.27,3.08,3.08,0,0,1,1.82-1.68,2.33,2.33,0,0,1,2.4.43c.22.23.53.25.75.44C346.23,58.68,346.23,58.68,347.38,58.74Z"/><path class="cls-10" d="M249.87,63.22c-1.53,1.62-3.19,1.64-4.68.36a3.17,3.17,0,0,1-.27-3.81,3.35,3.35,0,0,1,2.18-1.34,3.59,3.59,0,0,1,2.49,1c.38-.09-.11-.66.37-.69.31,0,.62,0,1,0,0,1.69.07,3.32,0,5a3,3,0,0,1-2.08,3c-.07,0-.12.16-.17.16a6.8,6.8,0,0,1-3.62-.51c-.21-.12-.35-.24-.14-.61s.23-.35.56-.18a4.33,4.33,0,0,0,2.38.57,2.24,2.24,0,0,0,1.52-.67c.26-.28.47-.55.37-.93S250.2,63.76,249.87,63.22Z"/><path class="cls-11" d="M196,92h-1c0-1.41,0-2.79,0-4.18a1.52,1.52,0,0,0-1.93-1.52,1.26,1.26,0,0,0-1,.81,4.7,4.7,0,0,0-.44,1.73c0,1,0,2.06,0,3.08-.28.2-.56.07-.83.11a.32.32,0,0,1-.13-.3c0-1.28,0-2.55,0-3.83a1.51,1.51,0,0,0-2.36-1.4.94.94,0,0,0-.53.54,4.05,4.05,0,0,0-.47,1.84c0,1,0,2.06,0,3.12h-.91V85.81c.86,0,.86,0,1,.62,1.81-1.49,2.91-1.15,4.12.29.2-.2.41-.39.59-.6a2.45,2.45,0,0,1,3.77.63,1.18,1.18,0,0,1,.07.69C196,88.91,196,90.39,196,92Z"/><path class="cls-11" d="M219.75,92h-.92V85.87c.87-.14.87-.14.94.54.36.08.52-.3.68-.44a2.42,2.42,0,0,1,1.75-.46,1.92,1.92,0,0,1,1.34.8c.13.14.24.31.36.46l.57-.58c1-1,2.17-.8,3.35-.16.06.49.62.72.59,1.32-.07,1.51,0,3,0,4.53-.31.24-.61,0-1,.15,0-1.46,0-2.81,0-4.15a1.58,1.58,0,0,0-2.47-1.4,1,1,0,0,0-.43.5,4.4,4.4,0,0,0-.47,1.84c0,1,0,2.06,0,3.07a2,2,0,0,1-1,.09c0-1.34,0-2.69,0-4a2.17,2.17,0,0,0-.18-.88,1.34,1.34,0,0,0-1.34-.82,1.22,1.22,0,0,0-1.37.78,4.45,4.45,0,0,0-.47,1.72C219.76,89.78,219.75,90.82,219.75,92Z"/><path class="cls-12" d="M492.73,86.43v-3.2c.4-.21.79,0,1.12-.12.06.1.1.13.1.16q0,4.31,0,8.6c-.21.21-.47.06-.69.12-.59.14-.51-.29-.54-.68-.36,0-.44.55-.83.45a2.73,2.73,0,0,1-3.76-.68,3.64,3.64,0,0,1,.13-4.53,2.81,2.81,0,0,1,4.08-.36C492.46,86.27,492.5,86.45,492.73,86.43Z"/><path class="cls-12" d="M308,100V96.87c.36-.2.75,0,1.16-.13v8.83c-.1.15-.31.07-.5.07-.6,0-.6,0-.75-.69a3.56,3.56,0,0,1-2.1.94,3,3,0,0,1-2.32-1.06,3.59,3.59,0,0,1,0-4.61,2.8,2.8,0,0,1,4.07-.39c.11.08.15.26.22.39Z"/><path class="cls-12" d="M272,105.64h-.51c-.59,0-.59,0-.75-.7a3.71,3.71,0,0,1-2,1,2.91,2.91,0,0,1-2.51-1.15,3.61,3.61,0,0,1,.1-4.53,2.8,2.8,0,0,1,4.07-.37c.11.07.14.26.39.26V96.86a3.22,3.22,0,0,1,1.2-.07Z"/><path class="cls-12" d="M279.68,78.57h-.49c-.61,0-.61,0-.75-.69a3.58,3.58,0,0,1-2.11.94,2.91,2.91,0,0,1-2.31-1,3.61,3.61,0,0,1,0-4.62,2.81,2.81,0,0,1,4.16-.31l.34.29v-3.4h1.16Z"/><path class="cls-12" d="M215.87,78.57h-.5c-.6,0-.6,0-.75-.69a3.56,3.56,0,0,1-2.1.94,2.94,2.94,0,0,1-2.32-1,3.62,3.62,0,0,1,0-4.62,2.82,2.82,0,0,1,4.17-.31l.3.26V69.8a3,3,0,0,1,1.2-.08Z"/><path class="cls-11" d="M382.12,30.4H380V20.65c.65-.15,1.35,0,2.08-.08Z"/><path class="cls-11" d="M398.43,30.4h-2.07V20.62h2.07Z"/><path class="cls-11" d="M394.36,30.4h-2.08V20.65c.64-.14,1.34,0,2.08-.07Z"/><path class="cls-13" d="M371.45,91.06c-.16.26-.05.54-.08.81-.28.27-.6,0-.93.16V83.21c.24-.18.55-.07.93,0v3.6a11.29,11.29,0,0,1,1.16-.87,2.85,2.85,0,0,1,4,1.23,4,4,0,0,1,.35,2.7,2.74,2.74,0,0,1-1,1.71,3.28,3.28,0,0,1-3.2.47C372.11,91.78,371.91,91.28,371.45,91.06Z"/><path class="cls-13" d="M228.18,69.73h.92v3.61c.48-.29.74-.65,1.16-.86a2.84,2.84,0,0,1,4,1.22,3.91,3.91,0,0,1,.36,2.7,2.81,2.81,0,0,1-1,1.71,3.28,3.28,0,0,1-3.21.48c-.48-.23-.68-.73-1.14-1-.17.26-.05.54-.09.81-.27.28-.59,0-.92.17Z"/><path class="cls-13" d="M198.89,90.92v2.9a1.62,1.62,0,0,1-.95,0v-8a1.48,1.48,0,0,1,.91,0l0,.79c.07.13.11.12.19,0a3.17,3.17,0,0,1,2.16-1.13,2.89,2.89,0,0,1,2.58,1.26,3.62,3.62,0,0,1-.22,4.43,2.8,2.8,0,0,1-4.24.18A6,6,0,0,1,198.89,90.92Z"/><path class="cls-11" d="M176.72,85a3.47,3.47,0,0,0-2.64-1,2.2,2.2,0,0,0-1.57,1.08c-.3.39.26,1.38.81,1.54l2.46.73c.89.27,1.29.92,1.79,1.74.39.64,0,1-.11,1.49a1.61,1.61,0,0,1-.91,1.09,4.48,4.48,0,0,1-4.75-.35,1.62,1.62,0,0,0-.41-.17.22.22,0,0,1-.09-.3,1.87,1.87,0,0,1,.49-.52c.29-.18.33.19.5.3a5.2,5.2,0,0,0,2.43.81,3.65,3.65,0,0,0,1.21-.3c.68-.18.84-1.41.42-2a2.13,2.13,0,0,0-1.46-.81c-.45-.07-.89-.2-1.32-.31a2.32,2.32,0,0,1-1.8-3.28,2.64,2.64,0,0,1,2.41-1.48,4.57,4.57,0,0,1,2.56.47c.68.41.71.41.2,1Z"/><path class="cls-9" d="M260,91.88c-1,.12-1,.12-1.31-.62a10.77,10.77,0,0,0-.56-1.33c-.14-.23-.2-.34-.46-.34-1.32,0-2.64,0-3.95,0-.41,0-.41.26-.51.47-.21.47-.4.95-.61,1.42a.79.79,0,0,1-.9.53c-.52,0-.1-.21-.11-.36a1.65,1.65,0,0,1,.27-.86c.65-1.41,1.31-2.8,1.95-4.21a29.91,29.91,0,0,1,1.35-2.79c.3-.52,1-.59,1.21-.06a3.69,3.69,0,0,1,.48,1,5.21,5.21,0,0,0,.53,1.35c.78,1.75,1.6,3.48,2.38,5.23C259.88,91.47,260.21,91.58,260,91.88Z"/><path class="cls-7" d="M211.16,60.13h4.34c.19,0,.42-.06.41.26s.07.47-.33.46c-.84,0-1.68,0-2.52,0h-1.92V64.2h5c.33,0,.24.24.25.42s0,.3-.25.3c-.64,0-1.28,0-1.92,0h-4V56.29h5.85c.26,0,.32.09.34.34s-.13.39-.42.39c-1.16,0-2.32,0-3.48,0h-1.34Z"/><path class="cls-7" d="M171.81,56.29h5.79c.18,0,.41,0,.41.26s.06.48-.33.47c-.68,0-1.36,0-2,0h-2.88v3.12c1.46,0,2.93,0,4.4,0,.35,0,.37.15.37.43s-.15.3-.37.3h-4.38V64.2c1.64,0,3.27,0,4.9,0,.39,0,.32.24.33.47s-.23.26-.41.26h-5.79Z"/><path class="cls-7" d="M408.59,23.26h1.79c.22.29-.05.65.27,1,.17-.22.35-.43.5-.64a1.46,1.46,0,0,1,1.68-.58v1.83c-.44-.11-.82.19-1.24.32a1.3,1.3,0,0,0-.85,1.25c0,.43-.34.68-.28,1.1a7.88,7.88,0,0,1,0,1.19v1.65c-.61.07-1.23,0-1.88,0Z"/><path class="cls-7" d="M246.38,30.39h-1.9V23.28h1.83c.26.21-.1.65.17.92.68-.53,1.09-1.58,2.3-1.12,0,.22,0,.45,0,.68s.19,1-.13,1.09a3.12,3.12,0,0,1-.95.31c-.68,0-.95.67-1,1.1a6.48,6.48,0,0,0-.31,1.92A20.2,20.2,0,0,1,246.38,30.39Z"/><path class="cls-13" d="M504.27,91.94c-.91,0-.91,0-1-.66a3.42,3.42,0,0,1-2.69,1,2.83,2.83,0,0,1-2-1.63c-.15-.51.23-.88.29-1.33s.49-.52.84-.73a2.56,2.56,0,0,1,1.63-.39c.56.07,1.16-.2,1.7.22.16.12.38,0,.35-.29a2,2,0,0,0-2.49-1.85c-.26.42-.74.1-1.06.31s-.45-.1-.51-.29-.14-.46.26-.52a6,6,0,0,1,1.58-.23,2.48,2.48,0,0,0,.72,0c1.06-.1,1.57.72,2.21,1.31-.08.44.22.81.23,1.21C504.3,89.33,504.27,90.64,504.27,91.94Z"/><path class="cls-13" d="M340,92c-1,0-1,0-1-.71-.22.19-.39.46-.58.47s-.4.21-.61.28a2.54,2.54,0,0,1-3.13-.66c-.25-.32-.55-.69-.42-1.12s.13-1.09.64-1.4a2.69,2.69,0,0,1,1.88-.66c.64.1,1.32-.24,1.94.22.18.13.38-.08.31-.32-.16-.58-.24-1.24-.83-1.56a1.78,1.78,0,0,0-1.75-.15c-.36.22-.77-.06-1.09.28-.11.11-.37-.17-.39-.4s-.11-.38.18-.48a9.84,9.84,0,0,1,3-.23c.67.48,1.4.8,1.64,1.79C340.11,88.84,339.79,90.36,340,92Z"/><path class="cls-13" d="M198.2,105.63c-.95,0-.95,0-1-.74a3.33,3.33,0,0,1-2.66,1,2.6,2.6,0,0,1-2.09-1.68c-.1-.45.19-.8.26-1.21s.51-.61.9-.8a4.58,4.58,0,0,1,3.23-.2c.32.1.45,0,.41-.31a1.84,1.84,0,0,0-2.6-1.67c-.36.14-.8-.11-1.1.28-.05.07-.37-.19-.37-.43s-.1-.37.2-.47a9.84,9.84,0,0,1,3-.23c.64.51,1.39.81,1.62,1.82C198.31,102.52,198,104,198.2,105.63Z"/><path class="cls-13" d="M200.32,78.51c-.91,0-.91,0-1-.68a3.23,3.23,0,0,1-2.79,1,2.8,2.8,0,0,1-1.93-1.6c-.14-.5.19-.89.28-1.33s.48-.52.83-.73a2.49,2.49,0,0,1,1.62-.41c.57.08,1.17-.21,1.71.21.17.13.38,0,.37-.26a1.89,1.89,0,0,0-2.56-1.79,4.77,4.77,0,0,1-.89.16c-.54.1-.64,0-.63-.43,0-.13.05-.3.14-.27.43.14.69-.32,1.1-.27a5.74,5.74,0,0,0,1.31,0c1.07-.11,1.58.69,2.22,1.29-.09.48.26.87.26,1.32C200.32,76,200.32,77.25,200.32,78.51Z"/><path class="cls-13" d="M388.64,91.94c-.91,0-.91,0-1.05-.65a3.49,3.49,0,0,1-2.7.95,2.79,2.79,0,0,1-2-1.64c-.14-.5.22-.88.29-1.33s.44-.59.85-.71.62-.45,1-.4c.74.08,1.5-.21,2.21.16a.39.39,0,0,0,.32.06c.17-.08.14-.28.11-.42A1.82,1.82,0,0,0,385,86.41c-.33.11-.68-.07-1,.21s-.37-.16-.41-.37-.11-.41.16-.49a5.32,5.32,0,0,1,3.1-.15,1.87,1.87,0,0,1,1.53,1.81,2.44,2.44,0,0,1,.24,1.57C388.65,90,388.64,90.9,388.64,91.94Z"/><path class="cls-13" d="M241.58,78.51c-.91,0-.91,0-1-.68a3.26,3.26,0,0,1-2.8,1,2.76,2.76,0,0,1-1.92-1.6c-.15-.5.19-.89.28-1.33s.48-.52.82-.73a2.53,2.53,0,0,1,1.63-.41c.56.08,1.16-.21,1.71.21.16.13.38,0,.36-.26a1.89,1.89,0,0,0-2.56-1.79,4.82,4.82,0,0,1-.88.16c-.55.1-.65,0-.64-.43,0-.13.06-.3.14-.27.43.14.69-.32,1.1-.27a5.82,5.82,0,0,0,1.32,0c1.06-.11,1.57.69,2.21,1.29-.08.48.26.87.27,1.32C241.59,76,241.58,77.25,241.58,78.51Z"/><path class="cls-13" d="M304.24,78.54c-1,0-1,0-1-.7-.26.12-.4.46-.58.46s-.41.21-.61.29a2.91,2.91,0,0,1-2.33,0,2.18,2.18,0,0,1-1-.92c-.14-.24-.39-.5-.26-.85a6.7,6.7,0,0,1,.42-1.14,2,2,0,0,1,1.52-.88,4.08,4.08,0,0,1,2.53.18c.2.11.36-.06.34-.32a1.86,1.86,0,0,0-2.59-1.71c-.36.13-.76,0-1.09.27-.13.13-.37-.16-.39-.38s-.12-.4.17-.49a9.82,9.82,0,0,1,3-.24c.67.48,1.4.8,1.64,1.79C304.37,75.42,304,76.94,304.24,78.54Z"/><path class="cls-13" d="M248.83,78.58c-1,0-1,0-1.07-.73a3.54,3.54,0,0,1-2.79,1,2.67,2.67,0,0,1-2-1.7c-.1-.46.23-.79.28-1.21s.47-.53.8-.74a2.36,2.36,0,0,1,1.62-.42c.57.07,1.17-.22,1.72.18.25.17.43,0,.39-.33a1.88,1.88,0,0,0-2.43-1.74c-.36.1-.73.15-1.09.24s-.51,0-.56-.32,0-.35.34-.47a7.25,7.25,0,0,1,2.66-.19c.69,0,1.61,1,1.81,1.7C249,75.37,248.63,76.94,248.83,78.58Z"/><path class="cls-14" d="M396.19,91.88a1.64,1.64,0,0,1-2-.81,14.67,14.67,0,0,0-1.55-2l-.11.11a5,5,0,0,0-1.15,1.2,3.85,3.85,0,0,0,0,1.48,2,2,0,0,1-.93.06V83.15h.9v6.09c1.05-1,2-1.94,2.87-2.89a1.45,1.45,0,0,1,1.72-.5L393.68,88c-.23.22-.23.35-.1.68.21.53.82.73.89,1.31C395.11,90.54,395.36,91.41,396.19,91.88Z"/><path class="cls-14" d="M240.62,102.88c1-1,2-1.93,2.87-2.88a1.47,1.47,0,0,1,1.72-.5c-.75.75-1.47,1.48-2.2,2.19-.23.22-.2.36-.08.68a5.76,5.76,0,0,0,.93,1.28,6.52,6.52,0,0,0,1.61,1.89c-1,.33-1.49-.13-2-.82a12.64,12.64,0,0,0-1.55-2,10.58,10.58,0,0,0-1.2,1.22c-.33.46,0,1.07-.17,1.62h-.86V96.8h.91Z"/><path class="cls-15" d="M273.65,89.11c-1.57,0-3.09,0-4.6,0-.37,0-.41.19-.36.44a2.16,2.16,0,0,0,2.51,1.93,2.44,2.44,0,0,0,1.69-.94l.5.69c0-.06,0,0,0,0a3.37,3.37,0,0,1-4.89-.11,3.41,3.41,0,0,1-.77-2.32,3.62,3.62,0,0,1,1.06-2.57,2.49,2.49,0,0,1,2.85-.59c.31.11.66.07.91.41s.79.67.9,1.18S273.93,88.4,273.65,89.11Z"/><path class="cls-15" d="M236,89.11h-4.53c-.4,0-.55.21-.45.58.16.53.6,1.33,1,1.47a2.44,2.44,0,0,0,1.53.34,3.3,3.3,0,0,0,1.67-1l.54.62a3.33,3.33,0,0,1-5,0,3.5,3.5,0,0,1-.74-2.33,3.59,3.59,0,0,1,1.07-2.56,2.73,2.73,0,0,1,2.77-.64,2.42,2.42,0,0,1,1.63,1.21A2.91,2.91,0,0,1,236,89.11Z"/><path class="cls-15" d="M482.37,89.11h-4.53c-.38,0-.54.23-.44.59s.62,1.34,1,1.47a2.58,2.58,0,0,0,1.41.33,3.17,3.17,0,0,0,1.78-1l.56.62a3.25,3.25,0,0,1-2.85,1.08,2.93,2.93,0,0,1-2.08-1,3.36,3.36,0,0,1-.82-2.41,3.52,3.52,0,0,1,1.08-2.55,2.71,2.71,0,0,1,2.77-.63,2.36,2.36,0,0,1,1.62,1.2A2.84,2.84,0,0,1,482.37,89.11Z"/><path class="cls-15" d="M213.68,102.77h-4.49c-.44,0-.62.18-.47.54.24.55.38,1.22,1,1.49a2.17,2.17,0,0,0,1.52.35,3.24,3.24,0,0,0,1.7-1l.5.69c0-.06,0,0,0,0a3.36,3.36,0,0,1-4.9-.11,3.45,3.45,0,0,1-.76-2.32,3.53,3.53,0,0,1,1.05-2.56,2.49,2.49,0,0,1,2.85-.59c.32.1.67.07.92.4s.79.68.9,1.18S214,102.06,213.68,102.77Z"/><path class="cls-15" d="M229.71,104.21l.54.54c.05.06,0,.1-.06.17a3.38,3.38,0,0,1-4.9-.1,3.51,3.51,0,0,1-.77-2.32,3.64,3.64,0,0,1,1.13-2.65,2.41,2.41,0,0,1,2.76-.5c.25.08.54-.06.75.22s.61.54.82.86a4.21,4.21,0,0,1,.51,1.22,5.56,5.56,0,0,1,.06,1.12H226c-.49,0-.59.16-.44.64a2.16,2.16,0,0,0,.94,1.38,2.57,2.57,0,0,0,1.52.37A5.55,5.55,0,0,0,229.71,104.21Z"/><path class="cls-15" d="M279.48,104.79a3.44,3.44,0,0,1-3.37,1.07,3.17,3.17,0,0,1-2.38-2.84,3.9,3.9,0,0,1,.38-2.23c1.12-1.82,2.2-2,4-1.34a2.37,2.37,0,0,1,1.37,1.64,2.66,2.66,0,0,1,.19,1.68H275.1c-.36,0-.49.16-.41.49a2.34,2.34,0,0,0,1.75,1.86c.83.24,1.45-.24,2.11-.59.13-.07.21-.23.31-.35Z"/><path class="cls-15" d="M186.16,75.73h-5a2.31,2.31,0,0,0,1.16,2.11c1,.52,1.89.28,3.07-.68l.51.51c.07.06,0,.09,0,.17a3.35,3.35,0,0,1-4.89-.09,2.7,2.7,0,0,1-.77-1.94,3.76,3.76,0,0,1,.46-2.21,3.34,3.34,0,0,1,1.57-1.44,3,3,0,0,1,2.38.22A3.32,3.32,0,0,1,186.16,75C186.18,75.22,186.16,75.41,186.16,75.73Z"/><path class="cls-15" d="M222.65,77l.64.65c.06,0,0,.09,0,.17a3.38,3.38,0,0,1-4.9-.1,3.43,3.43,0,0,1-.78-2.31,3.61,3.61,0,0,1,1.13-2.65,2.46,2.46,0,0,1,2.77-.53c1.46.48,2.15,1.62,2.09,3.44-1.5,0-3,0-4.51,0-.49,0-.6.17-.45.63a2.3,2.3,0,0,0,1.35,1.54c1,.51,1.73,0,2.5-.44C222.55,77.36,222.58,77.17,222.65,77Z"/><path class="cls-15" d="M520.71,90.55l.55.55a.4.4,0,0,1-.08.16,3.35,3.35,0,0,1-4.89-.1,3.46,3.46,0,0,1-.77-2.32,3.54,3.54,0,0,1,1.14-2.64,2.65,2.65,0,0,1,2.77-.55A2.42,2.42,0,0,1,521,86.79a3,3,0,0,1,.52,2.32H517c-.49,0-.58.17-.44.64a2.16,2.16,0,0,0,.94,1.39,2.57,2.57,0,0,0,1.52.37A5.61,5.61,0,0,0,520.71,90.55Z"/><path class="cls-15" d="M317.57,89.11H313c-.41,0-.56.21-.45.58a2.56,2.56,0,0,0,1,1.48,2.5,2.5,0,0,0,1.53.33,3.29,3.29,0,0,0,1.67-1l.52.64a3.32,3.32,0,0,1-5,0,3.45,3.45,0,0,1-.73-2.32,3.55,3.55,0,0,1,1.07-2.56,2.73,2.73,0,0,1,2.77-.64,2.44,2.44,0,0,1,1.63,1.21A3,3,0,0,1,317.57,89.11Z"/><path class="cls-15" d="M268.68,75.7c-1.58,0-3.09,0-4.6,0-.38,0-.58.26-.42.59.31.63.53,1.27,1.33,1.59,1.21.49,2-.06,2.88-.72l.57.56a3.42,3.42,0,0,1-3.36,1.07A3.21,3.21,0,0,1,262.69,76a3.8,3.8,0,0,1,.47-2.44,3.09,3.09,0,0,1,1.63-1.39,3,3,0,0,1,2.36.27A3.47,3.47,0,0,1,268.68,75.7Z"/><path class="cls-15" d="M362,75.7c-1.59,0-3.1,0-4.62,0-.35,0-.43.16-.36.42a2.24,2.24,0,0,0,2.49,2,4.64,4.64,0,0,0,1.68-.93l.47.61c.15,0,.11,0,0,.08A3.27,3.27,0,0,1,356,75.43a3.57,3.57,0,0,1,1.13-2.65,2.7,2.7,0,0,1,2.77-.55,2.42,2.42,0,0,1,1.54,1.14A3,3,0,0,1,362,75.7Z"/><path class="cls-15" d="M332.88,89.11h-4.5c-.38,0-.59.25-.43.59.31.63.52,1.27,1.32,1.6,1.2.49,2-.06,2.9-.73l.53.6c-.88,1.12-2.14,1.12-3.43,1.06-.55-.41-1.3-.56-1.66-1.19a3.69,3.69,0,0,1-.65-1.89A3.83,3.83,0,0,1,328,86.24a2.59,2.59,0,0,1,2.76-.59,1.56,1.56,0,0,1,1,.47c.3.39.8.7.89,1.18S333.22,88.44,332.88,89.11Z"/><path class="cls-15" d="M528.67,89.11h-4.53c-.38,0-.59.26-.43.59.31.63.52,1.27,1.32,1.6,1.21.48,2-.07,2.9-.73l.55.58c-.9,1.13-2.16,1.15-3.46,1.08-.54-.41-1.29-.56-1.65-1.19a3.72,3.72,0,0,1-.65-1.89,3.83,3.83,0,0,1,1.08-2.91,2.76,2.76,0,0,1,2.77-.62,2.39,2.39,0,0,1,1.63,1.21A2.85,2.85,0,0,1,528.67,89.11Z"/><path class="cls-15" d="M362.42,89.11h-4.53c-.38,0-.59.25-.43.59.31.63.49,1.34,1.32,1.58,1.29.36,1.71.28,2.88-.74l.56.62a3.25,3.25,0,0,1-2.85,1.08,2.93,2.93,0,0,1-2.08-1,3.38,3.38,0,0,1-.82-2.41,3.52,3.52,0,0,1,1.08-2.55,2.71,2.71,0,0,1,2.77-.63,2.36,2.36,0,0,1,1.62,1.2A2.84,2.84,0,0,1,362.42,89.11Z"/><path class="cls-15" d="M297.18,62h-4.51c-.43,0-.62.2-.46.56.24.55.38,1.22,1,1.48a2.61,2.61,0,0,0,1.53.36,6.25,6.25,0,0,0,1.69-1l.51.66a1,1,0,0,1-.14.16,3.35,3.35,0,0,1-4.8-.21,3.41,3.41,0,0,1-.77-2.2,3.66,3.66,0,0,1,1.15-2.77,2.53,2.53,0,0,1,2.68-.56C296.51,58.94,297.28,60.25,297.18,62Z"/><path class="cls-15" d="M402.79,89.14h-5c.07,1.64.79,2.24,2.3,2.36a2,2,0,0,0,1.5-.66c.38-.35.49-.17.7.07l.23.24a3.4,3.4,0,0,1-3.38,1,3.16,3.16,0,0,1-2.36-3,3.62,3.62,0,0,1,.45-2.21,3.3,3.3,0,0,1,1.57-1.44,3,3,0,0,1,2.37.21,3.29,3.29,0,0,1,1.6,2.64C402.81,88.62,402.79,88.82,402.79,89.14Z"/><path class="cls-15" d="M290,62.07h-5c.07,1.65.79,2.24,2.3,2.36a2,2,0,0,0,1.5-.66c.38-.35.49-.16.7.07l.22.24a3.39,3.39,0,0,1-3.38,1,3.17,3.17,0,0,1-2.36-3A3.64,3.64,0,0,1,284.5,60a3.3,3.3,0,0,1,1.57-1.44,3,3,0,0,1,2.36.22A3.25,3.25,0,0,1,290,61.36C290.06,61.55,290,61.75,290,62.07Z"/><path class="cls-15" d="M312.86,62h-4.42c-.36,0-.51.18-.4.5a2.43,2.43,0,0,0,1.66,1.81c.88.28,1.45-.19,2.11-.48s.51-.3.94.13a.27.27,0,0,1,.07.08,3.18,3.18,0,0,1-3.36,1,3,3,0,0,1-2.38-2.93,3.71,3.71,0,0,1,.44-2.21c1.1-1.76,2.26-1.82,3.93-1.24a2.23,2.23,0,0,1,1.35,1.64C312.91,60.88,313.4,61.35,312.86,62Z"/><path class="cls-12" d="M285.94,100.47a3.77,3.77,0,0,1,.38-.57,2.25,2.25,0,0,1,3.35,0,1.68,1.68,0,0,1,.63,1.43c-.06,1.42,0,2.85,0,4.25a1.81,1.81,0,0,1-1,.07v-3.9a2.72,2.72,0,0,0-.07-.81,1.54,1.54,0,0,0-2.12-.88,2.1,2.1,0,0,0-1.4,2.14c-.05,1.11,0,2.23,0,3.34-.27.3-.59,0-.92.18V96.86c.24-.18.54-.07.92,0v3.53Z"/><path class="cls-12" d="M305.37,86.82a3.82,3.82,0,0,1,.29-.48c1.14-1.37,2.88-1,3.95.38a.65.65,0,0,1,.1.44V91.9a1.91,1.91,0,0,1-1,.07c0-1.3,0-2.6,0-3.9a2.43,2.43,0,0,0-.07-.81,1.55,1.55,0,0,0-2.12-.89,2.08,2.08,0,0,0-1.39,2.14c-.06,1.11,0,2.23,0,3.36-.27.21-.58.1-.91.09V83.15h.91v3.53Z"/><path class="cls-12" d="M371.82,73.4a3.77,3.77,0,0,1,.38-.57,2.26,2.26,0,0,1,3.36,0,1.7,1.7,0,0,1,.62,1.43c-.06,1.42,0,2.85,0,4.31h-1c0-1.33,0-2.67,0-4a1.5,1.5,0,0,0-.12-.79A1.56,1.56,0,0,0,373,73a2.08,2.08,0,0,0-1.39,2.14c-.05,1.11,0,2.23,0,3.36-.28.2-.59.1-.92.08V69.79c.23-.17.54-.07.92-.05v3.53Z"/><path class="cls-12" d="M256.45,78.54h-.92V69.79a1.47,1.47,0,0,1,.94,0v3.77l.68-.8a2.32,2.32,0,0,1,3.2,0,2.05,2.05,0,0,1,.68,1.65c-.06,1.36,0,2.71,0,4.08-.27.22-.58.1-1,.09,0-1.39,0-2.77,0-4.15a1.34,1.34,0,0,0-.9-1.41c-.87-.34-2.22.08-2.43.93a4.8,4.8,0,0,0-.29,1.57C256.51,76.47,256.45,77.47,256.45,78.54Z"/><path class="cls-12" d="M430.86,92h-1c0-1.41,0-2.79,0-4.17s-1-1.81-2.22-1.4-1.28,1.26-1.36,2.16c-.08,1.11,0,2.23,0,3.36a1.55,1.55,0,0,1-.93,0V83.19a1.51,1.51,0,0,1,.92,0v3.46c.29.09.33-.17.46-.26a2.65,2.65,0,0,0,.34-.33,2.28,2.28,0,0,1,2.56-.3c.48.23.75.69,1.13,1,.18.15.08.38.08.57C430.87,88.84,430.86,90.35,430.86,92Z"/><path class="cls-12" d="M188.56,78.54h-.93V69.79a1.51,1.51,0,0,1,1,0v3.77l.67-.8a2.33,2.33,0,0,1,3.21,0,2.05,2.05,0,0,1,.68,1.65c-.06,1.36,0,2.71,0,4.08-.27.22-.58.1-1,.09,0-1.39,0-2.77,0-4.15a1.34,1.34,0,0,0-.9-1.41c-.87-.34-2.22.08-2.43.93a4.8,4.8,0,0,0-.29,1.57C188.62,76.47,188.56,77.47,188.56,78.54Z"/><path class="cls-12" d="M469.28,83.14h.93v3.54l.21.13a3.24,3.24,0,0,1,.38-.56,2.24,2.24,0,0,1,3.36,0,1.67,1.67,0,0,1,.62,1.43c-.06,1.42,0,2.85,0,4.26a2,2,0,0,1-1,0c0-1.29,0-2.6,0-3.9a2.63,2.63,0,0,0-.07-.8,1.55,1.55,0,0,0-2.12-.89,2.09,2.09,0,0,0-1.39,2.14c-.05,1.12,0,2.23,0,3.36-.28.2-.59.1-.93.08Z"/><path class="cls-11" d="M443.82,88.91c.13,1.73-.87,2.58-2.21,3.22A3.45,3.45,0,0,1,438,91a3.67,3.67,0,0,1,.48-4.79,3.36,3.36,0,0,1,5.37,1.6A3.18,3.18,0,0,1,443.82,88.91Z"/><path class="cls-11" d="M199.38,48.23c-.25-.71.19-1.32.51-1.89a3,3,0,0,1,1.64-1.2,3.37,3.37,0,0,1,3.83,1.35,3.49,3.49,0,0,1,0,3.79,3,3,0,0,1-2.41,1.47,3.22,3.22,0,0,1-2.55-.79A3,3,0,0,1,199.38,48.23Z"/><path class="cls-11" d="M330.35,75.34a2.38,2.38,0,0,1,.53-1.93,3,3,0,0,1,1.64-1.2,3.35,3.35,0,0,1,3.82,1.35,3.48,3.48,0,0,1,0,3.78,3,3,0,0,1-2.42,1.48,3.36,3.36,0,0,1-2.55-.79,4.66,4.66,0,0,1-.87-1.32C330.21,76.25,330.45,75.79,330.35,75.34Z"/><path class="cls-11" d="M267.25,61.48a3.51,3.51,0,0,1-.3,2,3.37,3.37,0,0,1-6.1-.47,3.67,3.67,0,0,1,2.19-4.5,3.55,3.55,0,0,1,4.16,2.23A2.36,2.36,0,0,1,267.25,61.48Z"/><path class="cls-11" d="M217.11,89c.12,1.48-.74,2.49-2.18,3.14a3.35,3.35,0,0,1-4.27-2.23,3.62,3.62,0,0,1,1-3.62,3.36,3.36,0,0,1,5,.86A3.86,3.86,0,0,1,217.11,89Z"/><path class="cls-11" d="M257.62,102.8c0-1.76.61-2.8,2-3.41a3.36,3.36,0,0,1,4.06,1.36,3.81,3.81,0,0,1,.1,3.4,3.16,3.16,0,0,1-2.85,1.74,3,3,0,0,1-2.55-1.07A2.58,2.58,0,0,1,257.62,102.8Z"/><path class="cls-10" d="M304.66,23.28v7.1h-2.07s0,0,0,0a.2.2,0,0,1,0-.11c0-2.3,0-4.61,0-6.95Z"/><path class="cls-10" d="M282.57,30.4h-2.09V23.26c.65-.05,1.35,0,2.09,0Z"/><path class="cls-10" d="M425.57,23.28v7.1H423.5l0,0a.19.19,0,0,1,0-.1c0-2.31,0-4.62,0-7Z"/><path class="cls-10" d="M292.42,23.28v7.1h-2.06s0,0,0,0a.21.21,0,0,1,0-.1v-7Z"/><path class="cls-10" d="M178.76,85.82c.57-.15,1-.12,1.24.59.33.93.83,1.8,1.14,2.76a10.16,10.16,0,0,0,.81,1.57c.23-.11.31-.3.4-.58a23.12,23.12,0,0,1,.85-2.28c.18-.45.4-.88.56-1.33.28-.78.27-.79,1.18-.7a12.37,12.37,0,0,1-1,2.68c-.41,1.25-1.11,2.41-1.6,3.64a4.68,4.68,0,0,1-1.07,1.48.72.72,0,0,1-.62.26c-.43,0-.88,0-1.31,0a.49.49,0,0,1-.37-.54.6.6,0,0,1,.63-.35c.1,0,.18.17.28.19a1.21,1.21,0,0,0,1.42-1.59c-.18-.44-.32-.89-.55-1.33-.73-1.4-1.36-2.86-2-4.3C178.72,85.93,178.75,85.88,178.76,85.82Z"/><path class="cls-12" d="M446.56,86.55c.24-.5.75-.55,1.08-.87s1.48-.17,2,0,.83.69,1.25,1c.19.15.11.36.11.55,0,1.55,0,3.09,0,4.62-.3.17-.58.07-1,.09V88.8c0-.36,0-.72,0-1.08a1.53,1.53,0,0,0-2.18-1.36,2.11,2.11,0,0,0-1.4,2.14c-.07,1.14,0,2.29,0,3.46h-.92V85.81C446.4,85.77,446.4,85.77,446.56,86.55Z"/><path class="cls-12" d="M223.83,64.81c-.08.06-.11.1-.14.1h-.77V58.76c.85-.06.85-.06,1,.69a4.51,4.51,0,0,1,.49-.49,2.82,2.82,0,0,1,2.18-.51,2.53,2.53,0,0,1,1.34.83,1.37,1.37,0,0,1,.48,1.13c0,1.47,0,2.94,0,4.43a1.57,1.57,0,0,1-1,0c0-1.32,0-2.63,0-3.94,0-1.51-1.09-2.16-2.46-1.52a2.12,2.12,0,0,0-1.11,2C223.77,62.54,223.83,63.7,223.83,64.81Z"/><path class="cls-12" d="M185.68,64.89h-.91V58.82c.85-.17.85-.17,1,.66.24-.5.75-.55,1.08-.87s1.48-.17,2,0,.83.69,1.25,1c.15.12.11.28.11.43v4.74c-.3.17-.58.08-1,.09V61a2.72,2.72,0,0,0-.06-.81,1.58,1.58,0,0,0-2.12-.91,2.09,2.09,0,0,0-1.4,2.14C185.63,62.57,185.68,63.72,185.68,64.89Z"/><path class="cls-12" d="M320.51,64.9h-.92V58.8c.85-.13.85-.13,1,.63.29-.47.88-.5,1.16-.93a3.17,3.17,0,0,1,2.34.32c.28.22.5.52.77.75a.61.61,0,0,1,.19.52c0,1.59,0,3.18,0,4.74a1.92,1.92,0,0,1-1,.06c0-1.33,0-2.67,0-4a1.49,1.49,0,0,0-.12-.79,1.55,1.55,0,0,0-2.07-.78,2.08,2.08,0,0,0-1.39,2.13C320.47,62.56,320.51,63.67,320.51,64.9Z"/><path class="cls-12" d="M404.27,85.8c.86,0,.86,0,1,.7.28-.47.87-.5,1.16-.93a3.11,3.11,0,0,1,2.33.32c.29.21.5.51.77.75a.58.58,0,0,1,.19.52V92h-1c0-1.32,0-2.66,0-4a1.38,1.38,0,0,0-.12-.78,1.55,1.55,0,0,0-2.06-.79,2.1,2.1,0,0,0-1.4,2.14c-.05,1.12,0,2.23,0,3.36-.27.2-.58.11-.92.08Z"/><path class="cls-12" d="M243,92h-1c0-1.41,0-2.8,0-4.18s-1-1.79-2.22-1.38-1.27,1.27-1.35,2.16c-.09,1.11,0,2.23,0,3.32-.28.2-.56.07-.83.11,0,0-.08-.06-.08-.08,0-2,0-4,0-6.07.87-.07.87-.07,1,.72a2.65,2.65,0,0,1,1.17-.9,2.39,2.39,0,0,1,1.91,0A4.5,4.5,0,0,1,243,86.77c.16.15.06.38.06.56C243,88.85,243,90.36,243,92Z"/><path class="cls-12" d="M203.2,78.54h-.93V72.43c.18-.18.43-.05.66-.08s.27.08.27.27-.08.61.37.21a2.47,2.47,0,0,1,2-.75,2.68,2.68,0,0,1,1.54.65,1.8,1.8,0,0,1,.69,1.64c-.06,1.38,0,2.77,0,4.18h-1c0-1.4,0-2.78,0-4.16a1.34,1.34,0,0,0-.9-1.41c-.86-.34-2.22.08-2.43.93a4.8,4.8,0,0,0-.29,1.57C203.26,76.47,203.2,77.47,203.2,78.54Z"/><path class="cls-9" d="M281.52,59.41h-3.8c-.3,0-.42-.08-.4-.39s.09-.34.35-.34h4.79c.15,0,.35,0,.37.16s.08.39-.1.55c-.44.39-.72.92-1.12,1.32a30.44,30.44,0,0,1-2.28,2.53c-.3.23-.28.62-.69,1h3.81c.19,0,.4,0,.39.27s.05.46-.34.46c-1.7,0-3.41,0-5.13,0a1.3,1.3,0,0,1,.5-1.37c.87-.75,1.46-1.74,2.25-2.56C280.56,60.54,281,60,281.52,59.41Z"/><path class="cls-13" d="M458.31,92.23a3.78,3.78,0,0,1-2.21-.68c-.41-.25-.08-.26-.06-.42,0-.32.14-.44.43-.28s.79.29,1.11.46a2.33,2.33,0,0,0,1.13.19,2.16,2.16,0,0,0,1.18-.86c.08-.23-.41-.94-.74-1a13.79,13.79,0,0,1-1.58-.49c-.59-.28-1.17-.51-1.38-1.33a1.57,1.57,0,0,1,.29-1.31,2.05,2.05,0,0,1,2-1,4.35,4.35,0,0,1,1.84.49c.12.06.3,0,.31.24s-.14.27-.25.37-.46.11-.74,0a3.7,3.7,0,0,0-1.41-.39,1.53,1.53,0,0,0-.73.28.66.66,0,0,0-.15,1.16,1.51,1.51,0,0,0,.88.47c.56,0,.93.44,1.46.55.73.16,1,.94,1.15,1.59a1.23,1.23,0,0,1-.28.93,2.14,2.14,0,0,1-1.84,1C458.58,92.22,458.46,92.23,458.31,92.23Z"/><path class="cls-13" d="M194.18,65.16a3.78,3.78,0,0,1-2.21-.68c-.42-.25-.08-.26-.06-.42,0-.32.14-.44.43-.28s.79.29,1.11.47a2.57,2.57,0,0,0,1.13.18,2.18,2.18,0,0,0,1.18-.86c.08-.23-.41-.94-.74-1a14,14,0,0,1-1.59-.49c-.59-.28-1.16-.51-1.37-1.34a1.56,1.56,0,0,1,.29-1.3,2.09,2.09,0,0,1,2-1,5.84,5.84,0,0,1,1.95.5c.27.11.25.31,0,.53s-.51.18-.83.06a3.93,3.93,0,0,0-1.41-.38,1.64,1.64,0,0,0-.73.28.66.66,0,0,0-.14,1.16,1.53,1.53,0,0,0,.87.48c.56,0,.93.43,1.46.55.73.15,1,.93,1.15,1.58a1.26,1.26,0,0,1-.28.93,2.14,2.14,0,0,1-1.84,1Z"/><path class="cls-13" d="M234.14,63.53c-.12-.85-.79-1.05-1.49-1.25-.54-.16-1.14-.19-1.5-.71-.78,0-.42-.82-.83-1.07.23-.38.15-.86.47-1.24a2.5,2.5,0,0,1,2.85-.67c.26.08.64-.06.84.29.07.13.44,0,.37.3s-.24.52-.57.46a5,5,0,0,1-1.06-.33,1.38,1.38,0,0,0-1.4.09c-.56.34-.68.8-.2,1.18a1.73,1.73,0,0,0,.86.48c.56,0,1,.41,1.47.55.68.19.94.93,1.15,1.6.08.23-.19.3-.25.49a1.85,1.85,0,0,1-1.8,1.45,6.11,6.11,0,0,1-1.94-.2c-.4-.12-.52-.56-1-.59-.14,0,.22-.21.18-.44s.21-.26.32-.19a4.64,4.64,0,0,0,1,.49C232.67,64.62,233.53,64.59,234.14,63.53Z"/><path class="cls-13" d="M350.78,77.31c-.49-1.06-.48-1.08-1.53-1.37a7.36,7.36,0,0,1-1.63-.7,1.58,1.58,0,0,1-.31-2.22,2.47,2.47,0,0,1,2.91-.79c.27.11.65-.06.84.3.07.13.45,0,.39.3s-.24.52-.57.46a6.74,6.74,0,0,1-1.06-.31c-1-.33-1.53-.15-1.89.59-.08.16-.14.3,0,.41a6.1,6.1,0,0,0,.73.56c.49.25,1.09.28,1.51.68,1,0,1.12.88,1.49,1.52.18.33-.2.46-.24.72A1.67,1.67,0,0,1,350,78.78a4.77,4.77,0,0,1-2.3-.18c-.39-.13-.53-.56-1-.58-.11,0,.23-.3.2-.55s.23-.13.38,0c.36.21.78.3,1.12.47a4.24,4.24,0,0,0,1.13.19c.27.05.43-.11.6-.28S350.59,77.46,350.78,77.31Z"/><path class="cls-13" d="M185.52,51.74a2.54,2.54,0,0,1-2.1-.7c-.62,0-.16-.27-.14-.45,0-.36.2-.34.47-.19a4.8,4.8,0,0,0,2,.64c.71.06.94-.49,1.33-.84.17-.16-.33-1.08-.64-1.06s-.65-.23-1-.31a2.08,2.08,0,0,1-1.39-.68c-.77,0-.38-.85-.81-1.1a4.3,4.3,0,0,1,.45-1.12c.84-1,1.56-1.07,2.92-.74.23.06.56-.07.74.23s.53,0,.45.38-.49.58-.72.41-.65-.16-1-.32a1.3,1.3,0,0,0-1.41.1c-.54.33-.62.82-.14,1.21a7.2,7.2,0,0,0,2.13.92,1.83,1.83,0,0,1,1,.88c.12.26.42.64.28.93a3,3,0,0,1-.81,1.36,2,2,0,0,1-1.37.45Z"/><path class="cls-13" d="M329,65.16a3.78,3.78,0,0,1-2.21-.68c-.41-.25-.07-.26-.06-.42,0-.32.14-.44.43-.28s.79.29,1.12.47a2.51,2.51,0,0,0,1.12.18,2.18,2.18,0,0,0,1.18-.86c.08-.23-.41-.94-.73-1a14,14,0,0,1-1.59-.49c-.59-.28-1.17-.51-1.37-1.34a1.52,1.52,0,0,1,.28-1.3,2.5,2.5,0,0,1,2.9-.85c.35.11.7.25,1,.39s.24.31,0,.53-.51.18-.83.06a3.93,3.93,0,0,0-1.41-.38,1.64,1.64,0,0,0-.73.28.66.66,0,0,0-.14,1.16,1.53,1.53,0,0,0,.87.48c.57,0,.94.43,1.47.55.72.15,1,.93,1.14,1.58a1.18,1.18,0,0,1-.28.93,2.13,2.13,0,0,1-1.84,1Z"/><path class="cls-13" d="M293.1,92.23a2.5,2.5,0,0,1-2-.72c-.78,0-.06-.35-.06-.48,0-.38.23-.24.46-.12a3.84,3.84,0,0,0,2,.59c.19,0,.4.1.56-.08s.53-.49.75-.77-.4-1-.71-1.05a5.24,5.24,0,0,1-1.58-.52c-.57-.25-1.38-.39-1.33-1.32-.49-.51,0-1,.21-1.28a1.94,1.94,0,0,1,1.85-1,3.74,3.74,0,0,1,2,.49c.11.07.31,0,.33.22s-.13.28-.24.38-.46.12-.74,0a4.32,4.32,0,0,0-1.28-.39,1.46,1.46,0,0,0-.86.26c-.55.32-.59.74-.17,1.15a1.67,1.67,0,0,0,1,.51,11.84,11.84,0,0,1,1.46.56c.63.17.91.93,1,1.54a1.57,1.57,0,0,1-.4,1.12C294.73,92.08,294.37,92.23,293.1,92.23Z"/><path class="cls-13" d="M347.13,86.6l-.59.59c-.13-.28-.48-.19-.67-.41a1.85,1.85,0,0,0-2.41-.27,2.34,2.34,0,0,0-1.11,2,2.73,2.73,0,0,0,.4,1.87,2.21,2.21,0,0,0,2.47,1,2.43,2.43,0,0,0,1.32-.8l.6.56a3.4,3.4,0,0,1-4.92.13,3.69,3.69,0,0,1,.09-4.89A3.39,3.39,0,0,1,347.13,86.6Z"/><path class="cls-13" d="M467.8,86.6l-.54.55a2.81,2.81,0,0,1-.82-.47,1.55,1.55,0,0,0-1.6-.41,2.22,2.22,0,0,0-1.47,1.11,3.25,3.25,0,0,0,.18,3.33,2.58,2.58,0,0,0,2.36.67,2.23,2.23,0,0,0,1.23-.77l.51.61c-1,1.4-3.25,1.33-4.52.28a3.65,3.65,0,0,1-.21-5,3.42,3.42,0,0,1,4.88.15Z"/><path class="cls-13" d="M302.75,86.6l-.56.56c-.27-.19-.57-.31-.84-.51a1.94,1.94,0,0,0-3,.69,2.74,2.74,0,0,0,0,3,2.13,2.13,0,0,0,2.55,1,2.74,2.74,0,0,0,1.27-.82l.51.63a3.31,3.31,0,0,1-4.72.22,3.68,3.68,0,0,1-.15-4.89A3.4,3.4,0,0,1,302.75,86.6Z"/><path class="cls-13" d="M197.76,50l.59.59a3.3,3.3,0,0,1-5.66-1.11,3.5,3.5,0,0,1,2.17-4.38,3.3,3.3,0,0,1,3.15.6c.42.34.42.38,0,.76-.16.15-.22.16-.44,0a3.07,3.07,0,0,1-.66-.45,1.54,1.54,0,0,0-1.52-.3c-.5.2-1.27.23-1.34,1.05a2.87,2.87,0,0,0,0,3.31,2.41,2.41,0,0,0,2.34.8A2.07,2.07,0,0,0,197.76,50Z"/><path class="cls-13" d="M423.29,90.54l.55.54a3.25,3.25,0,0,1-4.61.43,3.66,3.66,0,0,1-.22-5.06,3.08,3.08,0,0,1,2.5-.94,3.23,3.23,0,0,1,2.37,1.11l-.53.53a2.9,2.9,0,0,1-.81-.47,1.58,1.58,0,0,0-1.6-.41,2.2,2.2,0,0,0-1.47,1.11,3.28,3.28,0,0,0,.18,3.33,2.63,2.63,0,0,0,2.36.68A2.37,2.37,0,0,0,423.29,90.54Z"/><path class="cls-13" d="M368.38,77.12l.53.67a3,3,0,0,1-2.1,1,3.38,3.38,0,0,1-2.65-.85,3.72,3.72,0,0,1-.13-4.9,3.42,3.42,0,0,1,5,.12l-.64.52c-.2-.17-.52-.28-.79-.48a1.94,1.94,0,0,0-2.95.7,2.76,2.76,0,0,0,0,3,2.14,2.14,0,0,0,2.55,1A2.67,2.67,0,0,0,368.38,77.12Z"/><path class="cls-13" d="M333.46,59.41h-.71c-.32,0-.24-.24-.25-.42s0-.31.25-.3.4,0,.68,0V56.81h1v1.88c.6,0,1.11,0,1.62,0,.26,0,.33.11.33.36s0,.38-.31.37h-1.62c0,1.26,0,2.48,0,3.71,0,.9.57,1.25,1.48.91a.43.43,0,0,1,.32-.06c.17.08.12.27.12.42s-.23.51-.4.5a3.27,3.27,0,0,1-1.71-.19,1.26,1.26,0,0,1-.78-1.27C333.48,62.12,333.46,60.81,333.46,59.41Z"/><path class="cls-13" d="M350,86.48c0,1.28,0,2.47,0,3.67,0,.85.58,1.31,1.35,1.06.21-.07.38-.34.55,0s-.13.79-.35.78a3.17,3.17,0,0,1-1.82-.22,1.26,1.26,0,0,1-.71-1.21c0-1.31,0-2.63,0-4-.2-.22-.45-.1-.67-.11s-.29-.17-.3-.38.07-.37.34-.35a6,6,0,0,0,.61,0V83.92a1.69,1.69,0,0,1,1,0v1.87h1.68c.24,0,.25.14.24.3s.07.42-.25.42C351.16,86.47,350.64,86.48,350,86.48Z"/><path class="cls-13" d="M206.55,86.48c-.31,0-.51,0-.71,0s-.23-.24-.24-.42,0-.31.24-.3h.68V83.87h1v1.89c.6,0,1.11,0,1.62,0,.27,0,.34.11.33.35s0,.39-.3.38c-.52,0-1,0-1.63,0,0,1.26,0,2.48,0,3.71,0,.9.56,1.25,1.47.91a.43.43,0,0,1,.32-.06c.18.08.12.27.12.42a.48.48,0,0,1-.4.5,3.27,3.27,0,0,1-1.71-.19,1.26,1.26,0,0,1-.77-1.27C206.57,89.19,206.55,87.88,206.55,86.48Z"/><path class="cls-13" d="M269.41,59.41h-.66c-.29,0-.3-.16-.31-.37s.07-.37.33-.35.39,0,.62,0V56.86a1.53,1.53,0,0,1,1,0v1.86H272c.32,0,.23.24.25.42s0,.3-.25.3h-1.67c0,1.3,0,2.6,0,3.9a1,1,0,0,0,1.34.83c.21-.07.38-.34.56,0s-.14.81-.35.79c-.56-.06-1.12.14-1.71-.19a1.24,1.24,0,0,1-.82-1.23C269.43,62.16,269.41,60.85,269.41,59.41Z"/><path class="cls-13" d="M256.94,58.69V56.81h.93v1.88c.59,0,1.1,0,1.61,0,.26,0,.35.09.34.35s0,.39-.29.38h-1.64c0,1.25,0,2.47,0,3.7,0,.92.56,1.27,1.46.93.16-.06.3-.14.41,0a.7.7,0,0,1,0,.33.49.49,0,0,1-.39.52,2.78,2.78,0,0,1-2-.34,1.15,1.15,0,0,1-.49-1c0-1.35,0-2.7,0-4-.18-.19-.4-.12-.58-.1-.34,0-.39-.14-.38-.42s.13-.33.36-.31S256.65,58.69,256.94,58.69Z"/><path class="cls-13" d="M237,59.41a5.31,5.31,0,0,0-.57,0c-.33,0-.4-.11-.4-.41s.12-.34.37-.31.31,0,.53,0a18.82,18.82,0,0,0,.11-1.88H238v1.88a2.42,2.42,0,0,1,.77,0c.38.16,1-.43,1.16.32.07.41.26.39-1.22.39H238c0,1.24,0,2.47,0,3.69,0,.92.56,1.28,1.46.94.16-.06.31-.15.41,0a.59.59,0,0,1,0,.45c-.08.16-.24.4-.38.41a2.8,2.8,0,0,1-2-.34,1.1,1.1,0,0,1-.5-1C237.05,62.21,237,60.86,237,59.41Z"/><path class="cls-13" d="M198.64,58.69V56.86a1.92,1.92,0,0,1,.93-.08v1.91c.59,0,1.11,0,1.62,0,.26,0,.34.09.33.35s0,.39-.29.38H199.6c0,1.25,0,2.48,0,3.7,0,.92.56,1.27,1.47.93.16-.07.29-.14.4,0s0,.22.05.33a.51.51,0,0,1-.4.52,2.75,2.75,0,0,1-1.91-.27,1.16,1.16,0,0,1-.59-1.07c.06-1.35,0-2.7,0-4-.19-.19-.4-.12-.58-.1-.35,0-.39-.14-.39-.42s.13-.33.37-.31S198.36,58.69,198.64,58.69Z"/><path class="cls-13" d="M200.32,100.13a5.52,5.52,0,0,0-.58,0c-.33.05-.4-.11-.39-.4s.12-.34.36-.32.32,0,.53,0a16.11,16.11,0,0,0,.11-1.88h.9v1.88a2.3,2.3,0,0,1,.76,0c.39.15,1-.43,1.16.32.08.4.26.39-1.21.38h-.68c0,1.25,0,2.47,0,3.69,0,.92.56,1.28,1.46.94.16-.06.31-.15.4,0a.52.52,0,0,1,0,.44c-.07.17-.24.4-.37.41a2.77,2.77,0,0,1-2-.34,1.15,1.15,0,0,1-.5-1C200.34,102.94,200.32,101.58,200.32,100.13Z"/><path class="cls-13" d="M189.24,99.41c.64,0,1.15,0,1.67,0,.29,0,.29.16.3.38s-.07.35-.33.34h-1.6c0,1.25,0,2.43,0,3.62s.48,1.34,1.5,1a.46.46,0,0,1,.32,0c.18.09.08.29.1.43a.47.47,0,0,1-.33.45,2.63,2.63,0,0,1-2.36-.58.81.81,0,0,1-.19-.65v-4.23h-.62c-.25,0-.33-.07-.35-.33s.1-.43.41-.39a4.48,4.48,0,0,0,.52,0V97.68c.3-.36.63-.08,1-.24Z"/><path class="cls-13" d="M306.35,73.06c-.31,0-.51,0-.71,0s-.25-.13-.24-.3-.08-.42.24-.42h.68V70.53a1.79,1.79,0,0,1,1-.08v1.89h1.62c.27,0,.34.1.33.35s0,.38-.31.38c-.51,0-1,0-1.62,0,0,1.26,0,2.49,0,3.71,0,.91.56,1.26,1.47.91.11,0,.23-.1.32-.05s.12.26.12.42-.23.51-.4.5a3.38,3.38,0,0,1-1.71-.19,1.28,1.28,0,0,1-.78-1.28C306.37,75.77,306.35,74.46,306.35,73.06Z"/><path class="cls-13" d="M326.28,72.34V70.5a2.06,2.06,0,0,1,.93,0v1.89h1.62c.27,0,.32.12.32.36s0,.37-.31.37c-.51,0-1,0-1.62,0,0,1.27,0,2.49,0,3.72,0,.9.56,1.24,1.47.9a.45.45,0,0,1,.33-.05c.17.09.11.27.11.42a.49.49,0,0,1-.41.5,3.58,3.58,0,0,1-1.61-.15,1.3,1.3,0,0,1-.87-1.32c0-1.16,0-2.32,0-3.47,0-.53-.2-.6-.61-.55-.24,0-.39,0-.37-.31s-.06-.42.26-.41h.72Z"/><path class="cls-13" d="M339.94,73.06c0,1.32,0,2.55,0,3.78a1,1,0,0,0,1.35,1c.21-.07.37-.34.56,0s-.13.78-.34.79a3,3,0,0,1-1.92-.24,1.21,1.21,0,0,1-.63-1.17c.07-1.31,0-2.63,0-4-.18-.24-.44-.12-.66-.12s-.3-.15-.31-.37.06-.38.33-.36H339V70.53a1.47,1.47,0,0,1,1,0v1.86h1.68c.32,0,.25.23.26.42s0,.31-.24.3Z"/><path class="cls-13" d="M378.56,73.06h-.71c-.32,0-.23-.24-.24-.42s0-.31.24-.3h.68V70.53a2,2,0,0,1,1-.09v1.9h1.62c.27,0,.34.1.33.35s0,.38-.3.38c-.52,0-1,0-1.63,0,0,1.26,0,2.49,0,3.71,0,.91.56,1.26,1.47.91.11,0,.23-.1.32-.06s.12.27.12.43a.49.49,0,0,1-.4.5,3.38,3.38,0,0,1-1.71-.19,1.29,1.29,0,0,1-.78-1.28C378.58,75.77,378.56,74.46,378.56,73.06Z"/><path class="cls-16" d="M178.25,99.21c0,.2,0,.36,0,.51s-.05.38-.38.43a2.16,2.16,0,0,0-1.76,1.11,6.14,6.14,0,0,0-.48,1.94,22.86,22.86,0,0,0,0,2.34c-.3.17-.58.07-.9.1V99.48c.22-.18.51,0,.77-.1.26.37,0,.79.2,1.22C176.46,100.05,176.94,99,178.25,99.21Z"/><path class="cls-16" d="M180.65,105.62h-.93V99.5c.24-.18.55-.08.84-.06.23.36-.06.79.16,1.15,1.54-1.4,1.54-1.4,2.52-1.37a1.75,1.75,0,0,1,0,.33c0,.29.1.55-.43.61a2.09,2.09,0,0,0-1.86,1.45,5.12,5.12,0,0,0-.35,1.65C180.66,104,180.65,104.77,180.65,105.62Z"/><path class="cls-16" d="M254.29,105.61h-.92V99.5c.25-.17.55-.08.93,0v1.21c1.6-1.47,1.6-1.47,2.57-1.44.13.18,0,.38.06.57s-.07.31-.32.35a2.21,2.21,0,0,0-2,1.47,4.87,4.87,0,0,0-.35,1.65C254.31,104,254.29,104.77,254.29,105.61Z"/><path class="cls-16" d="M179.72,58.71h.93v1.22c1.61-1.46,1.61-1.46,2.57-1.43.13.17,0,.38.06.57s-.07.31-.32.35a2.2,2.2,0,0,0-2,1.47,4.87,4.87,0,0,0-.35,1.65c0,.75,0,1.51,0,2.28a1.4,1.4,0,0,1-.93.06Z"/><path class="cls-16" d="M276.21,86.92c1.54-1.38,1.54-1.38,2.47-1.36.13.08.08.21.08.32,0,.3.11.57-.43.63A2.09,2.09,0,0,0,276.47,88a5.12,5.12,0,0,0-.35,1.65c0,.75,0,1.51,0,2.27-.28.27-.6,0-.93.16V85.84c.23-.25.56,0,.81-.1C276.27,86.14,276,86.57,276.21,86.92Z"/><path class="cls-16" d="M322.7,85.78h.84c.23.36-.06.79.17,1.14,1.54-1.38,1.54-1.38,2.47-1.36.13.08.08.21.08.32,0,.3.11.57-.42.63A2.07,2.07,0,0,0,324,88a4.83,4.83,0,0,0-.36,1.65c0,.75,0,1.51,0,2.27-.28.27-.6,0-.93.17Z"/><path class="cls-16" d="M218.11,58.71H219c.22.36-.06.78.16,1.13,1.56-1.37,1.56-1.37,2.47-1.36.14.08.09.22.09.33,0,.29.11.57-.42.63a2.08,2.08,0,0,0-1.87,1.44,5,5,0,0,0-.36,1.64c0,.76,0,1.51,0,2.27-.27.29-.59,0-.92.18Z"/><path class="cls-16" d="M378.6,85.78h.85c.21.36-.07.78.17,1.16.75-.58,1.26-1.62,2.42-1.41.17.1.12.23.12.35,0,.28.12.56-.42.62a2.1,2.1,0,0,0-1.86,1.44,4.88,4.88,0,0,0-.36,1.65c0,.75,0,1.51,0,2.28-.27.21-.58.1-.92.09Z"/><path class="cls-16" d="M299.64,64.89h-.93V58.77c.24-.24.56,0,.81-.1.26.41,0,.84.2,1.19,1.53-1.39,1.53-1.39,2.51-1.36a1.65,1.65,0,0,1,0,.32c0,.3.1.56-.43.62A2.09,2.09,0,0,0,300,60.89a5.06,5.06,0,0,0-.35,1.65C299.65,63.29,299.64,64.05,299.64,64.89Z"/><path class="cls-16" d="M314.54,58.71h.94v1.22c1.6-1.46,1.6-1.46,2.59-1.43a3.11,3.11,0,0,1,0,.32c0,.3.09.56-.44.62a2.09,2.09,0,0,0-1.86,1.45,5.34,5.34,0,0,0-.35,1.65c0,.75,0,1.51,0,2.26-.28.27-.6,0-.93.16Z"/><path class="cls-16" d="M251.42,78.57h-.84s-.08,0-.08-.08V72.42c.27-.2.57,0,.91-.11V73.5c.3,0,.39-.26.54-.38s.33-.34.51-.5a1.6,1.6,0,0,1,1.59-.46c0,.17,0,.32,0,.48s0,.39-.36.44a2.21,2.21,0,0,0-2,1.49,5.12,5.12,0,0,0-.34,1.66C251.45,77,251.42,77.73,251.42,78.57Z"/><path class="cls-16" d="M433.74,92h-.92V85.78h.84c.22.36-.06.78.18,1.16.75-.58,1.25-1.62,2.44-1.4.17.13.08.31.1.45.05.33,0,.45-.42.51a2.15,2.15,0,0,0-1.87,1.44,5.12,5.12,0,0,0-.35,1.65C433.76,90.34,433.74,91.1,433.74,92Z"/><path class="cls-16" d="M514.59,85.56c0,.23,0,.39,0,.55s0,.34-.3.38a2.2,2.2,0,0,0-2,1.45,4.77,4.77,0,0,0-.36,1.64c0,.79,0,1.57,0,2.38H511V85.79h.91V87C512.8,86.37,513.3,85.32,514.59,85.56Z"/><path class="cls-16" d="M506.91,85.74V87c.85-.59,1.33-1.67,2.55-1.45.16.13.07.34.09.53s-.06.38-.38.42a2.24,2.24,0,0,0-1.76,1.11,4.68,4.68,0,0,0-.49,1.94c0,.79,0,1.58,0,2.35-.3.17-.58.07-.9.09V85.82C506.24,85.68,506.52,85.79,506.91,85.74Z"/><path class="cls-17" d="M265.13,83.14H266V91.9c-.24.17-.54.08-.88,0Z"/><path class="cls-17" d="M261.77,83.14h.88V91.9c-.22.26-.55,0-.88.14Z"/><path class="cls-17" d="M354.3,78.55h-.89V69.79c.24-.16.55-.08.89,0Z"/><path class="cls-17" d="M225.3,69.73h.89v8.76c-.23.24-.56,0-.89.13Z"/><path class="cls-18" d="M221.91,99.43h1c0,2.28,0,4.54,0,6.8a1.63,1.63,0,0,1-2,1.32c-.12,0-.14-.17-.13-.3s-.05-.34.25-.43c.87-.26.95-.38.95-1.18Z"/><path class="cls-14" d="M296.76,104.92c-.55,1.1-1.57,1-2.52.94a2,2,0,0,1-1.61-1.31,1.48,1.48,0,0,1-.19-.64v-4.4c.28-.19.57-.06.83-.1a.32.32,0,0,1,.13.3c0,1.16,0,2.31,0,3.47a1.81,1.81,0,0,0,2.83,1.67c.1,0,.14-.21.29-.17l.09,0a.8.8,0,0,1,.13.13Z"/><path class="cls-14" d="M236.54,104.92c-.54,1.1-1.56,1-2.52.94a2,2,0,0,1-1.6-1.31,1.5,1.5,0,0,1-.2-.64c0-.12,0-.24,0-.36v-4c.29-.19.57-.06.83-.1a.31.31,0,0,1,.14.3c0,1.16,0,2.31,0,3.47a1.8,1.8,0,0,0,2.82,1.67c.1,0,.14-.21.29-.17l.09,0a.53.53,0,0,1,.13.13Z"/><path class="cls-11" d="M296.52,104.68a3.1,3.1,0,0,0,.49-1.83c0-1.11,0-2.23,0-3.36a1.55,1.55,0,0,1,.93,0v6.09c-.11.15-.29.07-.44.09-.3,0-.56,0-.5-.41,0-.16,0-.33-.23-.31Z"/><path class="cls-11" d="M236.3,104.68a3,3,0,0,0,.49-1.83c0-1.11,0-2.23,0-3.36a1.58,1.58,0,0,1,.94,0v6.09c-.12.15-.29.07-.44.09-.3,0-.57,0-.5-.41,0-.16,0-.33-.24-.31A2.72,2.72,0,0,0,236.3,104.68Z"/><path class="cls-19" d="M270.41,72.37h.88v6.12c-.24.17-.55.07-.88.05Z"/><path class="cls-19" d="M241.62,58.71h.88v6.13c-.24.23-.55,0-.88.13Z"/><path class="cls-19" d="M338.06,58.71h.88v6.12c-.24.17-.54.08-.88,0Z"/><path class="cls-19" d="M312.07,78.55h-.88V72.43c.24-.17.54-.08.88-.05Z"/><path class="cls-19" d="M497,92h-.89V85.84c.24-.17.55-.07.89,0Z"/><path class="cls-19" d="M453.21,85.78h.89v6.13c-.24.22-.56,0-.89.13Z"/><path class="cls-19" d="M353.89,85.78h.89v6.13c-.24.22-.56,0-.89.13Z"/><path class="cls-19" d="M289.06,85.76V91.9c-.27.17-.55,0-.81.09a.32.32,0,0,1-.13-.31V86.54C288.12,85.78,288.13,85.78,289.06,85.76Z"/><path class="cls-19" d="M301,105.64h-.51l-.38,0V99.49c.25-.16.55-.07.89,0Z"/><path class="cls-19" d="M185.88,105.62H185V99.49c.23-.24.55,0,.88-.14Z"/><path class="cls-19" d="M172.69,105.62h-.88V99.44h.88Z"/><path class="cls-19" d="M205.79,105.62h-.87V99.49c.22-.24.55,0,.87-.14Z"/><path class="cls-19" d="M190.68,51.48h-.88V45.36c.23-.18.54-.07.88-.06Z"/><path class="cls-19" d="M181.56,51.48h-.87V45.36c.23-.18.53-.07.87-.06Z"/><path class="cls-6" d="M304.63,22.5h-2.08V20.66h2.08Z"/><path class="cls-6" d="M425.54,22.5h-2.08V20.62c.65,0,1.35,0,2.08,0Z"/><path class="cls-6" d="M290.32,20.62h2.08V22.5c-.65,0-1.35,0-2.08,0Z"/><path class="cls-6" d="M282.58,20.64v1.84H280.5V20.64Z"/><path class="cls-20" d="M246.48,104.47h1.32a4.37,4.37,0,0,1-.19,1.88c-.22.46-.63.5-1,.71s-.38-.14-.44-.29.19-.11.27-.18a4.47,4.47,0,0,0,.58-.57.4.4,0,0,0,0-.31C246.19,105.52,246.87,104.88,246.48,104.47Z"/><path class="cls-20" d="M215,104.47h1.21a4.48,4.48,0,0,1-.23,1.92c-.23.43-.65.49-1,.67-.19.1-.28-.22-.48-.33a2,2,0,0,0,.74-.49c.2-.25.54-.48-.09-.6-.12,0-.17-.13-.16-.27S215,104.82,215,104.47Z"/><path class="cls-20" d="M363.34,93a1.58,1.58,0,0,0,1-.6.3.3,0,0,0,.06-.31c-.75-.18-.4-.78-.46-1.21.15-.19.36-.1.55-.11s.38,0,.65,0a4.69,4.69,0,0,1-.23,1.94c-.24.43-.64.5-1,.68C363.73,93.51,363.64,93.18,363.34,93Z"/><path class="cls-20" d="M411.74,90.82h1.1a4.3,4.3,0,0,1-.18,1.86c-.21.48-.62.52-.94.72s-.36-.2-.52-.35a1.73,1.73,0,0,0,.91-.68.38.38,0,0,0,0-.3c-.71-.16-.34-.72-.43-1.11C411.67,90.93,411.7,90.89,411.74,90.82Z"/><path class="cls-20" d="M529.41,93.05a1.39,1.39,0,0,0,.89-.6c.2-.21.23-.42-.14-.46s-.22-.18-.22-.33v-.84h1.18a3.93,3.93,0,0,1-.2,1.87,1.61,1.61,0,0,1-1,.72C529.79,93.43,529.63,93.23,529.41,93.05Z"/><path class="cls-19" d="M281.42,78.53V77.41h1.11c.19.32,0,.71.11,1.12Z"/><path class="cls-19" d="M204.13,63.72v1.16H203c-.05,0-.07-.14-.07-.26,0-.89,0-.89,1-.9Z"/><path class="cls-19" d="M311.17,105.6v-1.12h1.1c.19.32,0,.71.12,1.12Z"/><path class="cls-19" d="M207.55,45.29h1.12v1.13a3.4,3.4,0,0,1-1.12,0Z"/><path class="cls-19" d="M246.34,92h-1.12V90.84a3.4,3.4,0,0,1,1.12,0Z"/><path class="cls-19" d="M246.36,85.8v1.12h-1.13a3.42,3.42,0,0,1,0-1.12Z"/><path class="cls-19" d="M208.67,51.48h-1.11V50.36a3.08,3.08,0,0,1,1.11,0Z"/><path class="cls-19" d="M204.12,59.87H203V58.76c.32-.18.7,0,1.12-.11Z"/><path class="cls-19" d="M384.06,77.41v1.12h-1.12a3.38,3.38,0,0,1-.05-1.12Z"/><path class="cls-19" d="M349.32,64.88V63.76h1.1c.19.32,0,.71.11,1.12Z"/><path class="cls-19" d="M282.56,73.52h-1.12v-1.1c.32-.19.71,0,1.12-.11Z"/><path class="cls-21" d="M310.9,70H312c.16.27.05.55.08.83-.36.22-.75,0-1.09.12C310.84,70.61,310.94,70.33,310.9,70Z"/><path class="cls-21" d="M270.15,70.87V70h1.1c.17.23.06.54.05.88Z"/><path class="cls-21" d="M299.86,97H301c.16.26.05.54.09.81-.12.12-1,.23-1.11.08S299.91,97.41,299.86,97Z"/><path class="cls-21" d="M221.69,97.93v-.87h1.1c.24.22,0,.54.13.87Z"/><path class="cls-21" d="M289.16,84.3H288c-.2-.27,0-.55-.13-.81.39-.25.78,0,1.11-.14C289.18,83.65,289,83.94,289.16,84.3Z"/><path class="cls-21" d="M337.8,57.21v-.88h1.1c.16.24.07.55.05.88Z"/><path class="cls-21" d="M241.33,56.31h1.12c.17.28.06.55.1.87a3,3,0,0,1-1.12.06C241.26,57,241.37,56.68,241.33,56.31Z"/><path class="cls-21" d="M354.79,83.4v.88h-1.1c-.17-.23-.06-.54-.05-.88Z"/><path class="cls-21" d="M452.86,83.38H454c.2.27,0,.56.13.82-.39.24-.78,0-1.12.14C452.83,84,453,83.75,452.86,83.38Z"/><path class="cls-21" d="M497.05,83.36v.92H496c-.2-.18-.05-.47-.07-.73s.2-.19.35-.19Z"/><path class="cls-21" d="M171.51,97h1.13c.17.26.05.54.09.81a1.57,1.57,0,0,1-1.11.08C171.42,97.71,171.57,97.41,171.51,97Z"/><path class="cls-21" d="M184.74,97.94v-.88h1.1c.17.23.07.54,0,.88Z"/><path class="cls-21" d="M205.81,97.06v.88h-1.09c-.17-.24-.07-.55-.05-.88Z"/><path class="cls-21" d="M189.54,43.8v-.88h1.1c.24.22,0,.55.13.88Z"/><path class="cls-21" d="M180.43,43.8v-.88h1.09c.17.24.07.54,0,.88Z"/><path class="cls-22" d="M419.11,29.22c0-.23.2-.34.51-.51-.12.39.17.75-.27,1C419.31,29.52,419.47,29.25,419.11,29.22Z"/><path class="cls-23" d="M115.39,45.51a4.74,4.74,0,0,1-1.26,3.08,7,7,0,0,1-3.56,2.12,1.65,1.65,0,0,1-.57.07,2.15,2.15,0,0,0-2.08,1.33,4.88,4.88,0,0,0-.69,2.6c0,.91-.06,1.84,0,2.75s-.34,1.91-.27,2.89a11.49,11.49,0,0,1,0,3,8,8,0,0,1-.41,2.09,12.12,12.12,0,0,0-.64,1.9,15,15,0,0,1-2.19,3.88,18.38,18.38,0,0,1-2.66,2.84,2.54,2.54,0,0,0-.72,1.38c-.1.47-.41.93-.29,1.44-.45.36,0,1-.48,1.36a9,9,0,0,1-.49,2.56c-.16.8-.41,1.58-.63,2.37,0,.07-.09.14-.08.2a6.94,6.94,0,0,1-.29,2.41c-.36,1.85,0,3.7-.2,5.54a7.39,7.39,0,0,0,.26,2,.94.94,0,0,0,.88.78,2.29,2.29,0,0,1,1.39,1,1.46,1.46,0,0,1,.32,1.51,1.62,1.62,0,0,1-1.4.87c-.37,0-.8-.17-1.1.23A3,3,0,0,1,95.77,97a5.16,5.16,0,0,1-1.29-2.48,33,33,0,0,0-.9-3.81,14.75,14.75,0,0,0-.27-2.29c0-3.35,0-6.7,0-10.06a1.65,1.65,0,0,1,.47-1.45c-1.05,0-1.88,0-2.7,0a6.9,6.9,0,0,1-2.24-.1c-.68-.25-1.43.16-2-.37a9.12,9.12,0,0,1-2.32-.48c-.74-.13-1.48-.38-2.21-.44-1.37-.11-2.66-.59-4-.8A12,12,0,0,1,75.13,74c-.79.18-1.51-.37-2.3-.24-.48.08-.85-.29-1.34-.26s-.94.21-1.35-.2c-.1-.1-.39,0-.59,0H64.16a20,20,0,0,1-2,3.15,31.55,31.55,0,0,1-2.25,2.79,27.79,27.79,0,0,1-3.26,3.42c-1,.9-2,1.87-3,2.81a5.8,5.8,0,0,0-1.57,2.94,14.15,14.15,0,0,0-.46,5.26,1.71,1.71,0,0,1,1.27.26,5.12,5.12,0,0,1,.94.92,1.85,1.85,0,0,1-.42,2.1,9.07,9.07,0,0,1-2,.76,2.87,2.87,0,0,1-1.53-.33,2.16,2.16,0,0,1-1-.46c-.27-.28-.82-.4-.9-.81a3.1,3.1,0,0,1,.05-1.63,2.64,2.64,0,0,0,.15-1q0-4.3,0-8.62a3.16,3.16,0,0,1,1.2-2.61,7.3,7.3,0,0,0,1.95-2.89A13.9,13.9,0,0,0,52.3,74c0-1.44,0-2.88,0-4.31a1.23,1.23,0,0,0-.27-.86,6.85,6.85,0,0,1-1.89-4.12c-.47-.81-.11-1.7-.26-2.53-.08-.44.31-.69.28-1.1s-.17-.7.16-1,0-.33-.14-.49a19.31,19.31,0,0,1-1.8-3,18,18,0,0,1-1.15-3.72,7.85,7.85,0,0,1-.2-2.3,16.32,16.32,0,0,1,1-4.6A13.23,13.23,0,0,1,50,42.48a15.88,15.88,0,0,1,3.44-3.2,11.41,11.41,0,0,1,3.77-1.61,5.64,5.64,0,0,1,2.52-.29,16,16,0,0,1,2.7.7A21.87,21.87,0,0,1,66.19,40a10.44,10.44,0,0,1,2.86,2.55c.39.55,1.15,1,1,1.85.35.39,0,.76-.12,1.07a2.13,2.13,0,0,1-.75.74A1.4,1.4,0,0,1,67.32,46L66,44.88a8.48,8.48,0,0,0-2.93-1.62A7.16,7.16,0,0,0,59.44,43a10.43,10.43,0,0,0-2.8,1.08,7.5,7.5,0,0,0-4,4.47,10.37,10.37,0,0,0-.15,1.73c-.19,1.37.5,2.48,1.09,3.62.08.16.18.25.42.06A13.91,13.91,0,0,1,59,51.7a11.17,11.17,0,0,0,2.6-.67s.07,0,.11,0c1.23.18,2.4-.33,3.62-.25a35.69,35.69,0,0,1,3.59.06A18.78,18.78,0,0,0,71.7,51c.47,0,.84.34,1.34.27s.88-.22,1.22.21c0,0,.16,0,.24,0,1-.15,2,.36,3,.25.42,0,.8.47,1.21.22a3,3,0,0,1,1.7-.22,18.11,18.11,0,0,0,2.94-.42A9.65,9.65,0,0,1,86,51c.8.07,1.61,0,2.4,0a2.36,2.36,0,0,0,2-.79,17.76,17.76,0,0,0,3.23-3.69c.4-.68.76-1.37,1.17-2,1.22-2,2.29-4,3.66-5.91a3.5,3.5,0,0,0,.65-1.41,1.08,1.08,0,0,1,.2-.4,24.52,24.52,0,0,1,2.18-3.9A9.17,9.17,0,0,1,103,31.37a5.22,5.22,0,0,0,1.5-1.6c.14-.26,0-.55.22-.75a2.7,2.7,0,0,1,.38,2.05c-.13,1.58.38,3.11.27,4.69,0,.46.19.57.74.66a5.72,5.72,0,0,1,4.65,3.38,3.74,3.74,0,0,1,.36,1.53c0,.36,0,.72,0,1.08,0,.76.33,1.13,1.09,1.18.43,0,.87,0,1.31,0a1.14,1.14,0,0,1,.56.7A1.51,1.51,0,0,0,115.39,45.51Z"/><path class="cls-24" d="M115.39,45.51c-.78.38-1.17.22-1.44-.58-.15-.44-.32-.89-.48-1.33a2.22,2.22,0,0,1,1.74.41c.45.4.46.43.19,1.15A1,1,0,0,0,115.39,45.51Z"/><path class="cls-25" d="M243.3,44.58h1.18c-.12.45,0,.85-.21,1.33a4.3,4.3,0,0,0-.05,1.76c0,.23-.15.24-.31.24s-.44.06-.41-.25C243.62,46.65,243.09,45.69,243.3,44.58Z"/><path class="cls-26" d="M244.42,49.57H243.3V48.44a3.69,3.69,0,0,1,1.12,0Z"/><path class="cls-25" d="M231.57,44.58h1.16c-.13.45,0,.85-.22,1.33s0,1.09,0,1.64c0,.23,0,.37-.31.37s-.47,0-.42-.38C231.9,46.57,231.27,45.66,231.57,44.58Z"/><path class="cls-26" d="M231.54,48.41h1.12v1.12a3.15,3.15,0,0,1-1.12,0Z"/><path class="cls-25" d="M219.81,44.58H221c-.12.45,0,.84-.21,1.33a3.41,3.41,0,0,0,0,1.63c0,.35-.16.37-.43.38s-.34-.14-.3-.37C220.14,46.57,219.52,45.66,219.81,44.58Z"/><path class="cls-26" d="M220.91,49.57h-1.12V48.44a3.4,3.4,0,0,1,1.12,0Z"/><path class="cls-27" d="M417.79,24.67a1.59,1.59,0,0,1,1.14.43c.44.35.32,1,.64,1.39-.36.4-.22,1.07-.69,1.38a1.81,1.81,0,0,1-1.15.41A1.88,1.88,0,0,1,416,26.5,1.82,1.82,0,0,1,417.79,24.67Z"/><path class="cls-27" d="M198.87,26.82c.1-.83.21-1.62,1.16-2a1.29,1.29,0,0,1,.89-.09,2.58,2.58,0,0,1,1.17.9c.31.37,0,.93.39,1.28-.34.57-.29,1.31-1,1.76a1.51,1.51,0,0,1-2.42-.84A2.22,2.22,0,0,1,198.87,26.82Z"/><path class="cls-27" d="M359.15,24.67a2,2,0,0,1,1.67,1.48,2.72,2.72,0,0,1,0,1.36A2,2,0,0,1,359.15,29a1.88,1.88,0,0,1-1.46-.95,3.17,3.17,0,0,1,0-2.42A1.82,1.82,0,0,1,359.15,24.67Z"/><path class="cls-28" d="M232.58,26.77c-.46.79-.29,1.76-1.3,2.1a1.5,1.5,0,0,1-2-.76,2.2,2.2,0,0,1-.06-2.53,1.56,1.56,0,0,1,2.83,0C232.24,26,232.22,26.47,232.58,26.77Z"/><path class="cls-27" d="M184.48,26.79a1.82,1.82,0,1,1-3.59.64,7.69,7.69,0,0,1,0-1,1.8,1.8,0,0,1,3.59-.06C184.49,26.53,184.48,26.65,184.48,26.79Z"/><path class="cls-27" d="M193.6,27a1.72,1.72,0,0,1-.89,1.78,1.77,1.77,0,0,1-2.66-1.05,2.91,2.91,0,0,1,0-1.75,1.92,1.92,0,0,1,2.09-1.26,2,2,0,0,1,1.44,1.83Z"/><path class="cls-27" d="M343.78,26.88a1.72,1.72,0,0,1-1,1.88,1.78,1.78,0,0,1-2.55-1.35c0-.32,0-.64,0-1a1.8,1.8,0,0,1,3.6,0Z"/><path class="cls-28" d="M239.21,26.35c-.4,0-.8,0-1.2,0s-.31-.21-.26-.39a1.82,1.82,0,0,1,.74-1,1.38,1.38,0,0,1,2.13,1.1c0,.15,0,.32-.22.32Z"/><path class="cls-28" d="M259.93,26.35h-.83c-.18,0-.44.11-.48-.18s-.1-.46.12-.53c.39-.14.25-.63.73-.8a1.42,1.42,0,0,1,2,1.21c0,.17,0,.31-.25.3C260.81,26.34,260.37,26.35,259.93,26.35Z"/><path class="cls-28" d="M350.54,26.35c-.4,0-.8,0-1.19,0s-.32-.16-.29-.37a1.5,1.5,0,0,1,2.08-1.11c.54.18.52.62.77.91s0,.56-.42.57Z"/><path class="cls-28" d="M374.67,26.35h-1c-.41,0-.62-.39-.32-.66s.28-.59.59-.79A1.44,1.44,0,0,1,376.16,26c0,.23,0,.37-.3.36S375.06,26.35,374.67,26.35Z"/><path class="cls-28" d="M403.51,26.35h-.95c-.17,0-.43.11-.48-.18s-.1-.46.12-.53c.39-.14.25-.63.73-.8a1.42,1.42,0,0,1,2,1.21c0,.17,0,.31-.24.3C404.31,26.34,403.91,26.35,403.51,26.35Z"/><path class="cls-28" d="M430.5,26.35h-.84c-.46,0-.71-.35-.41-.62s.34-.7.8-.88a1.4,1.4,0,0,1,2,1.21c0,.17,0,.3-.25.29C431.37,26.34,430.93,26.35,430.5,26.35Z"/><path class="cls-29" d="M388.16,28.07c0,.4,0,.76-.48.92-.84.28-1.48.32-1.8,0a1.87,1.87,0,0,1-.35-.8c0-.18.69-.8.91-.85a3.63,3.63,0,0,1,1.79.26C388.67,27.69,387.93,27.86,388.16,28.07Z"/><path class="cls-5" d="M172.75,77.85V74.74c1,0,2.06,0,3.08,0,.38,0,.62.25,1,.29s1,.85,1,1.29a1.7,1.7,0,0,1-1.08,1.33,3.23,3.23,0,0,1-1.34.22Z"/><path class="cls-30" d="M172.75,74V70.67c1,0,1.9,0,2.85,0A2,2,0,0,1,177.28,72a1.55,1.55,0,0,1-.68,1.6,2.27,2.27,0,0,1-1.37.42h-2.48Z"/><path class="cls-5" d="M172.76,43.6c1,0,1.87-.05,2.78,0a3.53,3.53,0,0,1,1.35.45,1.22,1.22,0,0,1,.61.68,3,3,0,0,1,0,1.4,1.82,1.82,0,0,1-1.82,1.26c-.94.07-1.89,0-2.88,0Z"/><path class="cls-27" d="M314.75,75.16a2.24,2.24,0,0,1,2.13-2.35,2.27,2.27,0,0,1,1.64.62,2.19,2.19,0,0,1,0,3.34,2.11,2.11,0,0,1-1.51.61A2.25,2.25,0,0,1,314.75,75.16Z"/><path class="cls-27" d="M280.68,88.54a2.23,2.23,0,0,1,3.79-1.68,2.31,2.31,0,0,1,.75,1.68,2.56,2.56,0,0,1-.79,1.67,2.15,2.15,0,0,1-1.41.59A2.25,2.25,0,0,1,280.68,88.54Z"/><path class="cls-27" d="M344,59.17a2,2,0,0,1,1.63.62,2.33,2.33,0,0,1,.75,1.67,2.42,2.42,0,0,1-.78,1.67,2.14,2.14,0,0,1-1.52.6,2.26,2.26,0,0,1-2.23-2.25A2.19,2.19,0,0,1,344,59.17Z"/><path class="cls-27" d="M245.42,61.48a2.27,2.27,0,0,1,2.19-2.33,2.31,2.31,0,0,1,1.54.58,3,3,0,0,1,.82,1.66,4.84,4.84,0,0,1-.72,1.71,3.23,3.23,0,0,1-1.53.62,3,3,0,0,1-1.63-.65A1.78,1.78,0,0,1,245.42,61.48Z"/><path class="cls-30" d="M488.47,88.83c-.25-.72.23-1.26.53-1.8a2.15,2.15,0,0,1,2.84-.4A3.26,3.26,0,0,1,493,88.68a2.75,2.75,0,0,1-.6,1.88,2.06,2.06,0,0,1-1.65.92,1.73,1.73,0,0,1-1.77-.83C488.66,90.11,488.22,89.54,488.47,88.83Z"/><path class="cls-30" d="M305.9,99.84a4,4,0,0,1,1.23.5,2.73,2.73,0,0,1,0,4.4,1.63,1.63,0,0,1-1.37.4c-.45-.13-1-.14-1.31-.59a3.12,3.12,0,0,1-.05-4C304.72,100,305.35,100.06,305.9,99.84Z"/><path class="cls-30" d="M266.57,102.61a2.33,2.33,0,0,1,.46-1.86,2.14,2.14,0,0,1,2.93-.44,3.31,3.31,0,0,1,1.1,2,2.8,2.8,0,0,1-.54,1.79,2,2,0,0,1-1.62,1,1.75,1.75,0,0,1-1.8-.76C266.8,103.84,266.28,103.31,266.57,102.61Z"/><path class="cls-30" d="M276.4,72.77a4.29,4.29,0,0,1,1.22.5,2.72,2.72,0,0,1,0,4.4,1.63,1.63,0,0,1-1.37.4c-.45-.12-1-.14-1.31-.59a3.12,3.12,0,0,1-.05-4C275.22,73,275.85,73,276.4,72.77Z"/><path class="cls-30" d="M212.58,72.77a4.35,4.35,0,0,1,1.23.5,2.73,2.73,0,0,1,0,4.4,1.63,1.63,0,0,1-1.37.4c-.45-.12-1-.14-1.31-.59a3.12,3.12,0,0,1,0-4C211.4,73,212,73,212.58,72.77Z"/><path class="cls-27" d="M375.93,88.67a3.74,3.74,0,0,1-.54,2,2,2,0,0,1-2.74.5c-.42-.36-1-.66-1-1.35,0-.53-.6-1.07,0-1.6-.2-.84.48-1.22,1-1.62a1.31,1.31,0,0,1,1.77-.16C375.72,86.72,375.67,87.9,375.93,88.67Z"/><path class="cls-27" d="M233.68,75.38a3.79,3.79,0,0,1-.56,1.9,2,2,0,0,1-2.74.49c-.42-.36-1-.65-1-1.35,0-.54-.57-1.07,0-1.6-.19-.84.51-1.19,1-1.63a1.38,1.38,0,0,1,1.39-.35c.75.27,1.6.54,1.71,1.54C233.46,74.76,233.84,75.06,233.68,75.38Z"/><path class="cls-27" d="M203.44,88.67a3.74,3.74,0,0,1-.54,2,2,2,0,0,1-2.74.5c-.42-.36-1-.66-1-1.35,0-.53-.6-1.06,0-1.6-.2-.84.48-1.22,1-1.62a1.31,1.31,0,0,1,1.77-.16C203.24,86.72,203.18,87.9,203.44,88.67Z"/><path class="cls-31" d="M257.84,88.85h-4c.49-1.08.94-2.13,1.44-3.17a1.3,1.3,0,0,0,.23-.74s.11-.14.16-.13.29,0,.3.11c0,.35.36.59.41.89a5.91,5.91,0,0,0,.84,1.92C257.4,88.06,257.24,88.53,257.84,88.85Z"/><path class="cls-31" d="M501.6,88.87c.51-.18,1,.36,1.53.25.2,0,.18.19.18.35a2,2,0,0,1-2.7,1.89c-.63-.17-.9-.41-1-1a.59.59,0,0,1,0-.35A1.76,1.76,0,0,1,501.6,88.87Z"/><path class="cls-31" d="M338.93,89.18a2,2,0,0,1-.34,1.59c-.28.57-1.58.84-2.25.62-.89-.3-.85-.31-1.09-1.06-.07-.22,0-.24.09-.35a2,2,0,0,1,2.59-1C338.28,89.09,338.63,89,338.93,89.18Z"/><path class="cls-31" d="M195.19,105.15c-.48.19-.78-.3-1.24-.27-.3,0-.53-.95-.35-1.29a2,2,0,0,1,2.61-1c.1,0,.16.13.3.14s.57-.13.65.11a.89.89,0,0,1-.1.88c-.21.26,0,.77-.44.88S195.75,105.28,195.19,105.15Z"/><path class="cls-31" d="M197.64,75.46c.52-.18,1,.36,1.53.25.21,0,.19.19.19.35a1.79,1.79,0,0,1-.53,1.43,2.06,2.06,0,0,1-2,.55c-.27-.12-.57-.14-.84-.28s-.09-.62-.33-.83,0-.21,0-.34A1.74,1.74,0,0,1,197.64,75.46Z"/><path class="cls-31" d="M386,88.87c.51-.19,1,.36,1.52.25.21,0,.19.19.19.35A2,2,0,0,1,385,91.36c-.62-.17-.9-.4-1-1a.47.47,0,0,1,0-.35A1.77,1.77,0,0,1,386,88.87Z"/><path class="cls-31" d="M240.55,75.67c.21.71-.18,1.19-.31,1.72-.75.37-1.42,1.12-2.36.48-.68.08-.86-.33-.92-.9,0-.11-.15-.14-.05-.35a2,2,0,0,1,1.65-1.18C239.25,75.35,239.83,75.82,240.55,75.67Z"/><path class="cls-31" d="M303.16,75.67c.22.71-.18,1.19-.31,1.73-.74.37-1.41,1.11-2.36.47-.69.08-.86-.33-.91-.9,0-.11-.15-.15-.06-.35a2,2,0,0,1,1.66-1.18C301.87,75.35,302.44,75.82,303.16,75.67Z"/><path class="cls-31" d="M247.76,75.7a2.2,2.2,0,0,1-.28,1.61c-.18.47-.82.5-1.23.74a1.59,1.59,0,0,1-1.12-.08c-.57-.18-1-.34-1-1,0-.09-.17-.07-.11-.25a2,2,0,0,1,1.51-1.23c.48,0,1-.21,1.47.21C247.15,75.8,247.47,75.7,247.76,75.7Z"/><path class="cls-32" d="M272.75,88.39c-1.26,0-2.42,0-3.58,0-.47,0-.63-.22-.43-.64a3,3,0,0,1,1.13-1.28,1.69,1.69,0,0,1,2.41.74C272.45,87.57,272.58,87.94,272.75,88.39Z"/><path class="cls-32" d="M235.26,88.39c-1.44,0-2.6,0-3.76,0-.47,0-.63-.22-.42-.64a2.89,2.89,0,0,1,1.12-1.28,1.78,1.78,0,0,1,2.44.72C234.86,87.56,234.73,88,235.26,88.39Z"/><path class="cls-32" d="M481.47,88.39c-1.27,0-2.43,0-3.59,0-.47,0-.63-.22-.42-.64a2.89,2.89,0,0,1,1.12-1.28,1.7,1.7,0,0,1,2.42.74C481.16,87.57,481.29,87.94,481.47,88.39Z"/><path class="cls-32" d="M213,102.05h-3.82c-.37,0-.58-.28-.41-.59a2.77,2.77,0,0,1,1.61-1.54,1.82,1.82,0,0,1,2.2,1.51A.92.92,0,0,0,213,102.05Z"/><path class="cls-32" d="M229.6,102h-4a2.33,2.33,0,0,1,1.62-2.11,1.88,1.88,0,0,1,1.68.56C229.28,100.88,229.25,101.49,229.6,102Z"/><path class="cls-32" d="M278.75,102.05h-3.58c-.47,0-.63-.23-.43-.65a2.87,2.87,0,0,1,1.12-1.27,1.71,1.71,0,0,1,2.42.73C278.45,101.22,278.57,101.6,278.75,102.05Z"/><path class="cls-32" d="M185.36,75h-3.75c-.48,0-.64-.23-.43-.65a2.87,2.87,0,0,1,1.12-1.27,1.79,1.79,0,0,1,2.45.72C185,74.14,184.83,74.6,185.36,75Z"/><path class="cls-32" d="M222.81,75c-1.49,0-2.72,0-3.95,0-.41,0-.36-.29-.3-.48a2.54,2.54,0,0,1,1.61-1.66,1.81,1.81,0,0,1,2.2,1.5A.94.94,0,0,0,222.81,75Z"/><path class="cls-32" d="M520.78,88.39c-1.49,0-2.72,0-3.95,0-.4,0-.37-.27-.31-.47a2.49,2.49,0,0,1,1.59-1.67,1.83,1.83,0,0,1,2.22,1.49A.89.89,0,0,0,520.78,88.39Z"/><path class="cls-32" d="M316.66,88.39c-1.27,0-2.43,0-3.59,0-.47,0-.63-.22-.43-.64a3,3,0,0,1,1.13-1.28,1.7,1.7,0,0,1,2.42.74C316.35,87.57,316.48,87.94,316.66,88.39Z"/><path class="cls-32" d="M267.72,75h-3.59c-.47,0-.63-.23-.43-.65a2.89,2.89,0,0,1,1.13-1.27,1.71,1.71,0,0,1,2.42.73C267.41,74.15,267.54,74.53,267.72,75Z"/><path class="cls-32" d="M361.08,75c-1.34,0-2.54,0-3.74,0-.35,0-.42-.16-.36-.43a2.74,2.74,0,0,1,1.66-1.74,1.89,1.89,0,0,1,2.15,1.47A2.5,2.5,0,0,0,361.08,75Z"/><path class="cls-32" d="M332.06,88.39c-1.35,0-2.55,0-3.74,0-.35,0-.42-.15-.37-.42a2.74,2.74,0,0,1,1.66-1.74,1.89,1.89,0,0,1,2.15,1.46A2.09,2.09,0,0,0,332.06,88.39Z"/><path class="cls-32" d="M527.91,88.39H524c-.26,0-.35-.09-.33-.35a2.59,2.59,0,0,1,1.71-1.81,1.87,1.87,0,0,1,2,1.09C527.57,87.66,527.38,88.09,527.91,88.39Z"/><path class="cls-32" d="M359.49,88.39c-.56,0-1.12,0-1.68,0-.36,0-.4-.18-.35-.43a2.41,2.41,0,0,1,1.91-1.73,1.82,1.82,0,0,1,1.92,1.58c0,.11,0,.23.1.32s.13.25-.1.25Z"/><path class="cls-32" d="M296.34,61.32h-3.87a.83.83,0,0,1-.21-.06,2.27,2.27,0,0,1,1.59-2.08,1.9,1.9,0,0,1,1.69.55C296,60.14,295.94,60.77,296.34,61.32Z"/><path class="cls-32" d="M401.82,88.39c-1.27,0-2.42,0-3.58,0-.48,0-.64-.22-.43-.64a3,3,0,0,1,1.12-1.28,1.7,1.7,0,0,1,2.42.74C401.51,87.57,401.64,87.94,401.82,88.39Z"/><path class="cls-32" d="M289.12,61.32c-1.35,0-2.55,0-3.75,0-.35,0-.42-.15-.36-.42a2.72,2.72,0,0,1,1.66-1.74,1.89,1.89,0,0,1,2.15,1.46A1.9,1.9,0,0,0,289.12,61.32Z"/><path class="cls-32" d="M312.1,61.32h-3.59c-.47,0-.63-.22-.42-.64a2.89,2.89,0,0,1,1.12-1.28,1.71,1.71,0,0,1,2.42.74C311.79,60.5,311.92,60.87,312.1,61.32Z"/><path class="cls-5" d="M442.86,89c.21.62-.32,1.12-.55,1.7s-.81.54-1.23.74a1.34,1.34,0,0,1-1.12-.06c-1-.48-1.23-.61-1.55-1.59a2.87,2.87,0,0,1,.14-2.24c.2-.4.42-.94.84-1a3.29,3.29,0,0,1,1.56-.28,2.69,2.69,0,0,1,1.91,2.33Z"/><path class="cls-5" d="M200.3,48.24c-.19-.56.31-1.08.53-1.66s.78-.58,1.23-.75a1.82,1.82,0,0,1,1.21.08c2,.61,2,3.37.82,4.6-.32.35-.76.28-1.12.48a1.36,1.36,0,0,1-1-.09A2.5,2.5,0,0,1,200.3,48.24Z"/><path class="cls-5" d="M335.86,75.51c.2.61-.23,1.17-.5,1.72-.4.8-1.57.92-2.51.66a2,2,0,0,1-1.45-1.54,3,3,0,0,1,.13-2.13,2.14,2.14,0,0,1,2.34-1.38,2.53,2.53,0,0,1,2,2.22C335.87,75.18,335.86,75.3,335.86,75.51Z"/><path class="cls-5" d="M266.29,62c.19.61-.33,1.11-.55,1.7s-.82.53-1.24.72a1,1,0,0,1-1.2-.17c-.93-.06-1.22-.82-1.46-1.5a2.63,2.63,0,0,1,.13-2.12c.22-.44.4-1,.87-1.14a3,3,0,0,1,1.56-.29,2.65,2.65,0,0,1,1.89,2.34Z"/><path class="cls-5" d="M216.15,89c.21.62-.32,1.12-.54,1.7s-.81.54-1.24.74a1.35,1.35,0,0,1-1.12-.06c-1-.48-1.23-.61-1.55-1.59a2.91,2.91,0,0,1,.14-2.24c.2-.4.42-.94.84-1a3.29,3.29,0,0,1,1.56-.28,2.67,2.67,0,0,1,1.91,2.33Z"/><path class="cls-5" d="M263.17,102.68c.19.62-.33,1.12-.55,1.7s-.82.53-1.24.73a1.28,1.28,0,0,1-1.22-.15c-.33-.21-.81-.27-1-.63a3.19,3.19,0,0,1-.29-3c.26-.42.41-1,.88-1.14a3.18,3.18,0,0,1,1.56-.29,2.64,2.64,0,0,1,1.89,2.35Z"/><path class="cls-6" d="M296.52,104.68a.21.21,0,0,1,.24.24Q296.51,104.94,296.52,104.68Z"/><path class="cls-6" d="M236.3,104.68q.25,0,.24.24Q236.3,104.94,236.3,104.68Z"/><path class="cls-33" d="M109.15,42.2c0,.79-.17.94-1,.93a2,2,0,0,1-1-.43.33.33,0,0,1-.19-.39,2.56,2.56,0,0,1,.67-1.33,1,1,0,0,1,1.48.63A2.91,2.91,0,0,1,109.15,42.2Z"/></g></g></svg>