<svg xmlns="http://www.w3.org/2000/svg" viewBox="0 0 578.4 126.24"><defs><style>.cls-1{fill:#f6eae3;}.cls-2{fill:#fefdfd;}.cls-3{fill:#fefefe;}.cls-4{fill:#f8efea;}.cls-5{fill:#f8f0eb;}.cls-6{fill:#f9f1ec;}.cls-7{fill:#fbf6f3;}.cls-8{fill:#122c70;}.cls-9{fill:#132c70;}.cls-10{fill:#132d70;}.cls-11{fill:#142d70;}.cls-12{fill:#162f71;}.cls-13{fill:#152e71;}.cls-14{fill:#183072;}.cls-15{fill:#172f72;}.cls-16{fill:#142e71;}.cls-17{fill:#162e71;}.cls-18{fill:#1b3274;}.cls-19{fill:#1b3273;}.cls-20{fill:#1f3575;}.cls-21{fill:#1c3374;}.cls-22{fill:#203675;}.cls-23{fill:#213676;}.cls-24{fill:#233877;}.cls-25{fill:#203575;}.cls-26{fill:#253a78;}.cls-27{fill:#f69890;}.cls-28{fill:#030303;}.cls-29{fill:#0b0a0a;}.cls-30{fill:#efd0b3;}.cls-31{fill:#eaccb2;}.cls-32{fill:#f4e8e2;}.cls-33{fill:#f5e9e3;}.cls-34{fill:#f5eae3;}.cls-35{fill:#f5e9e2;}.cls-36{fill:#203676;}</style></defs><g id="Layer_2" data-name="Layer 2"><g id="Layer_1-2" data-name="Layer 1"><path class="cls-1" d="M553,126.24H25.91a10.89,10.89,0,0,0-2.55-.12c-4.69.08-8.74-1.73-12.45-4.36A25.84,25.84,0,0,1,.65,106.61a15.2,15.2,0,0,1-.4-3.8q0-39.58,0-79.16a19.71,19.71,0,0,1,2.23-8.86A25.94,25.94,0,0,1,19.93.6,22.31,22.31,0,0,1,25.64.14Q289.34.11,553,.08A26,26,0,0,1,577.79,18.9a23.57,23.57,0,0,1,.49,4.26V103c-.06,5.85-2.63,10.67-6.36,14.95a25.86,25.86,0,0,1-10.1,6.88,17.27,17.27,0,0,1-6.77,1.25A7.64,7.64,0,0,0,553,126.24Z"/><path class="cls-2" d="M578.16,23.24a3.68,3.68,0,0,0-.22-1.35c-.12-.39.12-.86-.26-1.21a8.64,8.64,0,0,0-.74-3.05A26.89,26.89,0,0,0,574.79,13c-.7-1.26-1.63-2.35-2.42-3.54a14.16,14.16,0,0,0-1.67-1.71,24.49,24.49,0,0,0-8.16-5.48A12.79,12.79,0,0,0,558.05,1c-.44-.48-1.09-.15-1.63-.43s-1.2,0-1.77-.07A31.21,31.21,0,0,0,548,.26Q286.87.23,25.69.24a23.8,23.8,0,0,1-3.38.24,6.22,6.22,0,0,1-2.08.46c-.72.07-1.32.6-2.08.5-.93.62-2.09.73-3,1.31s-1.91,1-2.82,1.6a25,25,0,0,0-5,4.1,33,33,0,0,0-3.46,4.67A32.16,32.16,0,0,0,2,16.81a16,16,0,0,0-.82,2.65C1,20.3.87,21.16.69,22a32.76,32.76,0,0,0-.2,6.26q0,37.13,0,74.25a2.69,2.69,0,0,0,.2,1.59c.24.39-.18,1,.27,1.44a10.58,10.58,0,0,0,1,3.79,18.4,18.4,0,0,0,1.72,3.72c.62.94,1.19,1.91,1.85,2.83.06.08.06.22.13.3A48.13,48.13,0,0,0,9,119.73a28,28,0,0,0,7.14,4.47,19.17,19.17,0,0,0,4.48,1.35,13.85,13.85,0,0,0,2.93.45c.09,0,.11.11.09.16s-.06.08-.09.08H0V0H578.4V23.24Q578.28,23.41,578.16,23.24Z"/><path class="cls-3" d="M555.13,126a8.39,8.39,0,0,0,2.06-.22c.64-.09,1.24-.31,1.86-.44a22.68,22.68,0,0,0,6.55-2.71,20.1,20.1,0,0,0,3-2c.83-.67,1.58-1.4,2.34-2.13a24.13,24.13,0,0,0,4.8-6.76,14.84,14.84,0,0,0,1.29-3.18,17.55,17.55,0,0,0,.68-2.61,12.29,12.29,0,0,1,.22-1.33,4.44,4.44,0,0,0,.22-1.35q.12-.17.24,0v23H555.13c-.09,0-.11-.11-.09-.16S555.1,126,555.13,126Z"/><ellipse class="cls-4" cx="578.28" cy="63.24" rx="0.17" ry="54.61"/><path class="cls-5" d="M23.51,126.24V126h2.1c.16,0,.32,0,.3.24Z"/><path class="cls-6" d="M555.13,126v.24H553c0-.22.13-.24.3-.24Z"/><ellipse class="cls-7" cx="578.28" cy="102.53" rx="0.17" ry="1.02"/><ellipse class="cls-7" cx="578.28" cy="23.95" rx="0.17" ry="1.02"/><path class="cls-3" d="M84.1,116.18H31.93a3.23,3.23,0,0,1-1.74-.14c-.55-.32-1.26.2-1.78-.33a2.85,2.85,0,0,1-1.68-.3c-.52-.2-1.05-.38-1.57-.54a15.29,15.29,0,0,1-4.11-2.23,19.59,19.59,0,0,1-3.91-3.86,15.71,15.71,0,0,1-2.09-3.34,12.76,12.76,0,0,1-1.38-4.57c-.4-.57-.11-1.23-.25-1.82a28.11,28.11,0,0,1-.22-5.65c0-1.91,0-3.83,0-5.75q0-29.1,0-58.2a26.82,26.82,0,0,1,.35-3.56,14.92,14.92,0,0,1,.85-3.36A19.5,19.5,0,0,1,17,17.84a18.74,18.74,0,0,1,2.84-3,14.2,14.2,0,0,1,4.67-2.91,27.07,27.07,0,0,0,2.7-1c.55-.24,1.2.08,1.63-.42,1.14.07,2.23-.26,3.38-.26q45,0,90.06,0c4.68,0,9.36,0,14,0a4.29,4.29,0,0,1,2,.17c.54.26,1.24-.14,1.79.3a9.14,9.14,0,0,1,3.13.84,15.65,15.65,0,0,1,3.57,1.83,17.71,17.71,0,0,1,4.32,3.95A13.48,13.48,0,0,1,154,22.64a6.92,6.92,0,0,0,.54,1.57c.28.51-.08,1.12.39,1.52.05,0,0,.15,0,.22-.1,1.22.27,2.39.27,3.62q0,34.07,0,68.13a13.78,13.78,0,0,0-.26,2.18c.11.71-.4,1.34-.25,2.05-.81,1.74-1.17,3.66-2.33,5.28-.65.89-1.27,1.8-2,2.65a22.64,22.64,0,0,1-2,2,18.55,18.55,0,0,1-4.9,2.93,22,22,0,0,0-2.41.81c-.45.23-1-.07-1.42.35-.91-.18-1.75.26-2.66.26Q110.54,116.16,84.1,116.18Z"/><path class="cls-8" d="M213.71,53.42c-1.08,0-2.16,0-3.23,0a1.85,1.85,0,0,1-1.89-1.18,1.75,1.75,0,0,1,0-1.45A52.18,52.18,0,0,1,211,46.15a9.24,9.24,0,0,0,1.24-2.47c.24-.77.94-.68,1.39-1,.57.24,1.22.27,1.54,1,.57,1.28,1.25,2.51,1.9,3.76.43.82.85,1.65,1.35,2.43a7.62,7.62,0,0,1,.53,1.34c.27.65-.24,1.24-.59,1.75a1.56,1.56,0,0,1-1.33.49C216,53.43,214.83,53.42,213.71,53.42Z"/><path class="cls-8" d="M225.51,53.42c-1.12,0-2.24,0-3.36,0a1.77,1.77,0,0,1-1.78-1.15,1.81,1.81,0,0,1,0-1.54c.76-1.48,1.43-3,2.24-4.45.48-.88,1-1.74,1.4-2.66a1.52,1.52,0,0,1,1.45-.9,1.56,1.56,0,0,1,1.46.9c.75,1.61,1.62,3.16,2.37,4.77.24.51.58,1,.86,1.43s.28.92.56,1.33-.24,1.44-.85,1.88a2.37,2.37,0,0,1-1.52.41C227.43,53.4,226.47,53.42,225.51,53.42Z"/><path class="cls-8" d="M166.49,27.86c-.25-2.48,2.31-5,5-4.91a5.18,5.18,0,0,1,5,5,4.71,4.71,0,0,1-1.62,3.52,5.44,5.44,0,0,1-3.76,1.36A4.85,4.85,0,0,1,166.49,27.86Z"/><path class="cls-8" d="M308,32.58V22.82c.61-.14,1.23,0,1.89-.09v3.41a5.46,5.46,0,0,0,.94-.63,3.26,3.26,0,0,1,2.13-.34,2.55,2.55,0,0,1,1.53.89,3,3,0,0,1,1,2.1c0,.56,0,1.12,0,1.67a3.35,3.35,0,0,1-3.1,3,5,5,0,0,1-1.82-.55c-.31-.13-.51-.46-.61.15,0,.18-.26.13-.41.13Z"/><path class="cls-8" d="M317.18,32.57V22.78h1.88v3.39a3.72,3.72,0,0,1,2.67-1,3.32,3.32,0,0,1,2.86,3.61,8.14,8.14,0,0,1-.22,1.94,3.08,3.08,0,0,1-4.29,1.83,4.25,4.25,0,0,1-.58-.35c-.11-.08-.29-.09-.31,0C318.71,33.08,317.88,32.37,317.18,32.57Z"/><path class="cls-8" d="M190.52,22.78h1.85v3.4a6.48,6.48,0,0,1,1.25-.8,2.26,2.26,0,0,1,3.16,1.13A1.24,1.24,0,0,1,197,27v5.51H195c0-1.25,0-2.52,0-3.78a2.18,2.18,0,0,0-.27-1.09,1.1,1.1,0,0,0-1.28-.61,1.08,1.08,0,0,0-.89.92,4.66,4.66,0,0,0-.21,1.23c0,1.07,0,2.15,0,3.33-.61.07-1.22,0-1.88,0Z"/><path class="cls-8" d="M206.55,32.56h-1.88V22.82h1.85v3.32c.32-.14.46-.48.64-.48s.42-.2.61-.29a2.29,2.29,0,0,1,3.17,1.14,1.14,1.14,0,0,1,.17.53v5.51h-1.92c0-1.26,0-2.52,0-3.79a2.34,2.34,0,0,0-.28-1.08,1.1,1.1,0,0,0-1.29-.61,1.13,1.13,0,0,0-.88.93,5.11,5.11,0,0,0-.21,1.22C206.56,30.3,206.55,31.38,206.55,32.56Z"/><path class="cls-8" d="M293.16,32.55h-1.89V22.81h1.87v3.37c.28-.24.45-.51.65-.52s.41-.2.6-.29a2.34,2.34,0,0,1,3.24,1.25,1.58,1.58,0,0,1,.08.8c0,1.68,0,3.35,0,5.13-.61.07-1.23,0-1.92,0,0-1.31,0-2.58,0-3.85a1.86,1.86,0,0,0-.52-1.34,1.1,1.1,0,0,0-1.87.39,3.9,3.9,0,0,0-.28,1.33C293.21,30.24,293.16,31.35,293.16,32.55Z"/><path class="cls-8" d="M369.67,25.39,367,28c1,1.55,1.92,3,2.89,4.54a17.58,17.58,0,0,0-1.78,0,.88.88,0,0,1-1-.53c-.35-.85-1-1.48-1.39-2.31l-.16.07a1.67,1.67,0,0,0-.73,1.74,6.36,6.36,0,0,1,0,1H363V22.79h1.84v5.14c.82-.83,1.53-1.5,2.19-2.21a1,1,0,0,1,.83-.34C368.48,25.41,369.07,25.39,369.67,25.39Z"/><path class="cls-9" d="M224.47,25.15A3.91,3.91,0,0,1,228.41,29a4.18,4.18,0,0,1-4,3.82,3.89,3.89,0,0,1-3.87-3.91A3.76,3.76,0,0,1,224.47,25.15Z"/><path class="cls-9" d="M332.88,29.7h-4.81c-.42.4.32.53.13.85.51.12.86.56,1.43.61s1.06-.35,1.57-.55c.2-.08.3-.17.44,0s.14.1.16.17c.13.32.66.24.67.52s-.4.7-.71.87a2.94,2.94,0,0,1-1.78.63,3.73,3.73,0,0,1-2.2-.48c-.84-.63-1.73-1.18-1.76-2.39a2.69,2.69,0,0,1,.07-2.53,3.55,3.55,0,0,1,2.08-2,3.24,3.24,0,0,1,4,1.05A3.83,3.83,0,0,1,333,29C333,29.2,333.05,29.45,332.88,29.7Z"/><path class="cls-9" d="M361.25,29.72h-5c.05.85.67,1.08,1.23,1.31a1.12,1.12,0,0,0,1.3-.11c.08-.07.27-.09.4-.17.35-.23.71-.34,1,.12a.62.62,0,0,0,.48.29c.18,0,.22.25.11.36a3.21,3.21,0,0,1-2.45,1.3,3.71,3.71,0,0,1-2.21-.46A4.38,4.38,0,0,1,354.29,30a3.56,3.56,0,0,1,.16-2.64,3.76,3.76,0,0,1,2.11-2,3.35,3.35,0,0,1,4.06,1.34A5.25,5.25,0,0,1,361.25,29.72Z"/><path class="cls-9" d="M383.12,29.71h-5.07c.11.4.15.75.49.95a3.34,3.34,0,0,0,1,.46,1.18,1.18,0,0,0,1-.14,5,5,0,0,1,1.14-.56,2,2,0,0,1,.25.4c.13.32.65.22.67.53s-.37.6-.64.79a2.91,2.91,0,0,1-1.87.69,3.61,3.61,0,0,1-2.21-.48c-.82-.64-1.72-1.19-1.74-2.4-.62-.85-.12-1.74.07-2.53a4,4,0,0,1,3.19-2.3,3.32,3.32,0,0,1,2.91,1.33,3.89,3.89,0,0,1,.79,2.54C383.1,29.18,383.12,29.38,383.12,29.71Z"/><path class="cls-9" d="M212.29,25.39h1.77a.61.61,0,0,1,.66.51c.41,1.35.85,2.68,1.28,4a19.49,19.49,0,0,0,1.63-4.53h2.08c0,.18.08.32,0,.4a25.12,25.12,0,0,0-.93,2.36c-.62,1.46-1.18,3-1.67,4.45a9.55,9.55,0,0,1-.53,1.22,1.56,1.56,0,0,1-1.48.91c-.53,0-1.09.14-1.59-.23-.13-.09-.42.1-.5-.16a1.18,1.18,0,0,1,0-.59,2.67,2.67,0,0,1,.36-.69c.13-.18.3-.39.57-.15s.59.16.89.11.34-.41.24-.65c-.58-1.36-1.16-2.71-1.61-4.12A31,31,0,0,0,212.29,25.39Z"/><path class="cls-8" d="M334.42,25.39h1.26c.6,0,.6,0,.75.69a3.35,3.35,0,0,1,2.59-.93A2.38,2.38,0,0,1,340.9,27c0,.16,0,.32,0,.48v5H339c0-1.25,0-2.52,0-3.78a2.18,2.18,0,0,0-.27-1.09,1.1,1.1,0,0,0-1.28-.61,1.08,1.08,0,0,0-.89.92,4.66,4.66,0,0,0-.21,1.23c0,1.1,0,2.21,0,3.34h-1.92V25.39Z"/><path class="cls-8" d="M306.07,32.58c-.47,0-.91,0-1.34,0s-.61,0-.55-.5c0-.28-.22-.27-.4-.15a2.69,2.69,0,0,0-.35.33,2.32,2.32,0,0,1-3.7-.89,1,1,0,0,1-.09-.44c0-1.83,0-3.65,0-5.51h1.91c0,1.3,0,2.6,0,3.9a1.73,1.73,0,0,0,.58,1.32c.44.42,1.7.24,1.77-.33a9,9,0,0,0,.31-1.56c-.06-1.07,0-2.15,0-3.33.61-.07,1.23,0,1.88,0Z"/><path class="cls-8" d="M348.76,25.43a2.29,2.29,0,0,1-.92,2.49c-1,.82-1.67,2-2.69,2.92a10,10,0,0,0,1.8.06c.6,0,1.19,0,1.82,0v1.6s0,0,0,0a.21.21,0,0,1-.1,0h-5.95a1,1,0,0,1-.1-.24,2.37,2.37,0,0,1,.9-2.27c.94-.91,1.71-2,2.8-3h-3.63a11.67,11.67,0,0,1-.09-1.68Z"/><path class="cls-10" d="M245.9,26.24a2.09,2.09,0,0,1-.43.9c-.17.23-.07.84-.7.43-.25-.17-.67-.2-.93-.34a1.43,1.43,0,0,0-.89-.14c-.15,0-.33.22-.4.38s.12.38.27.47c.58.32,1.26.42,1.84.78.16.1.41.2.58.29a2,2,0,0,1,.58,2.79,2.72,2.72,0,0,1-2,1,3.84,3.84,0,0,0-.48,0c-1,.21-1.82-.39-2.67-.77-.4-.19-.42-.56-.13-1,.09-.12.27-.23.28-.36,0-.5.5-.34.6-.26.39.34.91.34,1.33.58a1.64,1.64,0,0,0,1,.09c.15,0,.33-.22.41-.38s-.12-.39-.27-.47a6.66,6.66,0,0,0-1.44-.55,2.62,2.62,0,0,1-1.74-1.25,1.85,1.85,0,0,1,0-1.67,2.31,2.31,0,0,1,2-1.41A4.5,4.5,0,0,1,245.9,26.24Z"/><path class="cls-10" d="M235.09,26.24c.09.25-.16.34-.22.51-.13.35-.21.8-.55.94s-.58-.36-.84-.35-.55-.28-.86-.27-.54-.06-.75.22a.35.35,0,0,0,0,.5,1.23,1.23,0,0,0,.77.44,6.41,6.41,0,0,1,1.73.76,1.9,1.9,0,0,1,.24,3.23,3.41,3.41,0,0,1-1.78.63,5.34,5.34,0,0,1-2.81-.76c-.5-.25-.55-.56-.22-1,.09-.13.26-.24.27-.37.06-.48.51-.33.61-.24A4.24,4.24,0,0,0,232,31c.69.27,1.4.11,1.41-.28,0-.6-.6-.65-1-.78a3.93,3.93,0,0,1-2.16-1.14c-.15-.21-.48-.31-.43-.65a4.37,4.37,0,0,1,.13-1.38,2.4,2.4,0,0,1,2-1.4A4.46,4.46,0,0,1,235.09,26.24Z"/><path class="cls-10" d="M272.35,32.78c-1,.3-1.76-.4-2.59-.71-.43-.16-.46-.58-.18-1,.09-.13.28-.23.29-.35.07-.57.46-.38.68-.24a6.19,6.19,0,0,0,1.23.49c.07,0,.12.12.18.14.49.11,1.18-.09,1.29-.36s-.31-.66-1-.83a3.56,3.56,0,0,1-2.09-1c-.24-.29-.6-.47-.57-1a2.59,2.59,0,0,1,.47-1.72,2.48,2.48,0,0,1,1.8-.85,3,3,0,0,1,2,.31c.32.24,1,.25,1,.61s-.39.86-.61,1.28c-.09.15-.17.15-.35,0-.35-.2-.78-.25-1.12-.46a1.37,1.37,0,0,0-.67-.12.54.54,0,0,0-.55.37c-.13.27.15.46.34.55.55.29,1.19.38,1.73.73a2.45,2.45,0,0,0,.48.26,1.65,1.65,0,0,1,1,1.73,1.75,1.75,0,0,1-1,1.64A2.35,2.35,0,0,1,272.35,32.78Z"/><path class="cls-10" d="M279,32.79c-1,.32-1.7-.42-2.54-.71-.43-.15-.48-.59-.21-1,.09-.13.3-.23.31-.35,0-.56.44-.41.66-.28.39.23.84.31,1.22.51a1.94,1.94,0,0,0,1,.13.5.5,0,0,0,.47-.45c.05-.23-.18-.38-.32-.45a7,7,0,0,0-1.46-.51,2.73,2.73,0,0,1-1.71-1.29,1.67,1.67,0,0,1,0-1.58,2,2,0,0,1,1.37-1.25,3.57,3.57,0,0,1,3,.23,1.21,1.21,0,0,0,.59.28c.31,0,.28.22.19.41s-.23.38-.33.58c-.36.67-.4.74-1,.35-.3-.2-.69,0-.95-.36a.74.74,0,0,0-.86.15c-.19.21-.28.39,0,.58a1.73,1.73,0,0,0,.77.42c.69,0,1.16.51,1.73.76a1.68,1.68,0,0,1,.95,1.69,1.8,1.8,0,0,1-1,1.66A2.58,2.58,0,0,1,279,32.79Z"/><path class="cls-10" d="M371.13,23.5h2.13v1.87h1.67v1.68h-1.64c0,1,0,2,0,2.93s.23,1.1,1.15.8c.3-.09.37.06.42.16a1.23,1.23,0,0,1-1.07,1.87,3.72,3.72,0,0,1-1.41-.06,1.94,1.94,0,0,1-1.25-2c0-1.12,0-2.23,0-3.35,0-.15,0-.38-.18-.36-.81.1-.53-.49-.53-.85s-.29-.95.53-.85c.2,0,.18-.21.18-.36Z"/><path class="cls-10" d="M199.12,23.51h2.14v1.87h1.67V27h-1.58a7.78,7.78,0,0,0-.07,1.66c0,.55,0,1.11,0,1.67a.68.68,0,0,0,1.06.5c.53-.28.51,0,.61.3a1.46,1.46,0,0,1,0,.47,1,1,0,0,1-1.07,1.19c-.24,0-.48,0-.72,0-1.09.08-1.92-.43-2-2-.08-1.11,0-2.23,0-3.35,0-.15,0-.38-.18-.35-.7.11-.53-.38-.54-.74s0-.48,0-.72.07-.25.19-.22c.59.12.54-.27.53-.63S199.12,24,199.12,23.51Z"/><path class="cls-10" d="M286.91,32.82c-1.49.23-3-1.08-3.62-2.74a4,4,0,0,1,2.48-4.81,3.58,3.58,0,0,1,3.21.4c.26.19.83.26.75.57a1.89,1.89,0,0,1-.61.93c-.45.37-.41.37-1,0a1.61,1.61,0,0,0-1.8-.14,1.71,1.71,0,0,0-1.05,1.59,3.06,3.06,0,0,0,.08,1.28,1.75,1.75,0,0,0,2.86.77c.38-.33.58-.29.84.05l.09.09c.89.87.89.87-.26,1.52A2.65,2.65,0,0,1,286.91,32.82Z"/><path class="cls-10" d="M186.18,32.81c-1.4.23-3-.87-3.62-2.65A3.94,3.94,0,0,1,185,25.25a3.43,3.43,0,0,1,3.29.51c.22.18.68.16.64.51s-.29.5-.48.74a5.66,5.66,0,0,1-.42.43.27.27,0,0,1-.48,0,1.33,1.33,0,0,0-.86-.54,1.84,1.84,0,0,0-2.24,1.69c0,.23,0,.47,0,.71a1.82,1.82,0,0,0,1,1.66,1.67,1.67,0,0,0,1.9-.16c.56-.35.54-.37,1,.08.87.86.89.89-.2,1.49A2.68,2.68,0,0,1,186.18,32.81Z"/><path class="cls-9" d="M257,25.44a2.13,2.13,0,0,1,.91,0c1.31,0,1.31,0,1.67,1.18s.7,2.24,1.06,3.37c.52-.27.4-.82.59-1.22.31-.62.4-1.34.7-2,.19-.43.29-.9.44-1.36.59,0,1.19,0,1.79,0,.32,0,.26.3.21.43-.2.48-.38,1-.57,1.44a41.19,41.19,0,0,0-1.59,4.12c-.09.32-.37.58-.45.89s-.15.31-.38.3h-.72c-.87,0-1.07-.12-1.31-.95a35.46,35.46,0,0,0-1.6-4.12C257.46,26.84,257.24,26.15,257,25.44Z"/><path class="cls-10" d="M166.29,71.62c1.42,0,2.81,0,4.2,0a2.57,2.57,0,0,1,2.2,1.53,2.28,2.28,0,0,1-.7,2.43,2.19,2.19,0,0,1-.41.17c.09.49.62.47.91.74,1.27,1.13.76,2.76-.68,3.47a2.45,2.45,0,0,1-1.2.3c-1.42-.06-2.85,0-4.32,0Z"/><path class="cls-10" d="M255.08,23.05c.15-.07.17.1.25.14.34.18.35.59.59.84s.06.28-.06.4-.5.52-.77.76a4.91,4.91,0,0,0-.78,6.25,8.32,8.32,0,0,0,1.39,1.46c.28.26.38.44.06.77-.09.1-.16.32-.27.48-.21.33-.42.3-.72.11A7.53,7.53,0,0,1,252,31.43a11.32,11.32,0,0,1-.5-1.83,2.88,2.88,0,0,1,.09-1.93c.21-.54.24-1.13.51-1.7a6,6,0,0,1,2.81-2.75A1.36,1.36,0,0,0,255.08,23.05Z"/><path class="cls-10" d="M385.32,23a7.06,7.06,0,0,1,2.87,2.53,3.5,3.5,0,0,1,.66,1.86c0,.42.29.7.28,1.1a10.9,10.9,0,0,1-.74,3.16,6.44,6.44,0,0,1-2.77,2.65c-.2.09-.25.13-.44,0-.37-.26-.38-.76-.75-1s.05-.27.13-.32a4.45,4.45,0,0,0,2.2-2.9,5.55,5.55,0,0,0-.15-3.23,5.59,5.59,0,0,0-1.54-2c-.22-.21-.7-.21-.71-.51s.41-.39.49-.74S385.18,23.16,385.32,23Z"/><path class="cls-11" d="M167.22,49.83v3.22c-.29.24-.58,0-.81.15a62.19,62.19,0,0,1-.11-8.64c1.42,0,2.85,0,4.28,0A2.6,2.6,0,0,1,173,47a2.39,2.39,0,0,1-2.15,2.65,31.28,31.28,0,0,0,2.25,3,.45.45,0,0,1,.13.3c0,.23-.2.18-.36.19a1.17,1.17,0,0,1-1.18-.64c-.59-.84-1.27-1.62-1.8-2.5a.32.32,0,0,0-.34-.21Z"/><path class="cls-12" d="M477.4,87.43c0,1.67.05,3.22,0,4.77a3.11,3.11,0,0,1-3,3.4,6.36,6.36,0,0,1-2.8-.5c-.32-.16-.36-.46-.15-.8.1-.17.28-.23.38-.13.43.45,1,.41,1.56.57a2.4,2.4,0,0,0,2.53-.61c.24-.24.45-.48.32-.82s.55-.81.15-1.31c-.37.25-.66.59-1.06.83a3.26,3.26,0,0,1-2.13.33,2.66,2.66,0,0,1-1.52-.89,2.3,2.3,0,0,1-.71-1.6,3.06,3.06,0,0,1,.71-2.47,4.06,4.06,0,0,1,1.87-1,3.49,3.49,0,0,1,2.42.82c.15.09.3.21.27,0,0-.44.11-.59.53-.52A5.08,5.08,0,0,0,477.4,87.43Z"/><path class="cls-12" d="M340.08,61.13c.16-.77.16-.77,1.3-.71,0,1.66.1,3.33,0,5a2.89,2.89,0,0,1-2.07,2.92c-.06,0-.11.16-.17.16a7,7,0,0,1-3.62-.47c-.35-.18-.27-.41-.12-.72s.27-.21.51-.1a4.62,4.62,0,0,0,2.27.58,2.35,2.35,0,0,0,1.72-.75c.19-.21.4-.41.3-.71-.15-.48.43-.84.18-1.39-.37.16-.58.53-.94.73-1.6.87-2.49.52-3.77-.38a1.9,1.9,0,0,1-.59-1.07,3.09,3.09,0,0,1,.1-2.46,3.26,3.26,0,0,1,1.51-1.4,2.5,2.5,0,0,1,2.51.13C339.47,60.67,339.85,60.76,340.08,61.13Z"/><path class="cls-12" d="M244,61.07c0-.37-.13-.78.44-.71a6.47,6.47,0,0,0,.78,0c0,1.74,0,3.44,0,5.14a3.7,3.7,0,0,1-.51,1.69,2.35,2.35,0,0,1-1.55,1.12c-.1,0-.19.18-.28.18a6.9,6.9,0,0,1-3.51-.47c-.32-.16-.34-.37-.15-.71s.28-.34.4-.2a2.87,2.87,0,0,0,1.66.61,2.4,2.4,0,0,0,2.6-.86c.07-.09.18-.14.16-.29a2.87,2.87,0,0,1,.33-1.54c-.36-.15-.41.11-.53.21a3.27,3.27,0,0,1-1.92.87,2.9,2.9,0,0,1-2-.62,3,3,0,0,1,1.47-5.38,2.36,2.36,0,0,1,2,.65A2.26,2.26,0,0,0,244,61.07Z"/><path class="cls-12" d="M258.52,105.37c-1.48,1.58-3.14,1.69-4.68.38a3.16,3.16,0,0,1-.37-3.71,4.28,4.28,0,0,1,1.38-1.22,2.49,2.49,0,0,1,1.82-.17,5.9,5.9,0,0,1,1.63.88c.13-.69.13-.69,1.27-.62,0,1.66.1,3.33,0,5a2.89,2.89,0,0,1-2.07,2.92c-.06,0-.11.15-.17.16a7,7,0,0,1-3.62-.48c-.36-.18-.26-.41-.12-.72s.29-.21.52-.09a5.73,5.73,0,0,0,2.27.58,2.44,2.44,0,0,0,1.72-.76c.19-.21.39-.42.3-.71C258.21,106.31,258.8,106,258.52,105.37Z"/><path class="cls-12" d="M319.74,101.56c.09-.37-.08-.86.55-.72a3.84,3.84,0,0,0,.7,0c0,1.31,0,2.61,0,3.91a8.4,8.4,0,0,1-.27,2.29,2.39,2.39,0,0,1-1.18,1.47,3.81,3.81,0,0,1-1.84.49,5.57,5.57,0,0,1-2.55-.5c-.36-.16-.38-.39-.18-.78.1-.19.28-.24.37-.16.43.44,1,.41,1.56.58a2.37,2.37,0,0,0,2.53-.59c.23-.24.47-.46.34-.81s.53-.82.17-1.31c-1.91,1.7-3.3,1.45-4.73.26a2.2,2.2,0,0,1-.71-1.48,3.08,3.08,0,0,1,.73-2.68,3.12,3.12,0,0,1,2.19-1C318.39,100.56,318.94,101.2,319.74,101.56Z"/><path class="cls-13" d="M222.87,93.64a2,2,0,0,1-1-.06c0-1.37,0-2.76,0-4.14a1.51,1.51,0,0,0-1.94-1.5,1.28,1.28,0,0,0-1,.82,5.49,5.49,0,0,0-.43,1.74c0,1,0,2.06,0,3.07-.3.16-.58.07-1,.09V91.43c0-.68,0-1.36,0-2a1.52,1.52,0,0,0-2.93-.6,3.51,3.51,0,0,0-.44,1.62c0,1,0,2.07,0,3.13-.27.21-.58.09-.92.08V87.55c.85-.14.85-.14,1,.58,1.68-1.44,2.72-1.27,4.11.25.17-.17.35-.34.51-.51,1-1,2.16-.8,3.34-.17.07.49.63.72.6,1.32C222.82,90.53,222.87,92,222.87,93.64Z"/><path class="cls-13" d="M181.84,93.63h-.93v-6.1c.88-.09.88-.09,1,.63.22-.18.39-.42.6-.46s.37-.28.56-.4a2.55,2.55,0,0,1,2.18.3c.27.23.51.5.87.86.19-.24.37-.48.57-.7a2.08,2.08,0,0,1,1.56-.59c.68,0,1.13.41,1.7.56,0,.49.6.64.57,1.21-.08,1.55,0,3.1,0,4.63-.3.16-.58.07-1,.09v-4a2,2,0,0,0-.22-1,1.41,1.41,0,0,0-1.3-.72,1.23,1.23,0,0,0-1.35.67,4.27,4.27,0,0,0-.5,1.83c0,1,0,2.07,0,3.13-.27.2-.58.1-1,.08,0-1.39,0-2.78,0-4.16a1.52,1.52,0,0,0-1.92-1.53,1.24,1.24,0,0,0-1,.8,3.54,3.54,0,0,0-.44,1.72C181.84,91.5,181.84,92.53,181.84,93.63Z"/><path class="cls-10" d="M246.4,93.66V85a28.43,28.43,0,0,1,3.92,0,3.91,3.91,0,0,1,3,2,5.61,5.61,0,0,1,.46,3.5,3.14,3.14,0,0,1-1.1,1.89,3.69,3.69,0,0,1-1.93,1.1c-.24,0-.51.12-.78.13C248.82,93.67,247.66,93.66,246.4,93.66Z"/><path class="cls-14" d="M357,101.68V98.25h1.14V107c-.15.13-.36,0-.54,0-.54,0-.54,0-.66-.7a3.67,3.67,0,0,1-2.44,1,3.22,3.22,0,0,1-2.75-2.48,4.33,4.33,0,0,1,.21-2.41,3,3,0,0,1,4.74-1A3.1,3.1,0,0,1,357,101.68Z"/><path class="cls-14" d="M209.17,74.83v-3.4h1.2v8.73c-.2.17-.46,0-.68.09-.62.15-.46-.34-.54-.7a4.27,4.27,0,0,1-2.07,1,2.93,2.93,0,0,1-2.58-1.26,3.6,3.6,0,0,1,.06-4.27C205.65,73.63,207.34,73.15,209.17,74.83Z"/><path class="cls-14" d="M272.77,74.86V71.43h1.17v8.73c-.17.17-.38.08-.57.08-.55,0-.55,0-.66-.7a3.8,3.8,0,0,1-2.31,1,3.17,3.17,0,0,1-2.91-2.94,4.44,4.44,0,0,1,.23-1.94,3,3,0,0,1,4.74-1.07C272.52,74.6,272.57,74.66,272.77,74.86Z"/><path class="cls-14" d="M318.55,84.82h1.2v8.77c-.11.15-.32.07-.51.07-.59,0-.59,0-.75-.69a3.77,3.77,0,0,1-2,.94A2.91,2.91,0,0,1,314,92.76a3.6,3.6,0,0,1,.1-4.52,2.8,2.8,0,0,1,4.07-.38c.11.07.14.26.39.26Z"/><path class="cls-14" d="M408.79,88.23V84.9c.35-.21.75,0,1.16-.14v8.83c-.1.15-.31.07-.5.07-.6,0-.6,0-.75-.69a3.56,3.56,0,0,1-2.1.94,2.94,2.94,0,0,1-2.32-1,3.62,3.62,0,0,1,0-4.62,2.81,2.81,0,0,1,4.16-.31A3.89,3.89,0,0,1,408.79,88.23Z"/><path class="cls-12" d="M222.67,71.41h.91V75c.48-.28.74-.65,1.16-.85a2.83,2.83,0,0,1,4,1.21,3.91,3.91,0,0,1,.36,2.7,2.74,2.74,0,0,1-1,1.71,3.28,3.28,0,0,1-3.21.48c-.48-.22-.68-.72-1.13-.94-.23.26,0,.62-.19.91h-.82Z"/><path class="cls-12" d="M193.36,92.59v2.89c-.29.18-.57.06-.84.1a.34.34,0,0,1-.08-.09.21.21,0,0,1,0-.1V87.53c.93-.09.93-.09,1,.81.45-.12.72-.51,1.06-.75,1.92-1.31,4.5.64,4.44,2.66a3.59,3.59,0,0,1-.75,2.56,2.83,2.83,0,0,1-4.32.24C193.7,92.94,193.6,92.82,193.36,92.59Z"/><path class="cls-13" d="M180.61,32.56h-2.09v-9.3c.66-.05,1.35,0,2.09,0Z"/><path class="cls-13" d="M283,78.57a2.52,2.52,0,0,0,1.32.91,4.57,4.57,0,0,0,1.69.31,6.17,6.17,0,0,0,1.08-.33c.67-.23.78-1.44.31-2a2.79,2.79,0,0,0-1.59-.8,4.7,4.7,0,0,1-2.37-.94,2.09,2.09,0,0,1-.45-2.86,2.88,2.88,0,0,1,2.48-1.25,6.13,6.13,0,0,1,2.55.52c.18.08.48.28.35.54a2.12,2.12,0,0,1-.56.6.76.76,0,0,1-.24-.19,2.76,2.76,0,0,0-1.51-.69,2.11,2.11,0,0,0-2.34.92,1.23,1.23,0,0,0,.65,1.67c.82.26,1.64.49,2.46.73a3.23,3.23,0,0,1,1.84,1.7c.39.62,0,1-.09,1.49a1.8,1.8,0,0,1-.88,1.13A4.84,4.84,0,0,1,283,79.8c-.09-.08-.16-.23-.25-.25-.54-.07-.47-.29-.17-.58C282.68,78.85,282.79,78.74,283,78.57Z"/><path class="cls-13" d="M166.38,92a2.6,2.6,0,0,0,1.32.92,4.56,4.56,0,0,0,1.69.3,6.69,6.69,0,0,0,1.07-.32c.68-.24.79-1.44.32-2a2.76,2.76,0,0,0-1.59-.8,4.59,4.59,0,0,1-2.37-.95,2.09,2.09,0,0,1-.45-2.86A2.84,2.84,0,0,1,168.85,85a6,6,0,0,1,2.55.51c.18.08.48.28.35.55a2.43,2.43,0,0,1-.56.6.66.66,0,0,1-.24-.19,2.74,2.74,0,0,0-1.51-.7,2.15,2.15,0,0,0-2.35.93,1.23,1.23,0,0,0,.66,1.67c.82.25,1.64.48,2.46.72a3.3,3.3,0,0,1,1.84,1.7c.39.62,0,1-.09,1.5a1.83,1.83,0,0,1-.88,1.13,4.87,4.87,0,0,1-4.68-.23c-.09-.07-.16-.23-.26-.24-.54-.07-.46-.29-.16-.59C166.09,92.27,166.2,92.15,166.38,92Z"/><path class="cls-9" d="M205.62,58.69V61.8c1.49,0,3,0,4.43,0,.39,0,.34.22.34.46s-.2.27-.4.27h-4.35V65.8c.27.18.63.06,1,.07h4c.29,0,.3.15.31.37s-.06.36-.33.36h-5.88V58h3.78c.68,0,1.36,0,2,0,.34,0,.39.13.39.42s-.13.32-.37.31h-4.89Z"/><path class="cls-9" d="M166.29,66.59V58H172c.28,0,.55-.06.52.4s-.26.32-.48.32h-4.75a7.45,7.45,0,0,0-.06,1.5c0,.51,0,1,0,1.61,1.51,0,3,0,4.45,0,.38,0,.34.21.35.45s-.19.28-.39.28h-4.36v3.35h4.8c.26,0,.49,0,.43.36,0,.16,0,.33-.19.36h-6Z"/><path class="cls-15" d="M512.47,93.63c-1,0-1,0-1-.71-.22.19-.39.46-.58.47s-.4.21-.61.29a2.53,2.53,0,0,1-3.13-.66c-.25-.33-.56-.69-.42-1.12s.13-1.09.64-1.4a2.74,2.74,0,0,1,1.87-.67c.64.11,1.33-.24,1.95.22.18.14.38-.07.31-.32-.16-.58-.24-1.23-.83-1.55a1.73,1.73,0,0,0-1.75-.15c-.36.21-.77-.06-1.09.28-.11.11-.38-.17-.39-.4s-.11-.39.18-.48a9.84,9.84,0,0,1,3-.24c.66.49,1.4.81,1.64,1.8C512.59,90.52,512.27,92,512.47,93.63Z"/><path class="cls-15" d="M194.82,80.25c-.93,0-.93,0-1-.74a3.44,3.44,0,0,1-2.9,1A2.71,2.71,0,0,1,189,78.8c-.11-.45.21-.8.27-1.21a1.11,1.11,0,0,1,.81-.74c.33-.11.61-.47,1-.43.77.09,1.56-.23,2.31.19.28.15.44,0,.4-.33a2,2,0,0,0-2.54-1.76c-.25.39-.65.15-1,.25s-.51,0-.55-.31,0-.35.33-.47a7.48,7.48,0,0,1,2.66-.2c.69,0,1.61,1,1.81,1.7C195,77,194.68,78.61,194.82,80.25Z"/><path class="cls-15" d="M236.08,80.18c-.92,0-.92,0-1.06-.68a3.26,3.26,0,0,1-2.8,1,2.8,2.8,0,0,1-1.92-1.6c-.15-.5.19-.89.28-1.33s.48-.52.82-.72a4.35,4.35,0,0,1,3.24-.28c.4.08.52,0,.46-.31a1.84,1.84,0,0,0-2.64-1.6c-.28.1-.59,0-.79.1-.5.37-.55,0-.64-.33s-.06-.39.25-.41c.49,0,.93-.35,1.46-.24a3.92,3.92,0,0,0,.84,0,2.38,2.38,0,0,1,2.26,1.87C236.3,77.16,235.9,78.68,236.08,80.18Z"/><path class="cls-15" d="M243.06,80.22c-.95,0-.95,0-1-.71-.22.19-.39.46-.58.47s-.4.21-.61.28a2.53,2.53,0,0,1-3.13-.65c-.25-.33-.56-.7-.42-1.13s.13-1.09.64-1.4a2.74,2.74,0,0,1,1.88-.66c.64.11,1.32-.24,1.94.22.18.13.38-.08.31-.32-.16-.58-.24-1.24-.83-1.56a1.78,1.78,0,0,0-1.75-.15c-.36.22-.77-.06-1.09.29-.11.11-.37-.18-.39-.41s-.11-.38.18-.48a9.84,9.84,0,0,1,3-.23c.67.49,1.4.81,1.64,1.8C243.19,77.11,242.87,78.62,243.06,80.22Z"/><path class="cls-15" d="M264.68,93.56a1.58,1.58,0,0,1-2-.8c-.49-.68-1-1.33-1.53-2L261,91c-.37.37-.87.67-1.06,1.12a4,4,0,0,0,0,1.46,1.72,1.72,0,0,1-.94.1V84.86a1.85,1.85,0,0,1,.89,0v6.1c1.05-1,2-1.94,2.87-2.88a1.44,1.44,0,0,1,1.73-.51c-.74.74-1.44,1.47-2.18,2.16-.32.29-.14.45-.05.77.16.52.81.66.82,1.22C263.63,92.21,263.9,93.06,264.68,93.56Z"/><path class="cls-15" d="M265.83,93.74V84.88c.28-.15.56-.06.91-.08v6.14c1.06-1.06,2-2,2.87-2.89a1.55,1.55,0,0,1,1.76-.53l-2.26,2.25c-.21.2-.14.33-.05.59a6,6,0,0,0,1,1.37,5.73,5.73,0,0,0,1.55,1.8,1.37,1.37,0,0,1-1.89-.67,22.1,22.1,0,0,1-1.56-2.14c-.13.12-.18.18-.24.24a4.67,4.67,0,0,0-1.07,1.11,4.61,4.61,0,0,0-.11,1.5C266.48,93.77,266.19,93.58,265.83,93.74Z"/><path class="cls-15" d="M431.58,90.91c1-1,2-1.93,2.87-2.89a1.45,1.45,0,0,1,1.72-.49c-.75.74-1.47,1.47-2.2,2.18-.22.22-.2.36-.08.68a5.76,5.76,0,0,0,.93,1.28,6.4,6.4,0,0,0,1.62,1.89,1.59,1.59,0,0,1-2-.82,12.64,12.64,0,0,0-1.55-1.95l-.11.11a5,5,0,0,0-1.15,1.2,4.08,4.08,0,0,0,0,1.53h-.93V84.82h.91Z"/><path class="cls-15" d="M241.42,100.92c-.77.76-1.46,1.48-2.2,2.14-.36.32-.23.52-.06.88a11.73,11.73,0,0,0,1,1.26,5.77,5.77,0,0,0,1.48,1.76,1.42,1.42,0,0,1-1.93-.75A16.39,16.39,0,0,1,238.1,104c-.16.26-.2.43-.31.52-.78.64-1.33,1.37-.92,2.42a1.42,1.42,0,0,1-1,.1V98.29a1.44,1.44,0,0,1,.92,0v5.87c.17-.12,0,0,.12,0s.06,0,.09-.07l1.19-1.18c.48-.48,1-.93,1.43-1.44A1.6,1.6,0,0,1,241.42,100.92Z"/><path class="cls-15" d="M185,104.32l2.88-2.88c.62-.6.62-.6,1.71-.51-.75.76-1.47,1.48-2.2,2.2-.23.22-.19.35-.08.68a6.36,6.36,0,0,0,.93,1.28,6.68,6.68,0,0,0,1.62,1.88,1.59,1.59,0,0,1-2-.81,12.14,12.14,0,0,0-1.55-2,12.57,12.57,0,0,0-1.2,1.23c-.34.46,0,1.07-.18,1.62h-.85V98.29c.22-.17.53-.06.91-.05Z"/><path class="cls-16" d="M180.58,77.37h-4.52c-.41,0-.6.22-.44.57.25.55.38,1.23,1,1.48a2.3,2.3,0,0,0,1.53.34,3.36,3.36,0,0,0,1.68-1l.51.67a1.22,1.22,0,0,1-.15.17,3.37,3.37,0,0,1-4.81-.23,3.44,3.44,0,0,1-.75-2.33,3.59,3.59,0,0,1,1.07-2.55,2.53,2.53,0,0,1,2.77-.63C179.94,74.3,180.7,75.61,180.58,77.37Z"/><path class="cls-16" d="M217.23,78.81l.55.55c.05,0,0,.09-.06.17a3.27,3.27,0,0,1-5.67-2.42,3.55,3.55,0,0,1,1.13-2.65,2.41,2.41,0,0,1,2.76-.51c.24.09.54-.06.75.23s.61.53.82.86a4.36,4.36,0,0,1,.5,1.22,5.46,5.46,0,0,1,.07,1.11h-4.56c-.49,0-.59.17-.45.64A2.2,2.2,0,0,0,214,79.4a2.11,2.11,0,0,0,1.52.35A3.22,3.22,0,0,0,217.23,78.81Z"/><path class="cls-16" d="M262.88,77.37c-1.59,0-3.1,0-4.62,0-.35,0-.42.17-.36.43a2.24,2.24,0,0,0,2.49,2,4.65,4.65,0,0,0,1.7-1c.1.1.2.19.29.29l.26.26c.05,0,0,.09-.06.17a3.27,3.27,0,0,1-5.67-2.42A3.55,3.55,0,0,1,258,74.46a2.68,2.68,0,0,1,2.77-.55,2.35,2.35,0,0,1,1.54,1.14A3,3,0,0,1,262.88,77.37Z"/><path class="cls-16" d="M299.15,79.4a3.26,3.26,0,0,1-3.31,1,2.86,2.86,0,0,1-2-1.4,3.73,3.73,0,0,1,1-4.93,2.57,2.57,0,0,1,2.32-.24c1.47.4,2.25,1.7,2.15,3.49h-4.51c-.43,0-.62.2-.46.55.24.55.38,1.22,1,1.49a3,3,0,0,0,1.41.37,2.23,2.23,0,0,0,1.39-.64c.49-.45.62-.1.88.14Z"/><path class="cls-16" d="M234.32,104.2h-4.51c-.42,0-.61.2-.46.56.25.55.38,1.22,1,1.49a2.27,2.27,0,0,0,1.52.34,3.42,3.42,0,0,0,1.71-1l.46.73s0,0-.1.12a3.36,3.36,0,0,1-4.81-.21,3.42,3.42,0,0,1-.76-2.2,3.66,3.66,0,0,1,1.14-2.77,2.54,2.54,0,0,1,2.68-.56C233.66,101.11,234.43,102.42,234.32,104.2Z"/><path class="cls-16" d="M304.31,105.63l.59.59c-.07.08-.13.16-.2.23a3.36,3.36,0,0,1-4.81-.21,3.4,3.4,0,0,1-.76-2.2,3.68,3.68,0,0,1,1.14-2.77,2.54,2.54,0,0,1,2.68-.56c1.48.39,2.25,1.71,2.15,3.49h-4.52c-.42,0-.61.2-.45.56.24.55.37,1.22,1,1.48a2.23,2.23,0,0,0,1.52.35A3.41,3.41,0,0,0,304.31,105.63Z"/><path class="cls-16" d="M175.12,104.2h-4.6c-.38,0-.58.25-.42.59.3.63.52,1.27,1.31,1.6,1.21.49,2-.06,2.91-.73l.54.58c-.89,1.14-2.16,1.15-3.45,1.08-.54-.41-1.29-.56-1.65-1.19a3.79,3.79,0,0,1-.66-1.88,3.84,3.84,0,0,1,1.08-2.92,2.66,2.66,0,0,1,2.77-.61A3.23,3.23,0,0,1,175.12,104.2Z"/><path class="cls-16" d="M328.59,104.2h-4.53c-.38,0-.59.26-.42.59.3.63.52,1.27,1.31,1.6,1.21.49,2-.06,2.9-.73l.54.59c-.89,1.12-2.15,1.14-3.44,1.07-.55-.41-1.3-.56-1.66-1.19a3.69,3.69,0,0,1-.65-1.89,3.83,3.83,0,0,1,1.08-2.91,2.76,2.76,0,0,1,2.77-.62,2.39,2.39,0,0,1,1.63,1.21A2.82,2.82,0,0,1,328.59,104.2Z"/><path class="cls-16" d="M528,90.81h-5c.06,1.64.79,2.24,2.3,2.37a2,2,0,0,0,1.5-.67c.37-.33.49-.17.7.07l.22.24a3.29,3.29,0,0,1-3.37,1,2.53,2.53,0,0,1-1.68-1.09,3,3,0,0,1-.7-1.86,4.35,4.35,0,0,1,.47-2.21c1.11-1.75,2.21-1.72,3.95-1.27.37.44.87.73,1.14,1.3A3.6,3.6,0,0,1,528,90.81Z"/><path class="cls-16" d="M445.58,92.19c.29.29.46.45.62.62a3.45,3.45,0,0,1-3.35,1.08,3.21,3.21,0,0,1-2.39-2.83,3.72,3.72,0,0,1,.47-2.43,3.13,3.13,0,0,1,1.62-1.4,3,3,0,0,1,2.36.28,3.41,3.41,0,0,1,1.54,3.23,10.07,10.07,0,0,1-1.74,0c-1,0-2,0-3,0-.28,0-.35.13-.31.37a2.19,2.19,0,0,0,3.17,1.78C445,92.74,445.41,92.66,445.58,92.19Z"/><path class="cls-16" d="M424.11,92.85a3.23,3.23,0,0,1-2.72,1.07,3.06,3.06,0,0,1-2.21-1,3.39,3.39,0,0,1-.82-2.41,3.56,3.56,0,0,1,1.08-2.55,2.73,2.73,0,0,1,2.77-.64,2.41,2.41,0,0,1,1.62,1.2,3,3,0,0,1,.5,2.3c-1.52,0-3,0-4.54,0-.4,0-.55.21-.44.58s.6,1.33,1,1.47,1,.5,1.53.33a3.31,3.31,0,0,0,1.66-1Z"/><path class="cls-16" d="M371.35,90.79c-1.62,0-3.13,0-4.65,0-.34,0-.43.14-.37.42a2.16,2.16,0,0,0,2.49,2,2.76,2.76,0,0,0,1.72-.91l.53.52c.06.06,0,.1-.05.18a3.36,3.36,0,0,1-4.9-.1,2.79,2.79,0,0,1-.76-2,3.85,3.85,0,0,1,.46-2.21,3.34,3.34,0,0,1,1.58-1.43,3,3,0,0,1,2.37.22A3.42,3.42,0,0,1,371.35,90.79Z"/><path class="cls-16" d="M349,90.79c-1.5,0-3,0-4.51,0-.43,0-.62.2-.46.55.24.55.37,1.22,1,1.49a2.6,2.6,0,0,0,1.53.36,6.07,6.07,0,0,0,1.69-1l.5.67a1.21,1.21,0,0,1-.13.16A3.27,3.27,0,0,1,343,90.62a3.65,3.65,0,0,1,1.14-2.76,2.52,2.52,0,0,1,2.68-.56C348.33,87.69,349.1,89,349,90.79Z"/><path class="cls-16" d="M290,90.79h-4.51c-.43,0-.61.19-.46.55.24.55.38,1.22,1,1.49a2.17,2.17,0,0,0,1.52.34,3.24,3.24,0,0,0,1.7-1l.5.69a1,1,0,0,1-.12.14,3.26,3.26,0,0,1-5.57-2.4,3.69,3.69,0,0,1,1.14-2.77,2.55,2.55,0,0,1,2.68-.57A3.1,3.1,0,0,1,290,90.79Z"/><path class="cls-16" d="M278.19,90.79c-1.49,0-3,0-4.51,0-.38,0-.59.25-.42.58.3.63.52,1.28,1.31,1.6,1.21.49,2-.06,2.9-.73l.53.6c-.87,1.12-2.14,1.13-3.43,1.06-.55-.4-1.29-.55-1.65-1.18a3.78,3.78,0,0,1,.42-4.8,2.59,2.59,0,0,1,2.77-.6,1.56,1.56,0,0,1,1,.47c.3.4.81.7.89,1.19S278.53,90.12,278.19,90.79Z"/><path class="cls-16" d="M230.49,90.79c-1.59,0-3.11,0-4.62,0-.36,0-.42.17-.36.43a2.25,2.25,0,0,0,2.5,2,4.81,4.81,0,0,0,1.71-1l.48.69c0-.08,0,0,0,0a3.37,3.37,0,0,1-4.89-.1,3.46,3.46,0,0,1-.77-2.32,3.56,3.56,0,0,1,1.14-2.65,2.67,2.67,0,0,1,2.77-.54A2.35,2.35,0,0,1,230,88.47,3,3,0,0,1,230.49,90.79Z"/><path class="cls-16" d="M307.26,63.72c-1.59,0-3.11,0-4.62,0-.36,0-.42.17-.36.43a2.15,2.15,0,0,0,2.49,1.94,2.55,2.55,0,0,0,1.71-.93l.49.69c0-.08,0,0,0,0a3.35,3.35,0,0,1-4.89-.1,3.46,3.46,0,0,1-.77-2.32,3.57,3.57,0,0,1,1.13-2.65,2.68,2.68,0,0,1,2.77-.54,2.4,2.4,0,0,1,1.55,1.14A3,3,0,0,1,307.26,63.72Z"/><path class="cls-16" d="M284.21,63.72h-4.53c-.38,0-.59.26-.43.59.31.62.52,1.27,1.32,1.59,1.21.49,2-.06,2.9-.72l.55.58c-.9,1.13-2.16,1.15-3.46,1.07-.54-.4-1.29-.55-1.65-1.18a3.72,3.72,0,0,1-.65-1.89,3.83,3.83,0,0,1,1.08-2.91,2.76,2.76,0,0,1,2.77-.62,2.38,2.38,0,0,1,1.63,1.2A2.88,2.88,0,0,1,284.21,63.72Z"/><path class="cls-16" d="M291.43,63.72c-1.59,0-3.11,0-4.62,0-.35,0-.43.16-.36.43a2.24,2.24,0,0,0,2.49,2,4.65,4.65,0,0,0,1.7-1c.1.09.19.19.29.29l.26.25c.05.06,0,.1-.06.17a3.27,3.27,0,0,1-5.67-2.41,3.54,3.54,0,0,1,1.13-2.65,2.66,2.66,0,0,1,2.77-.55,2.37,2.37,0,0,1,1.54,1.13A3.07,3.07,0,0,1,291.43,63.72Z"/><path class="cls-14" d="M250.7,80.22h-.93V71.47c.24-.17.55-.08.93,0V75l.19.11c.16-.22.32-.44.49-.64a2.31,2.31,0,0,1,3.2,0,2,2,0,0,1,.69,1.64c-.06,1.39,0,2.77,0,4.19h-1c0-1.38,0-2.76,0-4.14a1.45,1.45,0,0,0-1-1.49,2,2,0,0,0-2.37,1.1,4.54,4.54,0,0,0-.26,1.57C250.73,78.21,250.7,79.17,250.7,80.22Z"/><path class="cls-14" d="M282.12,107.05h-.93V98.3a1.44,1.44,0,0,1,.95,0V102c.33-.39.5-.6.68-.8a2.32,2.32,0,0,1,3.2,0,2,2,0,0,1,.68,1.65c-.06,1.38,0,2.77,0,4.17h-1c0-1.39,0-2.77,0-4.16a1.35,1.35,0,0,0-.9-1.41c-.87-.34-2.22.08-2.43.94a4.7,4.7,0,0,0-.29,1.56C282.18,105,282.12,106,282.12,107.05Z"/><path class="cls-14" d="M334.66,107.05h-.93V98.29a1.52,1.52,0,0,1,.95,0V102l.68-.79a2.33,2.33,0,0,1,3.2,0,2,2,0,0,1,.68,1.65c-.06,1.35,0,2.71,0,4.08-.27.21-.58.1-1,.09,0-1.39,0-2.78,0-4.16a1.36,1.36,0,0,0-.91-1.41c-.86-.34-2.22.09-2.42.94a4.71,4.71,0,0,0-.29,1.57C334.72,105,334.66,106,334.66,107.05Z"/><path class="cls-14" d="M386.48,93.63h-.94V84.87a1.63,1.63,0,0,1,.93,0v3.47c.29.08.33-.18.46-.27a2.12,2.12,0,0,0,.34-.33,2.27,2.27,0,0,1,2.56-.29c.48.23.74.68,1.13,1,.17.15.07.38.07.57,0,1.51,0,3,0,4.54-.28.27-.6,0-1,.17,0-1.49,0-2.88,0-4.26s-1-1.79-2.22-1.39-1.27,1.27-1.35,2.16C386.41,91.34,386.48,92.45,386.48,93.63Z"/><path class="cls-14" d="M295.32,84.82h.95v3.53l.23.15a3.43,3.43,0,0,1,.28-.49c1.14-1.36,2.88-1,4,.39a.61.61,0,0,1,.1.43c0,1.59,0,3.18,0,4.8h-1c0-1.28,0-2.58,0-3.88a2.72,2.72,0,0,0-.06-.81,1.55,1.55,0,0,0-2.12-.9,2.09,2.09,0,0,0-1.4,2.14c-.06,1.14,0,2.29,0,3.48h-.53c-.26,0-.44,0-.44-.36C295.32,90.48,295.32,87.67,295.32,84.82Z"/><path class="cls-14" d="M186.64,80.26c0-1.41,0-2.72,0-4,0-1.49-1-2.06-2.37-1.51a2,2,0,0,0-1.2,2c-.09,1.14,0,2.29,0,3.42a2,2,0,0,1-.91.06V71.45a1.9,1.9,0,0,1,.9,0v3.71c.31-.32.51-.48.67-.68a2.33,2.33,0,0,1,3.29,0,2.12,2.12,0,0,1,.63,1.55c-.05,1.39,0,2.78,0,4.15C187.31,80.33,187,80.21,186.64,80.26Z"/><path class="cls-14" d="M308.75,71.38v3.56a.73.73,0,0,0,.54-.4,2.34,2.34,0,0,1,3.47,0,1.87,1.87,0,0,1,.57,1.34c-.05,1.35,0,2.71,0,4.06a2.29,2.29,0,0,1,0,.25,1.42,1.42,0,0,1-.94,0c0-1.31,0-2.62,0-3.93,0-1.52-1.07-2.16-2.46-1.53-.94.43-1.05,1.28-1.12,2.11-.08,1.1,0,2.21,0,3.3-.29.21-.58,0-.82.13-.24-.21-.13-.47-.13-.69q0-3.7,0-7.41C307.79,71.4,307.8,71.4,308.75,71.38Z"/><path class="cls-13" d="M203.89,103.93a3.66,3.66,0,0,1-.26,1.68c-.33.69-1,1-1.47,1.4a2.15,2.15,0,0,1-1.42.32,3,3,0,0,1-3.08-2,4.83,4.83,0,0,1,0-2.69,3,3,0,0,1,2.07-2,3.45,3.45,0,0,1,4.15,2.23A3.76,3.76,0,0,1,203.89,103.93Z"/><path class="cls-13" d="M205.09,90.83c0-1.77.59-2.87,2.09-3.44a3.24,3.24,0,0,1,3.92,1.24,3.44,3.44,0,0,1,.05,3.68,3.27,3.27,0,0,1-2.56,1.61,3.13,3.13,0,0,1-2.34-.71A2.77,2.77,0,0,1,205.09,90.83Z"/><path class="cls-13" d="M200.32,50.14c.13,1.65-.83,2.53-2.21,3.18a3.44,3.44,0,0,1-3.65-1.09,3.7,3.7,0,0,1,.46-4.8,3.37,3.37,0,0,1,5,.9A3.92,3.92,0,0,1,200.32,50.14Z"/><path class="cls-13" d="M261.73,63.58c.13,1.48-.73,2.48-2.18,3.14a3.34,3.34,0,0,1-4.26-2.23,3.61,3.61,0,0,1,1-3.63,3.37,3.37,0,0,1,5,.86A3.81,3.81,0,0,1,261.73,63.58Z"/><path class="cls-12" d="M236.82,25.41h2.08v7.15c-.65,0-1.35,0-2.08,0Z"/><path class="cls-12" d="M268,25.43v7.11h-2.06s0,0,0,0a.18.18,0,0,1,0-.1v-7Z"/><path class="cls-12" d="M350.51,32.54V25.43h2.07s0,0,0,.05a.19.19,0,0,1,0,.1v7Z"/><path class="cls-17" d="M176.43,92.46c.16-.17.33-.28.39-.54a15.8,15.8,0,0,1,.94-2.48c.21-.47.32-1,.49-1.48a.8.8,0,0,1,1.1-.49c.16.08.08.24,0,.4-.24.82-.68,1.56-1,2.35-.49,1.27-1.05,2.52-1.6,3.77a4.75,4.75,0,0,1-.31.59,2.39,2.39,0,0,1-2.58,1c-.24,0-.57-.44-.45-.58s.31-.58.64-.31a1,1,0,0,0,1.43-.19,1,1,0,0,0,.08-1.43,1.84,1.84,0,0,0-.42-1.14c-.73-1.33-1.15-2.81-1.94-4.11-.11-.18-.08-.37.22-.39s.76,0,.94.47c.38,1,.79,1.91,1.2,2.86C175.86,91.33,176.15,91.89,176.43,92.46Z"/><path class="cls-14" d="M247,101.64c.25-.5.75-.55,1.08-.87s1.48-.17,2,0,.83.69,1.25,1c.19.15.11.36.11.55,0,1.55,0,3.09,0,4.62-.31.17-.58.07-1,.1v-3.19c0-.36,0-.72,0-1.08a1.53,1.53,0,0,0-2.18-1.36,2.1,2.1,0,0,0-1.39,2.14c-.08,1.14,0,2.29,0,3.46h-.92V100.9C246.81,100.86,246.81,100.86,247,101.64Z"/><path class="cls-14" d="M313.57,66.67V60.45c.88-.07.88-.07,1,.71a2.38,2.38,0,0,1,1.16-.9,2.44,2.44,0,0,1,2.31.2,8.39,8.39,0,0,1,.86.83c.23.2.14.44.14.66,0,1.51,0,3,0,4.53-.3.26-.61,0-1,.16v-4c0-1.53-1.06-2.17-2.46-1.53-.94.42-1.06,1.27-1.12,2.1-.08,1.1,0,2.22,0,3.3C314.22,66.7,313.93,66.52,313.57,66.67Z"/><path class="cls-14" d="M197.68,80.22a2,2,0,0,1-.93,0V74.12c.87-.11.87-.11,1,.66.32-.24.61-.47.88-.66A2.34,2.34,0,0,1,200.9,74c.58.19.81.71,1.25,1,.19.15.08.38.08.56,0,1.52,0,3,0,4.56-.28.21-.58.1-1,.09,0-1.39,0-2.78,0-4.16a1.51,1.51,0,0,0-1.68-1.57c-.52,0-.88.39-1.33.56-.12,0-.26.49-.37.76a3.72,3.72,0,0,0-.21,1.47Z"/><path class="cls-14" d="M205.35,100.89c.91,0,.91,0,1.07.75.24-.51.75-.55,1.08-.87s1.48-.17,2,0,.83.69,1.25,1c.15.12.11.28.11.43V107a2,2,0,0,1-1,.09c0-1.3,0-2.6,0-3.9a2.79,2.79,0,0,0-.06-.82,1.57,1.57,0,0,0-2.12-.9,2.1,2.1,0,0,0-1.4,2.14c-.07,1.14,0,2.29,0,3.45l-.41,0c-.35,0-.58,0-.56-.48C205.38,104.73,205.35,102.85,205.35,100.89Z"/><path class="cls-14" d="M469.25,93.65c-.38,0-.66.08-1-.08,0-1.29,0-2.6,0-3.9a1.57,1.57,0,0,0-2.46-1.52,2.11,2.11,0,0,0-1.11,2c-.08,1.14,0,2.29,0,3.42a1.77,1.77,0,0,1-.91.08V87.5c.85,0,.85,0,1,.69a3.62,3.62,0,0,1,.49-.48,2.74,2.74,0,0,1,2.18-.51,2.47,2.47,0,0,1,1.34.83,1.35,1.35,0,0,1,.48,1.12C469.22,90.62,469.25,92.1,469.25,93.65Z"/><path class="cls-14" d="M217.39,60.4c.86,0,.86,0,1,.7.29-.46.88-.49,1.17-.92a3.11,3.11,0,0,1,2.33.32c.28.21.5.51.77.75a.61.61,0,0,1,.19.52v4.79h-1c0-1.33,0-2.67,0-4a1.5,1.5,0,0,0-.12-.79,1.56,1.56,0,0,0-2.07-.78,2.09,2.09,0,0,0-1.39,2.14c0,1.11,0,2.23,0,3.36-.28.2-.58.1-.92.08Z"/><path class="cls-14" d="M332.26,93.64h-.92V87.55c.87-.14.87-.14,1,.62a5.4,5.4,0,0,0,.88-.62,2.31,2.31,0,0,1,2.51-.09c.41.17.69.63,1,1,.15.13.1.29.1.44v4.78h-1c0-1.37,0-2.75,0-4.14a1.43,1.43,0,0,0-1-1.48,2,2,0,0,0-2.37,1.09,4.62,4.62,0,0,0-.26,1.57C332.3,91.63,332.26,92.59,332.26,93.64Z"/><path class="cls-14" d="M233.05,88.22c.24-.5.74-.55,1.08-.86s1.48-.18,2,0,.84.69,1.25,1c.2.16.12.37.12.55v4.63c-.3.16-.58.07-1,.09V90.47c0-.36,0-.71,0-1.07A1.54,1.54,0,0,0,234.36,88a2.1,2.1,0,0,0-1.4,2.14c-.08,1.14,0,2.3,0,3.47H232V87.48C232.89,87.45,232.89,87.45,233.05,88.22Z"/><path class="cls-14" d="M180.17,66.57a2.24,2.24,0,0,1-.94,0V60.45c.19-.18.44-.05.67-.08s.27.09.27.28-.07.6.37.2a2.48,2.48,0,0,1,2-.75,2.67,2.67,0,0,1,1.53.65,1.83,1.83,0,0,1,.69,1.65c-.06,1.35,0,2.7,0,4.06-.26.3-.59,0-1,.22,0-1.51,0-2.89,0-4.27a1.34,1.34,0,0,0-.9-1.41,1.88,1.88,0,0,0-2.36.85,4,4,0,0,0-.35,1.54C180.21,64.42,180.17,65.45,180.17,66.57Z"/><path class="cls-11" d="M273,65.87c1.36,0,2.56,0,3.75,0,.36,0,.38.15.38.42s-.15.31-.37.31h-4.79a.38.38,0,0,1-.36-.54,3.46,3.46,0,0,1,.47-.76c.53-.57,1-1.18,1.55-1.74a22.15,22.15,0,0,1,2.22-2.47c-1.42,0-2.65,0-3.87,0-.35,0-.39-.15-.38-.42s0-.31.26-.31h5c.24,0,.24.15.25.31a.47.47,0,0,1-.14.43,14.19,14.19,0,0,0-1.67,1.95A18.27,18.27,0,0,0,273,65.87Z"/><path class="cls-12" d="M221.42,105.67c-.1-.85-.81-1-1.5-1.23-.53-.16-1.13-.2-1.49-.72-.81,0-.39-.84-.83-1.07.24-.38.16-.86.48-1.23a2.5,2.5,0,0,1,2.85-.67c.26.08.63,0,.84.3.07.11.44,0,.37.3s-.25.52-.58.45a6.51,6.51,0,0,1-1.06-.33,1.4,1.4,0,0,0-1.41.09c-.54.34-.63.78-.19,1.2a1.5,1.5,0,0,0,.88.45,9.17,9.17,0,0,1,1.46.56c.68.19,1,.93,1.14,1.61.06.25-.18.47-.27.72a1.76,1.76,0,0,1-1.43,1.18,4,4,0,0,1-2.18-.17c-.3-.13-.51-.42-.76-.46-.69-.08-.17-.42-.13-.57.1-.38.29-.16.51,0a6.18,6.18,0,0,0,1.22.51A1.63,1.63,0,0,0,221.42,105.67Z"/><path class="cls-12" d="M323.25,66.83a3.68,3.68,0,0,1-2.21-.67c-.42-.26-.08-.26-.07-.42,0-.32.14-.45.43-.28s.79.29,1.12.46a2.54,2.54,0,0,0,1.13.19,2.25,2.25,0,0,0,1.18-.86c.07-.23-.42-.94-.74-1a12.23,12.23,0,0,1-1.59-.5c-.59-.27-1.17-.5-1.37-1.33a1.51,1.51,0,0,1,.28-1.3,2.11,2.11,0,0,1,2-1,6.16,6.16,0,0,1,2,.51c.26.1.25.31,0,.52s-.5.19-.82.07a3.93,3.93,0,0,0-1.41-.38,1.46,1.46,0,0,0-.73.28c-.54.27-.56.75-.15,1.16a1.45,1.45,0,0,0,.87.47c.57,0,.94.44,1.47.55.72.16,1,.94,1.15,1.59a1.23,1.23,0,0,1-.29.93,2.11,2.11,0,0,1-1.83,1C323.52,66.82,323.4,66.83,323.25,66.83Z"/><path class="cls-12" d="M270.08,107.32a2.46,2.46,0,0,1-2-.72c-.79,0-.07-.34-.07-.47,0-.38.22-.26.46-.13a5.18,5.18,0,0,0,2,.62c.71,0,.92-.53,1.32-.88.14-.12-.41-1-.71-1-.48-.09-.92-.39-1.36-.44s-.82-.52-1.29-.68-.07-.76-.47-1a3.73,3.73,0,0,1,.39-1,2.14,2.14,0,0,1,1.87-1,3.57,3.57,0,0,1,2,.49c.13.06.32,0,.34.22s-.18.35-.33.45-.46.13-.54,0c-.21-.35-.57-.13-.84-.31a1.26,1.26,0,0,0-1.4.12c-.54.31-.59.75-.18,1.15a1.65,1.65,0,0,0,1,.51,11.2,11.2,0,0,1,1.46.55c.62.16.92.93,1,1.55a1.57,1.57,0,0,1-.4,1.12C271.7,107.17,271.35,107.32,270.08,107.32Z"/><path class="cls-12" d="M226.87,66.83a3.51,3.51,0,0,1-2-.67c-.41-.25-.09-.25-.07-.42,0-.45.19-.39.52-.22a3.8,3.8,0,0,0,2.15.6,2.49,2.49,0,0,0,1.19-.87c.08-.23-.41-1-.74-1a12.23,12.23,0,0,1-1.59-.5c-.58-.27-1.33-.45-1.31-1.34-.45-.51,0-1,.22-1.29a2.05,2.05,0,0,1,2-1,4.21,4.21,0,0,1,1.84.49c.12.06.31,0,.32.23s-.15.28-.26.38-.45.1-.73,0a3.94,3.94,0,0,0-1.41-.39,1.53,1.53,0,0,0-.73.28c-.54.28-.56.74-.15,1.15a1.42,1.42,0,0,0,.87.48c.57,0,.93.44,1.47.55.73.15,1,.94,1.15,1.58a1.22,1.22,0,0,1-.29.93,2.14,2.14,0,0,1-1.83,1A5,5,0,0,0,226.87,66.83Z"/><path class="cls-12" d="M374.65,93.9a3.44,3.44,0,0,1-2-.67c-.38-.25-.09-.24-.07-.41.05-.46.18-.41.52-.23a3.75,3.75,0,0,0,2.15.59,2.42,2.42,0,0,0,1.18-.85c.09-.23-.41-1-.72-1.06a11.77,11.77,0,0,1-1.59-.5c-.58-.28-1.35-.44-1.32-1.34-.46-.51,0-1,.22-1.29a2.05,2.05,0,0,1,2-1,4.27,4.27,0,0,1,1.84.49c.13.07.31,0,.33.24s-.14.27-.25.37-.46.11-.74,0a3.75,3.75,0,0,0-1.41-.39,1.44,1.44,0,0,0-.73.28c-.54.28-.57.73-.16,1.15a1.5,1.5,0,0,0,.87.48c.57,0,.94.44,1.47.55.74.15,1,.94,1.15,1.58a1.41,1.41,0,0,1-.36,1,2,2,0,0,1-1.87,1C375,93.89,374.87,93.9,374.65,93.9Z"/><path class="cls-12" d="M188.66,66.82a2.59,2.59,0,0,1-2.17-.71c-.78,0-.05-.35-.05-.47,0-.38.22-.24.46-.12a3.84,3.84,0,0,0,2,.59c.18,0,.39.09.56-.08a8.91,8.91,0,0,0,.74-.77c.14-.18-.4-1-.71-1.05a5.54,5.54,0,0,1-1.58-.52c-.57-.25-1.38-.4-1.33-1.32-.48-.51,0-1,.21-1.29a2,2,0,0,1,2-1,4.1,4.1,0,0,1,1.84.48c.11.07.31,0,.32.23s-.13.28-.24.38-.46.11-.74,0a4.22,4.22,0,0,0-1.28-.38,1.48,1.48,0,0,0-.86.26c-.54.31-.59.74-.16,1.15a1.7,1.7,0,0,0,1,.51,11.2,11.2,0,0,1,1.46.55c.63.18.91.94,1,1.55a1.57,1.57,0,0,1-.4,1.12A2.13,2.13,0,0,1,188.66,66.82Z"/><path class="cls-12" d="M179.87,53.42a2.47,2.47,0,0,1-2-.72c-.77,0-.06-.35-.06-.47,0-.38.22-.25.46-.13a4.87,4.87,0,0,0,2,.62c.71,0,.93-.53,1.31-.88.15-.13-.4-1-.7-1.05-.48-.1-.93-.39-1.37-.44s-.82-.52-1.29-.68,0-.77-.46-1a3.79,3.79,0,0,1,.39-1,2.12,2.12,0,0,1,1.87-1,3.65,3.65,0,0,1,2,.48c.11.07.31,0,.33.22s-.13.28-.24.38-.46.12-.74,0a4.64,4.64,0,0,0-1.28-.39,1.46,1.46,0,0,0-.86.26c-.55.32-.6.74-.17,1.16a1.76,1.76,0,0,0,1,.51,9.51,9.51,0,0,1,1.46.55c.63.17.92.93,1,1.54a1.52,1.52,0,0,1-.41,1.12C181.49,53.27,181.14,53.42,179.87,53.42Z"/><path class="cls-18" d="M240.38,47a12.71,12.71,0,0,1,1.42,2.58,5.87,5.87,0,0,1,.84,1.93c0,.12.18.24.14.41a3.05,3.05,0,0,1-.71,1.37,1.44,1.44,0,0,1-1.13.43c-1.08,0-2.16,0-3.23,0s-2.41-.08-3.6,0a1.77,1.77,0,0,1-1.73-1,1.72,1.72,0,0,1,.05-1.75c1-1.94,2-3.89,2.89-5.87.14-.29.5-.39.5-.74.24,0,.34.09.42.28a2.29,2.29,0,0,1-.41,1.47c-.77,1.57-1.6,3.12-2.34,4.72-.63,1.36-.26,2,1.23,2,1.8,0,3.6,0,5.4,0,1.39,0,1.8-.65,1.29-1.93-.29-.75-.69-1.44-1-2.16a2.38,2.38,0,0,1-.41-1.47C240,47,240.14,46.89,240.38,47Z"/><path class="cls-12" d="M356,88.28l-.55.54a3.32,3.32,0,0,1-.9-.53,1.5,1.5,0,0,0-1.51-.35,2.29,2.29,0,0,0-1.47,1.1,3.27,3.27,0,0,0,.17,3.34,2.41,2.41,0,0,0,2.36.67,2.47,2.47,0,0,0,1.32-.8l.54.53c-.27.66-1,.82-1.49,1a3.55,3.55,0,0,1-1.75.07,2.89,2.89,0,0,1-1.38-.7,3.63,3.63,0,0,1-.32-5,3,3,0,0,1,2.09-1A3.33,3.33,0,0,1,356,88.28Z"/><path class="cls-12" d="M306.35,74.86l-.55.55a2.21,2.21,0,0,1-.82-.48,1.58,1.58,0,0,0-1.61-.4,2.17,2.17,0,0,0-1.45,1.11A3.25,3.25,0,0,0,302.1,79a2.44,2.44,0,0,0,2.36.64,2.24,2.24,0,0,0,1.25-.77l.5.62c-1,1.41-3.27,1.34-4.54.29a3.67,3.67,0,0,1-.29-5A3.41,3.41,0,0,1,306.35,74.86Z"/><path class="cls-12" d="M192.28,48.39c-.13-.29-.48-.2-.67-.42a1.85,1.85,0,0,0-2.41-.26,2.33,2.33,0,0,0-1.11,2,2.8,2.8,0,0,0,.4,1.87,2.33,2.33,0,0,0,2.48,1,2.38,2.38,0,0,0,1.3-.86l.57.57a1.63,1.63,0,0,1-1,.8,1.85,1.85,0,0,1-1.18.32c-.46-.09-1,.17-1.39-.12s-.75-.3-1.08-.58a3.71,3.71,0,0,1-.32-5,3.37,3.37,0,0,1,5,.06Z"/><path class="cls-12" d="M279.72,101.68l-.16.17c-.44.43-.57.49-1,.1a2,2,0,0,0-2.3-.42,1.66,1.66,0,0,0-.81.61,3.38,3.38,0,0,0,0,3.64,2.68,2.68,0,0,0,2.37.71,2.09,2.09,0,0,0,1.31-.87l.6.61a3.38,3.38,0,0,1-4.81.23,3.7,3.7,0,0,1-.1-4.89A3.4,3.4,0,0,1,279.72,101.68Z"/><path class="cls-12" d="M411.18,87.49c1.06,0,1.12,0,1.46.94.45,1.21.95,2.4,1.42,3.6.05.12.09.19.24.2s.19-.07.25-.18c.26-.53.26-1.18.72-1.62,0-.85.63-1.49.87-2.28s.32-.75,1.32-.59c-.41.87-.83,1.74-1.22,2.62a29.16,29.16,0,0,1-1.35,3c-.25.43-.29.46-.63.46a.66.66,0,0,1-.68-.5,48.44,48.44,0,0,0-2.37-5.36C411.17,87.74,411.19,87.65,411.18,87.49Z"/><path class="cls-17" d="M295.55,107.16v-5.49c-.25-.17-.49-.09-.72-.1s-.23-.16-.23-.32-.05-.41.27-.4h.59a1.38,1.38,0,0,0,.08-.93,1.4,1.4,0,0,1,.41-1,1.67,1.67,0,0,1,1.65-.66,5.77,5.77,0,0,0,.72,0c.19.15.1.37.11.55,0,.35-.06.57-.45.31a.85.85,0,0,0-1.23.22c-.13.16-.26.28-.24.51s0,.63,0,1h1.65c.31,0,.26.21.27.4s0,.32-.24.32h-1.65c-.08,1.8,0,3.61,0,5.4C296.23,107.18,295.94,107,295.55,107.16Z"/><path class="cls-17" d="M339.48,87.43a2.27,2.27,0,0,1,.78-2.38c.67-.5,1.35-.09,2.08-.3v.69c0,.34-.17.44-.44.23a.78.78,0,0,0-1,0,.9.9,0,0,0-.53,1,4.4,4.4,0,0,1,0,.83H342c.3,0,.3.16.3.38s-.06.35-.33.35c-.51,0-1,0-1.57,0v5.41a1.44,1.44,0,0,1-1,0V88.29c-.2-.22-.42-.14-.6-.13-.34,0-.39-.13-.39-.42s.13-.33.37-.31S339.18,87.43,339.48,87.43Z"/><path class="cls-12" d="M316.63,74c.64,0,1.15,0,1.66,0,.29,0,.3.16.3.37s-.06.36-.33.35h-1.59c0,1.24,0,2.43,0,3.62,0,1,.48,1.34,1.5,1a.51.51,0,0,1,.32,0c.17.09.08.28.1.43a.49.49,0,0,1-.33.45,2.63,2.63,0,0,1-2.36-.58.81.81,0,0,1-.19-.65V74.86c-.18-.19-.35-.11-.5-.12s-.46.07-.48-.33.27-.39.54-.39h.43V72.13h.93Z"/><path class="cls-12" d="M224.31,101.57h-.67c-.28,0-.29-.15-.3-.37s.06-.37.33-.35.38,0,.61,0V99a1.57,1.57,0,0,1,1,0v1.87h1.68c.32,0,.23.24.24.42s0,.3-.24.3h-1.67c0,1.3,0,2.6,0,3.9a1,1,0,0,0,1.35.83c.21-.07.37-.34.56,0s-.14.79-.35.79a3.17,3.17,0,0,1-1.82-.22,1.25,1.25,0,0,1-.72-1.2C224.34,104.32,224.31,103,224.31,101.57Z"/><path class="cls-12" d="M327.48,60.37V58.52a2.06,2.06,0,0,1,.93-.05v1.9H330c.27,0,.32.12.32.36s0,.38-.31.37c-.51,0-1,0-1.62,0,0,1.27,0,2.5,0,3.72,0,.91.56,1.24,1.47.9.12,0,.24-.09.33,0s.11.28.11.43a.48.48,0,0,1-.41.49,3.58,3.58,0,0,1-1.61-.15,1.31,1.31,0,0,1-.87-1.32c0-1.31,0-2.62,0-3.91-.24-.18-.49-.09-.72-.1s-.24-.15-.23-.31-.07-.42.25-.42Z"/><path class="cls-12" d="M514.59,88.15a3.58,3.58,0,0,0-.59,0c-.35,0-.38-.14-.38-.42s.14-.33.37-.31h.56V85.62a1.9,1.9,0,0,1,1-.09v1.9h1.62c.26,0,.34.1.33.35s0,.38-.3.38c-.51,0-1,0-1.62,0,0,1.26,0,2.48,0,3.71,0,.91.56,1.26,1.47.92.16-.06.29-.14.4,0a.64.64,0,0,1,0,.34.49.49,0,0,1-.39.51,2.77,2.77,0,0,1-1.92-.27,1.17,1.17,0,0,1-.58-1.07C514.63,91,514.59,89.6,514.59,88.15Z"/><path class="cls-12" d="M502.6,87.43V85.61a1.79,1.79,0,0,1,.93-.08v1.9h1.61c.26,0,.35.09.34.34s0,.39-.3.39c-.51,0-1,0-1.63,0,0,1.26,0,2.48,0,3.7,0,.92.56,1.27,1.47.93.16-.06.29-.14.4,0s0,.22.05.34a.5.5,0,0,1-.4.51,2.75,2.75,0,0,1-1.91-.27,1.18,1.18,0,0,1-.59-1.07c.06-1.35,0-2.7,0-4-.18-.2-.4-.12-.58-.11-.34,0-.39-.13-.39-.42s.14-.33.37-.31Z"/><path class="cls-12" d="M214.47,101.57c0,1.27,0,2.49,0,3.72,0,.9.56,1.23,1.48.89.12,0,.24-.09.33,0s.11.27.11.42-.24.51-.41.49c-.53,0-1,.15-1.61-.15a1.3,1.3,0,0,1-.87-1.32c0-1.31,0-2.62,0-3.91-.25-.17-.49-.09-.72-.1s-.24-.15-.24-.32-.05-.41.26-.4h.68V99h1v1.89c.6,0,1.11,0,1.62,0,.28,0,.32.13.32.37s0,.37-.32.36Z"/><path class="cls-12" d="M193.12,61.08c-.27,0-.47,0-.66,0s-.3-.15-.31-.38.06-.37.33-.35a6.14,6.14,0,0,0,.62,0V58.54a1.53,1.53,0,0,1,1,0v1.87h1.68c.32,0,.24.24.25.42s0,.31-.25.31h-1.67c0,1.34,0,2.68,0,4a1,1,0,0,0,1.34.72c.21-.07.38-.34.56,0s-.14.8-.35.8a3.18,3.18,0,0,1-1.82-.22,1.27,1.27,0,0,1-.72-1.2C193.15,63.84,193.12,62.53,193.12,61.08Z"/><path class="cls-12" d="M357.93,88.15h-.5c-.24,0-.46.06-.47-.33s.27-.38.53-.39l.4,0V85.66c.32-.23.62-.13,1-.11v1.88h1.67c.3,0,.29.17.3.38s-.08.35-.34.35c-.51,0-1,0-1.59,0,0,1.25,0,2.44,0,3.63s.46,1.33,1.5,1a.51.51,0,0,1,.32,0c.18.09.08.28.1.43s-.19.38-.34.45a2.61,2.61,0,0,1-2.35-.59.78.78,0,0,1-.19-.65V88.15Z"/><path class="cls-12" d="M264.85,61.08c0,1.29,0,2.48,0,3.67,0,.86.58,1.32,1.36,1.06.21-.07.38-.34.55,0s-.14.79-.35.79a3.16,3.16,0,0,1-1.82-.22,1.26,1.26,0,0,1-.72-1.21c.06-1.32,0-2.63,0-4-.19-.22-.45-.1-.67-.11s-.29-.17-.29-.38.07-.37.33-.35a6,6,0,0,0,.61,0V58.53a1.69,1.69,0,0,1,1,0v1.87h1.69c.23,0,.24.15.24.31s.06.42-.26.41Z"/><path class="cls-12" d="M251.18,61.08h-.72c-.24,0-.25-.15-.24-.31s-.06-.42.25-.42h.68V58.48h1v1.89c.6,0,1.11,0,1.62,0,.28,0,.32.12.32.36s0,.38-.31.37c-.51,0-1,0-1.61,0,0,1.27,0,2.5,0,3.72,0,.91.56,1.24,1.48.9a.47.47,0,0,1,.32,0c.17.09.11.28.11.43a.48.48,0,0,1-.41.49,3.58,3.58,0,0,1-1.61-.15,1.29,1.29,0,0,1-.86-1.32C251.2,63.79,251.18,62.48,251.18,61.08Z"/><path class="cls-12" d="M201,88.15c-.28,0-.47,0-.67,0s-.29-.15-.3-.37.06-.37.33-.35.38,0,.62,0V85.61a1.53,1.53,0,0,1,1,0v1.86h1.68c.32,0,.23.24.24.42s0,.31-.24.3H202c0,1.3,0,2.6,0,3.9a1,1,0,0,0,1.35.84c.21-.07.38-.35.56,0s-.15.8-.35.78c-.57,0-1.12.15-1.72-.18a1.23,1.23,0,0,1-.81-1.24C201.06,90.91,201,89.59,201,88.15Z"/><path class="cls-12" d="M231.26,61.08h-.71c-.23,0-.25-.14-.24-.31s-.08-.42.25-.42h.68V58.55a1.88,1.88,0,0,1,1-.08v1.9c.59,0,1.1,0,1.61,0,.27,0,.34.11.33.35s0,.38-.31.38c-.51,0-1,0-1.62,0,0,1.27,0,2.49,0,3.72,0,.9.56,1.25,1.47.9.12,0,.23-.09.32,0s.12.27.12.42-.23.51-.4.5a3.27,3.27,0,0,1-1.71-.19,1.26,1.26,0,0,1-.77-1.28C231.28,63.79,231.26,62.48,231.26,61.08Z"/><path class="cls-19" d="M280.68,93.63h-.93V87.51a1.4,1.4,0,0,1,.86,0c.19.38-.06.8.17,1.16,1.49-1.42,1.49-1.42,2.54-1.37a5.42,5.42,0,0,0,0,.57c0,.26-.11.3-.35.33a2.2,2.2,0,0,0-2,1.49,4.86,4.86,0,0,0-.34,1.65C280.71,92.06,280.68,92.81,280.68,93.63Z"/><path class="cls-19" d="M177.77,60.17v.4c0,.28,0,.49-.4.54a2.12,2.12,0,0,0-1.75,1.12,5,5,0,0,0-.49,1.94c0,.79,0,1.57,0,2.34a1.77,1.77,0,0,1-.91.06V60.43a1.73,1.73,0,0,1,.82,0c.22.34,0,.76.17,1.17C176,61,176.46,59.92,177.77,60.17Z"/><path class="cls-19" d="M213.51,66.59c-.38,0-.66.07-.94-.08V60.44a1.54,1.54,0,0,1,.93,0v1.1c.31,0,.39-.25.54-.38s.34-.34.52-.5a1.58,1.58,0,0,1,1.56-.46l0,.35c0,.35,0,.52-.47.59a2.09,2.09,0,0,0-1.84,1.47,5.39,5.39,0,0,0-.34,1.66C213.55,65,213.51,65.75,213.51,66.59Z"/><path class="cls-19" d="M425.86,87.46h.83c.24.36-.05.79.17,1.14,1.55-1.38,1.55-1.38,2.48-1.36.13.08.08.21.08.32,0,.29.1.56-.43.62a2.1,2.1,0,0,0-1.86,1.45,5,5,0,0,0-.35,1.64c0,.76,0,1.51,0,2.27-.27.28-.59,0-.92.17Z"/><path class="cls-19" d="M455.57,87.46h.95v1.2c1.66-1.44,1.66-1.44,2.56-1.43.16.12.07.29.09.44,0,.31,0,.44-.42.51a2.14,2.14,0,0,0-1.86,1.44,4.82,4.82,0,0,0-.36,1.64c0,.76,0,1.51,0,2.27-.13.21-.35.11-.53.13s-.44,0-.44-.36C455.58,91.36,455.57,89.43,455.57,87.46Z"/><path class="cls-19" d="M308.79,60.39h.84c.23.36-.06.78.16,1.13,1.56-1.37,1.56-1.37,2.48-1.36.13.08.08.22.08.33,0,.28.11.56-.42.62a2.11,2.11,0,0,0-1.87,1.44,4.87,4.87,0,0,0-.35,1.65c0,.75,0,1.51,0,2.28-.27.2-.58.1-.92.08Z"/><path class="cls-19" d="M490.21,88.62c.76-.58,1.26-1.62,2.42-1.41.17.11.13.24.12.35,0,.29.11.56-.42.62a2.08,2.08,0,0,0-1.86,1.45,4.77,4.77,0,0,0-.36,1.64c0,.76,0,1.51,0,2.27-.28.28-.6,0-.93.17V87.52c.23-.25.56,0,.81-.11C490.26,87.82,490,88.25,490.21,88.62Z"/><path class="cls-19" d="M494.91,93.63H494V87.5c.24-.16.53,0,.78-.09.26.38,0,.79.2,1.21.78-.55,1.26-1.64,2.48-1.4.13.1.08.27.08.42s.07.47-.38.54a2.07,2.07,0,0,0-1.88,1.41,5.9,5.9,0,0,0-.38,1.76C494.93,92.1,494.91,92.85,494.91,93.63Z"/><path class="cls-19" d="M310.19,100.67v.47c0,.26,0,.39-.35.45a2.17,2.17,0,0,0-2,1.49,5,5,0,0,0-.34,1.65c0,.75,0,1.51,0,2.24-.28.2-.56.07-.83.11,0-.06-.12-.12-.12-.18,0-2,0-4,0-5.94.31-.24.62,0,1-.15V102c.31,0,.39-.25.55-.38s.33-.34.51-.5A1.59,1.59,0,0,1,310.19,100.67Z"/><path class="cls-19" d="M245.9,80.23H245V74h.84c.22.36-.07.79.17,1.16.76-.58,1.26-1.61,2.43-1.4.17.1.12.23.11.34,0,.29.12.57-.42.63a2.08,2.08,0,0,0-1.86,1.44,4.77,4.77,0,0,0-.36,1.64C245.92,78.61,245.9,79.36,245.9,80.23Z"/><path class="cls-19" d="M293,60.39h.92v1.23c.85-.65,1.35-1.69,2.52-1.48.16.11.12.24.11.35,0,.3.11.56-.43.62a2.09,2.09,0,0,0-1.85,1.45,4.88,4.88,0,0,0-.36,1.65c0,.75,0,1.51,0,2.28a1.37,1.37,0,0,1-.92.07Z"/><path class="cls-20" d="M291.48,80.23h-1V71.5c.27-.21.58-.1,1-.08v8.81Z"/><path class="cls-20" d="M220.67,80.22h-.89V71.47c.24-.24.56,0,.89-.13Z"/><path class="cls-20" d="M292.24,98.23h.88V107c-.23.25-.55,0-.88.14Z"/><path class="cls-20" d="M438.74,93.64h-.88V84.88c.23-.25.55,0,.88-.13Z"/><path class="cls-21" d="M166.25,100.87h1c0,2.28,0,4.54,0,6.8a1.63,1.63,0,0,1-2,1.32.27.27,0,0,1-.13-.3c0-.18,0-.34.25-.43.87-.26.95-.39.95-1.18Z"/><path class="cls-15" d="M307.07,92.94c-.54,1.1-1.56,1-2.52.94a2,2,0,0,1-1.6-1.31,1.5,1.5,0,0,1-.2-.64c0-1.47,0-2.94,0-4.39.29-.19.57-.07.83-.11a.32.32,0,0,1,.14.31c0,1.15,0,2.31,0,3.46a1.8,1.8,0,0,0,2.82,1.67c.1-.05.14-.2.29-.17l.1,0a.27.27,0,0,1,.13.13Z"/><path class="cls-15" d="M345.46,106.36c-.55,1.09-1.57,1-2.53.93a2,2,0,0,1-1.6-1.3,1.52,1.52,0,0,1-.19-.64V101c.28-.19.56-.06.83-.1a.32.32,0,0,1,.13.3c0,1.16,0,2.31,0,3.47a1.8,1.8,0,0,0,2.83,1.66c.09,0,.13-.2.29-.16h.09a.33.33,0,0,1,.13.13Z"/><path class="cls-15" d="M180.88,106.36c-.54,1.09-1.56,1-2.52.93a2,2,0,0,1-1.6-1.3,1.39,1.39,0,0,1-.19-.64V101c.28-.19.56-.06.83-.1a.32.32,0,0,1,.13.3c0,1.16,0,2.31,0,3.47a1.8,1.8,0,0,0,2.82,1.66c.1,0,.14-.2.3-.16h.09a.33.33,0,0,1,.13.13Z"/><path class="cls-15" d="M397.28,92.94c-.55,1.1-1.57,1-2.53.94a2,2,0,0,1-1.6-1.31,1.48,1.48,0,0,1-.19-.64V87.54c.28-.19.56-.07.83-.11a.33.33,0,0,1,.13.31c0,1.15,0,2.31,0,3.46a1.81,1.81,0,0,0,2.83,1.67c.09-.05.13-.2.29-.17l.09,0a.27.27,0,0,1,.13.13Z"/><path class="cls-15" d="M452.21,92.94c-.54,1.1-1.56,1-2.52.94a2,2,0,0,1-1.6-1.31,1.5,1.5,0,0,1-.2-.64c0-1.47,0-2.94,0-4.39.29-.19.57-.07.83-.11a.32.32,0,0,1,.14.31c0,1.15,0,2.31,0,3.46a1.8,1.8,0,0,0,2.82,1.67c.1-.05.14-.2.29-.17l.1,0a.27.27,0,0,1,.13.13Z"/><path class="cls-13" d="M452,92.7a3,3,0,0,0,.49-1.83c0-1.11,0-2.22,0-3.35a1.51,1.51,0,0,1,.94,0v6.09c-.12.16-.29.08-.44.09s-.57,0-.5-.41c0-.16,0-.33-.24-.31Z"/><path class="cls-13" d="M180.65,106.12a3.18,3.18,0,0,0,.49-1.84c0-1.11,0-2.22,0-3.35a1.51,1.51,0,0,1,.94,0V107c-.12.16-.29.08-.44.1-.3,0-.56,0-.5-.41,0-.16,0-.33-.24-.31A1.75,1.75,0,0,0,180.65,106.12Z"/><path class="cls-13" d="M345.22,106.12a3.11,3.11,0,0,0,.49-1.84c0-1.11,0-2.22,0-3.35a1.48,1.48,0,0,1,.93,0V107c-.12.16-.29.08-.44.1-.3,0-.56,0-.5-.41,0-.16,0-.33-.23-.31A2.72,2.72,0,0,0,345.22,106.12Z"/><path class="cls-13" d="M397,92.7a3.15,3.15,0,0,0,.49-1.83c0-1.11,0-2.22,0-3.35a1.48,1.48,0,0,1,.93,0v6.09c-.12.16-.29.08-.44.09s-.56,0-.5-.41c0-.16,0-.33-.23-.31Z"/><path class="cls-13" d="M306.83,92.7a3,3,0,0,0,.49-1.83c0-1.11,0-2.22,0-3.35a1.51,1.51,0,0,1,.94,0v6.09c-.12.16-.29.08-.44.09-.3,0-.57,0-.5-.41,0-.16,0-.33-.24-.31A2.72,2.72,0,0,0,306.83,92.7Z"/><path class="cls-22" d="M333.2,60.35v6.16c-.27.16-.55,0-.82.08,0,0-.08,0-.08-.08V60.44C332.55,60.29,332.83,60.4,333.2,60.35Z"/><path class="cls-22" d="M349.74,107.05h-.89v-6.12c.24-.23.56,0,.89-.13Z"/><path class="cls-22" d="M256,87.46h.89v6.12c-.25.16-.55.08-.89,0Z"/><path class="cls-22" d="M265.77,80.22h-.88V74.1c.23-.18.54-.06.88,0Z"/><path class="cls-22" d="M400.67,87.46h.88v6.12c-.23.18-.54.07-.88,0Z"/><path class="cls-22" d="M363.41,93.64h-.88V87.51c.23-.23.55,0,.88-.13Z"/><path class="cls-22" d="M328.46,87.45h.88v6.13c-.23.17-.54.07-.88,0Z"/><path class="cls-22" d="M176.05,53.16h-.88V47c.24-.16.54-.07.88,0Z"/><path class="cls-22" d="M184.5,53.18V47.05c.27-.2.56,0,.79-.12a.34.34,0,0,1,.15.33v5.13C185.44,53.16,185.44,53.16,184.5,53.18Z"/><path class="cls-22" d="M243.94,107.05h-.88v-6.12c.23-.17.54-.07.88-.05Z"/><path class="cls-22" d="M461.53,93.64h-.88V87.52c.23-.18.54-.07.88-.06Z"/><path class="cls-22" d="M487,93.64h-.88V87.51c.23-.23.55,0,.88-.13Z"/><path class="cls-22" d="M500.15,93.64h-.88V87.52c.23-.18.54-.07.88-.06Z"/><path class="cls-22" d="M236.06,60.39H237v6.2h-.49c-.26,0-.44,0-.44-.36C236.07,64.29,236.06,62.35,236.06,60.39Z"/><path class="cls-22" d="M289.78,100.83V107c-.27.17-.55.05-.82.09l-.08-.09a.21.21,0,0,1,0-.1V101C289.13,100.77,289.41,100.88,289.78,100.83Z"/><path class="cls-22" d="M312.79,107.06h-.88v-6.13c.24-.17.54-.07.88-.05Z"/><path class="cls-22" d="M520.06,93.64h-.88V87.52c.24-.18.55-.07.88,0Z"/><path class="cls-22" d="M310.47,87.46h.88v6.12c-.23.24-.55,0-.88.14Z"/><path class="cls-8" d="M268,22.8v1.83h-2.11c-.07-.56,0-1.18,0-1.83Z"/><path class="cls-8" d="M352.63,22.8v1.83h-2.11c-.06-.56,0-1.18,0-1.83Z"/><path class="cls-8" d="M238.9,24.65h-2.08V22.78c.65-.05,1.35,0,2.08,0Z"/><path class="cls-23" d="M236.06,44.56q0-.26-.24-.24a1.63,1.63,0,0,1,1.33-1.2,1.56,1.56,0,0,1,1.79,1L240.38,47q-.25,0-.24.24c-.73,0-.82-.63-1.12-1a11.51,11.51,0,0,1-.54-1c-.63-1.18-.8-1.23-2-.57A.45.45,0,0,1,236.06,44.56Z"/><path class="cls-24" d="M530.45,92.5c-.15.6.06,1.14-.19,1.75s-.64.6-1,.83-.36-.2-.54-.35a1.8,1.8,0,0,0,.91-.67.47.47,0,0,0,0-.31c-.74-.21-.31-.79-.49-1.25Z"/><path class="cls-24" d="M261.36,105.9h1.33c0,.4,0,.78,0,1.17a1.63,1.63,0,0,1-1.07,1.43.4.4,0,0,1-.48-.23c-.25-.38.15-.17.24-.24l.5-.51c.14-.13.16-.35,0-.39C261.14,107,261.68,106.35,261.36,105.9Z"/><path class="cls-24" d="M190.91,105.9h1.25a4.73,4.73,0,0,1-.21,1.89c-.23.46-.64.5-1,.71s-.39-.16-.44-.3.2-.1.28-.17a4.54,4.54,0,0,0,.58-.58.36.36,0,0,0,0-.31C190.57,106.93,191.13,106.33,190.91,105.9Z"/><path class="cls-24" d="M479.26,92.48h1.27a4.83,4.83,0,0,1-.23,1.92c-.23.43-.64.48-1,.69-.16.09-.26-.13-.37-.23s0-.21.14-.24.4-.35.62-.51a.33.33,0,0,0,.08-.31C479,93.62,479.42,93,479.26,92.48Z"/><path class="cls-24" d="M378.79,92.49H380a4.61,4.61,0,0,1-.23,1.91c-.23.44-.64.48-1,.69-.16.09-.27-.13-.37-.24s0-.2.14-.23c.29-.08.41-.36.62-.52a.3.3,0,0,0,.08-.31C378.52,93.62,378.88,93,378.79,92.49Z"/><path class="cls-24" d="M321.33,92.48h1.34c0,.4,0,.79,0,1.17a1.63,1.63,0,0,1-1.06,1.44.43.43,0,0,1-.49-.23c-.24-.38.16-.17.24-.25s.34-.33.51-.5.15-.35,0-.39C321.12,93.54,321.66,92.94,321.33,92.48Z"/><path class="cls-22" d="M320.05,80.21V79.09h1.12a3.38,3.38,0,0,1,.05,1.12Z"/><path class="cls-25" d="M275.93,74H277v1.12a3.32,3.32,0,0,1-1.11,0Z"/><path class="cls-25" d="M202,47h1.12v1.1c-.32.19-.71,0-1.12.11Z"/><path class="cls-22" d="M360.11,107.08v-1.16h1.12a.38.38,0,0,1,.06.26c0,.89,0,.89-1,.9Z"/><path class="cls-25" d="M203.18,52v1.12h-1.13A3.4,3.4,0,0,1,202,52Z"/><path class="cls-25" d="M239.42,92.49h1.16V93.6a.38.38,0,0,1-.26.06c-.89,0-.89,0-.9-1Z"/><path class="cls-25" d="M239.44,88.59V87.47h1.12a3.38,3.38,0,0,1,.05,1.12Z"/><path class="cls-25" d="M197.7,61.52V60.41h1.12a3.3,3.3,0,0,1,.05,1.11Z"/><path class="cls-25" d="M198.86,65.43v1.12h-1.11c-.19-.32,0-.7-.11-1.12Z"/><path class="cls-22" d="M343.34,65.42h1.12v1.12a3.4,3.4,0,0,1-1.12,0Z"/><path class="cls-25" d="M277,80.23h-1.11V79.11a3.33,3.33,0,0,1,1.11,0Z"/><path class="cls-26" d="M401.57,85.08V86h-1.1c-.16-.24-.07-.54,0-.88Z"/><path class="cls-26" d="M363.43,85.08V86h-1.1c-.17-.24-.07-.54-.05-.88Z"/><path class="cls-26" d="M328.17,85.06h1.13c.16.27.05.55.08.81a1.54,1.54,0,0,1-1.1.08C328.07,85.74,328.22,85.43,328.17,85.06Z"/><path class="cls-26" d="M310.21,86v-.88h1.1c.17.23.07.54.05.88Z"/><path class="cls-26" d="M256.91,85V86h-1.1c-.2-.18-.05-.47-.07-.72s.2-.19.35-.19Z"/><path class="cls-26" d="M348.5,98.47h1.18c.2.27,0,.56.13.82-.39.24-.78,0-1.11.14C348.47,99.12,348.65,98.84,348.5,98.47Z"/><path class="cls-26" d="M460.39,86v-.88h1.1c.17.23.06.54.05.88Z"/><path class="cls-26" d="M312.84,99.39h-1.12c-.17-.27-.06-.55-.09-.83.36-.22.75,0,1.09-.13C312.91,98.74,312.8,99,312.84,99.39Z"/><path class="cls-26" d="M264.63,72.54v-.88h1.1c.17.24.07.54,0,.88Z"/><path class="cls-26" d="M485.82,86v-.88h1.1c.16.24.07.54,0,.88Z"/><path class="cls-26" d="M499,85.06h1.13c.16.27.05.55.09.86a2.83,2.83,0,0,1-1.12.06C498.92,85.71,499,85.43,499,85.06Z"/><path class="cls-26" d="M518.93,86v-.88H520c.22.23,0,.55.13.88Z"/><path class="cls-26" d="M332,58.89V58h1.1c.17.24.07.54.05.88Z"/><path class="cls-26" d="M235.84,58.93V58H237c.19.18.05.47.06.73s-.19.19-.35.19Z"/><path class="cls-26" d="M166,99.41v-.92h1.11c.19.18.05.48.06.73s-.19.19-.35.19Z"/><path class="cls-26" d="M242.76,98.47h1.13c.17.27.06.55.09.81a1.57,1.57,0,0,1-1.11.09C242.67,99.15,242.82,98.84,242.76,98.47Z"/><path class="cls-26" d="M289.78,98.49v.88h-1.1c-.16-.24-.07-.54-.05-.88Z"/><path class="cls-26" d="M185.42,44.56v.91h-1.1c-.2-.18-.06-.47-.07-.73s.2-.19.35-.19Z"/><path class="cls-26" d="M176.07,44.6v.87H175c-.17-.23-.07-.54-.05-.87Z"/><path class="cls-27" d="M139.14,39.76a6.55,6.55,0,0,1-.09,1.88c-.21.53-.17,1.11-.38,1.64a4.88,4.88,0,0,1-3.92,3.44,4.1,4.1,0,0,1-1.34.23c-.24,0-.34.19-.46.33-1.07,1.25-2.6,1.61-4.07,2-.35.1-.59.13-.8.52-.53,1-1.19,1.9-1.78,2.86a11.33,11.33,0,0,1-1.86,2.34c-.72.69-1.42,1.41-2.13,2.11-.18.19-.32.35-.07.59a.26.26,0,0,1,.1.19c-.12.86.39,1.67.26,2.54,0,.27.09.61,0,.82-.26.44,0,1-.26,1.33a14.78,14.78,0,0,0-.67,1.53A32.09,32.09,0,0,1,119,68.92c-.48.65-1,1.3-1.49,1.9s-1.23,1.26-1.86,1.87a16.84,16.84,0,0,1-4,3,.85.85,0,0,0-.42.58,38.36,38.36,0,0,0-1.08,4.12c-.3,1.61-.35,3.22-.51,4.83-.12,1.21,0,2.44-.23,3.61a9.66,9.66,0,0,1-.57,3,1.86,1.86,0,0,0,.23,1.85,6.73,6.73,0,0,0,2.31,2.19,4.63,4.63,0,0,0,2.49,1,.6.6,0,0,1,.33.07,4,4,0,0,1,1.73,3.11.58.58,0,0,1-.64.64c-1.8,0-3.6,0-5.4,0-.31,0-.48-.21-.73-.28-.57-.15-1.1-.44-1.67-.61a1.29,1.29,0,0,1-.91-1.16,5.17,5.17,0,0,0-1.53-3,2.46,2.46,0,0,1-.86-2.16,5.09,5.09,0,0,0-.26-1.46c-.07-.44.23-1-.23-1.34,0,0,0-.15,0-.23a6.21,6.21,0,0,0-.21-1.71c-.16-.49.06-1.08-.27-1.57a5.78,5.78,0,0,0-.29-2.41,24.12,24.12,0,0,0-.63-3.2,2.78,2.78,0,0,1,.29-2.27c-.52.1-.93-.16-1.33.17a.3.3,0,0,1-.2.08c-.94-.07-1.83.4-2.78.25-2.43.5-4.89.1-7.33.25a27.57,27.57,0,0,1-3-.3A16,16,0,0,1,85,79.1a14.51,14.51,0,0,1-3.83-1.49,17.77,17.77,0,0,1-3-2,12.12,12.12,0,0,0-3.87-2.22,1.43,1.43,0,0,0-.45-.06c-.28,0-.57,0-.84,0a13,13,0,0,0-3.88.47,1,1,0,0,0-.56.39c-.92.89-1.63,2-2.5,2.9a24,24,0,0,1-3.21,3.46,12,12,0,0,0-2.15,2c-1.1,1.35-2.37,2.54-3.58,3.78a6.33,6.33,0,0,0-.77,1.36c-.42.67-.7,1.39-1.15,2a2.78,2.78,0,0,0-.37,2.81c.12.27,0,.54.07.81a12.76,12.76,0,0,0,.74,3.29,1.57,1.57,0,0,0,.45.77,1.49,1.49,0,0,0,.69.37A4,4,0,0,1,60,99.81c.18.36.59.58.77,1,.08.19.07.27-.07.34-.55.32-1,.77-1.77.68a11.23,11.23,0,0,0-2.39,0,5.91,5.91,0,0,1-2.87-.63c-.3-.12-.54-.39-.93-.36a.45.45,0,0,1-.47-.43c0-.8-.82-1.28-.76-2.09a30.45,30.45,0,0,1-1.81-5,19.3,19.3,0,0,1-.6-3,22.52,22.52,0,0,1-.2-3.27,1,1,0,0,1,.17-.65,55.89,55.89,0,0,0,3-4.73,2.05,2.05,0,0,0,.38-1.27c-.06-.69.22-1.42-.23-2.06a.17.17,0,0,1,0-.12c.18-1.34-.35-2.64-.24-4,.09-1.1-.43-2.15-.24-3.25a1,1,0,0,0-.3-.71,10.29,10.29,0,0,1-1.73-3.72c-.23-.87-.45-1.74-.65-2.62A17.74,17.74,0,0,1,49,60a17.25,17.25,0,0,1,.36-2.48c-1.59,0-3.22,0-4.85,0a6.57,6.57,0,0,1-1.7-.23,13.28,13.28,0,0,1-1.71-.21,14.27,14.27,0,0,0-1.93-.26c-1.43-.29-2.86-.64-4.26-1a35.26,35.26,0,0,1-7.14-3c-1.12-.61-2.16-1.34-3.24-2a15.08,15.08,0,0,1-2.51-2,2.05,2.05,0,0,1-.63-1.78c0-.52.38-.79.86-.63A12.37,12.37,0,0,1,24.4,47a15.41,15.41,0,0,0,2.52.89c.85.28,1.7.53,2.58.73.64.15,1.27.4,1.92.55.91.22,1.83.43,2.75.61a5.26,5.26,0,0,0,1.93.24c.46.59,1.27-.09,1.73.48,0,0,.08,0,.11,0,1.11-.15,2.16.32,3.27.26s2,.3,3,.24a23.2,23.2,0,0,1,3.12,0c.61,0,1.13-.25,1.7-.26a5.34,5.34,0,0,0,1.79,0,7.18,7.18,0,0,1,1.83-.2,4.81,4.81,0,0,0,2.54-.82,10,10,0,0,1,3.17-1.32c.83-.24,1.7-.34,2.55-.52A33,33,0,0,1,66,47.67a5.72,5.72,0,0,1,1.7.23c.52.12,1.11-.19,1.58.25.79-.18,1.52.38,2.3.23.46-.1.77.31,1.22.27s.88-.21,1.23.21c0,0,.07,0,.11,0a9.66,9.66,0,0,1,2.78.27c3.6.36,7.21.12,10.82.22a8.58,8.58,0,0,0,1.82-.25,9,9,0,0,0,1.83-.2,14.33,14.33,0,0,1,1.93-.24c.56-.1,1.09-.45,1.69-.28.45-.47,1.17,0,1.61-.48a18.18,18.18,0,0,0,3.65-.74c.91-.19,1.83-.38,2.74-.61a10.19,10.19,0,0,0,2.28-1.16c1.09-.58,2.07-1.37,3.11-2a4.33,4.33,0,0,0,1.74-1.93c.36-.81.77-1.6,1.2-2.38s1-1.49,1.47-2.27a1.51,1.51,0,0,1,1.29-.9,1.75,1.75,0,0,0,.85-.54,6.55,6.55,0,0,1,3.56-1.84,4.13,4.13,0,0,0,1.32-.25c.44-.26.87,0,1.24-.21a5,5,0,0,1,1.94-.22,7,7,0,0,1,5.47,1.67,2.5,2.5,0,0,1,1.09,1.92c-.27.17-.53,0-.8,0a.62.62,0,0,0-.72.6c0,.31-.1.66.23.83a.78.78,0,0,0,1-.21c.21-.22.28-.56.57-.73.29,0,.38.37.63.48a4.07,4.07,0,0,0,1.93.5c1.38-.07,2.77,0,4.15,0C137,39,138.09,39.36,139.14,39.76Z"/><path class="cls-28" d="M129.79,36.89a3.65,3.65,0,0,1,0,.47,1,1,0,0,1-.93,1c-.38,0-.77,0-1.22,0,0-.56,0-1.07,0-1.57,0-.28.16-.72.34-.77a1.14,1.14,0,0,1,1.11.08c.15.12.22.35.46.34Z"/><path class="cls-29" d="M139.14,39.76c-.26,0-.41.49-.78.09a4.15,4.15,0,0,0-1-.57c-.53-.28-.46-.34-.84-.79s0-.44,0-.64a9.73,9.73,0,0,0,1.08,0,1.66,1.66,0,0,1,1.14.43.86.86,0,0,1,.43.9A2.91,2.91,0,0,0,139.14,39.76Z"/><path class="cls-30" d="M213.33,46.25h1.17c-.13.46,0,.85-.22,1.34a3.68,3.68,0,0,0-.05,1.63c0,.23,0,.37-.3.37s-.48,0-.42-.37C213.67,48.25,213,47.34,213.33,46.25Z"/><path class="cls-31" d="M213.29,51.22V50.11h1.13a3.61,3.61,0,0,1,0,1.11Z"/><path class="cls-30" d="M225.09,46.25h1.16c-.13.46,0,.85-.22,1.34a3.84,3.84,0,0,0,0,1.63c0,.23,0,.37-.31.37s-.47,0-.41-.37C225.42,48.25,224.8,47.34,225.09,46.25Z"/><path class="cls-31" d="M225.07,50.08h1.12v1.13a3.41,3.41,0,0,1-1.12,0Z"/><path class="cls-1" d="M168.65,27.89a2.82,2.82,0,0,1,3-2.95,2.5,2.5,0,0,1,2.45,2.35c0,.32.23.48.25.74s-.23.34-.25.61A2.63,2.63,0,0,1,171,30.87a2.48,2.48,0,0,1-1.44-.84A2.81,2.81,0,0,1,168.65,27.89Z"/><path class="cls-32" d="M313.61,29c-.41.67-.19,1.65-1.2,2a1.5,1.5,0,0,1-2.06-.77,2.68,2.68,0,0,1,.08-2.74,1.65,1.65,0,0,1,2.57-.09A9,9,0,0,1,313.61,29Z"/><path class="cls-32" d="M321,26.83c.42.13.92.19,1.2.86a2.3,2.3,0,0,1,0,2.62,1.3,1.3,0,0,1-1.33.82,1.27,1.27,0,0,1-1.35-.8c-.57-1.25-.62-1.41,0-2.62A1.35,1.35,0,0,1,321,26.83Z"/><path class="cls-33" d="M226.23,28.81c0,1.09-.22,1.76-1.11,2.14a1.79,1.79,0,0,1-2.49-1.35,7.64,7.64,0,0,1,0-1.07,1.8,1.8,0,0,1,3.6,0Z"/><path class="cls-32" d="M329.26,28.51c-.27,0-.55,0-.83,0s-.43.12-.48-.18-.1-.45.12-.53c.39-.13.25-.63.73-.79a1.42,1.42,0,0,1,2,1.21c0,.16,0,.3-.24.3C330.14,28.5,329.7,28.51,329.26,28.51Z"/><path class="cls-32" d="M357.65,28.51a1.43,1.43,0,0,1-.36,0c-.34-.1-.81.3-1-.22-.12-.3.39-1,.8-1.21a1.16,1.16,0,0,1,1.83.56c.43.83.41.87-.53.88Z"/><path class="cls-32" d="M379.46,28.51h-.95c-.41,0-.63-.38-.33-.66s.29-.59.6-.78A1.43,1.43,0,0,1,381,28.15c0,.23,0,.37-.3.36S379.86,28.51,379.46,28.51Z"/><path class="cls-1" d="M167.23,79.53V76.41c1,0,2.06,0,3.08,0,.38,0,.62.25,1,.28s1,.86,1,1.29a1.66,1.66,0,0,1-1.08,1.33,3.07,3.07,0,0,1-1.33.23C169,79.52,168.17,79.53,167.23,79.53Z"/><path class="cls-34" d="M167.23,75.7V72.34c1,0,1.9,0,2.84,0a2,2,0,0,1,1.69,1.31,1.52,1.52,0,0,1-.68,1.61,2.34,2.34,0,0,1-1.36.43C168.92,75.69,168.13,75.7,167.23,75.7Z"/><path class="cls-1" d="M167.24,49.11V45.27c1,0,1.94,0,2.92,0a2.66,2.66,0,0,1,1.15.38,1.92,1.92,0,0,1,0,3,2.29,2.29,0,0,1-1.24.43C169.16,49.13,168.21,49.11,167.24,49.11Z"/><path class="cls-33" d="M471.88,90.2a2.23,2.23,0,0,1,2.19-2.3,3.47,3.47,0,0,1,1.65.63,5.37,5.37,0,0,1,.72,1.71,3.05,3.05,0,0,1-.83,1.66,2.19,2.19,0,0,1-1.41.58A2.26,2.26,0,0,1,471.88,90.2Z"/><path class="cls-33" d="M338.06,60.84a2.85,2.85,0,0,1,1.63.64,4.69,4.69,0,0,1,.73,1.71,8.32,8.32,0,0,1-.73,1.6c-.51.2-.92.64-1.53.61a3.1,3.1,0,0,1-1.64-.66,2.09,2.09,0,0,1-.67-1.75A2.24,2.24,0,0,1,338.06,60.84Z"/><path class="cls-33" d="M239.66,63.1a2.24,2.24,0,0,1,2.21-2.27,2.27,2.27,0,0,1,1.53.59,2.5,2.5,0,0,1,.8,1.66,2.34,2.34,0,0,1-.74,1.68,2,2,0,0,1-1.51.64,2.89,2.89,0,0,1-1.63-.66A1.86,1.86,0,0,1,239.66,63.1Z"/><path class="cls-33" d="M256.24,101.33c.66-.08,1.12.36,1.65.62a4.77,4.77,0,0,1,.72,1.71,3.16,3.16,0,0,1-.83,1.66,2,2,0,0,1-1.42.57,3.34,3.34,0,0,1-1.64-.66,2.1,2.1,0,0,1-.68-1.75A2.24,2.24,0,0,1,256.24,101.33Z"/><path class="cls-33" d="M315.47,103.63a2.25,2.25,0,0,1,2.2-2.32,2.28,2.28,0,0,1,1.54.59,2.93,2.93,0,0,1,.81,1.66,5.15,5.15,0,0,1-.72,1.71c-.51.21-.92.64-1.54.61a3,3,0,0,1-1.63-.66A1.79,1.79,0,0,1,315.47,103.63Z"/><path class="cls-1" d="M247.38,85.76c.71,0,1.39,0,2.06,0a3.43,3.43,0,0,1,3.42,3.41,3.47,3.47,0,0,1-1.23,3,3.22,3.22,0,0,1-1.95.78,19.49,19.49,0,0,1-2.3,0Z"/><path class="cls-33" d="M352.68,103.86c-.19-.73.32-1.23.58-1.8s.89-.55,1.37-.71a1.79,1.79,0,0,1,1.38.37,2.74,2.74,0,0,1,1.17,2.13,2.78,2.78,0,0,1-.64,1.87,2,2,0,0,1-1.56.84,1.74,1.74,0,0,1-1.84-.89A2.31,2.31,0,0,1,352.68,103.86Z"/><path class="cls-33" d="M204.89,77c-.22-.66.3-1.17.54-1.75s.87-.59,1.35-.76a1.58,1.58,0,0,1,1.4.33,2.74,2.74,0,0,1,0,4.55,1.52,1.52,0,0,1-1.5.34c-.5-.23-1.11-.31-1.4-1A3.65,3.65,0,0,1,204.89,77Z"/><path class="cls-33" d="M268.48,77.16c-.24-.71.24-1.24.47-1.82s.92-.68,1.44-.82a2,2,0,0,1,1.49.42,3,3,0,0,1,1.1,2,2.65,2.65,0,0,1-.56,1.79,2,2,0,0,1-1.62,1A1.75,1.75,0,0,1,269,79C268.7,78.43,268.23,77.88,268.48,77.16Z"/><path class="cls-33" d="M316.54,87.89c.4.23,1,.2,1.35.64a2.71,2.71,0,0,1,0,4,2,2,0,0,1-3.22-.47,3.08,3.08,0,0,1,.11-3.33A2,2,0,0,1,316.54,87.89Z"/><path class="cls-33" d="M404.5,90.55c-.23-.71.2-1.27.5-1.81a2.1,2.1,0,0,1,2.85-.46A3.14,3.14,0,0,1,409,90.43a2.77,2.77,0,0,1-.64,1.87,2.13,2.13,0,0,1-1.56.85,1.74,1.74,0,0,1-1.8-.79C404.7,91.82,404.27,91.26,404.5,90.55Z"/><path class="cls-33" d="M228.15,77.09a4,4,0,0,1-.51,1.83c-.21.6-.91.66-1.43.83a1.56,1.56,0,0,1-1.49-.42,3.93,3.93,0,0,1-.83-.85c-.2-.3-.1-.71-.26-1.09a2.09,2.09,0,0,1,.31-1.62,2.61,2.61,0,0,1,1.48-1.26,2.29,2.29,0,0,1,2.34,1.18A3.13,3.13,0,0,1,228.15,77.09Z"/><path class="cls-33" d="M197.92,90.51a4,4,0,0,1-.5,1.83c-.22.6-.91.66-1.44.82a1.56,1.56,0,0,1-1.49-.41,4.17,4.17,0,0,1-.83-.85c-.19-.31-.1-.71-.26-1.09a2.11,2.11,0,0,1,.31-1.63,2.72,2.72,0,0,1,1.48-1.26,2.32,2.32,0,0,1,2.35,1.19A3.08,3.08,0,0,1,197.92,90.51Z"/><path class="cls-32" d="M509.75,90.55c.52-.19,1,.36,1.53.25.21,0,.19.19.19.35a1.81,1.81,0,0,1-.53,1.43,2.07,2.07,0,0,1-2,.55,8.45,8.45,0,0,1-.85-.28c-.4-.2-.09-.62-.33-.82s0-.21,0-.35A1.75,1.75,0,0,1,509.75,90.55Z"/><path class="cls-32" d="M192.15,77.13c.48-.2.93.36,1.49.25.22,0,.2.18.2.34a2,2,0,0,1-2.7,1.91c-.6-.17-.93-.37-1-1,0-.13-.06-.19,0-.35A1.8,1.8,0,0,1,192.15,77.13Z"/><path class="cls-32" d="M233.39,77.13c.52-.18,1,.37,1.53.26.2,0,.18.19.18.34a2,2,0,0,1-2.7,1.89c-.63-.17-.9-.4-1-1a.37.37,0,0,1,0-.34A1.76,1.76,0,0,1,233.39,77.13Z"/><path class="cls-32" d="M240.36,77.14c.49-.21.93.35,1.49.24.22,0,.21.18.21.33a2,2,0,0,1-2.69,1.92c-.6-.17-1-.36-1-1,0-.12-.07-.18,0-.34A1.8,1.8,0,0,1,240.36,77.14Z"/><path class="cls-35" d="M179.84,76.65H176c-.25,0-.37-.07-.34-.33a2.59,2.59,0,0,1,1.7-1.83,1.9,1.9,0,0,1,1.95,1.08C179.48,75.92,179.26,76.35,179.84,76.65Z"/><path class="cls-35" d="M217.26,76.65h-3.89c-.25,0-.36-.07-.34-.33a2.63,2.63,0,0,1,1.7-1.83,1.9,1.9,0,0,1,2,1.08C216.91,75.92,216.69,76.35,217.26,76.65Z"/><path class="cls-35" d="M262.12,76.65h-3.89c-.25,0-.36-.07-.34-.33a2.63,2.63,0,0,1,1.7-1.83,1.9,1.9,0,0,1,2,1.08C261.77,75.92,261.55,76.35,262.12,76.65Z"/><path class="cls-35" d="M298.45,76.65h-3.61c-.47,0-.63-.22-.43-.64a2.55,2.55,0,0,1,1.63-1.5A1.84,1.84,0,0,1,298.18,76,2.73,2.73,0,0,0,298.45,76.65Z"/><path class="cls-35" d="M233.36,103.45h-4a2.36,2.36,0,0,1,1.62-2.12,1.89,1.89,0,0,1,1.68.57A4.08,4.08,0,0,1,233.36,103.45Z"/><path class="cls-35" d="M302.16,103.48c-.56,0-1.12,0-1.68,0-.37,0-.41-.18-.36-.43a2.42,2.42,0,0,1,1.91-1.73,1.83,1.83,0,0,1,1.92,1.59c0,.1,0,.22.11.31s.12.25-.11.25Z"/><path class="cls-35" d="M174.15,103.48h-3.58c-.47,0-.63-.22-.43-.64a3,3,0,0,1,1.13-1.28,1.69,1.69,0,0,1,2.41.74C173.85,102.66,174,103,174.15,103.48Z"/><path class="cls-35" d="M327.74,103.45h-4.06a2.29,2.29,0,0,1,1.6-2.11,1.88,1.88,0,0,1,1.68.55C327.41,102.3,327.36,102.93,327.74,103.45Z"/><path class="cls-35" d="M527.13,90.07h-3.92c-.23,0-.24-.16-.22-.32a2.6,2.6,0,0,1,1.68-1.84,1.93,1.93,0,0,1,2,1.08C526.85,89.32,526.67,89.75,527.13,90.07Z"/><path class="cls-35" d="M445.48,90.07H441.9c-.47,0-.63-.23-.43-.65a2.83,2.83,0,0,1,1.13-1.27,1.7,1.7,0,0,1,2.41.73C445.18,89.24,445.31,89.62,445.48,90.07Z"/><path class="cls-35" d="M423.33,90h-3.92A2.26,2.26,0,0,1,421,87.92a1.84,1.84,0,0,1,1.68.55A3.26,3.26,0,0,1,423.33,90Z"/><path class="cls-35" d="M370.45,90h-4.07a2.31,2.31,0,0,1,1.6-2.12,1.91,1.91,0,0,1,1.69.56C370.11,88.89,370.07,89.51,370.45,90Z"/><path class="cls-35" d="M348.08,90.07H344.5c-.47,0-.63-.23-.43-.65a2.87,2.87,0,0,1,1.12-1.27,1.71,1.71,0,0,1,2.42.73C347.78,89.24,347.91,89.62,348.08,90.07Z"/><path class="cls-35" d="M289.07,90.07h-3.59c-.47,0-.63-.23-.42-.65a2.81,2.81,0,0,1,1.12-1.27,1.71,1.71,0,0,1,2.42.73C288.76,89.24,288.89,89.62,289.07,90.07Z"/><path class="cls-35" d="M277.26,90h-4a2.33,2.33,0,0,1,1.62-2.11,1.86,1.86,0,0,1,1.68.57C277,88.9,277,89.49,277.26,90Z"/><path class="cls-35" d="M229.6,90h-4a2.33,2.33,0,0,1,1.62-2.11,1.89,1.89,0,0,1,1.68.57C229.28,88.9,229.25,89.51,229.6,90Z"/><path class="cls-35" d="M306.34,63h-3.58c-.48,0-.64-.23-.43-.64a2.79,2.79,0,0,1,1.12-1.28,1.7,1.7,0,0,1,2.42.74C306,62.18,306.16,62.55,306.34,63Z"/><path class="cls-35" d="M283.49,63h-3.82c-.37,0-.57-.29-.41-.6a2.83,2.83,0,0,1,1.61-1.54,1.82,1.82,0,0,1,2.2,1.52A.91.91,0,0,0,283.49,63Z"/><path class="cls-35" d="M290.51,63h-3.59c-.47,0-.63-.23-.42-.64a2.79,2.79,0,0,1,1.12-1.28,1.71,1.71,0,0,1,2.42.73C290.2,62.17,290.33,62.55,290.51,63Z"/><path class="cls-1" d="M203,104.06c.2.61-.29,1.13-.52,1.71s-.78.57-1.23.75a1.82,1.82,0,0,1-1.21-.08c-2-.6-2-3.38-.82-4.6.33-.34.76-.28,1.13-.48a1.22,1.22,0,0,1,1,.1A2.45,2.45,0,0,1,203,104.06Z"/><path class="cls-1" d="M210.63,90.61c.21.6-.23,1.16-.5,1.72-.39.79-1.57.91-2.51.65a2.08,2.08,0,0,1-1.45-1.54,3,3,0,0,1,.13-2.13,2.14,2.14,0,0,1,2.34-1.38,2.53,2.53,0,0,1,2,2.22C210.64,90.27,210.63,90.39,210.63,90.61Z"/><path class="cls-1" d="M199.37,50.21c.19.56-.3,1.08-.52,1.67s-.79.57-1.24.74a1.82,1.82,0,0,1-1.21-.08c-2-.6-2-3.37-.82-4.6.33-.34.77-.27,1.13-.48a1.39,1.39,0,0,1,1,.09A2.51,2.51,0,0,1,199.37,50.21Z"/><path class="cls-1" d="M256.2,63.34c-.2-.59.33-1.1.54-1.68s.79-.56,1.23-.74a1.83,1.83,0,0,1,1.21.09c2,.56,2,3.39.8,4.6-.33.34-.77.26-1.13.47a1.3,1.3,0,0,1-1-.1A2.47,2.47,0,0,1,256.2,63.34Z"/><path class="cls-1" d="M236.06,44.56a.48.48,0,0,0,.44-.35c.09-.48.37-.58.82-.63a1.06,1.06,0,0,1,1.08.58,11,11,0,0,1,.78,1.58,4.59,4.59,0,0,0,1,1.45c0,.57.41,1,.61,1.42.3.71.76,1.36,1,2.07a2,2,0,0,1,.29.85c0,1.21-.37,1.65-1.59,1.65-2.11,0-4.22,0-6.33,0a1.41,1.41,0,0,1-1.33-.78,1.24,1.24,0,0,1,.09-1.29C234,49.11,235,47,236,45A1.44,1.44,0,0,0,236.06,44.56Z"/><path class="cls-8" d="M306.83,92.7q.26,0,.24.24Q306.83,93,306.83,92.7Z"/><path class="cls-8" d="M345.22,106.12q.24,0,.24.24Q345.21,106.36,345.22,106.12Z"/><path class="cls-8" d="M180.65,106.12c.16,0,.24.07.23.24C180.72,106.36,180.64,106.28,180.65,106.12Z"/><path class="cls-8" d="M397,92.7a.21.21,0,0,1,.24.24Q397,93,397,92.7Z"/><path class="cls-8" d="M452,92.7q.25,0,.24.24Q452,93,452,92.7Z"/><path class="cls-36" d="M236.87,46.47h1.06c.28,0,.4.22.27.35-.41.42-.23.91-.19,1.34s-.26,1-.27,1.44c0,.32-.27.21-.44.22s-.28,0-.28-.26c0-.51,0-1,0-1.54S236.58,47.11,236.87,46.47Z"/><path class="cls-26" d="M236.82,50.33h1.12v1.1c-.32.17-.71,0-1.12.1Z"/></g></g></svg>