<svg xmlns="http://www.w3.org/2000/svg" viewBox="0 0 579.11 126.24"><defs><style>.cls-1{fill:#fefefe;}.cls-2{fill:#f4e0de;}.cls-3{fill:#122c70;}.cls-4{fill:#132c70;}.cls-5{fill:#132d70;}.cls-6{fill:#142d70;}.cls-7{fill:#162e71;}.cls-8{fill:#152e71;}.cls-9{fill:#183072;}.cls-10{fill:#172f72;}.cls-11{fill:#173072;}.cls-12{fill:#162f71;}.cls-13{fill:#142d71;}.cls-14{fill:#142e71;}.cls-15{fill:#1b3273;}.cls-16{fill:#1a3173;}.cls-17{fill:#1f3575;}.cls-18{fill:#1c3374;}.cls-19{fill:#1d3474;}.cls-20{fill:#172f71;}.cls-21{fill:#203575;}.cls-22{fill:#223776;}.cls-23{fill:#253978;}.cls-24{fill:#f69890;}.cls-25{fill:#080808;}.cls-26{fill:#f0c9cb;}.cls-27{fill:#ebc5c9;}.cls-28{fill:#f3dfde;}.cls-29{fill:#f3dfdd;}.cls-30{fill:#f2dedd;}.cls-31{fill:#eddada;}.cls-32{fill:#f3e0de;}.cls-33{fill:#f2dfdd;}.cls-34{fill:#060505;}</style></defs><g id="Layer_2" data-name="Layer 2"><g id="Layer_1-2" data-name="Layer 1"><ellipse class="cls-1" cx="289.56" cy="69.51" rx="409.49" ry="98.3"/><path class="cls-2" d="M578.39,37.82c0,3.52,0,7,0,10.56,0,1.94.36,3.85.27,5.79s0,3.92,0,5.88V77.58a54.68,54.68,0,0,0,0,5.87c.32,2.86.14,5.7.19,8.55s0,5.69,0,8.53a17.74,17.74,0,0,1-.26,1.94,4.36,4.36,0,0,1-.22,2c-.21.38.2,1-.25,1.33.17.88-.37,1.62-.52,2.44a8.5,8.5,0,0,1-.79,2.18,22,22,0,0,1-3.11,5.32,7.57,7.57,0,0,0-.49.76,13.72,13.72,0,0,1-3.47,3.71c-.66.54-1.31,1.08-2,1.57a23.6,23.6,0,0,1-5.33,2.8,8.55,8.55,0,0,1-2.67.78c-.28,0-.42.19-.61.28a7.84,7.84,0,0,1-1.73.51c-.89.18-1.81,0-2.66.23a17.7,17.7,0,0,1-4.23.19c-8,0-16,0-24,0-3.77.47-7.55.19-11.32.23s-7.61,0-11.42,0H492.37c-2.68.49-5.39.18-8.08.23s-5.52,0-8.29,0h-8.17c-2.72,0-5.45-.15-8.16,0-5.7.39-11.39.15-17.09.2s-11.45,0-17.18,0c-2.76.47-5.54.18-8.31.23s-5.52,0-8.29,0h-8.41c-2.76,0-5.54-.17-8.28.05-3.74.3-7.47.13-11.2.18s-7.53,0-11.3,0H358.32c-2.72.49-5.46.18-8.19.23s-5.61,0-8.41,0h-8.29c-2.76,0-5.54-.17-8.29.05-3.77.29-7.54.14-11.32.18s-7.6,0-11.41,0H291c-2.68.49-5.38.18-8.07.23s-5.45,0-8.17,0h-8.05c-2.73,0-5.46-.14-8.17,0-5.74.38-11.47.15-17.2.2s-11.54,0-17.31,0c-2.71.48-5.46.18-8.19.23s-5.52,0-8.29,0h-8.29c-2.76,0-5.54-.17-8.28,0-3.78.3-7.55.13-11.32.18s-7.53,0-11.29,0H157c-2.72.49-5.46.18-8.19.23s-5.6,0-8.41,0h-8.29c-2.76,0-5.54-.17-8.29.05-3.73.29-7.46.14-11.19.18s-7.61,0-11.42,0H89.87c-2.68.5-5.38.18-8.07.23s-5.53,0-8.29,0H65.34c-2.72,0-5.46-.15-8.17,0-5,.34-10,.15-15,.19s-10,0-15,0a27.32,27.32,0,0,0-3.5-.24c-.29,0-.42-.34-.75-.24s-.56-.05-.67.08c-.32.37-.47-.09-.68-.11a15.79,15.79,0,0,1-3.75-1.08,18.42,18.42,0,0,1-2.05-.85,33.65,33.65,0,0,1-5.1-3.37,30.18,30.18,0,0,1-2.43-2A29.54,29.54,0,0,1,4.83,118a23.06,23.06,0,0,1-1.56-3A18.57,18.57,0,0,1,2,111.49a7.59,7.59,0,0,1-.54-2.91c-.41-.73-.13-1.54-.25-2.3A62.57,62.57,0,0,1,1,97.73c0-2.88.18-5.78-.06-8.64C.68,86.4.78,83.71.73,81s0-5.53,0-8.29V64.58c0-2.72,0-5.44,0-8.16,0-1.42-.35-2.8-.27-4.23s0-2.88,0-4.32V34.79c0-1.44,0-2.89,0-4.33,0-1.24.22-2.48.28-3.74a10.78,10.78,0,0,1,.46-2.55,23.89,23.89,0,0,0,.7-2.47,17.81,17.81,0,0,1,3-6.25A24.72,24.72,0,0,1,9,10.8a30.77,30.77,0,0,1,6.74-4.31,5.25,5.25,0,0,0,1.08-.61c.28-.22.74-.24,1-.4.45-.27,1-.16,1.41-.41a5.34,5.34,0,0,1,1.31-.3c1.17-.28,2.37-.3,3.52-.51a23.37,23.37,0,0,1,4-.16c7,0,14.1,0,21.15,0,3.72-.5,7.46-.17,11.19-.23s7.53,0,11.29,0S79.28,4,83,3.78c2.78-.17,5.55-.12,8.32-.17s5.53,0,8.29,0h8.41c2.76,0,5.54.19,8.28,0,3.74-.32,7.47-.13,11.2-.19s7.45,0,11.18,0,7.54.2,11.29,0,7.46-.12,11.19-.18,7.45,0,11.18,0,7.54.2,11.29-.05S191,3,194.74,2.89s7.44,0,11.17,0,7.46.18,11.17-.06c2.78-.17,5.54-.12,8.31-.17s5.69,0,8.53,0h8.41c2.81,0,5.63.18,8.41-.05s5.46-.13,8.19-.18,5.61,0,8.41,0h8.29c2.77,0,5.55.18,8.29,0,3.74-.31,7.47-.14,11.2-.19s7.61,0,11.41,0,7.54.18,11.29-.06c2.78-.17,5.55-.12,8.32-.17s5.52,0,8.29,0h8.41c2.76,0,5.54.18,8.28,0,3.74-.3,7.47-.14,11.2-.19s7.53,0,11.3,0h11.29c2.72-.48,5.46-.18,8.19-.23s5.61,0,8.41,0h8.29c2.76,0,5.54.17,8.29,0,3.73-.29,7.46-.15,11.19-.19s7.61,0,11.42,0H452c2.68-.49,5.38-.18,8.07-.23s5.53,0,8.29,0h8.17c2.73,0,5.46.15,8.17,0,5.73-.38,11.47-.15,17.2-.2s11.54,0,17.3,0c2.72-.48,5.46-.18,8.2-.23s5.6,0,8.41,0h8.29c2.76,0,5.52,0,8.29,0,.37,0,.79.17,1.12-.19a.31.31,0,0,1,.31,0c.25.31.59.14.89.18.51.05,1.1-.2,1.51.1s1.07-.15,1.41.38a7.81,7.81,0,0,1,2.75.61,26.24,26.24,0,0,1,4.36,2A24.29,24.29,0,0,1,568.42,6a28.41,28.41,0,0,1,2.42,2.23,24.93,24.93,0,0,1,4.89,7.1,3.83,3.83,0,0,1,.54,1.35c0,.2.1.72.59.68a5.45,5.45,0,0,1,.3.95,3.74,3.74,0,0,0,.41,1.4c.24.43,0,.88.27,1.34s-.05,1.14.31,1.66c-.15,1.34.28,2.64.26,4C578.36,30.38,578.39,34.1,578.39,37.82Z"/><path class="cls-1" d="M155.23,42.53c0,4.08-.18,8.17.05,12.24.22,3.77.13,7.54.18,11.31s0,7.52,0,11.28v11.4a36.6,36.6,0,0,1,.23,6.62c0,2.24,0,4.48,0,6.72a14.81,14.81,0,0,1-.81,4.23,21.4,21.4,0,0,1-1.34,3.16c-.38.79-.94,1.45-1.39,2.19a13,13,0,0,1-2.19,2.45,16.8,16.8,0,0,1-6.13,3.76c-1.1.81-2.5.71-3.71,1.2a12.79,12.79,0,0,0-2.54.25c-3.92,0-7.86-.21-11.77,0-3.74.24-7.46.1-11.19.17s-7.45,0-11.18,0H92.17c-2.75.47-5.54.18-8.31.23s-5.6,0-8.4,0H67.17c-2.8,0-5.62-.19-8.41,0S52.9,120,50,120s-5.84,0-8.77,0-5.92,0-8.89,0c-.82,0-1.58-.33-2.42-.27a10.23,10.23,0,0,1-2.2-.49,11.51,11.51,0,0,1-2.19-.79c-.1,0-.16-.16-.3-.14-1.06.15-1.77-.59-2.56-1.05A17.9,17.9,0,0,1,18,113.14a15.13,15.13,0,0,1-3.11-5.89,5.83,5.83,0,0,1-.49-1.72,7.37,7.37,0,0,0-.28-1.69A35.11,35.11,0,0,1,14,98.05c0-2,.14-3.94,0-5.88-.36-3.73-.14-7.46-.19-11.19s0-7.52,0-11.28.18-7.53-.06-11.28c-.19-2.89-.12-5.78-.17-8.66s0-5.76,0-8.65V32.35a3.4,3.4,0,0,1,.22-1.47c.19-.44-.21-1,.24-1.45A4.9,4.9,0,0,1,14.48,27a5.35,5.35,0,0,1,.89-2.15,9,9,0,0,1,2.38-4.05c.69-.72,1.39-1.44,2.12-2.12a15.41,15.41,0,0,1,5.6-3.29,17.63,17.63,0,0,0,1.69-.57c.54-.25,1.19.07,1.62-.42.8.15,1.53-.25,2.31-.24,11.18.17,22.35-.38,33.53-.25,5.09.05,10.18.19,15.25,0,5.78-.26,11.55-.14,17.32-.18s11.62,0,17.42,0c2.48-.48,5-.18,7.47-.23s5,0,7.45,0,5-.06,7.56,0a21.7,21.7,0,0,1,3.82.61,25.84,25.84,0,0,1,3.39,1.11,9.5,9.5,0,0,1,2.88,1.69c.52.44,1.18.56,1.63,1.06s.9.91,1.35,1.36a9.15,9.15,0,0,1,1.47,1.92.84.84,0,0,0,.15.18c1.52,1.32,2.1,3.19,2.7,5a13.08,13.08,0,0,1,.76,4.37C155.2,34.69,155.23,38.61,155.23,42.53Z"/><path class="cls-3" d="M221.78,53.3c-1.13,0-2.25,0-3.37,0a1.59,1.59,0,0,1-1.56-.8,1.91,1.91,0,0,1-.12-1.93c1.12-2.09,2.15-4.22,3.2-6.35a4.37,4.37,0,0,1,1.12-1.33,1.72,1.72,0,0,1,2.18.58c.45.85.83,1.74,1.3,2.58.81,1.46,1.63,2.91,2.31,4.44a1.85,1.85,0,0,1-.92,2.66,1.58,1.58,0,0,1-.78.14C224,53.31,222.9,53.3,221.78,53.3Z"/><path class="cls-3" d="M233.5,53.3c-1.11,0-2.23,0-3.35,0a1.57,1.57,0,0,1-1.54-.82,1.87,1.87,0,0,1-.12-1.82c1.2-2.17,2.18-4.45,3.39-6.61-.08-.46.58-.54.51-1a1.93,1.93,0,0,1,2.61.38c.66,1.24,1.34,2.48,1.91,3.76.39.85.94,1.59,1.34,2.43.2.44.37.9.53,1.34a1.8,1.8,0,0,1-1.68,2.32C235.9,53.32,234.7,53.3,233.5,53.3Z"/><path class="cls-3" d="M245.32,53.06c-1,0-2.08-.05-3.11,0a3.24,3.24,0,0,1-1.71-.51c-.32-.14-.54-1.22-.35-1.64s.45-.77.62-1.18c.82-1.9,1.77-3.73,2.63-5.61.26-.57.82-.9,1-1.51,0-.12.17-.12.29-.14A2.11,2.11,0,0,1,247,43.67c1.11,2.22,2.37,4.35,3.43,6.6a2,2,0,0,1-1.75,2.8C247.56,53,246.44,53.06,245.32,53.06Z"/><path class="cls-3" d="M176.62,34.09c0-1.51-.06-3,0-4.45.09-1.62-.47-3.19-.2-4.85a2.09,2.09,0,0,1,1-.05c1.26.15,2.48-.28,3.73-.25A2.79,2.79,0,0,1,183.59,26a1.74,1.74,0,0,1,0,1.74,3.26,3.26,0,0,1-.76,1.23c.29.38.77.48,1.09.84a2.33,2.33,0,0,1-1,3.82,3.15,3.15,0,0,1-1.57.28,10.81,10.81,0,0,0-1.8,0,4.67,4.67,0,0,0-2.06.22A2.55,2.55,0,0,1,176.62,34.09Z"/><path class="cls-3" d="M422.44,32.17h-2.16c0-1.47,0-2.9,0-4.33,0-.89-.44-1.27-1.32-1.19a.87.87,0,0,0-.81.72,5.16,5.16,0,0,0-.29,1.33c.07,1.12,0,2.24,0,3.41H416V25a10.32,10.32,0,0,0,1.36,0c.59-.09.53.28.54.7a5.12,5.12,0,0,1,2.08-.95,2.37,2.37,0,0,1,2.1,1c.14,0,.26,0,.35-.1.73-1,1.84-.95,2.87-.81a1.48,1.48,0,0,1,1.23.9,4.81,4.81,0,0,1,.49,1.71c0,1.56,0,3.12,0,4.73h-2.16V28.54c0-.24,0-.48,0-.72a1.19,1.19,0,0,0-1.22-1.17,1.18,1.18,0,0,0-1.18,1.21C422.43,29.26,422.44,30.65,422.44,32.17Z"/><path class="cls-3" d="M270.09,33.35h-1.88V26.17h1.23c.59,0,.59,0,.75.7,1.38-1,2.45-1.59,4.23,0,.2,0,.27-.15.37-.26a1.9,1.9,0,0,1,1.75-.69,3,3,0,0,1,1.46.26,2.65,2.65,0,0,1,1.21,2.38c.06,1.47,0,3,0,4.51-.71-.07-1.34.51-2.16.2V29.74c0-.24,0-.48,0-.72a1.19,1.19,0,0,0-1.22-1.17,1.18,1.18,0,0,0-1.18,1.21c0,1.39,0,2.79,0,4.29-.69,0-1.39,0-2.17,0,0-1.48,0-2.91,0-4.33,0-.9-.43-1.27-1.31-1.2a.87.87,0,0,0-.82.71,4.86,4.86,0,0,0-.29,1.21C270.13,30.93,270.09,32.09,270.09,33.35Z"/><path class="cls-3" d="M190.59,24.26a5,5,0,0,1,4.81,3,9,9,0,0,1,.41,1.5,1.81,1.81,0,0,1-.19,1.46c-.12.17,0,.49-.09.68-.25.5-.2,1.09-.73,1.52a6.17,6.17,0,0,1-2.29,1.45,5.36,5.36,0,0,1-3.79-.24A4.73,4.73,0,0,1,186,30c-.06-.34-.28-.59-.29-1a4.6,4.6,0,0,1,1.79-3.69A3.83,3.83,0,0,1,190.59,24.26Z"/><path class="cls-3" d="M340.14,29.93c.4-1.48.75-2.73,1.07-4,.05-.21.14-.25.31-.25h1.91c-.32.93-.57,1.81-.91,2.65a23.44,23.44,0,0,1-.79,2.55c-.11.19.16.54,0,.87s-.11.86-.34,1-.76.1-1.15.1-.52.08-.77-.17-.06-.51-.18-.64-.14-.54-.26-.74a1.62,1.62,0,0,1-.21-.63c0-.31-.73-.23-.47-.74-.39-.29-.16-.73-.33-1.2-.17.23-.46.31-.39.62s-.33.42-.23.62c.36.71-.31,1.21-.33,1.85,0,.13-.16.31-.17.51,0,.38-.27.54-.65.53l-1.42,0a5.68,5.68,0,0,0-.36-1.17c-.19-.53-.22-1.1-.45-1.61-.12-.27-.18-.63-.39-.78a1.72,1.72,0,0,1-.53-1.22c-.12-.82-.53-1.53-.69-2.35h2a27.76,27.76,0,0,1,1.18,4.15l1.4-4.13s.05-.06.11-.05c.57.08,1.26-.3,1.68.18a4.29,4.29,0,0,1,.51,1.45C339.56,28.14,339.82,29,340.14,29.93Z"/><path class="cls-3" d="M362.88,26V22.83H365v9.82h-1.45c-.62,0-.62,0-.76-.71a2.76,2.76,0,0,0-.25.21c-1.24,1.45-3.66.72-4.45-.65a4.27,4.27,0,0,1-.72-2.57,4.22,4.22,0,0,1,1.17-2.86,3,3,0,0,1,3.58-.53Z"/><path class="cls-3" d="M240.26,26.87v-3h2.16v9.78H241c-.6,0-.6,0-.75-.69-.34.17-.51.53-.88.71a3.13,3.13,0,0,1-3.83-1.18,5.54,5.54,0,0,1-.71-2.57,4.73,4.73,0,0,1,1.1-2.78,3.07,3.07,0,0,1,3.67-.59Z"/><path class="cls-4" d="M486.36,24.91v-3h2.16c0,2.16,0,4.31,0,6.45a7.27,7.27,0,0,0,.43,3.34,13.61,13.61,0,0,0-1.84,0c-.62.09-.49-.33-.54-.64s-.21,0-.25.07c-1.07,1.52-4,.76-4.53-.76-.52-.43-.33-1.25-.92-1.65,0,0,0-.15,0-.22a4.81,4.81,0,0,1,1.06-3.27,3,3,0,0,1,3.74-.62C485.82,24.75,486.12,24.67,486.36,24.91Z"/><path class="cls-4" d="M351.75,32.65H350.3c-.62,0-.62,0-.76-.71l-.25.21c-.3.24-.48.7-.89.73a3.45,3.45,0,0,1-2-.26,4.24,4.24,0,0,0-.77-.44,1.55,1.55,0,0,1-1-1,4.28,4.28,0,0,1-.45-2.2,5.54,5.54,0,0,1,.75-2.2,3.49,3.49,0,0,1,2-1.3c1.2-.37,1.2-.37,2.75.47V22.84c.73-.06,1.43,0,2.16,0Z"/><path class="cls-3" d="M291,23.31h1.84v3.35a3.47,3.47,0,0,0,.94-.61A3.35,3.35,0,0,1,296,25.7a2.59,2.59,0,0,1,1.53.9,3,3,0,0,1,1,2.1c0,.56,0,1.12,0,1.68a3.36,3.36,0,0,1-3.09,3,5.21,5.21,0,0,1-1.83-.55c-.3-.12-.5-.48-.61.13,0,.19-.25.14-.4.14H291Z"/><path class="cls-3" d="M430.85,34.31H429V25a14.67,14.67,0,0,0,1.48,0c.58-.05.35.38.44.67.28.06.32-.25.5-.35a3.06,3.06,0,0,1,4,.27,2.59,2.59,0,0,1,1,1.73,6.06,6.06,0,0,1-.2,3.13,3.08,3.08,0,0,1-4.2,1.74L431,31.7s-.07,0-.1,0-.09.06-.09.08Z"/><path class="cls-4" d="M204.26,25.57a8.22,8.22,0,0,0-1.12,1.53,11.54,11.54,0,0,0-1.71-.79,1.78,1.78,0,0,0-1.71.21.53.53,0,0,0-.11.89,2.3,2.3,0,0,0,.75.48,16.32,16.32,0,0,1,2.63.9,2.83,2.83,0,0,1,1.31,1.38,2.44,2.44,0,0,1-.38,2.68c-.32.35-.49.86-1,1a4.92,4.92,0,0,1-1.1.27,5.63,5.63,0,0,1-3.69-1s-.18,0-.22,0c-.21-.18-.41-.38-.61-.58.37-.23.09-.74.46-1a3.72,3.72,0,0,0,.6-.59c.36.35.67.86,1.18.91a7,7,0,0,0,1.93.3c.35-.06.71-.18.83-.44a1,1,0,0,0-.48-1.25c-.66-.37-1.47-.28-2.11-.72-.35.16-.59-.16-.85-.26a2,2,0,0,1-1.34-2.16.24.24,0,0,0,0-.12,2.42,2.42,0,0,1,1.85-2.79c.07,0,.11-.15.17-.16C201.27,24.14,202.93,24.22,204.26,25.57Z"/><path class="cls-4" d="M210.89,31a.61.61,0,0,0,.16.16c.21.14.4.59.57.44.34-.3.41.26.7.11s.75.37,1.22.23c.18-.05.44.07.58,0s.62-.12.7-.47a1,1,0,0,0-.45-1.2,8.48,8.48,0,0,0-1.73-.46c-.15-.05-.28-.43-.55-.08-.14.2-.33-.1-.48-.12s-.4-.22-.6-.3a1.63,1.63,0,0,1-1-1.55c0-.31,0-.64,0-1a2.11,2.11,0,0,1,1.23-2.05,2.41,2.41,0,0,1,1.6-.48c.12,0,.28.05.36,0a1.26,1.26,0,0,1,1.31-.16,4.46,4.46,0,0,1,2.23,1.26,8.71,8.71,0,0,0-1.11,1.52c-.53-.26-1-.72-1.63-.69a.72.72,0,0,0-1-.2c-.33.27-.76.39-1,.74a.49.49,0,0,0,0,.64c.24.27.46.62.89.26,1,.58,2.38.47,3.26,1.44a2.11,2.11,0,0,1,.56.85,2.47,2.47,0,0,1-.38,2.77,3.3,3.3,0,0,1-2.75,1.2,7.9,7.9,0,0,1-2.24-.41c-1.23-.42-1.26-.33-1.66-.74-.11-.11-.2-.17,0-.34A5.72,5.72,0,0,1,210.89,31Z"/><path class="cls-3" d="M466.65,25.47a3.79,3.79,0,0,1,2.43-1,2.41,2.41,0,0,1,2.11,1.64,8.82,8.82,0,0,1,.29,1.94c-.08,1.26,0,2.54,0,3.84h-1.92c0-1.24,0-2.51,0-3.77a2.21,2.21,0,0,0-.34-1.18,1.13,1.13,0,0,0-2.1.37,4.68,4.68,0,0,0-.22,1.23c0,1.11,0,2.22,0,3.35H465c0-1.09-.06-2.2,0-3.3.14-1.94-.38-3.84-.25-5.78,0-.23-.06-.47.08-.7h1.76a6.56,6.56,0,0,1,.08,1.77C466.67,24.4,466.65,24.91,466.65,25.47Z"/><path class="cls-4" d="M253.65,25.93a3.91,3.91,0,0,1,4,3.86,4.19,4.19,0,0,1-4,3.86,3.92,3.92,0,0,1-3.91-3.89A3.8,3.8,0,0,1,253.65,25.93Z"/><path class="cls-4" d="M262.49,33.61a3.77,3.77,0,0,1-3.89-3.87,3.85,3.85,0,0,1,4-3.83,4,4,0,0,1,4,3.9C266.53,31.59,264.62,33.83,262.49,33.61Z"/><path class="cls-4" d="M370.41,32.89a3.78,3.78,0,0,1-3.92-3.84,3.87,3.87,0,0,1,3.93-3.86,4,4,0,0,1,4,3.86C374.43,30.92,372.47,33.1,370.41,32.89Z"/><path class="cls-4" d="M380,25.21c.37.08.85-.13,1.31.1a3.89,3.89,0,0,1,1.89,2,3.55,3.55,0,0,1,.06,2.79,4,4,0,0,1-1.24,1.75,3.46,3.46,0,0,1-2.4.86.89.89,0,0,0-.77.16c-.35.33-.56-.45-.95-.17a4.39,4.39,0,0,1-2.35-3.51,3.88,3.88,0,0,1,1.78-3.21A3.28,3.28,0,0,1,380,25.21Z"/><path class="cls-4" d="M410.56,32.65a3.9,3.9,0,0,1-3.79-2.84,3.48,3.48,0,0,1,.09-2.31,3.87,3.87,0,0,1,1.44-1.85,4.43,4.43,0,0,1,3.82-.45c.8.2,1.11,1.07,1.87,1.29A13.47,13.47,0,0,1,414.5,28a4.48,4.48,0,0,1-.24,2.17c-.28.41-.61.78-.92,1.17s-.67.54-.95.9-.72.34-1.12.44A2.8,2.8,0,0,1,410.56,32.65Z"/><path class="cls-4" d="M306.81,30.27h-5c.05.85.67,1.08,1.23,1.31a1.17,1.17,0,0,0,1.31-.1,1.61,1.61,0,0,1,.49-.25c.27-.09.61-.37.82.11,0,0,.07.05.08.08.12.29.59.17.62.44s-.35.62-.62.8a2.79,2.79,0,0,1-1.86.72,4,4,0,0,1-2.22-.46,4.46,4.46,0,0,1-1.81-2.37,3.51,3.51,0,0,1,.16-2.64,3.71,3.71,0,0,1,2.11-2,3.35,3.35,0,0,1,4.07,1.35A5.16,5.16,0,0,1,306.81,30.27Z"/><path class="cls-4" d="M444.74,29.29h-4.6c-.44,0-.48.09-.3.47a1.88,1.88,0,0,0,2.28.85A2.9,2.9,0,0,0,443.2,30c.37.21.53.67,1,.74.15,0,.15.26,0,.39a3.66,3.66,0,0,1-2.59,1.28,3.77,3.77,0,0,1-3.46-1.76A3.88,3.88,0,0,1,437.6,28c.44-.36,0-1,.45-1.37s.64-.71,1-1a3.33,3.33,0,0,1,5.17.88A4.6,4.6,0,0,1,444.74,29.29Z"/><path class="cls-4" d="M495.59,29.55c.36.2.52.67,1,.74.15,0,.15.25,0,.39a3.57,3.57,0,0,1-3.85,1.1,3.7,3.7,0,0,1-2.2-1.58,4,4,0,0,1-.59-2.73c.44-.36,0-1,.46-1.37s.64-.7,1-1a3.32,3.32,0,0,1,5.17.87,4.52,4.52,0,0,1,.53,2.86h-4.59c-.44,0-.49.09-.3.46a1.87,1.87,0,0,0,2.28.86A2.91,2.91,0,0,0,495.59,29.55Z"/><path class="cls-4" d="M480.14,29.07H475c.09.83.69,1.07,1.24,1.3a1.15,1.15,0,0,0,1.31-.09c.08-.08.26-.09.4-.17.34-.21.7-.37,1,.1a.69.69,0,0,0,.48.3c.24,0,.22.28,0,.45a3.72,3.72,0,0,1-2.61,1.25,3.8,3.8,0,0,1-3.43-1.8,3.6,3.6,0,0,1-.53-2.72c0-.1.23-.12.13-.26-.49-.66.09-1.07.42-1.47a4.19,4.19,0,0,1,1.31-1.12,3.35,3.35,0,0,1,4.16.82,4.45,4.45,0,0,1,.9,2.37A1.32,1.32,0,0,0,480.14,29.07Z"/><path class="cls-5" d="M321,28.79c0-.35.19-.73-.17-1a1.4,1.4,0,0,0-1-.42c-.45.06-.93-.19-1.36.21-.12.12-.46,0-.7,0s-.35-.08-.34-.34a1.81,1.81,0,0,0-.45-1,5.64,5.64,0,0,1,3.8-.56,2.11,2.11,0,0,1,1.36.72c.16.19.18.44.5.51s.27.32.34.56a8.81,8.81,0,0,1,.22,2.55v2.82h-1.8c-.24,0-.38,0-.37-.31,0-.08-.07-.25-.21-.08-.64.79-1.54.63-2.38.62a2.25,2.25,0,0,1-2-2,1.89,1.89,0,0,1,.51-1.7,2.85,2.85,0,0,1,1.94-.82,9.89,9.89,0,0,0,1.44,0C320.62,28.53,320.75,28.72,321,28.79Z"/><path class="cls-4" d="M218.19,26.41c.63,0,1.18,0,1.73,0a.62.62,0,0,1,.68.5c.41,1.35.85,2.69,1.3,4.09.14-.16.33-.28.36-.43.31-1.26.82-2.46,1.19-3.7.09-.3.09-.49.47-.47.55,0,1.1,0,1.72,0a1.39,1.39,0,0,1,0,.51c-.62,1.22-1,2.55-1.53,3.8-.42,1-.72,2-1.11,3-.27.69-.45,1.44-1.23,1.8a2.8,2.8,0,0,1-2.21,0c-.21-.08-.56.11-.62-.18a.83.83,0,0,1,.15-.88c.13-.12.08-.36.26-.5s.32-.27.5-.06.52.15.78.13.43-.38.29-.75c-.49-1.32-1.09-2.59-1.53-3.92C219.05,28.43,218.62,27.48,218.19,26.41Z"/><path class="cls-3" d="M233.33,33.58H231.4c0-1.3,0-2.57,0-3.84a2.23,2.23,0,0,0-.38-1.17,1.09,1.09,0,0,0-1.24-.47c-.46.08-.64.44-.82.85a3.07,3.07,0,0,0-.22,1.35v3.27h-1.84l0,0a.21.21,0,0,1,0-.1v-7h1.32c.54,0,.54,0,.66.71a3.69,3.69,0,0,1,2.45-1,2.32,2.32,0,0,1,2.06,2.08C233.32,30,233.33,31.75,233.33,33.58Z"/><path class="cls-3" d="M315,32.89h-1.88a11.21,11.21,0,0,1,0-1.74c0-.72,0-1.44,0-2.16a1.39,1.39,0,0,0-1.51-1.39.88.88,0,0,0-.85.68,4.45,4.45,0,0,0-.3,1.33c.07,1.15,0,2.31,0,3.49h-1.87V25.93h1.19c.63,0,.63,0,.77.75a3.55,3.55,0,0,1,3.17-1c.53,0,1.3,1,1.3,1.73C315,29.22,315,31,315,32.89Z"/><path class="cls-3" d="M331.25,32.89c-.4,0-.81,0-1.2,0s-.69,0-.62-.56c0-.19-.22-.21-.35-.14a1.36,1.36,0,0,0-.35.33,2.26,2.26,0,0,1-3.64-.72,1.57,1.57,0,0,1-.21-.63q0-.36,0-.72a12.94,12.94,0,0,0-.22-3.51,4.1,4.1,0,0,1,0-1.22h1.85c.17.28.06.65.07,1,0,1.1.29,2.16.28,3.26a1.25,1.25,0,0,0,2,1,.7.7,0,0,0,.38-.56,5,5,0,0,0,0-2.34,6.78,6.78,0,0,1-.06-2.31h1.94c-.17,2.17.41,4.3.22,6.47C331.34,32.45,331.47,32.7,331.25,32.89Z"/><path class="cls-5" d="M399.61,26.06a2.56,2.56,0,0,1-.42.9c-.32.58-.3.55-.69.42a6.89,6.89,0,0,1-.94-.32,1.52,1.52,0,0,0-.89-.15.67.67,0,0,0-.41.38c-.1.22.11.38.27.47.57.33,1.25.42,1.83.79.16.1.42.19.59.29a2,2,0,0,1,.58,2.79,2.63,2.63,0,0,1-2,1,3.81,3.81,0,0,0-.48,0,4.33,4.33,0,0,1-2.68-.78c-.41-.18-.43-.56-.14-1,.09-.13.27-.23.28-.36,0-.51.51-.35.6-.27.4.34.92.34,1.33.58a1.67,1.67,0,0,0,1,.09c.15,0,.33-.21.41-.37s-.11-.4-.27-.47a6.05,6.05,0,0,0-1.44-.56,2.62,2.62,0,0,1-1.74-1.25,1.85,1.85,0,0,1,0-1.67,2.32,2.32,0,0,1,2-1.42A4.52,4.52,0,0,1,399.61,26.06Z"/><path class="cls-5" d="M452.73,32.14c-1,.32-1.7-.41-2.54-.71-.42-.15-.47-.58-.2-1,.09-.12.3-.22.31-.34,0-.57.44-.4.66-.27.39.23.85.29,1.22.51s.62.07.91.13.46-.17.56-.35-.13-.48-.31-.56a7.24,7.24,0,0,0-1.46-.52,2.73,2.73,0,0,1-1.71-1.29,1.7,1.7,0,0,1,0-1.58,2,2,0,0,1,1.37-1.26,3.59,3.59,0,0,1,3,.25,1.11,1.11,0,0,0,.6.27.21.21,0,0,1,.22.31,13.27,13.27,0,0,1-.64,1.17c-.07.12-.14.2-.34.08a11,11,0,0,0-1.22-.53,1.23,1.23,0,0,0-.8,0,.56.56,0,0,0-.36.44.36.36,0,0,0,.25.36c.64.3,1.28.6,1.93.84a3.84,3.84,0,0,1,.49.27,1.72,1.72,0,0,1,.94,1.7,1.76,1.76,0,0,1-1,1.65A2.55,2.55,0,0,1,452.73,32.14Z"/><path class="cls-5" d="M300.09,79.93h-.94V73.08c-.77,1.15-1.44,2.14-2.12,3.12-.31.46-.64.9-1,1.35a4.6,4.6,0,0,1-1-1.31c-.69-1-1.35-2-2-3l-.11.07a.24.24,0,0,0-.05.1v6.44c-.29.22-.58,0-.82.14a68.07,68.07,0,0,1-.09-8.6c1.07-.08,1.08-.09,1.63.78.73,1.18,1.44,2.37,2.17,3.54.16.27.3.26.48,0,.8-1.27,1.61-2.54,2.45-3.79a1.06,1.06,0,0,1,1.35-.51Z"/><path class="cls-5" d="M401.77,23.32h2.16V25.2h1.65v1.63c-.48.19-1,0-1.64.12,0,.93,0,1.88,0,2.82s.28,1.18,1.12.86c.38-.13.47.1.51.2a1.26,1.26,0,0,1-1.33,1.81,3.23,3.23,0,0,1-1.27-.09,1.9,1.9,0,0,1-1.18-1.9c-.07-1.11,0-2.23,0-3.35,0-.18.06-.44-.25-.4s-.51-.08-.47-.45a7.69,7.69,0,0,0,0-1c0-.19.08-.31.27-.28.38.06.48-.1.46-.46S401.77,23.81,401.77,23.32Z"/><path class="cls-5" d="M460.68,32.16A3.62,3.62,0,0,1,457,29.53a4,4,0,0,1,2.46-4.94,3.73,3.73,0,0,1,2.81.26,4.19,4.19,0,0,1,.59.31c.63.39.68.52.18,1.1-.16.18-.34.33-.51.51s-.36.19-.48,0a1.5,1.5,0,0,0-.85-.56A1.86,1.86,0,0,0,459,27.87c0,.24,0,.48,0,.72a1.78,1.78,0,0,0,1,1.67,1.67,1.67,0,0,0,1.91-.14c.17-.09.23-.34.46-.34s.38.25.54.4c.9.86.91.91-.16,1.49A2.77,2.77,0,0,1,460.68,32.16Z"/><path class="cls-4" d="M180.94,76.2c.27.43.77.5,1.09.86.88,1,.85,2-.31,2.94a2.76,2.76,0,0,1-1.88.67c-1.35,0-2.71,0-4.08,0-.21-.28-.1-.61-.1-.91,0-2.35,0-4.71,0-7.06,0-.66,0-.67.71-.67,1.2,0,2.4,0,3.6,0a2.61,2.61,0,0,1,2.11,1.49,2.42,2.42,0,0,1-.72,2.52A1.73,1.73,0,0,1,180.94,76.2Z"/><path class="cls-5" d="M288.43,23.58c.14,0,.16.11.25.15.34.18.34.6.59.84s.05.28-.08.41-.5.52-.77.76a4.93,4.93,0,0,0-.77,6.26,8,8,0,0,0,1.4,1.46c.28.27.35.45.05.78a3.71,3.71,0,0,0-.27.47c-.21.35-.44.3-.73.11A7.7,7.7,0,0,1,285.33,32a11.72,11.72,0,0,1-.5-1.84,2.88,2.88,0,0,1,.1-1.93c.21-.54.24-1.14.51-1.71a6.08,6.08,0,0,1,2.81-2.75A1,1,0,0,0,288.43,23.58Z"/><path class="cls-5" d="M505.11,27.84a4.57,4.57,0,0,0-2.36-4.15c-.17-.1-.39-.24-.08-.51s.46-1,.85-1a2.55,2.55,0,0,1,1.32.77,5.78,5.78,0,0,1,2.22,3.88c0,.55.39,1.18.13,1.66s.07,1.11-.41,1.52a5.29,5.29,0,0,1-2.12,2.9c-.35.27-.78.69-1.13.66s-.52-.72-.86-1-.1-.42.08-.51a4.31,4.31,0,0,0,1.94-2.18A4,4,0,0,0,505.11,27.84Z"/><path class="cls-6" d="M175.46,44.9h4.11a2.48,2.48,0,0,1,2.34,1.56,2.43,2.43,0,0,1-2,3.56l2.57,3.44c-.77.12-1.31.22-1.71-.6a4.51,4.51,0,0,0-1-1.29,7.76,7.76,0,0,1-.95-1.39h-2.48v3.34h-.93Z"/><path class="cls-7" d="M322.4,74.21c.14-.75.14-.75,1.28-.67,0,1.63.07,3.27,0,4.89a3,3,0,0,1-2.1,3c-.06,0-.11.16-.17.16a6.8,6.8,0,0,1-3.62-.51c-.21-.12-.35-.25-.14-.61s.24-.37.56-.18a6,6,0,0,0,2.27.58,2.41,2.41,0,0,0,1.8-.86c.07-.09.22-.2.2-.27-.13-.59.26-1.11.28-1.71-.33,0-.42.27-.58.41a3,3,0,0,1-3.78.19,3.07,3.07,0,0,1-1.21-2.26,2.7,2.7,0,0,1,.75-2.21,3,3,0,0,1,1.8-1A3.83,3.83,0,0,1,322.4,74.21Z"/><path class="cls-7" d="M308.24,105.14c-1.64,1.61-3.15,1.66-4.7.39a3.1,3.1,0,0,1,1.95-5.2,4.2,4.2,0,0,1,2.47,1c.18-.17,0-.4.11-.57s.12-.17,1.19-.1c0,1.7.07,3.41,0,5.11a3.17,3.17,0,0,1-.55,1.8,3.6,3.6,0,0,1-1.58,1.1c-.06,0-.12.11-.19.11a6.9,6.9,0,0,1-3.51-.48c-.31-.16-.35-.36-.16-.71s.28-.34.4-.2a3,3,0,0,0,1.67.62,2.42,2.42,0,0,0,2.6-.86c.05-.06.16-.14.15-.17C307.84,106.34,308.46,105.8,308.24,105.14Z"/><path class="cls-7" d="M253,61c.14-.74.14-.74.66-.74.19,0,.38,0,.62,0,0,1.7.07,3.33,0,4.95a3,3,0,0,1-2.09,3c-.07,0-.12.15-.17.15a6.93,6.93,0,0,1-3.63-.5c-.21-.13-.34-.25-.13-.62s.23-.37.55-.17a5.75,5.75,0,0,0,2.28.57,2.37,2.37,0,0,0,1.8-.86c.07-.09.22-.2.2-.27-.16-.59.29-1.1.25-1.71-.31,0-.4.28-.56.41a3,3,0,0,1-3.78.19,3.06,3.06,0,0,1-1.2-2.26,2.62,2.62,0,0,1,.75-2.2,3,3,0,0,1,1.79-1A3.82,3.82,0,0,1,253,61Z"/><path class="cls-7" d="M335.12,104.89c-1.5,1.6-3.16,1.69-4.69.38a3.17,3.17,0,0,1-.37-3.72,3.47,3.47,0,0,1,2.26-1.45c1.06-.16,1.77.5,2.58,1,.13-.71.13-.71,1.27-.63,0,1.66.09,3.34,0,5a2.89,2.89,0,0,1-2.07,2.92c-.07,0-.11.16-.17.16a6.78,6.78,0,0,1-3.62-.49c-.2-.11-.37-.23-.16-.61s.22-.38.55-.19a6,6,0,0,0,2.28.58,2.48,2.48,0,0,0,1.72-.76c.19-.22.39-.42.29-.72C334.81,105.84,335.4,105.49,335.12,104.89Z"/><path class="cls-7" d="M325.26,91.46c-1.52,1.61-3.18,1.65-4.69.36a3.17,3.17,0,0,1-.28-3.81,3,3,0,0,1,2.19-1.33c.93,0,.93,0,2.49.93.39-.09-.11-.66.37-.69.31,0,.62,0,1,0,0,1.7,0,3.33,0,5a6.13,6.13,0,0,1-1,2.59c-.3.29-.79.27-1.07.6a7,7,0,0,1-3.63-.49c-.37-.18-.26-.41-.12-.72s.24-.27.43-.16.56.43.9.41.86.3,1.35.27a2.09,2.09,0,0,0,1.34-.54,1.21,1.21,0,0,0,.56-1.21C325,92.26,325.55,92,325.26,91.46Z"/><path class="cls-8" d="M378.63,87.44c.15-.18.29-.36.45-.53a2.18,2.18,0,0,1,1.38-.73,4.08,4.08,0,0,1,2,.5c.05.47.63.64.62,1.18,0,1.59,0,3.18,0,4.79h-1c0-1.39,0-2.78,0-4.16a1.52,1.52,0,0,0-2.88-.75,2.73,2.73,0,0,0-.48,1.72c0,1,0,2.08,0,3.09-.13.18-.3.12-.45.13h-.52c0-1.45,0-2.84,0-4.23a1.53,1.53,0,0,0-1.95-1.51,1.27,1.27,0,0,0-1,.83,5.41,5.41,0,0,0-.42,1.73c0,1,0,2.07,0,3.07-.3.2-.58,0-.91.16V86.51c.86-.06.86-.06,1,.6.22,0,.27-.22.42-.32a2.54,2.54,0,0,1,2-.6,2.71,2.71,0,0,1,1.42.94Z"/><path class="cls-7" d="M349.29,64.13c-.37.24-.67.58-1.06.82a3.24,3.24,0,0,1-2.14.34,2.74,2.74,0,0,1-1.53-.9,2.38,2.38,0,0,1-.71-1.61,3.1,3.1,0,0,1,.72-2.47,3.9,3.9,0,0,1,1.89-1,3.37,3.37,0,0,1,2.42.84c.17.1.3.15.26-.09-.08-.48.15-.55.54-.5.2,0,.39,0,.67,0,0,1.75,0,3.46,0,5.16a6,6,0,0,1-.47,1.84c-.27.72-1.08.77-1.62,1.17a6.94,6.94,0,0,1-3.52-.49c-.3-.15-.35-.34-.16-.7s.25-.27.5-.15a5.37,5.37,0,0,0,2.39.62,2.08,2.08,0,0,0,1.25-.44,1.22,1.22,0,0,0,.44-1.23C349.05,64.89,349.68,64.58,349.29,64.13Z"/><path class="cls-8" d="M281.15,93.38h-.93V87.27c.87-.13.87-.13.95.55.35.05.53-.31.69-.45a2.31,2.31,0,0,1,1.74-.46c.62,0,1,.43,1.35.81.11.11.23.22.4.4.17-.18.36-.35.53-.54,1-1,2.18-.78,3.35-.15.07.49.62.73.59,1.33-.07,1.51,0,3,0,4.56a1.6,1.6,0,0,1-1,0c0-1.36,0-2.72,0-4.07a1.52,1.52,0,0,0-2.36-1.41,1,1,0,0,0-.53.53,4.27,4.27,0,0,0-.48,1.85c0,1,0,2.06,0,3.07a1.91,1.91,0,0,1-1,.07v-4a2.58,2.58,0,0,0-.19-.88,1.32,1.32,0,0,0-1.35-.82,1.23,1.23,0,0,0-1.36.78,4.22,4.22,0,0,0-.47,1.73C281.16,91.2,281.15,92.24,281.15,93.38Z"/><path class="cls-8" d="M191.13,88.62c1.58-1.53,2.9-1.26,4.18.31a6.89,6.89,0,0,1,.49-.65,2.26,2.26,0,0,1,2.64-.42c.16.06.42.47.64,0,.11.07.08.24.13.28a1.64,1.64,0,0,1,.48,1.49c0,1.39,0,2.78,0,4.2h-1c0-1.3,0-2.61,0-3.91a1.47,1.47,0,0,0-1.78-1.56,1.23,1.23,0,0,0-1.13.78,4.71,4.71,0,0,0-.45,1.73c0,1,0,2.08,0,3.13a1.41,1.41,0,0,1-1,0c0-1.39,0-2.78,0-4.17a1.51,1.51,0,0,0-1.93-1.51,1.22,1.22,0,0,0-1,.8,5,5,0,0,0-.44,1.74c0,1,0,2.07,0,3.09-.28.19-.56.06-.83.1,0-.06-.12-.12-.12-.18,0-1.84,0-3.68,0-5.51,0-.24-.15-.58.35-.56s.52,0,.61.55C191,88.46,191.07,88.49,191.13,88.62Z"/><path class="cls-8" d="M346.39,101.08c1.54-1.51,2.9-1.22,4.08.25a3.41,3.41,0,0,1,.38-.38c.37-.28.55-.76,1.1-.84a3,3,0,0,1,2.16.56,1.65,1.65,0,0,1,.83,1.57c-.09,1.43,0,2.86,0,4.27a1.94,1.94,0,0,1-1,.08c0-1.34,0-2.69,0-4a2.35,2.35,0,0,0-.18-.88,1.35,1.35,0,0,0-1.35-.83,1.22,1.22,0,0,0-1.36.78,4.22,4.22,0,0,0-.47,1.73c0,1,0,2.07,0,3.13-.27.21-.58.1-1,.08,0-1.39,0-2.78,0-4.17a1.53,1.53,0,0,0-1.92-1.53,1.25,1.25,0,0,0-1,.79,3.6,3.6,0,0,0-.44,1.73c0,1,0,2,0,3,0,0,0,.08,0,.11-.29.24-.6,0-.92.14v-6.18C346.18,100.36,346.18,100.36,346.39,101.08Z"/><path class="cls-8" d="M227.72,88.64l.45-.53a2.18,2.18,0,0,1,1.39-.73,4.14,4.14,0,0,1,2,.5c0,.47.63.64.62,1.18,0,1.51,0,3,0,4.55h-1c0-1.31,0-2.62,0-3.92a1.53,1.53,0,0,0-2.89-.75,2.75,2.75,0,0,0-.48,1.72v3.13a1.43,1.43,0,0,1-1,0c0-1.39,0-2.78,0-4.18a1.53,1.53,0,0,0-2-1.5,1.26,1.26,0,0,0-1,.83,5.17,5.17,0,0,0-.43,1.74c0,1,0,2,0,3,0,0,0,.07,0,.11-.26.14-.54,0-.86.06V87.71c.85-.06.85-.06,1,.6.22,0,.28-.22.42-.32a2.56,2.56,0,0,1,2-.6,2.68,2.68,0,0,1,1.41.94Z"/><path class="cls-9" d="M219.59,80.43h-.5c-.61,0-.61,0-.75-.69a3.56,3.56,0,0,1-2.11.94,2.94,2.94,0,0,1-2.32-1.05,3.63,3.63,0,0,1,0-4.63,2.82,2.82,0,0,1,4.17-.31c.09.06.16.14.3.26v-3.3a2.91,2.91,0,0,1,1.21-.09Z"/><path class="cls-9" d="M283,80h-.51c-.59,0-.59,0-.75-.69a3.69,3.69,0,0,1-2,.94,2.9,2.9,0,0,1-2.52-1.15,3.6,3.6,0,0,1,.1-4.53,2.8,2.8,0,0,1,4.08-.38c.11.07.14.26.38.26V71.16a3.09,3.09,0,0,1,1.21-.08Z"/><path class="cls-9" d="M484.9,86.53V83.12h1.19v8.75c-.21.17-.46,0-.68.09-.61.14-.52-.29-.46-.83a3.75,3.75,0,0,1-1.69,1,3.12,3.12,0,0,1-3.19-1.52,3.55,3.55,0,0,1,.14-3.89C481.18,85.38,483,84.77,484.9,86.53Z"/><path class="cls-10" d="M202.75,106.84a3.62,3.62,0,0,1-2.08,1,2.9,2.9,0,0,1-2.49-1.18,3.6,3.6,0,0,1,.07-4.44,2.83,2.83,0,0,1,4.16-.43c.11.08.19.2.31.31.37-1.17-.29-2.22-.13-3.34h1.1c.52,2.93.26,5.84.32,8.72-.21.2-.41.11-.6.11C202.86,107.56,202.86,107.55,202.75,106.84Z"/><path class="cls-11" d="M458.75,86.57V83.34h1.17v2.84c0,1.24,0,2.47,0,3.71a2.67,2.67,0,0,0,.22,1.59.77.77,0,0,1-.08.72h-.44c-.61,0-.61,0-.75-.69a3.82,3.82,0,0,1-2.22.95,2.75,2.75,0,0,1-1.86-.73,3.59,3.59,0,0,1-1.32-3.6A3,3,0,0,1,457.61,86,6.61,6.61,0,0,1,458.75,86.57Z"/><path class="cls-9" d="M269.87,87.78V84.55H271V93.4h-.58c-.51,0-.51,0-.64-.7a3.5,3.5,0,0,1-2.45,1,3.39,3.39,0,0,1-2.07-1.11,2.52,2.52,0,0,1-.72-1.74,3.86,3.86,0,0,1,1.7-3.5,2,2,0,0,1,2.17-.24A5.09,5.09,0,0,1,269.87,87.78Z"/><path class="cls-8" d="M399.19,99.88c.4,0,.89-.17,1.06.1a5.15,5.15,0,0,1,.33.94c.4,1.26.83,2.52,1.29,3.93.5-1.57.93-3,1.39-4.4.17-.53.33-.6.82-.58.25,0,.26.14.36.33.42.84.57,1.76.93,2.61.24.58.37,1.21.57,1.86a9.11,9.11,0,0,0,.68-1.79c.33-.87.63-1.74.9-2.63.09-.29.14-.39.43-.37s.47,0,.79,0c-.42.76-.51,1.55-.89,2.27a9.34,9.34,0,0,0-.74,2.2c-.13.56-.59,1-.55,1.59,0,.29-.29.16-.47.18a.54.54,0,0,1-.69-.45c-.06-.58-.4-1-.51-1.6-.17-.79-.6-1.52-.72-2.34a.21.21,0,0,0-.25-.17c-.15,0-.19.08-.23.21a25.07,25.07,0,0,1-1.42,4.09c-.11.24-.22.24-.41.27-.38.07-.55-.08-.65-.44a9.79,9.79,0,0,0-.4-1.15C400.23,103,399.68,101.51,399.19,99.88Z"/><path class="cls-8" d="M443,86h1c.19,0,.25.08.3.27a3.43,3.43,0,0,0,.94,2,13.85,13.85,0,0,0,.46,1.59c.06.37.34.59.38,1a16.56,16.56,0,0,1,.71-2.19c.16-.34-.44-.73.14-.94-.17-.39.31-.62.24-1s.21-.37.27-.61.8-.25.92,0,.31.91.5,1.35a6.47,6.47,0,0,0,.64,1.43,3.84,3.84,0,0,1,.64,1.78c.21-.6.84-1.08.44-1.82a16.3,16.3,0,0,0,.91-2.74c.05-.22.18-.21.33-.21h.88c-.39,1-.71,2-1.16,2.91-.16.33.46.62-.05.86.16.35-.25.55-.23.86s-.41.72-.47,1.12,0,.52-.44.5-.68-.07-.78-.52a7.91,7.91,0,0,0-.36-1.17c-.33-.78-.37-1.69-1.07-2.32-.13-.12.15-.53-.22-.55s-.13.48-.31.6c-.4.28.29.55,0,.76s0,.74-.42.91c.11.34-.19.57-.22.86s-.33.68-.44,1a.48.48,0,0,1-.55.41c-.34,0-.43-.14-.54-.42-.2-.48-.34-1-.5-1.47a17.16,17.16,0,0,1-.86-2.4c-.05-.28-.21-.23-.38-.31s-.06-.37-.12-.54-.3-.26-.24-.5S443.25,86.21,443,86Z"/><path class="cls-8" d="M501,31.67h-2.08v-9.8c.65-.05,1.35,0,2.08,0Z"/><path class="cls-12" d="M406.38,83.58h.91v3.6c.48-.27.74-.64,1.16-.84a2.84,2.84,0,0,1,4,1.21,3.94,3.94,0,0,1,.36,2.71,2.72,2.72,0,0,1-1,1.71,3.27,3.27,0,0,1-3.21.48c-.48-.22-.69-.71-1.14-.94-.22.26,0,.62-.18.91h-.83Z"/><path class="cls-12" d="M355,84.06h.93v3.61c.47-.29.73-.65,1.15-.86A2.86,2.86,0,0,1,361,88a4,4,0,0,1,.35,2.71,2.77,2.77,0,0,1-1.05,1.71,3.28,3.28,0,0,1-3.21.47c-.48-.22-.68-.73-1.14-.94-.17.25,0,.54-.08.81-.27.28-.6,0-.93.17Z"/><path class="cls-12" d="M495.54,90.93c-.08,1-.08,1-1,1V83.14c.26-.18.56,0,.89-.1v3.61a3.64,3.64,0,0,0,1.1-.76c1.63-1.14,3.77.13,4.27,1.5a3.47,3.47,0,0,1-.46,3.38,5.41,5.41,0,0,1-1.1,1.09,2.69,2.69,0,0,1-2.91-.09Z"/><path class="cls-7" d="M232.88,75.16a4.49,4.49,0,0,1,2.86-1.35c.07,0,.11-.09.18,0,.57.43,1.39.49,1.8,1.12a3.46,3.46,0,0,1,.68,2,3.39,3.39,0,0,1-1,2.71,3,3,0,0,1-2,.85,2.17,2.17,0,0,1-2.33-1c-.32.3,0,.65-.23,1H232s-.09-.11-.09-.17c0-1.4,0-2.8,0-4.2a9.56,9.56,0,0,0-.2-3.15,4,4,0,0,1,0-1.3l.42,0c.35,0,.64,0,.55.48C232.45,73.09,233.05,74.07,232.88,75.16Z"/><path class="cls-12" d="M334.28,86.7h.94v1c.46-.21.59-.74,1.09-.75a2.74,2.74,0,0,1,3.76.68,3.65,3.65,0,0,1-.11,4.54,2.82,2.82,0,0,1-4.25.21c-.14-.11-.25-.25-.46-.46v2.82c-.32.31-.64,0-1,.2Z"/><path class="cls-12" d="M202.82,92.81v2.91a1.62,1.62,0,0,1-.95,0v-8a1.51,1.51,0,0,1,.92,0l0,.79c.08.14.11.12.19,0a3.15,3.15,0,0,1,2.29-1.13,2.88,2.88,0,0,1,2.46,1.27,3.63,3.63,0,0,1-.22,4.44,2.81,2.81,0,0,1-4.25.17A6,6,0,0,1,202.82,92.81Z"/><path class="cls-8" d="M180.6,87.14A3.55,3.55,0,0,0,178,86.2a2.21,2.21,0,0,0-1.58,1.08c-.31.41.23,1.38.8,1.56.82.24,1.66.43,2.46.73s1.63.72,1.76,1.76c.61.49,0,1-.06,1.47a1.92,1.92,0,0,1-.9,1.11,4.43,4.43,0,0,1-2.82.43,2.85,2.85,0,0,1-1.95-.79.71.71,0,0,0-.41-.17.22.22,0,0,1-.1-.3,2,2,0,0,1,.49-.52c.29-.2.34.18.5.28a5,5,0,0,0,2.43.82,3.42,3.42,0,0,0,1.21-.3c.68-.18.86-1.41.44-2a2.19,2.19,0,0,0-1.46-.81c-.44-.08-.89-.21-1.33-.31A2.34,2.34,0,0,1,175.65,87a2.66,2.66,0,0,1,2.41-1.48,4.51,4.51,0,0,1,2.57.46c.68.43.72.41.21,1Z"/><path class="cls-6" d="M255.18,93.6c.83-1.83,1.63-3.61,2.44-5.38.43-.94.89-1.87,1.36-2.8a.67.67,0,0,1,1.21-.1,3.91,3.91,0,0,1,.48,1,9,9,0,0,0,.76,1.73c.74,1.65,1.45,3.32,2.18,5,.07.17.31.26.23.51-1,.16-.93.14-1.32-.58-.13-.23-.06-.45-.15-.66-.43-1-.43-1-1.57-1s-2.16,0-3.24,0c-.38,0-.4.21-.52.45-.23.42-.35.89-.55,1.33C256.22,93.61,255.86,93.71,255.18,93.6Z"/><path class="cls-4" d="M213.66,58.1h5.8c.18,0,.42-.06.41.25s.07.49-.33.47c-.68,0-1.36,0-2,0h-2.89V62c1.47,0,2.94,0,4.41,0,.35,0,.38.15.38.43s-.16.3-.38.3c-1,0-1.92,0-2.88,0h-1.5V66c1.63,0,3.27,0,4.9,0,.4,0,.32.24.33.47s-.23.26-.41.26h-5.8Z"/><path class="cls-4" d="M176.66,66.27h4.83c.28,0,.47,0,.42.38,0,.16,0,.33-.21.35h-6c0-1.45-.08-2.84,0-4.23s-.44-2.87-.22-4.42h5.83c.35,0,.38.14.38.42s-.14.31-.37.31h-4.84c-.38,1,.36,2,.13,3.13,1.56,0,3,0,4.51,0,.4,0,.32.24.32.47s-.23.25-.41.25h-4.35Z"/><path class="cls-4" d="M386.88,32.39H385V25.27c.57-.16,1.19,0,1.89-.1v1.3c.35-.44.52-.65.68-.87a1.47,1.47,0,0,1,1.68-.58v1.84c-.44-.11-.82.19-1.24.31a1.31,1.31,0,0,0-.85,1.26c0,.43-.35.69-.29,1.1a8,8,0,0,1,0,1.2Z"/><path class="cls-4" d="M248.71,26c0,.22,0,.41,0,.61,0,.39.11.88-.08,1.15s-.67.24-1,.34c-.68.2-.84.79-1.05,1.36a6.78,6.78,0,0,0-.24,2.41v1.47c-.61.13-1.27-.14-1.86.44V26.41h1.27c.54,0,.54,0,.67.77a7.39,7.39,0,0,0,.56-.58A1.51,1.51,0,0,1,248.71,26Z"/><path class="cls-12" d="M422,106.07c-.91,0-.91,0-1-.67a3.3,3.3,0,0,1-2.69,1,2.79,2.79,0,0,1-2-1.62c-.14-.5.21-.88.29-1.33s.48-.52.83-.72a2.44,2.44,0,0,1,1.63-.41c.56.07,1.17-.21,1.71.21.16.13.38,0,.36-.27a1.89,1.89,0,0,0-2.57-1.78,4.73,4.73,0,0,1-.89.15c-.53.1-.58.09-.62-.32,0-.19,0-.32.26-.42a7.45,7.45,0,0,1,2.78-.2,1.66,1.66,0,0,1,1.14.69c.27.32.75.51.62,1.06-.08.33.27.51.26.86C421.93,103.53,422,104.8,422,106.07Z"/><path class="cls-12" d="M512.55,91.67c-.91,0-.91,0-1-.65a3.49,3.49,0,0,1-2.7,1,2.79,2.79,0,0,1-2-1.64c-.15-.51.22-.88.28-1.34.05-.3.44-.58.85-.7s.62-.46,1-.41c.73.08,1.5-.2,2.2.17a.37.37,0,0,0,.33,0c.17-.08.14-.27.11-.42a1.83,1.83,0,0,0-2.66-1.55c-.33.11-.68-.07-1,.21s-.37-.16-.4-.37-.12-.41.15-.49a5.32,5.32,0,0,1,3.1-.15,1.86,1.86,0,0,1,1.54,1.81,2.46,2.46,0,0,1,.24,1.58C512.56,89.67,512.55,90.63,512.55,91.67Z"/><path class="cls-12" d="M390.28,106.34c-.95,0-.95,0-1-.72-.22.19-.4.46-.59.48s-.4.2-.61.28a2.52,2.52,0,0,1-3.13-.66c-.25-.33-.56-.7-.42-1.13s.14-1.09.65-1.4a2.73,2.73,0,0,1,1.88-.67c.64.11,1.32-.23,2,.23.18.13.37-.1.3-.33-.17-.58-.24-1.25-.83-1.56a1.79,1.79,0,0,0-1.76-.14c-.36.22-.78-.08-1.1.29-.08.09-.37-.18-.38-.42s-.1-.38.19-.48a9.9,9.9,0,0,1,3-.23c.66.5,1.39.81,1.63,1.81C390.4,103.22,390.09,104.74,390.28,106.34Z"/><path class="cls-12" d="M361.09,105.83a3.34,3.34,0,0,1-3,1,2.68,2.68,0,0,1-1.7-1.71,2.13,2.13,0,0,1,1.1-1.93,2.23,2.23,0,0,1,1.62-.43c.57.07,1.19-.23,1.72.21a.21.21,0,0,0,.31,0c0-.09.06-.28,0-.31-.37-.24-.35-.66-.52-1a1.85,1.85,0,0,0-2.25-.68c-.37.17-.77,0-1.1.28-.15.14-.37-.16-.4-.38s-.12-.4.17-.49a9.6,9.6,0,0,1,3-.24c.67.49,1.57.77,1.6,1.82,0,0,0,.09,0,.11.76,1,.39,2.26.47,3.41,0,.35,0,.71,0,1.06C361.22,106.6,361.22,106.6,361.09,105.83Z"/><path class="cls-12" d="M307.59,79.64c-.92.06-.92.06-1-.65a3.35,3.35,0,0,1-2.69,1,2.81,2.81,0,0,1-2.05-1.62c-.15-.51.22-.89.29-1.34s.43-.59.85-.72.62-.45,1-.4c.73.08,1.49-.19,2.21.15.34.16.46.06.44-.24a1.87,1.87,0,0,0-2.6-1.72c-.36.14-.78-.08-1.08.29-.11.14-.22-.13-.32-.22a.24.24,0,0,1,0-.4,1.79,1.79,0,0,1,1.11-.51c.56,0,1.13,0,1.69,0A2.58,2.58,0,0,1,307.35,75C307.79,76.52,307.46,78.09,307.59,79.64Z"/><path class="cls-12" d="M245.34,80.12c-.9.06-.9.06-1-.64a3.5,3.5,0,0,1-2.69,1,2.76,2.76,0,0,1-2.05-1.61c-.15-.51.2-.9.28-1.34s.48-.53.83-.73a2.53,2.53,0,0,1,1.64-.4c.56.07,1.18-.22,1.71.22a.22.22,0,0,0,.31-.07c0-.07.07-.19,0-.22a3.86,3.86,0,0,1-.57-1.08,1.81,1.81,0,0,0-2.25-.66c-.37.17-.78-.07-1.1.28-.09.1-.37-.17-.39-.41s-.1-.38.19-.48a10,10,0,0,1,3-.23c.64.51,1.57.77,1.58,1.83,0,0,0,.09,0,.12.76,1,.41,2.1.48,3.16C245.36,79.25,245.34,79.69,245.34,80.12Z"/><path class="cls-12" d="M304.7,93.09c-.91,0-.91,0-1.05-.67a3.28,3.28,0,0,1-2.81,1,2.79,2.79,0,0,1-1.92-1.62c-.16-.51.24-.88.29-1.34,0-.26.44-.47.74-.67a4.23,4.23,0,0,1,3.26-.33c.36.06.3,0,.28-.21A2,2,0,0,0,301,87.4c-.29.48-.91,0-1.27.46-.12.15-.29-.09-.3-.33,0-.61.56-.75.84-.8a5,5,0,0,1,2.37,0c.74.26,1.6.72,1.6,1.78C304.89,90,304.65,91.55,304.7,93.09Z"/><path class="cls-12" d="M252.34,80.2c-.94,0-.94,0-1.05-.72a3.54,3.54,0,0,1-2.81,1,2.28,2.28,0,0,1-1.86-1.52,2.2,2.2,0,0,1,2.18-2.57c.68.08,1.4-.19,2.07.23.17.11.25-.12.24-.29a1.87,1.87,0,0,0-2.58-1.75c-.36.13-.76,0-1.09.28-.16.14-.37-.17-.4-.38s-.12-.4.16-.49a9.6,9.6,0,0,1,3-.24c.68.48,1.46.79,1.65,1.8a14.48,14.48,0,0,0,.24,1.94A13,13,0,0,1,252.34,80.2Z"/><path class="cls-12" d="M204.27,80.36c-.93.06-.93.06-1.05-.63a3.35,3.35,0,0,1-2.33.94c-1,.64-1.5-.14-2-.72a1.06,1.06,0,0,1-.38-1c.14-.42.09-.92.46-1.25a2.88,2.88,0,0,1,1.81-.85,1.47,1.47,0,0,0,1-.21c.2-.15.62-.07.93,0s.3.33.49.17a.44.44,0,0,0,0-.63,1,1,0,0,1-.16-.41A1,1,0,0,0,202,74.9a6.9,6.9,0,0,0-2.26.36c-.37.09-.45-.12-.5-.36s-.07-.41.31-.49a5.7,5.7,0,0,1,1.59-.22,4.33,4.33,0,0,0,.72,0c.55-.06,1.07-.06,1.19.1.33.46.87.7,1,1.38C204.42,77.24,204.13,78.8,204.27,80.36Z"/><path class="cls-12" d="M434.45,92.16c-.91,0-.91,0-1-.61-.3-.09-.35.23-.5.34s-.53,0-.46.39c0,.1-.15.12-.25.17a2.63,2.63,0,0,1-3.55-1.31,1.91,1.91,0,0,1,.39-1.6,2.16,2.16,0,0,1,1.75-.91,4.62,4.62,0,0,1,2.21.12c.23.11.47-.27.4-.36-.25-.35-.1-.84-.47-1.14a2.11,2.11,0,0,0-1.08-.57,4.44,4.44,0,0,0-2,.36.34.34,0,0,1-.48-.26c0-.18-.18-.47.18-.59a6.42,6.42,0,0,1,3-.19,2.56,2.56,0,0,1,1.47,1,2.79,2.79,0,0,1,.35,1.51C434.49,89.69,434.45,90.89,434.45,92.16Z"/><path class="cls-10" d="M515.19,89c1-1,2-1.94,2.88-2.9a1.46,1.46,0,0,1,1.72-.49l-2.2,2.19c-.23.22-.2.36-.08.68a5.26,5.26,0,0,0,.93,1.28,6.39,6.39,0,0,0,1.61,1.89c-1,.34-1.49-.12-2-.81a12.32,12.32,0,0,0-1.56-2,11.54,11.54,0,0,0-1.2,1.23c-.33.46,0,1.07-.17,1.62h-.86V82.92c.22-.18.53-.07.91-.06Z"/><path class="cls-13" d="M226.48,79l.58.57a1.1,1.1,0,0,1-.2.23,3.26,3.26,0,0,1-5.57-2.41,3.69,3.69,0,0,1,1.14-2.77,2.52,2.52,0,0,1,2.68-.57c1.48.39,2.25,1.7,2.15,3.5h-4.52c-.43,0-.61.2-.46.55.24.56.38,1.23,1,1.5a2.58,2.58,0,0,0,1.52.36A6.3,6.3,0,0,0,226.48,79Z"/><path class="cls-13" d="M293.35,63.39c-1.59,0-3.11,0-4.63,0-.35,0-.42.16-.36.42a2.24,2.24,0,0,0,2.5,2,4.64,4.64,0,0,0,1.68-.93l.47.62c.15,0,.11,0,0,.08a3.28,3.28,0,0,1-5.68-2.43,3.57,3.57,0,0,1,1.13-2.65,2.68,2.68,0,0,1,2.78-.55,2.35,2.35,0,0,1,1.54,1.14A3,3,0,0,1,293.35,63.39Z"/><path class="cls-13" d="M300.58,63.42h-5c.09,1.66.82,2.24,2.32,2.37.57,0,.94-.43,1.44-.58.16,0,.35-.36.41-.33a2.37,2.37,0,0,1,.55.51,2.15,2.15,0,0,1-1.59,1.06,3.35,3.35,0,0,1-3.81-1.65A3.67,3.67,0,0,1,296.24,60a2.53,2.53,0,0,1,2.23-.11C299.92,60.43,300.63,61.55,300.58,63.42Z"/><path class="cls-13" d="M365.47,76.61h-5a2.12,2.12,0,0,0,2.4,2.37,2.16,2.16,0,0,0,1.39-.65c.35-.33.48-.22.7,0a1.69,1.69,0,0,0,.26.22,3.22,3.22,0,0,1-3.4,1.07,3,3,0,0,1-2.37-3,3.79,3.79,0,0,1,.44-2.21c1.11-1.76,2.23-1.73,4-1.28.38.43.89.71,1.14,1.3A3.61,3.61,0,0,1,365.47,76.61Z"/><path class="cls-13" d="M189.77,77.79H185.2c-.36,0-.49.16-.41.49a2.32,2.32,0,0,0,1.75,1.87c.83.24,1.46-.24,2.12-.59.13-.07.21-.23.32-.34l.61.61a3.49,3.49,0,0,1-3.38,1.07,3.19,3.19,0,0,1-2.38-2.84,3.9,3.9,0,0,1,.38-2.24c1.12-1.83,2.19-2,4-1.35a2.37,2.37,0,0,1,1.37,1.64A2.67,2.67,0,0,1,189.77,77.79Z"/><path class="cls-13" d="M490.59,102.76h-4.52c-.38,0-.59.26-.42.59.3.63.52,1.28,1.32,1.6,1.2.49,2-.06,2.9-.73l.55.59c-.9,1.13-2.17,1.15-3.46,1.07-.55-.4-1.3-.55-1.66-1.18a3.73,3.73,0,0,1-.65-1.9,3.86,3.86,0,0,1,1.08-2.92,2.59,2.59,0,0,1,2.77-.59,1.58,1.58,0,0,1,1,.47c.31.4.8.71.89,1.19S490.92,102.09,490.59,102.76Z"/><path class="cls-13" d="M343.86,103.75h-5c.07,1.65.8,2.24,2.31,2.37a2,2,0,0,0,1.5-.67c.38-.35.49-.15.7.08l.22.23a3.38,3.38,0,0,1-3.38,1.06,3.16,3.16,0,0,1-2.36-3,3.54,3.54,0,0,1,.45-2.21,3.37,3.37,0,0,1,1.57-1.45,3,3,0,0,1,2.37.22,3.28,3.28,0,0,1,1.61,2.64C343.88,103.23,343.86,103.43,343.86,103.75Z"/><path class="cls-13" d="M239.75,90.76h-4.57c-.36,0-.49.17-.41.5a2.35,2.35,0,0,0,1.76,1.86,2.67,2.67,0,0,0,2-.52c.52-.27.5-.31.93.12l.08.07a3.19,3.19,0,0,1-3.37,1,3,3,0,0,1-2.39-2.94,3.73,3.73,0,0,1,.45-2.21c1.09-1.76,2.26-1.82,3.93-1.24a2.37,2.37,0,0,1,1.37,1.64A2.67,2.67,0,0,1,239.75,90.76Z"/><path class="cls-13" d="M278.67,90.52h-4.54c-.38,0-.59.25-.42.59.3.63.52,1.27,1.31,1.6,1.21.49,2-.06,2.91-.73l.54.58c-.89,1.14-2.16,1.15-3.45,1.08-.55-.41-1.3-.56-1.66-1.19a3.72,3.72,0,0,1-.65-1.89,3.85,3.85,0,0,1,1.08-2.92,2.77,2.77,0,0,1,2.78-.62,2.39,2.39,0,0,1,1.63,1.21A2.87,2.87,0,0,1,278.67,90.52Z"/><path class="cls-13" d="M525.91,90.3l.51.51c.08.06,0,.1,0,.17a3.36,3.36,0,0,1-4.91-.08,2.75,2.75,0,0,1-.77-2,3.93,3.93,0,0,1,.46-2.21,3.38,3.38,0,0,1,1.58-1.45,3,3,0,0,1,2.37.22,3.33,3.33,0,0,1,1.6,2.65c0,.19,0,.39,0,.66h-5.06A2.34,2.34,0,0,0,522.84,91C523.83,91.51,524.74,91.27,525.91,90.3Z"/><path class="cls-13" d="M389.87,91.23l.57.57s0,.12-.08.16a3.28,3.28,0,0,1-5.67-2.43A3.54,3.54,0,0,1,385.74,87a2.68,2.68,0,0,1,2.86-.63,2.46,2.46,0,0,1,1.55,1.14,3,3,0,0,1,.52,2.33h-4.52c-.44,0-.62.18-.47.54.23.56.38,1.22,1,1.5a2.17,2.17,0,0,0,1.52.34A3.14,3.14,0,0,0,389.87,91.23Z"/><path class="cls-13" d="M254.94,104.44h-4.61c-.37,0-.57.26-.41.59.31.63.49,1.35,1.34,1.58a2.49,2.49,0,0,0,2.85-.73l.59.58a3.43,3.43,0,0,1-3.36,1.08,3.18,3.18,0,0,1-2.39-2.84,3.85,3.85,0,0,1,.38-2.24c1.12-1.82,2.17-1.94,4-1.35a2.3,2.3,0,0,1,1.17,1.24A3.87,3.87,0,0,1,254.94,104.44Z"/><path class="cls-13" d="M316.45,63.16h-5a2.11,2.11,0,0,0,2.4,2.37,2.15,2.15,0,0,0,1.39-.64c.35-.33.48-.22.7,0a2.53,2.53,0,0,0,.26.22,3.19,3.19,0,0,1-3.4,1.06,3,3,0,0,1-2.37-2.94,3.74,3.74,0,0,1,.44-2.22c1.11-1.75,2.23-1.73,4-1.27.38.43.89.71,1.14,1.3A3.66,3.66,0,0,1,316.45,63.16Z"/><path class="cls-13" d="M472.86,102.76h-4.58c-.37,0-.58.27-.41.6.31.63.52,1.27,1.32,1.59,1.21.49,2-.06,2.89-.73l.56.58a3.42,3.42,0,0,1-3.35,1.07,3.23,3.23,0,0,1-2.4-2.83,3.91,3.91,0,0,1,.47-2.45A3.21,3.21,0,0,1,469,99.2a3.32,3.32,0,0,1,2.37.27,2.44,2.44,0,0,1,1.05,1.1A3.52,3.52,0,0,1,472.86,102.76Z"/><path class="cls-13" d="M274.05,105.64l.56.55c0,.06,0,.1-.07.17a3.36,3.36,0,0,1-4.9-.1,3.47,3.47,0,0,1-.78-2.32,3.62,3.62,0,0,1,1.14-2.66,2.49,2.49,0,0,1,2.77-.52c.31.1.67.07.92.41s.79.67.9,1.18.52,1.14.23,1.85h-4.48c-.49,0-.59.16-.45.64a2.22,2.22,0,0,0,.95,1.39,2.09,2.09,0,0,0,1.51.35A3.17,3.17,0,0,0,274.05,105.64Z"/><path class="cls-12" d="M365.16,103.43a1.63,1.63,0,0,1,.54-.76c.65-.65,1.33-1.27,1.94-2a1.45,1.45,0,0,1,1.72-.5c-.75.75-1.46,1.48-2.19,2.19-.23.22-.32.37-.08.69s.23.48.45.64a6,6,0,0,1,1.44,1.66,6.55,6.55,0,0,0,.87.88,1.48,1.48,0,0,1-2-.84c-.31-.58-.94-.9-1.19-1.54-.12-.29-.48-.26-.71-.06s-.57.56-.86.83a.5.5,0,0,0-.13.43v1.17c-.29.19-.57.07-.84.1,0-.06-.12-.12-.12-.18.15-2.14-.4-4.24-.25-6.38,0-.44,0-.88,0-1.32,0-.69,0-.69,1-1,0,1.73,0,3.44,0,5.15C364.76,103,364.73,103.3,365.16,103.43Z"/><path class="cls-13" d="M420.2,89.56c-1.57,0-3.09,0-4.61,0-.36,0-.42.17-.35.43a2.14,2.14,0,0,0,2.5,1.94,2.48,2.48,0,0,0,1.7-.94l.49.7c0-.07,0,0,0,0a3.38,3.38,0,0,1-4.91-.11,3.51,3.51,0,0,1-.77-2.32,3.58,3.58,0,0,1,1.14-2.65,2.46,2.46,0,0,1,2.77-.52c.31.1.67.06.92.4s.79.68.9,1.19S420.48,88.84,420.2,89.56Z"/><path class="cls-13" d="M475,89.08c-1.6,0-3.11,0-4.63,0-.35,0-.43.15-.37.42a2.17,2.17,0,0,0,2.5,2,2.68,2.68,0,0,0,1.71-.92l.54.53c.05.06,0,.1-.06.17a3.37,3.37,0,0,1-4.9-.09,3.47,3.47,0,0,1-.78-2.32,3.57,3.57,0,0,1,1.13-2.66,2.46,2.46,0,0,1,2.77-.53C474.4,86.12,475.09,87.26,475,89.08Z"/><path class="cls-9" d="M452.48,105.79a1.77,1.77,0,0,1-.91.08v-8.8a1.91,1.91,0,0,1,.88-.06v3.74a8,8,0,0,0,.67-.68,2.34,2.34,0,0,1,3.3,0,2.1,2.1,0,0,1,.64,1.55c-.05,1.39,0,2.78,0,4.16-.28.2-.56.07-.83.1a.31.31,0,0,1-.13-.3c0-1.23,0-2.47,0-3.71,0-1.5-1-2.08-2.37-1.53a2,2,0,0,0-1.21,2C452.41,103.51,452.48,104.67,452.48,105.79Z"/><path class="cls-13" d="M436.14,103h-5c.06,1.64.78,2.24,2.3,2.37a2,2,0,0,0,1.5-.67c.37-.34.49-.17.7.07l.23.24a3.3,3.3,0,0,1-3.38,1,2.54,2.54,0,0,1-1.69-1.09,3.16,3.16,0,0,1-.7-1.87,6.93,6.93,0,0,1,.25-1.81,3,3,0,0,1,3.64-1.8,3.76,3.76,0,0,1,1.57,1.13,7.71,7.71,0,0,1,.56,1.68C436.14,102.51,436.14,102.71,436.14,103Z"/><path class="cls-9" d="M196.8,80.67c-.35,0-.59,0-.82,0,0,0-.06,0-.14-.11,0-1.27,0-2.58,0-3.89a1.58,1.58,0,0,0-2.47-1.52,2.11,2.11,0,0,0-1.11,2c-.09,1.14,0,2.3,0,3.49h-.91V71.85c.25-.13.53,0,.88-.06v3.75a8,8,0,0,0,.67-.68,2.34,2.34,0,0,1,3.3,0,2.15,2.15,0,0,1,.64,1.55C196.77,77.79,196.8,79.19,196.8,80.67Z"/><path class="cls-13" d="M272.25,77.07c-.54,0-1,0-1.42,0a7,7,0,0,0-2.77.23c-.27.11-.67-.17-.84.19a1.8,1.8,0,0,0,.64,1.48,4.57,4.57,0,0,0,1.71.5,2.22,2.22,0,0,0,1.5-.68c.38-.35.49-.16.71.07a2.73,2.73,0,0,0,.23.25,3.5,3.5,0,0,1-3.69.91,2.08,2.08,0,0,1-1.46-.8,3.87,3.87,0,0,1-.64-2,3.63,3.63,0,0,1,1.36-3,4.21,4.21,0,0,1,2.44-.66,3,3,0,0,1,2,1.79,4.13,4.13,0,0,1,.27.84A7,7,0,0,1,272.25,77.07Z"/><path class="cls-11" d="M373.73,70.37a1.86,1.86,0,0,1,.9.06c-.18,1.16.44,2.26.2,3.49a.74.74,0,0,0,.57-.41,2.35,2.35,0,0,1,3.48,0,1.88,1.88,0,0,1,.56,1.34c-.05,1.4,0,2.8,0,4.2a.36.36,0,0,1,0,.11c-.25.21-.54,0-.77.11a.32.32,0,0,1-.17-.32q0-1.86,0-3.72c0-1.5-1-2.07-2.38-1.52a2.06,2.06,0,0,0-1.2,2c-.09,1.14,0,2.3,0,3.47h-1v-4.3c0-.76,0-1.52,0-2.28S373.42,71.22,373.73,70.37Z"/><path class="cls-13" d="M371.9,89.8h-4.54c-.37,0-.58.26-.42.59.31.63.52,1.27,1.32,1.6,1.21.49,2-.06,2.9-.73l.55.58c-.9,1.13-2.16,1.15-3.46,1.08-.55-.41-1.29-.56-1.65-1.19a2.76,2.76,0,0,1-.63-1.89c.08-.42-.15-.86.13-1.27s.41-1.17.92-1.66a2.85,2.85,0,0,1,2.78-.61,2.39,2.39,0,0,1,1.63,1.21A2.79,2.79,0,0,1,371.9,89.8Z"/><path class="cls-9" d="M260,80.11c-.21.17-.45,0-.68.08s-.26-.06-.24-.17c.07-.41-.27-.7-.27-1.11,0-2.51,0-5,0-7.57h.94v3.71c.32-.32.52-.48.68-.68a2.32,2.32,0,0,1,3.3,0,2,2,0,0,1,.63,1.43c-.07,1.43,0,2.87,0,4.28a1.91,1.91,0,0,1-1,.06c0-1.3,0-2.61,0-3.92a2,2,0,0,0-.06-.81,1.61,1.61,0,0,0-2.15-.87,2,2,0,0,0-1.36,1.93c-.13.94,0,1.91-.05,2.87C259.73,79.68,260.17,79.78,260,80.11Z"/><path class="cls-13" d="M236.44,104.44h-4.62c-.37,0-.57.26-.4.59.31.63.48,1.35,1.33,1.58a2.5,2.5,0,0,0,2.86-.73l.58.57c-.25.54-.88.61-1.23,1a.3.3,0,0,1-.21.07,4.45,4.45,0,0,1-2.87-.58,3,3,0,0,1-1.46-2.75,3.78,3.78,0,0,1,.92-2.5c1-1.18,2.14-1.08,3.48-.61a2.34,2.34,0,0,1,1.17,1.24A4,4,0,0,1,236.44,104.44Z"/><path class="cls-14" d="M222.69,104.68h-4.31c-.38,0-.57.25-.42.59a2.54,2.54,0,0,0,1.65,1.71c.83.27,1.38-.17,2-.4.21-.07.42-.46.51-.42s.42.35.61.53a3.42,3.42,0,0,1-3.41,1.08,3.22,3.22,0,0,1-2.37-2.87c0-.5.19-1-.17-1.49a5.52,5.52,0,0,1,.57-1.14c.39-.49.81-1.06,1.42-1.17a3.6,3.6,0,0,1,2.29.23,2.65,2.65,0,0,1,1.19,1.24A3,3,0,0,1,222.69,104.68Z"/><path class="cls-11" d="M297.25,93.37h-1c0-1.39,0-2.77,0-4.16a1.36,1.36,0,0,0-.9-1.42,1.89,1.89,0,0,0-2.37.86,4.13,4.13,0,0,0-.35,1.54c.06,1,0,2.07,0,3.13a1.57,1.57,0,0,1-1,0c0-1.53-.07-3,0-4.55.07-1.23-.35-2.41-.26-3.62,0-.2,0-.39,0-.56a1.64,1.64,0,0,1,.87-.08,1.2,1.2,0,0,1,.07.91c-.15.92.4,1.74.21,2.85.35-.36.53-.55.72-.72s.51-.68,1-.67a2.18,2.18,0,0,1,1.81.56c.29.35.87.37,1,.77a5.14,5.14,0,0,1,0,1.42C297.25,90.88,297.25,92.11,297.25,93.37Z"/><path class="cls-9" d="M467.37,91.92h-1c0-1.26,0-2.5,0-3.73,0-1.51-1.08-2.14-2.47-1.53a2,2,0,0,0-1.09,1.77,23.39,23.39,0,0,0,0,3.35c0,.11.13.22.23.37-.36,0-.77.19-.91-.07a1.7,1.7,0,0,1-.31-.84c0-2.62,0-5.25,0-7.9h.95v3.71a5.85,5.85,0,0,0,.58-.6,2.32,2.32,0,0,1,3.38,0c.55.61.61.55.61,1.16Z"/><path class="cls-8" d="M188.63,104.72c.13,1.74-.86,2.59-2.21,3.23a3.45,3.45,0,0,1-3.66-1.1,3.65,3.65,0,0,1,.48-4.8,3.37,3.37,0,0,1,5.38,1.6A3.48,3.48,0,0,1,188.63,104.72Z"/><path class="cls-8" d="M220.81,90.73a3.67,3.67,0,0,1-.27,1.68c-.32.69-.95,1-1.46,1.4a2.08,2.08,0,0,1-1.43.32,3,3,0,0,1-3.08-2,4.86,4.86,0,0,1,0-2.7,3,3,0,0,1,2.08-1.95,3.46,3.46,0,0,1,4.16,2.23A4.24,4.24,0,0,1,220.81,90.73Z"/><path class="cls-8" d="M264.34,63.34a2.68,2.68,0,0,1,.52-2,3.09,3.09,0,0,1,1.65-1.19,3.34,3.34,0,0,1,3.82,1.37,3.45,3.45,0,0,1,0,3.68,3.34,3.34,0,0,1-2.58,1.58,3.1,3.1,0,0,1-2.34-.73A2.88,2.88,0,0,1,264.34,63.34Z"/><path class="cls-8" d="M346.75,89.87a3.21,3.21,0,0,1,2.19-3.35,3.38,3.38,0,0,1,3.82,1.41,3.44,3.44,0,0,1,0,3.78,3,3,0,0,1-2.44,1.46,3.27,3.27,0,0,1-2.46-.74A2.86,2.86,0,0,1,346.75,89.87Z"/><path class="cls-8" d="M320.8,103.4a3.5,3.5,0,0,1-.3,1.95,3.37,3.37,0,0,1-6.12-.47,3.67,3.67,0,0,1,2.19-4.5,3.56,3.56,0,0,1,4.18,2.23A2.67,2.67,0,0,1,320.8,103.4Z"/><path class="cls-8" d="M340,76.31c.15,1.73-.79,2.65-2.19,3.29a3.06,3.06,0,0,1-2.07,0,8.38,8.38,0,0,0-1-.29c-.22,0-.43-.34-.59-.57a5.69,5.69,0,0,1-.51-1,3.45,3.45,0,0,1,1.55-4.15,5.93,5.93,0,0,1,1.53-.62,2.94,2.94,0,0,1,2.82,1.41A2.75,2.75,0,0,1,340,76.31Z"/><path class="cls-8" d="M209.3,50.29a3,3,0,0,1-1.89,3,3.45,3.45,0,0,1-1.6.52,3.22,3.22,0,0,1-3-3,4.18,4.18,0,0,1,.46-2.22A3.27,3.27,0,0,1,205.75,47a4.47,4.47,0,0,1,2.43.55,2.34,2.34,0,0,1,1.11,1.88A5.38,5.38,0,0,1,209.3,50.29Z"/><path class="cls-8" d="M465.45,102.6c.13,1.48-.73,2.33-1.91,3.06-1.83,1.13-3.77.13-4.5-1.74a3.56,3.56,0,0,1,2.2-4.47,3.38,3.38,0,0,1,2.29.18c1.32.64,1.33.61,1.79,1.68,0,.07.12.12.13.18C465.46,101.85,465.45,102.21,465.45,102.6Z"/><path class="cls-7" d="M185.61,92.93a1.51,1.51,0,0,0,.4-.56,17,17,0,0,1,.81-2.3,12.86,12.86,0,0,0,.61-1.67.81.81,0,0,1,1.11-.49c.16.09.07.25,0,.41-.23.82-.7,1.54-1,2.36-.42,1.25-1.09,2.42-1.59,3.65a4.32,4.32,0,0,1-.83,1.22,1.38,1.38,0,0,1-1.24.5c-.69,0-.69,0-1.3-.62.23-.15.32-.56.76-.21a1,1,0,0,0,1.34-.27,1.25,1.25,0,0,0,.17-1.36c-.32-.75-.68-1.48-1-2.21-.45-.93-.83-1.89-1.23-2.85-.08-.19-.41-.32-.18-.59a.92.92,0,0,1,1,.13,4.68,4.68,0,0,1,.59,1.07A33.91,33.91,0,0,0,185.61,92.93Z"/><path class="cls-9" d="M323.44,106.82h-.93v-6.11c.87-.13.87-.13.95.54.29.09.33-.23.5-.34a2.53,2.53,0,0,1,2.05-.56,1.72,1.72,0,0,1,1,.4,2.08,2.08,0,0,1,1,2c-.13,1.34,0,2.69,0,4.07h-1c0-1.37,0-2.76,0-4.14a1.42,1.42,0,0,0-1-1.49,2,2,0,0,0-2.38,1.09,4.89,4.89,0,0,0-.26,1.58C323.47,104.8,323.44,105.76,323.44,106.82Z"/><path class="cls-9" d="M393.22,87.18a2.88,2.88,0,0,1,2.52-1c.7.06,1.06.55,1.55.91s.4.73.4,1.17v4.32a1.42,1.42,0,0,1-1,0c0-1.4,0-2.78,0-4.17s-1-1.79-2.23-1.38-1.26,1.28-1.34,2.17c-.1,1.11,0,2.23,0,3.33-.28.19-.56.06-.83.1,0-.06-.12-.12-.12-.18,0-1.84,0-3.68,0-5.51,0-.25-.15-.58.35-.56s.52,0,.6.55A1.08,1.08,0,0,0,393.22,87.18Z"/><path class="cls-9" d="M443.1,105.88h-1c0-1.34,0-2.68,0-4A3,3,0,0,0,442,101a1.18,1.18,0,0,0-1-.82,2,2,0,0,0-1.62.39,1.46,1.46,0,0,0-.57.85,3.27,3.27,0,0,0-.26,1.46c0,1,0,1.91,0,2.87,0,0,0,.07-.08.13h-.84V99.7c.87,0,.87,0,1,.73.26-.48.71-.62,1.08-.85a2.33,2.33,0,0,1,1.92-.07c.62.18,1,.74,1.42,1.18.08.09,0,.3,0,.46C443.11,102.7,443.1,104.25,443.1,105.88Z"/><path class="cls-9" d="M282.35,107.05h-.94v-6.11c.88-.1.88-.1,1,.67l.88-.67a2.3,2.3,0,0,1,2.21-.19c.6.15.91.7,1.34,1.09.18.16.08.38.08.56,0,1.52,0,3,0,4.56-.27.29-.59,0-.86.15a1.37,1.37,0,0,1-.1-.27c0-1.24,0-2.48,0-3.72a1.6,1.6,0,0,0-2.54-1.54,2.21,2.21,0,0,0-1.05,2.06C282.29,104.75,282.35,105.87,282.35,107.05Z"/><path class="cls-9" d="M246.78,93.61h-1V89.45a1.45,1.45,0,0,0-1-1.48,2,2,0,0,0-2.37,1.11,4.89,4.89,0,0,0-.26,1.58c.05,1,0,1.91,0,2.88a1.31,1.31,0,0,1-.89.06s-.07-.08-.07-.11v-6c.9-.12.9-.12,1,.64.33-.22.62-.46.88-.64a2.34,2.34,0,0,1,2.3-.16c.58.19.81.72,1.25,1,.13.09.09.21.09.33Z"/><path class="cls-9" d="M427.24,92.42h-1c0-1.45,0-2.88,0-4.3a1.51,1.51,0,0,0-2.12-1.33c-.34.16-.82.17-1,.6a4.25,4.25,0,0,0-.48,1.6c0,1.11,0,2.23,0,3.34-.3.25-.61,0-.93.14V86.29c.87-.1.87-.1,1,.67a8.14,8.14,0,0,1,.89-.66,2.81,2.81,0,0,1,2.29-.15c.57.21.82.72,1.25,1,.19.14.08.37.08.56C427.25,89.27,427.24,90.79,427.24,92.42Z"/><path class="cls-9" d="M211.46,80.43h-1c0-1.34,0-2.68,0-4a3.4,3.4,0,0,0-.16-.88,1.24,1.24,0,0,0-1-.82,2,2,0,0,0-1.61.41,1.48,1.48,0,0,0-.58.85,3.25,3.25,0,0,0-.26,1.45c0,1,0,1.92,0,2.88,0,0,0,.06-.08.12H206V74.24c.86,0,.86,0,1,.74.25-.49.72-.59,1.08-.86a2.28,2.28,0,0,1,1.83-.12c.65.13,1.05.77,1.5,1.25.09.08.05.3.05.45Z"/><path class="cls-9" d="M231.88,66.72h-1c0-1.39,0-2.78,0-4.17a1.35,1.35,0,0,0-.9-1.41,1.88,1.88,0,0,0-2.36.85,3.35,3.35,0,0,0-.35,1.54,13.52,13.52,0,0,1,0,1.56v1.56a1.41,1.41,0,0,1-.93,0V60.59c.19-.18.44-.05.66-.08s.27.09.27.28-.07.6.38.2a2.46,2.46,0,0,1,2-.75,2.68,2.68,0,0,1,1.54.65,1.83,1.83,0,0,1,.69,1.65C231.84,63.9,231.88,65.25,231.88,66.72Z"/><path class="cls-9" d="M312.62,87c.91,0,.91,0,1.07.7.29-.46.88-.49,1.17-.92a3.3,3.3,0,0,1,2.15.2,8.51,8.51,0,0,1,1,1c.18.17.09.38.1.56,0,1.12,0,2.24,0,3.36a3.46,3.46,0,0,0,0,.72c0,.21.57.42,0,.62s-.63-.06-.88-.43a1.18,1.18,0,0,1-.12-.79c0-1,0-1.92,0-2.88,0-1.41-1-1.94-2.35-1.44a1.94,1.94,0,0,0-1.22,1.9,4.24,4.24,0,0,0,.18,2.43c.16.31,0,.77,0,1.14a2,2,0,0,1-1,0c.18-1-.3-1.95-.25-3S312.62,88.08,312.62,87Z"/><path class="cls-11" d="M188.18,60.78c.87,0,.87,0,1,.7.29-.46.87-.49,1.16-.92a3.3,3.3,0,0,1,2.15.2,6.34,6.34,0,0,1,1,1,.3.3,0,0,1,.1.19.65.65,0,0,1,0,.24c-.19,1.58.34,3.13.24,4.71-.27.28-.6,0-.86.14-.05-.14-.11-.21-.1-.27.16-1.38-.31-2.72-.26-4.1a1.56,1.56,0,0,0-2-1.38,2.36,2.36,0,0,0-1,.61,5.24,5.24,0,0,0-.51,1.34c-.1.34.35.51.25.87a1.83,1.83,0,0,0,0,.47v2.36a1.78,1.78,0,0,1-.88.06,1.47,1.47,0,0,1-.07-.92C188.55,64.31,188,62.6,188.18,60.78Z"/><path class="cls-9" d="M327.28,66V61.77a2.4,2.4,0,0,0-1.38-1.5,1.64,1.64,0,0,0-1.78.86,3.41,3.41,0,0,0-.45,1.73c0,1,0,2.07,0,3.07-.31.17-.58.08-1,.09V64c0-1,0-2,0-3,0-.3.1-.61-.2-.89-.13-.12-.05-.35.24-.37.6,0,.62,0,.77.76a3.79,3.79,0,0,1,.5-.49,2.59,2.59,0,0,1,2.18-.49A2.4,2.4,0,0,1,328,61a2.94,2.94,0,0,1,.28,1.33c-.05,1.19,0,2.38,0,3.56C328,66.11,327.67,66,327.28,66Z"/><path class="cls-9" d="M529.13,91.72h-.84s-.08,0-.08-.08V85.56c.86-.08.86-.08,1,.72a2.63,2.63,0,0,1,1.16-.9,2.38,2.38,0,0,1,1.92,0,4.32,4.32,0,0,1,1.34,1.1c.17.16.07.38.07.57,0,1.44,0,2.87,0,4.32-.26.24-.69-.05-1,.61,0-1.63,0-2.94,0-4.25,0-1.54-1.05-2.18-2.45-1.54a2.13,2.13,0,0,0-1.13,2.1C529.07,89.4,529.13,90.52,529.13,91.72Z"/><path class="cls-9" d="M195.84,107.56H195a.31.31,0,0,1-.13-.3c0-1.15,0-2.31,0-3.47,0-1.5-1-2.08-2.37-1.53a2,2,0,0,0-1.21,2c-.09,1.14,0,2.3,0,3.43a1.87,1.87,0,0,1-.91.07v-6.17c.86,0,.86,0,1,.61.3,0,.37-.49.74-.43.35-.57.93-.46,1.47-.49a2.14,2.14,0,0,1,1.56.6,1.92,1.92,0,0,1,.74,1.75C195.79,104.93,195.84,106.2,195.84,107.56Z"/><path class="cls-9" d="M493.19,100.19c.25-.5.73-.57,1.08-.86a1.73,1.73,0,0,1,1.58-.11,3,3,0,0,1,1.09.55,1.67,1.67,0,0,1,.73,1.51c-.08,1.34,0,2.7,0,4-.3.16-.58.07-1,.09v-3.67a2.81,2.81,0,0,0-.06-.82,1.57,1.57,0,0,0-2.13-.9,2.08,2.08,0,0,0-1.4,2.14c-.07,1.14,0,2.3,0,3.47h-.92V99.45C493,99.42,493,99.42,493.19,100.19Z"/><path class="cls-6" d="M282,65.55c1.41,0,2.61,0,3.8,0,.31,0,.42.08.41.4s-.1.33-.35.33h-5.14a1.28,1.28,0,0,1,.5-1.37c.87-.75,1.46-1.74,2.25-2.56.45-.46.84-1,1.4-1.59h-3.8c-.19,0-.41,0-.4-.28s0-.46.35-.45c1.6,0,3.19,0,4.79,0,.16,0,.36,0,.38.17s.08.39-.1.55c-.44.39-.73.92-1.13,1.32a30.46,30.46,0,0,1-2.27,2.54C282.37,64.83,282.4,65.22,282,65.55Z"/><path class="cls-12" d="M352.32,79.71a2.5,2.5,0,0,1-2.06-.69c-.73,0-.16-.43-.12-.55.09-.37.29-.16.51,0a4.14,4.14,0,0,0,1.22.5c.6.11,1.27.27,1.71-.4.12-.19.5-.33.35-.55s-.21-.79-.75-.93a4.08,4.08,0,0,1-2.24-.94c-.8,0-.37-.86-.83-1.08a4.15,4.15,0,0,1,.44-1.13,2.44,2.44,0,0,1,2.91-.77c.27.1.63,0,.85.3.07.11.42,0,.36.31a.56.56,0,0,1-.48.45,1,1,0,0,1-.54-.15,4.68,4.68,0,0,0-1.18-.32,1.13,1.13,0,0,0-.87.22c-.53.34-.62.8-.17,1.21a3.32,3.32,0,0,0,1,.51,5.2,5.2,0,0,1,1.72.76,1.63,1.63,0,0,1,.52,2.08,2,2,0,0,1-1.81,1.21Z"/><path class="cls-12" d="M189.2,53.77A3.39,3.39,0,0,1,187,53.1c-.37-.23-.11-.22-.08-.4.06-.45.18-.42.52-.23a4.33,4.33,0,0,0,2.15.61c.63,0,.83-.55,1.18-.89.16-.14-.4-.94-.71-1a10.5,10.5,0,0,1-1.59-.5c-.57-.28-1.36-.43-1.33-1.33-.47-.52,0-1,.22-1.29a2,2,0,0,1,2-1,4.17,4.17,0,0,1,1.84.49c.12.07.31,0,.33.23s-.14.28-.25.38-.46.11-.74,0a4.21,4.21,0,0,0-1.29-.39,1.53,1.53,0,0,0-.85.26c-.54.32-.59.76-.16,1.16a1.7,1.7,0,0,0,1,.51,10.43,10.43,0,0,1,1.46.56c.63.17.9.94,1,1.55a1.6,1.6,0,0,1-.41,1.12A2.14,2.14,0,0,1,189.2,53.77Z"/><path class="cls-12" d="M478,104.27c-.12-.88-.81-1.07-1.5-1.27-.54-.16-1.14-.19-1.51-.72-.79,0-.4-.83-.83-1.07.24-.38.16-.86.48-1.23a2.48,2.48,0,0,1,2.85-.68c.27.08.64,0,.85.3.06.12.44,0,.37.3s-.25.52-.58.45A5.63,5.63,0,0,1,477,100a1.4,1.4,0,0,0-1.41.08c-.54.34-.66.82-.19,1.19a1.89,1.89,0,0,0,.87.48c.55,0,.95.41,1.46.55.68.19.95.93,1.16,1.6.07.23-.2.3-.25.5a1.86,1.86,0,0,1-1.81,1.45,6.15,6.15,0,0,1-2-.21c-.39-.11-.52-.56-1-.59-.13,0,.22-.21.18-.44s.22-.26.32-.18a3.25,3.25,0,0,0,1,.48C476.93,105.35,476.94,105.37,478,104.27Z"/><path class="cls-12" d="M290.86,107.32a2.57,2.57,0,0,1-2.17-.72c-.78,0-.06-.34-.07-.47,0-.37.22-.25.46-.13a5,5,0,0,0,2,.62c.71,0,.92-.53,1.32-.87.15-.13-.4-1-.71-1.06-.48-.09-.92-.39-1.36-.44s-.82-.52-1.29-.68-.08-.76-.48-1a3.62,3.62,0,0,1,.4-1,2.12,2.12,0,0,1,1.87-1,3.47,3.47,0,0,1,2,.48c.13.06.32,0,.34.22s-.18.35-.32.46-.46.13-.54,0c-.22-.34-.58-.12-.85-.31a1.3,1.3,0,0,0-1.41.12c-.55.33-.6.74-.17,1.16a1.7,1.7,0,0,0,1,.51,11.2,11.2,0,0,1,1.46.55c.63.17.92.93,1,1.55a1.6,1.6,0,0,1-.4,1.13A2.15,2.15,0,0,1,290.86,107.32Z"/><path class="cls-12" d="M258.26,107.56a2.43,2.43,0,0,1-2-.72c-.78,0-.06-.34-.06-.47,0-.38.22-.25.46-.12a4.85,4.85,0,0,0,2,.61c.71,0,.92-.53,1.31-.88.15-.13-.4-1-.71-1-.48-.09-.92-.39-1.36-.44s-.83-.52-1.3-.68-.05-.77-.47-1a4.09,4.09,0,0,1,.4-1,2.13,2.13,0,0,1,1.88-1,3.64,3.64,0,0,1,2,.48c.11.07.31,0,.33.23s-.13.27-.24.38-.52.21-.62.06c-.23-.33-.58-.11-.86-.3a1.28,1.28,0,0,0-1.4.12c-.55.33-.6.75-.17,1.16a1.65,1.65,0,0,0,1,.51,11.39,11.39,0,0,1,1.47.56c.62.16.91.93,1,1.55a1.58,1.58,0,0,1-.4,1.12C259.89,107.42,259.53,107.57,258.26,107.56Z"/><path class="cls-12" d="M197.86,67.23a4.23,4.23,0,0,1-2.24-.68c-.61-.32.23-.36,0-.6s.21-.2.42-.09a12.17,12.17,0,0,0,1.12.48,2.4,2.4,0,0,0,1,.16,1.06,1.06,0,0,0,1-.75,1.29,1.29,0,0,0-.75-1.16c-.49-.17-1-.3-1.47-.49-.65-.26-1.4-.45-1.43-1.37-.53-.36,0-.73.09-1a1.79,1.79,0,0,1,1.43-1.19,4.37,4.37,0,0,1,2.67.45c.25.12.24.27.1.45a.62.62,0,0,1-.82.21,5.61,5.61,0,0,0-1.15-.4,1.25,1.25,0,0,0-1,.21c-.59.4-.69.75-.22,1.2a1.63,1.63,0,0,0,.87.47c.56,0,.92.48,1.48.54s1.33,1.32,1.11,1.7,0,.66-.07.85a2.21,2.21,0,0,1-.84.79,1.83,1.83,0,0,1-1,.23C198.1,67.22,198,67.23,197.86,67.23Z"/><path class="cls-12" d="M330.36,93.39a2.64,2.64,0,0,1-2.23-.7c-.67,0-.14-.29-.12-.45,0-.37.2-.32.46-.18a5,5,0,0,0,2,.64c.71,0,.94-.51,1.33-.86.16-.14-.36-1.06-.66-1.06a3.23,3.23,0,0,1-1.08-.32,1.87,1.87,0,0,1-1.28-.66c-.78,0-.37-.86-.8-1.12.21-.35.19-.79.45-1.13a2.68,2.68,0,0,1,2.85-.82c.2.36.72,0,.93.42,0,.06.31,0,.34.2s-.17.35-.31.46-.47.13-.54,0c-.22-.33-.58-.19-.85-.31a1.29,1.29,0,0,0-1.79.58c-.11.2-.16.34,0,.5a1.91,1.91,0,0,0,.74.52,15.17,15.17,0,0,0,1.65.64c.43.07.54.51,1,.57.25,0,0,.54.31.81s-.36.56-.23.94C331.89,92.73,331.46,93.77,330.36,93.39Z"/><path class="cls-12" d="M236.14,67a4.06,4.06,0,0,1-2.31-.67c-.61-.32.24-.36,0-.6-.09-.09.23-.23.41-.08a3.75,3.75,0,0,0,1.23.5c.66.24,1.3.33,1.79-.33.14-.18.5-.32.36-.54s-.21-.8-.75-.93a4.15,4.15,0,0,1-2.24-.94c-.81,0-.38-.86-.83-1.08a4.49,4.49,0,0,1,.43-1.13,2.46,2.46,0,0,1,2.92-.78c.27.11.63,0,.84.31.07.11.44,0,.36.3s-.26.52-.59.45a6.43,6.43,0,0,1-1.05-.34,1.42,1.42,0,0,0-1.41.1c-.54.34-.63.79-.19,1.21a2,2,0,0,0,.89.46c.59.13,1.08.47,1.65.64a1.45,1.45,0,0,1,.55,2.28,7.55,7.55,0,0,1-1,1C236.86,67.16,236.44,66.91,236.14,67Z"/><path class="cls-12" d="M334.06,64.76c-.49-1.06-.49-1.07-1.54-1.37a9.38,9.38,0,0,1-1.63-.69c-.52-.26-.48-.89-1-1.11a4.49,4.49,0,0,1,.43-1.13,2.45,2.45,0,0,1,2.91-.78c.27.11.64,0,.84.3.07.12.44,0,.37.3s-.25.53-.58.46a5.66,5.66,0,0,1-1.06-.33,1.36,1.36,0,0,0-1.4.09c-.55.34-.67.81-.2,1.18a2.17,2.17,0,0,0,.87.49c.6.11,1.07.51,1.66.63.76.14.89.84,1.18,1.4.17.33-.2.45-.25.72a1.62,1.62,0,0,1-1.42,1.31,4.81,4.81,0,0,1-2.31-.17c-.38-.13-.52-.57-1-.59-.09,0,.22-.3.21-.54s.23-.13.39,0c.35.21.77.31,1.12.48a4.09,4.09,0,0,0,1.12.18.66.66,0,0,0,.61-.28C333.65,65.08,333.87,64.92,334.06,64.76Z"/><path class="cls-12" d="M180.54,106.32l.59.59a3.28,3.28,0,0,1-4.64.41,3.69,3.69,0,0,1-.28-5,3.37,3.37,0,0,1,4.86,0l-.6.6a2.07,2.07,0,0,1-.66-.41,1.59,1.59,0,0,0-1.61-.41,2.23,2.23,0,0,0-1.46,1.12,3.27,3.27,0,0,0,.18,3.34,2.49,2.49,0,0,0,2.28.72A2,2,0,0,0,180.54,106.32Z"/><path class="cls-12" d="M201.25,52.1l.55.55a3.29,3.29,0,0,1-4.65.4,3.69,3.69,0,0,1-.27-5,3.4,3.4,0,0,1,4.93,0s0,.12-.08.16c-.52.5-.58.56-1.08.1a2,2,0,0,0-2.31-.36,1.46,1.46,0,0,0-.8.64,3.28,3.28,0,0,0,0,3.55,2.56,2.56,0,0,0,2.35.8C200.55,52.79,200.55,52.79,201.25,52.1Z"/><path class="cls-12" d="M371.84,77.78l.61.6a3.37,3.37,0,0,1-3.53,1c-1.3-.28-1.6-.53-2.06-1.82a3.4,3.4,0,0,1,1.43-4.19,6.55,6.55,0,0,1,1.9-.6,2.47,2.47,0,0,1,2.23,1l-.55.55c-.53,0-.77-.56-1.26-.72-.18-.06-.38-.24-.53-.15-.53.36-1.28.3-1.69.83a3.18,3.18,0,0,0-.76,2,4.13,4.13,0,0,0,.56,1.93c.14.27.4.1.59.14.34.08.61.41,1,.41A2.4,2.4,0,0,0,371.84,77.78Z"/><path class="cls-12" d="M415.74,100a20.44,20.44,0,0,1-1.09,2.43,20.9,20.9,0,0,1-1.54,3.33c-.13.19-.14.36-.44.38s-.72-.1-.78-.39c-.36-1.53-1.35-2.81-1.76-4.32a6.08,6.08,0,0,0-.43-.9c-.08-.19-.44-.37-.16-.57a.77.77,0,0,1,.87,0c.17.11.2.3.28.48.47,1.16,1.06,2.28,1.43,3.49.08.25.14.66.45.69s.42-.44.47-.65c.31-1.2,1-2.25,1.36-3.4C414.67,99.84,414.73,99.86,415.74,100Z"/><path class="cls-7" d="M377.74,100.84c-.27,0-.46,0-.65,0s-.31-.14-.31-.36.05-.38.32-.36h.64a8,8,0,0,0,0-1.1,1,1,0,0,1,.36-.82,1.73,1.73,0,0,1,1.74-.73,4.09,4.09,0,0,0,.7,0c.2.33,0,.62.12,1-1.71-.46-2-.2-1.89,1.69h1.52c.24,0,.35.06.36.32s-.08.43-.4.41c-.48,0-1,0-1.53,0v3c0,.68,0,1.36,0,2,0,.2.14.5-.27.52a.62.62,0,0,1-.68-.49,3.88,3.88,0,0,1,0-.59Z"/><path class="cls-12" d="M223.33,101.37c1.12,0,1.4.07,1.56.84s.75,1.61,1,2.47a1.54,1.54,0,0,0,.42.76c.26.2.17.71.53.66s.14-.51.24-.76c.21-.56.44-1.1.63-1.66a11,11,0,0,0,.63-1.54,1.24,1.24,0,0,1,1.41-.94c-.52,1.23-1,2.48-1.57,3.67-.31.63-.11,1.39-.6,1.95-.09.1-.23.26-.23.37,0,.33-.16.36-.44.39s-.73-.11-.77-.4c-.16-1.2-1-2.05-1.5-3.09A14.64,14.64,0,0,0,223.33,101.37Z"/><path class="cls-12" d="M309.74,71.57h.93v1.77c.32.23.65.12.95.12,1.25,0,1.05.05,1,.4-.12.68-.69.23-1.05.32a4.05,4.05,0,0,1-.86,0c0,1.3,0,2.53,0,3.76A1,1,0,0,0,312,79c.2-.07.36-.36.57-.08s-.11.78-.32.8a2.87,2.87,0,0,1-1.92-.22,1.21,1.21,0,0,1-.65-1.16c.06-1.11,0-2.23,0-3.35v-.76h-.63c-.26,0-.35-.09-.34-.34s0-.4.3-.38c.12,0,.24,0,.36,0,.28,0,.32-.12.31-.36C309.73,72.63,309.74,72.15,309.74,71.57Z"/><path class="cls-12" d="M342.18,74h-.73c-.23,0-.23-.15-.23-.31s-.05-.42.26-.41h.68V71.34h1v1.89h1.63c.28,0,.31.13.31.36s0,.37-.32.37c-.51,0-1,0-1.61,0,0,1.28,0,2.51,0,3.73,0,.91.56,1.24,1.49.89a.47.47,0,0,1,.32,0c.18.09.11.28.11.43a.5.5,0,0,1-.42.5,2.9,2.9,0,0,1-1.81-.23,1.22,1.22,0,0,1-.67-1.14C342.22,76.74,342.18,75.38,342.18,74Z"/><path class="cls-12" d="M481.55,100.12c0,1.28,0,2.5,0,3.73,0,.91.56,1.24,1.49.9a.42.42,0,0,1,.32,0c.18.09.11.28.11.43s-.23.51-.41.49a3.58,3.58,0,0,1-1.61-.15,1.3,1.3,0,0,1-.87-1.33c0-1.31,0-2.62,0-3.91a1,1,0,0,0-.72-.1c-.24,0-.24-.16-.24-.32s-.05-.42.26-.41h.68V97.51h1V99.4h1.62c.28,0,.32.13.32.36s0,.37-.32.37C482.65,100.11,482.14,100.12,481.55,100.12Z"/><path class="cls-12" d="M330.65,74.19c0,1.29,0,2.48,0,3.68,0,.85.58,1.32,1.36,1.06.21-.07.38-.34.55,0s-.14.79-.35.79a3.19,3.19,0,0,1-1.83-.22,1.28,1.28,0,0,1-.71-1.22c.05-1.31,0-2.63,0-4-.2-.22-.45-.11-.68-.11s-.28-.18-.29-.39.07-.36.33-.34.39,0,.62,0V71.63a1.69,1.69,0,0,1,1,0v1.87c.59,0,1.14,0,1.69,0,.23,0,.24.14.24.31s.06.41-.26.41Z"/><path class="cls-12" d="M241.26,61c0,1.28,0,2.48,0,3.67,0,.86.58,1.32,1.36,1.07.21-.07.38-.34.55,0s-.14.79-.36.79a3.18,3.18,0,0,1-1.82-.23,1.26,1.26,0,0,1-.71-1.21c.05-1.32,0-2.64,0-4-.2-.22-.45-.1-.68-.11s-.28-.17-.29-.38.07-.37.33-.35a6.2,6.2,0,0,0,.62,0V58.42a1.69,1.69,0,0,1,1,0v1.87h1.69c.23,0,.24.15.24.31s.06.42-.26.42C242.4,61,241.89,61,241.26,61Z"/><path class="cls-12" d="M261.2,61c0,1.31,0,2.55,0,3.78a1,1,0,0,0,1.35,1c.21-.07.37-.35.56,0s-.13.79-.34.8a3,3,0,0,1-1.92-.24,1.21,1.21,0,0,1-.63-1.18c.07-1.31,0-2.63,0-4-.18-.24-.44-.11-.66-.12s-.31-.14-.31-.37.05-.38.32-.36.39,0,.62,0V58.45a1.41,1.41,0,0,1,1-.05v1.87h1.69c.31,0,.25.23.25.42s0,.31-.24.31C262.36,61,261.84,61,261.2,61Z"/><path class="cls-12" d="M211.22,88.36c0,1.29,0,2.48,0,3.68,0,.85.58,1.31,1.36,1.06.21-.07.38-.34.55,0s-.13.79-.35.79a3.12,3.12,0,0,1-1.83-.23,1.26,1.26,0,0,1-.71-1.21c0-1.32,0-2.64,0-4-.2-.22-.45-.1-.67-.11s-.29-.17-.3-.38.08-.37.34-.35a6,6,0,0,0,.61,0V85.79a1.72,1.72,0,0,1,1,0v1.87h1.68c.24,0,.24.15.24.32s.06.41-.26.41C212.37,88.35,211.85,88.36,211.22,88.36Z"/><path class="cls-12" d="M273,60.77a3.73,3.73,0,0,1-.43,0c-.18,0-.46.1-.52-.13a.44.44,0,0,1,.45-.56c.47,0,.53-.16.5-.56s0-.86,0-1.27c.28-.22.57,0,.92-.19v2c.59,0,1.1,0,1.6,0,.25,0,.36,0,.37.32s-.06.43-.4.41-1,0-1.53,0c0,1.31,0,2.61,0,3.92a1,1,0,0,0,1.36.81c.21-.07.38-.33.55,0s-.14.79-.35.79a3.2,3.2,0,0,1-1.83-.23,1.26,1.26,0,0,1-.71-1.21C273,63.5,273,62.19,273,60.77Z"/><path class="cls-12" d="M210.26,99.4v1.92c.55,0,1.06,0,1.57,0,.24,0,.35.05.36.32s-.07.43-.4.41-.79,0-1.29,0c0,1.32,0,2.62,0,3.93a1,1,0,0,0,1.35.81c.21-.07.39-.34.55,0s-.13.79-.36.78a3.09,3.09,0,0,1-1.82-.22,1.28,1.28,0,0,1-.71-1.22c0-1.31,0-2.63,0-4-.24-.22-.54,0-.79-.11s-.17-.47-.39-.62c.26-.24.62,0,.94-.21v-1C209.3,99.42,209.3,99.42,210.26,99.4Z"/><path class="cls-12" d="M336.49,60.51h-.75c-.3,0-.28-.18-.29-.39s.08-.36.34-.34a6,6,0,0,0,.61,0V57.94a1.61,1.61,0,0,1,1,0v1.87h1.68c.32,0,.23.25.25.42s0,.31-.25.31H337.4c.08,1.11-.28,2.23.21,3.32,0,.07,0,.16,0,.24,0,.3-.12.63.22.86A1.58,1.58,0,0,0,339,65c.09,0,.17-.17.27-.19s.28,0,.3.24a.59.59,0,0,1-.47.7c-.43.12-.89-.14-1.36.21-.22.16-1.06-.68-1-1C336.69,63.5,336.17,62.08,336.49,60.51Z"/><path class="cls-12" d="M382.55,73c.59,0,1.11,0,1.62,0,.29,0,.3.14.31.37s-.05.36-.32.35h-1.57c.05.3.22.49.21.76,0,1,0,1.91,0,2.87s.48,1.34,1.5,1a.46.46,0,0,1,.32,0c.18.09.1.29.1.43a.51.51,0,0,1-.43.49,2.9,2.9,0,0,1-1.81-.23,1.22,1.22,0,0,1-.66-1.15c.06-1.35,0-2.7,0-4.07a4.88,4.88,0,0,1-.92-.16.4.4,0,0,1-.28-.47c.06-.19.25-.15.4-.15h.55V71.07c.23,0,.39,0,.54,0s.46,0,.44.36S382.55,72.39,382.55,73Z"/><path class="cls-12" d="M202.1,60.75V58.9a1.93,1.93,0,0,1,.93,0v1.9c.59,0,1.1,0,1.62,0,.26,0,.34.1.33.35s0,.39-.3.38h-1.63c0,1.33,0,2.64,0,3.94,0,.45.36.6.6.82s.4-.28.72-.23c.15,0,.36-.41.56-.11a.51.51,0,0,1-.17.72c-.38.28-.94,0-1.28.38-.22-.41-.73-.1-1-.45a1.35,1.35,0,0,1-.37-.94c0-1.35,0-2.7,0-4-.25-.18-.49-.09-.72-.1s-.25-.15-.24-.31-.07-.42.25-.42Z"/><path class="cls-12" d="M295.28,98.94h1v1.88a3.46,3.46,0,0,1,1.69-.22c.31,0,.26.21.27.4s0,.33-.23.32h-.84c-.7,0-.85.14-.85.8,0,1,0,2,0,3a1,1,0,0,0,1.34,1c.21-.06.37-.34.57,0s-.13.78-.34.79a2.93,2.93,0,0,1-1.92-.23,1.21,1.21,0,0,1-.64-1.17c.07-1.26,0-2.54,0-3.86-.25,0-.45,0-.64,0s-.33-.11-.32-.35,0-.4.3-.38h.62Z"/><path class="cls-15" d="M238.85,107.3h-.92v-6.19h.84c.23.36-.06.78.18,1.16.75-.58,1.26-1.62,2.43-1.41.17.1.12.23.11.35,0,.29.11.56-.42.62a2.09,2.09,0,0,0-1.86,1.45,4.83,4.83,0,0,0-.36,1.65C238.87,105.68,238.85,106.44,238.85,107.3Z"/><path class="cls-15" d="M502.74,85.5h.83c.23.36-.06.79.18,1.16.77-.57,1.25-1.64,2.45-1.4.15.09.1.23.1.34,0,.29.11.56-.42.62A2.12,2.12,0,0,0,504,87.67a5.13,5.13,0,0,0-.36,1.65c0,.76,0,1.51,0,2.27-.27.29-.59,0-.92.18Z"/><path class="cls-15" d="M276.37,100.86h.84c.23.38,0,.8.18,1.18.76-.6,1.27-1.64,2.51-1.41a2.35,2.35,0,0,1,0,.35c0,.3.1.55-.43.61a2.09,2.09,0,0,0-1.86,1.46,5.13,5.13,0,0,0-.36,1.65c0,.76,0,1.51,0,2.28a1.29,1.29,0,0,1-.93.06Z"/><path class="cls-15" d="M305.66,59.82a4.32,4.32,0,0,0,0,.51c0,.28-.05.38-.38.43a2.15,2.15,0,0,0-1.76,1.11,6.21,6.21,0,0,0-.49,2,23.05,23.05,0,0,0,0,2.35c-.29.17-.57.07-.9.1V60.09c.23-.15.51,0,.79-.07.25.35,0,.77.18,1.2C303.86,60.66,304.35,59.59,305.66,59.82Z"/><path class="cls-15" d="M225.16,60.3v.41c0,.27.06.48-.39.54a2.08,2.08,0,0,0-1.88,1.42,5.83,5.83,0,0,0-.38,1.76c0,.75,0,1.5,0,2.28h-.91V60.54h.85c.15.33,0,.73.1,1.19C223.36,61.13,223.86,60.07,225.16,60.3Z"/><path class="cls-15" d="M342.46,86.7h.83c.24.37-.05.79.18,1.16.77-.58,1.26-1.63,2.45-1.4.15.1.1.23.1.35,0,.29.11.56-.43.62a2.08,2.08,0,0,0-1.86,1.45,4.82,4.82,0,0,0-.35,1.65c0,.75,0,1.51,0,2.28-.28.19-.58.1-.92.07Z"/><path class="cls-15" d="M318,59.81h.83c.24.36-.06.79.2,1.19.39-.39.79-.77,1.15-1.16a.81.81,0,0,1,.72-.3.94.94,0,0,1,.66.75c0,.23-.17.19-.32.22a2.24,2.24,0,0,0-2,1.48,4.87,4.87,0,0,0-.35,1.65c0,.76,0,1.52,0,2.28A1.31,1.31,0,0,1,318,66Z"/><path class="cls-16" d="M184.53,67h-.94c0-.82-.07-1.66,0-2.48.13-1.23-.37-2.4-.25-3.64a1.34,1.34,0,0,1,.88-.06c.2.38,0,.8.17,1.16.77-.59,1.26-1.67,2.55-1.38,0,.17,0,.32,0,.47s0,.43-.36.46a2.48,2.48,0,0,0-1.05.33c-.42.22-.59.75-.77,1.39A18,18,0,0,0,184.53,67Z"/><path class="cls-16" d="M255.16,80.12a2,2,0,0,1-.92.06,21.39,21.39,0,0,0-.25-3c0-1,0-2.08,0-3.13.28-.21.58-.11.88-.09.23.36-.06.79.17,1.16.77-.58,1.27-1.65,2.56-1.38a5.61,5.61,0,0,0,0,.58c0,.26-.11.28-.34.35-.76.2-1.59.37-1.83,1.31-.5.29,0,1-.48,1.24a4.79,4.79,0,0,0,.17,1.38A3.94,3.94,0,0,1,255.16,80.12Z"/><path class="cls-17" d="M364,92.9h-.88V84.12c.23-.17.54-.07.88-.05Z"/><path class="cls-17" d="M243,98.46h.88v8.78c-.23.18-.54.07-.88.06Z"/><path class="cls-17" d="M383,106.34h-.88V97.57c.23-.19.54-.07.88-.06Z"/><path class="cls-17" d="M427.28,97.26h.89V106c-.24.17-.55.08-.89,0Z"/><path class="cls-17" d="M424.14,106.13v-8.8c.27-.17.55-.06.82-.09a.34.34,0,0,1,.12.31v7.79C425.08,106.1,425.08,106.1,424.14,106.13Z"/><path class="cls-17" d="M356.64,70.61h.88v8.84h-.88Z"/><path class="cls-18" d="M307.49,93.13h-.9c.23-1.74-.27-3.43-.22-5.15,0-1.2,0-2.39,0-3.6.28-.18.58-.1,1-.06,0,1.27.05,2.54,0,3.8C307.23,89.77,307.84,91.38,307.49,93.13Z"/><path class="cls-19" d="M229,80.52V73.79a4.08,4.08,0,0,0-.21-1.58c-.21-.51,0-.64.57-.66h.27A14.66,14.66,0,0,1,230,75c0,1.78,0,3.57,0,5.33C229.67,80.54,229.38,80.36,229,80.52Z"/><path class="cls-20" d="M440.46,91.48c-.55,1.09-1.57,1-2.52.94a2.26,2.26,0,0,1-1.69-1.4,1.35,1.35,0,0,1-.11-.67c0-1.32,0-2.63,0-3.95,0-.17-.1-.4.22-.45a.62.62,0,0,1,.69.34,1.55,1.55,0,0,1,.05.58c0,.95,0,1.91,0,2.87a1.82,1.82,0,0,0,2.74,1.74c.14-.07.18-.28.38-.24l.09,0a.4.4,0,0,1,.13.13Z"/><path class="cls-10" d="M396,105.88c-.19.35-.38.71-.83.72a2.78,2.78,0,0,1-2.1-.4,2.38,2.38,0,0,1-.94-2c.07-1.34,0-2.69,0-4h1v3.79a1.86,1.86,0,0,0,2.15,1.94,1.9,1.9,0,0,0,.5-.24.39.39,0,0,0,.2.13Z"/><path class="cls-8" d="M440.22,91.24a2.9,2.9,0,0,0,.49-1.83,13.53,13.53,0,0,1,0-1.56,3.71,3.71,0,0,0-.23-1.22c-.17-.54,0-.66.56-.67a2.33,2.33,0,0,1,.3,0c.51,2.05.26,4.09.33,6.08-.15.2-.33.11-.47.13-.31,0-.57,0-.5-.41,0-.16,0-.33-.24-.31A1.36,1.36,0,0,0,440.22,91.24Z"/><path class="cls-8" d="M396.25,105.16a3,3,0,0,0,.49-1.83c0-.8,0-1.6,0-2.39a.86.86,0,0,1,.85-1.06.6.6,0,0,1,.08.08.16.16,0,0,1,.05.1V106c-.15.19-.32.11-.47.12-.3,0-.56,0-.5-.41,0-.16,0-.32-.23-.31A.26.26,0,0,1,396.25,105.16Z"/><path class="cls-21" d="M247.22,107.3h-.88v-6.13c.24-.18.55-.08.88-.06Z"/><path class="cls-21" d="M246,60.26v6.16c-.27.17-.55,0-.81.09a.32.32,0,0,1-.13-.31V61.05C245.1,60.29,245.11,60.29,246,60.26Z"/><path class="cls-21" d="M314.34,73.49h.89v6.14c-.24.23-.56,0-.89.14Z"/><path class="cls-21" d="M274.86,79.93H274V73.79c.25-.16.55-.07.89,0Z"/><path class="cls-21" d="M300.81,106.82h-.88v-6.13c.23-.18.54-.07.88-.06Z"/><path class="cls-21" d="M476.79,85.74h.88v6.13c-.23.18-.54.07-.88.06Z"/><path class="cls-21" d="M207.1,107.54h-.89V101.4c.23-.23.56,0,.89-.13Z"/><path class="cls-21" d="M184.1,47.32H185v6.14c-.23.24-.56,0-.89.14Z"/><path class="cls-21" d="M193.48,47.32h.88v6.14c-.23.17-.54.07-.88,0Z"/><path class="cls-19" d="M309.58,86.94h.88v1a21,21,0,0,0,0,2.38,10.51,10.51,0,0,1,.22,2.17c0,.19.07.4-.08.59h-.87C309.82,91.07,309.23,89,309.58,86.94Z"/><path class="cls-19" d="M341.22,59.57h1c0,1.31,0,2.61,0,3.92a2.63,2.63,0,0,0,.21,1.58.7.7,0,0,1-.07.7h-.78a.73.73,0,0,1-.09-.22c0-1-.34-1.9-.26-2.89S341.22,60.67,341.22,59.57Z"/><path class="cls-19" d="M214.1,107.57c0-.72,0-1.35,0-2a10.47,10.47,0,0,0-.22-3.25,2.83,2.83,0,0,1,0-.92c.29-.18.57-.06.84-.1,0,.06.11.12.12.19a40.26,40.26,0,0,1,.25,5.27C215,107.54,215.06,107.54,214.1,107.57Z"/><path class="cls-22" d="M445,104.7h1.28a4.83,4.83,0,0,1-.23,1.92c-.23.44-.64.49-1,.69-.15.1-.26-.12-.36-.23s0-.2.13-.24.41-.35.62-.51a.28.28,0,0,0,.08-.31C444.75,105.84,445.13,105.23,445,104.7Z"/><path class="cls-22" d="M371,105.18h1.28a4.83,4.83,0,0,1-.23,1.92c-.23.44-.64.49-1,.69-.15.1-.26-.12-.36-.23s0-.2.13-.24.4-.35.62-.51a.28.28,0,0,0,.08-.31C370.74,106.32,371.12,105.71,371,105.18Z"/><path class="cls-22" d="M262.27,105.9h1.33c0,.4,0,.79,0,1.18a1.62,1.62,0,0,1-1.06,1.43.4.4,0,0,1-.49-.23c-.25-.38.15-.16.24-.24l.5-.51c.14-.13.16-.35,0-.39C262.05,107,262.59,106.36,262.27,105.9Z"/><path class="cls-22" d="M487.65,90.78H489a4.61,4.61,0,0,1-.21,1.9c-.23.45-.64.5-1,.7s-.39-.16-.43-.3.2-.09.28-.17a4.7,4.7,0,0,0,.59-.59.38.38,0,0,0-.05-.3C487.38,91.81,488.06,91.19,487.65,90.78Z"/><path class="cls-22" d="M399.56,91.26h1.26a4.77,4.77,0,0,1-.22,1.9c-.23.45-.64.5-1,.7s-.39-.16-.43-.3.2-.09.29-.17a4,4,0,0,0,.58-.59.38.38,0,0,0-.05-.3C399.23,92.27,399.78,91.69,399.56,91.26Z"/><path class="cls-22" d="M535.09,92.55A1.49,1.49,0,0,0,536,92c.19-.21.23-.43-.15-.47-.22,0-.21-.17-.21-.33v-.84h1.18a3.91,3.91,0,0,1-.2,1.87,1.58,1.58,0,0,1-1.06.72C535.47,92.93,535.31,92.73,535.09,92.55Z"/><path class="cls-21" d="M212.16,47.06v1.16H211A.38.38,0,0,1,211,48c0-.89,0-.89,1-.9Z"/><path class="cls-21" d="M211,52.1h1.16v1.14a.38.38,0,0,1-.26.06c-.89,0-.89,0-.9-.95Z"/><path class="cls-21" d="M285,73.71h1.16v1.14a.38.38,0,0,1-.26.06c-.89,0-.89,0-.9-1Z"/><path class="cls-21" d="M207.81,61.69H206.7V60.56a3.09,3.09,0,0,1,1.11,0Z"/><path class="cls-21" d="M353.45,64.63v1.12h-1.12a3.38,3.38,0,0,1-.05-1.12Z"/><path class="cls-21" d="M286.19,79.93H285V78.82s.14-.07.26-.07c.89,0,.89,0,.9,1Z"/><path class="cls-21" d="M206.67,66.71V65.59h1.13a3.15,3.15,0,0,1,0,1.12Z"/><path class="cls-21" d="M386.15,78.05h1.16v1.12s-.13.07-.25.06c-.9,0-.9,0-.91-1Z"/><path class="cls-21" d="M249.87,88.6h-1.13V87.47c.33-.19.71,0,1.13-.11Z"/><path class="cls-21" d="M248.75,92.46h1.12v1.12a3.39,3.39,0,0,1-1.12,0Z"/><path class="cls-21" d="M499.62,104.22h1.11v1.13a3.09,3.09,0,0,1-1.11,0Z"/><path class="cls-23" d="M183.81,44.92h1.13c.17.27.05.55.09.81a1.52,1.52,0,0,1-1.11.08C183.71,45.6,183.86,45.29,183.81,44.92Z"/><path class="cls-23" d="M193.18,44.92h1.13c.17.27.06.55.09.81a1.52,1.52,0,0,1-1.11.08C193.08,45.6,193.23,45.29,193.18,44.92Z"/><path class="cls-23" d="M314.05,71.09h1.13c.17.27.05.55.09.81a1.58,1.58,0,0,1-1.11.09C314,71.77,314.1,71.46,314.05,71.09Z"/><path class="cls-23" d="M342.19,58.08h-1.13c-.16-.27-.05-.55-.09-.86a2.83,2.83,0,0,1,1.12-.06C342.26,57.44,342.15,57.72,342.19,58.08Z"/><path class="cls-23" d="M274.88,71.35v.88h-1.1c-.17-.24-.07-.54,0-.88Z"/><path class="cls-23" d="M246,57.86v.92h-1.1c-.2-.18-.06-.47-.07-.73s.19-.19.35-.19Z"/><path class="cls-23" d="M476.53,84.23v-.87h1.1c.17.23.06.54.05.87Z"/><path class="cls-23" d="M213.64,99.84V99h1.1c.17.24.07.54,0,.88Z"/><path class="cls-23" d="M205.68,98.94h1.13c.16.27.05.55.08.81a1.55,1.55,0,0,1-1.1.09C205.58,99.62,205.73,99.31,205.68,98.94Z"/><path class="cls-23" d="M247.28,99.62h-1.13c-.16-.27-.06-.55-.09-.84.36-.21.75,0,1.1-.12C247.34,99,247.23,99.25,247.28,99.62Z"/><path class="cls-23" d="M299.63,98.22h1.13c.17.27.06.55.09.81a1.57,1.57,0,0,1-1.11.09C299.53,98.9,299.68,98.59,299.63,98.22Z"/><path class="cls-23" d="M309.24,84.54h1.14c.16.26.05.54.08.81a1.57,1.57,0,0,1-1.11.08C309.15,85.21,309.3,84.91,309.24,84.54Z"/><path class="cls-3" d="M396.25,105.16a.21.21,0,0,1,.24.24q0,.25-.24.24c-.15,0-.15-.17-.24-.24S396.08,105.16,396.25,105.16Z"/><path class="cls-3" d="M396,105.4a.21.21,0,0,1,.24.24q0,.26-.24.24c-.06,0-.09-.1-.06-.16s0-.08.06-.08Z"/><path class="cls-3" d="M396,105.64v.24q-.25,0-.24-.24Z"/><path class="cls-3" d="M106.93,68.19a6.26,6.26,0,0,1-.62,2.38,24.53,24.53,0,0,1-1.81,3.34A24,24,0,0,0,103,76.05a.46.46,0,0,1-.17.17,25.66,25.66,0,0,1-3.11,2.6c-.6.35-1.28.56-1.91.88-.15.08-.29.09-.27.29.08.74-.42,1.42-.24,2.18-.44,1.7-.55,3.47-1.36,5.08-.24.47-.42,1-.65,1.53A1.53,1.53,0,0,0,95.24,90a13,13,0,0,1,.89,3.36.53.53,0,0,0,.92.37c.34-.39.62-.18.86-.08,1.2.53,1.68,1.71,2.26,2.76a1,1,0,0,1-.06,1,2.59,2.59,0,0,1-1.37,1,.48.48,0,0,1-.12,0H96.7c-.58,0-1.1.3-1.7.26a2,2,0,0,1-2-1.41c-.36-1.26-.83-2.47-1.2-3.71a2.69,2.69,0,0,0-.48-1,3,3,0,0,1-.72-2.21c.1-1-.35-1.91-.27-2.9a10.59,10.59,0,0,0,0-2.87,25.35,25.35,0,0,1-.22-3.32c-.09-.13-.13,0-.21,0a7.82,7.82,0,0,1-3.37,0,1.76,1.76,0,0,0-.55-.09,8.84,8.84,0,0,1-2.9-.28,18.39,18.39,0,0,1-4.41-1.21c-1.94-.84-3.89-1.63-5.87-2.38-1.34-.52-2.7-1-4-1.55-.27-.11-.66.05-.83-.32-.21.1-.33.28-.68.09a13.33,13.33,0,0,0-1.78-.61.67.67,0,0,0-.92.24c-.76,1.08-1.57,2.14-2.28,3.26-.53.86-1.18,1.65-1.71,2.53s-1.14,1.68-1.69,2.54c-1.06,1.64-2.19,3.22-3.13,4.94a9.47,9.47,0,0,0-1.07,2.33,3.2,3.2,0,0,0-.1.67c0,1.4,0,2.8,0,4.2a1,1,0,0,0,.58,1.07c.42.18.64.55,1,.78a1,1,0,0,1,.33,1.29c-.11.36-.5.56-1,.69a10.1,10.1,0,0,1-2.79.19,2.17,2.17,0,0,1-1.46-.55,1.71,1.71,0,0,1-.52-1.23c-.1-1,.3-2,.27-3a2,2,0,0,0-.9-1.8,2.86,2.86,0,0,1-1.29-2.57,2.44,2.44,0,0,1,.41-1.15c.36-.58.83-1.09,1.17-1.68a3.65,3.65,0,0,0,.6-1.91,13.44,13.44,0,0,0,0-1.68,13.24,13.24,0,0,0-.41-2.23c-.18-.53.1-1.17-.3-1.67,0-1.32-.55-2.56-.48-3.89-.37-.73-.09-1.55-.26-2.29-.42-1.77-.09-3.54-.23-5.31-.08-1,.32-1.83.32-2.77,0-.14.08-.25,0-.43a.71.71,0,0,1,.08-.65c.13-.26.46-.49.34-.8s-.41-.31-.64-.44a20.22,20.22,0,0,1-1.75-1.29,2.66,2.66,0,0,1-1-2,4.29,4.29,0,0,1,2.71-4,4.07,4.07,0,0,1,2.32,0c1.07.29,2.13.66,3.19,1A1,1,0,0,0,56,57.06a13.18,13.18,0,0,1,5.35-3,13.37,13.37,0,0,1,4-1c.56-.42,1.28,0,1.8-.29s1.17,0,1.72-.2c1.2-.35,2.45,0,3.62-.27a25.45,25.45,0,0,1,4-.19c1.37,0,2.73,0,4.09,0,1.16,0,2.32,0,3.48,0s2.24-.36,3.39-.27,2.24,0,3.36,0,2.08.41,3.15.24A16.25,16.25,0,0,1,105.42,59,9.68,9.68,0,0,1,106.93,68.19Z"/><path class="cls-24" d="M106.93,68.19c-.13-.87.39-1.67.24-2.54-.18-1.13-.29-2.27-.54-3.38a10.06,10.06,0,0,0-1.16-2.87,9.44,9.44,0,0,0-1.2-1.39,16.71,16.71,0,0,0-3.64-3,26.08,26.08,0,0,0-5.55-2.56,3.1,3.1,0,0,0-.81-.06c-.17,0-.33,0-.31-.24.2,0,.47.09.58,0A9.27,9.27,0,0,1,96.87,51,51.67,51.67,0,0,1,103,48.5c.7-.24,1.38-.54,2.08-.77a5.44,5.44,0,0,0,2-.67c.67.29.91-.8,1.58-.48.35-.38.9-.07,1.2-.27a1.71,1.71,0,0,1,1.13-.2.68.68,0,0,0,.72-.46,9.07,9.07,0,0,1,2.61-3.48,18.94,18.94,0,0,0,3.38-4.24c.1-.16.16-.25.32-.23a.19.19,0,0,1,.17.25c-.13.49.33.85.26,1.34a6.47,6.47,0,0,0,0,1.32,4.27,4.27,0,0,1-1,3,2.74,2.74,0,0,0-.45,2.09,1,1,0,0,0,.85.89,3.82,3.82,0,0,1,1.75.74c.51.25.7.91,1.28,1s.77.64,1.19.9a14,14,0,0,1,2.36,2.12,1.53,1.53,0,0,1,.6.83c0,.07.13.17.12.19-.49.6,0,1.38-.38,2,0,.07-.09.14-.09.2a5.89,5.89,0,0,0,0,.84c0,.25.51,0,.47.38a.79.79,0,0,0,.16,1.23,6.61,6.61,0,0,1,.8.69c0,.56,0,1.12,0,1.68a8.65,8.65,0,0,1-1.22,4.15c-.76.88-1.43,2-2.79,2.14-.23.34-.58.19-.87.19-1.52,0-3,0-4.55,0a1.19,1.19,0,0,0-.85.29,3.54,3.54,0,0,1-2,.69,4.57,4.57,0,0,1-3.94-1.69,9.79,9.79,0,0,0-1.58,2A2.88,2.88,0,0,1,106.93,68.19Z"/><path class="cls-25" d="M126.15,57.62a1.77,1.77,0,0,1-1.51-1.12c-.12-.26-.25-.5-.1-.72s.43,0,.65-.08.48-.08.57,0a1.62,1.62,0,0,1,.38.75A7.35,7.35,0,0,1,126.15,57.62Z"/><path class="cls-26" d="M221.38,46.1h1c0,.06.12.12.12.18a18.75,18.75,0,0,0-.25,3c0,.22-.19.19-.35.19s-.38,0-.35-.18C221.72,48.23,221.08,47.23,221.38,46.1Z"/><path class="cls-27" d="M222.47,51.12h-1.12V50a3.38,3.38,0,0,1,1.12,0Z"/><path class="cls-26" d="M233.13,46.1H234c.28,0,.27.14.32.35.13.5-.28.87-.26,1.33s0,1,0,1.43-.24.24-.42.25-.33,0-.3-.24C233.47,48.2,232.91,47.25,233.13,46.1Z"/><path class="cls-27" d="M233.11,51.1V50h1.1c.19.32,0,.71.11,1.12Z"/><path class="cls-26" d="M244.93,45.88h1.15c-.11.45,0,.84-.21,1.33a3.45,3.45,0,0,0,0,1.64c0,.34-.14.38-.42.38s-.35-.13-.31-.36C245.26,47.89,244.63,47,244.93,45.88Z"/><path class="cls-27" d="M246,49.74v1.12h-1.1c-.19-.32,0-.71-.11-1.12Z"/><path class="cls-28" d="M178.56,31.93V30c.88,0,1.75,0,2.62,0a1.64,1.64,0,0,1,.93.37.75.75,0,0,1,0,1.2,1.75,1.75,0,0,1-.93.37C180.33,31.92,179.46,31.93,178.56,31.93Z"/><path class="cls-29" d="M178.3,26.72c.47-.19.92,0,1.38-.26a1.69,1.69,0,0,1,1.55.18.81.81,0,0,1,.45.74.67.67,0,0,1-.47.71c-.28.11-.51.32-.86.25s-.65.05-.95,0-.53.47-.71.23a3,3,0,0,1-.38-1.14A3.17,3.17,0,0,1,178.3,26.72Z"/><path class="cls-2" d="M190.84,26.17a2.7,2.7,0,0,1,2.6,2.38,6.7,6.7,0,0,1-.21,2.1c-.17,1.1-1,1.32-1.77,1.49a2.24,2.24,0,0,1-2.29-.76c-.31-.37-.91-.58-.78-1.23-.86-.37-.52-1.15-.43-1.68a2.42,2.42,0,0,1,.91-1.58A3.78,3.78,0,0,1,190.84,26.17Z"/><path class="cls-28" d="M359.47,29c.13-.82.22-1.64,1.19-2a1.2,1.2,0,0,1,1,0,2.15,2.15,0,0,1,1.25,2.51,1.79,1.79,0,0,1-.71,1.28A1.47,1.47,0,0,1,359.7,30,2.7,2.7,0,0,1,359.47,29Z"/><path class="cls-28" d="M238.65,27.85a1.86,1.86,0,0,1,1.63,1.51c0,.26.2.4.25.61s-.23.36-.25.62a1.92,1.92,0,0,1-1.43,1.58,1.76,1.76,0,0,1-1.68-1,3.19,3.19,0,0,1,0-2.43A1.91,1.91,0,0,1,238.65,27.85Z"/><path class="cls-28" d="M483,28.11a2.64,2.64,0,0,1,.35-1.41c.11-.29.49-.45.79-.63A1.06,1.06,0,0,1,485,26a2.94,2.94,0,0,1,1.18.9c.31.37,0,.94.39,1.28-.38.28-.1.76-.3,1.06a8.14,8.14,0,0,1-.91.95c-.17.17-.38.11-.56.1A2.16,2.16,0,0,1,483,28.47C483,28.35,483,28.23,483,28.11Z"/><path class="cls-28" d="M346.25,29.15c.26-.61.06-1.38.7-1.86a1.47,1.47,0,0,1,2,0,2.32,2.32,0,0,1,.76,2.26,1.7,1.7,0,0,1-.7,1.27A1.45,1.45,0,0,1,346.5,30C346.41,29.73,346.16,29.5,346.25,29.15Z"/><path class="cls-30" d="M292.9,29.33c.4-.56.22-1.5,1.19-1.83a1.48,1.48,0,0,1,2,.73c.62,1.25.57,1.33,0,2.62a1.34,1.34,0,0,1-1.33.83,1.22,1.22,0,0,1-1.37-.78A5.25,5.25,0,0,1,292.9,29.33Z"/><path class="cls-30" d="M432.79,26.41c.44.13.95.18,1.23.85a2.34,2.34,0,0,1,0,2.64,1.31,1.31,0,0,1-1.33.82,1.26,1.26,0,0,1-1.36-.79,2.34,2.34,0,0,1-.05-2.64A1.44,1.44,0,0,1,432.79,26.41Z"/><path class="cls-28" d="M255.43,29.89a1.71,1.71,0,0,1-.69,1.65,1.78,1.78,0,0,1-2.88-1,3.06,3.06,0,0,1,0-1.64A1.87,1.87,0,0,1,254,27.61a2,2,0,0,1,1.45,1.82C255.44,29.55,255.43,29.67,255.43,29.89Z"/><path class="cls-28" d="M264.32,29.88a1.66,1.66,0,0,1-.6,1.57,1.76,1.76,0,0,1-3-.92,2.42,2.42,0,0,1,.09-1.73,1.86,1.86,0,0,1,2-1.19,2,2,0,0,1,1.46,1.93C264.33,29.62,264.32,29.7,264.32,29.88Z"/><path class="cls-28" d="M372.22,29.09a1.82,1.82,0,0,1-3.6.56,7.79,7.79,0,0,1,0-1.08,1.8,1.8,0,0,1,3.59-.06A5.71,5.71,0,0,1,372.22,29.09Z"/><path class="cls-28" d="M381.35,28.91a2,2,0,0,1-.5,1.5c-.44.5-1.11.45-1.6.79-.05,0-.2-.06-.3-.11a1.79,1.79,0,0,1-1.21-1.88,4.56,4.56,0,0,1,.07-1.05,2.2,2.2,0,0,1,2.68-1.25,1.68,1.68,0,0,1,.85,1.3A5.15,5.15,0,0,1,381.35,28.91Z"/><path class="cls-28" d="M412.35,28.91a1.66,1.66,0,0,1-.6,1.57,1.77,1.77,0,0,1-3-.9,2.51,2.51,0,0,1,.09-1.74,1.84,1.84,0,0,1,2-1.19,2,2,0,0,1,1.48,1.92Z"/><path class="cls-30" d="M303.26,29.05h-1.19c-.32,0-.29-.24-.25-.41a1.47,1.47,0,0,1,2.22-1,1.62,1.62,0,0,1,.64,1c.09.23,0,.46-.34.43S303.62,29.05,303.26,29.05Z"/><path class="cls-30" d="M441.19,28.09H440c-.32,0-.3-.26-.24-.41a2.39,2.39,0,0,1,.94-1.15c.49-.32.88,0,1.28.13s.51.63.64,1,0,.46-.35.43S441.55,28.09,441.19,28.09Z"/><path class="cls-30" d="M493.5,27.61c-.35,0-.71,0-1.07,0a.33.33,0,0,1-.3-.48,3.07,3.07,0,0,1,.71-.94A1.4,1.4,0,0,1,495,27.25c0,.24,0,.38-.31.37S493.9,27.61,493.5,27.61Z"/><path class="cls-30" d="M476.31,27.85c-.4,0-.8,0-1.2,0s-.32-.17-.28-.38a1.49,1.49,0,0,1,2.08-1.1c.55.18.52.62.78.92s-.05.55-.43.56Z"/><path class="cls-31" d="M321,30.45c.06.46,0,.92-.35,1-.59.08-1.19.56-1.83,0a.87.87,0,0,1,.09-1.46,1.75,1.75,0,0,1,1.63-.1c.07,0,.13.11.2.11C321.22,30,321.61,30,321,30.45Z"/><path class="cls-2" d="M176.64,80V76.83c1.06,0,2.13,0,3.19,0,.33,0,.53.24.85.28.48.06,1,.83,1,1.28s-.5,1.24-.95,1.31a5.25,5.25,0,0,1-1.33.29A27.4,27.4,0,0,0,176.64,80Z"/><path class="cls-32" d="M176.62,76.11c0-1,0-2,0-2.93,0-.26,0-.45.37-.44.83,0,1.67,0,2.5,0a2,2,0,0,1,1.69,1.33,1.52,1.52,0,0,1-.67,1.6,2.4,2.4,0,0,1-1.37.44C178.33,76.1,177.53,76.11,176.62,76.11Z"/><path class="cls-2" d="M176.4,49.46V45.62c1,0,2-.06,3,0a2.22,2.22,0,0,1,1.73,1,2.13,2.13,0,0,1-1,2.61,3.46,3.46,0,0,1-1.34.22Z"/><path class="cls-28" d="M318.15,76.26a2.23,2.23,0,0,1,3.75-1.73,2.45,2.45,0,0,1,.79,1.67,2.38,2.38,0,0,1-.74,1.69,1.93,1.93,0,0,1-1.51.62,2.45,2.45,0,0,1-1.64-.66A1.85,1.85,0,0,1,318.15,76.26Z"/><path class="cls-28" d="M303.73,103.38a2.24,2.24,0,0,1,2.18-2.31,2.21,2.21,0,0,1,1.63.65,2.3,2.3,0,0,1,.74,1.68,2.57,2.57,0,0,1-.8,1.67,2.2,2.2,0,0,1-1.42.59A2.27,2.27,0,0,1,303.73,103.38Z"/><path class="cls-28" d="M248.71,63a2.25,2.25,0,0,1,2.2-2.29,2.32,2.32,0,0,1,1.54.59,3,3,0,0,1,.82,1.66,5.77,5.77,0,0,1-.72,1.72c-.51.22-.93.63-1.54.61a2.85,2.85,0,0,1-1.64-.66A1.83,1.83,0,0,1,248.71,63Z"/><path class="cls-28" d="M330.65,103.08a2.23,2.23,0,0,1,2.23-2.25,2.2,2.2,0,0,1,1.53.61,2.21,2.21,0,0,1,0,3.35,2.14,2.14,0,0,1-1.52.62A2.24,2.24,0,0,1,330.65,103.08Z"/><path class="cls-28" d="M320.79,89.71A2.26,2.26,0,0,1,323,87.38a2.3,2.3,0,0,1,1.64.64,2.39,2.39,0,0,1,.75,1.68,2.49,2.49,0,0,1-.79,1.67,2.11,2.11,0,0,1-1.41.6A2.26,2.26,0,0,1,320.79,89.71Z"/><path class="cls-28" d="M344.82,62.34a2.24,2.24,0,0,1,3.8-1.69,2.35,2.35,0,0,1,.75,1.68,2.49,2.49,0,0,1-.79,1.67,2.16,2.16,0,0,1-1.41.6A2.26,2.26,0,0,1,344.82,62.34Z"/><path class="cls-32" d="M214.13,77.31c-.23-.7.25-1.23.49-1.81s.93-.63,1.45-.81a1.61,1.61,0,0,1,1.38.37,2.74,2.74,0,0,1,0,4.49,1.57,1.57,0,0,1-1.49.37c-.51-.22-1.19-.22-1.43-1C214.39,78.4,214,77.94,214.13,77.31Z"/><path class="cls-32" d="M277.57,76.81c-.24-.72.22-1.27.52-1.81a2.14,2.14,0,0,1,2.85-.42,3.13,3.13,0,0,1,1.14,2.16,2.88,2.88,0,0,1-.59,1.77,2.27,2.27,0,0,1-1.52.95,2.06,2.06,0,0,1-1.94-.93C277.76,78,277.36,77.48,277.57,76.81Z"/><path class="cls-32" d="M480.62,88.81c-.24-.71.22-1.26.52-1.8a2.13,2.13,0,0,1,2.84-.43,3.1,3.1,0,0,1,1.15,2.16,2.89,2.89,0,0,1-.59,1.78,2.35,2.35,0,0,1-1.52,1,2.05,2.05,0,0,1-1.94-.94C480.81,90,480.41,89.49,480.62,88.81Z"/><path class="cls-32" d="M198.52,104.41c-.26-.72.22-1.26.52-1.8a2.15,2.15,0,0,1,2.85-.42,3.26,3.26,0,0,1,1.13,2,2.78,2.78,0,0,1-.59,1.89,2.51,2.51,0,0,1-1.64,1c-.46.15-.76-.34-1.23-.29-.15,0-.48-.34-.6-.66C198.74,105.58,198.31,105.08,198.52,104.41Z"/><path class="cls-32" d="M454.4,89.12c-.21-.72.27-1.25.5-1.83s.9-.66,1.42-.84a1.73,1.73,0,0,1,1.39.35,2.4,2.4,0,0,1,1,1.45,2.18,2.18,0,0,1,0,1.61,5.7,5.7,0,0,0-.4.91c-.18.82-.93.87-1.5.91a1.77,1.77,0,0,1-1.73-.86c-.17-.29-.14-.68-.61-.83C454.2,89.88,454.51,89.4,454.4,89.12Z"/><path class="cls-32" d="M265.53,90.36c-.16-.48.19-1,.32-1.46a1.75,1.75,0,0,1,1.72-1.24,2.14,2.14,0,0,1,2.05,1.2,2.71,2.71,0,0,1-.6,3.56,2,2,0,0,1-3-.49C265.59,91.05,265.53,91.08,265.53,90.36Z"/><path class="cls-28" d="M411.87,89.34a4.52,4.52,0,0,1-.51,1.79c-.2.59-.87.62-1.34.8a1.32,1.32,0,0,1-1.32-.22c-.46-.4-1.11-.69-1.14-1.39,0-.53-.66-1.07,0-1.6-.11-1.08.7-1.47,1.43-1.91a1.3,1.3,0,0,1,1.21,0A2.56,2.56,0,0,1,411.87,89.34Z"/><path class="cls-28" d="M360.4,89.47a4.05,4.05,0,0,1-.48,2.15c-.21.58-.87.6-1.34.78a1.27,1.27,0,0,1-1.32-.21c-.44-.41-1.1-.69-1.13-1.41,0-.53-.63-1.07,0-1.6-.2-.85.47-1.23,1-1.63a1.31,1.31,0,0,1,1.78-.17C360.25,87.62,360.17,88.83,360.4,89.47Z"/><path class="cls-28" d="M500.07,88.76a3.83,3.83,0,0,1-.56,1.91,2,2,0,0,1-2.75.49c-.41-.37-1-.65-1-1.36,0-.54-.58-1.07,0-1.6-.18-.84.51-1.19,1-1.63a1.39,1.39,0,0,1,1.39-.35c.76.27,1.61.53,1.72,1.54C499.85,88.14,500.23,88.43,500.07,88.76Z"/><path class="cls-28" d="M237.4,77a4.08,4.08,0,0,1-.51,1.87.88.88,0,0,1-.69.59c-.55,0-1,.41-1.66.17a2,2,0,0,1-1.46-1.45c-.13-.55-.44-1.07,0-1.6-.17-.63.33-.91.67-1.27a2.66,2.66,0,0,1,1.28-.68,2,2,0,0,1,1.5.29,1.2,1.2,0,0,1,.61,1C237.19,76.34,237.58,76.63,237.4,77Z"/><path class="cls-28" d="M339.77,89.74a3.76,3.76,0,0,1-.49,1.82c-.23.61-.9.7-1.41.85a1.58,1.58,0,0,1-1.51-.38,2.66,2.66,0,0,1-1.08-1.83,2.59,2.59,0,0,1,2.34-3,2.22,2.22,0,0,1,1.89,1.48C339.59,89,340.05,89.37,339.77,89.74Z"/><path class="cls-28" d="M207.39,90.64a3.86,3.86,0,0,1-.56,2,2,2,0,0,1-2.74.49c-.42-.37-1-.65-1-1.36,0-.54-.58-1.07,0-1.6-.18-.84.51-1.19,1-1.63a1.39,1.39,0,0,1,1.39-.35c.76.27,1.62.53,1.71,1.54C207.15,90.07,207.69,90.32,207.39,90.64Z"/><path class="cls-33" d="M261.4,90.49h-3.75a24.93,24.93,0,0,1,1.26-2.85,4.44,4.44,0,0,0,.36-.8c.06-.17,0-.41.27-.4s.17.19.23.32C260.35,88,260.92,89.19,261.4,90.49Z"/><path class="cls-33" d="M419.28,103c.52-.19,1,.36,1.53.25.21,0,.19.19.19.35a1.79,1.79,0,0,1-.53,1.43,2.06,2.06,0,0,1-2,.55c-.27-.12-.57-.14-.84-.28s-.1-.62-.34-.83,0-.21,0-.34A1.74,1.74,0,0,1,419.28,103Z"/><path class="cls-33" d="M511.53,88.84a2.27,2.27,0,0,1-.28,1.61c-.17.47-.81.51-1.23.74a1.58,1.58,0,0,1-1.12-.07c-.55-.19-1-.32-1-1,0-.1-.11-.16,0-.34a1.89,1.89,0,0,1,1.66-1.18C510.23,88.5,510.81,88.92,511.53,88.84Z"/><path class="cls-33" d="M387.58,103.24c.51-.15,1,.37,1.53.26.19,0,.17.21.17.36a2,2,0,0,1-2.73,1.87,1.18,1.18,0,0,1-1-1c-.05-.18,0-.22.07-.34A1.75,1.75,0,0,1,387.58,103.24Z"/><path class="cls-33" d="M359.11,106.12c-.46.16-.76-.29-1.21-.29s-.52-1-.34-1.3a2,2,0,0,1,2.63-.94c.1,0,.2.11.3.13.81.17.81.17.51,1-.11.31,0,.79-.43.88S359.7,106.27,359.11,106.12Z"/><path class="cls-33" d="M306.55,76.8c.21.72-.18,1.2-.32,1.74-.74.37-1.42,1.11-2.36.47-.7.09-.86-.34-.92-.9,0-.11-.15-.15-.05-.35a2,2,0,0,1,1.66-1.19C305.25,76.49,305.83,77,306.55,76.8Z"/><path class="cls-33" d="M242.69,77.07c.48-.2.92.36,1.49.25.21,0,.2.18.2.34a2,2,0,0,1-2.7,1.91c-.6-.17-.94-.36-1-1,0-.12-.07-.18,0-.34A1.82,1.82,0,0,1,242.69,77.07Z"/><path class="cls-33" d="M302,90c.49-.21.94.35,1.5.25.22,0,.2.17.2.33a2,2,0,0,1-2.7,1.92c-.6-.17-.94-.37-1-1a.6.6,0,0,1,0-.35A1.8,1.8,0,0,1,302,90Z"/><path class="cls-33" d="M249.61,77c.35-.07.8.44,1.37.32.09,0,.34.26.35.41a1.72,1.72,0,0,1-.46,1.34,2.54,2.54,0,0,1-2.74.38,1.32,1.32,0,0,1-.41-1.3C248,77.36,248.63,77.12,249.61,77Z"/><path class="cls-30" d="M201.8,77.3c.5,0,.84.38,1.3.27.2,0,.19.18.19.33a2,2,0,0,1-1.8,2c-.31,0-.66.51-1,0-.85.18-.7-.61-1-1-.13-.18.07-.17.1-.26C200,77.59,201,77.64,201.8,77.3Z"/><path class="cls-33" d="M431.73,89.32c.27,0,.6-.13.86.16a.3.3,0,0,0,.31,0c.16-.11.3-.32.49-.17s.12.45.09.66A2.24,2.24,0,0,1,431.2,92c-.34,0-.59-.28-1-.29s-.49-.94-.35-1.3A1.66,1.66,0,0,1,431.73,89.32Z"/><path class="cls-29" d="M226.51,76.83h-3.89c-.26,0-.37-.07-.35-.34a2.65,2.65,0,0,1,1.7-1.83,1.92,1.92,0,0,1,2,1.08C226.16,76.09,225.93,76.53,226.51,76.83Z"/><path class="cls-29" d="M292.56,62.67c-1.42,0-2.65,0-3.88,0-.41,0-.38-.27-.32-.47a2.52,2.52,0,0,1,1.6-1.67A1.84,1.84,0,0,1,292.19,62c0,.14,0,.31.14.42S292.39,62.5,292.56,62.67Z"/><path class="cls-29" d="M299.69,62.64h-4.07a2.31,2.31,0,0,1,1.6-2.13,1.94,1.94,0,0,1,1.69.56C299.35,61.48,299.31,62.11,299.69,62.64Z"/><path class="cls-29" d="M364.51,75.87h-3.59c-.47,0-.63-.23-.42-.64A2.79,2.79,0,0,1,361.62,74a1.7,1.7,0,0,1,2.42.73C364.21,75.05,364.34,75.42,364.51,75.87Z"/><path class="cls-29" d="M189,77.07h-3.88c-.26,0-.36-.1-.33-.35a2.63,2.63,0,0,1,1.71-1.82A1.88,1.88,0,0,1,188.45,76C188.66,76.34,188.47,76.76,189,77.07Z"/><path class="cls-29" d="M489.71,102h-3.59c-.47,0-.63-.22-.43-.64a2.81,2.81,0,0,1,1.13-1.28,1.71,1.71,0,0,1,2.42.73C489.4,101.22,489.53,101.59,489.71,102Z"/><path class="cls-29" d="M340.86,103c-.56,0-1.12,0-1.68,0-.37,0-.41-.18-.36-.43a2.45,2.45,0,0,1,1.92-1.74,1.84,1.84,0,0,1,1.92,1.59c0,.11,0,.23.1.32s.13.25-.1.25Z"/><path class="cls-29" d="M239,90c-1.49,0-2.73,0-4,0-.41,0-.36-.29-.3-.48a2.54,2.54,0,0,1,1.61-1.66,1.81,1.81,0,0,1,2.21,1.5A.88.88,0,0,0,239,90Z"/><path class="cls-29" d="M277.82,89.77h-4.07a2.32,2.32,0,0,1,1.6-2.13,1.93,1.93,0,0,1,1.69.56C277.49,88.61,277.44,89.24,277.82,89.77Z"/><path class="cls-29" d="M525.89,88.12c-1.41,0-2.65,0-3.88,0-.26,0-.36-.09-.33-.34A2.59,2.59,0,0,1,523.39,86a1.87,1.87,0,0,1,2,1.09C525.56,87.39,525.37,87.81,525.89,88.12Z"/><path class="cls-29" d="M389.74,89.08h-3.58c-.48,0-.64-.23-.43-.65a2.89,2.89,0,0,1,1.12-1.28,1.7,1.7,0,0,1,2.42.74C389.44,88.25,389.57,88.63,389.74,89.08Z"/><path class="cls-29" d="M254,103.72c-1.27,0-2.43,0-3.59,0-.47,0-.63-.22-.43-.64a2.86,2.86,0,0,1,1.13-1.28,1.71,1.71,0,0,1,2.42.73C253.67,102.9,253.8,103.27,254,103.72Z"/><path class="cls-29" d="M315.44,62.39h-4a2.34,2.34,0,0,1,1.62-2.12,1.89,1.89,0,0,1,1.68.57A4.08,4.08,0,0,1,315.44,62.39Z"/><path class="cls-29" d="M472.11,102h-3.83c-.37,0-.57-.29-.41-.6a2.8,2.8,0,0,1,1.61-1.54,1.82,1.82,0,0,1,2.21,1.52A.89.89,0,0,0,472.11,102Z"/><path class="cls-29" d="M273.92,103.48h-3.59c-.47,0-.63-.22-.42-.64a2.79,2.79,0,0,1,1.12-1.28,1.7,1.7,0,0,1,2.42.74C273.62,102.66,273.75,103,273.92,103.48Z"/><path class="cls-29" d="M419.3,88.84h-3.59c-.47,0-.63-.23-.43-.65a3,3,0,0,1,1.13-1.28,1.7,1.7,0,0,1,2.42.74C419,88,419.12,88.39,419.3,88.84Z"/><path class="cls-29" d="M474.09,88.36H470.5c-.47,0-.63-.23-.43-.65a3,3,0,0,1,1.13-1.28,1.71,1.71,0,0,1,2.42.74C473.78,87.53,473.91,87.91,474.09,88.36Z"/><path class="cls-29" d="M435.19,102.28c-1.3,0-2.46,0-3.62,0-.47,0-.63-.22-.43-.64a2.55,2.55,0,0,1,1.63-1.5,1.83,1.83,0,0,1,2.14,1.46A3.78,3.78,0,0,0,435.19,102.28Z"/><path class="cls-33" d="M271.28,76.35a15.12,15.12,0,0,0-2.25,0,5.48,5.48,0,0,1-1.46.21.38.38,0,0,1-.36-.54,3.3,3.3,0,0,1,2.17-1.84c.41-.16,1.13.36,1.43,1C271,75.51,271.1,75.9,271.28,76.35Z"/><path class="cls-29" d="M371,89.08h-3.59c-.47,0-.63-.23-.43-.65a3,3,0,0,1,1.13-1.28,1.7,1.7,0,0,1,2.42.74C370.7,88.25,370.83,88.63,371,89.08Z"/><path class="cls-29" d="M235.53,103.72c-1.35,0-2.55,0-3.75,0-.36,0-.42-.15-.37-.42a2.75,2.75,0,0,1,1.67-1.75,1.9,1.9,0,0,1,2.15,1.47A1.9,1.9,0,0,0,235.53,103.72Z"/><path class="cls-33" d="M221.91,104c-1.31,0-2.42,0-3.53,0-.44,0-.62-.44-.44-.88a2.06,2.06,0,0,1,1.52-1.26,1.8,1.8,0,0,1,2.08,1.51c.05.15,0,.32.16.42S221.76,103.81,221.91,104Z"/><path class="cls-2" d="M187.67,104.76c.21.61-.29,1.14-.5,1.72s-.77.6-1.23.76a2.06,2.06,0,0,1-1.31-.11,2.16,2.16,0,0,1-1.44-1.56,2.81,2.81,0,0,1,.15-2.14,2.25,2.25,0,0,1,2.35-1.39,2.65,2.65,0,0,1,2,2.26Z"/><path class="cls-2" d="M215.3,90.63c-.21-.62.27-1.15.55-1.7a2.06,2.06,0,0,1,2.35-.7,2.33,2.33,0,0,1,1.56,1.59,3.1,3.1,0,0,1-.13,2.24,2.34,2.34,0,0,1-2.4,1.34,2.71,2.71,0,0,1-1.93-2.31Z"/><path class="cls-2" d="M269.86,63.52c.21.6-.32,1.11-.53,1.69s-.8.57-1.24.75a1.91,1.91,0,0,1-1.21-.1c-2-.56-2-3.4-.8-4.61.33-.34.77-.26,1.14-.47a1.31,1.31,0,0,1,1,.1A2.46,2.46,0,0,1,269.86,63.52Z"/><path class="cls-2" d="M352.28,90c.2.58-.26,1.13-.55,1.67a2.09,2.09,0,0,1-2.43.64c-2-.55-2-3.4-.79-4.61.33-.33.77-.25,1.13-.46a1.4,1.4,0,0,1,1,.1A2.5,2.5,0,0,1,352.28,90Z"/><path class="cls-2" d="M319.85,103.87c.19.56-.31,1.08-.53,1.67s-.79.57-1.23.75a1.85,1.85,0,0,1-1.22-.09c-2-.59-2-3.38-.82-4.6.33-.35.77-.29,1.13-.48a1.34,1.34,0,0,1,1,.09A2.5,2.5,0,0,1,319.85,103.87Z"/><path class="cls-2" d="M339.06,76.43c.17.57-.23,1.08-.49,1.61a1.2,1.2,0,0,1-.83.73c-1,.26-1.06.3-1.63,0l-.41-.17a1.82,1.82,0,0,1-1.21-1.84,3,3,0,0,1,.42-1.75c.28-.44.47-.8,1.07-.9.26,0,.41-.49.86-.46a4.16,4.16,0,0,1,1,.4c.84.29.94,1.08,1.17,1.77A2,2,0,0,1,339.06,76.43Z"/><path class="cls-2" d="M203.77,50.3c-.21-.62.31-1.13.53-1.71s.8-.56,1.24-.74a1.15,1.15,0,0,1,1.2.12c.26.2.63.25.89.44a2.73,2.73,0,0,1,.59,2.75,3.92,3.92,0,0,1-1.6,1.83.58.58,0,0,1-.33.07,2.46,2.46,0,0,1-2.52-2.19C203.76,50.71,203.77,50.55,203.77,50.3Z"/><path class="cls-2" d="M464.49,102.46a3.1,3.1,0,0,1-1.73,2.88.71.71,0,0,1-.45.06,2.43,2.43,0,0,1-2.38-2.2,3,3,0,0,1,.41-2c.27-.39.44-.74,1-.88s1.12-.38,1.73,0,1,.49,1.32,1.13A4.78,4.78,0,0,1,464.49,102.46Z"/><path class="cls-3" d="M440.22,91.24q.25,0,.24.24Q440.21,91.48,440.22,91.24Z"/><path class="cls-34" d="M121.37,54.37c-.1-.53.36-.8.24-1.21,0,0,.06,0,.08-.08.2-.35.54-.28.84-.25a1.87,1.87,0,0,1,1,1.05c0,.33,0,.65-.32.81a2.22,2.22,0,0,1-1.68.05C121.24,54.66,121.38,54.42,121.37,54.37Z"/></g></g></svg>