<svg xmlns="http://www.w3.org/2000/svg" viewBox="0 0 580.08 126.24"><defs><style>.cls-1{fill:#fefefe;}.cls-2{fill:#f6e7e6;}.cls-3{fill:#f9efee;}.cls-4{fill:#fbf6f6;}.cls-5{fill:#faf2f1;}.cls-6{fill:#faf1f0;}.cls-7{fill:#f4e0de;}.cls-8{fill:#122c70;}.cls-9{fill:#132c70;}.cls-10{fill:#132d70;}.cls-11{fill:#142d70;}.cls-12{fill:#162e71;}.cls-13{fill:#152e71;}.cls-14{fill:#183072;}.cls-15{fill:#162f71;}.cls-16{fill:#142e71;}.cls-17{fill:#142d71;}.cls-18{fill:#1b3273;}.cls-19{fill:#1f3575;}.cls-20{fill:#1c3374;}.cls-21{fill:#172f72;}.cls-22{fill:#203575;}.cls-23{fill:#223776;}.cls-24{fill:#253977;}.cls-25{fill:#253978;}.cls-26{fill:#f69890;}.cls-27{fill:#0f0e0e;}.cls-28{fill:#efc9cb;}.cls-29{fill:#f6cece;}.cls-30{fill:#f0c9cb;}.cls-31{fill:#ebc5c9;}.cls-32{fill:#f3dfde;}.cls-33{fill:#f2dedd;}.cls-34{fill:#eddada;}.cls-35{fill:#f3e0de;}.cls-36{fill:#f2dfdd;}.cls-37{fill:#f3dfdd;}.cls-38{fill:#040404;}</style></defs><g id="Layer_2" data-name="Layer 2"><g id="Layer_1-2" data-name="Layer 1"><path class="cls-1" d="M580.08,102.3v33.06H0V0H23.27a.29.29,0,0,1-.12.39,35,35,0,0,1-4.29,1.08A25.37,25.37,0,0,0,.81,24c-.16,2.64-.18,5.27-.19,7.9q0,33.78,0,67.55c0,5,.89,9.8,3.61,14.09,5,7.85,12,12.35,21.43,12.36q264.53.06,529.06,0a25.24,25.24,0,0,0,24.5-21.37,6.53,6.53,0,0,1,.46-2.09A.29.29,0,0,1,580.08,102.3Z"/><path class="cls-1" d="M557.05,0h23V24a.24.24,0,0,1-.33,0,5.66,5.66,0,0,1-.42-1.85A25.29,25.29,0,0,0,558.79.8a4.69,4.69,0,0,1-1.72-.47A.25.25,0,0,1,557.05,0Z"/><path class="cls-2" d="M24.47,0H555.61a.31.31,0,0,1-.14.4,5.07,5.07,0,0,1-2.25.23H27.35A6.7,6.7,0,0,1,24.61.4.3.3,0,0,1,24.47,0Z"/><path class="cls-3" d="M580.08,25.39V101.1a.3.3,0,0,1-.4-.14,3.66,3.66,0,0,1-.23-1.76V27.3a3.64,3.64,0,0,1,.23-1.76A.3.3,0,0,1,580.08,25.39Z"/><path class="cls-4" d="M580.08,25.39h-.24a1,1,0,0,1,0-1.43h.24Z"/><path class="cls-5" d="M555.61.24V0h1.44V.24A1,1,0,0,1,555.61.24Z"/><path class="cls-4" d="M579.84,101.1h.24v1.2h-.24A.83.83,0,0,1,579.84,101.1Z"/><path class="cls-6" d="M24.47,0V.24a.83.83,0,0,1-1.2,0V0Z"/><path class="cls-7" d="M23.27.24H557.05a1.72,1.72,0,0,1,.6,0c.89.34,1.85.3,2.76.56,1.39.39,2.76.86,4.11,1.37a11.4,11.4,0,0,1,2.27,1.18c.71.5,1.46.93,2.19,1.39.44.29.83.66,1.27,1a14.2,14.2,0,0,1,2.37,2.09,21.88,21.88,0,0,1,3.53,4.52,27.4,27.4,0,0,1,3.4,9,7.38,7.38,0,0,1,.29,2.65V102.3a25.57,25.57,0,0,1-1.33,6.75,28.52,28.52,0,0,1-3.53,6.8,21.5,21.5,0,0,1-3,3.31,26.42,26.42,0,0,1-3.6,2.9,27.6,27.6,0,0,1-6.81,3.23,8.66,8.66,0,0,1-1.85.47c-.65.06-1.25.43-1.93.26-2.23.51-4.5.22-6.74.22q-263.38,0-526.76,0a4,4,0,0,1-1.59-.22c-.44-.19-1,.21-1.45-.26a17.07,17.07,0,0,1-4.43-1.18A20.57,20.57,0,0,1,14,123.3a24.51,24.51,0,0,1-3.6-2.32c-.82-.59-1.52-1.31-2.29-1.93a19.23,19.23,0,0,1-2.43-2.8,25.64,25.64,0,0,1-2.54-4,23.38,23.38,0,0,1-1.93-5.19c-.21-.8-.34-1.62-.51-2.43s-.07-1.71-.22-2.54a41.24,41.24,0,0,1-.2-7.45Q.22,60.81.22,27c0-1.54.31-3,.31-4.57A9.48,9.48,0,0,1,1,19.75c.24-.82.45-1.65.76-2.45a26.52,26.52,0,0,1,1.83-4A31.65,31.65,0,0,1,6.13,9.52a20.94,20.94,0,0,1,2.5-2.65A23.48,23.48,0,0,1,12.75,3.8c.68-.37,1.35-.79,2-1.15A20.9,20.9,0,0,1,19.25,1C20,.77,20.8.66,21.56.47A5,5,0,0,1,23.27.24Z"/><path class="cls-1" d="M84.26,116.19q-26.64,0-53.26,0c-1.29,0-2.5-.42-3.76-.5-.54-.45-1.31-.23-1.89-.65s-1.25-.44-1.84-.77A25.58,25.58,0,0,1,20.13,112a17.84,17.84,0,0,1-1.83-1.64,18.53,18.53,0,0,1-3.61-5.57,21.66,21.66,0,0,1-1-3.52c-.16-.66-.12-1.31-.23-2-.45-2.43-.16-4.88-.21-7.33s0-4.87,0-7.3q0-27.79,0-55.58a20.61,20.61,0,0,1,1.17-6.81A32.68,32.68,0,0,1,17,17.64a23.81,23.81,0,0,1,2.83-3,12.91,12.91,0,0,1,2.57-1.87A17.57,17.57,0,0,1,26.56,11c.58-.16,1.15-.31,1.74-.44a40.51,40.51,0,0,1,8.8-.45q49.65,0,99.31,0c1,0,2,.24,3,.29a17.28,17.28,0,0,1,2.72.63,16.36,16.36,0,0,1,3.31,1.29,18.32,18.32,0,0,1,2.95,1.87,15.31,15.31,0,0,1,2.49,2.33,18.34,18.34,0,0,1,3.61,6.17c.39,1.13.56,2.31.94,3.44a2.47,2.47,0,0,1,0,.72q0,36.35,0,72.7a10.32,10.32,0,0,1-.46,2.68,17.82,17.82,0,0,1-1.45,4,14,14,0,0,1-2.53,3.62c-.35.33-.52.78-.85,1.09a8.33,8.33,0,0,0-1.33,1.11,5.44,5.44,0,0,1-1.36,1.08,12.45,12.45,0,0,1-2.31,1.35,32.07,32.07,0,0,1-3,1.11c-.75.24-1.55.35-2.31.53a18.21,18.21,0,0,1-4.23.18Q109.93,116.21,84.26,116.19Z"/><path class="cls-8" d="M227.79,51c-1.2,0-2.39,0-3.59,0a1.48,1.48,0,0,1-1.44-.78c-.19-.43-.55-.88-.18-1.56.53-1,1.77-3.77,2.25-4.56s.76-1.52,1.17-2.26c.16-.29.32-.59.51-.87a1.37,1.37,0,0,1,1.59-.49,1.5,1.5,0,0,1,1.08.83c1.19,2.18,2.28,4.4,3.45,6.58a3.34,3.34,0,0,1,.3,1.9c0,.38-.55.53-.58,1-.32-.05-.51.28-.85.26C230.26,51,229,51,227.79,51Z"/><path class="cls-8" d="M239.59,51c-1.2,0-2.4,0-3.59,0a1.55,1.55,0,0,1-1.62-1.64,2.94,2.94,0,0,1,.23-1.22c1.15-2.19,2.28-4.38,3.34-6.62a1.72,1.72,0,0,1,1.47-1.06,1.62,1.62,0,0,1,1.7,1.06c.75,1.56,1.63,3.06,2.35,4.64a18.4,18.4,0,0,1,1,1.84,2.68,2.68,0,0,1,.08,2.06,1.44,1.44,0,0,1-1.41.92C242,51.05,240.78,51,239.59,51Z"/><path class="cls-8" d="M216,51c-1.16,0-2.32,0-3.48,0a1.93,1.93,0,0,1-1.35-.51c-.42-.35-.38-.88-.56-1.32a.83.83,0,0,1,.15-.65c.93-1.77,1.78-3.58,2.73-5.33A11.85,11.85,0,0,1,215,40.81a1.37,1.37,0,0,1,1.42-.29,1.19,1.19,0,0,1,1,.67c.38.88.81,1.75,1.26,2.6q1.13,2.12,2.29,4.2a3.22,3.22,0,0,1,.27,1.8c0,.39-1,1.23-1.42,1.24Z"/><path class="cls-8" d="M286.35,28.42c.46-1.4.89-2.65,1.28-3.93.07-.25.15-.3.38-.3.48,0,1,0,1.47,0,.57,1.31.9,2.72,1.39,4.22.41-1.47.78-2.79,1.17-4.17h2.08c-.28,1.1-.7,2.12-1,3.18a12,12,0,0,1-.53,1.81A9.58,9.58,0,0,0,292,31c-.05.2,0,.4-.31.36-.54-.06-1.15.21-1.61-.14s-.37-.87-.52-1.33-.33-.83-.43-1.25-.53-.8-.06-1.44c-.82.36-.73.93-.9,1.34-.31.75-.5,1.55-.74,2.33a.56.56,0,0,1-.55.49.24.24,0,0,1-.12,0c-.5-.06-1.15.25-1.45-.17a3.65,3.65,0,0,1-.45-1.35A13.42,13.42,0,0,0,284,27.2c-.2-.49-.18-1-.42-1.51a11.37,11.37,0,0,1-.48-1.49h1.43c.65,0,.75.06.93.72C285.77,26,286,27.15,286.35,28.42Z"/><path class="cls-8" d="M178.68,31.36H176.6V27.6h-3.86v3.74h-1.81a83.92,83.92,0,0,1-.08-9.26h1.85V25.6h3.85V22.07h2.13Z"/><path class="cls-8" d="M193.84,24.6v-3H196c.08,1.57,0,3.19,0,4.81s0,3.26,0,5c-.58,0-1.12,0-1.67,0s-.43,0-.54-.66c-.23,0-.29.19-.41.3a2.65,2.65,0,0,1-2.77.39,3.38,3.38,0,0,1-2.09-2.58,4.48,4.48,0,0,1,.43-3.24A3,3,0,0,1,193,24.27C193.26,24.39,193.59,24.37,193.84,24.6Z"/><path class="cls-8" d="M361.73,31.38c-.51,0-1,0-1.46,0s-.6,0-.75-.68c-.35.15-.51.53-.88.7a3.14,3.14,0,0,1-3.82-1.17,5.39,5.39,0,0,1-.71-2.57,4.72,4.72,0,0,1,1.09-2.77,3.07,3.07,0,0,1,3.67-.6l.7.37V21.59c.73-.06,1.43,0,2.16,0Z"/><path class="cls-8" d="M230.55,31v2.57h-1.88V24.23c.37,0,.8,0,1.22,0,.59,0,.59,0,.75.69a3.4,3.4,0,0,1,2.47-.94,3.59,3.59,0,0,1,2.25,1.27,3.18,3.18,0,0,1,.7,2.34,6.55,6.55,0,0,1-.21,2,3.08,3.08,0,0,1-4.31,1.79c-.26-.14-.53-.26-.8-.39C230.72,30.9,230.67,30.92,230.55,31Z"/><path class="cls-8" d="M239.9,31.36H238V21.62h1.86V25c.27-.23.45-.5.64-.51s.41-.19.61-.28a2.29,2.29,0,0,1,3.17,1.15,1.26,1.26,0,0,1,.16.53v5.5h-1.92c0-1.27,0-2.54,0-3.8a2.34,2.34,0,0,0-.29-1.08,1.09,1.09,0,0,0-1.29-.6,1.14,1.14,0,0,0-.88.93,4.72,4.72,0,0,0-.2,1.23Z"/><path class="cls-8" d="M329.38,31.35h-1.92c0-1.25,0-2.51,0-3.77a2.26,2.26,0,0,0-.28-1.09,1.15,1.15,0,0,0-2.16.31,4.68,4.68,0,0,0-.22,1.22c0,1.11,0,2.22,0,3.34H323V21.59c.57-.06,1.18,0,1.84,0V25a7.17,7.17,0,0,1,1.25-.78,2.27,2.27,0,0,1,3.17,1.13,1.2,1.2,0,0,1,.18.52C329.38,27.67,329.38,29.5,329.38,31.35Z"/><path class="cls-9" d="M207.07,31.62a3.75,3.75,0,0,1-3.83-3.8,3.86,3.86,0,0,1,4-3.89,4,4,0,0,1,3.9,3.95C211.11,29.71,209.16,31.87,207.07,31.62Z"/><path class="cls-9" d="M334.93,31.62a3.76,3.76,0,0,1-3.83-3.8,3.88,3.88,0,0,1,4-3.89,4,4,0,0,1,3.89,4C339,29.71,337,31.87,334.93,31.62Z"/><path class="cls-9" d="M343.9,31.62A3.77,3.77,0,0,1,340,27.79a3.87,3.87,0,0,1,3.92-3.86,4,4,0,0,1,4,3.86C347.91,29.67,345.93,31.83,343.9,31.62Z"/><path class="cls-9" d="M315.68,28.51h-4.86s-.07,0-.15.11c0,.76.65.93,1.19,1.19.92.45,1.56-.24,2.35-.55.15.15.32.37.53.55.54.46.56.47.06.92a3.61,3.61,0,0,1-2.25.92,3.76,3.76,0,0,1-3.45-1.77,3.19,3.19,0,0,1-.54-2.61c.14-.54.1-1.21.58-1.66a6,6,0,0,1,1.91-1.46,3.31,3.31,0,0,1,4,1.34A4.48,4.48,0,0,1,315.68,28.51Z"/><path class="cls-9" d="M227.13,28.55h-5c.09.73.6.95,1.13,1.21a1.2,1.2,0,0,0,1.39,0c.11-.08.29,0,.41-.18s.45-.1.57-.32l.43.42a1,1,0,0,0,.47.3c.26.05.24.27.08.44A3.68,3.68,0,0,1,224,31.65a3.81,3.81,0,0,1-3.44-1.79,3.25,3.25,0,0,1-.55-2.49A4.39,4.39,0,0,1,221.2,25,3.41,3.41,0,0,1,227,26.39,4.64,4.64,0,0,1,227.13,28.55Z"/><path class="cls-10" d="M246.37,24.77a7,7,0,0,1,3.23-.59,2.91,2.91,0,0,1,1.72.48,3.11,3.11,0,0,1,1.06,1.48c.48,1.7.1,3.44.27,5.24h-1.82c-.22,0-.39,0-.38-.3,0-.07,0-.29-.2-.1-.64.78-1.53.61-2.37.64a2.38,2.38,0,0,1-2-2,2.3,2.3,0,0,1,2.44-2.53c.48,0,1,0,1.44,0,.26,0,.41.13.64.24,0-.32.18-.65,0-.9a1.31,1.31,0,0,0-1.09-.51c-.45,0-.93-.21-1.36.21-.12.11-.46,0-.7,0s-.37-.05-.36-.32A1.49,1.49,0,0,0,246.37,24.77Z"/><path class="cls-10" d="M301.56,31.38c-.69,0-1.25,0-1.81,0-.24,0-.37-.05-.36-.32,0-.09-.09-.22-.22-.06-.68.81-1.62.67-2.49.59a2.22,2.22,0,0,1-1.84-1.9c-.25-1.7,1.09-2.55,2.45-2.62.48,0,1,0,1.44,0a.59.59,0,0,1,.59.26c0-.4.25-.78-.11-1a1.4,1.4,0,0,0-1-.42c-.45.06-.93-.17-1.36.22-.13.11-.46,0-.7,0s-.34-.09-.34-.34c0-.4-.29-.67-.45-1a3.43,3.43,0,0,1,1.67-.53,7.59,7.59,0,0,1,2.38,0c.81.07,1.7,1.14,1.95,1.94a8.74,8.74,0,0,1,.21,2.54C301.56,29.56,301.56,30.43,301.56,31.38Z"/><path class="cls-9" d="M183.61,28.76c.52-.26.42-.81.61-1.21.3-.63.38-1.34.68-2a10.78,10.78,0,0,0,.44-1.36h1.79c.24,0,.23.16.23.32s0,.18,0,.23A31.15,31.15,0,0,0,186,28.13a24,24,0,0,0-1.22,3.32,6.64,6.64,0,0,1-.54,1.21,1.62,1.62,0,0,1-1.51.88,5.05,5.05,0,0,1-1.71-.21c-.3-.11-.32-.2-.36-.45s.22-.64.34-1,.32-.5.64-.18.53.11.79.1.41-.42.29-.7c-.56-1.33-1.13-2.64-1.57-4-.19-.59-.48-1.15-.71-1.73-.15-.37-.29-.75-.47-1.2H181c1.19,0,1.21,0,1.55,1.06S183.26,27.59,183.61,28.76Z"/><path class="cls-8" d="M262.93,24.23h1.89v7.15c-.45,0-.92,0-1.38,0s-.54-.11-.53-.53c0-.27-.23-.26-.41-.11s-.28.29-.43.41a2.11,2.11,0,0,1-2.26.32,2.07,2.07,0,0,1-1.44-2c0-1.71,0-3.43,0-5.24.61-.07,1.23,0,1.92,0V28a1.47,1.47,0,0,0,.22.87c.53.86,1.06,1.07,1.84.54.17-.12.43-.27.34-.57-.15-.46.35-.75.26-1.22a7.15,7.15,0,0,1,0-1.31Z"/><path class="cls-10" d="M271.81,25c0,.11,0,.22,0,.26-.37.34-.3,1.05-.76,1.21s-.83-.33-1.29-.45a2.7,2.7,0,0,0-.88-.14c-.15,0-.33.22-.41.38s.11.38.27.47c.57.34,1.25.42,1.83.79.15.09.42.19.59.29a1.9,1.9,0,0,1,.49,2.87,2.54,2.54,0,0,1-1.87.93,3.81,3.81,0,0,0-.48,0,4.37,4.37,0,0,1-2.67-.77c-.41-.19-.44-.57-.15-1,.09-.13.28-.24.29-.36,0-.52.51-.35.59-.28.4.35.92.34,1.33.58a1.75,1.75,0,0,0,1,.1c.14,0,.33-.22.41-.38s-.11-.39-.27-.46a5.66,5.66,0,0,0-1.44-.56,2.64,2.64,0,0,1-1.74-1.25,1.86,1.86,0,0,1,0-1.66,2.16,2.16,0,0,1,2-1.4,2.79,2.79,0,0,1,1.73.13A14.69,14.69,0,0,0,271.81,25Z"/><path class="cls-10" d="M352,31.36h-2.2c0-1.6,0-3.19,0-4.77,0-.4.1-.84-.56-.73-.11,0-.17-.11-.17-.25,0-.4,0-.8,0-1.19,0-.07.07-.2.09-.19.91.07.5-.63.64-1a2.43,2.43,0,0,1,.64-1.13,2.15,2.15,0,0,1,1.45-.54c1.9.07,1.74-.1,1.73,1.74a1,1,0,0,1,0,.17c-.38.2-.64-.35-1.05-.22s-.55.25-.59.59,0,.4.27.39h1.36v1.62c-.47.17-1,0-1.59.1Z"/><path class="cls-10" d="M303.71,22.31h2.15v1.88h1.65v1.64h-1.64v2.92c0,.9.28,1.17,1.13.86.37-.14.46.09.5.19a1.25,1.25,0,0,1-1.32,1.81,3.23,3.23,0,0,1-1.27-.09,1.9,1.9,0,0,1-1.18-1.89c-.07-1.11,0-2.23,0-3.34,0-.18.07-.44-.25-.41s-.51-.07-.47-.45a7.53,7.53,0,0,0,0-.95c0-.19.07-.31.27-.28.37.05.48-.1.46-.46S303.71,22.8,303.71,22.31Z"/><path class="cls-10" d="M216.3,24a3.64,3.64,0,0,1,2.57.9c.18.13,0,.2,0,.35a2.45,2.45,0,0,1-.6.82c-.28.34-.46.37-.85.06a1.64,1.64,0,0,0-2.76.68,2.21,2.21,0,0,0,1,3,1.61,1.61,0,0,0,1.87-.38c.27-.24.45-.26.67,0a3.07,3.07,0,0,0,.25.26c.81.79.83.83-.21,1.41a3.8,3.8,0,0,1-5.68-2.21A4.16,4.16,0,0,1,215.07,24,3.87,3.87,0,0,1,216.3,24Z"/><path class="cls-9" d="M169.4,69.48c1.44,0,2.84-.08,4.22,0a2.25,2.25,0,0,1,2,1.35,2,2,0,0,1-1,2.77c.13.47.63.48.93.74a2,2,0,0,1-.81,3.5,3.46,3.46,0,0,1-1.33.25c-1.31,0-2.63,0-3.95,0,0,0-.06,0-.13-.07Z"/><path class="cls-10" d="M281.23,21.85c.15-.05.17.11.26.15.34.18.34.6.58.84s.06.28-.07.41-.5.51-.77.75a4.91,4.91,0,0,0-.77,6.25,7.43,7.43,0,0,0,1.4,1.46c.28.27.35.45.05.77a4.86,4.86,0,0,0-.27.48c-.22.34-.44.3-.73.1a7.58,7.58,0,0,1-2.76-2.83,9.59,9.59,0,0,1-.5-1.83,2.88,2.88,0,0,1,.09-1.93c.21-.53.24-1.13.51-1.71A6.11,6.11,0,0,1,281.06,22,.69.69,0,0,0,281.23,21.85Z"/><path class="cls-10" d="M364.27,33.31c-.16-.16-.41-.31-.46-.51-.09-.38-.54-.55-.55-.83s.47-.32.71-.51a5.41,5.41,0,0,0,1.85-2.82,5.19,5.19,0,0,0-2.09-5.16c-.45-.3-.39-.27-.17-.74s.4-.8.71-.85.61.34.92.53a6,6,0,0,1,2.46,3.16c.17.47-.16,1.05.36,1.41-.07.48.12,1-.22,1.47-.17.25,0,.66-.12,1a6,6,0,0,1-3.11,3.59A2.05,2.05,0,0,0,364.27,33.31Z"/><path class="cls-11" d="M170.33,47.68v3.26a1.87,1.87,0,0,1-.91.08V42.4c1.44,0,2.87,0,4.3,0a2.57,2.57,0,0,1,2.37,2.49c0,1.48-.59,2.21-2.16,2.64a33.45,33.45,0,0,0,2.29,3,.36.36,0,0,1,.1.32c0,.12-.13.15-.26.16a1.23,1.23,0,0,1-1.3-.65c-.57-.85-1.26-1.63-1.78-2.52a.35.35,0,0,0-.37-.19Z"/><path class="cls-12" d="M325.5,90c-1.63,1.61-3.16,1.68-4.71.41a3.09,3.09,0,0,1,2-5.19c1-.09,1.68.55,2.46,1,.18-.17,0-.4.11-.56s.12-.17,1.18-.1c0,1.7.05,3.4,0,5.1a3.45,3.45,0,0,1-.51,1.69,2.3,2.3,0,0,1-1.54,1.12c-.1,0-.19.18-.28.19a6.9,6.9,0,0,1-3.51-.48c-.32-.16-.34-.37-.16-.71s.28-.34.41-.2c.45.5,1.12.48,1.66.62a2.42,2.42,0,0,0,2.6-.86c.07-.09.2-.15.15-.29C325.13,91.19,325.65,90.73,325.5,90Z"/><path class="cls-12" d="M360.55,90c-1.63,1.72-3.28,1.72-4.77.44a3.16,3.16,0,0,1-.27-3.8,3.33,3.33,0,0,1,2.19-1.34,3.59,3.59,0,0,1,2.49,1c.37-.09-.12-.66.36-.69.31,0,.62,0,1,0,0,1.7.07,3.33,0,5a3,3,0,0,1-2.09,3c-.07,0-.12.16-.17.16a6.8,6.8,0,0,1-3.62-.51c-.22-.13-.33-.25-.14-.61s.23-.35.56-.18a4.34,4.34,0,0,0,2.27.58,2.34,2.34,0,0,0,1.8-.86c.07-.09.22-.2.2-.27C360.16,91.23,360.61,90.72,360.55,90Z"/><path class="cls-12" d="M248.54,58.46c0,1.66.05,3.22,0,4.77a3.31,3.31,0,0,1-.9,2.49,3.23,3.23,0,0,1-2.14.9,6.22,6.22,0,0,1-2.8-.5c-.31-.15-.35-.48-.14-.81.1-.16.28-.22.38-.11.44.49,1.11.48,1.65.62a2.4,2.4,0,0,0,2.44-.67.91.91,0,0,0,.33-.82.85.85,0,0,1,.22-.76.46.46,0,0,0-.08-.55c-.37.26-.67.59-1.07.84a3.19,3.19,0,0,1-2.13.32,2.7,2.7,0,0,1-1.52-.89,2.38,2.38,0,0,1-.71-1.61,3.09,3.09,0,0,1,.72-2.46,4,4,0,0,1,1.87-1,3.44,3.44,0,0,1,2.42.83c.16.1.3.19.27-.07-.06-.45.12-.57.53-.51A4.85,4.85,0,0,0,248.54,58.46Z"/><path class="cls-13" d="M478.84,91.73H478c0-.06-.08-.09-.08-.12v-6c.22-.22.47-.09.69-.12s.28.09.27.28-.1.57.39.22.87-.83,1.6-.77a2.32,2.32,0,0,1,1.65.67c.16.17.34.34.56.56l.54-.54c1-1,2.2-.76,3.34-.14.08.49.61.73.58,1.33-.07,1.51,0,3,0,4.52-.29.18-.57.06-.83.1a.31.31,0,0,1-.13-.31c0-1.27,0-2.55,0-3.82a1.55,1.55,0,0,0-2.38-1.4,1.29,1.29,0,0,0-.52.54,4.41,4.41,0,0,0-.47,1.85c0,1,0,2,0,3.11h-1c0-1.38,0-2.76,0-4.15a1.33,1.33,0,0,0-.9-1.41,1.45,1.45,0,0,0-2,.75,3.62,3.62,0,0,0-.43,1.62C478.86,89.57,478.84,90.61,478.84,91.73Z"/><path class="cls-13" d="M288.6,91.72h-.93v-6.1c.87-.09.87-.09,1,.64.22-.18.39-.43.6-.47s.37-.27.56-.39a2.55,2.55,0,0,1,2.18.29c.27.23.51.5.83.82l.62-.66a2.1,2.1,0,0,1,1.44-.58c.72-.09,1.21.37,1.81.55,0,.5.6.64.57,1.22-.08,1.54,0,3.09,0,4.61-.3.2-.59,0-1,.18V89.52c0-.67,0-1.35,0-2A1.55,1.55,0,0,0,295.11,86a1.57,1.57,0,0,0-1.76.89,3.47,3.47,0,0,0-.44,1.61c0,1,0,2.08,0,3.13-.27.21-.58.1-1,.09,0-1.39,0-2.78,0-4.16A1.53,1.53,0,0,0,290,86a1.24,1.24,0,0,0-1,.8c-.36,1-.45,1-.45,1.73Z"/><path class="cls-13" d="M226,91.74h-.88c0-.1-.08-.16-.08-.23,0-1.28,0-2.56,0-3.83a1.58,1.58,0,0,0-2.45-1.44,1.31,1.31,0,0,0-.47.59,3.45,3.45,0,0,0-.46,1.73c0,1,0,2.07,0,3.07-.15.19-.32.12-.47.12s-.31.07-.49-.11c0-1.31,0-2.65,0-4a1.51,1.51,0,0,0-2.36-1.41,1,1,0,0,0-.53.53,4.27,4.27,0,0,0-.48,1.85c0,1,0,2,0,3.06a1.77,1.77,0,0,1-.91.07V85.59c.86,0,.86,0,1,.61,1.83-1.49,2.91-1.14,4.13.3.19-.2.39-.39.58-.6a2.44,2.44,0,0,1,3.77.62,1.18,1.18,0,0,1,.07.69C226,88.68,226,90.16,226,91.74Z"/><path class="cls-13" d="M189.21,91.76h-.89v-4a1.69,1.69,0,0,0-.22-1,1.42,1.42,0,0,0-1.41-.74,1.27,1.27,0,0,0-1.26.77,4.4,4.4,0,0,0-.47,1.84c0,1,0,2.06,0,3.11h-.91V85.65c.85-.16.85-.16,1,.56,1.74-1.45,2.81-1.21,4.12.27.2-.2.4-.39.59-.59a2.44,2.44,0,0,1,3.77.64,1.26,1.26,0,0,1,.06.69c0,1.48,0,3,0,4.44a1.48,1.48,0,0,1-1,0c0-1.39,0-2.78,0-4.17A1.53,1.53,0,0,0,190.7,86a1.26,1.26,0,0,0-1,.82,5,5,0,0,0-.43,1.73c0,1,0,2,0,3C189.28,91.61,189.26,91.64,189.21,91.76Z"/><path class="cls-14" d="M350.73,100V96.59h1.11s.09.08.09.14c0,2.87,0,5.73,0,8.57-.19.2-.4.11-.59.11-.55,0-.55,0-.66-.7a3.8,3.8,0,0,1-2.32,1,3.17,3.17,0,0,1-2.9-3,4.16,4.16,0,0,1,.23-1.94,3,3,0,0,1,4.74-1.06Z"/><path class="cls-14" d="M340.66,86.13V83c.36-.21.75,0,1.16-.13v8.83c-.1.14-.32.06-.5.06-.6,0-.6,0-.75-.68a3.65,3.65,0,0,1-2.11.94A3,3,0,0,1,336.15,91a3.62,3.62,0,0,1,0-4.62,2.82,2.82,0,0,1,4.08-.38c.11.07.15.26.22.39Z"/><path class="cls-14" d="M403.71,91.76h-.5c-.6,0-.6,0-.75-.7a3.63,3.63,0,0,1-2,.94A2.9,2.9,0,0,1,398,91a3.61,3.61,0,0,1,0-4.62,2.81,2.81,0,0,1,4.07-.38c.12.08.16.25.39.27V83c.4-.24.79,0,1.2-.16Z"/><path class="cls-14" d="M277.29,78.1h-.5c-.61,0-.61,0-.75-.69a3.61,3.61,0,0,1-2.11.94,2.94,2.94,0,0,1-2.32-1,3.62,3.62,0,0,1,0-4.62,2.8,2.8,0,0,1,4.07-.39c.11.08.16.26.39.27V69.37c.4-.26.79-.05,1.21-.17Z"/><path class="cls-14" d="M213.47,78.1H213c-.6,0-.6,0-.75-.69a3.69,3.69,0,0,1-2,.94,2.88,2.88,0,0,1-2.43-1.06,3.59,3.59,0,0,1,0-4.61,2.8,2.8,0,0,1,4.07-.39c.11.08.15.26.22.4l.21-.13V69.31a3.18,3.18,0,0,1,1.16-.06Z"/><path class="cls-14" d="M175.33,105.41c-.19,0-.35,0-.5,0-.61,0-.61,0-.75-.68a3.61,3.61,0,0,1-2.11.93,2.92,2.92,0,0,1-2.31-1,3.62,3.62,0,0,1,0-4.62,2.81,2.81,0,0,1,4.16-.31c.09.06.16.14.3.26v-3.3a3.09,3.09,0,0,1,1.21-.08Z"/><path class="cls-14" d="M283.52,105.41c-.19,0-.35,0-.5,0-.6,0-.6,0-.75-.69a3.69,3.69,0,0,1-2,.94,2.9,2.9,0,0,1-2.43-1,3.61,3.61,0,0,1,0-4.62,2.79,2.79,0,0,1,4.07-.38c.12.07.16.24.39.26V96.68c.4-.25.79-.06,1.2-.16Z"/><path class="cls-14" d="M308.3,100V96.58h1.13v8.83H309c-.62,0-.62,0-.76-.68a3.77,3.77,0,0,1-2.1.93,2.9,2.9,0,0,1-2.32-1,3.61,3.61,0,0,1-.09-4.53,2.82,2.82,0,0,1,4.24-.42C308,99.74,308.08,99.82,308.3,100Z"/><path class="cls-13" d="M472.48,99.18c.47,0,.74,0,1,0s.25.16.32.36c.47,1.48,1,2.94,1.51,4.54.48-1.43.94-2.74,1.33-4.06.06-.23.25-.37.27-.61s.36-.19.56-.22.32,0,.41.26c.27.88.7,1.72.92,2.61a17.49,17.49,0,0,1,.68,1.93c.34-1,.71-2,1-3,.08-.29.23-.54.29-.85.21-1,.27-1,1.35-.86-.54,1.52-1.1,3-1.6,4.56a4.68,4.68,0,0,1-.48,1c-.13.22.11.63-.45.6a.71.71,0,0,1-.79-.65,20.24,20.24,0,0,0-1-2.94c-.13-.32,0-.94-.41-.93s-.36.63-.5,1a32,32,0,0,1-1.19,3.22c-.15.29-.26.32-.49.31s-.36,0-.54-.26a4.65,4.65,0,0,1-.31-1c-.53-1.57-1.25-3.08-1.63-4.7C472.76,99.42,472.67,99.37,472.48,99.18Z"/><path class="cls-13" d="M256.41,31.36h-2.07V21.58h2.07Z"/><path class="cls-15" d="M259.13,82.92h.92v3.59c.48-.27.73-.64,1.15-.84a2.84,2.84,0,0,1,4,1.21,4,4,0,0,1,.35,2.7,2.75,2.75,0,0,1-1,1.71,3.28,3.28,0,0,1-3.21.48c-.48-.22-.69-.71-1.14-.94-.22.26,0,.62-.18.91h-.83Z"/><path class="cls-15" d="M226.71,72.87a14.26,14.26,0,0,1,1.15-.86,2.85,2.85,0,0,1,4,1.22,4,4,0,0,1,.35,2.7,2.72,2.72,0,0,1-1.05,1.71,3.23,3.23,0,0,1-3.2.47c-.48-.22-.69-.7-1.13-.94-.2.26,0,.55-.15.86-.22.15-.53.07-.87,0V69.32c.24-.18.55-.07.93,0Z"/><path class="cls-15" d="M460.47,90.82c-.24.26,0,.62-.19.91h-.83V82.92h.91v3.57c.45-.17.62-.54.94-.74a3,3,0,0,1,4.31,1.31,3.72,3.72,0,0,1-.8,4.22,3.28,3.28,0,0,1-3.2.49C461.12,91.55,460.91,91.07,460.47,90.82Z"/><path class="cls-15" d="M256.35,104.44c-.29.28,0,.63-.19.91a1.8,1.8,0,0,1-.8.05,84,84,0,0,1-.06-8.81h.89v3.57a7.32,7.32,0,0,0,1.14-.83,2.46,2.46,0,0,1,2.1-.34,3.25,3.25,0,0,1,2,1.61,3.91,3.91,0,0,1-.63,4.24c-1.17,1-3.12,1.28-4.1,0A2.59,2.59,0,0,0,256.35,104.44Z"/><path class="cls-15" d="M195.56,85.55h.83c.18.29,0,.62.12,1a12.83,12.83,0,0,1,1.13-.85,2.85,2.85,0,0,1,4,1.23,4.08,4.08,0,0,1,.35,2.7,2.37,2.37,0,0,1-.79,1.45,2.84,2.84,0,0,1-4.17.14,4.81,4.81,0,0,1-.47-.46v2.81c-.32.23-.62.13-1,.11Z"/><path class="cls-15" d="M439.53,90.71v2.84a1.38,1.38,0,0,1-1,.08v-8c.25-.16.55-.08.94,0v.93a6.2,6.2,0,0,0,1.06-.78,2.84,2.84,0,0,1,3.78.71,3.65,3.65,0,0,1-.11,4.53,2.81,2.81,0,0,1-4.24.21A6.29,6.29,0,0,1,439.53,90.71Z"/><path class="cls-15" d="M354.85,107.31h-1v-8c.23-.25.55,0,.81-.11.21.34.05.67.15,1a11.92,11.92,0,0,1,1.13-.85,2.82,2.82,0,0,1,3.95,1.25,3.68,3.68,0,0,1-.45,4.14,2.82,2.82,0,0,1-4.16.13c-.13-.11-.19-.31-.47-.34Z"/><path class="cls-13" d="M169.5,90.09a4.11,4.11,0,0,0,2.75,1.2,3.07,3.07,0,0,0,1.21-.28c.89-.25.91-1.41.45-2a2.57,2.57,0,0,0-1.58-.82,4.68,4.68,0,0,1-2.38-.94,2.1,2.1,0,0,1-.4-2.94,3,3,0,0,1,2.52-1.17,5.88,5.88,0,0,1,2.43.51c.19.08.48.28.37.53a2.22,2.22,0,0,1-.54.61s-.13,0-.17-.08a2.72,2.72,0,0,0-1.39-.68,2.23,2.23,0,0,0-2.63.88,1.38,1.38,0,0,0,.71,1.6c.85.26,1.74.42,2.57.74a2.39,2.39,0,0,1,1.72,1.69c.06.28.38.54.18.84-.31.47-.24,1.13-.75,1.48a3,3,0,0,1-1.84.77,5.61,5.61,0,0,1-2.3-.24,7.38,7.38,0,0,1-.81-.36C168.75,90.84,168.76,90.83,169.5,90.09Z"/><path class="cls-13" d="M286.34,76.44a4.13,4.13,0,0,0,2.74,1.2,3.2,3.2,0,0,0,1.21-.28c.89-.26.91-1.42.45-2a2.49,2.49,0,0,0-1.58-.82,4.77,4.77,0,0,1-2.38-.94,2.11,2.11,0,0,1-.4-2.95,3,3,0,0,1,2.52-1.17,6.05,6.05,0,0,1,2.43.52c.19.08.48.27.37.53a2.55,2.55,0,0,1-.54.61A.27.27,0,0,1,291,71a2.75,2.75,0,0,0-1.4-.68,2.22,2.22,0,0,0-2.63.87,1.4,1.4,0,0,0,.71,1.61c.86.25,1.74.42,2.57.74A2.36,2.36,0,0,1,292,75.25c.06.28.38.55.18.84-.31.47-.24,1.14-.75,1.49a3,3,0,0,1-1.84.76,5.61,5.61,0,0,1-2.3-.24,8.33,8.33,0,0,1-.81-.36C285.58,77.18,285.59,77.17,286.34,76.44Z"/><path class="cls-11" d="M257.65,91.64c-1,.15-.95.14-1.32-.59-.11-.19-.06-.38-.12-.55-.37-1.06-.49-1.14-1.6-1.14h-3c-.65,0-.77,0-.9.73-.09.47-.39.8-.51,1.23s-.37.42-.73.45c-.62,0-.32-.22-.23-.48a2,2,0,0,1,.15-.54c.78-1.34,1.29-2.81,2-4.2.49-1,.87-2,1.4-3a.67.67,0,0,1,1.22-.08,3.85,3.85,0,0,1,.48,1,7.27,7.27,0,0,0,.76,1.73c.73,1.61,1.46,3.22,2.14,4.85C257.48,91.23,257.81,91.34,257.65,91.64Z"/><path class="cls-9" d="M170.35,56.78v3.11c1.5,0,3,0,4.44,0,.39,0,.33.22.34.45s-.21.27-.4.27h-4.35v3.28c.27.18.63.07,1,.07,1.32,0,2.64,0,4,0,.28,0,.3.15.3.38s-.06.35-.32.35H169.4V56.06h3.79c.68,0,1.36,0,2,0,.33,0,.39.13.38.42s-.13.32-.36.31h-4.9Z"/><path class="cls-9" d="M208.74,60.61V64c1.65,0,3.28,0,4.91,0,.39,0,.34.22.34.46s-.21.27-.4.27H207.8V56.14c.22-.19.55-.07.85-.07,1.64,0,3.28,0,4.92,0,.27,0,.48,0,.43.37,0,.15,0,.33-.21.35h-5v3.11h3.78c.2,0,.4,0,.6,0s.39.12.39.41-.13.32-.37.32h-4.41Z"/><path class="cls-9" d="M199.84,31.36H198V24.22c.57-.06,1.19,0,1.89,0v1.26c.34-.44.51-.64.67-.86A1.46,1.46,0,0,1,202.2,24v1.83c-.44-.11-.82.19-1.24.32a1.29,1.29,0,0,0-.85,1.25c0,.43-.35.69-.28,1.1a9.59,9.59,0,0,1,0,1.2Z"/><path class="cls-9" d="M319.31,31.36h-1.88V24.22c.57-.06,1.19,0,1.89,0v1.26c.34-.44.51-.64.67-.86a1.46,1.46,0,0,1,1.68-.58v1.83c-.44-.11-.82.19-1.24.32a1.29,1.29,0,0,0-.85,1.25c0,.43-.35.69-.28,1.1a9.59,9.59,0,0,1,0,1.2Z"/><path class="cls-15" d="M410.51,105.34c-.94.06-.94.06-1.07-.64a3.5,3.5,0,0,1-2.8,1,2.86,2.86,0,0,1-1.93-1.59c-.15-.5.19-.89.27-1.33s.49-.52.82-.73a2.23,2.23,0,0,1,1.62-.42c.57.07,1.16-.21,1.72.19.23.17.42,0,.37-.35a1.88,1.88,0,0,0-2.44-1.73,8.29,8.29,0,0,1-1,.21c-.57.08-.65,0-.65-.43,0-.16.05-.24.25-.31a7.41,7.41,0,0,1,2.89-.21c.63,0,1.48,1.09,1.67,1.72C410.73,102.23,410.3,103.79,410.51,105.34Z"/><path class="cls-15" d="M304.43,91.71c-.9,0-.9,0-1.05-.65a3.46,3.46,0,0,1-2.69,1,2.77,2.77,0,0,1-2-1.64c-.15-.5.22-.88.29-1.33s.43-.58.84-.71.62-.45,1-.4c.73.08,1.48-.18,2.21.15.33.15.46.06.43-.23a1.87,1.87,0,0,0-2.57-1.74c-.36.14-.75,0-1.09.28-.17.15-.36-.16-.4-.36s-.12-.42.15-.5a5.32,5.32,0,0,1,3.1-.15,1.87,1.87,0,0,1,1.53,1.81,2.38,2.38,0,0,1,.24,1.57C304.44,89.72,304.43,90.67,304.43,91.71Z"/><path class="cls-15" d="M231.55,105.39c-1,0-1,0-1-.74-.23.2-.4.48-.59.5s-.4.2-.61.28a2.52,2.52,0,0,1-3.12-.66c-.26-.33-.56-.7-.43-1.12s.13-1.09.65-1.4a2.73,2.73,0,0,1,1.87-.67c.64.11,1.32-.23,1.95.22.18.14.38-.08.31-.32-.16-.58-.24-1.24-.83-1.55a1.73,1.73,0,0,0-1.75-.15c-.36.22-.78-.06-1.1.28-.1.11-.37-.17-.38-.4s-.12-.39.18-.48a9.84,9.84,0,0,1,3-.24c.66.49,1.39.81,1.63,1.8C231.67,102.27,231.36,103.79,231.55,105.39Z"/><path class="cls-15" d="M431.1,105.35c-.91.05-.91.05-1-.66a3.3,3.3,0,0,1-2.69,1,2.77,2.77,0,0,1-2-1.61c-.15-.51.2-.89.28-1.33s.48-.53.83-.73a2.55,2.55,0,0,1,1.62-.41c.57.08,1.17-.21,1.71.22.16.12.38,0,.36-.27a1.88,1.88,0,0,0-2.56-1.78,4.73,4.73,0,0,1-.89.15c-.53.1-.58.09-.62-.32,0-.19,0-.32.26-.41A7.22,7.22,0,0,1,429.1,99a1.66,1.66,0,0,1,1.15.69c.26.32.74.51.61,1.06-.08.33.27.51.26.85C431.08,102.83,431.1,104.09,431.1,105.35Z"/><path class="cls-15" d="M239.24,78.11c-1,0-1,0-1.08-.72a3.54,3.54,0,0,1-2.79,1,2.86,2.86,0,0,1-2-1.58c-.15-.5.19-.89.27-1.33s.48-.53.81-.74a2.29,2.29,0,0,1,1.62-.42c.57.07,1.16-.22,1.72.18.24.18.43,0,.38-.33a1.9,1.9,0,0,0-2.54-1.71,3.42,3.42,0,0,1-.88.17c-.16,0-.2.37-.44.11a.62.62,0,0,1-.22-.52c0-.15,0-.25.23-.32a7.68,7.68,0,0,1,2.9-.21c.63,0,1.49,1.08,1.68,1.71C239.43,74.9,239,76.47,239.24,78.11Z"/><path class="cls-15" d="M246.42,78.09c-.95,0-.95,0-1-.73a3.35,3.35,0,0,1-2.66,1,2.58,2.58,0,0,1-2.09-1.68c-.1-.45.19-.8.26-1.21s.51-.61.9-.8a4.58,4.58,0,0,1,3.23-.2c.32.1.45,0,.41-.31a1.84,1.84,0,0,0-2.6-1.67c-.36.14-.8-.11-1.1.28-.05.07-.37-.19-.37-.43s-.1-.37.2-.47a9.84,9.84,0,0,1,3-.23c.64.51,1.39.81,1.62,1.82C246.53,75,246.23,76.49,246.42,78.09Z"/><path class="cls-15" d="M197.92,78c-.91,0-.91,0-1-.68a3.3,3.3,0,0,1-2.8,1,2.8,2.8,0,0,1-1.92-1.61c-.15-.5.18-.89.27-1.33s.49-.52.83-.72a4.3,4.3,0,0,1,3.24-.27c.4.08.52,0,.46-.32a1.85,1.85,0,0,0-2.65-1.6,4.45,4.45,0,0,1-.79.09c-.55.11-.65,0-.64-.43,0-.13.05-.3.14-.27.43.14.68-.32,1.1-.27a5.74,5.74,0,0,0,1.31,0c1.07-.11,1.58.69,2.22,1.29-.08.48.26.87.26,1.32C197.93,75.51,197.92,76.77,197.92,78Z"/><path class="cls-15" d="M310.55,91a3.27,3.27,0,0,1-2.95.95,2.71,2.71,0,0,1-1.73-1.67c-.1-.45.19-.8.27-1.21a1.11,1.11,0,0,1,.8-.74c.33-.12.62-.48,1-.44.77.08,1.56-.23,2.32.18.29.15.44,0,.4-.3a1.84,1.84,0,0,0-2.6-1.67c-.36.13-.8-.11-1.1.28,0,.06-.37-.19-.37-.44s-.09-.36.2-.46a9.9,9.9,0,0,1,3-.23c.63.51,1.42.8,1.62,1.81a15.07,15.07,0,0,1,.19,2.3c0,.76,0,1.51,0,2.26C310.75,91.75,310.75,91.75,310.55,91Z"/><path class="cls-15" d="M353.64,91.69c-.93,0-.93,0-1.07-.67a3.26,3.26,0,0,1-2.79,1,2.8,2.8,0,0,1-1.93-1.6c-.15-.5.19-.89.28-1.33s.48-.52.82-.72a4.31,4.31,0,0,1,3.24-.28c.41.08.52,0,.46-.31a1.84,1.84,0,0,0-2.64-1.6,5.63,5.63,0,0,1-.79.09c-.56.1-.65,0-.65-.43,0-.13.06-.31.14-.28.43.15.68-.32,1.1-.26a7.17,7.17,0,0,0,1.31,0,1.79,1.79,0,0,1,1.46.54c.35.38.93.66.79,1.34C353.91,88.65,353.45,90.18,353.64,91.69Z"/><path class="cls-15" d="M421.55,91.72c-.95,0-.95,0-1.1-.66a3.45,3.45,0,0,1-2.7,1,2.75,2.75,0,0,1-2-1.65c-.13-.49.22-.88.29-1.33s.44-.58.85-.7.56-.43.91-.4c.77.07,1.57-.23,2.32.17a.39.39,0,0,0,.32.05c.17-.09.14-.28.11-.43a1.83,1.83,0,0,0-2.66-1.54c-.33.11-.68-.06-1,.21-.16.14-.37-.16-.4-.37s-.12-.4.16-.49a5.51,5.51,0,0,1,3-.18,2.23,2.23,0,0,1,1.66,1.72C421.68,88.6,421.35,90.12,421.55,91.72Z"/><path class="cls-16" d="M211.47,104l.58.59c-.06.07-.12.16-.19.23a3.36,3.36,0,0,1-4.81-.22,3.43,3.43,0,0,1-.76-2.19,3.57,3.57,0,0,1,1.41-3,1.47,1.47,0,0,1,1.14-.43,1.85,1.85,0,0,0,.47,0,2.51,2.51,0,0,1,2.62,1.68,2.39,2.39,0,0,1,.31,1.92h-4.5c-.43,0-.61.2-.46.55.25.55.38,1.23,1,1.49a2.16,2.16,0,0,0,1.52.34A3.32,3.32,0,0,0,211.47,104Z"/><path class="cls-17" d="M246.25,104l.57.56s0,.12-.08.16a3.37,3.37,0,0,1-4.9-.1,3.51,3.51,0,0,1-.77-2.32,3.6,3.6,0,0,1,1.14-2.65,2.66,2.66,0,0,1,2.77-.54,2.42,2.42,0,0,1,1.54,1.14,2.93,2.93,0,0,1,.52,2.32h-4.5c-.48,0-.58.16-.44.64a2.17,2.17,0,0,0,1,1.39,2.09,2.09,0,0,0,1.51.35A3.14,3.14,0,0,0,246.25,104Z"/><path class="cls-17" d="M476.43,88.88h-4.6c-.37,0-.58.27-.41.6.31.62.52,1.27,1.32,1.59,1.21.49,2-.07,2.89-.73l.56.57A3.43,3.43,0,0,1,472.84,92a3.2,3.2,0,0,1-2.39-2.83,3.78,3.78,0,0,1,.46-2.43,3.12,3.12,0,0,1,1.63-1.39,3,3,0,0,1,2.37.27A3.46,3.46,0,0,1,476.43,88.88Z"/><path class="cls-17" d="M495.16,88.91h-5c.06,1.64.78,2.24,2.29,2.36a2,2,0,0,0,1.5-.66c.38-.35.49-.17.71.07l.22.24A3.42,3.42,0,0,1,491.52,92a3.18,3.18,0,0,1-2.36-3,3.83,3.83,0,0,1,.45-2.2c1.11-1.76,2.21-1.72,4-1.27a3.76,3.76,0,0,1,1.58,2.67C495.17,88.39,495.16,88.59,495.16,88.91Z"/><path class="cls-17" d="M437,88.88H432.5c-.38,0-.59.26-.43.59.31.63.52,1.27,1.32,1.6,1.2.49,2-.06,2.9-.73l.53.59c-.88,1.12-2.15,1.14-3.44,1.07-.54-.41-1.29-.56-1.65-1.19a3.8,3.8,0,0,1-.66-1.89A3.87,3.87,0,0,1,432.16,86a2.75,2.75,0,0,1,2.77-.62,2.38,2.38,0,0,1,1.62,1.21A2.82,2.82,0,0,1,437,88.88Z"/><path class="cls-17" d="M298.61,102.54H294.1c-.42,0-.61.21-.45.56.24.55.38,1.23,1,1.49a2.27,2.27,0,0,0,1.52.33,3.3,3.3,0,0,0,1.68-1l.53.66a1.81,1.81,0,0,1-.16.17,3.36,3.36,0,0,1-4.81-.22,3.46,3.46,0,0,1-.74-2.32,3.58,3.58,0,0,1,1.06-2.56,2.51,2.51,0,0,1,2.76-.64C298,99.45,298.73,100.77,298.61,102.54Z"/><path class="cls-17" d="M455.69,104l.58.58a3.33,3.33,0,0,1-5,0,3.43,3.43,0,0,1-.74-2.33,3.55,3.55,0,0,1,1.07-2.55,2.5,2.5,0,0,1,2.76-.6c.24.06.54,0,.75.21s.64.6.92.94.24.83.48,1.23,0,.68,0,1.08h-4.58c-.4,0-.55.21-.45.58a2.54,2.54,0,0,0,1,1.47c.49.17,1,.5,1.53.34A3.42,3.42,0,0,0,455.69,104Z"/><path class="cls-17" d="M488.84,102.54h-4.52c-.39,0-.59.25-.43.58.3.63.48,1.35,1.32,1.59,1.29.36,1.71.28,2.87-.74l.57.62a3.24,3.24,0,0,1-2.85,1.07,3,3,0,0,1-2.09-1,3.38,3.38,0,0,1-.81-2.42A3.52,3.52,0,0,1,484,99.67a2.75,2.75,0,0,1,2.77-.63,2.4,2.4,0,0,1,1.62,1.21A2.79,2.79,0,0,1,488.84,102.54Z"/><path class="cls-17" d="M183.55,75.23c-1.39,0-2.91,0-4.42,0-.35,0-.5.17-.4.49a2.46,2.46,0,0,0,1.66,1.82c.88.28,1.46-.19,2.12-.48s.5-.3.93.12l.07.08a3.2,3.2,0,0,1-3.36,1,3,3,0,0,1-2.38-2.94,3.73,3.73,0,0,1,.45-2.21c1.09-1.75,2.25-1.81,3.93-1.24a2.27,2.27,0,0,1,1.35,1.65C183.6,74.07,184.09,74.54,183.55,75.23Z"/><path class="cls-17" d="M221.17,75.23c-1.61,0-3.13,0-4.64,0-.34,0-.44.14-.37.42a2.15,2.15,0,0,0,2.48,2,2.78,2.78,0,0,0,1.72-.91l.53.52c.06.06,0,.1,0,.18a3.35,3.35,0,0,1-4.89-.1,2.75,2.75,0,0,1-.77-2,3.78,3.78,0,0,1,.47-2.21,3.27,3.27,0,0,1,1.57-1.43,2.94,2.94,0,0,1,2.38.22A3.41,3.41,0,0,1,221.17,75.23Z"/><path class="cls-17" d="M266.23,75.23c-1.5,0-3,0-4.51,0-.43,0-.61.2-.46.55.24.55.38,1.22,1,1.49a2.18,2.18,0,0,0,1.53.34,3.32,3.32,0,0,0,1.69-1l.51.68a1.21,1.21,0,0,1-.13.16,3.37,3.37,0,0,1-4.81-.22,3.3,3.3,0,0,1-.76-2.19,3.66,3.66,0,0,1,1.14-2.77,2.52,2.52,0,0,1,2.68-.57C265.56,72.12,266.33,73.44,266.23,75.23Z"/><path class="cls-17" d="M302.69,75.23c-1.52,0-3,0-4.53,0-.39,0-.55.22-.44.58.15.52.6,1.34,1,1.47s1,.5,1.53.33a3.27,3.27,0,0,0,1.66-1l.55.65a3.25,3.25,0,0,1-2.83,1,3,3,0,0,1-2.09-1,3.41,3.41,0,0,1-.82-2.41,3.6,3.6,0,0,1,1.08-2.56,2.75,2.75,0,0,1,2.77-.63,2.46,2.46,0,0,1,1.63,1.2A2.94,2.94,0,0,1,302.69,75.23Z"/><path class="cls-17" d="M333.93,90.92a3.31,3.31,0,0,1-3.38,1,2.52,2.52,0,0,1-1.68-1.08,3,3,0,0,1-.7-1.87,4.3,4.3,0,0,1,.47-2.2c1.11-1.76,2.21-1.72,3.95-1.27.37.44.87.73,1.14,1.3a3.57,3.57,0,0,1,.43,2h-5c.06,1.69.79,2.29,2.3,2.41a2,2,0,0,0,1.5-.66c.37-.34.49-.18.7.07Z"/><path class="cls-17" d="M232.82,90.31l.56.57a.6.6,0,0,1-.08.16,3.36,3.36,0,0,1-4.89-.11,3.44,3.44,0,0,1-.77-2.31A3.57,3.57,0,0,1,228.77,86a2.46,2.46,0,0,1,2.77-.52c.31.1.67.07.92.41s.79.67.9,1.18.51,1.13.23,1.84h-4.48c-.49,0-.58.17-.44.65a2.13,2.13,0,0,0,.94,1.38,2,2,0,0,0,1.51.35A3.14,3.14,0,0,0,232.82,90.31Z"/><path class="cls-17" d="M182.23,104l.51.51c.07.06,0,.09,0,.17a3.35,3.35,0,0,1-4.89-.08,2.71,2.71,0,0,1-.77-1.95,3.85,3.85,0,0,1,.46-2.21A3.39,3.39,0,0,1,179.07,99a3,3,0,0,1,2.37.22,3.31,3.31,0,0,1,1.6,2.64c0,.19,0,.39,0,.66h-5a2.35,2.35,0,0,0,1.16,2.16C180.15,105.21,181.06,105,182.23,104Z"/><path class="cls-14" d="M312.33,72.93a3.82,3.82,0,0,1,.29-.48c1.14-1.36,2.87-1,3.95.39a.71.71,0,0,1,.1.44V78a1.92,1.92,0,0,1-1,.07v-3.9a2.72,2.72,0,0,0-.07-.81,1.54,1.54,0,0,0-2.12-.88,2.08,2.08,0,0,0-1.4,2.13c-.05,1.12,0,2.23,0,3.37-.27.21-.58.09-.92.08V69.32c.23-.18.54-.06.92,0V72.8Z"/><path class="cls-14" d="M253.13,69.26h.93V72.8l.19.11c.16-.21.32-.43.49-.64a2.32,2.32,0,0,1,3.2,0,2.05,2.05,0,0,1,.69,1.65c-.06,1.38,0,2.77,0,4.18h-1c0-1.37,0-2.75,0-4.14a1.44,1.44,0,0,0-1-1.48,1.94,1.94,0,0,0-2.37,1.09,4.62,4.62,0,0,0-.26,1.57c.05,1,0,1.91,0,2.88-.27.19-.58.11-.92.08Z"/><path class="cls-14" d="M319.29,100.24a3.2,3.2,0,0,1,.37-.56,2.25,2.25,0,0,1,3.36,0,1.73,1.73,0,0,1,.63,1.43c-.07,1.43,0,2.85,0,4.26a1.92,1.92,0,0,1-1,.06c0-1.3,0-2.6,0-3.9a2.72,2.72,0,0,0-.06-.81,1.55,1.55,0,0,0-2.13-.88,2.09,2.09,0,0,0-1.39,2.14c-.05,1.11,0,2.23,0,3.35-.27.29-.59,0-.92.18V96.63c.23-.17.54-.07.92,0v3.53Z"/><path class="cls-14" d="M285.52,96.57h.93v3.55l.19.1c.16-.22.31-.43.49-.64a2.31,2.31,0,0,1,3.2,0,2,2,0,0,1,.69,1.64c-.06,1.38,0,2.77,0,4.18h-1c0-1.37,0-2.76,0-4.14a1.53,1.53,0,0,0-1.78-1.58c-.48,0-.76.48-1.23.5,0,.31-.27.51-.37.8a4.34,4.34,0,0,0-.22,1.47c0,.95,0,1.91,0,2.88a1.36,1.36,0,0,1-.92.07Z"/><path class="cls-14" d="M190.72,78.09c-.38,0-.65.08-1-.08,0-1.29,0-2.6,0-3.9a1.58,1.58,0,0,0-2.47-1.52c-.87.4-1,1.2-1.11,2a13.37,13.37,0,0,0,0,1.79v1.69h-.9V69.3c.24-.13.52,0,.87-.06V73a8,8,0,0,0,.67-.68,2.34,2.34,0,0,1,3.3,0,2.13,2.13,0,0,1,.64,1.54C190.68,75.22,190.72,76.62,190.72,78.09Z"/><path class="cls-13" d="M391,88.62a3,3,0,0,1-1.88,3.13,3.27,3.27,0,0,1-4-1,3.66,3.66,0,0,1,.49-4.71,3.3,3.3,0,0,1,5,.87A2.7,2.7,0,0,1,391,88.62Z"/><path class="cls-13" d="M274.41,89c0-1.84.61-2.9,2.06-3.47a3.23,3.23,0,0,1,4,1.17,3.45,3.45,0,0,1,0,3.88A3,3,0,0,1,278,92a3.23,3.23,0,0,1-2.45-.75A2.76,2.76,0,0,1,274.41,89Z"/><path class="cls-13" d="M197,48a3.19,3.19,0,0,1,2.19-3.33,3.37,3.37,0,0,1,3.81,1.4,3.44,3.44,0,0,1,0,3.78,3,3,0,0,1-2.43,1.45,3.23,3.23,0,0,1-2.45-.74A2.86,2.86,0,0,1,197,48Z"/><path class="cls-13" d="M331.76,102.26a3.1,3.1,0,0,1-.27,1.68,3.35,3.35,0,0,1-2.88,1.72,3,3,0,0,1-3.08-2,3.34,3.34,0,1,1,6.21-2.42A3.74,3.74,0,0,1,331.76,102.26Z"/><path class="cls-13" d="M190.26,102.14c-.25-.71.19-1.32.51-1.89a3.07,3.07,0,0,1,1.65-1.2,3.35,3.35,0,0,1,3.82,1.35,3.49,3.49,0,0,1,0,3.79,3.05,3.05,0,0,1-2.42,1.47,3.22,3.22,0,0,1-2.55-.79A3,3,0,0,1,190.26,102.14Z"/><path class="cls-13" d="M457.71,88.61a3.5,3.5,0,0,1-.27,1.68c-.32.7-.95,1-1.46,1.4a2.12,2.12,0,0,1-1.43.32A3,3,0,0,1,451.48,90a4.82,4.82,0,0,1,0-2.69,3.06,3.06,0,0,1,2.08-2,3.45,3.45,0,0,1,4.15,2.23A4.17,4.17,0,0,1,457.71,88.61Z"/><path class="cls-13" d="M339.67,102.26a3,3,0,0,1-.26,1.67,3.36,3.36,0,0,1-2.88,1.73,3,3,0,0,1-3.08-2,3.34,3.34,0,1,1,6.21-2.42A3.75,3.75,0,0,1,339.67,102.26Z"/><path class="cls-13" d="M376.65,88.53a2.4,2.4,0,0,1,.53-1.94,3.15,3.15,0,0,1,1.64-1.2,3.36,3.36,0,0,1,3.82,1.36,3.48,3.48,0,0,1,0,3.78A3,3,0,0,1,380.21,92a3.37,3.37,0,0,1-2.55-.78,4.55,4.55,0,0,1-.86-1.32C376.51,89.43,376.75,89,376.65,88.53Z"/><path class="cls-13" d="M214.71,88.76a2.68,2.68,0,0,1-.4,1.64,3.29,3.29,0,0,1-2.69,1.6,3,3,0,0,1-3.24-2.16,3.74,3.74,0,0,1,.09-2.71,3.17,3.17,0,0,1,2.08-1.81,3.41,3.41,0,0,1,4.08,2.16c0,.07.08.14.08.21C214.72,88,214.71,88.32,214.71,88.76Z"/><path class="cls-12" d="M176.35,85.63c.88-.1.9-.11,1.22.55a20.83,20.83,0,0,1,1.17,2.75,11.79,11.79,0,0,0,.81,1.58c.24-.1.31-.3.39-.57.24-.78.56-1.53.86-2.28.17-.45.4-.88.56-1.33.29-.79.27-.79,1.28-.71-.33.37-.28.83-.53,1.23a7.93,7.93,0,0,0-.9,2.13c-.2.77-.76,1.36-.86,2.18a3.9,3.9,0,0,1-.68,1.37,2.62,2.62,0,0,1-1.07,1.09,3.66,3.66,0,0,1-1.65,0,.49.49,0,0,1-.38-.52.62.62,0,0,1,.62-.38c.11,0,.18.18.28.2a1.25,1.25,0,0,0,1.46-1.59c-.38-.18-.22-.61-.39-.92-.83-1.48-1.36-3.11-2.21-4.59C176.3,85.8,176.34,85.7,176.35,85.63Z"/><path class="cls-14" d="M434,105.38h-.91V99.27c.19-.18.44,0,.66-.08s.27.09.27.27-.07.61.38.21a2.46,2.46,0,0,1,2-.75,2.7,2.7,0,0,1,1.54.65,1.85,1.85,0,0,1,.69,1.64c-.06,1.39,0,2.77,0,4.18h-1c0-1.4,0-2.78,0-4.16a1.33,1.33,0,0,0-.9-1.41c-.86-.34-2.22.08-2.42.93a4.8,4.8,0,0,0-.29,1.57c.08,1,0,1.91,0,2.87C434,105.23,434,105.27,434,105.38Z"/><path class="cls-14" d="M409.75,91.73h-.93v-6.1c.87-.11.87-.11,1,.65.32-.22.61-.46.88-.64a2.32,2.32,0,0,1,2.29-.15c.58.19.81.71,1.25,1,.12.08.09.21.09.32v4.89h-1c0-1.39,0-2.77,0-4.16a1.36,1.36,0,0,0-.9-1.41c-.87-.34-2.23.08-2.43.94a4.71,4.71,0,0,0-.29,1.57C409.81,89.65,409.75,90.65,409.75,91.73Z"/><path class="cls-14" d="M226.23,64.68a2,2,0,0,1-1-.09v-3.9a1.58,1.58,0,0,0-2.47-1.52,2.12,2.12,0,0,0-1.11,2c-.08,1.14,0,2.3,0,3.42a1.76,1.76,0,0,1-.91.08V58.52c.85-.05.85-.05,1,.69a4.34,4.34,0,0,1,.49-.48,2.74,2.74,0,0,1,2.18-.51,2.43,2.43,0,0,1,1.34.83,1.34,1.34,0,0,1,.48,1.13C226.2,61.65,226.23,63.12,226.23,64.68Z"/><path class="cls-14" d="M236.06,91.73h-.92V85.64c.87-.13.87-.13,1,.62a5.39,5.39,0,0,0,.88-.61,2.31,2.31,0,0,1,2.51-.1c.41.18.69.64,1,1,.15.13.1.29.1.44v4.79h-1c0-1.38,0-2.76,0-4.14a1.43,1.43,0,0,0-1-1.49,2,2,0,0,0-2.37,1.1,4.54,4.54,0,0,0-.26,1.57C236.1,89.72,236.06,90.68,236.06,91.73Z"/><path class="cls-14" d="M275.17,105.41h-.84a.29.29,0,0,1-.12-.3c0-1.24,0-2.47,0-3.71,0-1.49-1-2.07-2.36-1.52a2,2,0,0,0-1.21,2c-.09,1.14,0,2.29,0,3.43a2,2,0,0,1-.91,0V99.24c.85,0,.85,0,1,.67a7.26,7.26,0,0,0,.8-.58c.65-.69,1.44-.42,2.12-.33s1.05.75,1.5,1.23c.09.09.05.3.05.45C275.17,102.23,275.17,103.78,275.17,105.41Z"/><path class="cls-14" d="M272.77,91.67a1.92,1.92,0,0,1-1,.07c0-1.3,0-2.6,0-3.9a2.72,2.72,0,0,0-.06-.81,1.55,1.55,0,0,0-2.12-.89,2.1,2.1,0,0,0-1.4,2.14c-.05,1.11,0,2.23,0,3.35-.27.3-.59,0-.92.18V85.65c.85-.15.85-.15,1,.66.26-.53.87-.53,1.15-1a3.29,3.29,0,0,1,2.25.23,7.32,7.32,0,0,1,.94.91.52.52,0,0,1,.11.44Z"/><path class="cls-14" d="M497.79,91.72h-.93v-6.1c.88-.09.88-.09,1,.71.35-.51.92-.58,1.23-1a3.7,3.7,0,0,1,2.16.23,6.85,6.85,0,0,1,1,1c.16.17.07.38.07.57,0,1.51,0,3,0,4.55a1.35,1.35,0,0,1-1,.06c0-1.39,0-2.77,0-4.16s-1-1.79-2.23-1.39-1.26,1.28-1.34,2.17C497.72,89.43,497.79,90.55,497.79,91.72Z"/><path class="cls-14" d="M182.36,58.49c.87,0,.87,0,1,.71.28-.47.87-.5,1.16-.93a3.11,3.11,0,0,1,2.33.32c.29.21.51.51.78.75a.58.58,0,0,1,.18.52c0,.2,0,.4,0,.6V64.6a1.91,1.91,0,0,1-1,.06c0-1.29,0-2.59,0-3.9a2.65,2.65,0,0,0-.07-.8,1.54,1.54,0,0,0-2.12-.89,2.08,2.08,0,0,0-1.39,2.14c-.05,1.11,0,2.23,0,3.36-.27.2-.58.1-.92.08Z"/><path class="cls-14" d="M491.56,105.39h-.93V99.3c.87-.14.87-.14,1,.62a6.43,6.43,0,0,0,.88-.62,2.3,2.3,0,0,1,2.5-.09c.41.18.7.63,1,1,.14.13.09.29.09.44,0,1.58,0,3.17,0,4.78h-.95c0-1.37,0-2.75,0-4.14a1.45,1.45,0,0,0-1-1.48,2,2,0,0,0-2.37,1.09,4.89,4.89,0,0,0-.26,1.58C491.59,103.38,491.56,104.34,491.56,105.39Z"/><path class="cls-14" d="M458.93,105.39H458V99.31c.86-.16.86-.16,1,.66.24-.5.74-.55,1.08-.87s1.48-.16,2,0,.83.69,1.25,1c.16.12.12.28.12.43v4.74c-.31.16-.58.07-1,.09V101.5a2.72,2.72,0,0,0-.06-.81,1.57,1.57,0,0,0-2.13-.9,2.09,2.09,0,0,0-1.39,2.14C458.88,103.07,458.93,104.22,458.93,105.39Z"/><path class="cls-14" d="M200.87,72.65a2.89,2.89,0,0,1,2.54-1c.7.06,1.06.54,1.55.91a1.22,1.22,0,0,1,.4,1.16c0,1.43,0,2.87,0,4.3-.29.25-.61,0-1,.17,0-1.5,0-2.89,0-4.27s-1-1.78-2.23-1.38-1.26,1.28-1.34,2.17c-.1,1.11,0,2.22,0,3.32-.29.19-.57.07-.84.1,0,0-.08,0-.08-.08V72C200.74,71.88,200.74,71.88,200.87,72.65Z"/><path class="cls-14" d="M214.78,100a2.91,2.91,0,0,1,2.55-1c.69.06,1.06.54,1.54.91a1.22,1.22,0,0,1,.4,1.16v4.31a1.42,1.42,0,0,1-1,0c0-1.39,0-2.77,0-4.16s-1-1.78-2.23-1.38-1.26,1.28-1.34,2.17c-.09,1.11,0,2.22,0,3.32-.28.19-.57.07-.83.1,0,0-.08,0-.08-.08q0-3,0-6.06C214.66,99.19,214.66,99.19,214.78,100Z"/><path class="cls-14" d="M368.53,99.23c.86,0,.86,0,1,.74.26-.53.86-.53,1.15-1a3.32,3.32,0,0,1,2.24.23,7.48,7.48,0,0,1,.95.92c.14.13.1.28.1.43,0,1.59,0,3.18,0,4.8h-1c0-1.28,0-2.58,0-3.88a2.72,2.72,0,0,0-.06-.81,1.56,1.56,0,0,0-2.12-.9,2.09,2.09,0,0,0-1.4,2.14c-.06,1.14,0,2.29,0,3.46h-.92Z"/><path class="cls-11" d="M448.28,99.9h-3.93c-.28,0-.31-.16-.3-.38s0-.33.21-.34h4.91c.15,0,.36,0,.39.15s.1.4-.09.55c-.48.41-.76,1-1.2,1.41-.82.79-1.39,1.8-2.26,2.55a4.38,4.38,0,0,0-.57.83l1.56,0c.48,0,1,0,1.44,0,.32,0,.64,0,1,0s.17.21.17.37,0,.32-.2.34a.48.48,0,0,1-.12,0H444.1a1.28,1.28,0,0,1,.49-1.35c.86-.75,1.44-1.75,2.25-2.55C447.3,101.05,447.64,100.47,448.28,99.9Z"/><path class="cls-15" d="M183.12,51.27a2.57,2.57,0,0,1-2.1-.7c-.6,0-.17-.26-.14-.45.05-.36.19-.35.46-.2a4.9,4.9,0,0,0,2,.65c.71.06.95-.48,1.33-.84.19-.19-.34-1-.76-1.08a7.68,7.68,0,0,1-1-.31,1.79,1.79,0,0,1-1.27-.66c-.78,0-.39-.85-.81-1.1a4,4,0,0,1,.44-1.12c.84-1,1.56-1.07,2.91-.74.24.05.57-.08.74.22s.53,0,.46.39-.49.57-.72.41-.65-.16-.95-.33a1.3,1.3,0,0,0-1.4.1c-.54.34-.63.83-.15,1.21a6.82,6.82,0,0,0,2.12.93,1.87,1.87,0,0,1,1,.87c.12.26.42.64.28.94a2.92,2.92,0,0,1-.81,1.35,2,2,0,0,1-1.37.46C183.36,51.26,183.24,51.27,183.12,51.27Z"/><path class="cls-15" d="M186.47,105.65a2.55,2.55,0,0,1-2.1-.71c-.67,0-.13-.29-.12-.44,0-.37.2-.33.46-.19a4.89,4.89,0,0,0,2,.64c.7,0,.93-.5,1.32-.85.17-.14-.35-1.06-.65-1.06a3.77,3.77,0,0,1-1.08-.32,1.83,1.83,0,0,1-1.28-.66c-.77,0-.38-.85-.8-1.11.2-.36.17-.81.45-1.13.84-1,1.55-1.07,2.92-.71.24.06.57-.08.74.22s.55,0,.45.39-.5.57-.73.4-.65-.15-.95-.33a1.28,1.28,0,0,0-1.4.11c-.57.35-.64.81-.14,1.21a6.72,6.72,0,0,0,2.13.92,1.77,1.77,0,0,1,1,.88c.11.27.43.63.28.94a3,3,0,0,1-.82,1.35,1.94,1.94,0,0,1-1.37.45Z"/><path class="cls-15" d="M191.78,64.92a2.6,2.6,0,0,1-2.16-.71c-.78,0-.07-.35-.07-.48,0-.38.23-.24.46-.12a5.11,5.11,0,0,0,2,.62c.71,0,.92-.53,1.31-.88.15-.14-.4-1-.71-1.05-.48-.1-.92-.39-1.36-.45s-.82-.51-1.29-.67-.06-.77-.47-1a3.68,3.68,0,0,1,.4-1,2.13,2.13,0,0,1,1.87-1,3.64,3.64,0,0,1,2,.49c.11.07.31,0,.33.22s-.13.27-.24.38-.52.21-.62.07c-.23-.33-.58-.12-.86-.3a1.27,1.27,0,0,0-1.4.12c-.55.32-.6.74-.17,1.15a1.79,1.79,0,0,0,1,.51,13.61,13.61,0,0,1,1.46.55c.62.17.91.93,1,1.55a1.57,1.57,0,0,1-.4,1.12A2.15,2.15,0,0,1,191.78,64.92Z"/><path class="cls-15" d="M231.79,63.42c-.49-1.05-.48-1.07-1.53-1.36a7,7,0,0,1-1.63-.71,1.56,1.56,0,0,1-.31-2.21,2.48,2.48,0,0,1,2.91-.8c.27.11.65-.06.84.31.07.13.45,0,.39.29s-.24.52-.57.47a8.06,8.06,0,0,1-1.06-.32c-1-.33-1.53-.14-1.89.6-.08.16-.14.29,0,.4a5.76,5.76,0,0,0,.72.56c.5.25,1.1.28,1.52.68,1,0,1.12.88,1.48,1.52.19.34-.19.46-.23.73A1.64,1.64,0,0,1,231,64.89a4.77,4.77,0,0,1-2.3-.17c-.39-.13-.53-.56-1-.59-.11,0,.23-.29.2-.54s.23-.13.38,0c.36.21.78.31,1.12.47a3.87,3.87,0,0,0,1.12.19.64.64,0,0,0,.61-.28C231.38,63.74,231.6,63.58,231.79,63.42Z"/><path class="cls-15" d="M196,45.64l-.31.31c-.15.14-.27.4-.52.08-.07-.09-.28-.05-.4-.18a1.84,1.84,0,0,0-2.19-.36,1.51,1.51,0,0,0-.88.68,2.82,2.82,0,0,0,0,3.3c.06.77.85.64,1.26,1a1.17,1.17,0,0,0,1.11,0,2.19,2.19,0,0,0,1.34-.91l.54.66a3.31,3.31,0,0,1-4.73.22,3.68,3.68,0,0,1-.14-4.89A3.4,3.4,0,0,1,196,45.64Z"/><path class="cls-15" d="M309.1,76.66l.61.6a3.39,3.39,0,0,1-4.91.13,3.71,3.71,0,0,1,0-4.81,3.39,3.39,0,0,1,4.91.13l-.59.59c-.28-.25-.64-.4-.94-.64a1.4,1.4,0,0,0-1.4-.28c-.43.2-1,.22-1.29.69a3.51,3.51,0,0,0-.07,3.74,2.69,2.69,0,0,0,2.38.7A2.2,2.2,0,0,0,309.1,76.66Z"/><path class="cls-15" d="M375.09,90.32l.57.57a3.32,3.32,0,0,1-4.77.27,3.68,3.68,0,0,1-.15-4.89,3.41,3.41,0,0,1,5,.11l-.65.5c-.2-.14-.5-.26-.77-.46a2,2,0,0,0-3,.69,2.78,2.78,0,0,0,0,3,2.13,2.13,0,0,0,2.55,1A2.67,2.67,0,0,0,375.09,90.32Z"/><path class="cls-15" d="M397.74,99.31c.95-.15,1.19,0,1.45.77.39,1.24,1,2.39,1.44,3.6.05.15,0,.3.25.3s.19-.18.24-.32c.46-1.21,1.06-2.35,1.44-3.59.23-.76.46-.87,1.36-.84.27.29-.08.41-.17.59-.81,1.7-1.44,3.47-2.28,5.16a.67.67,0,0,1-.79.43c-.31,0-.43-.23-.54-.51-.34-.89-.73-1.77-1.12-2.65S398.17,100.29,397.74,99.31Z"/><path class="cls-15" d="M425,99.24a19.26,19.26,0,0,0-1.56,3.21c-.39.83-.7,1.7-1.14,2.52-.11.21-.11.5-.52.46s-.65-.1-.76-.42c-.63-2-1.66-3.78-2.41-5.7.94-.15,1.18,0,1.44.77.39,1.24,1,2.39,1.44,3.6.05.15,0,.3.26.3s.18-.18.23-.32c.46-1.21,1.06-2.35,1.44-3.59C423.66,99.31,423.89,99.2,425,99.24Z"/><path class="cls-13" d="M342.82,99.18h1.62c.29,0,.3.16.3.38s-.06.35-.33.35c-.51,0-1,0-1.57,0v5.39c-.32.26-.63,0-1,.17V100c-.2-.22-.42-.14-.6-.13-.34,0-.39-.13-.39-.42s.13-.33.37-.31a4,4,0,0,0,.49,0c.22-.23.12-.53.1-.78a1.45,1.45,0,0,1,.55-1.34,1.43,1.43,0,0,1,1.23-.52,8.14,8.14,0,0,0,1.11,0v.64c0,.34-.17.44-.44.23a.78.78,0,0,0-1,0,.9.9,0,0,0-.53,1A4.4,4.4,0,0,1,342.82,99.18Z"/><path class="cls-15" d="M235.58,59.18v3.67c0,.85.59,1.31,1.36,1,.21-.07.39-.34.55,0s-.14.8-.35.78a3.8,3.8,0,0,1-1.72-.19,1.26,1.26,0,0,1-.81-1.24c0-1.32,0-2.63,0-4-.19-.22-.45-.1-.67-.11s-.28-.18-.29-.39.08-.36.33-.34.39,0,.62,0V56.62a1.69,1.69,0,0,1,1,0v1.87h1.68c.24,0,.24.15.24.32s.06.41-.26.41Z"/><path class="cls-15" d="M196.24,59.18h-.66c-.29,0-.3-.15-.31-.37s.06-.38.33-.36a6.14,6.14,0,0,0,.62,0V56.64a1.47,1.47,0,0,1,1,0v1.87h1.68c.32,0,.24.23.25.41s0,.31-.25.31H197.2c0,1.33,0,2.68,0,4a1,1,0,0,0,1.34.72c.21-.07.38-.34.56,0s-.14.79-.35.79a3.18,3.18,0,0,1-1.82-.22,1.26,1.26,0,0,1-.72-1.2C196.27,61.93,196.24,60.62,196.24,59.18Z"/><path class="cls-15" d="M320,72.59c0,1.29,0,2.48,0,3.67,0,.86.58,1.32,1.36,1.06.21-.07.38-.34.55,0s-.14.79-.36.79a3.17,3.17,0,0,1-1.82-.22,1.28,1.28,0,0,1-.71-1.22c.05-1.31,0-2.62,0-3.94-.19-.22-.45-.11-.67-.11s-.29-.18-.3-.39.08-.36.34-.34h.61V70a1.61,1.61,0,0,1,1,0v1.86h1.68c.24,0,.25.14.25.31s.06.41-.26.41Z"/><path class="cls-15" d="M221.91,99.9c-.28,0-.47,0-.67,0s-.29-.16-.3-.38.07-.37.33-.35.38,0,.62,0V97.36a1.53,1.53,0,0,1,1,0v1.86h1.68c.32,0,.23.25.25.42s0,.31-.25.31h-1.67c0,1.3,0,2.61,0,3.91a1,1,0,0,0,1.34.83c.21-.07.38-.34.56,0s-.14.81-.35.79c-.57-.06-1.12.14-1.71-.19a1.24,1.24,0,0,1-.82-1.24C221.93,102.66,221.91,101.34,221.91,99.9Z"/><path class="cls-15" d="M233.66,99.9h-.5c-.23,0-.45.06-.47-.33s.27-.38.54-.39l.39,0V97.41c.32-.23.62-.13,1-.11v1.88h1.67c.3,0,.29.17.3.38s-.08.35-.34.35c-.51,0-1,0-1.59,0,0,1.25,0,2.44,0,3.63s.45,1.33,1.5,1a.43.43,0,0,1,.31,0c.18.09.09.28.1.43a.49.49,0,0,1-.33.45,2.6,2.6,0,0,1-2.36-.59.85.85,0,0,1-.19-.65V99.9Z"/><path class="cls-15" d="M394.88,99.9c0,1.29,0,2.48,0,3.67,0,.86.58,1.32,1.36,1.06.21-.07.38-.34.55,0s-.14.79-.36.79a3.17,3.17,0,0,1-1.82-.22,1.27,1.27,0,0,1-.71-1.21c.05-1.32,0-2.63,0-4-.19-.22-.45-.11-.67-.11s-.29-.18-.3-.39.08-.36.34-.34.38,0,.61,0V97.35a1.69,1.69,0,0,1,1,0v1.86h1.68c.24,0,.25.15.24.31s.07.42-.25.41Z"/><path class="cls-15" d="M423.66,86.25c-.27,0-.46,0-.66,0s-.3-.15-.3-.37.06-.37.33-.35.38,0,.61,0V83.71a1.54,1.54,0,0,1,1,0v1.87h1.68c.32,0,.24.24.25.42s0,.3-.24.3c-.52,0-1,0-1.68,0,0,1.26,0,2.52,0,3.78A1,1,0,0,0,426,91c.2-.07.37-.34.55,0s-.13.79-.34.79a3.17,3.17,0,0,1-1.82-.22,1.24,1.24,0,0,1-.72-1.2C423.7,89,423.66,87.69,423.66,86.25Z"/><path class="cls-15" d="M205.12,86.25c0,1.31,0,2.54,0,3.77a1,1,0,0,0,1.34,1c.21-.07.38-.35.57,0s-.13.79-.35.8a3,3,0,0,1-1.92-.24,1.23,1.23,0,0,1-.63-1.18c.08-1.31,0-2.63,0-3.95-.18-.24-.44-.11-.66-.11s-.31-.15-.31-.38.05-.37.32-.35.39,0,.62,0V83.71a1.47,1.47,0,0,1,1,0v1.87h1.68c.32,0,.25.23.25.41s0,.31-.24.31C206.27,86.24,205.75,86.25,205.12,86.25Z"/><path class="cls-18" d="M199.36,105.39h-.92V99.21h.84c.22.35-.06.78.17,1.16.76-.58,1.26-1.62,2.43-1.41.17.1.12.23.11.34,0,.29.12.57-.42.63a2.11,2.11,0,0,0-1.86,1.44,4.83,4.83,0,0,0-.36,1.65C199.37,103.77,199.36,104.53,199.36,105.39Z"/><path class="cls-18" d="M446.7,85.56h.95v1.23c.85-.65,1.36-1.7,2.54-1.48.18.13.08.3.1.45,0,.32,0,.45-.41.51A2.15,2.15,0,0,0,448,87.71a5.13,5.13,0,0,0-.36,1.65c0,.75,0,1.51,0,2.26-.13.22-.34.12-.53.14s-.44,0-.43-.36C446.71,89.46,446.7,87.52,446.7,85.56Z"/><path class="cls-18" d="M249,78a1.88,1.88,0,0,1-.91.06V71.94a1.83,1.83,0,0,1,.81-.06c.23.35,0,.77.17,1.17.78-.55,1.26-1.63,2.48-1.39.14.1.08.27.08.42s.07.49-.39.53a2.16,2.16,0,0,0-1.75,1.12,4.84,4.84,0,0,0-.49,1.94C249,76.46,249,77.25,249,78Z"/><path class="cls-18" d="M393.68,91.74h-.92V85.55h.84c.22.36-.07.78.19,1.19.3-.31.61-.59.89-.9a2,2,0,0,1,1-.54c.54-.15.69,0,.67.59,0,.23,0,.33-.31.37a2.19,2.19,0,0,0-2,1.46,4.77,4.77,0,0,0-.36,1.64C393.69,90.12,393.68,90.87,393.68,91.74Z"/><path class="cls-18" d="M347.38,85.34v.32c0,.3.09.56-.44.62a2.09,2.09,0,0,0-1.86,1.45,5.06,5.06,0,0,0-.35,1.65c0,.75,0,1.51,0,2.28a1.4,1.4,0,0,1-.93.06V85.61c.24-.24.56,0,.81-.1.26.41,0,.84.21,1.21C345.59,86.13,346.08,85.07,347.38,85.34Z"/><path class="cls-18" d="M282.64,85.55h.84c.23.36-.06.79.18,1.16.75-.58,1.25-1.62,2.43-1.4.16.1.11.23.11.34,0,.29.11.57-.42.63a2.1,2.1,0,0,0-1.87,1.44,4.82,4.82,0,0,0-.35,1.65c0,.75,0,1.51,0,2.26-.27.29-.59,0-.92.18Z"/><path class="cls-18" d="M216.63,64.65h-.93V58.54a1.27,1.27,0,0,1,.86,0c.19.37-.06.79.16,1.15,1.5-1.42,1.5-1.42,2.55-1.37,0,.19,0,.38,0,.57s-.1.3-.34.34a2.2,2.2,0,0,0-2,1.48,5.12,5.12,0,0,0-.35,1.66C216.65,63.08,216.63,63.83,216.63,64.65Z"/><path class="cls-18" d="M177.32,58.48h.84c.23.36-.06.79.18,1.16.76-.58,1.26-1.62,2.42-1.41.17.11.12.24.12.35,0,.29.11.56-.42.62a2.08,2.08,0,0,0-1.86,1.45,4.83,4.83,0,0,0-.36,1.65c0,.75,0,1.51,0,2.26-.28.28-.6,0-.93.17Z"/><path class="cls-19" d="M223.83,78.08H223c0-.06-.09-.09-.09-.12V69.34a1.25,1.25,0,0,1,.87-.07s.08.07.08.1C223.83,72.24,223.83,75.11,223.83,78.08Z"/><path class="cls-19" d="M293.92,69.26h.88V78c-.22.25-.55,0-.88.14Z"/><path class="cls-19" d="M313.59,82.92h.88v8.76c-.24.16-.54.07-.88,0Z"/><path class="cls-19" d="M413.31,105.39h-.88V96.57h.88Z"/><path class="cls-19" d="M263.69,96.57h.88v8.76c-.23.18-.54.07-.88,0Z"/><path class="cls-19" d="M468.51,82.89v8.78c-.27.17-.55,0-.82.09a.34.34,0,0,1-.12-.31V83.68C467.57,82.91,467.57,82.91,468.51,82.89Z"/><path class="cls-20" d="M365.37,99.18h.83a.34.34,0,0,1,.13.31v6.09c0,1.26-.63,1.84-1.86,1.75-.16,0-.33,0-.3-.25s-.1-.37.19-.48c1-.39,1-.4,1-1.37Z"/><path class="cls-21" d="M387,104.69c-.55,1.1-1.57,1-2.52.94a2.06,2.06,0,0,1-1.61-1.31,1.48,1.48,0,0,1-.19-.64V99.29c.28-.19.57-.07.83-.11a.31.31,0,0,1,.13.31c0,1.15,0,2.31,0,3.46a1.81,1.81,0,0,0,2.83,1.67c.1-.05.14-.2.29-.17l.09,0a.37.37,0,0,1,.13.12Z"/><path class="cls-21" d="M470,104.69c-.55,1.1-1.57,1-2.53.94a2,2,0,0,1-1.6-1.31,1.48,1.48,0,0,1-.19-.64V99.29c.28-.19.56-.07.83-.11a.33.33,0,0,1,.13.31c0,1.15,0,2.31,0,3.46a1.81,1.81,0,0,0,2.83,1.67c.09-.05.13-.2.29-.17l.08,0a.3.3,0,0,1,.13.12Z"/><path class="cls-13" d="M386.72,104.45a3.06,3.06,0,0,0,.49-1.83c0-1.11,0-2.22,0-3.35a1.48,1.48,0,0,1,.93,0v6.09c-.11.16-.28.08-.43.09s-.57,0-.5-.41c0-.16,0-.32-.24-.31Z"/><path class="cls-13" d="M469.73,104.45a3.06,3.06,0,0,0,.49-1.83c0-1.11,0-2.22,0-3.35a1.48,1.48,0,0,1,.93,0v6.09c-.12.16-.29.08-.44.09s-.56,0-.5-.41c0-.16,0-.32-.23-.31Z"/><path class="cls-22" d="M187.64,44.82h.88V51h-.88Z"/><path class="cls-22" d="M178.28,44.82h.89V51c-.24.23-.56,0-.89.13Z"/><path class="cls-22" d="M405.71,85.55h.88v6.12c-.23.18-.54.07-.88.06Z"/><path class="cls-22" d="M268,71.9h.88V78c-.22.25-.55,0-.88.15Z"/><path class="cls-22" d="M391.24,105.39h-.88V99.27c.23-.18.54-.07.88-.06Z"/><path class="cls-22" d="M240.1,64.66h-.88V58.54c.23-.18.54-.07.88,0Z"/><path class="cls-22" d="M204.6,105.39h-.89V99.26c.24-.23.56,0,.89-.13Z"/><path class="cls-22" d="M239.38,105.39h-.88V99.27c.22-.25.55,0,.88-.15Z"/><path class="cls-22" d="M267.69,105.39h-.88V99.21h.88Z"/><path class="cls-22" d="M300.39,99.21h.89v6.12c-.24.23-.56,0-.89.13Z"/><path class="cls-22" d="M363.17,105.39h-.88V99.27c.23-.18.54-.07.88-.06Z"/><path class="cls-22" d="M428.5,85.55h.88v6.12c-.23.18-.54.07-.88.06Z"/><path class="cls-23" d="M311.38,104.24h1.22a4.66,4.66,0,0,1-.23,1.92c-.23.43-.64.48-1,.68-.16.09-.26-.13-.36-.24s0-.19.15-.23.4-.35.61-.52a.32.32,0,0,0,.08-.31C311.11,105.36,311.46,104.76,311.38,104.24Z"/><path class="cls-23" d="M248.54,104.25h1.21a4.34,4.34,0,0,1-.24,1.93c-.24.41-.65.48-1,.65-.18.09-.28-.23-.46-.33a1.65,1.65,0,0,0,.74-.5c.23-.26.5-.49-.11-.59-.12,0-.15-.15-.15-.28S248.54,104.58,248.54,104.25Z"/><path class="cls-23" d="M375.87,104.24h1.26a4.79,4.79,0,0,1-.22,1.9c-.23.44-.63.49-1,.69-.18.12-.38-.16-.43-.3s.2-.09.29-.16a4.61,4.61,0,0,0,.58-.59c.05-.06,0-.29-.05-.3C375.54,105.25,376.1,104.67,375.87,104.24Z"/><path class="cls-23" d="M504.22,90.58h1.25a4.76,4.76,0,0,1-.21,1.9c-.23.44-.64.5-1,.7s-.39-.16-.43-.3.2-.1.29-.17a4,4,0,0,0,.58-.59.38.38,0,0,0-.05-.3C503.89,91.59,504.44,91,504.22,90.58Z"/><path class="cls-23" d="M363.39,90.58h1.27a4.81,4.81,0,0,1-.23,1.91c-.23.44-.64.49-1,.69-.16.1-.26-.12-.37-.23s0-.2.13-.24.41-.35.62-.51a.3.3,0,0,0,.09-.3C363.18,91.72,363.55,91.1,363.39,90.58Z"/><path class="cls-22" d="M206.29,44.8V46h-1.11c-.05,0-.07-.14-.07-.26,0-.89,0-.89,1-.9Z"/><path class="cls-22" d="M202,59.65h-1.05c-.06-.07-.11-.1-.11-.12,0-.32,0-.64,0-1,.36-.22.74,0,1.16-.14Z"/><path class="cls-24" d="M211.09,97v1.15H210s-.07-.13-.07-.25c0-.89,0-.89,1-.9Z"/><path class="cls-22" d="M208.91,98.21H207.8V97.08a3.61,3.61,0,0,1,1.11,0Z"/><path class="cls-22" d="M323.65,78.1V77h1.11c.05,0,.07.13.07.25,0,.89,0,.89-1,.9Z"/><path class="cls-22" d="M279,76.9h1.13V78c-.33.19-.71,0-1.13.11Z"/><path class="cls-22" d="M386.28,83.39h1.12v1.12a3.38,3.38,0,0,1-1.12,0Z"/><path class="cls-22" d="M498.05,105.37v-1.12h1.13a3.42,3.42,0,0,1,0,1.12Z"/><path class="cls-24" d="M388.44,83.39h1.12v1.12a3.38,3.38,0,0,1-1.12,0Z"/><path class="cls-22" d="M279.05,71.89h1.11V73a3.33,3.33,0,0,1-1.11,0Z"/><path class="cls-22" d="M242.82,85.55h1.12v1.12a3.15,3.15,0,0,1-1.12,0Z"/><path class="cls-22" d="M250.26,63.51h1.12v1.12a3.42,3.42,0,0,1-1.12,0Z"/><path class="cls-22" d="M202,64.67h-1.12V63.54a3.4,3.4,0,0,1,1.12,0Z"/><path class="cls-22" d="M206.29,49.87V51h-1.12a3.15,3.15,0,0,1,0-1.12Z"/><path class="cls-22" d="M244,90.6v1.12h-1.12a3.38,3.38,0,0,1-.05-1.12Z"/><path class="cls-25" d="M187.38,43.36v-.91h1.11c.19.18,0,.47.06.73s-.19.19-.35.18Z"/><path class="cls-25" d="M240.12,56.1V57H239c-.16-.24-.07-.54-.05-.88Z"/><path class="cls-25" d="M203.46,97.71v-.88h1.1c.16.24.07.54,0,.88Z"/><path class="cls-25" d="M268.91,69.52v.88h-1.1c-.16-.24-.07-.55-.05-.88Z"/><path class="cls-25" d="M239.4,96.79v.91h-1.1c-.2-.18-.06-.47-.07-.72s.19-.19.35-.19Z"/><path class="cls-25" d="M266.55,97.71v-.88h1.1c.17.23.07.54.05.88Z"/><path class="cls-25" d="M300.14,97.71v-.88h1.1c.16.24.07.54,0,.88Z"/><path class="cls-25" d="M362,96.81h1.13c.15.27.05.55.08.84-.36.21-.75,0-1.09.11C361.94,97.45,362,97.17,362,96.81Z"/><path class="cls-25" d="M365.15,97.71v-.88h1.1c.17.23.07.54.05.88Z"/><path class="cls-25" d="M428.24,84.05v-.88h1.1c.17.24.07.54.05.88Z"/><path class="cls-25" d="M405.45,84.05v-.88h1.1c.16.24.07.54.05.88Z"/><path class="cls-25" d="M391.29,97.73h-1.13c-.16-.28-.05-.56-.08-.84.36-.21.75,0,1.09-.12C391.35,97.08,391.25,97.36,391.29,97.73Z"/><path class="cls-25" d="M179.22,43.34h-1.13c-.16-.27-.05-.55-.09-.86a3,3,0,0,1,1.12-.06C179.28,42.7,179.17,43,179.22,43.34Z"/><path class="cls-8" d="M109.87,64a8.27,8.27,0,0,1-.86,3.35,18.61,18.61,0,0,1-4.84,6.73,2.55,2.55,0,0,0-.74,1.38c-.34,1.76-.91,3.47-1.24,5.24-.12.62-.36,1.22-.46,1.84a4.47,4.47,0,0,0-.25,1.81c-.47.58,0,1.31-.34,1.9s-.09,1.24-.13,1.86,0,1.36,0,2,0,1.28,0,1.92c0,.45.24.86.3,1.32A.71.71,0,0,0,102,94a2.33,2.33,0,0,1,1.66,1.19,3,3,0,0,1,.23,1.47c0,.1-.17.28-.3.34a4.77,4.77,0,0,1-1.69.53c-.48,0-1,0-1.44,0a2.37,2.37,0,0,1-2.06-1.1,16.35,16.35,0,0,1-1-2.94c-.23-.91-.35-1.84-.62-2.74a8.57,8.57,0,0,1-.32-2.26c0-3.47,0-6.94,0-10.42a3.15,3.15,0,0,1,.38-1.48c-.58.2-1,0-1.4.22a2.35,2.35,0,0,1-1.82,0,1.83,1.83,0,0,0-.68-.11,13,13,0,0,1-2.31-.2c-.72-.19-1.47-.22-2.2-.48A8.27,8.27,0,0,0,87,75.73c-1-.18-2.06-.4-3.08-.68a8.78,8.78,0,0,0-1.56-.29,29.88,29.88,0,0,1-3.14-.56,12.51,12.51,0,0,1-3.08-.64.68.68,0,0,0-.35,0c-1.14.07-2.23-.35-3.38-.26a31.38,31.38,0,0,1-3.36,0c-.41,0-.84.15-1.24-.21-.21-.19-.44.14-.55.32a21.43,21.43,0,0,1-1.23,2c-.63.82-1.21,1.66-1.84,2.48a70.16,70.16,0,0,1-5.34,5.57c-.46.47-1,.87-1.48,1.3a6.33,6.33,0,0,0-1.91,3,12.38,12.38,0,0,0-.53,2.43c0,.55-.17,1.13-.18,1.7s0,1.11,0,1.66c.43.26.9,0,1.35.3a2.09,2.09,0,0,1,1,2.21,1.07,1.07,0,0,1-.27.37,3.36,3.36,0,0,1-3.68.86A5.75,5.75,0,0,1,52.2,97a2.49,2.49,0,0,1-1.06-1.1,2.4,2.4,0,0,1,0-1.63,2.82,2.82,0,0,0,.16-1.13c0-2.75,0-5.51,0-8.26a3.51,3.51,0,0,1,1.13-2.77,7.58,7.58,0,0,0,2.29-3.72c.41-.28-.08-.89.42-1.14-.13-.79.3-1.5.26-2.3-.08-1.83,0-3.67,0-5.51a1,1,0,0,0-.36-.93c-1-.77-1.2-2-1.79-3,.13-.75-.4-1.42-.25-2.17s-.22-1.47.21-2.19c.19-.33-.06-.82.24-1.23.08-.12-.18-.54-.35-.78a11.61,11.61,0,0,1-2.5-5.31c-.45-.45,0-1.1-.31-1.55a2.62,2.62,0,0,1-.16-1.48,13.5,13.5,0,0,1,1.5-6,13.27,13.27,0,0,1,3.13-4.33,12.43,12.43,0,0,1,5.61-3,27.85,27.85,0,0,1,3.51-.2c.47.41,1.13.31,1.67.61s1,.43,1.53.65a15.49,15.49,0,0,1,5.34,4.16c.32.37.79.74.73,1.36.51.47,0,.94-.11,1.31a1.45,1.45,0,0,1-1.21.77,2,2,0,0,1-1.9-.65,8.57,8.57,0,0,0-4.11-2.5,2,2,0,0,0-.75-.19c-.36,0-.73,0-1.08,0a6.94,6.94,0,0,0-4.24,1.06,7.75,7.75,0,0,0-4,4.66c0,.1-.14.16-.15.3a7.59,7.59,0,0,0,1,4.64c.26.4.48.53.73.23a5,5,0,0,1,2-1.23,18.92,18.92,0,0,1,4-1.31,35.45,35.45,0,0,1,7.12-.44c.8,0,1.6,0,2.4,0C74,50.75,75,51.2,76,51c.56.4,1.24.08,1.81.27s1.25.07,1.82.23a10.34,10.34,0,0,0,3.5.19,9.14,9.14,0,0,0,2.58-.41,2.12,2.12,0,0,1,.94,0c.34,0,.51-.34.87-.26.9.21,1.74-.31,2.65-.24s1.76,0,2.64,0a9.26,9.26,0,0,1,3.67.2c4,.73,7.7,2,10.78,4.78a7.23,7.23,0,0,1,2.7,6.44A5.51,5.51,0,0,1,109.87,64Z"/><path class="cls-26" d="M109.87,64c0-.84,0-1.68,0-2.52a6.17,6.17,0,0,0-1.19-3.57,13.12,13.12,0,0,0-5-4.23A29.08,29.08,0,0,0,98,51.58a5.14,5.14,0,0,0-1.79-.3c-.53.06-.94-.33-1.46-.26a7.7,7.7,0,0,1-1.44,0,1.6,1.6,0,0,1-.5-.23,3.07,3.07,0,0,1,1.34-1.23,1.52,1.52,0,0,0,.51-.5,25,25,0,0,0,3.07-4.46A37.38,37.38,0,0,1,100,40.87a22.23,22.23,0,0,1,1.87-2.82c.17-.2.06-.43.14-.66.32-.92,1-1.68,1.35-2.55a14.45,14.45,0,0,1,1.51-2.5,3,3,0,0,1,1-1A4,4,0,0,0,107.77,29c.42.66.42.66.42,1.27a7.69,7.69,0,0,1,0,1c-.13,1.45.41,2.86.25,4.32,0,.36.24.5.58.6a11.73,11.73,0,0,1,2.09.72,4.58,4.58,0,0,1,2.3,1.94,8.81,8.81,0,0,1,.78,2.3c0,.44,0,.88,0,1.32a1,1,0,0,0,.89.89c.71,0,1.43,0,2.15,0,.16,0,.33,0,.31.24-1,.4-.23.89,0,1.29s.72.32,1,.63a5.47,5.47,0,0,1-2.25,3.85,5.23,5.23,0,0,1-3,1.18c-.34.41-.93.05-1.27.4a5.41,5.41,0,0,0-1.18,1.3,3.11,3.11,0,0,0-.47,1.47c.17,3-.36,6-.25,9,0,.36,0,.72,0,1.08C110.11,63.9,110,64,109.87,64Z"/><path class="cls-27" d="M118.51,45.52c-1.29,0-1.3,0-1.67-1.26a1.55,1.55,0,0,0-.2-.66h.91a1,1,0,0,1,.54.16c.79.46.8.44.43,1.4A1.08,1.08,0,0,0,118.51,45.52Z"/><path class="cls-28" d="M228.3,43.84c.31,1.13-.14,2.14-.16,3.17a.17.17,0,0,1-.23.18c-.07,0-.19,0-.19-.07,0-.34-.34-.56-.31-.95a3.52,3.52,0,0,0-.21-1.92c-.11-.23,0-.45.35-.41S228,43.84,228.3,43.84Z"/><path class="cls-29" d="M228.35,48.85h-.88V47.76c.23-.17.54-.07.88,0Z"/><path class="cls-28" d="M240.06,43.84c.3,1.18-.18,2.19-.17,3.23,0,0-.1.11-.17.12a.32.32,0,0,1-.21,0c-.06-.3-.34-.49-.34-.82a4.64,4.64,0,0,0-.22-2.15c-.09-.2,0-.37.3-.35Z"/><path class="cls-29" d="M240.1,48.85h-.88V47.76c.24-.17.54-.07.88,0Z"/><path class="cls-30" d="M215.5,43.84h1c.05.06.13.12.12.18a19.88,19.88,0,0,0-.24,3c0,.21-.19.19-.35.19s-.38,0-.35-.18C215.84,46,215.2,45,215.5,43.84Z"/><path class="cls-31" d="M216.61,47.71v1.12h-1.1c-.19-.32,0-.7-.11-1.12Z"/><path class="cls-32" d="M190.47,27.78c.11-.83.2-1.64,1.17-2a1.13,1.13,0,0,1,1.07,0,2.07,2.07,0,0,1,1.17,2.43,1.82,1.82,0,0,1-.78,1.36,1.45,1.45,0,0,1-2.39-.82A2.29,2.29,0,0,1,190.47,27.78Z"/><path class="cls-32" d="M356.19,27.92c.19-1,.29-1.83,1.26-2.17a1.09,1.09,0,0,1,1,0,1.93,1.93,0,0,1,1.22,1.64c.11,1.17-.06,1.78-1.13,2.31a1.39,1.39,0,0,1-2-.76C356.42,28.56,356,28.21,356.19,27.92Z"/><path class="cls-33" d="M234.2,27.79c-.41.67-.19,1.64-1.21,2a1.49,1.49,0,0,1-2.05-.78,2.82,2.82,0,0,1,.08-2.75,1.67,1.67,0,0,1,2.58-.07A8.32,8.32,0,0,1,234.2,27.79Z"/><path class="cls-32" d="M209,27.86a1.71,1.71,0,0,1-1.06,1.86,1.76,1.76,0,0,1-2.53-1.37,5.89,5.89,0,0,1,0-.84,1.8,1.8,0,1,1,3.59,0Z"/><path class="cls-32" d="M336.82,27.91A1.9,1.9,0,0,1,334.87,30c-1-.12-1.58-.95-1.67-2.23a2,2,0,0,1,1.67-2.1,1.85,1.85,0,0,1,1.95,1.8Z"/><path class="cls-32" d="M345.7,27.84a1.72,1.72,0,0,1-1.05,1.88,1.78,1.78,0,0,1-2.55-1.35c0-.32,0-.64,0-1a1.8,1.8,0,0,1,3.6,0Z"/><path class="cls-33" d="M312.15,27.31H311c-.29,0-.32-.16-.29-.37a1.51,1.51,0,0,1,2.09-1.11c.54.18.52.62.77.92s0,.55-.42.56S312.47,27.31,312.15,27.31Z"/><path class="cls-33" d="M223.59,27.31c-.32,0-.64,0-1,0-.17,0-.43.11-.47-.18s-.1-.45.12-.53c.39-.13.25-.63.72-.79a1.43,1.43,0,0,1,2,1.2c0,.17,0,.31-.25.3Z"/><path class="cls-34" d="M249.07,30.19a1,1,0,0,1-1-.51c-.09-.21-.39-.32-.17-.7a1.33,1.33,0,0,1,.78-.68c.39-.09.93-.21,1.24.08s.82,0,.67.28.07.79-.28,1.08a.61.61,0,0,1-.51.21C249.51,29.89,249.38,30.32,249.07,30.19Z"/><path class="cls-34" d="M299.38,28.94c.05.45,0,.91-.34,1-.59.1-1.18.56-1.83.05a.87.87,0,0,1,.08-1.46,1.75,1.75,0,0,1,1.63-.1c.07,0,.13.1.19.1C299.51,28.51,300,28.44,299.38,28.94Z"/><path class="cls-7" d="M170.35,77.38V74.27c1.06,0,2.12,0,3.18,0,.34,0,.53.24.86.28s1,.82,1,1.27-.5,1.24-1,1.31a5.25,5.25,0,0,1-1.33.29A27.4,27.4,0,0,0,170.35,77.38Z"/><path class="cls-35" d="M170.33,73.55V70.62c0-.25,0-.45.36-.43.83,0,1.67,0,2.5,0a2,2,0,0,1,1.69,1.32,1.51,1.51,0,0,1-.68,1.6,2.3,2.3,0,0,1-1.37.43Z"/><path class="cls-7" d="M170.35,47V43.12c1,0,2,0,3,0a2.64,2.64,0,0,1,1.14.4,1.9,1.9,0,0,1,.08,2.92,2.35,2.35,0,0,1-1.46.5Z"/><path class="cls-32" d="M321,88.31a2.22,2.22,0,0,1,3.78-1.68,2.31,2.31,0,0,1,.75,1.68,2.51,2.51,0,0,1-.79,1.67,2.12,2.12,0,0,1-1.4.59A2.25,2.25,0,0,1,321,88.31Z"/><path class="cls-32" d="M356,88.32A2.26,2.26,0,0,1,358.17,86a2.3,2.3,0,0,1,1.63.64,2.35,2.35,0,0,1,.75,1.68,2.47,2.47,0,0,1-.79,1.66,2.08,2.08,0,0,1-1.4.6A2.25,2.25,0,0,1,356,88.32Z"/><path class="cls-32" d="M243,61.24a2.24,2.24,0,0,1,2.21-2.32,2.27,2.27,0,0,1,1.53.59,2.52,2.52,0,0,1,.8,1.66,2.37,2.37,0,0,1-.75,1.69,1.93,1.93,0,0,1-1.5.63,2.45,2.45,0,0,1-1.64-.66A1.86,1.86,0,0,1,243,61.24Z"/><path class="cls-35" d="M346.45,102.35a2.3,2.3,0,0,1,.47-1.83,2.13,2.13,0,0,1,2.92-.44,3.3,3.3,0,0,1,1.11,2,2.78,2.78,0,0,1-.55,1.8,2,2,0,0,1-1.61,1,1.75,1.75,0,0,1-1.8-.76C346.68,103.61,346.22,103.07,346.45,102.35Z"/><path class="cls-35" d="M336.37,88.63c-.24-.71.21-1.26.51-1.81a2.12,2.12,0,0,1,2.84-.43,3,3,0,0,1,1.15,2.15,2.86,2.86,0,0,1-.65,1.87,2.42,2.42,0,0,1-1.56.85,2,2,0,0,1-1.8-.81C336.61,89.88,336.14,89.34,336.37,88.63Z"/><path class="cls-35" d="M398.26,88.64c-.23-.69.2-1.25.49-1.8a2.07,2.07,0,0,1,2.93-.38,2.76,2.76,0,0,1,0,4.34,1.63,1.63,0,0,1-1.58.44c-.51-.18-1.18-.22-1.44-1C398.51,89.74,398.12,89.28,398.26,88.64Z"/><path class="cls-35" d="M271.83,75c-.23-.69.25-1.22.49-1.8s.94-.63,1.45-.81a1.61,1.61,0,0,1,1.38.37,2.73,2.73,0,0,1,0,4.48,1.57,1.57,0,0,1-1.49.37c-.51-.22-1.19-.22-1.42-1C272.09,76.07,271.68,75.62,271.83,75Z"/><path class="cls-35" d="M212.6,75a11.77,11.77,0,0,1-.71,1.74,2.39,2.39,0,0,1-1.46.84,1.67,1.67,0,0,1-1.75-.62,3.09,3.09,0,0,1,0-4c.32-.46.86-.47,1.3-.61a1.74,1.74,0,0,1,1.38.37C212.17,73.23,212.33,74.14,212.6,75Z"/><path class="cls-35" d="M169.88,102.35a2.38,2.38,0,0,1,.47-1.83,2.14,2.14,0,0,1,2.93-.44,3.34,3.34,0,0,1,1.1,2,2.83,2.83,0,0,1-.54,1.8,2,2,0,0,1-1.62,1,1.75,1.75,0,0,1-1.8-.76C170.12,103.61,169.65,103.07,169.88,102.35Z"/><path class="cls-35" d="M278.07,102.3c-.23-.69.2-1.26.49-1.8a2.06,2.06,0,0,1,2.92-.39,2.76,2.76,0,0,1,0,4.35,1.68,1.68,0,0,1-1.58.44c-.51-.19-1.18-.22-1.44-1C278.32,103.39,277.93,102.93,278.07,102.3Z"/><path class="cls-35" d="M304,102.33c-.25-.71.24-1.25.47-1.83s.91-.67,1.44-.81a1.94,1.94,0,0,1,1.49.42,3,3,0,0,1,1.1,2,2.75,2.75,0,0,1-.56,1.79,2,2,0,0,1-1.62,1,1.8,1.8,0,0,1-1.8-.78C304.21,103.6,303.74,103.05,304,102.33Z"/><path class="cls-32" d="M264.63,88.62a4.28,4.28,0,0,1-.54,1.83c-.19.58-.86.62-1.33.8a1.31,1.31,0,0,1-1.32-.22c-.45-.41-1.11-.69-1.14-1.4,0-.53-.64-1.06,0-1.6-.2-.84.46-1.23,1-1.62a1.71,1.71,0,0,1,1.79-.24C264.31,86.62,264.39,87.62,264.63,88.62Z"/><path class="cls-32" d="M231.26,74.88a4,4,0,0,1-.49,1.88c-.23.6-.9.69-1.42.84a1.6,1.6,0,0,1-1.5-.39,2.66,2.66,0,0,1-1.09-1.82,2.59,2.59,0,0,1,2.36-3A2.3,2.3,0,0,1,231,73.83C231.08,74.2,231.44,74.51,231.26,74.88Z"/><path class="cls-32" d="M464.93,88.67a4.32,4.32,0,0,1-.51,1.78c-.19.58-.86.62-1.33.8a1.34,1.34,0,0,1-1.33-.22c-.45-.4-1.1-.68-1.14-1.39,0-.53-.65-1.06,0-1.6-.11-1.07.69-1.46,1.43-1.9a1.27,1.27,0,0,1,1.21,0A2.53,2.53,0,0,1,464.93,88.67Z"/><path class="cls-32" d="M260.77,102.09a3.76,3.76,0,0,1-.53,2,2,2,0,0,1-2.75.5c-.42-.36-1-.66-1-1.35,0-.54-.6-1.07,0-1.6-.19-.84.49-1.22,1-1.62a1.32,1.32,0,0,1,1.78-.16C260.58,100.14,260.51,101.33,260.77,102.09Z"/><path class="cls-32" d="M201,88.59a3.86,3.86,0,0,1-.48,1.81c-.24.61-.9.69-1.42.85a1.55,1.55,0,0,1-1.5-.38,2.68,2.68,0,0,1-1.09-1.82,2.6,2.6,0,0,1,2.34-3,2.23,2.23,0,0,1,1.89,1.48C200.85,87.89,201.31,88.22,201,88.59Z"/><path class="cls-32" d="M444,88.32a4,4,0,0,1-.49,2.14c-.2.58-.87.6-1.34.78a1.25,1.25,0,0,1-1.31-.21c-.44-.41-1.1-.69-1.13-1.41,0-.53-.63-1.06,0-1.6-.2-.84.47-1.22,1-1.62a1.31,1.31,0,0,1,1.78-.17C443.86,86.47,443.78,87.67,444,88.32Z"/><path class="cls-32" d="M359.36,102.16a3.88,3.88,0,0,1-.49,1.92c-.22.6-.9.68-1.42.83a1.75,1.75,0,0,1-1.51-.39,3.38,3.38,0,0,1-1.12-1.93,5.05,5.05,0,0,1,.47-1.84c.52-.51,1-1.12,1.82-1.09a2.18,2.18,0,0,1,2,1.5C359.17,101.53,359.68,101.8,359.36,102.16Z"/><path class="cls-36" d="M251.44,88.61c.41-.94.78-1.82,1.18-2.68.17-.37.5-.67.47-1.12a.2.2,0,0,1,.19-.24c.17,0,.24.06.31.25.44,1.2,1.13,2.3,1.5,3.54,0,.06.12.1.33.28C254,88.63,252.69,88.68,251.44,88.61Z"/><path class="cls-36" d="M407.8,102.3c.52-.18,1,.36,1.53.25.2,0,.18.19.18.35a1.79,1.79,0,0,1-.53,1.43,2,2,0,0,1-2,.55c-.28-.12-.58-.14-.85-.28s-.09-.62-.33-.82,0-.22,0-.35A1.75,1.75,0,0,1,407.8,102.3Z"/><path class="cls-36" d="M303.41,88.87c.21.7-.19,1.18-.32,1.71-.74.37-1.41,1.11-2.36.47-.68.09-.86-.32-.91-.89,0-.11-.16-.15-.06-.35a1.93,1.93,0,0,1,1.66-1.18C302.1,88.54,302.69,89,303.41,88.87Z"/><path class="cls-36" d="M228.85,102.3c.51-.15,1,.37,1.53.25.18,0,.17.21.17.37a2,2,0,0,1-2.73,1.86,1.18,1.18,0,0,1-1-1c0-.19,0-.23.07-.35A1.74,1.74,0,0,1,228.85,102.3Z"/><path class="cls-36" d="M428.13,104.92c-.48.19-.78-.3-1.24-.27-.3,0-.53-1-.35-1.29a2,2,0,0,1,2.62-1c.1,0,.16.14.3.14s.57-.13.64.11a.91.91,0,0,1-.1.89c-.2.25,0,.77-.44.87S428.69,105.06,428.13,104.92Z"/><path class="cls-36" d="M238.16,75.2a2.27,2.27,0,0,1-.28,1.64c-.17.47-.81.5-1.22.73a1.48,1.48,0,0,1-1.12-.07c-.56-.18-1-.32-1-1,0-.1-.11-.16,0-.35A1.89,1.89,0,0,1,236.18,75C236.87,74.88,237.44,75.35,238.16,75.2Z"/><path class="cls-36" d="M243.73,75c.48-.21.92.35,1.48.25.22,0,.21.17.21.33a2,2,0,0,1-2.69,1.91c-.6-.17-.95-.36-1-1,0-.13-.08-.19,0-.35A1.79,1.79,0,0,1,243.73,75Z"/><path class="cls-36" d="M196.89,75.2c.21.71-.18,1.19-.31,1.73-.75.37-1.42,1.11-2.37.47-.68.08-.85-.33-.91-.9,0-.11-.15-.15-.05-.35A1.94,1.94,0,0,1,194.9,75C195.59,74.88,196.17,75.35,196.89,75.2Z"/><path class="cls-36" d="M309,88.64c.47-.2.92.36,1.48.25.22,0,.2.18.2.34A2,2,0,0,1,308,91.14c-.61-.17-.94-.37-1-1,0-.13-.07-.19,0-.35A1.81,1.81,0,0,1,309,88.64Z"/><path class="cls-36" d="M350.94,88.65c.52-.19,1,.36,1.53.25.21-.05.19.19.18.34a1.82,1.82,0,0,1-.52,1.43,2.06,2.06,0,0,1-2,.55c-.27-.11-.57-.13-.84-.27s-.1-.62-.33-.83,0-.21,0-.35A1.73,1.73,0,0,1,350.94,88.65Z"/><path class="cls-36" d="M418.53,91.27c-.5.11-.82-.27-1.25-.29-.28,0-.52-.92-.38-1.21a2.13,2.13,0,0,1,2.6-1.09c.1,0,.17.17.28.2s.63-.16.74.15a.93.93,0,0,1-.13.88c-.18.26-.07.78-.45.86S419.08,91.46,418.53,91.27Z"/><path class="cls-37" d="M211.54,101.82h-4c-.41,0-.36-.29-.29-.48a2.53,2.53,0,0,1,1.6-1.66,1.82,1.82,0,0,1,2.21,1.51A.88.88,0,0,0,211.54,101.82Z"/><path class="cls-37" d="M246.36,101.82H242.3c-.33,0-.26-.26-.23-.43A2.44,2.44,0,0,1,244,99.66a1.83,1.83,0,0,1,1.91,1.59C245.93,101.44,246,101.59,246.36,101.82Z"/><path class="cls-37" d="M475.53,88.14h-4.06A2.25,2.25,0,0,1,473.05,86a1.9,1.9,0,0,1,1.69.54C475.18,87,475.13,87.61,475.53,88.14Z"/><path class="cls-37" d="M494.18,88.16c-1.26,0-2.42,0-3.58,0-.47,0-.63-.22-.43-.64a2.91,2.91,0,0,1,1.13-1.28,1.69,1.69,0,0,1,2.41.74C493.88,87.34,494,87.71,494.18,88.16Z"/><path class="cls-37" d="M436.17,88.16c-1.34,0-2.54,0-3.74,0-.35,0-.42-.16-.36-.42A2.72,2.72,0,0,1,433.73,86a1.89,1.89,0,0,1,2.15,1.46A2,2,0,0,0,436.17,88.16Z"/><path class="cls-37" d="M295.68,101.82c-.56,0-1.12,0-1.68,0-.37,0-.41-.18-.36-.44a2.47,2.47,0,0,1,1.92-1.73,1.83,1.83,0,0,1,1.91,1.59c0,.11,0,.23.11.32s.12.25-.1.25Z"/><path class="cls-37" d="M455.56,101.82H452c-.47,0-.63-.23-.42-.65a2.81,2.81,0,0,1,1.12-1.27,1.71,1.71,0,0,1,2.42.73C455.25,101,455.38,101.37,455.56,101.82Z"/><path class="cls-37" d="M487.94,101.82h-3.58c-.47,0-.63-.23-.43-.64a2.86,2.86,0,0,1,1.13-1.28,1.71,1.71,0,0,1,2.42.73C487.64,101,487.77,101.37,487.94,101.82Z"/><path class="cls-37" d="M182.79,74.51h-3.58c-.48,0-.63-.23-.43-.65a2.87,2.87,0,0,1,1.12-1.27,1.71,1.71,0,0,1,2.42.73C182.49,73.68,182.61,74.06,182.79,74.51Z"/><path class="cls-37" d="M220.41,74.51c-1.48,0-2.72,0-3.95,0-.41,0-.36-.29-.3-.48a2.56,2.56,0,0,1,1.61-1.66,1.82,1.82,0,0,1,2.21,1.5A.89.89,0,0,0,220.41,74.51Z"/><path class="cls-37" d="M265.45,74.51c-1.41,0-2.65,0-3.88,0-.4,0-.37-.26-.31-.47a2.54,2.54,0,0,1,1.6-1.67,1.84,1.84,0,0,1,2.22,1.49c.05.15,0,.32.14.42Z"/><path class="cls-37" d="M301.93,74.51h-3.8c-.36,0-.56-.29-.39-.61a3,3,0,0,1,1.11-1.3,1.82,1.82,0,0,1,2.7,1.17c.06.17-.05.4.16.54Z"/><path class="cls-37" d="M333.35,88.16h-3.88c-.26,0-.35-.09-.33-.35A2.61,2.61,0,0,1,330.85,86a1.87,1.87,0,0,1,1.95,1.09C333,87.43,332.82,87.86,333.35,88.16Z"/><path class="cls-37" d="M232.9,88.16c-1.47,0-2.67,0-3.86,0a.4.4,0,0,1-.4-.6,3,3,0,0,1,1.12-1.31,1.81,1.81,0,0,1,2.69,1.18C232.53,87.64,232.47,87.9,232.9,88.16Z"/><path class="cls-37" d="M182.12,101.82c-1.35,0-2.54,0-3.74,0-.35,0-.42-.16-.37-.43a2.75,2.75,0,0,1,1.67-1.74,1.91,1.91,0,0,1,2.15,1.47A2,2,0,0,0,182.12,101.82Z"/><path class="cls-7" d="M390.08,88.69a2.41,2.41,0,0,1-.5,1.72,2,2,0,0,1-2.5.65c-.39-.16-.89-.25-1-.62s-.57-.79-.54-1.33a4.11,4.11,0,0,1,.26-1.8A2.32,2.32,0,0,1,388.3,86,2.48,2.48,0,0,1,390.08,88.69Z"/><path class="cls-7" d="M280,88.79c.19.56-.31,1.08-.53,1.67s-.79.56-1.23.74a1.82,1.82,0,0,1-1.21-.08c-2-.6-2-3.38-.82-4.6.33-.34.76-.28,1.13-.48a1.39,1.39,0,0,1,1,.09A2.49,2.49,0,0,1,280,88.79Z"/><path class="cls-7" d="M202.48,48a2.43,2.43,0,0,1-.5,1.72,2,2,0,0,1-2.5.65c-.39-.16-.89-.25-1-.61s-.57-.8-.54-1.33a4.16,4.16,0,0,1,.26-1.81,2.3,2.3,0,0,1,2.53-1.26A2.48,2.48,0,0,1,202.48,48Z"/><path class="cls-7" d="M330.83,102.45c.2.58-.26,1.13-.55,1.67-.39.76-1.53.88-2.43.63-2-.55-2-3.39-.78-4.59.33-.34.76-.26,1.13-.46a1.3,1.3,0,0,1,1,.1A2.49,2.49,0,0,1,330.83,102.45Z"/><path class="cls-7" d="M195.76,102.44c.21.62-.32,1.12-.55,1.7s-.8.55-1.23.73a1.74,1.74,0,0,1-1.21-.11,2.25,2.25,0,0,1-1.46-1.54,2.84,2.84,0,0,1,.14-2.23c.2-.41.42-.95.84-1a3.29,3.29,0,0,1,1.56-.28,2.69,2.69,0,0,1,1.91,2.33Z"/><path class="cls-7" d="M456.77,88.78c.21.62-.32,1.12-.54,1.71s-.81.55-1.24.73a1.8,1.8,0,0,1-1.21-.12,2.21,2.21,0,0,1-1.46-1.53,2.91,2.91,0,0,1,.14-2.24c.2-.41.43-.94.84-1a3.19,3.19,0,0,1,1.57-.29,2.69,2.69,0,0,1,1.9,2.33Z"/><path class="cls-7" d="M338.76,102.45c.19.55-.31,1.07-.53,1.66s-.78.58-1.23.74a1.82,1.82,0,0,1-1.21-.07c-2-.62-2-3.37-.83-4.6.33-.35.76-.27,1.13-.48a1.38,1.38,0,0,1,1,.08A2.53,2.53,0,0,1,338.76,102.45Z"/><path class="cls-7" d="M382.17,88.78c.21.59-.32,1.1-.53,1.69s-.8.56-1.23.74a1.9,1.9,0,0,1-1.21-.1c-2-.56-2-3.39-.8-4.6.33-.34.77-.26,1.13-.47a1.35,1.35,0,0,1,1,.1A2.45,2.45,0,0,1,382.17,88.78Z"/><path class="cls-7" d="M209.18,88.51c-.2-.59.33-1.1.54-1.69s.79-.56,1.23-.74a1.9,1.9,0,0,1,1.21.09c2,.56,2,3.39.8,4.61-.33.33-.77.26-1.13.46a1.34,1.34,0,0,1-1-.09A2.48,2.48,0,0,1,209.18,88.51Z"/><path class="cls-8" d="M386.72,104.45q.25,0,.24.24Q386.71,104.71,386.72,104.45Z"/><path class="cls-8" d="M469.73,104.45a.21.21,0,0,1,.24.24Q469.72,104.71,469.73,104.45Z"/><path class="cls-38" d="M112.27,41.89c0,.2.07.43,0,.59a1.31,1.31,0,0,1-.66.63c-.22.07-.42-.09-.64-.17a2.38,2.38,0,0,1-.65-.46c-.2-.17-.28-.33-.06-.58a5.58,5.58,0,0,0,.35-.69c.24-.46.48-.58.92-.48a1.18,1.18,0,0,1,.75.8A2.16,2.16,0,0,1,112.27,41.89Z"/></g></g></svg>