<svg xmlns="http://www.w3.org/2000/svg" viewBox="0 0 580.08 126.72"><defs><style>.cls-1{fill:#f6eae3;}.cls-2{fill:#fefefe;}.cls-3{fill:#f8efea;}.cls-4{fill:#fbf6f3;}.cls-5{fill:#fbf6f2;}.cls-6{fill:#f9f1ed;}.cls-7{fill:#122c70;}.cls-8{fill:#132c70;}.cls-9{fill:#132d70;}.cls-10{fill:#142d70;}.cls-11{fill:#162f71;}.cls-12{fill:#152e71;}.cls-13{fill:#183072;}.cls-14{fill:#162e71;}.cls-15{fill:#172f72;}.cls-16{fill:#142e71;}.cls-17{fill:#1b3273;}.cls-18{fill:#1f3575;}.cls-19{fill:#1c3374;}.cls-20{fill:#203675;}.cls-21{fill:#223675;}.cls-22{fill:#233877;}.cls-23{fill:#203575;}.cls-24{fill:#253a78;}.cls-25{fill:#2d407b;}.cls-26{fill:#243977;}.cls-27{fill:#f69890;}.cls-28{fill:#0f0f10;}.cls-29{fill:#efd0b3;}.cls-30{fill:#eaccb2;}.cls-31{fill:#f2e6e1;}.cls-32{fill:#f5e9e3;}.cls-33{fill:#f4e8e2;}.cls-34{fill:#efe3df;}.cls-35{fill:#f5eae3;}.cls-36{fill:#f5e9e2;}.cls-37{fill:#040404;}.cls-38{fill:#35374b;}.cls-39{fill:#3a3e58;}.cls-40{fill:#3b3b4a;}.cls-41{fill:#3c3f55;}.cls-42{fill:#373741;}.cls-43{fill:#3a3f5b;}.cls-44{fill:#383d5f;}.cls-45{fill:#3c3e50;}.cls-46{fill:#2d3967;}.cls-47{fill:#203676;}</style></defs><g id="Layer_2" data-name="Layer 2"><g id="Layer_1-2" data-name="Layer 1"><path class="cls-1" d="M555.37,126.72H23.51c-.32-.23-.69-.07-1-.12a20.42,20.42,0,0,1-11-3.84,25.9,25.9,0,0,1-10.82-15,16.59,16.59,0,0,1-.5-4.49V23.68c-.06-5.39,2.11-9.95,5.42-14a25.53,25.53,0,0,1,14.25-9A20.06,20.06,0,0,1,24.42.24H140.65q207,0,414,0c11.29,0,22.55,8.7,24.89,20.66a33,33,0,0,1,.36,6.2q0,36.53,0,73.06c0,4.48-.51,8.83-2.7,12.85a26.43,26.43,0,0,1-14.56,12.7,16.65,16.65,0,0,1-5.64.94C556.5,126.66,555.92,126.46,555.37,126.72Z"/><path class="cls-2" d="M556.81,126.48a9.68,9.68,0,0,0,3.5-.54c.83-.17,1.63-.48,2.45-.72s1.57-.66,2.36-1a20,20,0,0,0,3-1.74,26.34,26.34,0,0,0,5.12-4.41,29.16,29.16,0,0,0,2.76-3.77,20.66,20.66,0,0,0,2.56-5.64,30.71,30.71,0,0,0,.87-3.85c.14-1,0-2,.2-2.9a39.13,39.13,0,0,0,.21-6.49c0-2.2,0-4.39,0-6.59q0-30.9,0-61.79c0-.68-.28-1.28-.26-1.94a6.88,6.88,0,0,0,0-2c-.36-1.25-.21-2.63-.92-3.8a16.43,16.43,0,0,0-2-5.38A23.71,23.71,0,0,0,573.92,10a35.4,35.4,0,0,0-2.57-2.76,26.62,26.62,0,0,0-4.59-3.38,14.32,14.32,0,0,0-3-1.45c-1-.35-2.08-.77-3.15-1.08A3.42,3.42,0,0,0,559.08,1c-.46.08-.76-.35-1.23-.27a1.33,1.33,0,0,1-1.22-.21c-.09-.08-.31,0-.47,0h-532a2.22,2.22,0,0,0-1.48.19c-.37.26-1-.19-1.44.28a12.78,12.78,0,0,0-4,1,18.86,18.86,0,0,0-4.21,2c-.66.43-1.36.81-2,1.26a4.09,4.09,0,0,0-.89.71c-.25.32-.66.37-.93.66-1,1-2.09,2-3,3.07a22.81,22.81,0,0,0-2.5,3.51,22.91,22.91,0,0,0-2.25,5.06,18.38,18.38,0,0,0-.92,3.7c-.06.6-.19,1.21-.2,1.83q-.12.16-.24,0V0H580.08V126.72H556.81c-.09,0-.11-.11-.09-.16S556.78,126.48,556.81,126.48Z"/><path class="cls-2" d="M.24,103.48c.07.5-.15,1,.16,1.5s-.12.94.32,1.3A7.78,7.78,0,0,0,1.36,109a20.92,20.92,0,0,0,1.86,4.26,26.94,26.94,0,0,0,2.34,3.59,25.8,25.8,0,0,0,3.7,3.83,29.37,29.37,0,0,0,3.5,2.48c2,1.32,4.35,1.88,6.52,2.8a22.68,22.68,0,0,0,3.27.51c.09,0,.11.11.09.16s-.06.08-.09.08H0V103.48Q.12,103.32.24,103.48Z"/><ellipse class="cls-3" cx="0.12" cy="63.6" rx="0.17" ry="54.1"/><ellipse class="cls-4" cx="0.12" cy="24.55" rx="0.17" ry="1.19"/><ellipse class="cls-5" cx="0.12" cy="102.65" rx="0.17" ry="1.19"/><path class="cls-6" d="M556.81,126.48v.24h-1.44c0-.22.13-.24.29-.24Z"/><path class="cls-4" d="M22.55,126.72v-.24h.68c.16,0,.3,0,.28.24Z"/><path class="cls-2" d="M84.21,10.54c17.79,0,35.58,0,53.37,0a16.88,16.88,0,0,1,5.93,1.28,18.45,18.45,0,0,1,4.65,2.63,21.14,21.14,0,0,1,3.3,3.38,19.93,19.93,0,0,1,2.29,3.86,14.43,14.43,0,0,1,1,3.06,18.66,18.66,0,0,1,.45,2.2,21.65,21.65,0,0,1,0,2.28q0,35.08,0,70.18a15.52,15.52,0,0,1-.8,4.22,21.9,21.9,0,0,1-1.68,3.85,12,12,0,0,1-1.71,2.4,18.3,18.3,0,0,1-2.37,2.37,17.39,17.39,0,0,1-6.25,3.43c-1.13.32-2.27.55-3.41.76a14.69,14.69,0,0,1-2.79.18H31a2.57,2.57,0,0,1-1.48-.2c-.36-.23-.94.18-1.33-.25-.87.14-1.61-.38-2.43-.52a7.14,7.14,0,0,1-1.86-.71,19.25,19.25,0,0,1-5.12-3.57,21.52,21.52,0,0,1-3.54-4.54,28.23,28.23,0,0,1-1.83-4.75c.12-.79-.41-1.51-.24-2.3-.48-2.43-.17-4.88-.22-7.33s0-4.87,0-7.3q0-28,0-56.05a18,18,0,0,1,1.21-6.44,12.85,12.85,0,0,1,1.52-3.09,34.3,34.3,0,0,1,2.13-2.83,19.68,19.68,0,0,1,3.79-3.27,21,21,0,0,1,5.18-2.28,22.48,22.48,0,0,1,5.71-.69Q58.36,10.56,84.21,10.54Z"/><path class="cls-7" d="M219,52.22c-1.16,0-2.33-.07-3.48,0a1.52,1.52,0,0,1-1.38-.74,1.59,1.59,0,0,1-.33-1.61A14.63,14.63,0,0,1,215,47.51c.62-1,1.11-2.09,1.66-3.15.32-.62.63-1.25,1-1.87A1.55,1.55,0,0,1,220,42a4.58,4.58,0,0,1,1,1.38c.95,2,2,4,3,5.95a1.91,1.91,0,0,1-.59,2.72c-.23.18-.44.12-.67.13Z"/><path class="cls-7" d="M230.77,52.22c-1.16,0-2.33-.07-3.48,0a1.55,1.55,0,0,1-1.52-.9,1.57,1.57,0,0,1,0-1.71c1.08-2,2.12-4.07,3.09-6.15A4.74,4.74,0,0,1,229.87,42a1.44,1.44,0,0,1,2.12.27,20.63,20.63,0,0,1,1.77,3.22,29.73,29.73,0,0,0,1.81,3.33,3.47,3.47,0,0,1,.48,1.23,2.3,2.3,0,0,1-1,2.1c-.19.13-.39.06-.57.07Z"/><path class="cls-7" d="M175.87,28.27v2.82h-1.82A76.64,76.64,0,0,1,174,21.8c1.54,0,3.09-.05,4.63,0a3.45,3.45,0,0,1,2.77,2.83A3.43,3.43,0,0,1,178,28.26C177.33,28.3,176.62,28.27,175.87,28.27Z"/><path class="cls-7" d="M368.49,31.1c0-1.31,0-2.59,0-3.86A1.65,1.65,0,0,0,368,26a1.13,1.13,0,0,0-1.9.3,3.41,3.41,0,0,0-.29,1.33c.07,1.15,0,2.3,0,3.48H364V21.35h1.86v3.37a3.88,3.88,0,0,1,2.54-1,2.42,2.42,0,0,1,2,2c0,.12,0,.24,0,.36V31.1Z"/><path class="cls-7" d="M327.52,31.14c-.68,0-1.24,0-1.78,0a.92.92,0,0,1-1-.47c-.41-.85-1-1.57-1.51-2.48a4.31,4.31,0,0,1-.46.55.87.87,0,0,0-.35.82c0,.5,0,1,0,1.55h-1.88V21.35c.57-.08,1.19,0,1.89-.05v5.16c.8-.81,1.51-1.5,2.19-2.2a.86.86,0,0,1,.72-.31c.59,0,1.19,0,1.81,0-.12.16.06,0,.06.12s-.05.06-.08.08L324.6,26.7C325.58,28.12,326.36,29.67,327.52,31.14Z"/><path class="cls-8" d="M289.2,31.38a3.78,3.78,0,0,1-3.92-3.83,3.87,3.87,0,0,1,3.92-3.86,4,4,0,0,1,4,3.86C293.21,29.43,291.23,31.59,289.2,31.38Z"/><path class="cls-8" d="M203.15,28.31h-5c.09.74.6,1,1.13,1.21a1.19,1.19,0,0,0,1.4,0c.1-.08.27-.09.41-.17.54-.31.55-.29,1,.1a1,1,0,0,0,.48.3c.25.05.22.28.06.45A3.71,3.71,0,0,1,200,31.41a3.78,3.78,0,0,1-3.43-1.8A3.25,3.25,0,0,1,196,27a3.59,3.59,0,0,1,2.54-3.08,3.16,3.16,0,0,1,3.91,1.24A4.73,4.73,0,0,1,203.15,28.31Z"/><path class="cls-8" d="M347.8,28.28h-5c.09.83.68,1.08,1.24,1.31a1.12,1.12,0,0,0,1.3-.11c.09-.07.27-.08.41-.17.34-.22.7-.34,1,.12a.58.58,0,0,0,.48.29c.17,0,.21.25.11.36a3.28,3.28,0,0,1-2.45,1.31,3.4,3.4,0,0,1-2.31-.49c-.77-.63-1.67-1.17-1.68-2.35a2.79,2.79,0,0,1,.12-2.62,3.68,3.68,0,0,1,2.1-2,3.3,3.3,0,0,1,4.05,1.34A4.24,4.24,0,0,1,347.8,28.28Z"/><path class="cls-8" d="M269.84,28.31h-5c.09.74.61,1,1.14,1.21a1.17,1.17,0,0,0,1.39,0c.11-.08.27-.09.41-.17.34-.2.7-.38,1,.1a.69.69,0,0,0,.47.3c.25.05.23.28.06.45a3.68,3.68,0,0,1-2.6,1.24,3.79,3.79,0,0,1-3.44-1.8,3.25,3.25,0,0,1-.54-2.61,3.6,3.6,0,0,1,2.54-3.08,3.16,3.16,0,0,1,3.91,1.24A4.67,4.67,0,0,1,269.84,28.31Z"/><path class="cls-8" d="M314.93,28.28h-5c.09.83.69,1.08,1.24,1.31a1.14,1.14,0,0,0,1.31-.11c.08-.07.26-.08.4-.17.34-.22.7-.34,1,.12a.58.58,0,0,0,.48.29c.18,0,.22.25.11.36A3.28,3.28,0,0,1,312,31.39a3.4,3.4,0,0,1-2.31-.49c-.77-.63-1.67-1.17-1.68-2.35a2.79,2.79,0,0,1,.12-2.62,3.7,3.7,0,0,1,2.11-2,3.28,3.28,0,0,1,4,1.34A4.19,4.19,0,0,1,314.93,28.28Z"/><path class="cls-9" d="M186.87,27.05c0-.36.18-.73-.17-1a1.4,1.4,0,0,0-1-.42c-.45.06-.93-.19-1.35.21-.13.12-.46,0-.7,0s-.37-.06-.35-.33-.37-.63-.42-1c.42-.39,1.08-.37,1.63-.51a7.59,7.59,0,0,1,2.38,0c.82.07,1.71,1.12,1.95,1.93a8.75,8.75,0,0,1,.22,2.54c0,.87,0,1.74,0,2.7-.62,0-1.21,0-1.79,0-.23,0-.38,0-.38-.3,0-.08-.06-.26-.2-.08-.64.78-1.53.63-2.38.62a2.26,2.26,0,0,1-2-2,1.9,1.9,0,0,1,.52-1.69,2.77,2.77,0,0,1,1.93-.82,13.83,13.83,0,0,0,1.44,0C186.47,26.79,186.6,27,186.87,27.05Z"/><path class="cls-9" d="M212.81,24.54a7.21,7.21,0,0,1,4.05-.57c.82,0,1.72,1.12,1.94,1.93.47,1.71.09,3.44.27,5.24-.66,0-1.25,0-1.83,0-.23,0-.39,0-.38-.3,0-.08-.06-.26-.2-.08-.64.78-1.54.63-2.38.62a2.25,2.25,0,0,1-2-2,2.28,2.28,0,0,1,2.45-2.52c.47,0,1,0,1.43,0a.58.58,0,0,1,.61.26c0-.39.24-.77-.11-1a1.4,1.4,0,0,0-1-.42c-.45.06-.93-.19-1.35.21-.13.12-.47,0-.7,0s-.36-.06-.35-.32A1.68,1.68,0,0,0,212.81,24.54Z"/><path class="cls-9" d="M249.45,27.14c0-.47.21-.87-.16-1.1s-.6-.49-1-.41-.84-.14-1.26.17c-.21.15-.61.07-.92.07a.19.19,0,0,1-.19-.24c0-.44-.28-.74-.45-1.1a7.3,7.3,0,0,1,4.07-.55c.82,0,1.68,1.13,1.91,2,.47,1.71.08,3.43.25,5.2h-1.85c-.16,0-.32,0-.33-.22s0-.35-.24-.14c-.73.84-1.72.61-2.63.58-.68,0-1.6-1.12-1.7-1.81-.24-1.75,1-2.63,2.49-2.72.51,0,1,0,1.55,0C249.16,26.82,249.25,27,249.45,27.14Z"/><path class="cls-7" d="M330.65,24.7a3.2,3.2,0,0,1,2.43-1,2.29,2.29,0,0,1,2.06,2.08v5.31h-1.92c0-1.28,0-2.55,0-3.81a2.14,2.14,0,0,0-.37-1.17,1.11,1.11,0,0,0-1.24-.47c-.46.08-.63.43-.82.85a3.33,3.33,0,0,0-.22,1.35V31.1h-1.84s0,0,0,0a.21.21,0,0,1,0-.1c0-2.31,0-4.62,0-7H330C330.53,24,330.53,24,330.65,24.7Z"/><path class="cls-7" d="M235.54,31.14H234c-.17,0-.25,0-.31-.24-.17-.59-.2-.58-.66-.17a2.22,2.22,0,0,1-2.62.41,2.08,2.08,0,0,1-1.27-2c0-1.71,0-3.41,0-5.15H231c0,1.28,0,2.59,0,3.89a1.69,1.69,0,0,0,.58,1.32c.44.43,1.68.26,1.76-.32a8.15,8.15,0,0,0,.32-1.56c-.05-1.1,0-2.21,0-3.34h1.88Z"/><path class="cls-8" d="M239.39,27.46A32.52,32.52,0,0,1,237,24c.54,0,1,0,1.48,0a1.14,1.14,0,0,1,1.23.81c.19.4.33.89.89,1a3.83,3.83,0,0,0,.75-1.14,1.25,1.25,0,0,1,1.32-.72c.43,0,.86,0,1.39,0-.75,1-1.43,2-2.12,2.91-.13.18-.09.45-.32.57.24.12.2.4.33.58.69,1,1.37,2,2.13,3.09-.69.07-1.3,0-1.91,0a.48.48,0,0,1-.47-.29c-.29-.66-.81-1.17-1.19-1.84a1.84,1.84,0,0,0-.68.9c-.09.39-.5.6-.6.95s-.21.27-.41.27h-2Z"/><path class="cls-9" d="M297.06,31.34c-1,.33-1.75-.41-2.58-.7-.43-.15-.47-.59-.2-1,.09-.13.29-.22.3-.35.06-.56.45-.39.67-.26a5.21,5.21,0,0,0,1.23.5c.07,0,.11.12.18.14.48.11,1.18-.08,1.29-.35s-.28-.69-.93-.83a3.65,3.65,0,0,1-2.18-1.09c-.19-.23-.52-.36-.49-.76a2.9,2.9,0,0,1,.29-1.67,2.44,2.44,0,0,1,2-1,3.07,3.07,0,0,1,2,.31c.32.23,1,.27,1,.6s-.37.86-.6,1.29c-.07.12-.14.18-.34.06a10,10,0,0,0-1.21-.52,1.11,1.11,0,0,0-.8,0,.53.53,0,0,0-.36.43.4.4,0,0,0,.26.37c.63.29,1.27.58,1.93.82a5.5,5.5,0,0,1,.48.28,1.7,1.7,0,0,1,.94,1.69,1.79,1.79,0,0,1-1,1.65A2.4,2.4,0,0,1,297.06,31.34Z"/><path class="cls-9" d="M304,31.35c-1,.31-1.72-.42-2.55-.72-.42-.15-.47-.58-.19-1,.09-.13.29-.23.3-.35.06-.57.45-.39.67-.25a5.64,5.64,0,0,0,1.23.49c.07,0,.12.12.18.14.48.11,1.18-.08,1.29-.35s-.29-.67-.94-.83a3.62,3.62,0,0,1-2.09-1c-.21-.27-.6-.4-.57-.85s-.09-1.17.29-1.67a2.47,2.47,0,0,1,2-1,3.07,3.07,0,0,1,2,.31c.32.23,1,.26,1,.61s-.37.86-.6,1.28c-.08.13-.15.17-.35.06a10.07,10.07,0,0,0-1.21-.53,1.16,1.16,0,0,0-.8,0,.52.52,0,0,0-.35.44.37.37,0,0,0,.26.36c.63.3,1.27.58,1.93.83a2.48,2.48,0,0,1,.48.27,1.93,1.93,0,0,1,0,3.32A2.47,2.47,0,0,1,304,31.35Z"/><path class="cls-9" d="M352,31.35c-1,.32-1.7-.42-2.54-.71-.43-.14-.48-.58-.21-1,.09-.13.3-.22.31-.34,0-.57.43-.42.66-.29.39.24.84.31,1.22.52a2,2,0,0,0,1,.12.5.5,0,0,0,.47-.44c.05-.24-.18-.39-.32-.45a7.06,7.06,0,0,0-1.46-.52A2.73,2.73,0,0,1,349.4,27a1.65,1.65,0,0,1,0-1.57,2,2,0,0,1,1.37-1.26,3.5,3.5,0,0,1,3,.24,1.21,1.21,0,0,0,.59.28c.31,0,.28.21.19.4s-.29.52-.43.78c-.26.5-.32.57-.79.22s-.73-.13-1-.42a.73.73,0,0,0-.87.14c-.19.21-.28.39,0,.58s.51.42.77.43a4.65,4.65,0,0,1,1.73.76,1.66,1.66,0,0,1,.95,1.68,1.8,1.8,0,0,1-1,1.66A2.57,2.57,0,0,1,352,31.35Z"/><path class="cls-9" d="M296.26,70.43V79c-.28.15-.56.06-.92.08V72.2c-1.09,1.53-2.07,2.86-2.91,4.3-.15.25-.29.23-.48-.07-.85-1.33-1.74-2.63-2.61-4,0,0-.11-.07-.22-.14v6.57c-.32.23-.62.13-1,.11V70.49c0-.07.16-.06.28-.06.7,0,.72,0,1.15.64.81,1.22,1.58,2.46,2.37,3.69.2.31.24.3.48-.06.81-1.22,1.7-2.39,2.41-3.67a1.49,1.49,0,0,1,.59-.58A2.37,2.37,0,0,1,296.26,70.43Z"/><path class="cls-9" d="M384.8,23.17c-.46.19-.65-.32-1.07-.2s-.55.25-.6.58c0,.17-.07.41.25.41h1.31c.22.26.08.54.11.81s0,.54,0,.85h-1.66v5.5H381c0-1.66,0-3.32,0-5,0-.18.1-.51-.17-.48-.81.08-.53-.5-.53-.86s-.28-.93.53-.85c.27,0,.16-.31.17-.48a2.21,2.21,0,0,1,1.09-1.93.9.9,0,0,1,.52-.22c.52,0,1,0,1.55,0s.66.21.68.73S384.8,22.83,384.8,23.17Z"/><path class="cls-9" d="M257.37,25.64h-1.64c0,1,0,1.93,0,2.87s.27,1.17,1.12.85c.38-.14.47.11.51.2A1.26,1.26,0,0,1,256,31.37a3.25,3.25,0,0,1-1.27-.1,1.9,1.9,0,0,1-1.17-1.89c-.07-1.11,0-2.23,0-3.34,0-.19.06-.44-.26-.4s-.5-.09-.46-.46a7.53,7.53,0,0,0,0-.95c0-.2.09-.3.28-.27.38.05.47-.12.45-.47s0-.94,0-1.43h2.11v1.85h1.68Z"/><path class="cls-9" d="M193.08,24h1.68v1.62c-.48.16-1,0-1.64.1,0,.95,0,1.89,0,2.84s.28,1.16,1.14.84c.38-.15.49.14.49.2a2.62,2.62,0,0,1,0,1.18c-.13.41-.61.55-1,.62a4.42,4.42,0,0,1-1.31,0,1.9,1.9,0,0,1-1.48-2c0-1,0-2.07,0-3.1,0-.34.11-.78-.51-.64-.13,0-.21-.08-.21-.22,0-.39,0-.79,0-1.19,0-.14.06-.27.16-.26.66.12.57-.32.56-.72s0-.71,0-1.17c.69-.06,1.38,0,2.12,0Z"/><path class="cls-9" d="M359.61,23.74a3.66,3.66,0,0,1,2.7.87c.14.1.15.17,0,.35a3.19,3.19,0,0,1-.52.74c-.46.44-.44.43-1,.07a1.65,1.65,0,0,0-1.9-.15,1.71,1.71,0,0,0-1,1.65,3.09,3.09,0,0,0,.12,1.27,1.77,1.77,0,0,0,2.8.75c.49-.36.49-.35.92.06.91.89.89.84-.3,1.57a3.63,3.63,0,0,1-3.09.3A3.84,3.84,0,0,1,356,28.68c-.75-1.9.64-4.23,2.51-4.92A3.14,3.14,0,0,1,359.61,23.74Z"/><path class="cls-9" d="M171.55,79.05V70.43c1.45,0,2.88,0,4.31,0A2.68,2.68,0,0,1,178,72a2.22,2.22,0,0,1-1.2,2.58c.29.38.78.47,1.09.84.85,1,.85,1.87-.32,3a2.43,2.43,0,0,1-1.77.64Z"/><path class="cls-9" d="M280,31.76c-.3.52-.45,1-.9,1.24a7,7,0,0,1-2.76-2.28,7.16,7.16,0,0,1-1-2.94,5.57,5.57,0,0,1,.33-2.51,4.62,4.62,0,0,1,1.36-2.19,11.16,11.16,0,0,1,2.11-1.52l.33.41c.58.74.6.78-.07,1.4a5.26,5.26,0,0,0-1.77,2.74,4.72,4.72,0,0,0,.95,4.29C279.05,30.88,279.55,31.29,280,31.76Z"/><path class="cls-9" d="M386.29,33c-.48-.26-.55-.9-1-1.22.4-.42.93-.67,1.35-1.09a4.89,4.89,0,0,0,0-6.69,3.9,3.9,0,0,0-.69-.66c-.23-.12-.64-.37-.6-.41.41-.38.51-1,1-1.28.13-.07.17.11.26.15a5.51,5.51,0,0,1,3.14,3.67c.2.86.75,1.78.15,2.76-.19.32-.11.79-.22,1.21a5.54,5.54,0,0,1-2.14,2.91A1.87,1.87,0,0,1,386.29,33Z"/><path class="cls-10" d="M171.57,43.36h4.11a2.56,2.56,0,0,1,.36,5.1c.85,1.15,1.68,2.25,2.57,3.44-.78.12-1.31.22-1.72-.6a4.33,4.33,0,0,0-1-1.29,7.64,7.64,0,0,1-.94-1.38H172.5V52h-.93Z"/><path class="cls-11" d="M249.43,63.77c-2,1.69-3.28,1.43-4.73.27a2.23,2.23,0,0,1-.72-1.48,3,3,0,0,1,.73-2.68,3.09,3.09,0,0,1,2.17-1c1,0,1.52.61,2.29,1,.29-.11-.17-.66.33-.69.28,0,.56,0,.85,0,.21.28.1.6.1.9,0,1.32.08,2.64,0,3.95a3.09,3.09,0,0,1-3,3.31,6.38,6.38,0,0,1-2.9-.53c-.46-.22-.17-.48-.08-.73s.31-.14.53,0a4.45,4.45,0,0,0,2.28.55,2.26,2.26,0,0,0,1.63-.69c.2-.25.48-.44.35-.81S249.74,64.26,249.43,63.77Z"/><path class="cls-11" d="M208.65,100.63c.12-.73.12-.73,1.2-.74a6.83,6.83,0,0,1,.06,1.5c0,1-.06,1.91,0,2.86a6.14,6.14,0,0,1-.29,1.93,2.53,2.53,0,0,1-2,1.8,5.18,5.18,0,0,1-3.61-.46c-.23-.14-.27-.29-.12-.62s.24-.33.56-.16a4.41,4.41,0,0,0,2.16.57,2.4,2.4,0,0,0,1.91-.87c.07-.09.21-.2.19-.27-.17-.59.31-1.09.24-1.71-2,1.72-3.31,1.47-4.78.31a2.19,2.19,0,0,1-.72-1.48,3.06,3.06,0,0,1,.72-2.69,2.71,2.71,0,0,1,2.17-1C207,99.71,207.05,99.65,208.65,100.63Z"/><path class="cls-11" d="M319.05,77.28c-1.57,1.63-3.18,1.77-4.75.45a3.18,3.18,0,0,1-.39-3.71,4.5,4.5,0,0,1,1.38-1.22,2.4,2.4,0,0,1,1.82-.17,6.14,6.14,0,0,1,1.63.87c.14-.68.14-.68,1.29-.63,0,1.7,0,3.41,0,5.11a3.55,3.55,0,0,1-.51,1.68,2.31,2.31,0,0,1-1.55,1.12c-.07,0-.11.16-.17.16a6.25,6.25,0,0,1-3.71-.54c-.2-.13-.2-.24-.07-.53s.18-.41.54-.22a4.67,4.67,0,0,0,2.26.59,2.38,2.38,0,0,0,1.89-.92c.05-.06.15-.13.14-.17C318.66,78.55,319.11,78,319.05,77.28Z"/><path class="cls-11" d="M227.82,104.41c-1.48,1.58-3.14,1.7-4.69.38a3.16,3.16,0,0,1-.37-3.71,4.24,4.24,0,0,1,1.38-1.21A2.44,2.44,0,0,1,226,99.7a5.65,5.65,0,0,1,1.63.88c.13-.7.13-.7,1.28-.63,0,1.66.09,3.33,0,5a2.87,2.87,0,0,1-2.06,2.92c-.07,0-.11.16-.17.16a6.9,6.9,0,0,1-3.62-.48c-.37-.18-.27-.41-.13-.72s.29-.21.52-.09a5.77,5.77,0,0,0,2.27.58,2.42,2.42,0,0,0,1.72-.76c.2-.21.4-.41.3-.71C227.5,105.36,228.09,105,227.82,104.41Z"/><path class="cls-12" d="M223.59,92.68h-1c0-1.41,0-2.79,0-4.18A1.51,1.51,0,0,0,220.7,87a1.28,1.28,0,0,0-1,.8,5,5,0,0,0-.43,1.74c0,1,0,2,0,3a.38.38,0,0,1,0,.1c-.25.21-.54,0-.77.12-.06,0-.11-.08-.11-.1q0-3,0-6.07c.86-.07.86-.07,1,.71.34-.51.92-.58,1.23-1a2.72,2.72,0,0,1,2.1.4c.27.23.51.5.86.84.19-.23.38-.47.59-.7a2.15,2.15,0,0,1,1.56-.58c.68,0,1.12.42,1.69.57,0,.51.62.7.57,1.34-.11,1.5,0,3,0,4.5a1.92,1.92,0,0,1-1,.06c0-1.33,0-2.67,0-4a2.1,2.1,0,0,0-.19-.87,1.31,1.31,0,0,0-1.34-.82,1.23,1.23,0,0,0-1.36.78,4.17,4.17,0,0,0-.47,1.72C223.6,90.51,223.59,91.55,223.59,92.68Z"/><path class="cls-12" d="M187.12,92.68a1.9,1.9,0,0,1-.93-.05V86.57c.88-.1.88-.1,1,.58.33,0,.55-.32.69-.46a2.11,2.11,0,0,1,1.75-.45c.61,0,1,.43,1.34.81l.38.38c.21-.2.43-.41.63-.63a2.22,2.22,0,0,1,1.44-.59c.72-.08,1.22.38,1.82.56,0,.5.61.62.58,1.21-.09,1.54,0,3.1,0,4.63-.3.17-.58.07-1,.1v-4a2,2,0,0,0-.22-1,1.46,1.46,0,0,0-1.3-.73,1.23,1.23,0,0,0-1.35.67,4.2,4.2,0,0,0-.5,1.83c0,1.06,0,2.13,0,3.22h-1V88.52a1.46,1.46,0,0,0-1-1.48,1.48,1.48,0,0,0-1.89.74,2.75,2.75,0,0,0-.48,1.72Z"/><path class="cls-12" d="M351.74,86.52c.86,0,.86,0,1,.65,1.69-1.43,2.72-1.27,4.12.25l.5-.51c1-1,2.16-.8,3.35-.17.06.5.62.72.59,1.32-.07,1.51,0,3,0,4.55a1.49,1.49,0,0,1-1,0c0-1.4,0-2.78,0-4.17a1.53,1.53,0,0,0-1.95-1.5,1.28,1.28,0,0,0-1,.82,5.47,5.47,0,0,0-.42,1.74c0,1,0,2.06,0,3.07-.3.17-.58.07-1,.09v-4a1.94,1.94,0,0,0-.22-1,1.43,1.43,0,0,0-1.3-.73,1.22,1.22,0,0,0-1.34.67,4,4,0,0,0-.5,1.83c0,1,0,2.07,0,3.11,0,0,0,.08-.07.09a1.71,1.71,0,0,1-.84,0Z"/><path class="cls-13" d="M278,78.32a3.66,3.66,0,0,1-2.09,1,3,3,0,0,1-2.34-1,3.62,3.62,0,0,1-.07-4.62c1.17-1.3,2.8-1.63,4.48-.08a7.78,7.78,0,0,0,.06-1.66c0-.55,0-1.1,0-1.7h1.11s.09.08.09.14q0,4.06,0,8.13c0,.19.09.5-.12.53s-.73.15-1-.08C278,78.87,278,78.59,278,78.32Z"/><path class="cls-13" d="M215.67,70.23v8.71c-.21.19-.42.1-.6.1-.54,0-.54,0-.66-.69a3.66,3.66,0,0,1-2.44,1,3.21,3.21,0,0,1-2.75-2.47,4.32,4.32,0,0,1,.21-2.41,3,3,0,0,1,4.74-1.06c.06,0,.12.12.23.23a8.55,8.55,0,0,0,.07-1.66c0-.55,0-1.11,0-1.7Z"/><path class="cls-13" d="M384.83,100.72V97.28H386v8.84h-.49c-.62,0-.62,0-.75-.68a3.84,3.84,0,0,1-2.1.93,3,3,0,0,1-2.32-1,3.61,3.61,0,0,1-.09-4.53,2.82,2.82,0,0,1,4.24-.42C384.53,100.44,384.61,100.52,384.83,100.72Z"/><path class="cls-13" d="M308.75,87.31V83.89h1.17v8.72c-.19.19-.44,0-.66.1-.59.12-.56-.26-.48-.7-.41.06-.5.56-.89.48a2.75,2.75,0,0,1-3.83-.79,3.61,3.61,0,0,1,.13-4.35,2.82,2.82,0,0,1,4.16-.44A4.84,4.84,0,0,1,308.75,87.31Z"/><path class="cls-13" d="M308.23,106.12h-.5c-.6,0-.6,0-.75-.69a3.62,3.62,0,0,1-2.1.94,2.94,2.94,0,0,1-2.32-1.06,3.59,3.59,0,0,1,0-4.61,2.8,2.8,0,0,1,4.07-.39c.11.08.15.26.39.27V97.35a2.86,2.86,0,0,1,1.2-.08Z"/><path class="cls-12" d="M188.42,104.82c.51-1.6,1-3,1.44-4.4.07-.19.06-.56.58-.57s.6.38.69.6c.39,1,.71,2.1,1,3.16.11.36.33.67.43,1.08.34-1,.71-2,1-3,.08-.29.23-.54.29-.85.21-1,.27-1,1.35-.86-.54,1.51-1.12,3-1.6,4.56-.12.4-.44.71-.48,1.11s0,.51-.45.49-.65-.08-.78-.52a29.62,29.62,0,0,0-1-3.07c-.13-.32,0-.93-.41-.93s-.36.63-.5,1a33.58,33.58,0,0,1-1.19,3.22c-.15.29-.26.33-.48.32s-.37,0-.55-.26a4.65,4.65,0,0,1-.31-1c-.52-1.57-1.25-3.08-1.63-4.71,0-.06-.11-.11-.18-.18.28-.23.6-.08.89-.12s.26.15.33.36C187.36,101.72,187.87,103.19,188.42,104.82Z"/><path class="cls-12" d="M265.13,86.55s.06-.07.09-.07c1,0,1,0,1.3.94.37,1.3.8,2.58,1.32,3.92.53-1.56,1-3,1.52-4.5.15-.38.3-.36.57-.36s.34,0,.47.33c.38.85.57,1.76.92,2.61.24.58.38,1.2.6,1.87a20.6,20.6,0,0,0,1.07-3,5.16,5.16,0,0,0,.49-1.59c0-.23.16-.23.32-.23h.86c-.56,1.57-1.16,3.06-1.62,4.6-.15.5-.56.89-.54,1.46,0,.25-.74.24-1,0a.65.65,0,0,1-.18-.29c-.39-1.23-.8-2.46-1.18-3.69-.06-.19,0-.41-.29-.39s-.16.22-.21.35a39.57,39.57,0,0,1-1.39,3.86c-.18.35-.33.32-.58.35s-.43,0-.45-.37c0-.14-.16-.31-.23-.5C266.39,90.07,265.76,88.31,265.13,86.55Z"/><path class="cls-12" d="M375.44,33.3c0-.28,0-.48,0-.67,0-.54,0-1,.76-1,.4,0,.46-.43.45-.82,0-1.91,0-3.83,0-5.74V24h2.16v4.87c0,.76,0,1.52,0,2.27a2.47,2.47,0,0,1-.23,1,1.93,1.93,0,0,1-1.82,1.18C376.36,33.33,376,33.3,375.44,33.3Z"/><path class="cls-14" d="M227.15,31.12h-2.08V21.37c.64-.14,1.34,0,2.08-.07Z"/><path class="cls-14" d="M208.75,21.34h2.08v9.78h-2.08Z"/><path class="cls-14" d="M204.68,21.34h2.07v9.75c-.64.14-1.34,0-2.07.08Z"/><path class="cls-14" d="M283.76,31.12h-2.08V21.37c.65-.15,1.35,0,2.08-.08Z"/><path class="cls-11" d="M228,70.21h.91v3.6c.48-.27.74-.64,1.16-.85a2.84,2.84,0,0,1,4,1.22,3.88,3.88,0,0,1,.36,2.69,2.74,2.74,0,0,1-1,1.71,3.3,3.3,0,0,1-3.21.49c-.48-.23-.69-.72-1.13-.95-.23.26,0,.62-.19.91H228Z"/><path class="cls-11" d="M237.74,97.25v3.56c.49-.13.76-.52,1.1-.76,1.92-1.32,4.49.64,4.45,2.66a3.72,3.72,0,0,1-1.08,2.9,3.14,3.14,0,0,1-3.3.5,9.25,9.25,0,0,1-1.07-.93c-.29.24.12.73-.24.92-.18.1-.46,0-.71,0-.21-.29-.1-.61-.1-.91q0-3.58,0-7.17C236.78,97.28,236.79,97.28,237.74,97.25Z"/><path class="cls-11" d="M172.4,105.13c-.3.3,0,.66-.23,1h-.83V97.32a2,2,0,0,1,.89,0v3.64a11.16,11.16,0,0,1,1-.77,2.93,2.93,0,0,1,4.31,1.28,3.74,3.74,0,0,1-.71,4.13c-1.16,1-3.11,1.27-4.09-.06C172.6,105.36,172.5,105.25,172.4,105.13Z"/><path class="cls-11" d="M198.62,91.85v2.74h-.94v-8a1.72,1.72,0,0,1,.86-.07c.24.26,0,.62.16.89.06.05.1,0,.17-.06a3.14,3.14,0,0,1,2.18-1.09,2.88,2.88,0,0,1,2.48,1.21,3.6,3.6,0,0,1-.29,4.6,2.77,2.77,0,0,1-4,.19,2.93,2.93,0,0,1-.45-.53Z"/><path class="cls-11" d="M418.64,91.64v2.9a1.62,1.62,0,0,1-.95,0v-8a1.48,1.48,0,0,1,.91,0l0,.79c.07.13.11.12.19,0a3.13,3.13,0,0,1,2.28-1.13,2.9,2.9,0,0,1,2.46,1.26,3.62,3.62,0,0,1-.22,4.43,2.82,2.82,0,0,1-4.25.18C419,92,418.88,91.88,418.64,91.64Z"/><path class="cls-11" d="M395.35,105v2.89c-.29.2-.57,0-.9.16V99.93c.28,0,.64-.18.85.06s.06.52.09.83c.45-.16.71-.54,1.08-.77a2.58,2.58,0,0,1,3,.09,3,3,0,0,1,1.44,2.57,3.28,3.28,0,0,1-.75,2.56,2.83,2.83,0,0,1-4.32.23C395.7,105.4,395.59,105.28,395.35,105Z"/><path class="cls-11" d="M344.26,105.18V108h-.92V99.92h.83c.23.26,0,.61.17.9.39-.21.65-.58,1.06-.79a2.86,2.86,0,0,1,4,1.21,4.08,4.08,0,0,1,.36,2.7,2.36,2.36,0,0,1-.78,1.45,2.84,2.84,0,0,1-4.17.16,2,2,0,0,1-.34-.46Z"/><path class="cls-11" d="M253.12,105.06v2.85c-.33.26-.64,0-1,.16V100c.27-.23.58,0,.9-.13l.08,1c.42-.26.69-.57,1-.81a2.83,2.83,0,0,1,3.85.83,3.61,3.61,0,0,1-.13,4.35,2.82,2.82,0,0,1-4.32.27A6.38,6.38,0,0,1,253.12,105.06Z"/><path class="cls-12" d="M176.46,85.75a3.54,3.54,0,0,0-2.29-1,2.17,2.17,0,0,0-1.85,1c-.35.42.17,1.42.79,1.6.82.25,1.65.44,2.45.74a2.39,2.39,0,0,1,1.73,1.67c.07.28.4.55.2.84-.32.47-.23,1.13-.75,1.49a2.88,2.88,0,0,1-1.83.77,8.7,8.7,0,0,1-2.2-.19c-.6-.19-1-.63-1.58-.82-.15-.05-.12-.26,0-.4l.52-.51a4.11,4.11,0,0,0,2.25,1.2,3.86,3.86,0,0,0,1.7-.23,1.31,1.31,0,0,0,.46-2c-.46-.59-.74-.62-1.68-.86a4.33,4.33,0,0,1-2.27-.9,2.14,2.14,0,0,1-.42-3,2.88,2.88,0,0,1,2.51-1.17,4.67,4.67,0,0,1,2.32.49c.65.35.66.4.14,1Z"/><path class="cls-10" d="M259.87,92.61c-1.07.09-1,.08-1.42-.64-.12-.23,0-.44-.14-.66-.45-1-.43-1-1.47-1h-3.23c-.42,0-.44,0-.62.47a7.7,7.7,0,0,1-.61,1.42c-.29.47-.49.6-1,.5-.31-.06,0-.18,0-.29a5.18,5.18,0,0,1,.55-1.33c1-2.16,1.92-4.39,3-6.53.21-.41.51-.57.86-.47a.7.7,0,0,1,.46.47c.49,1.32,1.24,2.52,1.68,3.85a7.48,7.48,0,0,0,.34.7Z"/><path class="cls-8" d="M209.72,56.77h5.78c.19,0,.42-.06.41.26s.07.48-.33.47c-.68,0-1.36,0-2,0h-2.88v3.12h4.4c.22,0,.38,0,.38.3s0,.44-.38.43c-1,0-1.92,0-2.88,0h-1.49v3.36c1.63,0,3.26,0,4.89,0,.4,0,.33.24.33.47s-.22.25-.41.25h-5.78Z"/><path class="cls-8" d="M172.53,60.61h4.35c.18,0,.42-.06.41.25s.06.48-.33.47c-.84,0-1.68,0-2.52,0h-1.92v3.36h5c.22,0,.25.13.24.3s.08.42-.24.42c-.64,0-1.28,0-1.92,0h-4V56.77h5.85c.26,0,.32.09.34.34s-.14.39-.42.39c-1.16,0-2.32,0-3.48,0h-1.35Z"/><path class="cls-15" d="M248.33,79c-.94,0-.94,0-1-.72a3.44,3.44,0,0,1-2.67,1,2.61,2.61,0,0,1-2.09-1.68c-.09-.45.2-.8.27-1.21s.51-.61.9-.81a4.63,4.63,0,0,1,3.23-.19c.32.1.45,0,.41-.31a1.85,1.85,0,0,0-2.61-1.67c-.36.14-.79-.11-1.09.29,0,.06-.37-.2-.37-.44s-.1-.37.2-.47a10.16,10.16,0,0,1,3-.23c.64.51,1.39.81,1.62,1.82C248.44,75.93,248.15,77.44,248.33,79Z"/><path class="cls-15" d="M241.34,79.05c-.9,0-.9,0-1-.73a3.47,3.47,0,0,1-2.9,1,2.73,2.73,0,0,1-1.84-1.69c-.11-.45.21-.79.28-1.21a1.09,1.09,0,0,1,.8-.74c.33-.11.61-.47,1-.42.77.08,1.57-.24,2.32.18.27.15.43,0,.39-.32a2,2,0,0,0-2.54-1.77c-.25.39-.65.15-1,.25s-.51.05-.55-.31,0-.35.33-.47a7.25,7.25,0,0,1,2.66-.19c.69,0,1.6,1,1.82,1.7a7.4,7.4,0,0,1,.22,2.29C241.35,77.38,241.34,78.17,241.34,79.05Z"/><path class="cls-15" d="M200.14,79c-1,0-1,0-1.12-.66a3.43,3.43,0,0,1-2.7,1,2.75,2.75,0,0,1-2-1.64c-.13-.5.22-.88.29-1.33s.44-.58.85-.71.56-.42.91-.39c.77.06,1.57-.23,2.32.16.12.06.23.1.32,0s.14-.28.11-.42a1.83,1.83,0,0,0-2.66-1.55c-.33.12-.68-.06-1,.22-.16.14-.37-.17-.4-.38s-.11-.4.16-.49a5.51,5.51,0,0,1,3-.18,2.23,2.23,0,0,1,1.66,1.72C200.25,75.89,199.91,77.41,200.14,79Z"/><path class="cls-15" d="M304,79c-1,0-1,0-1.11-.66a3.45,3.45,0,0,1-2.7,1,2.74,2.74,0,0,1-2-1.64c-.13-.5.22-.88.29-1.33s.44-.58.85-.71.56-.42.9-.39c.78.07,1.58-.23,2.32.16a.37.37,0,0,0,.33,0c.17-.08.14-.28.11-.42a1.83,1.83,0,0,0-2.66-1.55c-.33.12-.68-.06-1,.22-.17.14-.37-.17-.4-.38s-.12-.4.16-.49a5.51,5.51,0,0,1,3-.18,2.24,2.24,0,0,1,1.66,1.72C304.13,75.89,303.79,77.41,304,79Z"/><path class="cls-15" d="M384.6,92.67c-1,0-1,0-1-.73-.23.21-.4.49-.58.5s-.47.23-.72.31a3.16,3.16,0,0,1-2.21,0,2.14,2.14,0,0,1-1-.92c-.14-.24-.39-.5-.26-.85a5.34,5.34,0,0,1,.42-1.14,2,2,0,0,1,1.52-.88,4.08,4.08,0,0,1,2.53.18c.2.12.36-.06.33-.32A1.86,1.86,0,0,0,381,87.07c-.36.13-.77,0-1.09.28-.13.12-.38-.17-.4-.39s-.11-.39.18-.49a9.81,9.81,0,0,1,3-.23c.67.48,1.4.8,1.64,1.79C384.73,89.55,384.41,91.07,384.6,92.67Z"/><path class="cls-15" d="M338.74,92.66c-.91,0-.91,0-1.05-.66A3.43,3.43,0,0,1,335,93a2.77,2.77,0,0,1-2-1.63c-.15-.51.23-.87.29-1.33.05-.31.49-.52.83-.72a2.6,2.6,0,0,1,1.64-.39c.56.07,1.16-.2,1.7.22.16.12.37,0,.35-.3A2,2,0,0,0,335.29,87c-.26.42-.74.1-1.06.31s-.46-.1-.51-.29a.37.37,0,0,1,.26-.53,7.5,7.5,0,0,1,1.94-.22,2.49,2.49,0,0,1,2.16.88,2.71,2.71,0,0,1,.64,1.88C338.79,90.18,338.74,91.38,338.74,92.66Z"/><path class="cls-15" d="M331.8,92.64c-.92,0-.92,0-1.06-.68A3.27,3.27,0,0,1,328,93a2.8,2.8,0,0,1-1.93-1.6c-.15-.5.19-.89.28-1.33s.48-.52.82-.72a4.31,4.31,0,0,1,3.24-.28c.4.08.52,0,.46-.31a1.85,1.85,0,0,0-2.64-1.61,4.46,4.46,0,0,1-.8.09c-.55.11-.64,0-.64-.42,0-.18.05-.29.26-.3.49,0,.93-.36,1.46-.24a3.29,3.29,0,0,0,.83,0,1.76,1.76,0,0,1,1.46.54c.35.38.92.66.79,1.34C332.08,89.6,331.62,91.13,331.8,92.64Z"/><path class="cls-15" d="M282.41,83.86h.91V90c1-1,2-1.93,2.88-2.89a1.4,1.4,0,0,1,1.65-.5L285.38,89a22.43,22.43,0,0,0,2.74,3.56,1.34,1.34,0,0,1-1.87-.73c-.42-.76-1.28-1.14-1.42-2.22a14.83,14.83,0,0,0-1.39,1.42c-.34.46,0,1.08-.18,1.62h-.85Z"/><path class="cls-15" d="M272.31,106.19V97.34c.28-.15.56-.06.91-.08v6.13c1.06-1,2-1.94,2.87-2.88a1.54,1.54,0,0,1,1.75-.54c-.77.78-1.51,1.52-2.26,2.25-.21.21-.14.34,0,.59a6.06,6.06,0,0,0,1,1.38,6,6,0,0,0,1.55,1.8,1.36,1.36,0,0,1-1.88-.67,23.5,23.5,0,0,1-1.57-2.14l-.23.23c-.37.37-.87.68-1.07,1.12a4.35,4.35,0,0,0-.11,1.5C273,106.22,272.67,106,272.31,106.19Z"/><path class="cls-15" d="M322.46,100c-.76.76-1.49,1.49-2.23,2.21-.19.19-.19.31-.09.59.22.6.75.95,1.08,1.46a4.63,4.63,0,0,0,1.53,1.75,1.46,1.46,0,0,1-2-.75c-.43-.74-1.17-1.22-1.47-2.09-.18.17-.27.24-.34.32a4.25,4.25,0,0,0-1,1.12,3.77,3.77,0,0,0,0,1.43,1.41,1.41,0,0,1-.93,0V97.34c.28-.21.58,0,.92-.12v6c.17-.13,0,0,.13,0s.05,0,.08-.08l1.53-1.52c.36-.37.76-.71,1.09-1.11A1.48,1.48,0,0,1,322.46,100Z"/><path class="cls-16" d="M357,103.27h-5c.06,1.64.79,2.24,2.3,2.37a2,2,0,0,0,1.5-.67c.37-.33.49-.18.7.07l.23.24a3.34,3.34,0,0,1-3.38,1,2.53,2.53,0,0,1-1.68-1.09,3,3,0,0,1-.7-1.86,4.35,4.35,0,0,1,.47-2.21c1.11-1.76,2.21-1.72,3.95-1.27.37.44.89.71,1.13,1.31A3.44,3.44,0,0,1,357,103.27Z"/><path class="cls-16" d="M443.36,91.17l.64.64c.06.06,0,.1-.05.17a3.38,3.38,0,0,1-4.9-.09,3.47,3.47,0,0,1-.78-2.32,3.6,3.6,0,0,1,1.13-2.65,2.47,2.47,0,0,1,2.77-.53c1.46.48,2.15,1.62,2.09,3.44h-4.51c-.49,0-.61.17-.45.64A2.32,2.32,0,0,0,440.65,92c1,.51,1.73,0,2.5-.45C443.26,91.49,443.29,91.3,443.36,91.17Z"/><path class="cls-16" d="M294.78,89.83h-4.51c-.43,0-.61.2-.46.55.24.55.38,1.22,1,1.49a2.17,2.17,0,0,0,1.52.34,3.29,3.29,0,0,0,1.7-1l.5.67a.47.47,0,0,1-.13.16,3.35,3.35,0,0,1-4.8-.21,3.41,3.41,0,0,1-.77-2.2A3.7,3.7,0,0,1,290,86.9a2.53,2.53,0,0,1,2.68-.56C294.11,86.73,294.88,88,294.78,89.83Z"/><path class="cls-16" d="M235,91.29l.57.56a3.41,3.41,0,0,1-3.35,1.08,3.21,3.21,0,0,1-2.39-2.83,3.8,3.8,0,0,1,.46-2.44,3.1,3.1,0,0,1,1.63-1.38,3,3,0,0,1,2.37.27,3.47,3.47,0,0,1,1.52,3.28h-4.6c-.37,0-.58.26-.41.6.31.62.52,1.26,1.32,1.59C233.33,92.5,234.14,92,235,91.29Z"/><path class="cls-16" d="M297.47,103.24c-1.59,0-3.1,0-4.61,0-.27,0-.52,0-.41.37a2.35,2.35,0,0,0,1.44,1.84c1.24.47,1.92-.22,2.79-.73l.55.55a3.45,3.45,0,0,1-3.36,1.07,3.17,3.17,0,0,1-2.39-2.83,3.89,3.89,0,0,1,.38-2.23c1.12-1.82,2.17-1.94,4-1.35a2.38,2.38,0,0,1,1.17,1.24A3.93,3.93,0,0,1,297.47,103.24Z"/><path class="cls-16" d="M411.19,89.86h-5A2.3,2.3,0,0,0,407.31,92c1,.53,1.89.29,3.07-.67l.51.5c.07.06,0,.1,0,.17a3.35,3.35,0,0,1-4.9-.08,2.7,2.7,0,0,1-.76-2,3.77,3.77,0,0,1,.46-2.21,3.35,3.35,0,0,1,1.57-1.44,3,3,0,0,1,2.37.22,3.37,3.37,0,0,1,1.6,2.65C411.21,89.35,411.19,89.55,411.19,89.86Z"/><path class="cls-16" d="M184.9,103.24h-4.52c-.41,0-.6.21-.44.56.24.55.38,1.23,1,1.48a2.26,2.26,0,0,0,1.52.34,3.35,3.35,0,0,0,1.69-1l.49.69a.67.67,0,0,1-.13.15,3.38,3.38,0,0,1-4.81-.22,3.42,3.42,0,0,1-.75-2.33,3.64,3.64,0,0,1,1.06-2.56,2.53,2.53,0,0,1,2.77-.63C184.24,100.16,185,101.47,184.9,103.24Z"/><path class="cls-16" d="M202.24,103.27h-5c.06,1.65.79,2.24,2.3,2.37a2,2,0,0,0,1.5-.67c.37-.35.49-.16.7.07a2.61,2.61,0,0,0,.22.24,3.42,3.42,0,0,1-3.38,1.06,3.19,3.19,0,0,1-2.36-3,3.66,3.66,0,0,1,.45-2.2,3.32,3.32,0,0,1,1.57-1.45,3,3,0,0,1,2.37.22,3.24,3.24,0,0,1,1.6,2.63C202.25,102.76,202.24,103,202.24,103.27Z"/><path class="cls-16" d="M250.48,103.24h-4.41c-.36,0-.51.17-.41.49a2.46,2.46,0,0,0,1.66,1.81c.88.29,1.46-.19,2.12-.47s.5-.3.94.12l.07.08a3.19,3.19,0,0,1-3.37,1,3,3,0,0,1-2.38-2.93,3.81,3.81,0,0,1,.45-2.21c1.09-1.76,2.25-1.82,3.93-1.24a2.25,2.25,0,0,1,1.35,1.65C250.53,102.09,251,102.55,250.48,103.24Z"/><path class="cls-16" d="M265.56,105.27a3.28,3.28,0,0,1-3.4,1,2.73,2.73,0,0,1-1.77-1.18,3.74,3.74,0,0,1,1.06-5.23,3.19,3.19,0,0,1,3.22.4,3.52,3.52,0,0,1,1.13,2.94h-4.53c-.5,0-.61.16-.46.63a2.44,2.44,0,0,0,1.65,1.69c.82.27,1.4-.18,2-.44S265.08,104.81,265.56,105.27Z"/><path class="cls-16" d="M185.61,76.18c-1.5,0-3,0-4.51,0-.41,0-.6.22-.44.57.24.54.38,1.23,1,1.48a2.68,2.68,0,0,0,1.53.34,5.65,5.65,0,0,0,1.73-1c.08.12.16.25.25.37l.27.27-.21.24a3.37,3.37,0,0,1-4.81-.24,3.41,3.41,0,0,1-.75-2.32,3.59,3.59,0,0,1,1.07-2.56,2.53,2.53,0,0,1,2.76-.63A3.05,3.05,0,0,1,185.61,76.18Z"/><path class="cls-16" d="M369.13,89.83h-4.52c-.39,0-.55.23-.44.59.15.51.61,1.34,1,1.47s1,.49,1.54.33a3.39,3.39,0,0,0,1.66-1l.55.63A3.27,3.27,0,0,1,366.09,93a3,3,0,0,1-2.08-1,3.32,3.32,0,0,1-.82-2.41A3.51,3.51,0,0,1,364.26,87a2.71,2.71,0,0,1,2.77-.63,2.37,2.37,0,0,1,1.63,1.2A2.79,2.79,0,0,1,369.13,89.83Z"/><path class="cls-16" d="M223.29,76.18c-1.5,0-3,0-4.51,0-.43,0-.62.19-.46.55.24.55.38,1.22,1,1.49a2.27,2.27,0,0,0,1.52.34,3.31,3.31,0,0,0,1.7-1l.51.68a.7.7,0,0,1-.14.15A3.26,3.26,0,0,1,217.33,76a3.58,3.58,0,0,1,1.14-2.76,2.52,2.52,0,0,1,2.68-.57C222.62,73.07,223.39,74.39,223.29,76.18Z"/><path class="cls-16" d="M374.89,103.24h-4.53c-.38,0-.54.22-.43.58.15.52.62,1.34,1,1.47a2.71,2.71,0,0,0,1.42.34,3.25,3.25,0,0,0,1.77-1l.57.63a3.27,3.27,0,0,1-2.85,1.07,3,3,0,0,1-2.09-1,3.43,3.43,0,0,1-.82-2.42,3.56,3.56,0,0,1,1.08-2.55,2.73,2.73,0,0,1,2.77-.63,2.42,2.42,0,0,1,1.63,1.21A2.82,2.82,0,0,1,374.89,103.24Z"/><path class="cls-16" d="M333.91,105.31a3.23,3.23,0,0,1-2.72,1.06,3,3,0,0,1-2.21-1,3.41,3.41,0,0,1-.82-2.41,3.56,3.56,0,0,1,1.08-2.56,2.71,2.71,0,0,1,2.76-.63,2.37,2.37,0,0,1,1.63,1.2,2.87,2.87,0,0,1,.49,2.29h-4.53c-.4,0-.55.21-.45.58s.6,1.33,1,1.47a2.53,2.53,0,0,0,1.54.33,3.31,3.31,0,0,0,1.66-1Z"/><path class="cls-16" d="M268.44,76.18c-1.59,0-3.1,0-4.61,0-.37,0-.57.26-.4.59.3.63.48,1.35,1.33,1.58a2.51,2.51,0,0,0,2.85-.73l.59.58a3.4,3.4,0,0,1-3.36,1.07,3.16,3.16,0,0,1-2.38-2.83,3.8,3.8,0,0,1,.37-2.23c1.12-1.82,2.17-1.94,4-1.35A2.3,2.3,0,0,1,268,74.1,3.94,3.94,0,0,1,268.44,76.18Z"/><path class="cls-13" d="M256.09,73.78c.2-.2.41-.38.59-.59a2.32,2.32,0,0,1,3.21,0,2,2,0,0,1,.66,1.53c-.06,1.39,0,2.79,0,4.19a1.41,1.41,0,0,1-1,0c0-1.39,0-2.78,0-4.16s-1-1.78-2.23-1.38-1.26,1.28-1.34,2.17c-.1,1.1,0,2.22,0,3.32-.28.19-.56.06-.83.1,0,0-.08,0-.08-.08V70.26c.23-.17.52,0,.78-.07a.31.31,0,0,1,.14.29c0,.92,0,1.84,0,2.75C256,73.42,255.9,73.63,256.09,73.78Z"/><path class="cls-13" d="M393.24,83.86h.92V87.4l.22.13a2.72,2.72,0,0,1,.37-.56,2.24,2.24,0,0,1,3.36,0,1.67,1.67,0,0,1,.62,1.42c-.06,1.43,0,2.86,0,4.26a1.92,1.92,0,0,1-1,.06c0-1.29,0-2.6,0-3.9a2.35,2.35,0,0,0-.07-.8,1.54,1.54,0,0,0-2.12-.89,2.1,2.1,0,0,0-1.39,2.14c-.05,1.11,0,2.23,0,3.36-.28.2-.58.1-.92.08Z"/><path class="cls-13" d="M361.81,97.28h.93v3.54l.18.1c.17-.21.32-.43.49-.63a2.32,2.32,0,0,1,3.2,0,2,2,0,0,1,.7,1.65c-.07,1.38,0,2.77,0,4.18h-1c0-1.38,0-2.76,0-4.14a1.55,1.55,0,0,0-1.79-1.59c-.47,0-.76.48-1.23.5,0,.31-.27.52-.36.81a4.32,4.32,0,0,0-.22,1.46c0,1,0,1.91,0,2.88a1.26,1.26,0,0,1-.92.07Z"/><path class="cls-13" d="M289.56,106.1h-.87a.68.68,0,0,1-.09-.23v-3.7a1.6,1.6,0,0,0-2.54-1.54,2.16,2.16,0,0,0-1,2.05c-.07,1.11,0,2.22,0,3.33-.3.25-.61,0-.93.15V97.33a1.55,1.55,0,0,1,1,0V101l.67-.76a2.33,2.33,0,0,1,3.2,0,2,2,0,0,1,.68,1.65C289.52,103.28,289.56,104.64,289.56,106.1Z"/><path class="cls-13" d="M188.33,70.17v3.58a.76.76,0,0,0,.53-.41,2.34,2.34,0,0,1,3.47,0,1.86,1.86,0,0,1,.57,1.33c-.05,1.35,0,2.71,0,4.06,0,.08,0,.16,0,.26a1.49,1.49,0,0,1-.94,0c0-1.32,0-2.63,0-3.93,0-1.53-1.07-2.17-2.46-1.54-.94.43-1.05,1.29-1.12,2.11-.08,1.1,0,2.22,0,3.31-.29.18-.57.07-.9.11V70.25C187.65,70.11,187.93,70.22,188.33,70.17Z"/><path class="cls-12" d="M425.59,89.6A2.84,2.84,0,0,1,426.65,87a3.32,3.32,0,0,1,5,.86,3.56,3.56,0,0,1-.15,3.79A3,3,0,0,1,429,93a3.35,3.35,0,0,1-2.32-.78A2.88,2.88,0,0,1,425.59,89.6Z"/><path class="cls-12" d="M205.59,48.91c.13,1.73-.86,2.58-2.2,3.22a3.46,3.46,0,0,1-3.66-1.1,3.66,3.66,0,0,1,.48-4.8,3.36,3.36,0,0,1,5.37,1.61A3.47,3.47,0,0,1,205.59,48.91Z"/><path class="cls-12" d="M216.87,89.28a3.61,3.61,0,0,1-.29,1.94,3.37,3.37,0,0,1-6.11-.48,3.66,3.66,0,0,1,2.19-4.49,3.55,3.55,0,0,1,4.16,2.23A2.16,2.16,0,0,1,216.87,89.28Z"/><path class="cls-11" d="M372.36,24h2.09v7.14c-.65.05-1.35,0-2.09,0Z"/><path class="cls-11" d="M337.1,24h2.08v7.14c-.65.05-1.35,0-2.08,0Z"/><path class="cls-11" d="M259.09,24h2.12v7.13h-2a7.07,7.07,0,0,1-.08-2C259.08,27.41,259.09,25.7,259.09,24Z"/><path class="cls-14" d="M181.49,91.49a1.36,1.36,0,0,0,.37-.54,16.87,16.87,0,0,1,.82-2.29,12.73,12.73,0,0,0,.61-1.66.79.79,0,0,1,1.1-.48c.16.09.06.24,0,.4-.22.83-.7,1.54-1,2.36-.42,1.25-1.07,2.42-1.58,3.65a3.24,3.24,0,0,1-.29.59,2.77,2.77,0,0,1-1.09,1.06,4,4,0,0,1-1.54,0c-.23,0-.56-.46-.44-.58s.31-.57.64-.3a1,1,0,0,0,1.44-.19,1,1,0,0,0,.07-1.43,1.93,1.93,0,0,0-.42-1.15c-.73-1.33-1.16-2.8-1.95-4.1-.11-.18-.05-.38.24-.39.45,0,.75,0,1,.59.36,1,.88,1.87,1.19,2.86A9,9,0,0,0,181.49,91.49Z"/><path class="cls-13" d="M184.28,59.21c.87,0,.87,0,1,.72.27-.5.87-.51,1.16-1a3.11,3.11,0,0,1,2.33.32c.29.21.5.51.77.75a.61.61,0,0,1,.19.52v4.74a1.91,1.91,0,0,1-1,.07c0-1.3,0-2.6,0-3.9a2.43,2.43,0,0,0-.07-.81,1.54,1.54,0,0,0-2.12-.89,2.08,2.08,0,0,0-1.39,2.14c-.06,1.11,0,2.23,0,3.36-.27.21-.58.1-.92.08Z"/><path class="cls-13" d="M223.59,65.37a1.89,1.89,0,0,1-.93-.05v-6c.87-.11.87-.11,1,.66a9.16,9.16,0,0,1,.88-.66,2.81,2.81,0,0,1,2.29-.14c.58.2.82.71,1.25,1,.19.15.08.38.08.56,0,1.52,0,3,0,4.56-.28.21-.59.1-1,.08,0-1.43,0-2.85,0-4.27a1.51,1.51,0,0,0-2.11-1.33c-.34.16-.83.17-1,.6a4.46,4.46,0,0,0-.49,1.59C223.6,63.07,223.59,64.18,223.59,65.37Z"/><path class="cls-13" d="M238.22,92.68h-.92V86.59c.87-.14.87-.14.94.53.3.1.34-.23.5-.33a2.54,2.54,0,0,1,2-.57,1.78,1.78,0,0,1,1,.4,2.07,2.07,0,0,1,1,2c-.13,1.33,0,2.69,0,4a2.19,2.19,0,0,1-1,.05v-3.9a2.72,2.72,0,0,0-.07-.81,1.56,1.56,0,0,0-2.13-.88,2.11,2.11,0,0,0-1.39,2.15C238.18,90.35,238.22,91.47,238.22,92.68Z"/><path class="cls-13" d="M296.32,86.51c.86,0,.86,0,1,.7.29-.46.88-.49,1.16-.92a3.12,3.12,0,0,1,2.34.32c.28.21.5.52.77.75a.61.61,0,0,1,.19.52c0,1.59,0,3.18,0,4.79h-1c0-1.29,0-2.59,0-3.89a2.43,2.43,0,0,0-.07-.81,1.49,1.49,0,0,0-2.12-.86c-.32.14-.76.2-.91.54a4,4,0,0,0-.5,1.58c0,1.12,0,2.23,0,3.35-.27.29-.59,0-.92.18Z"/><path class="cls-13" d="M341.62,92.68a2.18,2.18,0,0,1-.93,0V86.56c.19-.18.44,0,.66-.08s.27.09.27.28-.07.6.38.2a2.49,2.49,0,0,1,2-.75,2.73,2.73,0,0,1,1.54.65,1.82,1.82,0,0,1,.68,1.65c-.06,1.35,0,2.7,0,4.08-.27.21-.58.1-1,.09,0-1.39,0-2.78,0-4.16a1.34,1.34,0,0,0-.9-1.41A1.86,1.86,0,0,0,342,88a4,4,0,0,0-.36,1.54C341.66,90.53,341.62,91.56,341.62,92.68Z"/><path class="cls-13" d="M410,106.09a1.91,1.91,0,0,1-.93,0V100c.87-.1.87-.1,1,.66.32-.24.61-.47.88-.65a2.34,2.34,0,0,1,2.29-.15c.58.19.82.72,1.25,1,.19.14.08.37.08.56,0,1.51,0,3,0,4.55-.27.21-.58.1-1,.09,0-1.39,0-2.78,0-4.16a1.5,1.5,0,0,0-1.67-1.57c-.53,0-.88.39-1.34.56-.12,0-.26.5-.37.77a3.7,3.7,0,0,0-.21,1.46Z"/><path class="cls-13" d="M446.7,92.68h-.93V86.59c.87-.14.87-.14.94.53.3.1.34-.23.5-.33a2.56,2.56,0,0,1,2.05-.57,1.76,1.76,0,0,1,1,.4,2.08,2.08,0,0,1,1,2c-.13,1.33,0,2.69,0,4.06h-1c0-1.29,0-2.59,0-3.89a2.72,2.72,0,0,0-.07-.81,1.54,1.54,0,0,0-2.12-.88,2.1,2.1,0,0,0-1.39,2.15C446.66,90.35,446.7,91.47,446.7,92.68Z"/><path class="cls-13" d="M215,99.93c.86,0,.86,0,1,.74.26-.52.87-.53,1.15-1a3.29,3.29,0,0,1,2.25.23,7.41,7.41,0,0,1,.94.92c.14.13.11.28.11.43v4.79h-1V102.2a2.72,2.72,0,0,0-.07-.81,1.55,1.55,0,0,0-2.12-.89,2.1,2.1,0,0,0-1.4,2.14c0,1.11,0,2.23,0,3.36-.27.21-.58.1-.92.09Z"/><path class="cls-13" d="M207.27,79h-.87a.7.7,0,0,1-.08-.23c0-1.24,0-2.47,0-3.71,0-1.55-1-2.18-2.43-1.56a2.12,2.12,0,0,0-1.14,2.09c-.08,1.1,0,2.22,0,3.35a1.59,1.59,0,0,1-.94,0V72.92c.88-.1.88-.1,1,.63.22-.18.39-.43.59-.47s.42-.43.65-.45a3.23,3.23,0,0,1,2.15.21,6.36,6.36,0,0,1,1,1c.17.17.08.38.08.57C207.28,75.9,207.27,77.41,207.27,79Z"/><path class="cls-11" d="M195.57,64.12A1.68,1.68,0,0,0,194,62.77a4.85,4.85,0,0,1-1.73-.74c-.49-.26-.41-.85-.61-1.28,0-.07.17-.24.22-.37a2,2,0,0,1,1.81-1.46,4.87,4.87,0,0,1,2.32.49c.25.11.24.31,0,.53s-.51.17-.82.06a4.27,4.27,0,0,0-1.42-.38,1.53,1.53,0,0,0-.73.28.66.66,0,0,0-.13,1.16,1.53,1.53,0,0,0,.87.48c.56,0,.94.42,1.47.55.71.16.92.94,1.17,1.58.08.23-.24.29-.24.5,0,.86-.82,1-1.32,1.46-1.06,0-2.18.22-3.08-.66a.47.47,0,0,1-.17-.55c.09-.28.25-.28.43-.16a4.69,4.69,0,0,0,1.77.66,1.27,1.27,0,0,0,1.34-.52A1.93,1.93,0,0,1,195.57,64.12Z"/><path class="cls-11" d="M232,65.64a2.56,2.56,0,0,1-2.06-.7c-.72,0-.16-.42-.12-.55.1-.36.29-.15.51,0a4.43,4.43,0,0,0,1.22.5c.6.1,1.27.26,1.71-.4.12-.19.49-.33.35-.55s-.21-.79-.75-.93a4.08,4.08,0,0,1-2.24-.94c-.8.05-.37-.85-.83-1.08a4.84,4.84,0,0,1,.44-1.12,2.44,2.44,0,0,1,2.91-.77c.27.1.63,0,.84.3.07.11.43,0,.36.31a.53.53,0,0,1-.47.44,1,1,0,0,1-.54-.14,4.58,4.58,0,0,0-1.18-.33,1.19,1.19,0,0,0-.86.22c-.53.35-.62.8-.18,1.21a3.45,3.45,0,0,0,1,.51,5.2,5.2,0,0,1,1.72.76,1.63,1.63,0,0,1,.52,2.08,2,2,0,0,1-1.81,1.21C232.4,65.63,232.24,65.64,232,65.64Z"/><path class="cls-11" d="M319.06,91.31c-.11-.84-.78-1.07-1.49-1.24a5.68,5.68,0,0,1-1.62-.7,1.56,1.56,0,0,1-.3-2.22,2.46,2.46,0,0,1,2.91-.78c.27.11.64-.06.84.3.07.12.45,0,.38.3s-.24.52-.57.46a4.83,4.83,0,0,1-1.06-.33,1.38,1.38,0,0,0-1.41.09c-.56.35-.68.79-.2,1.18a1.89,1.89,0,0,0,.87.48c.55,0,.95.41,1.46.55.69.18.95.93,1.15,1.59.07.26-.19.48-.27.73a1.76,1.76,0,0,1-1.42,1.19,4.77,4.77,0,0,1-2.3-.18c-.38-.12-.52-.55-1-.58-.15,0,.22-.21.17-.44s.21-.27.32-.19a5.4,5.4,0,0,0,1,.48C317.59,92.41,318.45,92.38,319.06,91.31Z"/><path class="cls-11" d="M232.53,106.36a2.55,2.55,0,0,1-2.1-.72c-.7,0-.13-.29-.12-.44,0-.37.2-.32.46-.18a5.09,5.09,0,0,0,2,.64c.71,0,.94-.51,1.33-.85.16-.14-.36-1.07-.66-1.06a3.93,3.93,0,0,1-1.09-.32,1.87,1.87,0,0,1-1.27-.66c-.77,0-.37-.86-.8-1.11.2-.36.19-.8.45-1.14.74-1,1.78-1,2.85-.82.16.38.62,0,.82.34s.54,0,.44.39-.52.57-.73.4-.65-.16-.95-.33a1.32,1.32,0,0,0-1.41.1c-.56.35-.63.82-.12,1.22a6.85,6.85,0,0,0,2.13.92c.49.18.71.59,1.08.86-.18.38.31.61.23,1a2.29,2.29,0,0,1-2.2,1.79Z"/><path class="cls-11" d="M185.37,52.22a2.65,2.65,0,0,1-2.19-.7c-.77,0-.07-.39-.1-.57s.24-.22.42-.07a4,4,0,0,0,1.23.5,1.45,1.45,0,0,0,1.79-.34.82.82,0,0,0-.43-1.43c-.33-.08-.64-.23-1-.31a1.8,1.8,0,0,1-1.27-.67c-.78,0-.38-.85-.82-1.09a4.37,4.37,0,0,1,.45-1.13c.85-1,1.57-1.06,2.91-.75.26.07.62,0,.84.3.07.1.43,0,.35.31a.51.51,0,0,1-.6.43,9.88,9.88,0,0,1-1.05-.34,1.35,1.35,0,0,0-1.81.56c-.16.27-.13.4.07.59a3.43,3.43,0,0,0,1.16.67,4.69,4.69,0,0,1,2,1c.31.35.15.83.49,1.12-.32.3-.15.79-.49,1.12A2.18,2.18,0,0,1,185.37,52.22Z"/><path class="cls-11" d="M197.54,50.52l.59.63a3.38,3.38,0,0,1-4.79.22,3.7,3.7,0,0,1-.11-4.89,3.39,3.39,0,0,1,4.91.1.22.22,0,0,1,0,.08c-.56.56-.63.63-1.16.11a2.05,2.05,0,0,0-2.43-.28,2.17,2.17,0,0,0-1.1,1.65,2.81,2.81,0,0,0,.35,2.23,2.22,2.22,0,0,0,2.48,1A2.09,2.09,0,0,0,197.54,50.52Z"/><path class="cls-11" d="M391.76,87.32l-.56.55a8.91,8.91,0,0,1-.93-.57,2,2,0,0,0-2.87.74,2.79,2.79,0,0,0-.13,2.93,2.24,2.24,0,0,0,3.61.58l.29-.3.5.65a3.3,3.3,0,0,1-4.62.3,3.68,3.68,0,0,1-.24-5A3.4,3.4,0,0,1,391.76,87.32Z"/><path class="cls-14" d="M262.45,87.19V92.6c-.29.2-.58,0-.92.17V87.35c-.22-.22-.39-.14-.54-.15s-.45.06-.47-.33.26-.39.53-.39h.33c.2-.23.12-.48.1-.71a1.62,1.62,0,0,1,.49-1.36,1.58,1.58,0,0,1,1.45-.57,7.66,7.66,0,0,0,.83,0c.2.16.11.37.12.56,0,.36-.07.55-.47.3a.85.85,0,0,0-1.23.23.63.63,0,0,0-.22.5c0,.32,0,.64,0,1h1.66c.32,0,.25.22.26.41s0,.31-.24.31Z"/><path class="cls-15" d="M247.58,51.5a1.18,1.18,0,0,1-1.19.71c-2.48,0-4.95,0-7.43,0a1.46,1.46,0,0,1-1.45-1.42,3.17,3.17,0,0,1,.38-1.76c1.05-1.95,2-4,3-5.94A2.15,2.15,0,0,1,242,41.81a1.61,1.61,0,0,1,1.46.11l.09.17-.1.17a.94.94,0,0,1-.32.19,2.31,2.31,0,0,0-1.67,1.38c-.89,1.83-1.84,3.63-2.71,5.46-.72,1.49-.35,2.06,1.31,2.08s3.43,0,5.15,0A3.33,3.33,0,0,0,247,51a1,1,0,0,1,.35-.08.59.59,0,0,1,.31.14A.42.42,0,0,1,247.58,51.5Z"/><path class="cls-11" d="M237.46,59.17c.64,0,1.15,0,1.67,0,.29,0,.29.16.3.38s-.07.36-.33.35h-1.6V63.5c0,1,.48,1.35,1.5,1a.52.52,0,0,1,.32,0c.18.09.09.28.1.43a.48.48,0,0,1-.33.45,2.64,2.64,0,0,1-2.36-.58.81.81,0,0,1-.19-.65V60c-.18-.19-.35-.11-.5-.12s-.45.06-.47-.33.26-.39.53-.39h.43V57.28h.93Z"/><path class="cls-11" d="M198.4,59.89a5.69,5.69,0,0,0-.59,0c-.35,0-.38-.15-.38-.42s.15-.32.38-.3h.56V57.36a1.78,1.78,0,0,1,1-.09v1.9c.59,0,1.1,0,1.61,0,.27,0,.34.11.33.35s0,.39-.3.38h-1.62c0,1.26,0,2.48,0,3.7,0,.91.57,1.26,1.47.92.12-.05.24-.1.32-.06s.12.27.13.42a.51.51,0,0,1-.41.51A2.7,2.7,0,0,1,199,65.1a1.16,1.16,0,0,1-.58-1.07C198.44,62.68,198.4,61.33,198.4,59.89Z"/><path class="cls-11" d="M306.11,73.54c-.31,0-.51,0-.71,0s-.25-.13-.24-.3-.08-.42.24-.42h.68V70.94h1v1.88c.6,0,1.11,0,1.62,0,.27,0,.33.1.33.35s0,.38-.31.37c-.51,0-1,0-1.62,0,0,1.26,0,2.49,0,3.71,0,.91.56,1.25,1.47.91.11,0,.23-.1.32-.06s.12.27.12.43a.5.5,0,0,1-.4.5,3.38,3.38,0,0,1-1.71-.19,1.29,1.29,0,0,1-.78-1.28C306.13,76.25,306.11,74.94,306.11,73.54Z"/><path class="cls-11" d="M322.86,86.48h1.67c.29,0,.29.17.3.38s-.07.36-.33.35c-.51,0-1,0-1.59,0,0,1.25,0,2.44,0,3.62s.47,1.34,1.5,1a.49.49,0,0,1,.31,0c.18.09.09.28.1.43s-.18.38-.33.45a2.59,2.59,0,0,1-2.35-.59.75.75,0,0,1-.19-.64V87.19a6.14,6.14,0,0,0-.62,0c-.25,0-.34-.08-.35-.33s.1-.43.4-.4a4.83,4.83,0,0,0,.56,0v-1.9h.92Z"/><path class="cls-11" d="M434.23,86.48V84.65c.3-.16.57-.07.92-.08v1.91c.6,0,1.11,0,1.62,0,.26,0,.35.09.33.34s0,.39-.29.39h-1.63c0,1.26,0,2.48,0,3.71,0,.91.56,1.27,1.47.92.16-.06.29-.14.4,0s0,.23.05.34a.5.5,0,0,1-.4.51,2.8,2.8,0,0,1-1.91-.26,1.18,1.18,0,0,1-.59-1.07c.06-1.35,0-2.71,0-4-.18-.2-.4-.12-.58-.11-.34,0-.39-.13-.39-.42s.14-.33.37-.31A5.47,5.47,0,0,0,434.23,86.48Z"/><path class="cls-11" d="M402.31,87.19c0,1.28,0,2.5,0,3.73,0,.9.55,1.23,1.48.89.11,0,.23-.09.32,0s.11.27.11.42-.23.51-.41.49a3.58,3.58,0,0,1-1.61-.15,1.31,1.31,0,0,1-.87-1.32c0-1.31,0-2.62,0-3.91-.25-.18-.49-.09-.72-.1s-.24-.16-.23-.32-.06-.41.26-.4h.67V84.59h1v1.89c.6,0,1.11,0,1.62,0,.28,0,.32.13.32.37s0,.37-.32.36C403.41,87.18,402.9,87.19,402.31,87.19Z"/><path class="cls-11" d="M207.23,86.48c.64,0,1.16,0,1.67,0,.29,0,.29.16.3.38s-.07.36-.33.35c-.51,0-1,0-1.6,0,0,1.25,0,2.44,0,3.62s.47,1.34,1.49,1a.52.52,0,0,1,.32,0c.18.09.09.28.1.43s-.18.38-.33.45a2.62,2.62,0,0,1-2.36-.59.77.77,0,0,1-.18-.64c0-1.24,0-2.47,0-3.71v-.41c-.18-.18-.34-.1-.49-.11s-.46.06-.48-.33.26-.39.53-.39c.12,0,.23,0,.43,0v-1.9h.93Z"/><path class="cls-11" d="M279.72,98h.93v1.77c.32.22.65.11,1,.11,1.25,0,1,.05,1,.4-.12.68-.69.22-1,.32a4.05,4.05,0,0,1-.86,0c0,1.29,0,2.52,0,3.75a1,1,0,0,0,1.33,1c.2-.06.36-.35.57-.08s-.11.78-.32.81a2.87,2.87,0,0,1-1.92-.22,1.22,1.22,0,0,1-.64-1.16c.06-1.11,0-2.23,0-3.35v-.75c-.25,0-.44,0-.63,0s-.34-.09-.33-.34,0-.4.3-.38c.11,0,.24,0,.35,0,.28,0,.33-.12.32-.36C279.71,99.05,279.72,98.58,279.72,98Z"/><path class="cls-11" d="M371.13,87.19h-.67c-.3,0-.29-.17-.3-.38s.07-.37.33-.35a6.2,6.2,0,0,0,.62,0V84.64a1.69,1.69,0,0,1,1,0v1.87h1.68c.23,0,.25.15.24.31s.07.42-.25.42h-1.66c0,1.31,0,2.61,0,3.91a1,1,0,0,0,1.35.82c.21-.07.38-.33.56,0s-.15.81-.35.79a3.8,3.8,0,0,1-1.72-.19,1.24,1.24,0,0,1-.81-1.24C371.15,90,371.13,88.63,371.13,87.19Z"/><path class="cls-17" d="M251.18,79h-.92V72.85h.84c.22.35-.07.78.17,1.16.75-.59,1.26-1.62,2.43-1.41.17.1.12.23.11.34,0,.29.12.57-.42.63A2.08,2.08,0,0,0,251.53,75a4.83,4.83,0,0,0-.36,1.65C251.19,77.41,251.18,78.17,251.18,79Z"/><path class="cls-17" d="M413.83,92.68h-.93V86.56c.25-.17.55-.07.84,0,.23.36-.05.78.17,1.14,1.53-1.39,1.53-1.39,2.52-1.37,0,.11,0,.22,0,.33,0,.3.09.56-.44.62a2.08,2.08,0,0,0-1.86,1.45,5,5,0,0,0-.35,1.64C413.85,91.08,413.83,91.83,413.83,92.68Z"/><path class="cls-17" d="M323.91,99.92h.83c.23.35-.06.78.16,1.13,1.56-1.38,1.56-1.38,2.48-1.36.14.08.08.21.08.32,0,.29.12.57-.42.63a2.09,2.09,0,0,0-1.86,1.44,4.83,4.83,0,0,0-.36,1.65c0,.75,0,1.51,0,2.28-.28.2-.59.1-.92.08Z"/><path class="cls-17" d="M268.45,106a1.77,1.77,0,0,1-.91.07V100c.26-.14.53,0,.82-.06.22.35,0,.77.17,1.17.77-.55,1.25-1.63,2.47-1.39.14.1.08.27.09.42s.06.49-.39.53a2.14,2.14,0,0,0-1.76,1.12,4.83,4.83,0,0,0-.48,1.94C268.43,104.48,268.45,105.27,268.45,106Z"/><path class="cls-17" d="M180.41,65.37h-.92V59.19h.84c.22.36-.07.78.19,1.19.3-.31.61-.59.89-.9a1.92,1.92,0,0,1,1-.54c.54-.15.68,0,.67.59,0,.23,0,.33-.31.37a2.18,2.18,0,0,0-2,1.46A4.77,4.77,0,0,0,180.4,63C180.42,63.75,180.41,64.51,180.41,65.37Z"/><path class="cls-17" d="M218.79,65.37h-.93V59.25c.25-.16.55-.08.94,0v1.2C220.4,59,220.4,59,221.36,59c.14.17,0,.38.07.56s-.07.32-.33.36a2.21,2.21,0,0,0-2,1.47,5.06,5.06,0,0,0-.35,1.65C218.81,63.77,218.79,64.53,218.79,65.37Z"/><path class="cls-18" d="M225.06,70.21H226V79c-.24.24-.56,0-.89.13Z"/><path class="cls-18" d="M359.81,106.1h-.88V97.34c.24-.17.54-.07.88,0Z"/><path class="cls-19" d="M279.48,86.5h1c0,2.27,0,4.53,0,6.79a1.64,1.64,0,0,1-2,1.33.27.27,0,0,1-.13-.3c0-.18,0-.34.25-.43.87-.26,1-.39,1-1.19C279.49,90.67,279.48,88.64,279.48,86.5Z"/><path class="cls-19" d="M406.15,99.91H407a.91.91,0,0,1,.08.23c0,2.07,0,4.14,0,6.22,0,1.17-.61,1.72-1.8,1.68-.23,0-.38,0-.36-.31s0-.34.26-.43c.85-.25.94-.4.94-1.19Z"/><path class="cls-15" d="M339.94,105.4c-.55,1.1-1.57,1-2.52.93a2,2,0,0,1-1.61-1.3,1.48,1.48,0,0,1-.19-.64V100c.28-.19.57-.06.83-.1a.32.32,0,0,1,.13.3c0,1.16,0,2.31,0,3.47a1.81,1.81,0,0,0,2.83,1.67c.1,0,.14-.21.29-.17h.09a.32.32,0,0,1,.14.14Z"/><path class="cls-12" d="M339.7,105.16a3.1,3.1,0,0,0,.49-1.83c0-1.11,0-2.23,0-3.36a1.55,1.55,0,0,1,.93,0V106c-.11.15-.28.07-.43.09-.3,0-.57,0-.51-.41,0-.16,0-.33-.23-.31A1.36,1.36,0,0,0,339.7,105.16Z"/><path class="cls-20" d="M213,99.88V106c-.27.17-.55.06-.94.1V100C212.36,99.81,212.64,99.92,213,99.88Z"/><path class="cls-20" d="M299.2,99.91h.88V106c-.24.17-.55.07-.88,0Z"/><path class="cls-20" d="M311.59,79h-.88V72.91c.23-.18.54-.07.88-.06Z"/><path class="cls-20" d="M277.05,92.68h-.89V86.56c.25-.17.55-.08.89,0Z"/><path class="cls-20" d="M377.57,106.1h-.89V100c.24-.23.56,0,.89-.13Z"/><path class="cls-20" d="M270.15,79.06V72.91c.27-.17.55,0,.82-.09a.34.34,0,0,1,.08.09.21.21,0,0,1,0,.1V79C270.8,79.13,270.52,79,270.15,79.06Z"/><path class="cls-20" d="M190.44,52h-.88V45.78h.88Z"/><path class="cls-20" d="M403.75,106.1h-.91V99.89c.18,0,.33,0,.48,0s.45,0,.44.36C403.74,102.19,403.75,104.13,403.75,106.1Z"/><path class="cls-20" d="M181.11,45.68v6.21c-.27.19-.56,0-.88.15V45.82C180.45,45.65,180.74,45.83,181.11,45.68Z"/><path class="cls-20" d="M241.38,59.19h.88v6.13c-.23.23-.55,0-.88.13Z"/><path class="cls-10" d="M376.68,21.34h2.08v1.84h-2.08Z"/><path class="cls-7" d="M372.37,21.34h2.08v1.88c-.65,0-1.35,0-2.08,0Z"/><path class="cls-7" d="M337.08,23.2V21.36h2.08V23.2Z"/><path class="cls-7" d="M261.23,21.32v1.87h-2s-.09-.07-.09-.13c0-.55,0-1.1,0-1.66a6.86,6.86,0,0,1,1.63-.08C260.88,21.31,261,21.32,261.23,21.32Z"/><path class="cls-21" d="M244.94,44.08v.24c.08.07.15.16.24.24v.24c.08.07.15.16.24.23v.24a2.72,2.72,0,0,0,.24.24v.24a2.72,2.72,0,0,0,.24.24l.48,1c.09.07.15.17.24.24v.24a2.72,2.72,0,0,0,.24.24v.24a2.72,2.72,0,0,0,.24.24v.24a2.72,2.72,0,0,0,.24.24v.24c.08.07.15.17.24.24v.24c.08.07.15.16.24.24v.48a.59.59,0,0,1,0,.71V51q-.12.18-.24,0a1.37,1.37,0,0,1-.4-.78,3,3,0,0,1-.11-.4c0-.12-.06-.25-.1-.37a2.29,2.29,0,0,1-.1-.23c-.05-.11-.1-.22-.16-.33a2704441015972.11,2704441015972.11,0,0,1-.22-.44c0-.07-.07-.14-.11-.22s-.11-.22-.17-.33-.09-.14-.13-.22l-.24-.33a4.59,4.59,0,0,1-.35-.61c-.07-.12-.12-.25-.18-.37a2.56,2.56,0,0,1-.11-.24L245,45.8l-.12-.23-.12-.23-.12-.24-.12-.23-.12-.24-.12-.24-.12-.24-.12-.24a1.63,1.63,0,0,1-.11-.23,1.34,1.34,0,0,1-.12-.24,2.53,2.53,0,0,1-.12-.23,2.56,2.56,0,0,1-.11-.24,1.63,1.63,0,0,1-.11-.23,2.44,2.44,0,0,1-.1-.24s0-.09,0-.13a.24.24,0,0,1,.12-.21.14.14,0,0,1,.24,0q.25,0,.24.24a2.72,2.72,0,0,0,.24.24v.24a2.72,2.72,0,0,0,.24.24v.24c.08.07.15.17.24.24v.24C244.78,43.91,244.85,44,244.94,44.08Z"/><path class="cls-22" d="M310.08,104.94h1.31c0,.4,0,.78,0,1.17a1.61,1.61,0,0,1-1.07,1.43.39.39,0,0,1-.48-.22c-.25-.38.15-.17.24-.25s.33-.34.5-.5.16-.36,0-.39C309.85,106,310.37,105.4,310.08,104.94Z"/><path class="cls-22" d="M387.81,104.94h1.31c0,.4,0,.78,0,1.17a1.63,1.63,0,0,1-1.07,1.43.39.39,0,0,1-.48-.22c-.25-.38.15-.17.24-.25s.33-.34.5-.5.16-.36,0-.39C387.58,106,388.1,105.4,387.81,104.94Z"/><path class="cls-22" d="M454.41,91.55c-.16.6.06,1.14-.2,1.74s-.64.6-1,.83-.36-.2-.53-.34a1.86,1.86,0,0,0,.9-.68.35.35,0,0,0,0-.3c-.74-.22-.31-.8-.48-1.25Z"/><path class="cls-23" d="M244.72,92.66V91.55h1.12a3.33,3.33,0,0,1,0,1.11Z"/><path class="cls-23" d="M203.9,59.21v1.12h-1.13a3.41,3.41,0,0,1,0-1.12Z"/><path class="cls-23" d="M203.89,64.2v1.15h-1.11s-.07-.13-.07-.25c0-.89,0-.89,1-.9Z"/><path class="cls-20" d="M323.13,77.89V79H322a3.4,3.4,0,0,1,0-1.12Z"/><path class="cls-23" d="M281.2,77.87h1.12V79a3.38,3.38,0,0,1-1.12.05Z"/><path class="cls-20" d="M252.42,64.22h1.12v1.12a3.42,3.42,0,0,1-1.12,0Z"/><path class="cls-23" d="M207.32,50.8h1.11v1.13a3.64,3.64,0,0,1-1.11,0Z"/><path class="cls-20" d="M417.65,105v1.12h-1.11c-.19-.32,0-.71-.11-1.12Z"/><path class="cls-23" d="M208.45,45.79v1.12h-1.1c-.19-.32,0-.71-.11-1.12Z"/><path class="cls-23" d="M282.34,72.86V74h-1.1c-.19-.32,0-.71-.11-1.12Z"/><path class="cls-23" d="M244.74,86.5h1.12v1.12a3.4,3.4,0,0,1-1.12,0Z"/><path class="cls-24" d="M277.07,84.12V85H276c-.17-.24-.07-.54-.05-.88Z"/><path class="cls-24" d="M280.52,85h-1.18c-.2-.27,0-.55-.13-.82.39-.24.78,0,1.11-.14C280.55,84.37,280.37,84.65,280.52,85Z"/><path class="cls-24" d="M242.28,56.81v.88h-1.1c-.16-.24-.07-.54-.05-.88Z"/><path class="cls-24" d="M213,97.54v.87h-1.1c-.24-.22,0-.54-.13-.87Z"/><path class="cls-24" d="M298.84,97.52H300c.2.26,0,.55.13.81-.39.24-.78,0-1.11.14C298.81,98.17,299,97.88,298.84,97.52Z"/><path class="cls-24" d="M376.43,98.42v-.89h1.09c.17.24.08.55.05.89Z"/><path class="cls-24" d="M402.54,97.52h1.13c.16.27.05.55.09.83-.36.22-.75,0-1.1.12C402.48,98.16,402.59,97.88,402.54,97.52Z"/><path class="cls-24" d="M405.9,97.52H407c.16.27.05.55.08.83-.36.22-.74,0-1.09.12C405.84,98.16,405.94,97.88,405.9,97.52Z"/><path class="cls-24" d="M271.07,70.47v.87H270c-.17-.23-.07-.53-.05-.87Z"/><path class="cls-24" d="M311.64,71.37h-1.12c-.16-.28-.06-.56-.09-.84.36-.22.75,0,1.09-.12C311.71,70.72,311.6,71,311.64,71.37Z"/><path class="cls-24" d="M189.3,44.32V43.4h1.11c.19.18.05.47.06.73s-.19.19-.35.19Z"/><path class="cls-24" d="M179.91,43.38H181c.16.26.05.54.09.81-.12.12-1,.23-1.11.08S180,43.75,179.91,43.38Z"/><path class="cls-25" d="M247.82,50.78v-.71C248.15,50.31,248.15,50.54,247.82,50.78Z"/><path class="cls-25" d="M247.58,51h.24c0,.18.12.46-.24.48Z"/><path class="cls-26" d="M244.7,43.6q-.25,0-.24-.24Q244.7,43.35,244.7,43.6Z"/><path class="cls-26" d="M243.74,42.16h-.24v-.24Q243.76,41.9,243.74,42.16Z"/><path class="cls-26" d="M244.94,44.08q-.25,0-.24-.24Q244.94,43.83,244.94,44.08Z"/><path class="cls-26" d="M244.46,43.12q-.26,0-.24-.24Q244.46,42.86,244.46,43.12Z"/><path class="cls-26" d="M245.18,44.56q-.26,0-.24-.24Q245.18,44.31,245.18,44.56Z"/><path class="cls-26" d="M245.66,45.51q-.25,0-.24-.24A.21.21,0,0,1,245.66,45.51Z"/><path class="cls-26" d="M245.9,46q-.26,0-.24-.24A.21.21,0,0,1,245.9,46Z"/><path class="cls-25" d="M246.62,47.19q-.26,0-.24-.24Q246.62,46.93,246.62,47.19Z"/><path class="cls-25" d="M246.86,47.67q-.26,0-.24-.24Q246.86,47.42,246.86,47.67Z"/><path class="cls-25" d="M247.1,48.15c-.17,0-.25-.07-.24-.24Q247.1,47.9,247.1,48.15Z"/><path class="cls-25" d="M247.34,48.63q-.26,0-.24-.24Q247.34,48.38,247.34,48.63Z"/><path class="cls-25" d="M247.58,49.11q-.26,0-.24-.24Q247.58,48.86,247.58,49.11Z"/><path class="cls-25" d="M247.82,49.59q-.25,0-.24-.24Q247.82,49.34,247.82,49.59Z"/><path class="cls-26" d="M244.22,42.64q-.25,0-.24-.24Q244.24,42.39,244.22,42.64Z"/><path class="cls-26" d="M245.42,45c-.17,0-.25-.07-.24-.23C245.34,44.79,245.42,44.87,245.42,45Z"/><path class="cls-7" d="M93.56,77.13H90.09a18.9,18.9,0,0,1-5.48-.92c-.47-.14-1-.11-1.46-.23a4.29,4.29,0,0,0-1.44-.29c-.54,0-1-.41-1.58-.24-.37-.39-.92-.2-1.38-.44a5.11,5.11,0,0,0-1.56-.23c-.64-.08-1.25-.46-1.92-.29-.52-.54-1.32,0-1.84-.48-.91.18-1.75-.31-2.65-.25-1.13.07-2.23-.33-3.38-.25s-2.23,0-3.35,0a1.22,1.22,0,0,1-1.11.3,22.37,22.37,0,0,1-8.57-2.46,4.36,4.36,0,0,1-2.07-1.91,9.8,9.8,0,0,1-2-3.59,7.7,7.7,0,0,1-.14-4.19c.11-.51-.11-1.08.25-1.57.09-.12-.09-.2-.16-.28a13.71,13.71,0,0,1-2.47-4.61,10.7,10.7,0,0,1-.7-4.61,14.71,14.71,0,0,1,1-4.36,18.14,18.14,0,0,1,1.82-3.32,16.35,16.35,0,0,1,1.42-1.56,8.2,8.2,0,0,1,2.51-2A16.13,16.13,0,0,1,57.07,38c.07,0,.14-.14.18-.13.72.15,1.37-.33,2.06-.24a13.35,13.35,0,0,1,2.44.49,23.56,23.56,0,0,1,2.74,1.18,24.79,24.79,0,0,1,2.74,1.79,18.15,18.15,0,0,1,2.32,2.41,5.19,5.19,0,0,1,.7,1.14c.22.35-.16.57-.24.83a1.69,1.69,0,0,1-1.27,1.22c-.7.12-1.45.1-1.82-.78-.22-.5-.83-.67-1.25-1a6.63,6.63,0,0,0-2.86-1.44c-1.06-.18-2.14-.77-3.24-.11-1.77,0-3.08,1-4.45,2a5.68,5.68,0,0,0-1.47,1.55,4.63,4.63,0,0,0-1,1.88c0,.15-.15.34-.14.53a12.4,12.4,0,0,0,.2,2.78,15.48,15.48,0,0,0,.91,2c.09.21.24.07.42,0,.4-.05.57-.38.85-.56a15.23,15.23,0,0,1,5-1.91,31.58,31.58,0,0,1,3.75-.51A29.27,29.27,0,0,1,67.26,51c1.37,0,2.72.32,4.1.27.41,0,.87.19,1.34.21a2.85,2.85,0,0,1,1.36.19c.37.21,1-.08,1.41.07s1.17.08,1.69.24a9,9,0,0,0,1.59.23c.57.08,1-.3,1.58-.27s1.2,0,1.8,0c.37-.53,1.11.06,1.49-.47,0,0,.15,0,.23,0,.79.16,1.51-.28,2.3-.25s1.6,0,2.4,0a2.19,2.19,0,0,0,1.84-.78c.43-.47.88-.92,1.35-1.36a12.08,12.08,0,0,0,2.38-3.32c.56-1.05,1.23-2.05,1.86-3.06.9-1.47,1.9-2.88,2.67-4.41.52-1,1-2.06,1.52-3.07a8.69,8.69,0,0,1,3-3.81,2.8,2.8,0,0,0,1.52-2.24,1.66,1.66,0,0,1,.42,1.37.48.48,0,0,0,0,.12c-.19,1.78.31,3.52.24,5.29,0,.42.2.59.63.65a5.61,5.61,0,0,1,4.7,3.3,4.18,4.18,0,0,1,.43,1.74c0,.44,0,.88,0,1.32a1,1,0,0,0,.83.82c.6,0,1.2,0,1.8,0a1.91,1.91,0,0,1,.57,1.27,2.5,2.5,0,0,0,.07.26l.06.11a.5.5,0,0,0,.32.15c.23,0,.47,0,.66.12a4.43,4.43,0,0,1-1.27,3.07,5.93,5.93,0,0,1-3.23,2c-.36.45-1-.12-1.38.41-1.26,0-1.57,1.05-2,1.88a2.72,2.72,0,0,0-.3,1.43c.2,3-.37,5.91-.22,8.87a27,27,0,0,1-1,4.12c-.46,1.1-1.12,2.08-1.6,3.17-.17.39-.74.49-.72,1-1,.73-1.4,2.07-2.61,2.63a.88.88,0,0,0-.51.61,3.37,3.37,0,0,1-2,1.51C96.89,77,95.29,77.64,93.56,77.13Z"/><path class="cls-27" d="M52.3,69.47a19,19,0,0,0,3.48,2.21,18.9,18.9,0,0,0,3.46,1.13,9.8,9.8,0,0,0,3.13.49c.52.39,1.12.2,1.68.24,0,.15,0,.29-.07.45-.67.91-1.19,1.91-1.85,2.83a45.27,45.27,0,0,1-5.71,6.35c-.76.73-1.6,1.37-2.35,2.12a7.79,7.79,0,0,0-2,3.83,19.27,19.27,0,0,0-.45,4.47c0,.27.15.27.36.33a2.38,2.38,0,0,1,1.57.82c.81,1.19.72,2.13-.43,2.72-.76.39-1.63.92-2.56.28a3,3,0,0,1-2.22-1A.76.76,0,0,1,48,96c.08-.52-.15-1.07.22-1.59.13-.18,0-.54,0-.82,0-2.63,0-5.26,0-7.89a17.56,17.56,0,0,1,.25-2.06c0-.28.24-.39.39-.55a11.82,11.82,0,0,0,1.78-2,8.91,8.91,0,0,0,1.22-2.85c.09-.48.17-1,.25-1.45a6.8,6.8,0,0,0,.21-1.34c0-.52,0-1,0-1.56Z"/><path class="cls-27" d="M93.56,77.13c1.45-.21,2.92-.39,4.34-.74a6.39,6.39,0,0,0,1.75-.92c.28-.19.59-.31.87-.49a15.81,15.81,0,0,1-.61,2.62c-.23,1.09-.62,2.15-.81,3.25a16.65,16.65,0,0,1-.56,2.29c-.22.66.08,1.41-.42,2,0,1.17-.36,2.3-.26,3.49a17.19,17.19,0,0,1,0,2.87,8.73,8.73,0,0,0,.29,2.17c0,.29.12.76.77.77.93,0,1.47.77,1.82,1.54a1.39,1.39,0,0,1-1.09,1.75,6.38,6.38,0,0,1-2.53.25,2.78,2.78,0,0,1-1.67-1,8.82,8.82,0,0,1-1.16-3,25,25,0,0,1-.67-3.18,13.53,13.53,0,0,1-.32-2.65c.06-3,0-6,0-9a6.48,6.48,0,0,0,0-1.08C93.25,77.73,93.67,77.51,93.56,77.13Z"/><path class="cls-28" d="M115.39,45.75a1.26,1.26,0,0,1-1,.24,2.72,2.72,0,0,0-.24-.24l-.24-.24c.18-.59-.34-1.09-.24-1.67a2.31,2.31,0,0,1,1.32.28C115.7,44.33,115.78,44.92,115.39,45.75Z"/><path class="cls-29" d="M218.61,45.06h1.17c-.13.45,0,.84-.22,1.33a3.72,3.72,0,0,0-.05,1.64c0,.23,0,.37-.3.36s-.48,0-.42-.37C219,47.05,218.32,46.14,218.61,45.06Z"/><path class="cls-30" d="M218.57,50V48.91h1.12a3.33,3.33,0,0,1,.05,1.11Z"/><path class="cls-29" d="M231.54,45.08c-.15.43,0,.81-.19,1.26a4.55,4.55,0,0,0-.08,1.74c0,.28-.13.33-.36.31s-.39,0-.35-.18c.15-1.05-.48-2-.2-3.13Z"/><path class="cls-30" d="M230.3,48.89h1.16V50s-.13.07-.25.07c-.9,0-.9,0-.91-1Z"/><path class="cls-31" d="M175.87,26.35V23.72c.67,0,1.34,0,2,0a1.39,1.39,0,0,1,1.34,1.42,1.43,1.43,0,0,1-1.31,1.2C177.23,26.38,176.56,26.35,175.87,26.35Z"/><path class="cls-32" d="M291,27.61A1.72,1.72,0,0,1,290,29.48a1.78,1.78,0,0,1-2.54-1.36,7.69,7.69,0,0,1,0-1,1.8,1.8,0,0,1,3.6,0Z"/><path class="cls-33" d="M199.54,27.07c-.36,0-.72,0-1.07,0s-.38-.31-.29-.47a2.39,2.39,0,0,1,.69-1A1.4,1.4,0,0,1,201,26.71c0,.22,0,.37-.31.36S199.94,27.07,199.54,27.07Z"/><path class="cls-33" d="M344.25,27.07h-.95c-.47,0-.72-.34-.41-.63s.33-.69.79-.87a1.4,1.4,0,0,1,2,1.21c0,.17,0,.3-.26.29C345.05,27.06,344.65,27.07,344.25,27.07Z"/><path class="cls-33" d="M266.17,27.07c-.28,0-.56,0-.83,0s-.44.12-.48-.17-.1-.46.12-.53c.39-.14.25-.63.73-.8a1.42,1.42,0,0,1,2,1.21c0,.17,0,.31-.25.3C267,27.06,266.61,27.07,266.17,27.07Z"/><path class="cls-33" d="M311.33,27.07c-.35,0-.71,0-1.07,0s-.37-.31-.29-.47a2.59,2.59,0,0,1,.69-1,1.4,1.4,0,0,1,2.17,1.06c0,.23,0,.37-.3.36S311.73,27.07,311.33,27.07Z"/><path class="cls-34" d="M185.69,28c.22,0,.54-.12.66.09s.62-.08.72.32c-.42.25,0,.77-.33,1.06a1.07,1.07,0,0,1-.5.22c-.4.08-.75.36-1.2.19-.3-.12-.81-.71-.8-1a1.61,1.61,0,0,1,1-.92A3.84,3.84,0,0,1,185.69,28Z"/><path class="cls-34" d="M215.73,28c.21,0,.51-.14.64.11s.78-.06.61.31.21,1.3-.8,1.28c-.3,0-.61.27-1,.21a1.67,1.67,0,0,1-1-.91c0-.27.57-.94.89-1A4.14,4.14,0,0,1,215.73,28Z"/><path class="cls-34" d="M248.3,28c.23,0,.55-.12.66.09s.83.05.67.29.07.8-.27,1.09a1.06,1.06,0,0,1-.51.22c-.37.06-.69.33-1.09.22s-.92-.72-.9-1a1.56,1.56,0,0,1,1-.92A3.69,3.69,0,0,1,248.3,28Z"/><path class="cls-1" d="M172.51,78.33V75.22c1.06,0,2.12,0,3.18,0,.33,0,.53.24.85.28.48.06,1,.81,1,1.27s-.51,1.24-.95,1.3-.53.29-.85.28C174.66,78.32,173.6,78.33,172.51,78.33Z"/><path class="cls-35" d="M172.51,74.5V71.15c1,0,2,0,3,0a1.9,1.9,0,0,1,1.57,1.57c0,.75-.39,1.21-1.21,1.57a3,3,0,0,1-1.22.21Z"/><path class="cls-1" d="M172.51,47.91V44.08c1,0,2,0,2.94,0a2.2,2.2,0,0,1,1.74,1,2.08,2.08,0,0,1-1,2.62,3.83,3.83,0,0,1-1.34.24C174.11,47.89,173.32,47.91,172.51,47.91Z"/><path class="cls-32" d="M244.94,61.87a2.22,2.22,0,0,1,2.24-2.23,2.18,2.18,0,0,1,1.52.61,2.46,2.46,0,0,1,.78,1.66,2.5,2.5,0,0,1-.77,1.68,2.18,2.18,0,0,1-1.51.62A2.25,2.25,0,0,1,244.94,61.87Z"/><path class="cls-32" d="M204.4,102.69a2.23,2.23,0,0,1,3.78-1.7,2.37,2.37,0,0,1,.75,1.67,2.5,2.5,0,0,1-.78,1.67,2.1,2.1,0,0,1-1.4.6A2.23,2.23,0,0,1,204.4,102.69Z"/><path class="cls-32" d="M314.51,75.61a2.24,2.24,0,0,1,2.16-2.32,2.29,2.29,0,0,1,1.63.63,2.35,2.35,0,0,1,.75,1.68,2.54,2.54,0,0,1-.79,1.67,2.1,2.1,0,0,1-1.41.59A2.24,2.24,0,0,1,314.51,75.61Z"/><path class="cls-32" d="M223.35,102.59a2.23,2.23,0,0,1,3.76-1.62,2.44,2.44,0,0,1,.78,1.67,2.51,2.51,0,0,1-.78,1.68,2.15,2.15,0,0,1-1.51.61A2.24,2.24,0,0,1,223.35,102.59Z"/><path class="cls-32" d="M278.33,76a12.23,12.23,0,0,1-.71,1.74,2.34,2.34,0,0,1-1.45.84,1.68,1.68,0,0,1-1.75-.62,3.07,3.07,0,0,1,0-4c.32-.46.86-.47,1.3-.62a1.78,1.78,0,0,1,1.38.38C277.9,74.18,278.07,75.09,278.33,76Z"/><path class="cls-32" d="M212.38,73.3a2.43,2.43,0,0,1,1.86,1.19,2.69,2.69,0,0,1-.58,3.55,1.68,1.68,0,0,1-1.56.5c-.55-.18-1.36-.17-1.47-1a2.89,2.89,0,0,1,0-3.31A2.11,2.11,0,0,1,212.38,73.3Z"/><path class="cls-32" d="M380.52,103.09a2.36,2.36,0,0,1,.46-1.86,2.13,2.13,0,0,1,2.93-.44,3.32,3.32,0,0,1,1.11,2,2.81,2.81,0,0,1-.55,1.79,2,2,0,0,1-1.61,1,1.75,1.75,0,0,1-1.81-.76C380.76,104.32,380.24,103.79,380.52,103.09Z"/><path class="cls-32" d="M306.6,86.93c.48.2,1,.19,1.43.61a2.78,2.78,0,0,1-.19,4.27,2.2,2.2,0,0,1-2.52,0,2.92,2.92,0,0,1-.68-3.25,2,2,0,0,0,.24-.49.91.91,0,0,1,.62-.78C305.92,87.25,306.18,86.84,306.6,86.93Z"/><path class="cls-32" d="M302.79,103c-.24-.71.2-1.27.49-1.81a2.11,2.11,0,0,1,2.85-.45,3,3,0,0,1,1.15,2.15,2.77,2.77,0,0,1-.64,1.87,2.13,2.13,0,0,1-1.56.85,1.71,1.71,0,0,1-1.79-.8A2.13,2.13,0,0,1,302.79,103Z"/><path class="cls-32" d="M233.45,75.91a4.67,4.67,0,0,1-.54,1.84c-.2.58-.87.61-1.34.79a1.31,1.31,0,0,1-1.32-.21c-.45-.41-1.1-.69-1.13-1.41,0-.53-.65-1.06,0-1.59-.21-.84.46-1.24.95-1.63a1.73,1.73,0,0,1,1.79-.23C233.13,73.91,233.19,74.92,233.45,75.91Z"/><path class="cls-32" d="M242.31,102.92a3.7,3.7,0,0,1-.55,1.91,2,2,0,0,1-2.74.49c-.42-.36-1-.65-1-1.36,0-.53-.58-1.06,0-1.59-.18-.84.51-1.19,1-1.63a1.39,1.39,0,0,1,1.39-.35c.76.27,1.6.53,1.71,1.54C242.1,102.31,242.47,102.6,242.31,102.92Z"/><path class="cls-32" d="M176.81,103a3.18,3.18,0,0,1-.5,1.72,2,2,0,0,1-2.79.57c-.42-.36-1-.63-1-1.36,0-.53-.56-1.06,0-1.59a1.19,1.19,0,0,1,.45-1.14c1.06-1,1.44-1.06,2.82-.4a1.09,1.09,0,0,1,.64.71A3.18,3.18,0,0,1,176.81,103Z"/><path class="cls-32" d="M203.19,89.53a3.76,3.76,0,0,1-.49,1.82c-.23.61-.89.69-1.41.85a1.58,1.58,0,0,1-1.51-.38A2.73,2.73,0,0,1,198.7,90,2.59,2.59,0,0,1,201,87a2.22,2.22,0,0,1,1.89,1.48C203,88.83,203.47,89.16,203.19,89.53Z"/><path class="cls-32" d="M423.15,89.26a4.14,4.14,0,0,1-.49,2.15c-.2.58-.87.6-1.34.78A1.29,1.29,0,0,1,420,92c-.44-.42-1.09-.69-1.13-1.41,0-.53-.62-1.07,0-1.6-.2-.84.47-1.23,1-1.62a1.31,1.31,0,0,1,1.77-.18C423,87.42,422.91,88.62,423.15,89.26Z"/><path class="cls-32" d="M399.91,103a3.88,3.88,0,0,1-.5,1.82c-.21.61-.91.66-1.43.83a1.57,1.57,0,0,1-1.49-.41,4.27,4.27,0,0,1-.84-.86c-.19-.3-.09-.71-.25-1.08a2.11,2.11,0,0,1,.31-1.63,2.65,2.65,0,0,1,1.48-1.26,2.28,2.28,0,0,1,2.34,1.19A2.93,2.93,0,0,1,399.91,103Z"/><path class="cls-32" d="M348.82,103a4,4,0,0,1-.51,1.83c-.21.6-.9.66-1.43.83a1.58,1.58,0,0,1-1.49-.41,4.22,4.22,0,0,1-.83-.86c-.2-.3-.1-.71-.26-1.08a2.11,2.11,0,0,1,.31-1.63,2.65,2.65,0,0,1,1.48-1.26,2.28,2.28,0,0,1,2.34,1.19A3.05,3.05,0,0,1,348.82,103Z"/><path class="cls-32" d="M257.67,102.92a3.8,3.8,0,0,1-.56,1.91,2,2,0,0,1-2.74.49c-.42-.36-1-.65-1-1.36,0-.53-.57-1.06,0-1.59-.19-.84.51-1.19,1-1.63a1.38,1.38,0,0,1,1.39-.35c.75.27,1.6.53,1.71,1.54C257.45,102.31,257.83,102.6,257.67,102.92Z"/><path class="cls-33" d="M257.41,89.55h-3.76c.37-1.37,1.26-2.49,1.61-3.85a.22.22,0,0,1,.24-.19c.15,0,.19.08.24.2C256.28,87,256.84,88.24,257.41,89.55Z"/><path class="cls-33" d="M247.28,76.24a2,2,0,0,1-.33,1.6,2.27,2.27,0,0,1-2.25.61c-.89-.3-.86-.31-1.09-1.06-.07-.21,0-.23.09-.34a2,2,0,0,1,2.59-1C246.64,76.16,247,76,247.28,76.24Z"/><path class="cls-33" d="M238.68,75.94c.52-.16,1,.36,1.53.25.19,0,.17.21.17.36a2,2,0,0,1-2.72,1.87,1.19,1.19,0,0,1-1-1c0-.19,0-.22.07-.34A1.73,1.73,0,0,1,238.68,75.94Z"/><path class="cls-33" d="M197.42,75.94c.49-.21.93.35,1.49.25.22,0,.2.17.21.33a2,2,0,0,1-2.7,1.91c-.6-.17-.94-.36-1-1a.57.57,0,0,1,0-.34A1.8,1.8,0,0,1,197.42,75.94Z"/><path class="cls-33" d="M302.94,76.18a2.27,2.27,0,0,1-.29,1.61c-.17.47-.81.5-1.23.74a1.57,1.57,0,0,1-1.11-.08c-.57-.18-1-.34-1-1,0-.1-.11-.16,0-.34A1.86,1.86,0,0,1,301,75.92C301.64,75.85,302.23,76.25,302.94,76.18Z"/><path class="cls-33" d="M383.55,89.84a2.27,2.27,0,0,1-.29,1.61c-.17.46-.81.49-1.23.73a1.56,1.56,0,0,1-1.11-.07c-.57-.19-1-.34-1-1,0-.11-.1-.17,0-.35a1.88,1.88,0,0,1,1.66-1.17C382.25,89.5,382.83,89.9,383.55,89.84Z"/><path class="cls-33" d="M336.09,89.59c.48-.2.92.35,1.49.25.21,0,.2.17.2.33a2,2,0,0,1-2.69,1.92c-.6-.18-.95-.36-1-1,0-.13-.08-.19,0-.35A1.81,1.81,0,0,1,336.09,89.59Z"/><path class="cls-33" d="M329.11,89.59c.52-.19,1,.36,1.53.25.2,0,.18.19.18.35a2,2,0,0,1-2.7,1.89c-.63-.17-.9-.41-1-1a.52.52,0,0,1,0-.35A1.76,1.76,0,0,1,329.11,89.59Z"/><path class="cls-36" d="M356.18,102.53h-3.83a.4.4,0,0,1-.4-.6,2.79,2.79,0,0,1,1.61-1.53,1.82,1.82,0,0,1,2.2,1.51A.92.92,0,0,0,356.18,102.53Z"/><path class="cls-36" d="M443.36,89.08h-4.05A2.33,2.33,0,0,1,440.92,87a1.91,1.91,0,0,1,1.68.57C443,87.94,443,88.55,443.36,89.08Z"/><path class="cls-36" d="M293.86,89.11h-3.58c-.47,0-.63-.23-.43-.64A2.92,2.92,0,0,1,291,87.19a1.7,1.7,0,0,1,2.42.74C293.56,88.29,293.69,88.66,293.86,89.11Z"/><path class="cls-36" d="M235.05,89.11c-1.49,0-2.72,0-4,0-.41,0-.36-.29-.29-.48A2.52,2.52,0,0,1,232.4,87a1.83,1.83,0,0,1,2.21,1.51A.88.88,0,0,0,235.05,89.11Z"/><path class="cls-36" d="M296.45,102.49h-4a2.31,2.31,0,0,1,1.61-2.11,1.87,1.87,0,0,1,1.68.56A4.15,4.15,0,0,1,296.45,102.49Z"/><path class="cls-36" d="M410.13,89.08h-3.91A2.25,2.25,0,0,1,407.79,87a1.85,1.85,0,0,1,1.69.56A3.08,3.08,0,0,1,410.13,89.08Z"/><path class="cls-36" d="M184.14,102.53c-1.42,0-2.65,0-3.88,0-.26,0-.36-.09-.34-.34a2.64,2.64,0,0,1,1.72-1.82,1.86,1.86,0,0,1,1.94,1.09C183.8,101.79,183.6,102.22,184.14,102.53Z"/><path class="cls-36" d="M201.25,102.53c-1.27,0-2.5,0-3.73,0-.4,0-.37-.27-.31-.47a2.51,2.51,0,0,1,1.59-1.67,1.87,1.87,0,0,1,2.22,1.37C201.08,102,201.17,102.23,201.25,102.53Z"/><path class="cls-36" d="M249.72,102.53h-3.58c-.47,0-.63-.22-.43-.64a2.83,2.83,0,0,1,1.13-1.27,1.69,1.69,0,0,1,2.41.73C249.42,101.7,249.55,102.08,249.72,102.53Z"/><path class="cls-36" d="M264.87,102.49h-4.05a2.32,2.32,0,0,1,1.61-2.11,1.9,1.9,0,0,1,1.69.56C264.55,101.36,264.52,102,264.87,102.49Z"/><path class="cls-36" d="M184.66,75.42h-4a2.33,2.33,0,0,1,1.62-2.11,1.86,1.86,0,0,1,1.68.57C184.41,74.29,184.44,74.88,184.66,75.42Z"/><path class="cls-36" d="M368.29,89.08h-4.06A2.29,2.29,0,0,1,365.82,87a1.93,1.93,0,0,1,1.69.56C368,87.93,367.91,88.55,368.29,89.08Z"/><path class="cls-36" d="M222.37,75.46h-3.58c-.47,0-.63-.23-.43-.65a2.89,2.89,0,0,1,1.13-1.27,1.69,1.69,0,0,1,2.41.73C222.07,74.63,222.2,75,222.37,75.46Z"/><path class="cls-36" d="M374,102.53h-3.58c-.47,0-.63-.22-.43-.64a2.87,2.87,0,0,1,1.12-1.27,1.71,1.71,0,0,1,2.42.73C373.69,101.7,373.82,102.08,374,102.53Z"/><path class="cls-36" d="M333.4,102.53c-1.48,0-2.71,0-3.95,0-.41,0-.36-.29-.29-.48a2.51,2.51,0,0,1,1.6-1.66,1.81,1.81,0,0,1,2.21,1.5A.89.89,0,0,0,333.4,102.53Z"/><path class="cls-36" d="M267.55,75.46h-3.91c-.23,0-.24-.16-.23-.32a2.63,2.63,0,0,1,1.69-1.84,1.92,1.92,0,0,1,2,1.07C267.28,74.71,267.1,75.14,267.55,75.46Z"/><path class="cls-1" d="M431.1,89.66c.21.61-.29,1.14-.5,1.73s-.76.59-1.22.75a2.06,2.06,0,0,1-1.31-.11,2.13,2.13,0,0,1-1.44-1.56,3,3,0,0,1,.14-2.13A2.16,2.16,0,0,1,429.13,87a2.55,2.55,0,0,1,2,2.24C431.11,89.33,431.1,89.45,431.1,89.66Z"/><path class="cls-1" d="M204.64,49c.21.62-.27,1.16-.55,1.71a2.06,2.06,0,0,1-2.34.69,2.33,2.33,0,0,1-1.56-1.58,3.09,3.09,0,0,1,.13-2.24,2.33,2.33,0,0,1,2.39-1.34,2.67,2.67,0,0,1,1.92,2.31C204.64,48.66,204.64,48.78,204.64,49Z"/><path class="cls-1" d="M211.33,89.44c-.18-.55.31-1.07.53-1.66s.78-.58,1.23-.75a1.89,1.89,0,0,1,1.21.08c2,.62,2,3.37.83,4.6-.32.35-.76.27-1.12.48a1.41,1.41,0,0,1-1-.08A2.53,2.53,0,0,1,211.33,89.44Z"/><path class="cls-1" d="M246.62,48.15v.24c.08.07.15.17.24.24v.24c.08.07.15.17.24.24v.24c.08.07.15.17.24.24v.48a1,1,0,0,1,0,1,1.65,1.65,0,0,1-1.59.72h-6.33c-1.31,0-1.78-.82-1.2-2,1.06-2.18,2.16-4.35,3.19-6.55a1.68,1.68,0,0,1,1.85-1,2.72,2.72,0,0,1,.24.24,2.72,2.72,0,0,0,.24.24v.24c.09.07.15.17.24.24v.24c.09.07.15.17.24.24v.24c.09.07.15.17.24.24v.24c.09.07.15.17.24.24v.24c.09.07.15.16.24.23v.24c.09.08.15.17.24.24v.24c.09.08.15.17.24.24v.24c.09.08.15.17.24.24l.48,1c.08.07.15.17.24.24v.24C246.46,48,246.53,48.08,246.62,48.15Z"/><path class="cls-25" d="M247.34,51v-1c.21,0,.24.11.24.28V51Z"/><path class="cls-26" d="M243.5,42.4q-.25,0-.24-.24h.24Z"/><path class="cls-7" d="M339.7,105.16q.26,0,.24.24Q339.68,105.42,339.7,105.16Z"/><path class="cls-26" d="M244.22,43.6q-.25,0-.24-.24Q244.24,43.35,244.22,43.6Z"/><path class="cls-26" d="M244.46,44.08q-.26,0-.24-.24Q244.46,43.83,244.46,44.08Z"/><path class="cls-26" d="M244.7,44.56q-.25,0-.24-.24Q244.7,44.31,244.7,44.56Z"/><path class="cls-26" d="M244.94,45c-.17,0-.25-.07-.24-.23C244.86,44.79,244.94,44.87,244.94,45Z"/><path class="cls-26" d="M243.74,42.64q-.26,0-.24-.24Q243.76,42.39,243.74,42.64Z"/><path class="cls-26" d="M245.18,45.51q-.26,0-.24-.24A.21.21,0,0,1,245.18,45.51Z"/><path class="cls-26" d="M245.42,46q-.25,0-.24-.24A.21.21,0,0,1,245.42,46Z"/><path class="cls-26" d="M245.66,46.47q-.25,0-.24-.24A.21.21,0,0,1,245.66,46.47Z"/><path class="cls-25" d="M246.38,47.67q-.25,0-.24-.24Q246.38,47.42,246.38,47.67Z"/><path class="cls-25" d="M246.62,48.15c-.17,0-.25-.07-.24-.24Q246.62,47.9,246.62,48.15Z"/><path class="cls-25" d="M246.86,48.63q-.26,0-.24-.24Q246.86,48.38,246.86,48.63Z"/><path class="cls-25" d="M247.1,49.11q-.25,0-.24-.24Q247.1,48.86,247.1,49.11Z"/><path class="cls-25" d="M247.34,49.59q-.26,0-.24-.24Q247.34,49.34,247.34,49.59Z"/><path class="cls-26" d="M244,43.12q-.25,0-.24-.24Q244,42.86,244,43.12Z"/><path class="cls-37" d="M107,42.88V42.4c.09-.07.15-.17.24-.24,0-.25.35-.41.24-.72.08-.07.15-.16.24-.24a1,1,0,0,1,1,0l.23.24c.09.08.16.17.24.24v.24a.57.57,0,0,1,0,.72c-.1.22-.16.59-.32.64a4.51,4.51,0,0,1-1.11.08c-.07-.09-.17-.15-.24-.24h-.24Z"/><path class="cls-38" d="M108.68,41.2h-1A.6.6,0,0,1,108.68,41.2Z"/><path class="cls-39" d="M109.15,42.64v-.72Q109.65,42.28,109.15,42.64Z"/><path class="cls-40" d="M107.48,43.12q.24,0,.24.24Q107.47,43.36,107.48,43.12Z"/><path class="cls-41" d="M109.15,41.68q-.24,0-.24-.24Q109.17,41.44,109.15,41.68Z"/><path class="cls-42" d="M108.91,41.44c-.16,0-.24-.07-.23-.24C108.84,41.2,108.92,41.28,108.91,41.44Z"/><path class="cls-43" d="M107.72,41.2q0,.25-.24.24Q107.47,41.2,107.72,41.2Z"/><path class="cls-40" d="M107.24,42.16q0,.26-.24.24Q107,42.15,107.24,42.16Z"/><path class="cls-44" d="M114,45.51q.26,0,.24.24Q114,45.77,114,45.51Z"/><path class="cls-45" d="M114.19,45.75q.25,0,.24.24Q114.19,46,114.19,45.75Z"/><path class="cls-46" d="M107,42.88q.24,0,.24.24Q107,43.12,107,42.88Z"/><path class="cls-47" d="M242.14,45.06h1.39a4.51,4.51,0,0,0-.26,2.23c0,.36-.39.57-.27,1,0,.13-.24.13-.39.13s-.33,0-.31-.24v-.24a5.65,5.65,0,0,0-.23-2.27A.6.6,0,0,1,242.14,45.06Z"/><path class="cls-24" d="M243.22,50H242.1V48.92a3.4,3.4,0,0,1,1.12,0Z"/></g></g></svg>