<svg xmlns="http://www.w3.org/2000/svg" viewBox="0 0 578.16 126.24"><defs><style>.cls-1{fill:#fefdfd;}.cls-2{fill:#fefefe;}.cls-3{fill:#f8efea;}.cls-4{fill:#fbf6f3;}.cls-5{fill:#f6eae3;}.cls-6{fill:#122c70;}.cls-7{fill:#132c70;}.cls-8{fill:#132d70;}.cls-9{fill:#142d70;}.cls-10{fill:#162f71;}.cls-11{fill:#152e71;}.cls-12{fill:#183072;}.cls-13{fill:#162e71;}.cls-14{fill:#172f72;}.cls-15{fill:#142e71;}.cls-16{fill:#1b3273;}.cls-17{fill:#1f3575;}.cls-18{fill:#1c3374;}.cls-19{fill:#1e3575;}.cls-20{fill:#203675;}.cls-21{fill:#233877;}.cls-22{fill:#203575;}.cls-23{fill:#253a78;}.cls-24{fill:#7f7da0;}.cls-25{fill:#f69890;}.cls-26{fill:#070708;}.cls-27{fill:#efd0b3;}.cls-28{fill:#eaccb2;}.cls-29{fill:#f5e9e3;}.cls-30{fill:#f4e8e2;}.cls-31{fill:#efe3df;}.cls-32{fill:#f5eae3;}.cls-33{fill:#f5e9e2;}.cls-34{fill:#010101;}.cls-35{fill:#383d58;}.cls-36{fill:#333c62;}.cls-37{fill:#383842;}.cls-38{fill:#343d65;}.cls-39{fill:#3c405b;}.cls-40{fill:#2e3a68;}.cls-41{fill:#3d3f51;}.cls-42{fill:#3d4056;}.cls-43{fill:#203676;}</style></defs><g id="Layer_2" data-name="Layer 2"><g id="Layer_1-2" data-name="Layer 1"><path class="cls-1" d="M554.65,0h23.51V126.24H0V102.76a.28.28,0,0,1,.39.12,4.78,4.78,0,0,1,.46,1.73,25.33,25.33,0,0,0,21.22,20.66,31.23,31.23,0,0,0,4.54.36h524.7c7.56,0,14.11-2.53,19.32-8.11a24.6,24.6,0,0,0,6.7-14.89c.2-2.2.21-4.39.21-6.58q0-34.73,0-69.46a25.47,25.47,0,0,0-7.85-19A25.15,25.15,0,0,0,556.62.87,5.86,5.86,0,0,1,554.77.4.3.3,0,0,1,554.65,0Z"/><path class="cls-2" d="M0,23.24V0H23.27a.22.22,0,0,1,0,.32c-1.83.54-3.75.77-5.56,1.42-8.57,3.07-14,9-16.49,17.75C.85,20.72.75,22,.33,23.21A.24.24,0,0,1,0,23.24Z"/><path class="cls-3" d="M24.71,0h528.5a.31.31,0,0,1-.14.4,3,3,0,0,1-1.41.23c-.8,0-1.6,0-2.4,0H27.71A7.1,7.1,0,0,1,24.85.4.3.3,0,0,1,24.71,0Z"/><path class="cls-3" d="M0,101.09V24.91a.31.31,0,0,1,.4.14,3.66,3.66,0,0,1,.23,1.76V99.19A3.66,3.66,0,0,1,.4,101,.31.31,0,0,1,0,101.09Z"/><path class="cls-4" d="M.24,24.91H0V23.24H.24A1.24,1.24,0,0,1,.24,24.91Z"/><path class="cls-4" d="M0,101.09H.24a1.24,1.24,0,0,1,0,1.67H0Z"/><path class="cls-4" d="M24.71,0V.24a1,1,0,0,1-1.44,0V0Z"/><path class="cls-4" d="M553.21.24V0h1.44V.24A1,1,0,0,1,553.21.24Z"/><path class="cls-5" d="M553.21.24h1.44c.68-.17,1.28.24,1.94.25a9.56,9.56,0,0,1,1.74.41,22.74,22.74,0,0,1,5.92,2.22,23.54,23.54,0,0,1,4,2.69,26.2,26.2,0,0,1,2,1.8,23.41,23.41,0,0,1,3.85,5A30.65,30.65,0,0,1,576.28,17a22.16,22.16,0,0,0,.81,2.42c.24.45-.07,1,.35,1.41a12.23,12.23,0,0,0,.28,2.77,91.09,91.09,0,0,1,.19,9.49c.05,3.23,0,6.46,0,9.7V100.5c0,1-.43,2.07-.24,3.13-.46,1.23-.24,2.63-.95,3.8a12.94,12.94,0,0,1-1.42,3.85,20.6,20.6,0,0,1-2,3.59,26.85,26.85,0,0,1-4.39,4.89A29,29,0,0,1,562,124c-.6.28-1.27.4-1.86.7s-1.24.23-1.82.56c-.34.19-.87-.18-1.2.26-.76-.16-1.43.4-2.18.24a.48.48,0,0,0-.12,0h-1a.35.35,0,0,0-.11,0s-.06,0-.09.08l-.08.08-.1,0a.48.48,0,0,1-.12,0H25.45a23.8,23.8,0,0,0-3.38-.24c-.4-.5-1-.12-1.52-.38s-1.07-.09-1.53-.35a8.61,8.61,0,0,0-1.5-.44,31.57,31.57,0,0,1-4.81-2.28,23.72,23.72,0,0,1-5.84-4.69,25,25,0,0,1-3.07-4.11,30.88,30.88,0,0,1-2-4.08,23.63,23.63,0,0,1-1-3.51,12,12,0,0,1-.5-3.16V23.24a15.28,15.28,0,0,1,.65-3.68,24.83,24.83,0,0,1,2.24-5.91,22.9,22.9,0,0,1,2.69-4,24.43,24.43,0,0,1,1.8-2,27.54,27.54,0,0,1,5-3.85A24.51,24.51,0,0,1,18.8,1a13.53,13.53,0,0,1,4.47-.8H553.21Z"/><path class="cls-2" d="M84,115.94H31.68a3.24,3.24,0,0,1-1.74-.14c-.52-.31-1.12,0-1.7-.24s-1.13-.15-1.65-.35-1.07-.33-1.58-.53a16,16,0,0,1-5.9-3.72c-.49-.51-1-1-1.52-1.52a15.9,15.9,0,0,1-3.43-5.77c-.14-.38-.24-.78-.39-1.15a3,3,0,0,1-.29-.94,11,11,0,0,0-.32-1.82A71.17,71.17,0,0,1,13,91c-.06-3,0-6,0-9V64.28q0-17.83,0-35.69a3.29,3.29,0,0,1,.19-1.71c.25-.47.09-1.1.23-1.69a18.05,18.05,0,0,1,2-5.43,15,15,0,0,1,2.29-3.24l1.7-1.69a14.52,14.52,0,0,1,4.41-2.95A20.1,20.1,0,0,1,28,10.51c.58-.13,1.15-.12,1.71-.22a43.89,43.89,0,0,1,7.94-.21q48.93,0,97.86,0a4.7,4.7,0,0,1,2.09.18c.6.28,1.4-.17,2,.29a18.49,18.49,0,0,1,8.11,3.61,17.22,17.22,0,0,1,2.49,2.33,18.45,18.45,0,0,1,3.57,6.06c.41,1.16.59,2.38.95,3.55a2.88,2.88,0,0,1,0,.72q0,36.17,0,72.33a13.73,13.73,0,0,1-1.07,4.58,18.66,18.66,0,0,1-2.77,5,17.79,17.79,0,0,1-2.33,2.49,16.4,16.4,0,0,1-4.31,2.9,20.07,20.07,0,0,1-4.22,1.39,3.43,3.43,0,0,1-1.34.22c-.52-.09-.94.33-1.46.26a11.52,11.52,0,0,0-1.44,0Z"/><path class="cls-6" d="M220.7,50.54c-1.2,0-2.4,0-3.59,0a1.5,1.5,0,0,1-1.41-.89,1.47,1.47,0,0,1-.09-1.61c.9-1.69,1.71-3.44,2.56-5.16.28-.56.58-1.11.86-1.68a2.55,2.55,0,0,1,.95-1,1.31,1.31,0,0,1,1.66.12,2.78,2.78,0,0,1,.87,1.07c1.06,2.16,2.16,4.29,3.23,6.44a1.94,1.94,0,0,1-.75,2.6.89.89,0,0,1-.57.07Z"/><path class="cls-6" d="M232.47,50.54c-1.2,0-2.4-.06-3.59,0a1.8,1.8,0,0,1-1.53-2.5c.82-1.52,1.54-3.1,2.31-4.66.3-.63.63-1.26.92-1.89a3,3,0,0,1,.77-1,1.53,1.53,0,0,1,2.56.44c1.34,2.31,2.49,4.71,3.63,7.12a2,2,0,0,1-.88,2.45,1.66,1.66,0,0,1-.59,0Z"/><path class="cls-6" d="M388.88,29.7c-1.21.89-1.54.92-3.19.48a3.63,3.63,0,0,1-1.85-1.93,4,4,0,0,1,0-2.55c0-.22.18-.33.26-.49a3.28,3.28,0,0,1,1.44-1.48,3.54,3.54,0,0,1,2.27-.21,1.39,1.39,0,0,1,.85.54c.16.22.42.25.46-.12s.18-.23.34-.23h1.83c0,2.2,0,4.35,0,6.49a3.13,3.13,0,0,1-2.85,2.85,12.86,12.86,0,0,1-2.15,0,5,5,0,0,1-1.91-.56c-.23-.13-.43-.33-.14-.66s.22-.76.55-.89a1.38,1.38,0,0,1,1,.19,3.12,3.12,0,0,0,2.54,0c.45-.2.86-.39.83-1C389.24,29.92,389.43,29.63,388.88,29.7Z"/><path class="cls-6" d="M444,27.89c.48-1.41.93-2.74,1.41-4.18a5.29,5.29,0,0,0,1.19,0,.65.65,0,0,1,.79.59c.17,1,.81,1.78.79,2.79,0,.28.46.35.38.71.35-1.24.72-2.48,1-3.73.06-.23.07-.36.34-.35h1.85c-.28,1.15-.69,2.17-1,3.22a12,12,0,0,1-.53,1.81,8,8,0,0,0-.61,1.78c-.06.29-.11.41-.42.39a9.55,9.55,0,0,0-1.07,0c-.37,0-.68-.13-.66-.49s-.27-.61-.29-1a6.19,6.19,0,0,0-.45-1.24,2.25,2.25,0,0,1-.21-1.37c-.69.24-.56.84-.73,1.23a17.51,17.51,0,0,0-.74,2.33.59.59,0,0,1-.66.51l-1.42,0a6.05,6.05,0,0,0-.35-1.17c-.45-1.57-1-3.11-1.42-4.68-.11-.41-.27-.82-.42-1.26h2A28,28,0,0,1,444,27.89Z"/><path class="cls-6" d="M175.65,30.88h-1.93V21.61h1.87v3.5h3.82a11.79,11.79,0,0,0,0-1.69c0-.6,0-1.19,0-1.82h2.1v9.27h-2.09V27.09h-3.81Z"/><path class="cls-6" d="M346,23.71h1.22c.6,0,.6,0,.75.69a3.58,3.58,0,0,1,2.58-.95,3,3,0,0,1,2.1,1.18,3.08,3.08,0,0,1,.75,2.44,8.14,8.14,0,0,1-.22,1.94,3.08,3.08,0,0,1-4.31,1.8l-.79-.4s-.07,0-.19,0V33H346Z"/><path class="cls-6" d="M288.88,23.71h1.22c.6,0,.6,0,.75.69a3.59,3.59,0,0,1,2.59-.95,3,3,0,0,1,2.1,1.18,3.13,3.13,0,0,1,.74,2.44,7.23,7.23,0,0,1-.22,1.94,3.09,3.09,0,0,1-4.31,1.81c-.28-.15-.52-.45-1-.39V33h-1.89Z"/><path class="cls-6" d="M269.18,30.42V33h-1.89V23.71h1.21c.61,0,.61,0,.76.69a3.58,3.58,0,0,1,2.58-.95,3,3,0,0,1,2.1,1.17,3.06,3.06,0,0,1,.75,2.44,7.6,7.6,0,0,1-.22,1.94,3.09,3.09,0,0,1-4.3,1.82C269.88,30.68,269.64,30.4,269.18,30.42Z"/><path class="cls-6" d="M501.91,21.1h1.85v3.35c.32-.12.45-.47.63-.47s.42-.19.62-.28a2.28,2.28,0,0,1,3.17,1.14,1.33,1.33,0,0,1,.17.52v5.51h-1.92c0-1.25,0-2.52,0-3.78a2.41,2.41,0,0,0-.28-1.09,1.15,1.15,0,0,0-2.17.32,5.11,5.11,0,0,0-.21,1.22c0,1.08,0,2.16,0,3.31-.61.12-1.23,0-1.88.07Z"/><path class="cls-7" d="M301.37,31.14a3.76,3.76,0,0,1-3.85-3.89,3.84,3.84,0,0,1,4-3.8,4,4,0,0,1,3.92,3.92C305.41,29.18,303.47,31.37,301.37,31.14Z"/><path class="cls-7" d="M190.45,28h-5a1.25,1.25,0,0,0,.85,1.19c.82.42,1.22.34,2.63-.46.24.23.45.59.75.68.59.17.34.36.1.62a3.64,3.64,0,0,1-2.54,1.11,3.76,3.76,0,0,1-3.41-1.84,3.11,3.11,0,0,1-.5-2.51c.16-.55.12-1.22.57-1.67a6,6,0,0,1,1.9-1.47,3.39,3.39,0,0,1,4,1.29A5,5,0,0,1,190.45,28Z"/><path class="cls-7" d="M252.35,28c.1.77.61,1,1.14,1.25a1.19,1.19,0,0,0,1.39,0c.11-.08.27-.09.41-.17.55-.31.55-.29,1,.1a1,1,0,0,0,.47.3c.25.05.23.27.07.44a3.71,3.71,0,0,1-2.6,1.25,3.79,3.79,0,0,1-3.44-1.79,3.28,3.28,0,0,1-.55-2.62,3.58,3.58,0,0,1,2.54-3.07,3.12,3.12,0,0,1,3.91,1.23,4.38,4.38,0,0,1,.67,3.11Z"/><path class="cls-7" d="M431.53,28c-1.56,0-3.07,0-4.59,0-.43,0-.48.08-.29.46a1.86,1.86,0,0,0,2.27.85,2.9,2.9,0,0,0,1.08-.58c.36.21.53.67,1,.74.15,0,.15.26,0,.4a3.8,3.8,0,0,1-6-.49,3.81,3.81,0,0,1-.57-2.72c.44-.36,0-1,.45-1.37s.64-.71,1-1a3.32,3.32,0,0,1,5.16.87A4.53,4.53,0,0,1,431.53,28Z"/><path class="cls-7" d="M459.87,28H455s-.06,0-.15.1c0,.75.63.95,1.18,1.2s1,.21,2.34-.6a6.59,6.59,0,0,0,.63.67c.45.38.47.37.08.75a3.57,3.57,0,0,1-2.34,1,3.76,3.76,0,0,1-3.46-1.77,3.4,3.4,0,0,1-.56-2.6A4.18,4.18,0,0,1,454,24.44a3.41,3.41,0,0,1,5.69,1.44A5.59,5.59,0,0,1,459.87,28Z"/><path class="cls-7" d="M482,28H477c-.38.4.31.53.14.85a6.56,6.56,0,0,0,1.2.57c.78.2,1.36-.34,2.16-.72a2.62,2.62,0,0,1,.24.41c.14.32.67.23.67.52s-.41.7-.72.87a2.93,2.93,0,0,1-1.78.62,3.72,3.72,0,0,1-2.2-.47c-.83-.65-1.73-1.19-1.75-2.41-.61-.85-.13-1.74.07-2.53a4.07,4.07,0,0,1,3.19-2.3,3.3,3.3,0,0,1,2.9,1.33,3.84,3.84,0,0,1,.8,2.54C481.94,27.5,482,27.7,482,28Z"/><path class="cls-8" d="M216.39,30.9c-.55,0-1,0-1.5,0-.26,0-.64.22-.7-.35,0-.23-.22,0-.3.11a1.35,1.35,0,0,1-1,.48,4.54,4.54,0,0,1-1.95-.2,2.28,2.28,0,0,1-1-3.11,2.23,2.23,0,0,1,1.92-1.19,3.69,3.69,0,0,1,2.2.13c.08,0,.11.09.17,0a1,1,0,0,0-.28-1,2.66,2.66,0,0,0-2-.23,2.44,2.44,0,0,1-.52.18c-.45,0-.92.08-.78-.63-.29-.12-.12-.55-.56-.68a6.07,6.07,0,0,1,2.44-.62h1.08a2.56,2.56,0,0,1,2.62,2.12,7.25,7.25,0,0,1,.19,1.95C216.41,28.78,216.39,29.78,216.39,30.9Z"/><path class="cls-6" d="M334.14,30.9c-.51,0-1,0-1.46,0s-.42-.19-.43-.5-.22-.28-.4-.16a2.69,2.69,0,0,0-.35.33,2.31,2.31,0,0,1-3.7-.89,1,1,0,0,1-.09-.44c0-1.82,0-3.65,0-5.5h1.92c0,1.29,0,2.59,0,3.89A1.69,1.69,0,0,0,330.2,29c.44.43,1.69.25,1.76-.32a8.15,8.15,0,0,0,.32-1.56c-.06-1.08,0-2.16,0-3.33.61-.07,1.22,0,1.88,0Z"/><path class="cls-6" d="M230.54,23.72h1.92c0,1.3,0,2.6,0,3.9a1.8,1.8,0,0,0,.65,1.41c.45.41,1.68.11,1.72-.48a11.93,11.93,0,0,0,.29-1.69c-.07-1,0-2.06,0-3.12H237V30.9c-.48,0-1,0-1.43,0s-.47-.14-.44-.48-.21-.3-.4-.2-.22.22-.34.33a2.25,2.25,0,0,1-3.58-.66,1.71,1.71,0,0,1-.25-.74C230.55,27.37,230.54,25.58,230.54,23.72Z"/><path class="cls-6" d="M278.28,23.76c0,1.31,0,2.58,0,3.85a1.94,1.94,0,0,0,.55,1.34.78.78,0,0,0,.95.24c.35-.18.81-.23.94-.86a17.8,17.8,0,0,0,.2-3.25c0-.44,0-.87,0-1.33h1.87V30.9c-.48,0-1,0-1.42,0s-.48-.11-.45-.47-.19-.31-.39-.21-.23.22-.34.33a2.26,2.26,0,0,1-3.59-.65,1.67,1.67,0,0,1-.25-.74c0-1.79,0-3.58,0-5.41Z"/><path class="cls-6" d="M402.79,23.75h1.92c0,1.29,0,2.56,0,3.83a2,2,0,0,0,.52,1.34.81.81,0,0,0,1,.25c.32-.18.75-.23.86-.81a16.1,16.1,0,0,0,.21-3.25V23.76h1.84l0,0a.21.21,0,0,1,0,.11v7c-.54,0-1,0-1.56,0s-.34-.18-.37-.43-.25-.41-.44-.2a2.36,2.36,0,0,1-2,.88,2.31,2.31,0,0,1-2.06-2.08C402.8,27.33,402.79,25.57,402.79,23.75Z"/><path class="cls-6" d="M361.49,30.9c-.52,0-1,0-1.46,0s-.42-.19-.43-.5-.22-.28-.4-.16a2.18,2.18,0,0,0-.35.33,2.31,2.31,0,0,1-3.7-.89,1.17,1.17,0,0,1-.1-.44v-5.5H357c0,1.29,0,2.59,0,3.89a1.69,1.69,0,0,0,.58,1.32c.44.43,1.69.25,1.76-.32a8.31,8.31,0,0,0,.32-1.56c-.06-1.08,0-2.16,0-3.31.6-.13,1.23,0,1.88-.08Z"/><path class="cls-6" d="M199.6,30.87h-1.89V23.71a9,9,0,0,0,1.37,0c.6-.09.51.3.54.77.24-.2.41-.47.6-.49s.42-.2.61-.28a2.24,2.24,0,0,1,3.1,1.06,1.4,1.4,0,0,1,.23.62c0,1.83,0,3.65,0,5.5h-1.92c0-1.28,0-2.54,0-3.81a1.79,1.79,0,0,0-.51-1.34,1.1,1.1,0,0,0-1.87.38,4,4,0,0,0-.29,1.33C199.65,28.55,199.6,29.67,199.6,30.87Z"/><path class="cls-6" d="M224.07,30.87h-1.89V23.71h1.37c.46,0,.46,0,.56.74.22-.19.39-.46.58-.48s.42-.2.61-.28a2.24,2.24,0,0,1,3.1,1.06,1.4,1.4,0,0,1,.23.62c0,1.83,0,3.65,0,5.49h-1.84a6.5,6.5,0,0,1-.08-1.76q0-1.08,0-2.16a1.68,1.68,0,0,0-.51-1.22,1.1,1.1,0,0,0-1.87.38,4,4,0,0,0-.29,1.33C224.12,28.55,224.07,29.67,224.07,30.87Z"/><path class="cls-6" d="M375.71,30.86V23.71H377c.54,0,.54,0,.66.7a3.62,3.62,0,0,1,2.44-1,2.34,2.34,0,0,1,2.06,2.09c0,1.75,0,3.5,0,5.3h-1.92c0-1.28,0-2.55,0-3.82a2.18,2.18,0,0,0-.39-1.16,1.07,1.07,0,0,0-1.23-.47c-.46.08-.64.44-.82.86a3.15,3.15,0,0,0-.22,1.34v3.26Z"/><path class="cls-6" d="M434.94,30.87h-1.87V23.71h1.3c.51,0,.51,0,.64.69a3.85,3.85,0,0,1,2.46-1,2.41,2.41,0,0,1,2,2c0,.12,0,.24,0,.36v5.05h-1.89a15.6,15.6,0,0,1,0-1.82c0-.64,0-1.27,0-1.91a1.54,1.54,0,0,0-.18-.89c-.47-.76-.6-.93-1.32-.84s-.79.42-.94,1a4.61,4.61,0,0,0-.19,1.11Z"/><path class="cls-8" d="M423.05,24.58c-.41.52-.41,1.27-.88,1.39s-.93-.26-1.37-.47a1.36,1.36,0,0,0-.44-.11.64.64,0,0,0-.76.4c-.09.3.19.46.46.56a18.28,18.28,0,0,1,2.12.95,1.79,1.79,0,0,1,1,1.76,1.82,1.82,0,0,1-1,1.63,3.21,3.21,0,0,1-1.85.46,2.54,2.54,0,0,1-1.75-.42c-.25-.2-.61-.26-.89-.44a.54.54,0,0,1-.14-.8c.11-.16.35-.29.36-.44a.36.36,0,0,1,.6-.28c.39.34.91.34,1.33.58a1.72,1.72,0,0,0,1,.09c.15,0,.34-.21.41-.37s-.1-.39-.26-.47a6,6,0,0,0-1.44-.55,2.67,2.67,0,0,1-1.74-1.25,1.85,1.85,0,0,1,0-1.67,2.15,2.15,0,0,1,2-1.39,2.76,2.76,0,0,1,1.72.13C422,24.13,422.49,24.32,423.05,24.58Z"/><path class="cls-8" d="M416.23,24.59c.06.3-.21.47-.31.71-.29.73-.31.65-1.23.39a3.35,3.35,0,0,0-1.08-.31.79.79,0,0,0-.63.24c-.15.2-.17.36,0,.5a2,2,0,0,0,.76.45,5.47,5.47,0,0,1,1.73.75,1.86,1.86,0,0,1,.46,3,2.87,2.87,0,0,1-1.92.85,4.54,4.54,0,0,1-2.82-.73c-.62-.4-.71-.54-.18-1.12.16-.18,0-.59.44-.58.27,0,.42.17.62.25a4.3,4.3,0,0,0,1.72.48,1.27,1.27,0,0,0,.44-.07.4.4,0,0,0,.08-.74,4.16,4.16,0,0,0-1.54-.6,3.43,3.43,0,0,1-1.74-1.26,2.7,2.7,0,0,1,.23-2.09,2.47,2.47,0,0,1,2-1C414.51,23.7,414.51,23.68,416.23,24.59Z"/><path class="cls-8" d="M489.81,31.14c-.9.28-1.63-.44-2.46-.75-.42-.15-.46-.58-.19-1,.09-.13.29-.23.3-.35.06-.57.45-.38.67-.25a5.72,5.72,0,0,0,1.24.49c.07,0,.11.12.18.14.48.11,1.17-.08,1.28-.35s-.29-.67-.94-.83a3.6,3.6,0,0,1-2.09-1c-.21-.26-.6-.39-.57-.84a2.9,2.9,0,0,1,.29-1.67,2.5,2.5,0,0,1,2-1,3.07,3.07,0,0,1,2,.31c.33.23,1,.26,1,.61s-.37.86-.6,1.28c-.07.14-.15.17-.34.06a10.21,10.21,0,0,0-1.22-.53,1.16,1.16,0,0,0-.8,0,.53.53,0,0,0-.35.44.39.39,0,0,0,.26.36c.64.3,1.28.58,1.93.83a2.48,2.48,0,0,1,.48.27,1.94,1.94,0,0,1,0,3.33A3.52,3.52,0,0,1,489.81,31.14Z"/><path class="cls-8" d="M311.87,24.58c.06.3-.21.48-.3.72-.29.73-.32.67-1.24.39a3.87,3.87,0,0,0-.95-.29.74.74,0,0,0-.75.22c-.14.19-.18.35,0,.49s.5.44.76.46a5.55,5.55,0,0,1,1.73.74,1.89,1.89,0,0,1,.39,3.08,3.22,3.22,0,0,1-1.84.77,5.08,5.08,0,0,1-2.93-.74c-.49-.26-.53-.57-.19-1,.07-.09.23-.16.24-.26.08-.59.46-.43.73-.25a5.88,5.88,0,0,0,1.24.48c.68.27,1.42.09,1.4-.3,0-.58-.59-.63-1-.77a4,4,0,0,1-2.07-1.06c-.22-.26-.56-.41-.53-.86a2.63,2.63,0,0,1,.34-1.65,2.69,2.69,0,0,1,2-1A4.59,4.59,0,0,1,311.87,24.58Z"/><path class="cls-8" d="M289.12,68.55c1.07,0,1.08,0,1.59.76.75,1.16,1.49,2.33,2.2,3.52.18.31.32.32.48.08.82-1.22,1.63-2.43,2.4-3.68.34-.57.72-.88,1.42-.66v8.48c-.26.16-.55,0-.9.09V70.28c-1.11,1.52-2.06,2.87-2.92,4.29-.16.27-.29.25-.48,0-.89-1.39-1.81-2.75-2.86-4.34v6.92h-.93Z"/><path class="cls-8" d="M522.74,23.05c-.48-.12-.76-.4-1.13-.29s-.57.23-.55.62c0,.16,0,.33.22.33h1.44v1.67h-1.65v5.48H519c-.17-.28-.05-.64-.07-1s0-.72,0-1.08c0-1,0-2,0-3,0-.18.08-.44-.24-.41s-.52-.06-.48-.45a7.53,7.53,0,0,0,0-.95c0-.19.07-.31.27-.28.37.05.48-.1.46-.46A2.09,2.09,0,0,1,520,21.33c.16-.11.26-.27.5-.26.56,0,1.11,0,1.67,0a.55.55,0,0,1,.6.57C522.77,22.08,522.74,22.51,522.74,23.05Z"/><path class="cls-8" d="M340.42,21.83h2.14V23.7h1.67v1.65h-1.59a9.32,9.32,0,0,0-.06,1.66c0,.55,0,1.11,0,1.67a.67.67,0,0,0,1.06.49c.55-.31.5.06.6.3a1.53,1.53,0,0,1,0,.48,1,1,0,0,1-1.07,1.19c-.24,0-.48,0-.72,0a1.73,1.73,0,0,1-1.47-.49,3,3,0,0,1-.58-1.56V25.75c0-.16,0-.38-.19-.35-.57.1-.55-.24-.53-.62s0-.56,0-.84.08-.24.2-.22c.6.13.52-.28.52-.63Z"/><path class="cls-8" d="M397.52,21.83h2.14V23.7h1.67v1.65h-1.59a7.69,7.69,0,0,0-.06,1.65,15.69,15.69,0,0,0,0,1.68c0,.45.37.78,1.06.48s.51.07.6.31a1.28,1.28,0,0,1,0,.48,1,1,0,0,1-1.07,1.19c-.23,0-.48,0-.71,0a1.73,1.73,0,0,1-1.47-.49,3,3,0,0,1-.58-1.56c0-1.11,0-2.22,0-3.34,0-.15,0-.38-.19-.35-.57.1-.56-.24-.54-.62a7.85,7.85,0,0,0,0-.84c0-.14.08-.24.21-.22.6.13.52-.28.52-.63S397.52,22.3,397.52,21.83Z"/><path class="cls-8" d="M497.55,31.14c-1.51.23-3-1.09-3.62-2.73a4,4,0,0,1,2.47-4.82,3.61,3.61,0,0,1,3.2.4c.27.19.85.26.77.56a1.83,1.83,0,0,1-.62.94c-.44.38-.4.38-1,0a1.62,1.62,0,0,0-1.8-.15,1.71,1.71,0,0,0-1.05,1.71,2.59,2.59,0,0,0,.13,1.25,1.7,1.7,0,0,0,2.79.69c.39-.3.58-.32.85,0l.08.09c.91.87.91.87-.24,1.52A2.63,2.63,0,0,1,497.55,31.14Z"/><path class="cls-8" d="M242.32,23.45a3.32,3.32,0,0,1,2.34.74c.44.34.53.5.23.88a8.61,8.61,0,0,1-.67.68c-.18.18-.37.18-.49,0a1.41,1.41,0,0,0-.85-.55,1.86,1.86,0,0,0-2.26,1.68c0,.24,0,.48,0,.72a1.79,1.79,0,0,0,1,1.66,1.67,1.67,0,0,0,1.9-.15c.56-.36.55-.37,1,.07.88.85.86.82-.29,1.51a3.74,3.74,0,0,1-5.52-2.18,4,4,0,0,1,2.46-4.94A4.87,4.87,0,0,1,242.32,23.45Z"/><path class="cls-7" d="M471.05,30.9h-1c-.87,0-1.07-.12-1.31-.95a38.08,38.08,0,0,0-1.59-4.12c-.29-.66-.5-1.36-.78-2.12h1.05c1.18,0,1.28,0,1.52,1.08s.86,2.28,1.06,3.5c.55-.28.42-.84.63-1.23a11.08,11.08,0,0,0,.61-1.9c.15-.46.15-1.09.46-1.33s1.06-.1,1.61-.11.63.24.39.65a9.32,9.32,0,0,0-.5,1.23,39.45,39.45,0,0,0-1.6,4.12A7.93,7.93,0,0,1,471.05,30.9Z"/><path class="cls-8" d="M172.75,77.13V68.51c1.47,0,2.93,0,4.39,0a2.61,2.61,0,0,1,2.07,1.69,2.1,2.1,0,0,1-1.2,2.48c.3.42.83.52,1.16.91a1.89,1.89,0,0,1-.37,2.88,2.8,2.8,0,0,1-1.88.65Z"/><path class="cls-8" d="M325.24,21.33c.1.11.24.25.36.41.57.73.58.76-.09,1.4a5.62,5.62,0,0,0-1.72,2.65,4.9,4.9,0,0,0,1,4.46c.39.45.83.85,1.24,1.26-.14.52-.35,1.08-.81,1.21s-.73-.4-1.1-.62a7,7,0,0,1-2.41-3c.11-1.05-.7-2.1,0-3.15a2.34,2.34,0,0,1,.28-1.44A7,7,0,0,1,325.24,21.33Z"/><path class="cls-8" d="M524.29,32.82c-.16-.16-.42-.31-.47-.51-.09-.37-.53-.54-.55-.83s.48-.31.72-.5A4.63,4.63,0,0,0,525.82,28a4.71,4.71,0,0,0-2.38-5.18,2.65,2.65,0,0,1-.22-.23c.4-.23.46-.72.8-1,.15-.14.21-.25.52-.09a5.66,5.66,0,0,1,3.12,3.7c.21.86.75,1.79.14,2.76-.17.27,0,.66-.12,1a6,6,0,0,1-3.11,3.59A1.49,1.49,0,0,0,524.29,32.82Z"/><path class="cls-9" d="M173.71,46.71V50a1.51,1.51,0,0,1-1,0V41.44c1.48,0,2.95,0,4.42,0a2.61,2.61,0,0,1,2.28,2.46,2.38,2.38,0,0,1-2.13,2.65c.16.7.83,1,1.16,1.65a9.49,9.49,0,0,0,.72,1c.18.23.63.35.44.74s-1.11.12-1.28-.16c-.59-1-1.41-1.8-2-2.77-.15-.25-.23-.33-.47-.33Z"/><path class="cls-10" d="M425.82,84.32c0,1.67.06,3.22,0,4.77a3.26,3.26,0,0,1-.89,2.49,3.22,3.22,0,0,1-2.15.9A6.18,6.18,0,0,1,420,92c-.32-.15-.36-.47-.15-.8.11-.17.29-.22.38-.12.45.5,1.11.48,1.66.62a2.38,2.38,0,0,0,2.43-.67.91.91,0,0,0,.34-.82.82.82,0,0,1,.22-.75.51.51,0,0,0-.08-.56c-.38.26-.67.6-1.07.84a3.28,3.28,0,0,1-2.13.33,2.83,2.83,0,0,1-1.53-.9,2.35,2.35,0,0,1-.7-1.6,3.06,3.06,0,0,1,.71-2.47,4.13,4.13,0,0,1,1.88-1,3.52,3.52,0,0,1,2.42.83c.16.1.29.19.26-.06-.05-.46.13-.57.54-.51C425.34,84.34,425.54,84.32,425.82,84.32Z"/><path class="cls-10" d="M518.42,88.84c-2,1.77-3.37,1.52-4.8.33a2.25,2.25,0,0,1-.72-1.48,3.1,3.1,0,0,1,.74-2.67,2.67,2.67,0,0,1,2.19-1c.73.07.73,0,2.23,1,.25-.17,0-.51.18-.64s.69-.05,1.14-.09c0,1.2,0,2.38,0,3.56a9.44,9.44,0,0,1-.21,2.42A2.7,2.7,0,0,1,518,92a3.82,3.82,0,0,1-2,.5,5.61,5.61,0,0,1-2.53-.56c-.29-.14-.21-.34-.1-.62s.2-.36.48-.19a4.93,4.93,0,0,0,2.25.62,2.29,2.29,0,0,0,1.91-.88c0-.06.17-.13.16-.17C518,90.08,518.46,89.52,518.42,88.84Z"/><path class="cls-10" d="M347.62,57.49c0,1.66.05,3.22,0,4.76a3.3,3.3,0,0,1-1,2.58,3.21,3.21,0,0,1-2.06.82,6.18,6.18,0,0,1-2.79-.5c-.33-.15-.36-.45-.16-.79.11-.18.28-.23.38-.13.43.45,1,.4,1.56.57a2.4,2.4,0,0,0,2.53-.61c.24-.24.45-.48.33-.82s.55-.82.15-1.31c-.37.25-.67.58-1.06.82a3.28,3.28,0,0,1-2.13.34,2.69,2.69,0,0,1-1.53-.89,2.31,2.31,0,0,1-.71-1.6,3.06,3.06,0,0,1,.71-2.47,4.15,4.15,0,0,1,1.88-1,3.57,3.57,0,0,1,2.42.83c.14.09.29.21.26-.06,0-.43.1-.58.53-.51A5.22,5.22,0,0,0,347.62,57.49Z"/><path class="cls-10" d="M250.35,62.06c-1.6,1.56-3.1,1.61-4.65.35a3.1,3.1,0,0,1,2-5.19c1-.09,1.68.56,2.47,1,.18-.17,0-.44.11-.55.31-.31.73-.1,1.19-.16,0,1.75.07,3.45,0,5.15a3.05,3.05,0,0,1-.54,1.79,3.66,3.66,0,0,1-1.58,1.1c-.06,0-.12.11-.19.11a6.92,6.92,0,0,1-3.51-.48c-.3-.16-.35-.36-.16-.7s.28-.35.41-.21a3,3,0,0,0,1.66.62,2.44,2.44,0,0,0,2.6-.85.53.53,0,0,0,.16-.42,1.76,1.76,0,0,1,.22-1.1A.34.34,0,0,0,250.35,62.06Z"/><path class="cls-10" d="M432.29,102.54c-2.05,1.72-3.32,1.47-4.78.31a2.19,2.19,0,0,1-.72-1.48,3,3,0,0,1,.72-2.68,3.11,3.11,0,0,1,2.17-1c1,0,1.52.59,2.28,1,.32-.1-.16-.65.33-.68.28,0,.56,0,.91,0a6.83,6.83,0,0,1,.06,1.5c0,1-.06,1.92,0,2.87a5.81,5.81,0,0,1-.3,1.92,2.5,2.5,0,0,1-2,1.8,5.16,5.16,0,0,1-3.6-.46c-.24-.14-.28-.28-.12-.61s.24-.33.56-.17a4.49,4.49,0,0,0,2.15.58,2.44,2.44,0,0,0,1.92-.87c.07-.09.21-.21.19-.27C431.88,103.67,432.36,103.16,432.29,102.54Z"/><path class="cls-10" d="M223.56,98.68c.06-.37-.12-.79.44-.71a6.9,6.9,0,0,0,.79,0c0,1.74,0,3.45,0,5.15a3.54,3.54,0,0,1-.5,1.68,2.33,2.33,0,0,1-1.55,1.13c-.1,0-.19.18-.28.18a7,7,0,0,1-3.51-.47c-.32-.16-.34-.37-.15-.71s.28-.34.4-.2c.45.5,1.12.48,1.66.61a2.42,2.42,0,0,0,2.6-.86c.07-.09.18-.14.16-.29a2.87,2.87,0,0,1,.33-1.54c-.36-.16-.42.11-.53.2a3.22,3.22,0,0,1-1.92.88,2.9,2.9,0,0,1-2-.62,3,3,0,0,1,1.47-5.38,2.36,2.36,0,0,1,2,.64C223.06,98.52,223.31,98.56,223.56,98.68Z"/><path class="cls-10" d="M319.45,71.75c.16-.86.16-.86,1.3-.77,0,1.66.08,3.33,0,5a2.9,2.9,0,0,1-2.08,2.91c-.07,0-.11.16-.17.16a6.58,6.58,0,0,1-3.71-.57c-.42-.25,0-.43,0-.64s.21-.25.41-.16a4.27,4.27,0,0,0,2.36.65,2.38,2.38,0,0,0,1.72-.76c.2-.22.38-.43.29-.72-.15-.48.44-.83.15-1.41a5.58,5.58,0,0,1-.55.54,3,3,0,0,1-4.89-2.13,2.65,2.65,0,0,1,.75-2.2,2.6,2.6,0,0,1,1.79-1,2.44,2.44,0,0,1,2.13.67C319,71.47,319.33,71.38,319.45,71.75Z"/><path class="cls-11" d="M196.72,90.52h-1c0-1.4,0-2.79,0-4.17a1.52,1.52,0,0,0-1.92-1.53,1.31,1.31,0,0,0-1,.81,4.89,4.89,0,0,0-.43,1.73c0,1,0,2.06,0,3.08-.28.2-.56.07-.83.11a.32.32,0,0,1-.13-.3c0-1.28,0-2.55,0-3.83A1.51,1.51,0,0,0,189.08,85a1,1,0,0,0-.53.53,4.09,4.09,0,0,0-.47,1.84c0,1,0,2.06,0,3.12h-.91V84.38c.86,0,.86,0,1,.62,1.81-1.49,2.91-1.16,4.12.28.2-.2.4-.39.59-.59a2.44,2.44,0,0,1,3.77.62,1.18,1.18,0,0,1,.07.69C196.72,87.48,196.72,89,196.72,90.52Z"/><path class="cls-11" d="M363,90.53h-.92v-6.1c.86-.13.86-.13.95.62a7.62,7.62,0,0,1,.59-.49,2.26,2.26,0,0,1,3.26.4l.32.32.53-.53c1-1,2.17-.79,3.34-.16.07.49.62.72.59,1.33-.07,1.5,0,3,0,4.55a1.57,1.57,0,0,1-1,0c0-1.36,0-2.71,0-4.06A1.51,1.51,0,0,0,368.29,85a1,1,0,0,0-.54.53,4.36,4.36,0,0,0-.47,1.84c0,1,0,2,0,3,0,0,0,.07-.06.11a2,2,0,0,1-.9,0c0-1.34,0-2.68,0-4a2.35,2.35,0,0,0-.18-.88,1.33,1.33,0,0,0-1.35-.82,1.23,1.23,0,0,0-1.36.78,4.38,4.38,0,0,0-.47,1.72C363,88.35,363,89.39,363,90.53Z"/><path class="cls-11" d="M219.55,84.36c.86,0,.86,0,1,.65,1.71-1.44,2.76-1.25,4.12.26l.51-.51a2.22,2.22,0,0,1,1.39-.7,4.09,4.09,0,0,1,1.95.52c.06.5.63.72.6,1.32-.07,1.51,0,3,0,4.55a1.39,1.39,0,0,1-.95,0c0-1.39,0-2.78,0-4.16a1.51,1.51,0,0,0-1.94-1.5,1.25,1.25,0,0,0-1,.81,5.23,5.23,0,0,0-.43,1.74c0,1,0,2.06,0,3.06-.3.2-.58,0-1,.18v-2.3c0-.68,0-1.36,0-2a1.55,1.55,0,0,0-1.15-1.48,1.58,1.58,0,0,0-1.77.89,3.47,3.47,0,0,0-.44,1.61c0,1.07,0,2.13,0,3.22h-.92Z"/><path class="cls-11" d="M409.87,98.93l.54-.54c1-1,2.2-.75,3.34-.13.08.49.61.72.58,1.33-.07,1.5,0,3,0,4.51-.29.19-.57.07-.84.1a.31.31,0,0,1-.12-.3c0-1.28,0-2.55,0-3.83A1.55,1.55,0,0,0,411,98.68a1.14,1.14,0,0,0-.52.54,4.36,4.36,0,0,0-.47,1.84c0,1,0,2.06,0,3.11h-1c0-1.38,0-2.76,0-4.14a1.36,1.36,0,0,0-.9-1.42,1.46,1.46,0,0,0-2,.75,3.63,3.63,0,0,0-.43,1.63c0,1,0,2.07,0,3.11a1.34,1.34,0,0,1-.93.05V98.06c.19-.18.44,0,.66-.08s.28.08.27.27-.09.57.39.22.87-.83,1.6-.76a2.31,2.31,0,0,1,1.65.66C409.47,98.55,409.65,98.71,409.87,98.93Z"/><path class="cls-11" d="M402.79,104.18h-1c0-1.41,0-2.8,0-4.18a1.51,1.51,0,0,0-1.93-1.52,1.26,1.26,0,0,0-1,.8,4.8,4.8,0,0,0-.44,1.73c0,1,0,2,0,3a.27.27,0,0,1,0,.12c-.24.17-.53,0-.79.08a.3.3,0,0,1-.14-.3c0-1.27,0-2.55,0-3.82a1.51,1.51,0,0,0-2.36-1.4.94.94,0,0,0-.53.54,4.32,4.32,0,0,0-.47,1.84c0,1,0,2,0,3.11h-.91V98c.85,0,.85,0,1,.62,1.8-1.49,2.9-1.16,4.11.28.2-.2.41-.38.6-.59a2.45,2.45,0,0,1,3.77.63,1.26,1.26,0,0,1,.07.69C402.8,101.13,402.79,102.61,402.79,104.18Z"/><path class="cls-12" d="M216.59,77.13c-.19,0-.34,0-.49,0-.61,0-.61,0-.76-.68a3.61,3.61,0,0,1-2.1.93,2.91,2.91,0,0,1-2.32-1,3.61,3.61,0,0,1,0-4.61,2.81,2.81,0,0,1,4.16-.32c.09.06.16.14.35.3V68.29h1.16Z"/><path class="cls-12" d="M286.9,85.13v-3.4h1.2v8.73c-.21.17-.46,0-.68.09-.6.13-.53-.28-.47-.74a4.53,4.53,0,0,1-2.15,1,3,3,0,0,1-2.58-1.26,3.63,3.63,0,0,1,.06-4.27C283.38,83.93,285.06,83.45,286.9,85.13Z"/><path class="cls-12" d="M279,71.51V68.34a3.42,3.42,0,0,1,1.16-.06v8.78c-.1.15-.31.07-.5.07-.6,0-.6,0-.75-.69a3.56,3.56,0,0,1-2.1.94,2.94,2.94,0,0,1-2.32-1,3.62,3.62,0,0,1,0-4.62,2.81,2.81,0,0,1,4.07-.39c.11.08.15.26.23.39Z"/><path class="cls-11" d="M183.64,98a4.54,4.54,0,0,0,.64,0c.38,0,.37.16.47.46.44,1.44,1,2.86,1.5,4.41.48-1.4.94-2.7,1.33-4,.06-.23.25-.38.27-.61,0-.41.34-.21.54-.24s.34,0,.43.24c.27.88.71,1.72.91,2.61a13.07,13.07,0,0,1,.69,1.94c.34-1,.71-2,1-3,.08-.29.22-.55.29-.85.22-1,.26-1,1.35-.89-.54,1.52-1.13,3-1.59,4.56-.15.5-.59.88-.53,1.47,0,.2-.33.12-.51.13a.56.56,0,0,1-.67-.5,8.1,8.1,0,0,0-.42-1.26c-.3-.83-.53-1.69-.77-2.55,0-.13-.07-.22-.19-.24s-.25.06-.31.25a26.69,26.69,0,0,1-1.39,4c-.19.39-.37.29-.6.33s-.32-.16-.44-.36a4.7,4.7,0,0,1-.42-1.15A42.11,42.11,0,0,1,183.64,98Z"/><path class="cls-11" d="M513.39,33.06v-.67c0-.71,0-.71.75-1a.67.67,0,0,0,.45-.72c0-1.87,0-3.74,0-5.61V23.74h2.16v3.32c0,1.27,0,2.54,0,3.82a2.72,2.72,0,0,1-.19.87,1.93,1.93,0,0,1-2,1.3C514.23,33.08,513.87,33.06,513.39,33.06Z"/><path class="cls-13" d="M367.56,21.1h2.09v9.78c-.65.05-1.35,0-2.09,0Z"/><path class="cls-13" d="M284.8,21.1h2.08v9.75c-.65.15-1.35,0-2.08.08Z"/><path class="cls-13" d="M483.44,21.1h2.08v9.78c-.65.05-1.35,0-2.08,0Z"/><path class="cls-13" d="M248.74,30.88h-2.08V21.13c.64-.14,1.35,0,2.08-.08Z"/><path class="cls-10" d="M344.55,89.56c-.08,1-.08,1-1,1V81.75c.24-.14.52,0,.91-.08v3.57c.49-.13.76-.52,1.1-.76,1.92-1.32,4.49.64,4.44,2.66A3.67,3.67,0,0,1,349,90a3.13,3.13,0,0,1-3.29.5A9.56,9.56,0,0,1,344.55,89.56Z"/><path class="cls-10" d="M228.9,68.29h.92V71.9c.47-.29.74-.65,1.16-.86a2.84,2.84,0,0,1,4,1.22A3.94,3.94,0,0,1,235.3,75a2.76,2.76,0,0,1-1.05,1.7,3.26,3.26,0,0,1-3.2.48c-.48-.23-.68-.73-1.14-.94-.19.25,0,.54-.14.86-.22.15-.53.06-.87,0Z"/><path class="cls-10" d="M323.9,89.51v2.83a1.39,1.39,0,0,1-1,.09v-8c.24-.25.56,0,.93-.16v1c.47-.19.58-.74,1.09-.73a2.73,2.73,0,0,1,3.75.67,3.62,3.62,0,0,1-.1,4.52,2.81,2.81,0,0,1-4.24.23C324.23,89.85,324.11,89.71,323.9,89.51Z"/><path class="cls-10" d="M255,103.08v3h-.9V98c.24-.14.52,0,.8-.06.25.25,0,.61.14.87.07.09.11.06.19,0a3,3,0,0,1,2.17-1.1,2.9,2.9,0,0,1,2.33,1,3.63,3.63,0,0,1,0,4.7,2.81,2.81,0,0,1-4.24.13C255.35,103.47,255.25,103.35,255,103.08Z"/><path class="cls-10" d="M199.83,89.41v3h-1V84.36h.88c.23.22,0,.58.13.85.06.08.1.05.17,0a3.06,3.06,0,0,1,2.18-1.11,2.94,2.94,0,0,1,2.32,1,3.62,3.62,0,0,1,0,4.7,2.81,2.81,0,0,1-4.24.13A6.17,6.17,0,0,1,199.83,89.41Z"/><path class="cls-10" d="M438.58,84.35h.83c.19.27,0,.61.12.94.44-.27.7-.63,1.12-.83a2.85,2.85,0,0,1,4,1.22,4.13,4.13,0,0,1,.35,2.7,2.4,2.4,0,0,1-.79,1.45A2.84,2.84,0,0,1,440,90c-.14-.12-.26-.26-.39-.39-.06.06-.11.09-.11.12,0,.87,0,1.75,0,2.63-.27.22-.58.11-.92.1Z"/><path class="cls-11" d="M175.32,90.79a4.65,4.65,0,0,1-3-1,.25.25,0,0,1-.05-.4c.1-.13.24-.22.33-.35s.28-.15.43,0,.76.37,1,.74c.53-.17.95.22,1.45.27a3.65,3.65,0,0,0,1.34-.3c.68-.19.87-1.4.46-2a2.26,2.26,0,0,0-1.46-.81c-.44-.09-.89-.22-1.33-.31a2.34,2.34,0,0,1-1.82-3.27,2.73,2.73,0,0,1,2.4-1.5,4.87,4.87,0,0,1,2.68.48c.57.33.58.44.11.94-.19.2-.26.24-.52,0a3.42,3.42,0,0,0-2.21-.73,2.22,2.22,0,0,0-1.7,1.08c-.31.4.22,1.39.78,1.56.82.24,1.65.44,2.45.73s1.63.72,1.78,1.74c.61.5,0,1-.06,1.47a1.51,1.51,0,0,1-.91,1.1,3,3,0,0,1-1.72.47A3.71,3.71,0,0,0,175.32,90.79Z"/><path class="cls-7" d="M211.86,55.81v3.12h4.45c.27,0,.33.11.33.36s0,.37-.31.37h-4.46V63h2.2c.88,0,1.76,0,2.64,0,.31,0,.42.08.41.4s-.1.33-.35.33H210.9V55.1h6c.24,0,.24.15.24.31s.06.42-.26.42h-5Z"/><path class="cls-7" d="M173.71,59.65V63c1.66,0,3.29,0,4.92,0,.39,0,.33.22.34.46s-.21.27-.4.27h-5.8V55.17c.23-.19.56-.06.86-.07h4.92c.27,0,.47,0,.42.37,0,.16,0,.34-.2.35h-5.05v3.12h3.79a4,4,0,0,0,.6,0c.33,0,.39.13.38.42s-.13.31-.36.31h-4.42Z"/><path class="cls-7" d="M461.37,23.74h1.78c.21.28,0,.63.22,1.12l.56-.74a1.44,1.44,0,0,1,1.64-.61c.16.25.07.53.07.8,0,1,0,1.13-.92,1.29a1.38,1.38,0,0,0-1.19,1.21,5.39,5.39,0,0,0-.3,1.93,13.74,13.74,0,0,1,0,2s0,.06-.09.11h-1.78Z"/><path class="cls-7" d="M192,23.74h1.79c.22.29-.05.64.27,1,.17-.22.35-.43.5-.64a1.44,1.44,0,0,1,1.68-.58v1.83c-.44-.11-.82.19-1.24.31a1.31,1.31,0,0,0-.85,1.26c0,.43-.34.68-.28,1.1a9.43,9.43,0,0,1,0,1.19v1.65c-.61.07-1.23,0-1.88,0Z"/><path class="cls-11" d="M260.33,89.51a5.43,5.43,0,0,1-4.49,1.26,2.42,2.42,0,0,1-1.29-.59c-1.24-.78-1.53-1.37-2-3A2.21,2.21,0,0,1,252.4,86a8.53,8.53,0,0,1,.83-2.17,4.09,4.09,0,0,1,3.63-1.88,4.76,4.76,0,0,1,1.83.2,3.43,3.43,0,0,1,.67.41c.8.56.8.56.09,1.3A3.13,3.13,0,0,0,257,82.66,3.43,3.43,0,0,0,253.56,86a4.88,4.88,0,0,0,.47,2.32,3.32,3.32,0,0,0,4.89,1C259.65,88.87,259.62,88.83,260.33,89.51Z"/><path class="cls-14" d="M391.52,104.2c-.91,0-.91,0-1-.73a3.45,3.45,0,0,1-2.91,1,2.74,2.74,0,0,1-1.84-1.68c-.1-.46.21-.8.28-1.21a1.09,1.09,0,0,1,.81-.74c.33-.12.61-.48,1-.43.77.09,1.56-.24,2.31.18.28.15.44,0,.4-.32A2,2,0,0,0,388,98.48c-.25.38-.65.15-1,.24s-.51,0-.56-.3,0-.36.33-.47a7.11,7.11,0,0,1,2.67-.2c.69,0,1.6,1,1.82,1.7a7.72,7.72,0,0,1,.22,2.29Z"/><path class="cls-14" d="M201.28,77.07c-.91.05-.91.05-1.05-.68a3.27,3.27,0,0,1-2.79,1,2.81,2.81,0,0,1-1.93-1.61c-.14-.49.19-.89.28-1.32s.49-.52.83-.73a4.3,4.3,0,0,1,3.24-.27c.4.08.52,0,.46-.31a1.86,1.86,0,0,0-2.65-1.61,4.46,4.46,0,0,1-.8.09c-.54.11-.64,0-.63-.43,0-.12,0-.3.14-.27.43.14.68-.32,1.1-.27a5.74,5.74,0,0,0,1.31,0c1.07-.11,1.58.69,2.22,1.29-.08.48.26.87.26,1.32C201.29,74.54,201.28,75.81,201.28,77.07Z"/><path class="cls-14" d="M177.82,104.21c-1,0-1,0-1.08-.72a3.52,3.52,0,0,1-2.79,1,2.88,2.88,0,0,1-1.95-1.58c-.15-.5.19-.89.28-1.33s.48-.52.8-.74a2.32,2.32,0,0,1,1.63-.42c.56.07,1.16-.22,1.71.18.25.18.43,0,.39-.33a1.9,1.9,0,0,0-2.54-1.71,3.42,3.42,0,0,1-.88.17c-.16,0-.21.37-.45.11a.63.63,0,0,1-.22-.51c0-.16,0-.26.24-.33a7.64,7.64,0,0,1,2.89-.21c.63,0,1.49,1.08,1.69,1.71C178,101,177.6,102.57,177.82,104.21Z"/><path class="cls-14" d="M305.9,90.55c-.93,0-.93,0-1-.73a3.44,3.44,0,0,1-2.78,1,2.63,2.63,0,0,1-2-1.69c-.1-.46.22-.79.28-1.21s.46-.53.79-.74a2.33,2.33,0,0,1,1.63-.43c.57.07,1.16-.21,1.72.18.24.18.43,0,.38-.32a1.86,1.86,0,0,0-2.42-1.74c-.36.1-.73.14-1.09.23s-.51.05-.56-.31,0-.35.33-.47a7.51,7.51,0,0,1,2.66-.2c.7,0,1.62,1,1.82,1.71C306.09,87.35,305.75,88.91,305.9,90.55Z"/><path class="cls-14" d="M303.65,76.36a3.36,3.36,0,0,1-3,1,2.82,2.82,0,0,1-1.72-1.69c-.11-.45.22-.79.28-1.21s.46-.52.79-.74a2.37,2.37,0,0,1,1.63-.42c.57.07,1.16-.22,1.72.18.24.18.43,0,.38-.33a1.86,1.86,0,0,0-2.42-1.74c-.36.1-.73.15-1.09.24s-.51,0-.56-.32,0-.35.34-.46a7,7,0,0,1,2.66-.2c.69,0,1.6,1,1.81,1.71.45,1.54.07,3.11.26,4.65C303.77,77.12,303.77,77.12,303.65,76.36Z"/><path class="cls-14" d="M242.32,77.13c-.93,0-.93,0-1-.74a3.41,3.41,0,0,1-2.9,1,2.76,2.76,0,0,1-1.84-1.68c-.1-.46.19-.81.27-1.21a1.12,1.12,0,0,1,.8-.75c.34-.12.62-.47,1-.43.77.08,1.57-.24,2.32.18.28.15.44,0,.4-.31a2,2,0,0,0-2.54-1.78c-.24.39-.7.07-1,.27-.51.39-.49-.09-.56-.32s0-.35.31-.47a7.48,7.48,0,0,1,2.78-.2c.62,0,1.52,1.07,1.7,1.69C242.52,73.92,242.18,75.49,242.32,77.13Z"/><path class="cls-14" d="M249.26,77.09c-.91,0-.91,0-1-.66a3.45,3.45,0,0,1-2.7.95,2.8,2.8,0,0,1-2-1.63c-.15-.51.22-.88.29-1.33s.43-.59.85-.71.61-.45,1-.41a6.86,6.86,0,0,1,2.21.15c.33.15.46.07.44-.22a1.87,1.87,0,0,0-2.57-1.74c-.34.12-.7,0-1,.21s-.45-.1-.5-.3-.1-.39.26-.52a7.5,7.5,0,0,1,1.94-.22,2.44,2.44,0,0,1,2.15.88,2.68,2.68,0,0,1,.64,1.88C249.31,74.61,249.26,75.81,249.26,77.09Z"/><path class="cls-14" d="M201.76,101.45l2.88-2.88c.61-.61.61-.61,1.71-.51-.76.75-1.47,1.48-2.2,2.19-.23.23-.2.36-.08.68a5.5,5.5,0,0,0,.92,1.28,6.58,6.58,0,0,0,1.62,1.89c-1,.33-1.49-.13-2-.82a12.07,12.07,0,0,0-1.55-2,12.49,12.49,0,0,0-1.2,1.22c-.33.47,0,1.08-.18,1.62h-.85V95.42c.23-.18.54-.06.92,0Z"/><path class="cls-15" d="M321.4,87.67h-4.56c-.36,0-.49.16-.41.49A2.35,2.35,0,0,0,318.19,90a2.65,2.65,0,0,0,2-.52c.52-.26.5-.3.94.12l.07.08a3.19,3.19,0,0,1-3.37,1,3,3,0,0,1-2.38-2.93,3.8,3.8,0,0,1,.45-2.21c1.09-1.76,2.25-1.82,3.93-1.24A2.38,2.38,0,0,1,321.21,86,2.64,2.64,0,0,1,321.4,87.67Z"/><path class="cls-15" d="M359.73,89.11l.55.55c.05,0,0,.09-.06.17a3.27,3.27,0,0,1-5.67-2.42,3.6,3.6,0,0,1,1.13-2.65,2.68,2.68,0,0,1,2.77-.55A2.38,2.38,0,0,1,360,85.35a3,3,0,0,1,.53,2.32H356c-.49,0-.6.17-.45.64a2.22,2.22,0,0,0,1.36,1.54c1,.52,1.8,0,2.59-.53A2,2,0,0,0,359.73,89.11Z"/><path class="cls-15" d="M379.05,89.69a3.19,3.19,0,0,1-3.38,1,3,3,0,0,1-2.38-2.94,3.69,3.69,0,0,1,.45-2.2c1.09-1.76,2.24-1.81,3.93-1.24A2.28,2.28,0,0,1,379,85.89c.14.53.59,1.06.12,1.76h-4.8a2.17,2.17,0,0,0,3.13,2.18,1.64,1.64,0,0,1,.49-.27c.19,0,.35-.28.52-.43l.08.08Z"/><path class="cls-15" d="M408,87.67H403.5c-.43,0-.61.21-.46.56.25.55.38,1.23,1,1.49a2.27,2.27,0,0,0,1.52.34,3.37,3.37,0,0,0,1.7-1l.47.72s0,.06-.11.13a3.26,3.26,0,0,1-5.56-2.42,3.62,3.62,0,0,1,1.14-2.77,2.54,2.54,0,0,1,2.68-.56C407.34,84.58,408.12,85.89,408,87.67Z"/><path class="cls-15" d="M433.49,87.67h-4.6c-.37,0-.58.26-.42.59.31.62.53,1.27,1.32,1.59,1.21.49,2-.07,2.9-.73l.55.57a3.4,3.4,0,0,1-3.34,1.07A3.22,3.22,0,0,1,427.5,88a3.86,3.86,0,0,1,.47-2.44,3.09,3.09,0,0,1,1.63-1.39,3,3,0,0,1,2.36.27A3.43,3.43,0,0,1,433.49,87.67Z"/><path class="cls-15" d="M480.52,87.7h-5c.07,1.65.79,2.24,2.3,2.37a2,2,0,0,0,1.5-.67c.38-.35.49-.16.7.07l.22.24a3.42,3.42,0,0,1-3.38,1.06,3.19,3.19,0,0,1-2.36-3,3.64,3.64,0,0,1,.46-2.21,3.3,3.3,0,0,1,1.57-1.44,3,3,0,0,1,2.36.22A3.25,3.25,0,0,1,480.52,87C480.54,87.19,480.52,87.38,480.52,87.7Z"/><path class="cls-15" d="M550.51,87.67h-4.57c-.36,0-.48.16-.41.49A2.37,2.37,0,0,0,547.29,90a2.67,2.67,0,0,0,2-.52c.52-.26.5-.3.93.12l.07.08a3.18,3.18,0,0,1-3.36,1,3,3,0,0,1-2.38-2.93A3.72,3.72,0,0,1,545,85.6c1.09-1.76,2.25-1.82,3.92-1.24A2.37,2.37,0,0,1,550.32,86,2.71,2.71,0,0,1,550.51,87.67Z"/><path class="cls-15" d="M232.15,101.33c-1.5,0-3,0-4.51,0-.41,0-.6.22-.44.57.24.54.38,1.23,1,1.48a2.28,2.28,0,0,0,1.53.33,3.27,3.27,0,0,0,1.67-1l.54.65a2,2,0,0,1-.17.19,3.38,3.38,0,0,1-4.81-.23,3.45,3.45,0,0,1-.75-2.33,3.63,3.63,0,0,1,1.07-2.56,2.53,2.53,0,0,1,2.76-.63A3.05,3.05,0,0,1,232.15,101.33Z"/><path class="cls-15" d="M271,101.33c-1.5,0-3,0-4.52,0-.41,0-.6.22-.44.57.25.54.39,1.23,1,1.48a2.3,2.3,0,0,0,1.53.33,3.41,3.41,0,0,0,1.68-1l.53.65a2,2,0,0,1-.17.19,3.38,3.38,0,0,1-4.81-.23,3.45,3.45,0,0,1-.74-2.33,3.58,3.58,0,0,1,1.06-2.56,2.54,2.54,0,0,1,2.77-.63C270.38,98.25,271.14,99.56,271,101.33Z"/><path class="cls-15" d="M186.87,74.26h-4.6c-.37,0-.58.26-.41.59.3.63.52,1.27,1.32,1.6,1.21.48,2-.07,2.89-.73l.56.57a3.43,3.43,0,0,1-3.35,1.07,3.2,3.2,0,0,1-2.39-2.83,3.8,3.8,0,0,1,.46-2.44A3.21,3.21,0,0,1,183,70.7a3,3,0,0,1,2.36.28A3.42,3.42,0,0,1,186.87,74.26Z"/><path class="cls-15" d="M224.24,74.26h-4.5c-.43,0-.62.19-.46.55.24.55.37,1.22,1,1.49a2.17,2.17,0,0,0,1.52.34,3.18,3.18,0,0,0,1.69-1l.51.69a.92.92,0,0,1-.13.14,3.35,3.35,0,0,1-4.8-.2,3.41,3.41,0,0,1-.77-2.2,3.73,3.73,0,0,1,1.14-2.77,2.58,2.58,0,0,1,2.68-.57A3.11,3.11,0,0,1,224.24,74.26Z"/><path class="cls-15" d="M269.41,74.28h-5c.06,1.65.79,2.24,2.3,2.37a2,2,0,0,0,1.5-.67c.37-.35.49-.16.7.08l.22.23a3.38,3.38,0,0,1-3.38,1.06,3.17,3.17,0,0,1-2.36-3,3.68,3.68,0,0,1,.45-2.21,3.39,3.39,0,0,1,1.57-1.44,3,3,0,0,1,2.37.21,3.3,3.3,0,0,1,1.61,2.64C269.42,73.77,269.41,74,269.41,74.28Z"/><path class="cls-15" d="M316.69,102.67l.64.64c.06,0,0,.09-.05.17a3.37,3.37,0,0,1-4.9-.1,3.43,3.43,0,0,1-.78-2.31,3.59,3.59,0,0,1,1.13-2.65,2.46,2.46,0,0,1,2.77-.53c1.46.48,2.15,1.62,2.09,3.44-1.5,0-3,0-4.51,0-.49,0-.6.17-.45.63A2.29,2.29,0,0,0,314,103.5c1,.52,1.73,0,2.5-.44C316.59,103,316.62,102.8,316.69,102.67Z"/><path class="cls-15" d="M312.71,62.28l.55.55c.05.05,0,.1-.06.17a3.27,3.27,0,0,1-5.67-2.42,3.55,3.55,0,0,1,1.13-2.65,2.68,2.68,0,0,1,2.77-.55A2.42,2.42,0,0,1,313,58.52a3,3,0,0,1,.53,2.32H309c-.49,0-.59.16-.45.64a2.2,2.2,0,0,0,.94,1.38,2.11,2.11,0,0,0,1.52.35A3.07,3.07,0,0,0,312.71,62.28Z"/><path class="cls-15" d="M330.46,102.76l.55.55c.05.06,0,.1-.06.17a3.27,3.27,0,0,1-5.67-2.42,3.57,3.57,0,0,1,1.13-2.65,2.47,2.47,0,0,1,2.77-.51c.31.1.66.06.91.4s.8.67.9,1.18.52,1.13.24,1.85c-1.47,0-3,0-4.48,0-.49,0-.59.16-.45.64a2.23,2.23,0,0,0,2.46,1.74A3.17,3.17,0,0,0,330.46,102.76Z"/><path class="cls-15" d="M349.7,101.33c-1.51,0-3,0-4.53,0-.38,0-.54.23-.43.59.15.51.62,1.34,1,1.47a2.8,2.8,0,0,0,1.42.33,3.3,3.3,0,0,0,1.77-1l.57.62a3.24,3.24,0,0,1-2.85,1.07,3,3,0,0,1-2.09-1,3.43,3.43,0,0,1-.82-2.42,3.56,3.56,0,0,1,1.08-2.55,2.75,2.75,0,0,1,2.77-.63A2.42,2.42,0,0,1,349.23,99,2.83,2.83,0,0,1,349.7,101.33Z"/><path class="cls-15" d="M297.65,60.84h-4.52c-.41,0-.6.21-.44.56.25.55.38,1.23,1,1.48a2.29,2.29,0,0,0,1.53.34,3.27,3.27,0,0,0,1.67-1l.54.65a2.22,2.22,0,0,1-.17.18,3.36,3.36,0,0,1-4.81-.23,3.4,3.4,0,0,1-.74-2.32A3.58,3.58,0,0,1,292.76,58a2.53,2.53,0,0,1,2.77-.63A3.07,3.07,0,0,1,297.65,60.84Z"/><path class="cls-15" d="M290.52,60.87h-5c.07,1.65.8,2.24,2.3,2.37a2,2,0,0,0,1.5-.67c.38-.36.49-.15.7.07l.22.24a3.4,3.4,0,0,1-3.38,1.06,3.18,3.18,0,0,1-2.36-3,3.62,3.62,0,0,1,.45-2.21,3.37,3.37,0,0,1,1.58-1.44,3,3,0,0,1,2.37.22,3.29,3.29,0,0,1,1.6,2.63C290.54,60.36,290.52,60.56,290.52,60.87Z"/><path class="cls-15" d="M376.64,101.35h-5c.07,1.65.79,2.24,2.3,2.37a2,2,0,0,0,1.5-.67c.38-.35.49-.16.71.08l.22.23a3.4,3.4,0,0,1-3.38,1.06,3.16,3.16,0,0,1-2.36-3,3.61,3.61,0,0,1,.45-2.21,3.32,3.32,0,0,1,1.57-1.45A3,3,0,0,1,375,98a3.28,3.28,0,0,1,1.6,2.63C376.66,100.84,376.64,101,376.64,101.35Z"/><path class="cls-15" d="M236.72,87.67h-4.51c-.43,0-.61.2-.46.56.25.55.38,1.22,1,1.49a2.26,2.26,0,0,0,1.52.34,3.28,3.28,0,0,0,1.69-1l.51.67a.77.77,0,0,1-.13.16,3.36,3.36,0,0,1-4.81-.21,3.4,3.4,0,0,1-.76-2.2,3.69,3.69,0,0,1,1.14-2.77,2.54,2.54,0,0,1,2.68-.56C236.05,84.57,236.83,85.89,236.72,87.67Z"/><path class="cls-12" d="M256.93,77.13c-.23,0-.39,0-.54,0l-.38,0V68.35c.24-.17.55-.07.93,0v3.53l.19.1c.16-.21.31-.43.48-.63a2.32,2.32,0,0,1,3.21,0,2,2,0,0,1,.69,1.64c-.06,1.38,0,2.77,0,4.18h-1c0-1.37,0-2.75,0-4.13a1.42,1.42,0,0,0-1-1.49,2,2,0,0,0-2.37,1.09,4.62,4.62,0,0,0-.26,1.57C257,75.1,256.93,76.05,256.93,77.13Z"/><path class="cls-12" d="M189.4,71.86a8.21,8.21,0,0,0,.59-.59,2.31,2.31,0,0,1,3.2,0,2,2,0,0,1,.67,1.53c-.06,1.39,0,2.79,0,4.19a1.36,1.36,0,0,1-1,0c0-1.39,0-2.77,0-4.16s-1-1.78-2.23-1.38-1.26,1.28-1.34,2.17c-.09,1.1,0,2.22,0,3.32-.28.19-.56.07-.83.1,0,0-.08,0-.08-.07q0-4.35,0-8.71c.24-.17.52,0,.79-.08a.31.31,0,0,1,.13.3v2.75C189.29,71.5,189.21,71.71,189.4,71.86Z"/><path class="cls-12" d="M400.39,90.52h-1c0-1.38,0-2.76,0-4.14a1.45,1.45,0,0,0-1-1.49,2,2,0,0,0-2.37,1.1,4.54,4.54,0,0,0-.26,1.57c.05,1,0,1.91,0,2.88-.28.19-.59.1-.93.07V81.77c.24-.17.55-.08.93,0v3.53l.19.11c.16-.22.32-.44.49-.64a2.31,2.31,0,0,1,3.2,0,2,2,0,0,1,.69,1.64C400.35,87.72,400.39,89.1,400.39,90.52Z"/><path class="cls-12" d="M537.41,81.71h.93v3.54l.19.1c.16-.21.32-.43.49-.63a2.32,2.32,0,0,1,3.2,0,2,2,0,0,1,.69,1.64c-.06,1.39,0,2.77,0,4.19h-.95c0-1.38,0-2.76,0-4.14a1.53,1.53,0,0,0-1.78-1.59c-.47,0-.76.49-1.23.5,0,.31-.27.52-.36.81a4,4,0,0,0-.23,1.46c0,1,0,1.91,0,2.88-.28.19-.59.1-.93.07Z"/><path class="cls-11" d="M275.4,87.34a3,3,0,0,1-1.84,3.19,3.29,3.29,0,0,1-4.05-1,3.7,3.7,0,0,1,.37-4.63,3.35,3.35,0,0,1,5.18.83A2.73,2.73,0,0,1,275.4,87.34Z"/><path class="cls-11" d="M206.79,47.07c.13,1.46-.73,2.47-2.17,3.12A3.35,3.35,0,0,1,200.35,48a3.62,3.62,0,0,1,1-3.63,3.32,3.32,0,0,1,5,.88A2.9,2.9,0,0,1,206.79,47.07Z"/><path class="cls-11" d="M217.83,87.49c.12,1.8-.94,2.63-2.23,3.21s-3-.25-3.85-1.51a3.92,3.92,0,0,1-.35-2.71,2.56,2.56,0,0,1,1-1.62,3.36,3.36,0,0,1,5.44,1.56A3.18,3.18,0,0,1,217.83,87.49Z"/><path class="cls-11" d="M267.73,87.48c.12,1.77-.9,2.61-2.22,3.22s-3.05-.25-3.85-1.5a3.87,3.87,0,0,1-.36-2.71,2.63,2.63,0,0,1,1-1.71,3.39,3.39,0,0,1,5.37,1.63A3.18,3.18,0,0,1,267.73,87.48Z"/><path class="cls-11" d="M335.39,87.32a2.4,2.4,0,0,1,.52-1.94,3.08,3.08,0,0,1,1.64-1.19,3.35,3.35,0,0,1,3.83,1.35,3.48,3.48,0,0,1,0,3.78A3,3,0,0,1,339,90.79a3.39,3.39,0,0,1-2.56-.78,5,5,0,0,1-.86-1.32C335.25,88.23,335.48,87.76,335.39,87.32Z"/><path class="cls-11" d="M268,60.61c.14,1.65-.78,2.57-2.19,3.24A3.48,3.48,0,0,1,262,62.7a3.72,3.72,0,0,1,.52-4.71,3.3,3.3,0,0,1,5,.88A2.74,2.74,0,0,1,268,60.61Z"/><path class="cls-11" d="M505,87.79c.06-1.87.63-2.9,2.07-3.51a3.48,3.48,0,0,1,2.17-.13,2.79,2.79,0,0,1,1.8,1.32,3.6,3.6,0,0,1,0,3.89,3,3,0,0,1-2.45,1.45,3.37,3.37,0,0,1-2.45-.76A2.79,2.79,0,0,1,505,87.79Z"/><path class="cls-11" d="M500.43,87.42c.14,1.67-.77,2.59-2.18,3.26a3.47,3.47,0,0,1-3.74-1.15,3.73,3.73,0,0,1,.51-4.72,3.36,3.36,0,0,1,5,.88A3.51,3.51,0,0,1,500.43,87.42Z"/><path class="cls-10" d="M371.65,23.74h2.08v7.14c-.65.05-1.35,0-2.08,0Z"/><path class="cls-10" d="M338.22,30.88h-2.08V23.73c.65,0,1.34,0,2.08,0Z"/><path class="cls-10" d="M315.59,30.9h-1.92l-.08-.08a.21.21,0,0,1,0-.1v-7h2A51.55,51.55,0,0,1,315.59,30.9Z"/><path class="cls-10" d="M259.13,23.74h2.08v7.14c-.65.05-1.34,0-2.08,0Z"/><path class="cls-10" d="M208.2,30.88h-2.09V23.74c.66,0,1.35,0,2.09,0Z"/><path class="cls-10" d="M365.57,30.88h-2.08V23.74c.65,0,1.34,0,2.08,0Z"/><path class="cls-10" d="M512.67,30.88h-2.12V23.75h2a7.06,7.06,0,0,1,.08,2C512.68,27.45,512.67,29.15,512.67,30.88Z"/><path class="cls-13" d="M182.67,89.35a1.18,1.18,0,0,0,.39-.55,14.83,14.83,0,0,1,.93-2.48,14.9,14.9,0,0,0,.49-1.47.81.81,0,0,1,1.11-.49c.16.08.07.24,0,.4-.24.82-.68,1.56-1,2.35-.49,1.27-1,2.51-1.6,3.77a6.45,6.45,0,0,1-.31.58,2.36,2.36,0,0,1-2.58,1c-.25,0-.57-.44-.45-.57s.31-.58.63-.32a1,1,0,0,0,1.44-.18,1,1,0,0,0,.08-1.43,1.85,1.85,0,0,0-.42-1.15c-.73-1.32-1.15-2.8-1.94-4.1-.11-.18-.08-.38.22-.39s.76,0,.94.47q.57,1.44,1.2,2.85C182.1,88.22,182.39,88.77,182.67,89.35Z"/><path class="cls-12" d="M386.24,90.52h-1c0-1.34,0-2.65,0-4,0-1.52-1.08-2.16-2.46-1.53a2.16,2.16,0,0,0-1.12,2.11c-.08,1.1,0,2.22,0,3.31-.29.17-.57.07-.9.1V84.39c.85-.06.85-.06,1,.72a2.4,2.4,0,0,1,1.17-.9,2.45,2.45,0,0,1,2.31.21,8.39,8.39,0,0,1,.86.83c.22.2.13.44.14.66Z"/><path class="cls-12" d="M186.4,63.69h-.93v-6.1c.88-.11.88-.11,1,.66.32-.23.61-.47.88-.65a2.34,2.34,0,0,1,2.29-.15c.58.19.81.72,1.25,1,.13.09.09.21.09.32v4.89h-1c0-1.39,0-2.77,0-4.15a1.36,1.36,0,0,0-.9-1.42c-.87-.33-2.22.09-2.43.94a4.76,4.76,0,0,0-.29,1.57C186.46,61.62,186.4,62.62,186.4,63.69Z"/><path class="cls-12" d="M203,70.94c.86,0,.86,0,1,.72.28-.49.87-.51,1.16-.94a3.11,3.11,0,0,1,2.33.32,9.09,9.09,0,0,1,.77.75.58.58,0,0,1,.2.52c0,1.58,0,3.17,0,4.74a1.91,1.91,0,0,1-1,.06c0-1.29,0-2.59,0-3.9a2.37,2.37,0,0,0-.07-.8,1.54,1.54,0,0,0-2.12-.89,2.08,2.08,0,0,0-1.39,2.14c-.05,1.11,0,2.23,0,3.36-.28.2-.59.1-.92.08Z"/><path class="cls-12" d="M324.35,63.72c0-1.39,0-2.7,0-4,0-1.5-1-2.07-2.37-1.52a2,2,0,0,0-1.2,2c-.09,1.14,0,2.29,0,3.47h-.91V57.55c.85,0,.85,0,1,.66a6.15,6.15,0,0,0,.8-.57c.65-.69,1.44-.42,2.12-.33s1.05.75,1.51,1.22c.06.07,0,.22,0,.34,0,1.51,0,3,0,4.54,0,.28-.13.33-.36.31Z"/><path class="cls-12" d="M223.87,57.53c.86,0,.86,0,1,.74.26-.52.87-.53,1.15-1a3.26,3.26,0,0,1,2.24.23,6.87,6.87,0,0,1,1,.92c.14.13.1.28.1.43,0,1.59,0,3.17,0,4.74a1.87,1.87,0,0,1-1,.07c0-1.29,0-2.6,0-3.9a2.72,2.72,0,0,0-.06-.81,1.56,1.56,0,0,0-2.13-.89,2.1,2.1,0,0,0-1.39,2.14c-.05,1.11,0,2.23,0,3.36-.28.21-.58.1-.92.09Z"/><path class="cls-12" d="M472.84,90.52h-1c0-1.39,0-2.77,0-4.16A1.35,1.35,0,0,0,471,85a1.89,1.89,0,0,0-2.36.85,4,4,0,0,0-.35,1.54c.06,1,0,2.07,0,3.11a1.41,1.41,0,0,1-.93,0V84.41c.18-.18.43-.06.66-.09s.27.09.27.28-.07.6.37.2a2.47,2.47,0,0,1,2-.74,2.68,2.68,0,0,1,1.54.65,1.8,1.8,0,0,1,.69,1.64C472.8,87.7,472.84,89.06,472.84,90.52Z"/><path class="cls-12" d="M458.69,90.54c-.38,0-.65.08-1-.08,0-1.29,0-2.6,0-3.91A1.58,1.58,0,0,0,455.26,85a2.21,2.21,0,0,0-1.11,2,13.37,13.37,0,0,0,0,1.79v1.64a2,2,0,0,1-.9.08V84.39c.85-.06.85-.06,1,.69a3.79,3.79,0,0,1,.5-.49,2.81,2.81,0,0,1,2.18-.51,2.46,2.46,0,0,1,1.33.84A1.28,1.28,0,0,1,458.7,86C458.66,87.51,458.69,89,458.69,90.54Z"/><path class="cls-12" d="M425.1,104.17h-1c0-1.34,0-2.65,0-4,0-1.53-1.07-2.17-2.46-1.53a2.15,2.15,0,0,0-1.11,2.1c-.09,1.11,0,2.22,0,3.32-.3.17-.58.06-.91.09V98.05c.85-.06.85-.06,1,.72a2.28,2.28,0,0,1,1.16-.9,2.41,2.41,0,0,1,2.31.2,9.61,9.61,0,0,1,.86.83c.23.2.14.44.14.66C425.11,101.08,425.1,102.59,425.1,104.17Z"/><path class="cls-12" d="M289.36,98c.86,0,.86,0,1,.73.26-.52.87-.52,1.15-1a3.29,3.29,0,0,1,2.25.24,6.7,6.7,0,0,1,.94.91c.14.13.11.28.11.43v4.74a2,2,0,0,1-1,.08v-3.9a3.1,3.1,0,0,0-.07-.81,1.54,1.54,0,0,0-2.12-.89,2.09,2.09,0,0,0-1.4,2.13c-.05,1.12,0,2.23,0,3.35-.26.3-.59,0-.92.19Z"/><path class="cls-12" d="M211.83,104.18h-.92v-6.1c.87-.12.87-.12,1,.64.33-.2.63-.45.88-.63a2.3,2.3,0,0,1,2.5-.09c.41.18.7.63,1.05,1,.14.14.09.29.09.44v4.78h-1c0-1.38,0-2.76,0-4.14a1.53,1.53,0,0,0-1.79-1.58c-.47,0-.77.46-1.23.5,0,.31-.26.52-.36.81a4,4,0,0,0-.22,1.46C211.84,102.17,211.83,103.13,211.83,104.18Z"/><path class="cls-12" d="M298.68,90.55h-1c0-1.34,0-2.68,0-4a3,3,0,0,0-.17-.88,1.2,1.2,0,0,0-1-.82,2,2,0,0,0-1.61.4,1.53,1.53,0,0,0-.58.85,3.39,3.39,0,0,0-.25,1.45c0,1,0,1.92,0,2.87,0,0-.05.06-.09.12h-.83V84.37c.87,0,.87,0,1,.74.25-.49.72-.59,1.08-.86a2.26,2.26,0,0,1,1.82-.12c.65.13,1.06.77,1.51,1.24.08.09,0,.3,0,.46C298.68,87.37,298.68,88.92,298.68,90.55Z"/><path class="cls-12" d="M234.62,104.17h-.93v-6.1c.88-.1.88-.1,1,.67a7,7,0,0,1,.89-.66,2.81,2.81,0,0,1,2.29-.15c.57.21.81.72,1.24,1,.2.15.08.37.09.56v4.56c-.27.2-.58.1-1,.08,0-1.39,0-2.78,0-4.16A1.52,1.52,0,0,0,236,98.6a2.11,2.11,0,0,0-1.36,2.16C234.57,101.87,234.62,103,234.62,104.17Z"/><path class="cls-12" d="M239.18,90.53h-.92v-6.1c.85-.13.85-.13,1,.63.28-.47.87-.5,1.16-.93a3.15,3.15,0,0,1,2.33.32c.29.22.5.52.77.75a.62.62,0,0,1,.19.53v4.73a1.82,1.82,0,0,1-1,.06c0-1.33,0-2.67,0-4a1.49,1.49,0,0,0-.12-.79,1.55,1.55,0,0,0-2.07-.78,2.08,2.08,0,0,0-1.39,2.13C239.14,88.19,239.18,89.31,239.18,90.53Z"/><path class="cls-9" d="M282.28,58.21h-3.86c-.22,0-.38,0-.38-.3s0-.43.37-.43c1.6,0,3.19,0,4.79,0a.4.4,0,0,1,.31.64c-.41.46-.79,1-1.21,1.4A28.79,28.79,0,0,1,280,62.08c-.27.22-.32.57-.6.92,1.3,0,2.52,0,3.75,0,.35,0,.38.15.38.43s-.14.3-.37.3h-4.79a.37.37,0,0,1-.36-.54,2.69,2.69,0,0,1,.47-.76c.53-.57,1-1.18,1.55-1.74A22,22,0,0,1,282.28,58.21Z"/><path class="cls-10" d="M195.1,64a2.52,2.52,0,0,1-2.1-.72c-.73,0-.11-.31-.11-.45,0-.37.21-.3.46-.17a5.09,5.09,0,0,0,2,.64c.71.05.93-.51,1.33-.86.15-.13-.38-1.06-.67-1A3.16,3.16,0,0,1,195,61c-.42-.12-1-.19-1.28-.66-.78,0-.36-.86-.79-1.12.2-.35.18-.79.44-1.13a2.68,2.68,0,0,1,2.85-.81c.2.35.72,0,.92.41,0,.06.31,0,.35.2s-.17.34-.31.46-.47.13-.54,0c-.22-.33-.57-.19-.84-.3a1.31,1.31,0,0,0-1.8.56c-.16.29-.07.41.1.59a1.68,1.68,0,0,0,1.06.61c.55,0,.94.42,1.46.55s.91.92,1.07,1.53a1.36,1.36,0,0,1-.33,1,2,2,0,0,1-1.85,1Z"/><path class="cls-10" d="M233.28,64a3.68,3.68,0,0,1-2.2-.68c-.41-.25-.09-.25-.07-.41,0-.32.14-.45.43-.29s.79.29,1.11.47a2.44,2.44,0,0,0,1.13.18,2.15,2.15,0,0,0,1.18-.85c.08-.23-.4-1-.73-1.05a14,14,0,0,1-1.59-.5c-.59-.27-1.33-.46-1.32-1.34-.44-.51,0-1,.23-1.29a2.06,2.06,0,0,1,2-1,4.5,4.5,0,0,1,1.84.49c.12.07.31,0,.32.24s-.15.28-.26.37-.46.11-.74,0a3.64,3.64,0,0,0-1.4-.38,1.49,1.49,0,0,0-.73.27.66.66,0,0,0-.15,1.16,1.47,1.47,0,0,0,.87.48c.56,0,.93.43,1.46.55.74.15,1,.93,1.15,1.58a1.18,1.18,0,0,1-.28.93,2.12,2.12,0,0,1-1.83,1Z"/><path class="cls-10" d="M186.45,50.3a2.52,2.52,0,0,1-2.07-.69c-.75,0-.13-.45-.11-.55.1-.36.3-.15.52,0a3.93,3.93,0,0,0,1.22.5c.6.1,1.22.22,1.71-.4s.32-1.27-.43-1.43c-.3-.07-.56-.23-.84-.31-.48-.14-1.07-.16-1.39-.68-.79,0-.37-.85-.82-1.08a4,4,0,0,1,.45-1.13c.86-1.07,1.58-1.06,2.91-.76.26.06.62,0,.84.3.07.11.43,0,.35.31s-.27.51-.6.44a10.68,10.68,0,0,1-1.05-.34c-.93-.31-1.58-.08-1.88.64-.07.17-.08.29.05.41a2,2,0,0,0,.83.6c.5.14,1,.48,1.43.57,1,.18,1.17.93,1.43,1.6a1.35,1.35,0,0,1-.31,1,2.07,2.07,0,0,1-2,1Z"/><path class="cls-10" d="M355.07,103a1.59,1.59,0,0,0-1.51-1.4,5.61,5.61,0,0,1-1.63-.71,1.55,1.55,0,0,1-.3-2.21,2.48,2.48,0,0,1,2.91-.79c.27.11.65,0,.84.31.07.12.45,0,.38.29s-.24.52-.56.46a6.56,6.56,0,0,1-1.07-.31c-1-.33-1.53-.14-1.88.6-.08.16-.14.29,0,.4a6.1,6.1,0,0,0,.73.56c.49.25,1.09.28,1.51.68,1,0,1.12.88,1.49,1.52.18.33-.2.46-.25.73a1.64,1.64,0,0,1-1.42,1.31,4.78,4.78,0,0,1-2.3-.18c-.38-.13-.52-.57-1-.58-.09,0,.22-.3.21-.55s.23-.12.39,0a11.5,11.5,0,0,0,1.11.47,3.88,3.88,0,0,0,1.13.19c.28,0,.43-.11.6-.28S354.92,103.09,355.07,103Z"/><path class="cls-10" d="M249.83,104.43a2.5,2.5,0,0,1-2.15-.71c-.78,0-.07-.34-.07-.47,0-.38.22-.25.46-.13a4.87,4.87,0,0,0,2,.62c.71,0,.92-.53,1.32-.87.14-.13-.41-1-.71-1.05-.48-.1-.92-.39-1.36-.45s-.82-.52-1.29-.67-.07-.77-.47-1a3.38,3.38,0,0,1,.39-1,2.12,2.12,0,0,1,1.87-1,3.41,3.41,0,0,1,2,.49c.39.2.41.36.11.6s-.53.21-.63.07c-.24-.33-.58-.12-.86-.31a1.28,1.28,0,0,0-1.4.12c-.54.32-.59.75-.17,1.16a1.76,1.76,0,0,0,1,.51,10.36,10.36,0,0,1,1.46.55c.62.16.92.93,1,1.54a1.57,1.57,0,0,1-.4,1.12A2.12,2.12,0,0,1,249.83,104.43Z"/><path class="cls-10" d="M526.39,90.79a2.57,2.57,0,0,1-2.07-.7c-.74,0-.14-.44-.11-.55.1-.36.3-.14.51,0A4.09,4.09,0,0,0,526,90c.6.1,1.22.23,1.71-.4a.82.82,0,0,0-.43-1.43,8.46,8.46,0,0,1-.84-.31c-.47-.14-1.07-.16-1.39-.68-.79,0-.37-.85-.82-1.08a4.5,4.5,0,0,1,.44-1.13,2.47,2.47,0,0,1,2.91-.76c.27.11.63,0,.85.31.07.1.43,0,.35.3s-.27.51-.59.44-.71-.22-1.06-.33c-.93-.32-1.58-.09-1.88.63-.07.17-.09.29,0,.41a1.94,1.94,0,0,0,.83.6c.5.14,1,.49,1.43.57,1,.18,1.16.93,1.43,1.61a1.33,1.33,0,0,1-.31,1,2.06,2.06,0,0,1-2,1A2.59,2.59,0,0,0,526.39,90.79Z"/><path class="cls-10" d="M329.59,64a2.63,2.63,0,0,1-2.25-.71c-.76,0-.1-.32-.1-.45,0-.38.21-.29.46-.16a5.24,5.24,0,0,0,2,.63c.71.05.93-.52,1.33-.86.14-.13-.41-1.07-.68-1s-.56-.23-.86-.29a2.52,2.52,0,0,1-1.5-.69c-.77,0-.36-.87-.79-1.13.22-.35.19-.79.45-1.13a2.71,2.71,0,0,1,2.85-.8c.21.36.73,0,.93.41,0,.06.3,0,.33.21s-.17.34-.31.46-.47.13-.54,0c-.22-.34-.58-.13-.85-.31a1.26,1.26,0,0,0-1.4.11c-.53.31-.61.77-.19,1.14.23.19.49.48.74.48.61,0,1,.51,1.59.56.4,0,.64.45.86.75a1.4,1.4,0,0,1,.3.92,2.33,2.33,0,0,1-1.2,1.69A3,3,0,0,1,329.59,64Z"/><path class="cls-10" d="M199.07,49.27a3,3,0,0,1-2.11,1,3.38,3.38,0,0,1-2.65-.85,3.7,3.7,0,0,1-.13-4.89,3.4,3.4,0,0,1,4.92.09,1.83,1.83,0,0,1-.13.16c-.47.45-.54.46-1,.14l-.64-.45a1.14,1.14,0,0,0-1.11-.16c-.37.19-.81.13-1.13.49a3.29,3.29,0,0,0-.19,4,2.46,2.46,0,0,0,1.48.73,2.18,2.18,0,0,0,1.7-.5,6.35,6.35,0,0,0,.45-.45Z"/><path class="cls-10" d="M302.27,98.81l-.55.55a2.8,2.8,0,0,1-.82-.46,1.55,1.55,0,0,0-1.6-.42,2.29,2.29,0,0,0-1.46,1.11,3.3,3.3,0,0,0,.18,3.34,2.63,2.63,0,0,0,2.36.67,2.2,2.2,0,0,0,1.22-.77l.52.6c-1,1.4-3.25,1.34-4.52.29a3.66,3.66,0,0,1-.22-5.06,3.25,3.25,0,0,1,2.5-.94A3.17,3.17,0,0,1,302.27,98.81Z"/><path class="cls-10" d="M535.94,85.16l-.56.55a7.48,7.48,0,0,1-.93-.57,2,2,0,0,0-2.87.75,2.78,2.78,0,0,0-.13,2.92,2.22,2.22,0,0,0,3.6.58l.3-.29.5.64a3.3,3.3,0,0,1-4.62.3,3.67,3.67,0,0,1-.24-5A3.41,3.41,0,0,1,535.94,85.16Z"/><path class="cls-10" d="M363.33,98c1.17,0,1.23,0,1.57.94.45,1.21,1,2.4,1.42,3.6.05.12.09.19.24.2s.19-.07.25-.18c.26-.53.26-1.18.72-1.62,0-.85.69-1.47.85-2.28.14-.66.6-.84,1.22-.68.29.28-.06.4-.15.58-.8,1.71-1.45,3.47-2.28,5.17a.65.65,0,0,1-.77.44c-.32,0-.46-.21-.56-.5a28.62,28.62,0,0,0-1.18-2.74C364.23,100,363.9,99,363.33,98Z"/><path class="cls-10" d="M415.06,84.44A21,21,0,0,1,414,86.86a20.4,20.4,0,0,1-1.54,3.32c-.13.2-.14.36-.44.38s-.71-.1-.78-.39c-.36-1.52-1.34-2.8-1.75-4.31A7.19,7.19,0,0,0,409,85c-.08-.19-.44-.38-.16-.58a.77.77,0,0,1,.87,0,.92.92,0,0,1,.27.48c.48,1.16,1.06,2.27,1.43,3.48.08.25.14.66.45.69s.42-.44.47-.65c.31-1.2,1-2.25,1.36-3.4C414,84.28,414.05,84.29,415.06,84.44Z"/><path class="cls-10" d="M324.6,98.08a2.71,2.71,0,0,1-.51,1.1c-.75,1.53-1.26,3.15-2.08,4.65-.22.41-.41.36-.69.37a.53.53,0,0,1-.57-.48,10.12,10.12,0,0,0-1-2.45,17.55,17.55,0,0,0-1.35-2.92c-.13-.16-.06-.36.23-.38.59,0,.63,0,.92.6A27.7,27.7,0,0,1,321,102c.08.26.15.66.44.7s.43-.44.48-.64c.3-1.2,1-2.24,1.35-3.4C323.53,97.94,323.6,98,324.6,98.08Z"/><path class="cls-13" d="M278.8,104.18h-1V98.85c-.23-.26-.49-.14-.71-.15s-.28-.19-.29-.39.08-.36.34-.34.38,0,.64,0a2.36,2.36,0,0,1,.76-2.37c.69-.53,1.37,0,2-.33a1.65,1.65,0,0,1,0,1c-1.61-.49-1.91-.21-1.78,1.69.51,0,1,0,1.53,0,.27,0,.34.11.33.35s0,.38-.3.38c-.52,0-1,0-1.59,0Z"/><path class="cls-13" d="M180,98.69h-.71c-.29,0-.29-.15-.3-.37s.06-.37.33-.35.38,0,.65,0a2.37,2.37,0,0,1,.75-2.36c.69-.54,1.37,0,1.95-.31.24.2.16.38.16.52,0,.49,0,.49-.49.34-.87-.27-1.39.07-1.42.94,0,.27,0,.54,0,.87.57,0,1.08,0,1.59,0,.26,0,.35.09.34.34s0,.39-.29.39c-.52,0-1,0-1.59,0v5.36c-.31.25-.62.13-1,.12Z"/><path class="cls-10" d="M304.19,98.69h-.66c-.29,0-.3-.15-.3-.37s.06-.37.33-.35.38,0,.61,0V96.19c.33-.27.64,0,1-.17v2h1.68c.33,0,.24.24.25.42s0,.31-.25.3h-1.67c0,1.3,0,2.6,0,3.9a1,1,0,0,0,1.35.84c.21-.07.37-.35.55,0s-.14.8-.34.78c-.57-.05-1.13.15-1.72-.18a1.26,1.26,0,0,1-.82-1.24C304.21,101.45,304.19,100.13,304.19,98.69Z"/><path class="cls-10" d="M199.32,55.6h1v1.89h1.43c.27,0,.55-.08.53.39s-.25.33-.47.33h-1.46c0,1.3,0,2.53,0,3.75a1,1,0,0,0,1.33,1c.21-.06.36-.35.58-.07s-.12.78-.33.8a2.94,2.94,0,0,1-1.92-.22,1.24,1.24,0,0,1-.64-1.16c0-1.35,0-2.7,0-4.1h-.64c-.26,0-.34-.1-.33-.34s0-.4.3-.38h.63Z"/><path class="cls-10" d="M238.71,55.56v1.93h1.56c.25,0,.35.06.36.32s-.09.42-.4.41c-.48,0-.95,0-1.53,0,0,1.32,0,2.62,0,3.92a1,1,0,0,0,1.36.8c.22-.08.39-.34.54,0s-.15.78-.37.76c-.57-.05-1.13.15-1.71-.19a1.29,1.29,0,0,1-.8-1.25c0-1.32,0-2.63,0-3.93-.17-.2-.38-.13-.57-.11s-.41-.1-.4-.41.11-.33.36-.33a.76.76,0,0,0,.61-.09V55.68C238,55.5,238.31,55.61,238.71,55.56Z"/><path class="cls-10" d="M307.75,70.91h1.67c.29,0,.29.16.3.38s-.07.36-.33.35c-.51,0-1,0-1.6,0v3.62c0,1,.48,1.34,1.5,1a.52.52,0,0,1,.32,0c.18.08.09.28.1.42a.49.49,0,0,1-.33.46A2.65,2.65,0,0,1,307,76.5a.78.78,0,0,1-.19-.64V71.74c-.18-.18-.34-.1-.5-.11s-.45.06-.47-.33.26-.39.53-.39h.43V69h.93Z"/><path class="cls-10" d="M257.41,58.21a5.48,5.48,0,0,0-.58,0c-.35,0-.38-.14-.38-.42s.14-.32.37-.3h.56V55.68a1.89,1.89,0,0,1,1-.09v1.9H260c.26,0,.34.09.33.34s0,.4-.3.38h-.12l-1.42,0a4.33,4.33,0,0,0-.08,1.52c0,.72,0,1.44,0,2.16,0,.91.57,1.26,1.47.91.17-.06.3-.13.41,0s0,.22,0,.34a.5.5,0,0,1-.4.51,2.75,2.75,0,0,1-1.91-.27,1.2,1.2,0,0,1-.59-1.08C257.46,61,257.41,59.65,257.41,58.21Z"/><path class="cls-10" d="M270.13,58.21h-.67c-.28,0-.29-.15-.3-.37s.06-.37.33-.35h.62V55.67a1.47,1.47,0,0,1,1,0v1.86h1.68c.32,0,.23.24.24.42s0,.31-.24.3h-1.67c0,1.3,0,2.6,0,3.9a1,1,0,0,0,1.35.83c.21-.07.38-.34.56,0s-.15.81-.35.79c-.57-.06-1.12.14-1.71-.19a1.22,1.22,0,0,1-.82-1.23C270.15,61,270.13,59.65,270.13,58.21Z"/><path class="cls-10" d="M333.94,58.21h-.5c-.24,0-.46.06-.47-.33s.27-.38.53-.39l.4,0V55.72c.32-.24.62-.13,1-.11v1.88h1.67c.3,0,.29.17.3.38s-.08.35-.34.34H334.9c0,1.25,0,2.44,0,3.62s.46,1.34,1.5,1c.1,0,.24-.07.32,0s.08.28.1.43-.19.38-.34.45a2.61,2.61,0,0,1-2.35-.6.75.75,0,0,1-.19-.64V58.21Z"/><path class="cls-10" d="M309,85c0,1.27,0,2.5,0,3.72,0,.91.56,1.24,1.49.89.11,0,.23-.09.32,0s.11.28.11.43a.49.49,0,0,1-.41.49c-.53,0-1.05.14-1.61-.16a1.3,1.3,0,0,1-.87-1.32c0-1.31,0-2.62,0-3.91-.25-.17-.49-.09-.72-.1s-.24-.15-.24-.31-.05-.42.26-.41H308V82.43h1v1.89c.6,0,1.11,0,1.62,0,.28,0,.32.12.32.36s0,.37-.32.36C310.09,85,309.58,85,309,85Z"/><path class="cls-10" d="M207.27,85c-.31,0-.51,0-.71,0s-.25-.13-.24-.3-.08-.42.25-.42h.67V82.5a1.92,1.92,0,0,1,1-.08v1.9c.59,0,1.1,0,1.61,0,.27,0,.34.1.33.35s0,.38-.31.37c-.51,0-1,0-1.62,0,0,1.26,0,2.49,0,3.71,0,.9.56,1.25,1.47.91a.43.43,0,0,1,.32-.06c.18.08.12.27.12.42a.51.51,0,0,1-.4.51,3.38,3.38,0,0,1-1.71-.2,1.24,1.24,0,0,1-.77-1.27C207.29,87.75,207.27,86.44,207.27,85Z"/><path class="cls-14" d="M246.62,42.64a11,11,0,0,1,1.23,2.29c.49,1,1,1.91,1.44,2.86a2.73,2.73,0,0,1,.16,1.7,1.44,1.44,0,0,1-1.43,1c-1,0-2.08,0-3.11,0h-4.19a2,2,0,0,1-1.39-.69.48.48,0,0,1-.14-.53c.15-.37-.6-.66-.05-1,0-.66.45-1.09.76-1.6.25,0,.34.11.41.31s0,0,0,.11c-.41,2.56-.37,2.61,2.23,2.61,1.48,0,3,0,4.43,0,1.63,0,2-.62,1.28-2.12-.53-1.11-1.11-2.21-1.65-3.32a2.3,2.3,0,0,1-.4-1.35C246.28,42.75,246.37,42.59,246.62,42.64Z"/><path class="cls-16" d="M315,57.51H316v1.23c1.6-1.47,1.6-1.47,2.63-1.44,0,.19,0,.38,0,.57s-.08.31-.33.35a2.22,2.22,0,0,0-2,1.47,4.87,4.87,0,0,0-.35,1.65c0,.76,0,1.51,0,2.28a1.34,1.34,0,0,1-.93.05Z"/><path class="cls-16" d="M302.75,57.3c0,.22,0,.38,0,.54s0,.34-.3.38a2.21,2.21,0,0,0-2,1.45,5.13,5.13,0,0,0-.36,1.64c0,.79,0,1.58,0,2.38h-.92V57.52h.9v1.23C301,58.11,301.46,57,302.75,57.3Z"/><path class="cls-16" d="M379,104.18h-.92V98.06c.24-.17.55-.08.84-.06.22.37-.06.79.16,1.15,1.54-1.4,1.54-1.4,2.52-1.37,0,.11,0,.22,0,.33,0,.3.1.55-.44.61a2.09,2.09,0,0,0-1.85,1.45,5.12,5.12,0,0,0-.35,1.65C379.06,102.58,379,103.33,379,104.18Z"/><path class="cls-16" d="M333.81,99.17c.72-.62,1.23-1.58,2.41-1.43.2.13.1.35.12.53s0,.39-.36.44a2.19,2.19,0,0,0-2,1.5,4.77,4.77,0,0,0-.34,1.66c.05.74,0,1.5,0,2.23-.29.18-.57.07-.83.1,0,0-.09,0-.09-.08V98a1.67,1.67,0,0,1,.86,0C333.8,98.41,333.57,98.83,333.81,99.17Z"/><path class="cls-16" d="M273.49,104.18h-.93V98.06c.24-.18.55-.07.84-.06.23.36-.06.78.17,1.14,1.55-1.38,1.55-1.38,2.47-1.37.13.09.09.22.08.33,0,.29.11.56-.42.62a2.09,2.09,0,0,0-1.86,1.45,4.77,4.77,0,0,0-.36,1.64C273.5,102.57,273.49,103.32,273.49,104.18Z"/><path class="cls-16" d="M493,84.15a5.42,5.42,0,0,0,0,.57c0,.26-.11.29-.35.33a2.2,2.2,0,0,0-2,1.49,4.81,4.81,0,0,0-.34,1.65c0,.75,0,1.51,0,2.28a1.59,1.59,0,0,1-.94,0V84.4a1.36,1.36,0,0,1,.87,0c.18.38-.07.8.16,1.15C491.94,84.09,491.94,84.09,493,84.15Z"/><path class="cls-16" d="M278,90.53h-.91V84.35H278c.21.35-.06.77.17,1.15.75-.58,1.26-1.61,2.44-1.4.18.14.08.31.1.46.05.32,0,.44-.42.5a2.15,2.15,0,0,0-1.86,1.45,4.77,4.77,0,0,0-.36,1.64C278.06,88.9,278,89.66,278,90.53Z"/><path class="cls-16" d="M332,90.53h-.92V84.41c.23-.19.54-.07.84-.06.23.35-.07.78.16,1.13,1.55-1.38,1.55-1.38,2.48-1.36.13.08.08.21.08.32,0,.3.1.57-.43.63a2.09,2.09,0,0,0-1.86,1.44,4.87,4.87,0,0,0-.35,1.65C332,88.91,332,89.67,332,90.53Z"/><path class="cls-16" d="M219.75,63.7h-.92V57.58c.23-.18.54-.07.92-.06v1.21c1.62-1.46,1.62-1.46,2.56-1.44.13.09.08.22.07.33,0,.29.11.56-.42.62a2.1,2.1,0,0,0-1.86,1.44,4.88,4.88,0,0,0-.36,1.65C219.77,62.09,219.75,62.84,219.75,63.7Z"/><path class="cls-16" d="M251.18,70.93h.95v1.2c1.65-1.44,1.65-1.44,2.56-1.43.16.12.06.29.08.44,0,.31,0,.44-.41.51a2.15,2.15,0,0,0-1.87,1.44,5.07,5.07,0,0,0-.36,1.64c0,.76,0,1.51,0,2.27-.14.21-.35.11-.54.13s-.44,0-.43-.35C251.19,74.84,251.18,72.9,251.18,70.93Z"/><path class="cls-16" d="M180.68,57.51h.93v1.22c1.61-1.46,1.61-1.46,2.59-1.43a1.66,1.66,0,0,1,0,.33c0,.29.1.55-.43.61A2.09,2.09,0,0,0,182,59.69a5.12,5.12,0,0,0-.35,1.65c0,.75,0,1.51,0,2.28a1.37,1.37,0,0,1-.92.06Z"/><path class="cls-17" d="M351.93,90.55V81.78c.29-.18.58-.06.84-.1a.34.34,0,0,1,.12.31v7.77C352.89,90.53,352.89,90.53,351.93,90.55Z"/><path class="cls-17" d="M383.12,95.37l.42,0h.54v8.75c-.27.2-.58.1-1,.08v-8.8Z"/><path class="cls-17" d="M338,95.36h1v8.73c-.27.2-.58.1-1,.08V95.36Z"/><path class="cls-17" d="M226.91,77.11H226V68.35a1.33,1.33,0,0,1,.89,0Z"/><path class="cls-17" d="M502.15,81.71H503v8.76c-.23.24-.55,0-.88.13Z"/><path class="cls-18" d="M450.05,84.32h.84a.31.31,0,0,1,.12.3c0,2,0,4.07,0,6.1,0,1.26-.63,1.84-1.85,1.75-.17,0-.33,0-.3-.25s-.1-.37.19-.48c1-.39,1-.41,1-1.37Z"/><path class="cls-18" d="M197.92,98h.88a.84.84,0,0,1,.07.23c0,2.07,0,4.14,0,6.21a1.61,1.61,0,0,1-1.82,1.69c-.23,0-.38-.06-.35-.33s0-.33.26-.42c.83-.24.93-.4.94-1.19Z"/><path class="cls-14" d="M286.2,103.48c-.55,1.1-1.57,1-2.52.94a2,2,0,0,1-1.6-1.31,1.5,1.5,0,0,1-.2-.64V98.08c.29-.19.57-.07.83-.11a.31.31,0,0,1,.13.31v3.46a1.81,1.81,0,0,0,2.83,1.67c.1,0,.14-.2.29-.17l.09,0a.37.37,0,0,1,.13.12Z"/><path class="cls-14" d="M486.28,89.83c-.55,1.09-1.57,1-2.52.93a2,2,0,0,1-1.61-1.3,1.52,1.52,0,0,1-.19-.64v-4.4c.28-.19.57-.06.83-.1a.32.32,0,0,1,.13.3c0,1.16,0,2.31,0,3.47a1.81,1.81,0,0,0,2.83,1.67c.1-.06.14-.21.29-.17l.09,0a.53.53,0,0,1,.13.13Z"/><path class="cls-11" d="M286,103.24a3,3,0,0,0,.49-1.83c0-1.11,0-2.22,0-3.35a1.48,1.48,0,0,1,.93,0v6.09c-.11.16-.28.07-.43.09-.3,0-.57,0-.5-.41,0-.16,0-.33-.24-.31A2.72,2.72,0,0,0,286,103.24Z"/><path class="cls-11" d="M486,89.59a3.1,3.1,0,0,0,.49-1.83c0-1.11,0-2.23,0-3.36a1.55,1.55,0,0,1,.93,0v6.09c-.11.15-.29.07-.43.09-.31,0-.57,0-.51-.41,0-.16,0-.33-.23-.31A2.72,2.72,0,0,0,486,89.59Z"/><path class="cls-19" d="M246.62,42.64q-.26,0-.24.24c-.72,0-.82-.66-1.1-1.09-.75-1.19-1.34-1.19-2,.07s-1.37,2.77-2.09,4.14c-.22.42-.33,1-1,1,0-.17-.07-.24-.24-.24.95-1.87,1.93-3.72,2.83-5.61A1.73,1.73,0,0,1,244.29,40a1.28,1.28,0,0,1,1.42.86A15.57,15.57,0,0,0,246.62,42.64Z"/><path class="cls-20" d="M191.68,50h-.92v-6.2h.49c.26,0,.44,0,.44.36C191.67,46.14,191.68,48.08,191.68,50Z"/><path class="cls-20" d="M208,98h.88v6.12c-.23.18-.54.06-.88,0Z"/><path class="cls-20" d="M521.34,84.34h.89v6.13c-.25.16-.55.07-.89,0Z"/><path class="cls-20" d="M338.52,63.73V57.58c.27-.17.55-.06.82-.09,0,0,.08.06.08.08v6.07C339.17,63.8,338.89,63.69,338.52,63.73Z"/><path class="cls-20" d="M195.48,104.18h-.88V98.06c.24-.17.54-.08.88,0Z"/><path class="cls-20" d="M243.22,63.7h-.88V57.57c.23-.17.54-.07.88,0Z"/><path class="cls-20" d="M447.86,90.53H447V84.4c.24-.17.55-.07.89-.05Z"/><path class="cls-20" d="M263.13,104.18h-.88V98.06c.23-.18.54-.07.88-.06Z"/><path class="cls-20" d="M271.13,70.93H272v6.18h-.88Z"/><path class="cls-20" d="M417.62,104.18h-.87V98h.87Z"/><path class="cls-20" d="M311.67,70.93h.88v6.12c-.22.25-.55,0-.88.15Z"/><path class="cls-20" d="M341.17,98h.89v6.12c-.24.23-.56,0-.89.13Z"/><path class="cls-20" d="M312.87,84.34h.88v6.12c-.24.18-.54.08-.88.06Z"/><path class="cls-20" d="M309,98h.88v6.12c-.23.18-.54.07-.88,0Z"/><path class="cls-20" d="M181.4,43.86h.89V50c-.24.22-.56,0-.89.13Z"/><path class="cls-20" d="M291,90.53h-.88V84.4c.23-.17.54-.07.88-.05Z"/><path class="cls-20" d="M416.75,84.34h.88v6.12c-.24.18-.54.07-.88.06Z"/><path class="cls-6" d="M208.21,21.08V23h-2.1V21.16a8,8,0,0,1,1.76-.08Z"/><path class="cls-6" d="M373.73,23h-2.09V21.14h2.09Z"/><path class="cls-6" d="M365.57,23h-2.08V21.1c.65-.05,1.34,0,2.08,0Z"/><path class="cls-6" d="M336.12,23V21.12h2.11c.07.57,0,1.18,0,1.84Z"/><path class="cls-6" d="M313.59,21.1h2.08V23c-.65,0-1.34,0-2.08,0Z"/><path class="cls-6" d="M261.21,23h-2.08V21.1c.65-.05,1.35,0,2.08,0Z"/><path class="cls-6" d="M510.48,21.1h2.15v1.84c-.06.1-.23.06-.38.06l-1.66,0A10.89,10.89,0,0,1,510.48,21.1Z"/><path class="cls-9" d="M516.73,21.12V23h-2.12c-.06-.57,0-1.18,0-1.84Z"/><path class="cls-21" d="M241.2,103h1.33a4.54,4.54,0,0,1-.2,1.88c-.22.46-.63.5-1,.71s-.39-.14-.45-.29.19-.1.27-.17a5.39,5.39,0,0,0,.59-.58.41.41,0,0,0,0-.3C240.91,104.08,241.59,103.44,241.2,103Z"/><path class="cls-21" d="M460.13,91.63A1.84,1.84,0,0,0,461,91a.41.41,0,0,0,0-.3c-.75-.2-.34-.79-.49-1.26h1.24a8,8,0,0,1,0,1.2A1.49,1.49,0,0,1,461,91.8C460.51,92.06,460.38,91.87,460.13,91.63Z"/><path class="cls-21" d="M387.91,91.63a1.64,1.64,0,0,0,.74-.49c.22-.26.51-.49-.1-.6-.12,0-.16-.14-.15-.27s0-.55,0-.87h1.21a4.29,4.29,0,0,1-.24,1.91c-.23.42-.65.48-1,.66C388.19,92.06,388.09,91.74,387.91,91.63Z"/><path class="cls-21" d="M357.4,103h1.26a5,5,0,0,1-.22,1.9c-.23.44-.64.49-1,.69s-.39-.16-.43-.3.2-.09.29-.17a4,4,0,0,0,.58-.58.4.4,0,0,0-.05-.31C357.07,104,357.62,103.46,357.4,103Z"/><path class="cls-22" d="M203.94,58.69V57.53h1.11s.07.14.07.26c0,.89,0,.89-1,.9Z"/><path class="cls-22" d="M283.32,77.13h-1.16V76s.14-.07.26-.07c.89,0,.89,0,.9,1Z"/><path class="cls-22" d="M246.84,84.36v1.12h-1.11c-.19-.32,0-.71-.11-1.12Z"/><path class="cls-20" d="M350.69,63.7h-1.12V62.58a3.41,3.41,0,0,1,1.12,0Z"/><path class="cls-20" d="M322.69,77.09V76h1.12a3.35,3.35,0,0,1,0,1.11Z"/><path class="cls-22" d="M283.28,72.08h-1.12V71c.32-.19.71,0,1.12-.11Z"/><path class="cls-23" d="M272.81,82.18h1.12v1.11c-.32.19-.71,0-1.12.11Z"/><path class="cls-20" d="M270.65,82.18h1.12v1.13a3.4,3.4,0,0,1-1.12,0Z"/><path class="cls-22" d="M246.82,90.53H245.7V89.41a3.38,3.38,0,0,1,1.12,0Z"/><path class="cls-22" d="M209.41,43.88V45h-1.12a3.32,3.32,0,0,1,0-1.11Z"/><path class="cls-20" d="M435.22,103h1.12v1.13a3.4,3.4,0,0,1-1.12,0Z"/><path class="cls-22" d="M209.39,50h-1.12V48.92a3.41,3.41,0,0,1,1.12,0Z"/><path class="cls-22" d="M203.94,63.68V62.56H205c.19.32,0,.71.11,1.12Z"/><path class="cls-23" d="M449.83,82.84V82h1.1c.17.24.07.55.05.88Z"/><path class="cls-23" d="M181.11,41.46h1.13c.16.27,0,.55.09.86a3,3,0,0,1-1.11.07C181.05,42.11,181.16,41.83,181.11,41.46Z"/><path class="cls-23" d="M521.06,81.94h1.11c.2.27,0,.56.12.79a1.77,1.77,0,0,1-1.14.12s-.08-.06-.08-.09C521.06,82.53,521.06,82.29,521.06,81.94Z"/><path class="cls-23" d="M446.68,81.94h1.13c.16.27.05.55.08.82a1.6,1.6,0,0,1-1.1.08C446.58,82.62,446.73,82.32,446.68,81.94Z"/><path class="cls-23" d="M190.5,42.36v-.88h1.1c.17.24.07.54.05.88Z"/><path class="cls-23" d="M291,82.86h-1.12c-.17-.26-.06-.54-.09-.81a1.57,1.57,0,0,1,1.11-.08C291.11,82.18,291,82.49,291,82.86Z"/><path class="cls-23" d="M417.74,96.52h-1.18c-.2-.27,0-.56-.13-.82.39-.24.78,0,1.12-.14C417.77,95.87,417.59,96.15,417.74,96.52Z"/><path class="cls-23" d="M342.17,96.52H341c-.2-.27,0-.56-.13-.82.39-.24.78,0,1.12-.14C342.2,95.87,342,96.15,342.17,96.52Z"/><path class="cls-23" d="M308.68,95.6h1.18c.2.26,0,.55.13.81-.39.24-.78,0-1.12.14C308.65,96.25,308.83,96,308.68,95.6Z"/><path class="cls-23" d="M262,96.5v-.88h1.1c.17.23.07.54.05.88Z"/><path class="cls-23" d="M207.78,96.5v-.88h1.09c.17.24.08.54,0,.88Z"/><path class="cls-23" d="M198.89,96.52h-1.13c-.16-.27,0-.55-.08-.81a1.55,1.55,0,0,1,1.1-.09C199,95.84,198.84,96.15,198.89,96.52Z"/><path class="cls-23" d="M195.5,95.62v.88h-1.1c-.24-.23,0-.55-.13-.88Z"/><path class="cls-23" d="M272,68.55v.88h-1.1c-.17-.23-.07-.54-.05-.88Z"/><path class="cls-23" d="M312.67,69.45h-1.18c-.2-.27,0-.56-.13-.82.39-.24.78,0,1.11-.14C312.69,68.8,312.51,69.08,312.67,69.45Z"/><path class="cls-23" d="M417.74,82.86h-1.18c-.2-.26,0-.55-.13-.81.39-.24.78,0,1.12-.14C417.77,82.21,417.59,82.5,417.74,82.86Z"/><path class="cls-23" d="M312.58,81.94h1.13c.15.28.05.56.08.84-.36.22-.75,0-1.09.12C312.52,82.59,312.62,82.31,312.58,81.94Z"/><path class="cls-23" d="M339.54,56h-1.18c-.21-.26,0-.55-.15-.84a2.69,2.69,0,0,1,1.15-.08C339.56,55.38,339.38,55.67,339.54,56Z"/><path class="cls-23" d="M242.08,56.05v-.91h1.1c.2.18.06.47.07.73s-.19.19-.35.18Z"/><path class="cls-24" d="M388.88,29.7c0-.23.2-.34.51-.51-.11.39.18.75-.27,1C389.08,30,389.24,29.72,388.88,29.7Z"/><path class="cls-6" d="M83,70.67c-1.28,0-2.56-.07-3.83,0s-2.23-.42-3.37-.25A6,6,0,0,0,73.73,70a14.57,14.57,0,0,1-2.06-.56,23.84,23.84,0,0,1-2.56-1l-5.35-2.09c-2-.78-4.07-1.35-6.06-2.11a.48.48,0,0,0-.12,0c-.84.23-1.56-.25-2.3-.46a36.9,36.9,0,0,1-9.16-3.36,22.93,22.93,0,0,1-2.9-2.09,1.78,1.78,0,0,1-.76-1.76,11.87,11.87,0,0,0,0-1.79c-.07-.54.31-1,.27-1.46a.81.81,0,0,0-.47-.83,5.72,5.72,0,0,1-1.65-1.25A2.89,2.89,0,0,1,40,48.34a5,5,0,0,1,2.09-2.7,2.41,2.41,0,0,1,2.22-.33,12.09,12.09,0,0,1,2.87.89.51.51,0,0,0,.64-.12,9.68,9.68,0,0,1,2.64-1.74c.63-.35,1.38-.54,2-.84A15.63,15.63,0,0,1,55,42.66c1.08-.3,2.22-.37,3.3-.74a1,1,0,0,1,.24,0,29.09,29.09,0,0,0,3.85-.3c1.33-.15,2.66-.13,4-.17a24.78,24.78,0,0,1,4,0,14.44,14.44,0,0,0,4,.16,46.73,46.73,0,0,1,6-.18c.38,0,.61-.25,1-.28.84-.08,1.59.35,2.43.28s1.59,0,2.39,0c.92.61,1.64,0,2.42-.35,2-.9,4-1.8,6-2.55,1.28-.46,2.53-1,3.85-1.41a15.93,15.93,0,0,1,3.8-1,2,2,0,0,1,1.46-.23c.4,0,.67-.33,1.1-.27.64.1,0-.77.56-.83a6.82,6.82,0,0,1,2.18-2.68,7.68,7.68,0,0,0,2.1-2.36,7.32,7.32,0,0,0,1.49-2.37c0-.06.2-.12.3-.11a.19.19,0,0,1,.16.25c-.1.55.34,1,.26,1.58a11.64,11.64,0,0,0,0,1.67,3.55,3.55,0,0,1-.71,2.11,3.2,3.2,0,0,0-.73,2.21,1,1,0,0,0,.76,1,7,7,0,0,1,3,1.72,37.58,37.58,0,0,1,3.44,3,2.82,2.82,0,0,1,.62.83c.08.2.16.45.08.55-.43.49-.05,1.1-.25,1.58a3.71,3.71,0,0,0-.22,1.46.74.74,0,0,1-.07.21.5.5,0,0,0,0,.21,1.6,1.6,0,0,0,0,.21l.15.29.1.2a.86.86,0,0,0,.14.18l.1.07a2.32,2.32,0,0,0,.37.13,1.32,1.32,0,0,1,.62.42v1.68A8,8,0,0,1,118,53.15a4.19,4.19,0,0,1-3.68,2.19c-1,0-1.92,0-2.88,0-.56,0-1.12,0-1.68,0s-.82.5-1.26.71a4.49,4.49,0,0,1-4.38-.34c-.06,0-.1-.14-.17-.16-.45-.13-.68-.62-1.15-.69-.14.42-.58.63-.75,1a8.2,8.2,0,0,1-1.64,1.83,2.25,2.25,0,0,0-.62,1.07,9.75,9.75,0,0,1-1.42,3.49c-.82,1.23-1.7,2.4-2.53,3.62-.88.46-1.46,1.32-2.41,1.71s-1.76.94-2.65,1.41a.86.86,0,0,1-.36,0,1.35,1.35,0,0,1-.81.65,24.22,24.22,0,0,1-6.19,1.19A.62.62,0,0,1,83,70.67Z"/><path class="cls-25" d="M42.46,56.53c.31.27.15.72.42,1a25,25,0,0,0,2,1.61c.72.68,1.71.94,2.45,1.59,1.46.4,2.75,1.24,4.26,1.56,1.11.24,2.19.66,3.3,1,.71.19,1.4.5,2.11.65.25.06.37.28.62.27q-2.23,3.06-4.33,6.23c-.76,1.16-1.61,2.27-2.36,3.45a42.34,42.34,0,0,0-2.9,4.9,4.78,4.78,0,0,0-.49,1.83c0,1.47,0,3,0,4.42,0,.33.18.39.39.56s.72.44,1,.72a1.31,1.31,0,0,1,.49,1.36,1.33,1.33,0,0,1-1.09.92c-.61.16-1.31,0-1.92.28-.44-.34-1-.14-1.45-.28-1.09-.32-1.26-.63-1.3-1.81s.39-2.06.27-3.13c-.07-.57-.09-1-.71-1.39A3.23,3.23,0,0,1,42,80.87a2.83,2.83,0,0,1-.23-1.8,2.14,2.14,0,0,1,.65-1c.72-.67.89-1.64,1.42-2.41a1.17,1.17,0,0,0,.06-.57q0-.84,0-1.68A2.73,2.73,0,0,0,43.68,72c-.18-.36.06-.8-.2-1.24s.11-1.08-.3-1.54c.18-.72-.33-1.36-.23-2.06.06-.48-.3-.85-.27-1.34s.18-.94-.21-1.34c0,0,0-.15,0-.23.17-1-.28-2-.25-3s0-2.08,0-3.11c0-.48,0-1,0-1.44A.18.18,0,0,1,42.46,56.53Z"/><path class="cls-25" d="M83,70.67c.34.11.52-.29.85-.25s.64,0,1,0a5.56,5.56,0,0,0,1.45-.28,23.77,23.77,0,0,0,3.88-1c.1,0,.14-.2.29-.16a29.78,29.78,0,0,1-.88,5.37,28,28,0,0,1-1.08,3.28c-.19.49-.61,1-.41,1.48s.25,1.19.49,1.71A3.44,3.44,0,0,1,89,82.56c0,.28.25.36.27.62s.17,0,.28,0a1.61,1.61,0,0,1,1.88.54,4.55,4.55,0,0,0,.76.76,3.12,3.12,0,0,1,.87,1.8c.24.87-.46,1.59-1.46,1.62-.84,0-1.68,0-2.52,0a2.44,2.44,0,0,0-1.14.15c-.25.13-.79-.11-1.1-.33a2.43,2.43,0,0,1-1-1.38c-.35-1.25-.8-2.47-1.18-3.7-.12-.38-.46-.57-.61-1a4.55,4.55,0,0,1-.59-2.38c.14-1-.33-1.91-.26-2.9a10.61,10.61,0,0,0,0-3A17.48,17.48,0,0,1,83,70.67Z"/><path class="cls-26" d="M117.55,46v-.24a.34.34,0,0,1,0-.48h.24c.33.06.68-.12,1,.14a1,1,0,0,1,.46,1,5.48,5.48,0,0,0,0,.81c-.19,0-.39,0-.52-.16s-.29-.05-.44-.08a2.72,2.72,0,0,0-.24-.24,2.72,2.72,0,0,0-.24-.24v-.24C117.7,46.16,117.64,46.06,117.55,46Z"/><path class="cls-27" d="M220.29,43.36h1c0,.06.12.12.12.18a19.88,19.88,0,0,0-.24,3c0,.21-.2.18-.35.18s-.38,0-.35-.18C220.64,45.48,220,44.49,220.29,43.36Z"/><path class="cls-28" d="M220.27,47.21h1.12v1.12a3.38,3.38,0,0,1-1.12.05Z"/><path class="cls-27" d="M232.05,43.38h1.16c-.13.45,0,.85-.22,1.34a3.54,3.54,0,0,0,0,1.63c0,.23,0,.37-.31.37s-.47,0-.42-.38C232.38,45.37,231.75,44.46,232.05,43.38Z"/><path class="cls-28" d="M233.16,47.19v1.16h-1.11c-.05,0-.07-.14-.07-.26,0-.89,0-.89,1-.9Z"/><path class="cls-29" d="M387.6,28.75A1.92,1.92,0,0,1,385.75,27a1.94,1.94,0,0,1,1.71-1.82,1.78,1.78,0,0,1,1.17.37,1.91,1.91,0,0,1,.62,1.4,2,2,0,0,1-.53,1.38A1.3,1.3,0,0,1,387.6,28.75Z"/><path class="cls-30" d="M349.83,25.16A1.46,1.46,0,0,1,351,26c.53,1.27.53,1.32,0,2.63a1.29,1.29,0,0,1-1.34.81,1.26,1.26,0,0,1-1.34-.8c-.57-1.25-.62-1.4,0-2.62A1.34,1.34,0,0,1,349.83,25.16Z"/><path class="cls-30" d="M292.73,25.16a1.45,1.45,0,0,1,1.2.85c.53,1.27.53,1.32,0,2.63a1.52,1.52,0,0,1-2.68,0c-.56-1.25-.61-1.4,0-2.62A1.33,1.33,0,0,1,292.73,25.16Z"/><path class="cls-30" d="M272.77,27.44c-.34.59-.18,1.55-1.18,1.9a1.49,1.49,0,0,1-2-.74,2.18,2.18,0,0,1-.07-2.53,1.38,1.38,0,0,1,1.41-.91,1.26,1.26,0,0,1,1.4.9A4.15,4.15,0,0,1,272.77,27.44Z"/><path class="cls-29" d="M303.23,27.37a1.7,1.7,0,0,1-1.06,1.87,1.76,1.76,0,0,1-2.53-1.37,7.85,7.85,0,0,1,0-.84,1.8,1.8,0,1,1,3.59,0C303.24,27.13,303.23,27.21,303.23,27.37Z"/><path class="cls-30" d="M186.76,26.83c-.28,0-.56,0-.83,0s-.44.12-.48-.18-.1-.45.12-.52c.39-.14.25-.63.73-.8a1.42,1.42,0,0,1,2,1.21c0,.17,0,.31-.25.3Z"/><path class="cls-30" d="M253.77,26.83a1.08,1.08,0,0,1-.36,0c-.34-.1-.81.3-1-.22-.12-.3.38-1,.79-1.21a1.35,1.35,0,0,1,2.07,1.06c0,.22,0,.39-.29.38Z"/><path class="cls-30" d="M428,26.83H426.8c-.32,0-.31-.26-.25-.41a2.39,2.39,0,0,1,.94-1.15c.49-.31.88,0,1.28.13s.51.63.64,1,0,.46-.35.43A9.53,9.53,0,0,0,428,26.83Z"/><path class="cls-30" d="M456.33,26.83h-1.19c-.29,0-.32-.17-.29-.38a1.51,1.51,0,0,1,2.09-1.1c.54.18.52.62.77.91s0,.56-.42.57Z"/><path class="cls-30" d="M478.4,26.83h-1.19c-.29,0-.32-.17-.29-.38a1.51,1.51,0,0,1,2.09-1.1c.54.18.52.62.77.91s0,.56-.42.57Z"/><path class="cls-31" d="M212.58,29.69a1.14,1.14,0,0,1-.75-.45,1,1,0,0,1,.59-1.43,4.3,4.3,0,0,1,1.91.22c.12,0,.15.13,0,.23a.33.33,0,0,0-.12.19c-.05.29.14.69-.22.85A2.89,2.89,0,0,1,212.58,29.69Z"/><path class="cls-5" d="M173.71,76.41V73.3c1.06,0,2.12,0,3.19,0,.33,0,.53.24.85.28.47.06,1,.82,1,1.27a1.63,1.63,0,0,1-1,1.31,5.07,5.07,0,0,1-1.33.29C175.58,76.36,174.7,76.41,173.71,76.41Z"/><path class="cls-32" d="M173.72,72.58V69.23h1.47c.51,0,1,0,1.55,0a1.9,1.9,0,0,1,1.51,1.61c0,.73-.39,1.14-1.26,1.52a2.31,2.31,0,0,1-1,.21Z"/><path class="cls-5" d="M173.71,46V42.16c1,0,2,0,3,0a2.25,2.25,0,0,1,1.73,1,2.1,2.1,0,0,1-1,2.61,3.8,3.8,0,0,1-1.33.23C175.32,46,174.57,46,173.71,46Z"/><path class="cls-29" d="M420.31,87.08a2.22,2.22,0,0,1,2.17-2.29,3.72,3.72,0,0,1,1.66.62,5.37,5.37,0,0,1,.72,1.71,3,3,0,0,1-.82,1.66,2.14,2.14,0,0,1-1.42.58A2.24,2.24,0,0,1,420.31,87.08Z"/><path class="cls-29" d="M513.87,87a2.22,2.22,0,0,1,3.75-1.65,2.44,2.44,0,0,1,.78,1.66,2.37,2.37,0,0,1-.75,1.68,2.16,2.16,0,0,1-1.51.63A2.23,2.23,0,0,1,513.87,87Z"/><path class="cls-29" d="M342.1,60.24a2.22,2.22,0,0,1,3.73-1.7,3,3,0,0,1,.82,1.66,5.24,5.24,0,0,1-.72,1.71,3.54,3.54,0,0,1-1.53.62,3,3,0,0,1-1.64-.66A1.86,1.86,0,0,1,342.1,60.24Z"/><path class="cls-29" d="M245.9,60.29a2.23,2.23,0,0,1,3.75-1.74,2.48,2.48,0,0,1,.78,1.67,2.33,2.33,0,0,1-.75,1.68,1.91,1.91,0,0,1-1.5.62,2.47,2.47,0,0,1-1.64-.66A1.86,1.86,0,0,1,245.9,60.29Z"/><path class="cls-29" d="M427.74,100.77a2.26,2.26,0,0,1,2.2-2.33,2.22,2.22,0,0,1,1.53.58,3,3,0,0,1,.83,1.65,5.2,5.2,0,0,1-.72,1.72c-.5.23-.93.64-1.53.62a3,3,0,0,1-1.64-.66A1.77,1.77,0,0,1,427.74,100.77Z"/><path class="cls-29" d="M219.27,100.76A2.23,2.23,0,0,1,223,99a2.52,2.52,0,0,1,.8,1.66,2.37,2.37,0,0,1-.75,1.69,2,2,0,0,1-1.51.63,2.49,2.49,0,0,1-1.63-.66A1.85,1.85,0,0,1,219.27,100.76Z"/><path class="cls-29" d="M315.23,73.69A2.23,2.23,0,0,1,319,72a2.37,2.37,0,0,1,.75,1.68,2.44,2.44,0,0,1-.78,1.67,2.16,2.16,0,0,1-1.41.6A2.25,2.25,0,0,1,315.23,73.69Z"/><path class="cls-29" d="M213.3,71.33c.47.26,1,.23,1.42.65a2.77,2.77,0,0,1-.22,4.27,2.08,2.08,0,0,1-2.9-.49,3.19,3.19,0,0,1,0-3.33C212,71.63,212.66,71.64,213.3,71.33Z"/><path class="cls-29" d="M282.63,87.4c-.25-.72.23-1.26.52-1.8a2.16,2.16,0,0,1,2.85-.41,3.21,3.21,0,0,1,1.13,2,2.78,2.78,0,0,1-.59,1.89,2.53,2.53,0,0,1-1.64.95c-.46.15-.76-.33-1.22-.28-.15,0-.48-.35-.61-.67C282.86,88.56,282.43,88.07,282.63,87.4Z"/><path class="cls-29" d="M274.74,74.08a2.21,2.21,0,0,1,.47-1.87,2.09,2.09,0,0,1,2.85-.45,3,3,0,0,1,1.15,2.14,2.81,2.81,0,0,1-.64,1.88,2.11,2.11,0,0,1-1.56.85,1.71,1.71,0,0,1-1.79-.8C275,75.29,274.39,74.76,274.74,74.08Z"/><path class="cls-29" d="M349.06,87.46a4.33,4.33,0,0,1-.52,1.78c-.19.58-.86.62-1.33.8a1.32,1.32,0,0,1-1.32-.22c-.45-.4-1.11-.68-1.14-1.39,0-.53-.66-1.06,0-1.6-.11-1.07.69-1.46,1.42-1.9a1.29,1.29,0,0,1,1.22,0A2.55,2.55,0,0,1,349.06,87.46Z"/><path class="cls-29" d="M234.37,74a3.87,3.87,0,0,1-.48,1.82c-.24.61-.9.69-1.42.85a1.56,1.56,0,0,1-1.5-.38,2.66,2.66,0,0,1-1.08-1.83,2.58,2.58,0,0,1,2.33-3,2.22,2.22,0,0,1,1.9,1.48C234.2,73.26,234.65,73.59,234.37,74Z"/><path class="cls-29" d="M328.42,87.37a3.57,3.57,0,0,1-.55,1.91c-.28.56-.92.65-1.46.77a1.48,1.48,0,0,1-1.39-.38c-.29-.28-.58-.55-.84-.85s.12-.72-.26-1c-.25-1.53,1-3.14,2.33-3a2.1,2.1,0,0,1,1.9,1.46C328.23,86.67,328.71,87,328.42,87.37Z"/><path class="cls-29" d="M259.57,101.07a4.27,4.27,0,0,1-.5,1.81c-.18.53-.77.6-1.23.76a1.4,1.4,0,0,1-1.32-.14c-.53-.34-1.13-.69-1.23-1.29s-.69-1.14,0-1.71c-.1-1.07.69-1.47,1.42-1.91a1.32,1.32,0,0,1,1.22,0A2.51,2.51,0,0,1,259.57,101.07Z"/><path class="cls-29" d="M204.4,87.39a4,4,0,0,1-.51,1.83c-.21.6-.91.66-1.43.83a1.56,1.56,0,0,1-1.49-.42,3.93,3.93,0,0,1-.83-.85c-.2-.3-.1-.71-.26-1.08a2.11,2.11,0,0,1,.31-1.63,2.61,2.61,0,0,1,1.48-1.26A2.28,2.28,0,0,1,204,86,3.05,3.05,0,0,1,204.4,87.39Z"/><path class="cls-29" d="M444,87.11a4,4,0,0,1-.49,2.14c-.2.59-.87.6-1.34.79a1.3,1.3,0,0,1-1.32-.22c-.43-.41-1.09-.69-1.12-1.41,0-.53-.63-1.06,0-1.59-.2-.85.47-1.23,1-1.63a1.32,1.32,0,0,1,1.78-.17C443.86,85.26,443.78,86.46,444,87.11Z"/><path class="cls-30" d="M390.51,101.4a2,2,0,0,1-.35,1.6c-.3.57-1.58.79-2.25.6s-1-.25-1-1c0-.14-.07-.24,0-.43a2,2,0,0,1,2.6-1C389.87,101.31,390.22,101.19,390.51,101.4Z"/><path class="cls-30" d="M198.62,74c.49-.21.93.35,1.49.25.22,0,.2.17.21.33a2,2,0,0,1-2.7,1.91c-.6-.17-.94-.36-1-1a.6.6,0,0,1,0-.35A1.8,1.8,0,0,1,198.62,74Z"/><path class="cls-30" d="M175.1,101.09c.52-.16,1,.36,1.54.25.19,0,.17.21.17.36a2,2,0,0,1-2.72,1.87,1.16,1.16,0,0,1-1-1c-.05-.19,0-.23.06-.35A1.73,1.73,0,0,1,175.1,101.09Z"/><path class="cls-30" d="M302.89,90.06c-.49.11-.81-.27-1.25-.29-.28,0-.51-.92-.37-1.21a2.13,2.13,0,0,1,2.6-1.09c.1,0,.17.17.27.2.25.07.64-.16.75.15a1,1,0,0,1-.13.88c-.18.26-.07.78-.45.86S303.45,90.25,302.89,90.06Z"/><path class="cls-30" d="M302,74c.47-.2.92.35,1.48.25.22,0,.2.17.2.33A2,2,0,0,1,301,76.51c-.6-.17-.94-.35-1-1,0-.13-.07-.19,0-.35A1.81,1.81,0,0,1,302,74Z"/><path class="cls-30" d="M241.28,74.26a2.21,2.21,0,0,1-.28,1.61c-.18.47-.81.5-1.23.74a1.54,1.54,0,0,1-1.12-.08c-.56-.18-1-.33-1-1,0-.11-.1-.17,0-.35A1.88,1.88,0,0,1,239.3,74C240,73.93,240.57,74.33,241.28,74.26Z"/><path class="cls-30" d="M248.25,74.33a2,2,0,0,1-.35,1.6c-.31.57-1.58.79-2.26.6-.53-.15-1-.25-1-1,0-.15-.06-.25,0-.43a2,2,0,0,1,2.61-1C247.61,74.25,248,74.12,248.25,74.33Z"/><path class="cls-33" d="M320.68,87h-3.83c-.36,0-.57-.28-.41-.6a2.89,2.89,0,0,1,1.61-1.54,1.83,1.83,0,0,1,2.2,1.52A.94.94,0,0,0,320.68,87Z"/><path class="cls-33" d="M359.65,86.92h-4.06a2.29,2.29,0,0,1,1.59-2.11,1.93,1.93,0,0,1,1.69.55C359.32,85.77,359.27,86.4,359.65,86.92Z"/><path class="cls-33" d="M378.44,87c-1.41,0-2.64,0-3.87,0-.41,0-.38-.27-.31-.47a2.51,2.51,0,0,1,1.59-1.67,1.84,1.84,0,0,1,2.23,1.49c0,.14,0,.31.14.42S378.27,86.79,378.44,87Z"/><path class="cls-33" d="M407.1,87h-3.59c-.47,0-.63-.22-.42-.64A2.81,2.81,0,0,1,404.21,85a1.7,1.7,0,0,1,2.42.73C406.79,86.13,406.92,86.51,407.1,87Z"/><path class="cls-33" d="M432.53,87h-3.59c-.47,0-.63-.22-.42-.64A2.81,2.81,0,0,1,429.64,85a1.7,1.7,0,0,1,2.42.73C432.22,86.13,432.35,86.51,432.53,87Z"/><path class="cls-33" d="M479.46,86.93h-3.91a2.24,2.24,0,0,1,1.57-2.12,1.84,1.84,0,0,1,1.69.55A3.16,3.16,0,0,1,479.46,86.93Z"/><path class="cls-33" d="M549.6,87H546c-.47,0-.63-.22-.42-.64A2.81,2.81,0,0,1,546.71,85a1.69,1.69,0,0,1,2.42.73C549.29,86.13,549.42,86.51,549.6,87Z"/><path class="cls-33" d="M231.31,100.61h-3.64c-.48,0-.64-.23-.43-.64a2.79,2.79,0,0,1,1.12-1.28,1.69,1.69,0,0,1,2.41.74c.07.15.25.23.24.37A1.13,1.13,0,0,0,231.31,100.61Z"/><path class="cls-33" d="M270.11,100.61h-3.58c-.47,0-.63-.23-.43-.65a2.89,2.89,0,0,1,1.13-1.27,1.69,1.69,0,0,1,2.41.73C269.81,99.78,269.94,100.16,270.11,100.61Z"/><path class="cls-33" d="M186.11,73.54c-1.49,0-2.72,0-4,0-.41,0-.37-.29-.3-.48a2.52,2.52,0,0,1,1.6-1.67,1.82,1.82,0,0,1,2.21,1.51A.88.88,0,0,0,186.11,73.54Z"/><path class="cls-33" d="M223.55,73.54c-1.5,0-2.73,0-4,0-.4,0-.37-.27-.31-.47a2.48,2.48,0,0,1,1.6-1.67,1.82,1.82,0,0,1,2.21,1.49A.88.88,0,0,0,223.55,73.54Z"/><path class="cls-33" d="M268.44,73.54h-3.59c-.47,0-.63-.23-.43-.64a2.86,2.86,0,0,1,1.13-1.28,1.71,1.71,0,0,1,2.42.73C268.13,72.71,268.26,73.09,268.44,73.54Z"/><path class="cls-33" d="M316.64,100.61c-1.27,0-2.5,0-3.73,0-.4,0-.37-.27-.31-.48a2.52,2.52,0,0,1,1.6-1.67,1.87,1.87,0,0,1,2.21,1.38C316.48,100.07,316.56,100.31,316.64,100.61Z"/><path class="cls-33" d="M312.53,60.09h-4A2.32,2.32,0,0,1,310.17,58a1.86,1.86,0,0,1,1.68.56A4.17,4.17,0,0,1,312.53,60.09Z"/><path class="cls-33" d="M330.33,100.61h-3.58c-.48,0-.64-.23-.43-.65a2.81,2.81,0,0,1,1.12-1.27,1.71,1.71,0,0,1,2.42.73C330,99.78,330.15,100.16,330.33,100.61Z"/><path class="cls-33" d="M348.72,100.58H344.8a2.26,2.26,0,0,1,1.58-2.12,1.84,1.84,0,0,1,1.68.55A3.26,3.26,0,0,1,348.72,100.58Z"/><path class="cls-33" d="M296.69,60.09h-4A2.31,2.31,0,0,1,294.34,58a1.88,1.88,0,0,1,1.68.56A4.08,4.08,0,0,1,296.69,60.09Z"/><path class="cls-33" d="M289.74,60.13c-1.48,0-2.72,0-3.95,0-.41,0-.36-.29-.3-.48A2.54,2.54,0,0,1,287.1,58a1.81,1.81,0,0,1,2.21,1.5A.89.89,0,0,0,289.74,60.13Z"/><path class="cls-33" d="M375.8,100.61c-1.41,0-2.64,0-3.87,0-.41,0-.37-.27-.31-.48a2.51,2.51,0,0,1,1.59-1.67,1.85,1.85,0,0,1,2.23,1.49c0,.15,0,.32.14.42Z"/><path class="cls-33" d="M236,87h-3.76c-.47,0-.63-.22-.42-.64A2.81,2.81,0,0,1,232.92,85a1.78,1.78,0,0,1,2.44.72C235.58,86.12,235.45,86.58,236,87Z"/><path class="cls-5" d="M274.45,87.57c.21.59-.32,1.1-.53,1.69s-.79.56-1.23.74a1.91,1.91,0,0,1-1.21-.1c-2-.56-2-3.39-.8-4.6.33-.34.77-.26,1.13-.47a1.4,1.4,0,0,1,1,.1A2.46,2.46,0,0,1,274.45,87.57Z"/><path class="cls-5" d="M205.83,47.08c.22.62-.26,1.15-.54,1.7a2.06,2.06,0,0,1-2.34.69,2.31,2.31,0,0,1-1.56-1.58,3.1,3.1,0,0,1,.13-2.24,2.32,2.32,0,0,1,2.39-1.33,2.66,2.66,0,0,1,1.92,2.3C205.84,46.74,205.83,46.86,205.83,47.08Z"/><path class="cls-5" d="M216.87,87.49c.2.61-.23,1.17-.5,1.72-.4.79-1.57.91-2.52.65a2,2,0,0,1-1.44-1.53,3,3,0,0,1,.13-2.13,2.14,2.14,0,0,1,2.34-1.39,2.54,2.54,0,0,1,2,2.23Z"/><path class="cls-5" d="M266.77,87.59c.19.61-.33,1.11-.55,1.7s-.82.53-1.25.72a1,1,0,0,1-1.19-.17c-.93-.06-1.22-.82-1.46-1.49a2.65,2.65,0,0,1,.13-2.13c.22-.44.4-1,.87-1.14a2.93,2.93,0,0,1,1.56-.29,2.66,2.66,0,0,1,1.89,2.34Z"/><path class="cls-5" d="M336.34,87.31c-.21-.62.26-1.15.54-1.7a2.08,2.08,0,0,1,2.35-.7,2.35,2.35,0,0,1,1.56,1.58,3.09,3.09,0,0,1-.13,2.24,2.34,2.34,0,0,1-2.4,1.34,2.7,2.7,0,0,1-1.92-2.31Z"/><path class="cls-5" d="M262.45,60.39c-.17-.62.36-1.11.6-1.69s.82-.52,1.25-.69a1.85,1.85,0,0,1,1.11.11c2,.61,2,3.39.81,4.61-.32.34-.76.28-1.12.47a1.4,1.4,0,0,1-1-.08A2.48,2.48,0,0,1,262.45,60.39Z"/><path class="cls-5" d="M510.51,87.6c.11.7-.38,1.22-.66,1.82s-.81.38-1.2.61c-.24.14-.7,0-1.1-.11-2-.61-2-3.39-.81-4.61.32-.34.76-.28,1.12-.48a1.44,1.44,0,0,1,1,.09A2.46,2.46,0,0,1,510.51,87.6Z"/><path class="cls-5" d="M499.48,87.57c.21.59-.32,1.1-.53,1.69s-.79.56-1.23.74a1.84,1.84,0,0,1-1.21-.1c-2-.56-2-3.38-.8-4.6.33-.34.77-.26,1.13-.47a1.4,1.4,0,0,1,1,.1A2.45,2.45,0,0,1,499.48,87.57Z"/><path class="cls-5" d="M240.14,47c.5-.11.53-.6.71-1,.82-1.56,1.6-3.14,2.41-4.71a1.06,1.06,0,0,1,1.6-.59.68.68,0,0,1,.34.35,6.31,6.31,0,0,0,1.18,1.83c-.12.34.16.6.27.84.66,1.37,1.41,2.69,2.08,4.05a2.16,2.16,0,0,1,.31.84,1.28,1.28,0,0,1-1.32,1.46h-6.83a1.19,1.19,0,0,1-1.23-1.15,1.86,1.86,0,0,1,.25-1.33A.76.76,0,0,0,240.14,47Z"/><path class="cls-6" d="M286,103.24q.26,0,.24.24Q286,103.49,286,103.24Z"/><path class="cls-6" d="M486,89.59q.24,0,.24.24Q486,89.85,486,89.59Z"/><path class="cls-34" d="M115.87,44.56h-1c-.58-.49-.36-1.09-.24-1.68a.19.19,0,0,0,.24-.18c0-.41.27-.28.48-.3.12.15.36.09.48.24a1.27,1.27,0,0,1,.72.72.59.59,0,0,1,0,.72l-.24.24C116.22,44.46,116,44.4,115.87,44.56Z"/><path class="cls-35" d="M114.67,42.88a4.6,4.6,0,0,1,0,.83,1.4,1.4,0,0,0,.25.85c-.14,0-.4.08-.42-.09a2.78,2.78,0,0,1,.07-1.59S114.63,42.88,114.67,42.88Z"/><path class="cls-36" d="M116.59,44.08v-.72Q117.09,43.72,116.59,44.08Z"/><path class="cls-37" d="M115.87,44.56c0-.36.3-.21.48-.24C116.33,44.67,116.05,44.52,115.87,44.56Z"/><path class="cls-38" d="M117.55,45.27v.48c-.22,0-.25-.13-.23-.29A.19.19,0,0,1,117.55,45.27Z"/><path class="cls-39" d="M115.87,42.64c-.18,0-.46.12-.48-.24C115.57,42.44,115.85,42.28,115.87,42.64Z"/><path class="cls-40" d="M117.79,46.47q.25,0,.24.24C117.86,46.72,117.79,46.64,117.79,46.47Z"/><path class="cls-41" d="M117.55,46q.26,0,.24.24Q117.55,46.25,117.55,46Z"/><path class="cls-40" d="M118,46.71c.17,0,.25.07.24.24Q118,47,118,46.71Z"/><path class="cls-42" d="M116.35,44.32q0-.26.24-.24Q116.6,44.32,116.35,44.32Z"/><path class="cls-43" d="M243.82,43.38h1.33c.14.4-.35.66-.23,1.07s0,.71,0,1.06-.39.66-.27,1.09c0,.12-.26.11-.41.11s-.3,0-.29-.25c0-.51,0-1,0-1.54S243.54,44,243.82,43.38Z"/><path class="cls-23" d="M243.76,48.35V47.23h1.12a3.38,3.38,0,0,1,.05,1.12Z"/></g></g></svg>